<?xml version="1.0" standalone="no"?>
 <!DOCTYPE svg PUBLIC "-//W3C//DTD SVG 1.1//EN" 
 "http://www.w3.org/Graphics/SVG/1.1/DTD/svg11.dtd"> 
<svg
  xmlns:svg="http://www.w3.org/2000/svg"
  xmlns="http://www.w3.org/2000/svg"
  xmlns:xlink="http://www.w3.org/1999/xlink"
  version="1.1"
  width="297.0022mm" height="210.0072mm" viewBox="0.0000 0.0000 297.0022 210.0072">
<title>SVG Image created as m5-pantilt-F_Courtyard.svg date 2023/09/19 04:43:35 </title>
  <desc>Image generated by PCBNEW </desc>
<g style="fill:#000000; fill-opacity:1.0000;stroke:#000000; stroke-opacity:1.0000;
stroke-linecap:round; stroke-linejoin:round;"
 transform="translate(0 0) scale(1 1)">
</g>
<g style="fill:#000000; fill-opacity:0.0; 
stroke:#000000; stroke-width:0.0000; stroke-opacity:1; 
stroke-linecap:round; stroke-linejoin:round;">
</g>
<g style="fill:#000000; fill-opacity:0.0; 
stroke:#000000; stroke-width:0.0500; stroke-opacity:1; 
stroke-linecap:round; stroke-linejoin:round;">
<path d="M103.1500 98.9500
L107.3000 98.9500
" />
<path d="M103.1500 94.7500
L107.3000 94.7500
" />
<path d="M107.3000 98.9500 A2.1000 2.1000 0.0 0 0 107.3000 94.7500" />
<path d="M103.1500 94.7500 A2.1000 2.1000 0.0 0 0 103.1500 98.9500" />
<path d="M146.8500 94.7500
L142.7000 94.7500
" />
<path d="M146.8500 98.9500
L142.7000 98.9500
" />
<path d="M142.7000 94.7500 A2.1000 2.1000 0.0 0 0 142.7000 98.9500" />
<path d="M146.8500 98.9500 A2.1000 2.1000 0.0 0 0 146.8500 94.7500" />
<path d="M146.8500 51.0500
L142.7000 51.0500
" />
<path d="M146.8500 55.2500
L142.7000 55.2500
" />
<path d="M142.7000 51.0500 A2.1000 2.1000 0.0 0 0 142.7000 55.2500" />
<path d="M146.8500 55.2500 A2.1000 2.1000 0.0 0 0 146.8500 51.0500" />
<path d="M103.1500 55.2500
L107.3000 55.2500
" />
<path d="M103.1500 51.0500
L107.3000 51.0500
" />
<path d="M107.3000 55.2500 A2.1000 2.1000 0.0 0 0 107.3000 51.0500" />
<path d="M103.1500 51.0500 A2.1000 2.1000 0.0 0 0 103.1500 55.2500" />
<path d="M139.0500 56.8500
L139.0500 48.2500
" />
<path d="M139.0500 48.2500
L128.1500 48.2500
" />
<path d="M128.1500 56.8500
L139.0500 56.8500
" />
<path d="M128.1500 48.2500
L128.1500 56.8500
" />
<path d="M139.9000 88.9500
L139.9000 94.4500
" />
<path d="M139.9000 94.4500
L146.8000 94.4500
" />
<path d="M146.8000 88.9500
L139.9000 88.9500
" />
<path d="M146.8000 94.4500
L146.8000 88.9500
" />
<path d="M117.3500 82.2300
L114.0500 82.2300
" />
<path d="M117.3500 80.7700
L117.3500 82.2300
" />
<path d="M114.0500 82.2300
L114.0500 80.7700
" />
<path d="M114.0500 80.7700
L117.3500 80.7700
" />
<path d="M117.3500 83.9300
L114.0500 83.9300
" />
<path d="M117.3500 82.4700
L117.3500 83.9300
" />
<path d="M114.0500 83.9300
L114.0500 82.4700
" />
<path d="M114.0500 82.4700
L117.3500 82.4700
" />
<path d="M120.9500 57.3750
L120.9500 50.6250
" />
<path d="M120.9500 50.6250
L112.5500 50.6250
" />
<path d="M112.5500 57.3750
L120.9500 57.3750
" />
<path d="M112.5500 50.6250
L112.5500 57.3750
" />
<path d="M138.3500 73.9800
L138.3500 69.0200
" />
<path d="M140.6500 73.9800
L138.3500 73.9800
" />
<path d="M138.3500 69.0200
L140.6500 69.0200
" />
<path d="M140.6500 69.0200
L140.6500 73.9800
" />
<path d="M138.2640 69.0200
L138.2640 73.9800
" />
<path d="M135.9640 69.0200
L138.2640 69.0200
" />
<path d="M138.2640 73.9800
L135.9640 73.9800
" />
<path d="M135.9640 73.9800
L135.9640 69.0200
" />
<path d="M138.2500 78.4200
L138.2500 83.3800
" />
<path d="M135.9500 78.4200
L138.2500 78.4200
" />
<path d="M138.2500 83.3800
L135.9500 83.3800
" />
<path d="M135.9500 83.3800
L135.9500 78.4200
" />
<path d="M143.1000 66.8500
L143.1000 55.4500
" />
<path d="M152.5000 66.8500
L143.1000 66.8500
" />
<path d="M143.1000 55.4500
L152.5000 55.4500
" />
<path d="M152.5000 55.4500
L152.5000 66.8500
" />
<path d="M134.5000 96.7500
L131.1000 96.7500
" />
<path d="M134.5000 93.2500
L134.5000 96.7500
" />
<path d="M131.1000 96.7500
L131.1000 93.2500
" />
<path d="M131.1000 93.2500
L134.5000 93.2500
" />
<path d="M134.9062 96.6462
L134.9062 93.3462
" />
<path d="M136.3662 96.6462
L134.9062 96.6462
" />
<path d="M134.9062 93.3462
L136.3662 93.3462
" />
<path d="M136.3662 93.3462
L136.3662 96.6462
" />
<path d="M117.3500 78.9800
L114.0500 78.9800
" />
<path d="M117.3500 77.5200
L117.3500 78.9800
" />
<path d="M114.0500 78.9800
L114.0500 77.5200
" />
<path d="M114.0500 77.5200
L117.3500 77.5200
" />
<path d="M117.4000 85.8800
L114.1000 85.8800
" />
<path d="M117.4000 84.4200
L117.4000 85.8800
" />
<path d="M114.1000 85.8800
L114.1000 84.4200
" />
<path d="M114.1000 84.4200
L117.4000 84.4200
" />
<path d="M117.3500 80.5800
L114.0500 80.5800
" />
<path d="M117.3500 79.1200
L117.3500 80.5800
" />
<path d="M114.0500 80.5800
L114.0500 79.1200
" />
<path d="M114.0500 79.1200
L117.3500 79.1200
" />
<path d="M117.4000 87.4800
L114.1000 87.4800
" />
<path d="M117.4000 86.0200
L117.4000 87.4800
" />
<path d="M114.1000 87.4800
L114.1000 86.0200
" />
<path d="M114.1000 86.0200
L117.4000 86.0200
" />
<path d="M128.5200 71.5700
L131.4800 71.5700
" />
<path d="M128.5200 73.0300
L128.5200 71.5700
" />
<path d="M131.4800 71.5700
L131.4800 73.0300
" />
<path d="M131.4800 73.0300
L128.5200 73.0300
" />
<path d="M131.4800 71.5300
L128.5200 71.5300
" />
<path d="M131.4800 70.0700
L131.4800 71.5300
" />
<path d="M128.5200 71.5300
L128.5200 70.0700
" />
<path d="M128.5200 70.0700
L131.4800 70.0700
" />
<path d="M140.6500 78.4200
L140.6500 83.3800
" />
<path d="M138.3500 78.4200
L140.6500 78.4200
" />
<path d="M140.6500 83.3800
L138.3500 83.3800
" />
<path d="M138.3500 83.3800
L138.3500 78.4200
" />
<path d="M146.8000 66.9000
L142.0000 66.9000
" />
<path d="M142.0000 66.9000
L142.0000 77.9000
" />
<path d="M146.8000 77.9000
L146.8000 66.9000
" />
<path d="M142.0000 77.9000
L146.8000 77.9000
" />
<path d="M117.7300 66.4800
L114.7700 66.4800
" />
<path d="M117.7300 65.0200
L117.7300 66.4800
" />
<path d="M114.7700 66.4800
L114.7700 65.0200
" />
<path d="M114.7700 65.0200
L117.7300 65.0200
" />
<path d="M146.8000 77.9000
L142.0000 77.9000
" />
<path d="M142.0000 77.9000
L142.0000 88.9000
" />
<path d="M146.8000 88.9000
L146.8000 77.9000
" />
<path d="M142.0000 88.9000
L146.8000 88.9000
" />
<path d="M131.4700 66.3300
L128.5100 66.3300
" />
<path d="M131.4700 64.8700
L131.4700 66.3300
" />
<path d="M128.5100 66.3300
L128.5100 64.8700
" />
<path d="M128.5100 64.8700
L131.4700 64.8700
" />
<path d="M128.5200 63.2700
L131.4800 63.2700
" />
<path d="M128.5200 64.7300
L128.5200 63.2700
" />
<path d="M131.4800 63.2700
L131.4800 64.7300
" />
<path d="M131.4800 64.7300
L128.5200 64.7300
" />
<path d="M101.6500 55.4500
L110.7000 55.4500
" />
<path d="M101.6500 94.5500
L101.6500 55.4500
" />
<path d="M110.7000 55.4500
L110.7000 94.5500
" />
<path d="M110.7000 94.5500
L101.6500 94.5500
" />
<path d="M128.0000 55.0000
L121.0000 55.0000
" />
<path d="M128.0000 51.5000
L128.0000 55.0000
" />
<path d="M121.0000 55.0000
L121.0000 51.5000
" />
<path d="M121.0000 51.5000
L128.0000 51.5000
" />
<path d="M113.8800 66.6000
L113.8800 70.0000
" />
<path d="M113.8800 70.0000
L117.7200 70.0000
" />
<path d="M117.7200 66.6000
L113.8800 66.6000
" />
<path d="M117.7200 70.0000
L117.7200 66.6000
" />
<path d="M131.4800 69.5300
L128.5200 69.5300
" />
<path d="M131.4800 68.0700
L131.4800 69.5300
" />
<path d="M128.5200 69.5300
L128.5200 68.0700
" />
<path d="M128.5200 68.0700
L131.4800 68.0700
" />
<path d="M118.6000 63.2500
L118.6000 69.9500
" />
<path d="M118.6000 69.9500
L128.0000 69.9500
" />
<path d="M128.0000 63.2500
L118.6000 63.2500
" />
<path d="M128.0000 69.9500
L128.0000 63.2500
" />
<path d="M116.2700 73.0800
L116.2700 70.1200
" />
<path d="M117.7300 73.0800
L116.2700 73.0800
" />
<path d="M116.2700 70.1200
L117.7300 70.1200
" />
<path d="M117.7300 70.1200
L117.7300 73.0800
" />
<path d="M131.4800 67.8700
L128.5200 67.8700
" />
<path d="M131.4800 66.4100
L131.4800 67.8700
" />
<path d="M128.5200 67.8700
L128.5200 66.4100
" />
<path d="M128.5200 66.4100
L131.4800 66.4100
" />
<path d="M116.1800 70.1200
L116.1800 73.0800
" />
<path d="M114.7200 70.1200
L116.1800 70.1200
" />
<path d="M116.1800 73.0800
L114.7200 73.0800
" />
<path d="M114.7200 73.0800
L114.7200 70.1200
" />
<path d="M135.3300 66.5740
L138.3300 66.5740
" />
<path d="M135.3300 66.5740
L135.3300 60.2740
" />
<path d="M135.3300 60.2740
L138.3300 60.2740
" />
<path d="M138.3300 60.2740
L138.3300 66.5740
" />
<g >
</g>
<g >
</g>
<g >
</g>
<g >
</g>
<g >
</g>
<g >
</g>
<g >
</g>
<g >
</g>
<g >
</g>
<g >
</g>
<g >
</g>
<g >
</g>
<g >
</g>
<g >
</g>
<g >
</g>
<g >
</g>
<g >
</g>
<g >
</g>
<g >
</g>
<g >
</g>
<g >
</g>
<g >
</g>
<g >
</g>
<g >
</g>
<g >
</g>
<g >
</g>
<g >
</g>
<g >
</g>
<g >
</g>
<g >
</g>
<g >
</g>
<g >
</g>
<g >
</g>
<g >
</g>
<g >
</g>
<g >
</g>
<g >
</g>
<g >
</g>
<g >
</g>
<g >
</g>
<g >
</g>
<g >
</g>
</g> 
</svg>
