<?xml version="1.0" standalone="no"?>
 <!DOCTYPE svg PUBLIC "-//W3C//DTD SVG 1.1//EN" 
 "http://www.w3.org/Graphics/SVG/1.1/DTD/svg11.dtd"> 
<svg
  xmlns:svg="http://www.w3.org/2000/svg"
  xmlns="http://www.w3.org/2000/svg"
  xmlns:xlink="http://www.w3.org/1999/xlink"
  version="1.1"
  width="297.0022mm" height="210.0072mm" viewBox="0.0000 0.0000 297.0022 210.0072">
<title>SVG Image created as m5-pantilt-frame.svg date 2023/09/19 04:43:33 </title>
  <desc>Image generated by PCBNEW </desc>
<g style="fill:#000000; fill-opacity:1.0000;stroke:#000000; stroke-opacity:1.0000;
stroke-linecap:round; stroke-linejoin:round;"
 transform="translate(0 0) scale(1 1)">
</g>
<g style="fill:#000000; fill-opacity:0.0; 
stroke:#000000; stroke-width:0.0000; stroke-opacity:1; 
stroke-linecap:round; stroke-linejoin:round;">
</g>
<g style="fill:#000000; fill-opacity:0.0; 
stroke:#000000; stroke-width:0.1500; stroke-opacity:1; 
stroke-linecap:round; stroke-linejoin:round;">
<path d="M261.0000 191.5000
L261.0000 198.0000
" />
<path d="M197.0000 191.5000
L197.0000 194.5000
" />
<text x="178.0000" y="183.7500"
textLength="22.7214" font-size="2.0000" lengthAdjust="spacingAndGlyphs"
text-anchor="start" opacity="0">Sheet: Front copper</text>
<g class="stroked-text"><desc>Sheet: Front copper</desc>
<path d="M178.3844 183.6147
L178.5987 183.6861
" />
<path d="M178.5987 183.6861
L178.9558 183.6861
" />
<path d="M178.9558 183.6861
L179.0987 183.6147
" />
<path d="M179.0987 183.6147
L179.1701 183.5433
" />
<path d="M179.1701 183.5433
L179.2415 183.4004
" />
<path d="M179.2415 183.4004
L179.2415 183.2576
" />
<path d="M179.2415 183.2576
L179.1701 183.1147
" />
<path d="M179.1701 183.1147
L179.0987 183.0433
" />
<path d="M179.0987 183.0433
L178.9558 182.9718
" />
<path d="M178.9558 182.9718
L178.6701 182.9004
" />
<path d="M178.6701 182.9004
L178.5273 182.8290
" />
<path d="M178.5273 182.8290
L178.4558 182.7576
" />
<path d="M178.4558 182.7576
L178.3844 182.6147
" />
<path d="M178.3844 182.6147
L178.3844 182.4718
" />
<path d="M178.3844 182.4718
L178.4558 182.3290
" />
<path d="M178.4558 182.3290
L178.5273 182.2576
" />
<path d="M178.5273 182.2576
L178.6701 182.1861
" />
<path d="M178.6701 182.1861
L179.0273 182.1861
" />
<path d="M179.0273 182.1861
L179.2415 182.2576
" />
<path d="M179.8844 183.6861
L179.8844 182.1861
" />
<path d="M180.5273 183.6861
L180.5273 182.9004
" />
<path d="M180.5273 182.9004
L180.4558 182.7576
" />
<path d="M180.4558 182.7576
L180.3130 182.6861
" />
<path d="M180.3130 182.6861
L180.0987 182.6861
" />
<path d="M180.0987 182.6861
L179.9558 182.7576
" />
<path d="M179.9558 182.7576
L179.8844 182.8290
" />
<path d="M181.8130 183.6147
L181.6701 183.6861
" />
<path d="M181.6701 183.6861
L181.3844 183.6861
" />
<path d="M181.3844 183.6861
L181.2415 183.6147
" />
<path d="M181.2415 183.6147
L181.1701 183.4718
" />
<path d="M181.1701 183.4718
L181.1701 182.9004
" />
<path d="M181.1701 182.9004
L181.2415 182.7576
" />
<path d="M181.2415 182.7576
L181.3844 182.6861
" />
<path d="M181.3844 182.6861
L181.6701 182.6861
" />
<path d="M181.6701 182.6861
L181.8130 182.7576
" />
<path d="M181.8130 182.7576
L181.8844 182.9004
" />
<path d="M181.8844 182.9004
L181.8844 183.0433
" />
<path d="M181.8844 183.0433
L181.1701 183.1861
" />
<path d="M183.0987 183.6147
L182.9558 183.6861
" />
<path d="M182.9558 183.6861
L182.6701 183.6861
" />
<path d="M182.6701 183.6861
L182.5273 183.6147
" />
<path d="M182.5273 183.6147
L182.4558 183.4718
" />
<path d="M182.4558 183.4718
L182.4558 182.9004
" />
<path d="M182.4558 182.9004
L182.5273 182.7576
" />
<path d="M182.5273 182.7576
L182.6701 182.6861
" />
<path d="M182.6701 182.6861
L182.9558 182.6861
" />
<path d="M182.9558 182.6861
L183.0987 182.7576
" />
<path d="M183.0987 182.7576
L183.1701 182.9004
" />
<path d="M183.1701 182.9004
L183.1701 183.0433
" />
<path d="M183.1701 183.0433
L182.4558 183.1861
" />
<path d="M183.5987 182.6861
L184.1701 182.6861
" />
<path d="M183.8130 182.1861
L183.8130 183.4718
" />
<path d="M183.8130 183.4718
L183.8844 183.6147
" />
<path d="M183.8844 183.6147
L184.0273 183.6861
" />
<path d="M184.0273 183.6861
L184.1701 183.6861
" />
<path d="M184.6701 183.5433
L184.7415 183.6147
" />
<path d="M184.7415 183.6147
L184.6701 183.6861
" />
<path d="M184.6701 183.6861
L184.5987 183.6147
" />
<path d="M184.5987 183.6147
L184.6701 183.5433
" />
<path d="M184.6701 183.5433
L184.6701 183.6861
" />
<path d="M184.6701 182.7576
L184.7415 182.8290
" />
<path d="M184.7415 182.8290
L184.6701 182.9004
" />
<path d="M184.6701 182.9004
L184.5987 182.8290
" />
<path d="M184.5987 182.8290
L184.6701 182.7576
" />
<path d="M184.6701 182.7576
L184.6701 182.9004
" />
<path d="M187.0273 182.9004
L186.5273 182.9004
" />
<path d="M186.5273 183.6861
L186.5273 182.1861
" />
<path d="M186.5273 182.1861
L187.2415 182.1861
" />
<path d="M187.8130 183.6861
L187.8130 182.6861
" />
<path d="M187.8130 182.9718
L187.8844 182.8290
" />
<path d="M187.8844 182.8290
L187.9558 182.7576
" />
<path d="M187.9558 182.7576
L188.0987 182.6861
" />
<path d="M188.0987 182.6861
L188.2415 182.6861
" />
<path d="M188.9558 183.6861
L188.8130 183.6147
" />
<path d="M188.8130 183.6147
L188.7415 183.5433
" />
<path d="M188.7415 183.5433
L188.6701 183.4004
" />
<path d="M188.6701 183.4004
L188.6701 182.9718
" />
<path d="M188.6701 182.9718
L188.7415 182.8290
" />
<path d="M188.7415 182.8290
L188.8130 182.7576
" />
<path d="M188.8130 182.7576
L188.9558 182.6861
" />
<path d="M188.9558 182.6861
L189.1701 182.6861
" />
<path d="M189.1701 182.6861
L189.3130 182.7576
" />
<path d="M189.3130 182.7576
L189.3844 182.8290
" />
<path d="M189.3844 182.8290
L189.4558 182.9718
" />
<path d="M189.4558 182.9718
L189.4558 183.4004
" />
<path d="M189.4558 183.4004
L189.3844 183.5433
" />
<path d="M189.3844 183.5433
L189.3130 183.6147
" />
<path d="M189.3130 183.6147
L189.1701 183.6861
" />
<path d="M189.1701 183.6861
L188.9558 183.6861
" />
<path d="M190.0987 182.6861
L190.0987 183.6861
" />
<path d="M190.0987 182.8290
L190.1701 182.7576
" />
<path d="M190.1701 182.7576
L190.3130 182.6861
" />
<path d="M190.3130 182.6861
L190.5273 182.6861
" />
<path d="M190.5273 182.6861
L190.6701 182.7576
" />
<path d="M190.6701 182.7576
L190.7415 182.9004
" />
<path d="M190.7415 182.9004
L190.7415 183.6861
" />
<path d="M191.2415 182.6861
L191.8130 182.6861
" />
<path d="M191.4558 182.1861
L191.4558 183.4718
" />
<path d="M191.4558 183.4718
L191.5273 183.6147
" />
<path d="M191.5273 183.6147
L191.6701 183.6861
" />
<path d="M191.6701 183.6861
L191.8130 183.6861
" />
<path d="M194.0987 183.6147
L193.9558 183.6861
" />
<path d="M193.9558 183.6861
L193.6701 183.6861
" />
<path d="M193.6701 183.6861
L193.5273 183.6147
" />
<path d="M193.5273 183.6147
L193.4558 183.5433
" />
<path d="M193.4558 183.5433
L193.3844 183.4004
" />
<path d="M193.3844 183.4004
L193.3844 182.9718
" />
<path d="M193.3844 182.9718
L193.4558 182.8290
" />
<path d="M193.4558 182.8290
L193.5273 182.7576
" />
<path d="M193.5273 182.7576
L193.6701 182.6861
" />
<path d="M193.6701 182.6861
L193.9558 182.6861
" />
<path d="M193.9558 182.6861
L194.0987 182.7576
" />
<path d="M194.9558 183.6861
L194.8130 183.6147
" />
<path d="M194.8130 183.6147
L194.7415 183.5433
" />
<path d="M194.7415 183.5433
L194.6701 183.4004
" />
<path d="M194.6701 183.4004
L194.6701 182.9718
" />
<path d="M194.6701 182.9718
L194.7415 182.8290
" />
<path d="M194.7415 182.8290
L194.8130 182.7576
" />
<path d="M194.8130 182.7576
L194.9558 182.6861
" />
<path d="M194.9558 182.6861
L195.1701 182.6861
" />
<path d="M195.1701 182.6861
L195.3130 182.7576
" />
<path d="M195.3130 182.7576
L195.3844 182.8290
" />
<path d="M195.3844 182.8290
L195.4558 182.9718
" />
<path d="M195.4558 182.9718
L195.4558 183.4004
" />
<path d="M195.4558 183.4004
L195.3844 183.5433
" />
<path d="M195.3844 183.5433
L195.3130 183.6147
" />
<path d="M195.3130 183.6147
L195.1701 183.6861
" />
<path d="M195.1701 183.6861
L194.9558 183.6861
" />
<path d="M196.0987 182.6861
L196.0987 184.1861
" />
<path d="M196.0987 182.7576
L196.2415 182.6861
" />
<path d="M196.2415 182.6861
L196.5273 182.6861
" />
<path d="M196.5273 182.6861
L196.6701 182.7576
" />
<path d="M196.6701 182.7576
L196.7415 182.8290
" />
<path d="M196.7415 182.8290
L196.8130 182.9718
" />
<path d="M196.8130 182.9718
L196.8130 183.4004
" />
<path d="M196.8130 183.4004
L196.7415 183.5433
" />
<path d="M196.7415 183.5433
L196.6701 183.6147
" />
<path d="M196.6701 183.6147
L196.5273 183.6861
" />
<path d="M196.5273 183.6861
L196.2415 183.6861
" />
<path d="M196.2415 183.6861
L196.0987 183.6147
" />
<path d="M197.4558 182.6861
L197.4558 184.1861
" />
<path d="M197.4558 182.7576
L197.5987 182.6861
" />
<path d="M197.5987 182.6861
L197.8844 182.6861
" />
<path d="M197.8844 182.6861
L198.0273 182.7576
" />
<path d="M198.0273 182.7576
L198.0987 182.8290
" />
<path d="M198.0987 182.8290
L198.1701 182.9718
" />
<path d="M198.1701 182.9718
L198.1701 183.4004
" />
<path d="M198.1701 183.4004
L198.0987 183.5433
" />
<path d="M198.0987 183.5433
L198.0273 183.6147
" />
<path d="M198.0273 183.6147
L197.8844 183.6861
" />
<path d="M197.8844 183.6861
L197.5987 183.6861
" />
<path d="M197.5987 183.6861
L197.4558 183.6147
" />
<path d="M199.3844 183.6147
L199.2415 183.6861
" />
<path d="M199.2415 183.6861
L198.9558 183.6861
" />
<path d="M198.9558 183.6861
L198.8130 183.6147
" />
<path d="M198.8130 183.6147
L198.7415 183.4718
" />
<path d="M198.7415 183.4718
L198.7415 182.9004
" />
<path d="M198.7415 182.9004
L198.8130 182.7576
" />
<path d="M198.8130 182.7576
L198.9558 182.6861
" />
<path d="M198.9558 182.6861
L199.2415 182.6861
" />
<path d="M199.2415 182.6861
L199.3844 182.7576
" />
<path d="M199.3844 182.7576
L199.4558 182.9004
" />
<path d="M199.4558 182.9004
L199.4558 183.0433
" />
<path d="M199.4558 183.0433
L198.7415 183.1861
" />
<path d="M200.0987 183.6861
L200.0987 182.6861
" />
<path d="M200.0987 182.9718
L200.1701 182.8290
" />
<path d="M200.1701 182.8290
L200.2415 182.7576
" />
<path d="M200.2415 182.7576
L200.3844 182.6861
" />
<path d="M200.3844 182.6861
L200.5273 182.6861
" />
</g><path d="M177.0000 181.5000
L285.0000 181.5000
" />
<text x="178.0000" y="186.4500"
textLength="30.4357" font-size="2.0000" lengthAdjust="spacingAndGlyphs"
text-anchor="start" opacity="0">File: m5-pantilt.kicad_pcb</text>
<g class="stroked-text"><desc>File: m5-pantilt.kicad_pcb</desc>
<path d="M178.9558 185.6004
L178.4558 185.6004
" />
<path d="M178.4558 186.3861
L178.4558 184.8861
" />
<path d="M178.4558 184.8861
L179.1701 184.8861
" />
<path d="M179.7415 186.3861
L179.7415 185.3861
" />
<path d="M179.7415 184.8861
L179.6701 184.9576
" />
<path d="M179.6701 184.9576
L179.7415 185.0290
" />
<path d="M179.7415 185.0290
L179.8130 184.9576
" />
<path d="M179.8130 184.9576
L179.7415 184.8861
" />
<path d="M179.7415 184.8861
L179.7415 185.0290
" />
<path d="M180.6701 186.3861
L180.5273 186.3147
" />
<path d="M180.5273 186.3147
L180.4558 186.1718
" />
<path d="M180.4558 186.1718
L180.4558 184.8861
" />
<path d="M181.8130 186.3147
L181.6701 186.3861
" />
<path d="M181.6701 186.3861
L181.3844 186.3861
" />
<path d="M181.3844 186.3861
L181.2415 186.3147
" />
<path d="M181.2415 186.3147
L181.1701 186.1718
" />
<path d="M181.1701 186.1718
L181.1701 185.6004
" />
<path d="M181.1701 185.6004
L181.2415 185.4576
" />
<path d="M181.2415 185.4576
L181.3844 185.3861
" />
<path d="M181.3844 185.3861
L181.6701 185.3861
" />
<path d="M181.6701 185.3861
L181.8130 185.4576
" />
<path d="M181.8130 185.4576
L181.8844 185.6004
" />
<path d="M181.8844 185.6004
L181.8844 185.7433
" />
<path d="M181.8844 185.7433
L181.1701 185.8861
" />
<path d="M182.5273 186.2433
L182.5987 186.3147
" />
<path d="M182.5987 186.3147
L182.5273 186.3861
" />
<path d="M182.5273 186.3861
L182.4558 186.3147
" />
<path d="M182.4558 186.3147
L182.5273 186.2433
" />
<path d="M182.5273 186.2433
L182.5273 186.3861
" />
<path d="M182.5273 185.4576
L182.5987 185.5290
" />
<path d="M182.5987 185.5290
L182.5273 185.6004
" />
<path d="M182.5273 185.6004
L182.4558 185.5290
" />
<path d="M182.4558 185.5290
L182.5273 185.4576
" />
<path d="M182.5273 185.4576
L182.5273 185.6004
" />
<path d="M184.3844 186.3861
L184.3844 185.3861
" />
<path d="M184.3844 185.5290
L184.4558 185.4576
" />
<path d="M184.4558 185.4576
L184.5987 185.3861
" />
<path d="M184.5987 185.3861
L184.8130 185.3861
" />
<path d="M184.8130 185.3861
L184.9558 185.4576
" />
<path d="M184.9558 185.4576
L185.0273 185.6004
" />
<path d="M185.0273 185.6004
L185.0273 186.3861
" />
<path d="M185.0273 185.6004
L185.0987 185.4576
" />
<path d="M185.0987 185.4576
L185.2415 185.3861
" />
<path d="M185.2415 185.3861
L185.4558 185.3861
" />
<path d="M185.4558 185.3861
L185.5987 185.4576
" />
<path d="M185.5987 185.4576
L185.6701 185.6004
" />
<path d="M185.6701 185.6004
L185.6701 186.3861
" />
<path d="M187.0987 184.8861
L186.3844 184.8861
" />
<path d="M186.3844 184.8861
L186.3130 185.6004
" />
<path d="M186.3130 185.6004
L186.3844 185.5290
" />
<path d="M186.3844 185.5290
L186.5273 185.4576
" />
<path d="M186.5273 185.4576
L186.8844 185.4576
" />
<path d="M186.8844 185.4576
L187.0273 185.5290
" />
<path d="M187.0273 185.5290
L187.0987 185.6004
" />
<path d="M187.0987 185.6004
L187.1701 185.7433
" />
<path d="M187.1701 185.7433
L187.1701 186.1004
" />
<path d="M187.1701 186.1004
L187.0987 186.2433
" />
<path d="M187.0987 186.2433
L187.0273 186.3147
" />
<path d="M187.0273 186.3147
L186.8844 186.3861
" />
<path d="M186.8844 186.3861
L186.5273 186.3861
" />
<path d="M186.5273 186.3861
L186.3844 186.3147
" />
<path d="M186.3844 186.3147
L186.3130 186.2433
" />
<path d="M187.8130 185.8147
L188.9558 185.8147
" />
<path d="M189.6701 185.3861
L189.6701 186.8861
" />
<path d="M189.6701 185.4576
L189.8130 185.3861
" />
<path d="M189.8130 185.3861
L190.0987 185.3861
" />
<path d="M190.0987 185.3861
L190.2415 185.4576
" />
<path d="M190.2415 185.4576
L190.3130 185.5290
" />
<path d="M190.3130 185.5290
L190.3844 185.6718
" />
<path d="M190.3844 185.6718
L190.3844 186.1004
" />
<path d="M190.3844 186.1004
L190.3130 186.2433
" />
<path d="M190.3130 186.2433
L190.2415 186.3147
" />
<path d="M190.2415 186.3147
L190.0987 186.3861
" />
<path d="M190.0987 186.3861
L189.8130 186.3861
" />
<path d="M189.8130 186.3861
L189.6701 186.3147
" />
<path d="M191.6701 186.3861
L191.6701 185.6004
" />
<path d="M191.6701 185.6004
L191.5987 185.4576
" />
<path d="M191.5987 185.4576
L191.4558 185.3861
" />
<path d="M191.4558 185.3861
L191.1701 185.3861
" />
<path d="M191.1701 185.3861
L191.0273 185.4576
" />
<path d="M191.6701 186.3147
L191.5273 186.3861
" />
<path d="M191.5273 186.3861
L191.1701 186.3861
" />
<path d="M191.1701 186.3861
L191.0273 186.3147
" />
<path d="M191.0273 186.3147
L190.9558 186.1718
" />
<path d="M190.9558 186.1718
L190.9558 186.0290
" />
<path d="M190.9558 186.0290
L191.0273 185.8861
" />
<path d="M191.0273 185.8861
L191.1701 185.8147
" />
<path d="M191.1701 185.8147
L191.5273 185.8147
" />
<path d="M191.5273 185.8147
L191.6701 185.7433
" />
<path d="M192.3844 185.3861
L192.3844 186.3861
" />
<path d="M192.3844 185.5290
L192.4558 185.4576
" />
<path d="M192.4558 185.4576
L192.5987 185.3861
" />
<path d="M192.5987 185.3861
L192.8130 185.3861
" />
<path d="M192.8130 185.3861
L192.9558 185.4576
" />
<path d="M192.9558 185.4576
L193.0273 185.6004
" />
<path d="M193.0273 185.6004
L193.0273 186.3861
" />
<path d="M193.5273 185.3861
L194.0987 185.3861
" />
<path d="M193.7415 184.8861
L193.7415 186.1718
" />
<path d="M193.7415 186.1718
L193.8130 186.3147
" />
<path d="M193.8130 186.3147
L193.9558 186.3861
" />
<path d="M193.9558 186.3861
L194.0987 186.3861
" />
<path d="M194.5987 186.3861
L194.5987 185.3861
" />
<path d="M194.5987 184.8861
L194.5273 184.9576
" />
<path d="M194.5273 184.9576
L194.5987 185.0290
" />
<path d="M194.5987 185.0290
L194.6701 184.9576
" />
<path d="M194.6701 184.9576
L194.5987 184.8861
" />
<path d="M194.5987 184.8861
L194.5987 185.0290
" />
<path d="M195.5273 186.3861
L195.3844 186.3147
" />
<path d="M195.3844 186.3147
L195.3130 186.1718
" />
<path d="M195.3130 186.1718
L195.3130 184.8861
" />
<path d="M195.8844 185.3861
L196.4558 185.3861
" />
<path d="M196.0987 184.8861
L196.0987 186.1718
" />
<path d="M196.0987 186.1718
L196.1701 186.3147
" />
<path d="M196.1701 186.3147
L196.3130 186.3861
" />
<path d="M196.3130 186.3861
L196.4558 186.3861
" />
<path d="M196.9558 186.2433
L197.0273 186.3147
" />
<path d="M197.0273 186.3147
L196.9558 186.3861
" />
<path d="M196.9558 186.3861
L196.8844 186.3147
" />
<path d="M196.8844 186.3147
L196.9558 186.2433
" />
<path d="M196.9558 186.2433
L196.9558 186.3861
" />
<path d="M197.6701 186.3861
L197.6701 184.8861
" />
<path d="M197.8130 185.8147
L198.2415 186.3861
" />
<path d="M198.2415 185.3861
L197.6701 185.9576
" />
<path d="M198.8844 186.3861
L198.8844 185.3861
" />
<path d="M198.8844 184.8861
L198.8130 184.9576
" />
<path d="M198.8130 184.9576
L198.8844 185.0290
" />
<path d="M198.8844 185.0290
L198.9558 184.9576
" />
<path d="M198.9558 184.9576
L198.8844 184.8861
" />
<path d="M198.8844 184.8861
L198.8844 185.0290
" />
<path d="M200.2415 186.3147
L200.0987 186.3861
" />
<path d="M200.0987 186.3861
L199.8130 186.3861
" />
<path d="M199.8130 186.3861
L199.6701 186.3147
" />
<path d="M199.6701 186.3147
L199.5987 186.2433
" />
<path d="M199.5987 186.2433
L199.5273 186.1004
" />
<path d="M199.5273 186.1004
L199.5273 185.6718
" />
<path d="M199.5273 185.6718
L199.5987 185.5290
" />
<path d="M199.5987 185.5290
L199.6701 185.4576
" />
<path d="M199.6701 185.4576
L199.8130 185.3861
" />
<path d="M199.8130 185.3861
L200.0987 185.3861
" />
<path d="M200.0987 185.3861
L200.2415 185.4576
" />
<path d="M201.5273 186.3861
L201.5273 185.6004
" />
<path d="M201.5273 185.6004
L201.4558 185.4576
" />
<path d="M201.4558 185.4576
L201.3130 185.3861
" />
<path d="M201.3130 185.3861
L201.0273 185.3861
" />
<path d="M201.0273 185.3861
L200.8844 185.4576
" />
<path d="M201.5273 186.3147
L201.3844 186.3861
" />
<path d="M201.3844 186.3861
L201.0273 186.3861
" />
<path d="M201.0273 186.3861
L200.8844 186.3147
" />
<path d="M200.8844 186.3147
L200.8130 186.1718
" />
<path d="M200.8130 186.1718
L200.8130 186.0290
" />
<path d="M200.8130 186.0290
L200.8844 185.8861
" />
<path d="M200.8844 185.8861
L201.0273 185.8147
" />
<path d="M201.0273 185.8147
L201.3844 185.8147
" />
<path d="M201.3844 185.8147
L201.5273 185.7433
" />
<path d="M202.8844 186.3861
L202.8844 184.8861
" />
<path d="M202.8844 186.3147
L202.7415 186.3861
" />
<path d="M202.7415 186.3861
L202.4558 186.3861
" />
<path d="M202.4558 186.3861
L202.3130 186.3147
" />
<path d="M202.3130 186.3147
L202.2415 186.2433
" />
<path d="M202.2415 186.2433
L202.1701 186.1004
" />
<path d="M202.1701 186.1004
L202.1701 185.6718
" />
<path d="M202.1701 185.6718
L202.2415 185.5290
" />
<path d="M202.2415 185.5290
L202.3130 185.4576
" />
<path d="M202.3130 185.4576
L202.4558 185.3861
" />
<path d="M202.4558 185.3861
L202.7415 185.3861
" />
<path d="M202.7415 185.3861
L202.8844 185.4576
" />
<path d="M203.2415 186.5290
L204.3844 186.5290
" />
<path d="M204.7415 185.3861
L204.7415 186.8861
" />
<path d="M204.7415 185.4576
L204.8844 185.3861
" />
<path d="M204.8844 185.3861
L205.1701 185.3861
" />
<path d="M205.1701 185.3861
L205.3130 185.4576
" />
<path d="M205.3130 185.4576
L205.3844 185.5290
" />
<path d="M205.3844 185.5290
L205.4558 185.6718
" />
<path d="M205.4558 185.6718
L205.4558 186.1004
" />
<path d="M205.4558 186.1004
L205.3844 186.2433
" />
<path d="M205.3844 186.2433
L205.3130 186.3147
" />
<path d="M205.3130 186.3147
L205.1701 186.3861
" />
<path d="M205.1701 186.3861
L204.8844 186.3861
" />
<path d="M204.8844 186.3861
L204.7415 186.3147
" />
<path d="M206.7415 186.3147
L206.5987 186.3861
" />
<path d="M206.5987 186.3861
L206.3130 186.3861
" />
<path d="M206.3130 186.3861
L206.1701 186.3147
" />
<path d="M206.1701 186.3147
L206.0987 186.2433
" />
<path d="M206.0987 186.2433
L206.0273 186.1004
" />
<path d="M206.0273 186.1004
L206.0273 185.6718
" />
<path d="M206.0273 185.6718
L206.0987 185.5290
" />
<path d="M206.0987 185.5290
L206.1701 185.4576
" />
<path d="M206.1701 185.4576
L206.3130 185.3861
" />
<path d="M206.3130 185.3861
L206.5987 185.3861
" />
<path d="M206.5987 185.3861
L206.7415 185.4576
" />
<path d="M207.3844 186.3861
L207.3844 184.8861
" />
<path d="M207.3844 185.4576
L207.5273 185.3861
" />
<path d="M207.5273 185.3861
L207.8130 185.3861
" />
<path d="M207.8130 185.3861
L207.9558 185.4576
" />
<path d="M207.9558 185.4576
L208.0273 185.5290
" />
<path d="M208.0273 185.5290
L208.0987 185.6718
" />
<path d="M208.0987 185.6718
L208.0987 186.1004
" />
<path d="M208.0987 186.1004
L208.0273 186.2433
" />
<path d="M208.0273 186.2433
L207.9558 186.3147
" />
<path d="M207.9558 186.3147
L207.8130 186.3861
" />
<path d="M207.8130 186.3861
L207.5273 186.3861
" />
<path d="M207.5273 186.3861
L207.3844 186.3147
" />
</g></g>
<g style="fill:#000000; fill-opacity:0.0; 
stroke:#000000; stroke-width:0.3000; stroke-opacity:1; 
stroke-linecap:round; stroke-linejoin:round;">
<text x="178.0000" y="190.3000"
textLength="23.8333" font-size="2.6667" lengthAdjust="spacingAndGlyphs"
text-anchor="start" opacity="0">Title: M5PanTilt</text>
<g class="stroked-text"><desc>Title: M5PanTilt</desc>
<path d="M178.6259 188.2096
L179.7688 188.2096
" />
<path d="M178.9474 190.2096
L179.1974 188.2096
" />
<path d="M180.1855 190.2096
L180.3521 188.8763
" />
<path d="M180.4355 188.2096
L180.3283 188.3049
" />
<path d="M180.3283 188.3049
L180.4117 188.4001
" />
<path d="M180.4117 188.4001
L180.5188 188.3049
" />
<path d="M180.5188 188.3049
L180.4355 188.2096
" />
<path d="M180.4355 188.2096
L180.4117 188.4001
" />
<path d="M181.0188 188.8763
L181.7807 188.8763
" />
<path d="M181.3878 188.2096
L181.1736 189.9239
" />
<path d="M181.1736 189.9239
L181.2450 190.1144
" />
<path d="M181.2450 190.1144
L181.4236 190.2096
" />
<path d="M181.4236 190.2096
L181.6140 190.2096
" />
<path d="M182.5664 190.2096
L182.3878 190.1144
" />
<path d="M182.3878 190.1144
L182.3164 189.9239
" />
<path d="M182.3164 189.9239
L182.5307 188.2096
" />
<path d="M184.1021 190.1144
L183.8997 190.2096
" />
<path d="M183.8997 190.2096
L183.5188 190.2096
" />
<path d="M183.5188 190.2096
L183.3402 190.1144
" />
<path d="M183.3402 190.1144
L183.2688 189.9239
" />
<path d="M183.2688 189.9239
L183.3640 189.1620
" />
<path d="M183.3640 189.1620
L183.4831 188.9715
" />
<path d="M183.4831 188.9715
L183.6855 188.8763
" />
<path d="M183.6855 188.8763
L184.0664 188.8763
" />
<path d="M184.0664 188.8763
L184.2450 188.9715
" />
<path d="M184.2450 188.9715
L184.3164 189.1620
" />
<path d="M184.3164 189.1620
L184.2926 189.3525
" />
<path d="M184.2926 189.3525
L183.3164 189.5430
" />
<path d="M185.0664 190.0192
L185.1497 190.1144
" />
<path d="M185.1497 190.1144
L185.0426 190.2096
" />
<path d="M185.0426 190.2096
L184.9593 190.1144
" />
<path d="M184.9593 190.1144
L185.0664 190.0192
" />
<path d="M185.0664 190.0192
L185.0426 190.2096
" />
<path d="M185.1974 188.9715
L185.2807 189.0668
" />
<path d="M185.2807 189.0668
L185.1736 189.1620
" />
<path d="M185.1736 189.1620
L185.0902 189.0668
" />
<path d="M185.0902 189.0668
L185.1974 188.9715
" />
<path d="M185.1974 188.9715
L185.1736 189.1620
" />
<path d="M187.5188 190.2096
L187.7688 188.2096
" />
<path d="M187.7688 188.2096
L188.2569 189.6382
" />
<path d="M188.2569 189.6382
L189.1021 188.2096
" />
<path d="M189.1021 188.2096
L188.8521 190.2096
" />
<path d="M191.0069 188.2096
L190.0545 188.2096
" />
<path d="M190.0545 188.2096
L189.8402 189.1620
" />
<path d="M189.8402 189.1620
L189.9474 189.0668
" />
<path d="M189.9474 189.0668
L190.1497 188.9715
" />
<path d="M190.1497 188.9715
L190.6259 188.9715
" />
<path d="M190.6259 188.9715
L190.8045 189.0668
" />
<path d="M190.8045 189.0668
L190.8878 189.1620
" />
<path d="M190.8878 189.1620
L190.9593 189.3525
" />
<path d="M190.9593 189.3525
L190.8997 189.8287
" />
<path d="M190.8997 189.8287
L190.7807 190.0192
" />
<path d="M190.7807 190.0192
L190.6736 190.1144
" />
<path d="M190.6736 190.1144
L190.4712 190.2096
" />
<path d="M190.4712 190.2096
L189.9950 190.2096
" />
<path d="M189.9950 190.2096
L189.8164 190.1144
" />
<path d="M189.8164 190.1144
L189.7331 190.0192
" />
<path d="M191.7093 190.2096
L191.9593 188.2096
" />
<path d="M191.9593 188.2096
L192.7212 188.2096
" />
<path d="M192.7212 188.2096
L192.8997 188.3049
" />
<path d="M192.8997 188.3049
L192.9831 188.4001
" />
<path d="M192.9831 188.4001
L193.0545 188.5906
" />
<path d="M193.0545 188.5906
L193.0188 188.8763
" />
<path d="M193.0188 188.8763
L192.8997 189.0668
" />
<path d="M192.8997 189.0668
L192.7926 189.1620
" />
<path d="M192.7926 189.1620
L192.5902 189.2573
" />
<path d="M192.5902 189.2573
L191.8283 189.2573
" />
<path d="M194.5664 190.2096
L194.6974 189.1620
" />
<path d="M194.6974 189.1620
L194.6259 188.9715
" />
<path d="M194.6259 188.9715
L194.4474 188.8763
" />
<path d="M194.4474 188.8763
L194.0664 188.8763
" />
<path d="M194.0664 188.8763
L193.8640 188.9715
" />
<path d="M194.5783 190.1144
L194.3759 190.2096
" />
<path d="M194.3759 190.2096
L193.8997 190.2096
" />
<path d="M193.8997 190.2096
L193.7212 190.1144
" />
<path d="M193.7212 190.1144
L193.6497 189.9239
" />
<path d="M193.6497 189.9239
L193.6736 189.7334
" />
<path d="M193.6736 189.7334
L193.7926 189.5430
" />
<path d="M193.7926 189.5430
L193.9950 189.4477
" />
<path d="M193.9950 189.4477
L194.4712 189.4477
" />
<path d="M194.4712 189.4477
L194.6736 189.3525
" />
<path d="M195.6855 188.8763
L195.5188 190.2096
" />
<path d="M195.6617 189.0668
L195.7688 188.9715
" />
<path d="M195.7688 188.9715
L195.9712 188.8763
" />
<path d="M195.9712 188.8763
L196.2569 188.8763
" />
<path d="M196.2569 188.8763
L196.4355 188.9715
" />
<path d="M196.4355 188.9715
L196.5069 189.1620
" />
<path d="M196.5069 189.1620
L196.3759 190.2096
" />
<path d="M197.2926 188.2096
L198.4355 188.2096
" />
<path d="M197.6140 190.2096
L197.8640 188.2096
" />
<path d="M198.8521 190.2096
L199.0188 188.8763
" />
<path d="M199.1021 188.2096
L198.9950 188.3049
" />
<path d="M198.9950 188.3049
L199.0783 188.4001
" />
<path d="M199.0783 188.4001
L199.1855 188.3049
" />
<path d="M199.1855 188.3049
L199.1021 188.2096
" />
<path d="M199.1021 188.2096
L199.0783 188.4001
" />
<path d="M200.0902 190.2096
L199.9117 190.1144
" />
<path d="M199.9117 190.1144
L199.8402 189.9239
" />
<path d="M199.8402 189.9239
L200.0545 188.2096
" />
<path d="M200.7331 188.8763
L201.4950 188.8763
" />
<path d="M201.1021 188.2096
L200.8878 189.9239
" />
<path d="M200.8878 189.9239
L200.9593 190.1144
" />
<path d="M200.9593 190.1144
L201.1378 190.2096
" />
<path d="M201.1378 190.2096
L201.3283 190.2096
" />
</g></g>
<g style="fill:#000000; fill-opacity:0.0; 
stroke:#000000; stroke-width:0.1500; stroke-opacity:1; 
stroke-linecap:round; stroke-linejoin:round;">
<path d="M177.0000 187.5000
L285.0000 187.5000
" />
<text x="263.0000" y="196.6500"
textLength="8.5071" font-size="2.0000" lengthAdjust="spacingAndGlyphs"
text-anchor="start" opacity="0">Id: 1/6</text>
<g class="stroked-text"><desc>Id: 1/6</desc>
<path d="M263.4558 196.5861
L263.4558 195.0861
" />
<path d="M264.8130 196.5861
L264.8130 195.0861
" />
<path d="M264.8130 196.5147
L264.6701 196.5861
" />
<path d="M264.6701 196.5861
L264.3844 196.5861
" />
<path d="M264.3844 196.5861
L264.2415 196.5147
" />
<path d="M264.2415 196.5147
L264.1701 196.4433
" />
<path d="M264.1701 196.4433
L264.0987 196.3004
" />
<path d="M264.0987 196.3004
L264.0987 195.8718
" />
<path d="M264.0987 195.8718
L264.1701 195.7290
" />
<path d="M264.1701 195.7290
L264.2415 195.6576
" />
<path d="M264.2415 195.6576
L264.3844 195.5861
" />
<path d="M264.3844 195.5861
L264.6701 195.5861
" />
<path d="M264.6701 195.5861
L264.8130 195.6576
" />
<path d="M265.5273 196.4433
L265.5987 196.5147
" />
<path d="M265.5987 196.5147
L265.5273 196.5861
" />
<path d="M265.5273 196.5861
L265.4558 196.5147
" />
<path d="M265.4558 196.5147
L265.5273 196.4433
" />
<path d="M265.5273 196.4433
L265.5273 196.5861
" />
<path d="M265.5273 195.6576
L265.5987 195.7290
" />
<path d="M265.5987 195.7290
L265.5273 195.8004
" />
<path d="M265.5273 195.8004
L265.4558 195.7290
" />
<path d="M265.4558 195.7290
L265.5273 195.6576
" />
<path d="M265.5273 195.6576
L265.5273 195.8004
" />
<path d="M268.1701 196.5861
L267.3130 196.5861
" />
<path d="M267.7415 196.5861
L267.7415 195.0861
" />
<path d="M267.7415 195.0861
L267.5987 195.3004
" />
<path d="M267.5987 195.3004
L267.4558 195.4433
" />
<path d="M267.4558 195.4433
L267.3130 195.5147
" />
<path d="M269.8844 195.0147
L268.5987 196.9433
" />
<path d="M271.0273 195.0861
L270.7415 195.0861
" />
<path d="M270.7415 195.0861
L270.5987 195.1576
" />
<path d="M270.5987 195.1576
L270.5273 195.2290
" />
<path d="M270.5273 195.2290
L270.3844 195.4433
" />
<path d="M270.3844 195.4433
L270.3130 195.7290
" />
<path d="M270.3130 195.7290
L270.3130 196.3004
" />
<path d="M270.3130 196.3004
L270.3844 196.4433
" />
<path d="M270.3844 196.4433
L270.4558 196.5147
" />
<path d="M270.4558 196.5147
L270.5987 196.5861
" />
<path d="M270.5987 196.5861
L270.8844 196.5861
" />
<path d="M270.8844 196.5861
L271.0273 196.5147
" />
<path d="M271.0273 196.5147
L271.0987 196.4433
" />
<path d="M271.0987 196.4433
L271.1701 196.3004
" />
<path d="M271.1701 196.3004
L271.1701 195.9433
" />
<path d="M271.1701 195.9433
L271.0987 195.8004
" />
<path d="M271.0987 195.8004
L271.0273 195.7290
" />
<path d="M271.0273 195.7290
L270.8844 195.6576
" />
<path d="M270.8844 195.6576
L270.5987 195.6576
" />
<path d="M270.5987 195.6576
L270.4558 195.7290
" />
<path d="M270.4558 195.7290
L270.3844 195.8004
" />
<path d="M270.3844 195.8004
L270.3130 195.9433
" />
</g><text x="178.0000" y="193.8500"
textLength="9.3643" font-size="2.0000" lengthAdjust="spacingAndGlyphs"
text-anchor="start" opacity="0">Size: A4</text>
<g class="stroked-text"><desc>Size: A4</desc>
<path d="M178.3844 193.7147
L178.5987 193.7861
" />
<path d="M178.5987 193.7861
L178.9558 193.7861
" />
<path d="M178.9558 193.7861
L179.0987 193.7147
" />
<path d="M179.0987 193.7147
L179.1701 193.6433
" />
<path d="M179.1701 193.6433
L179.2415 193.5004
" />
<path d="M179.2415 193.5004
L179.2415 193.3576
" />
<path d="M179.2415 193.3576
L179.1701 193.2147
" />
<path d="M179.1701 193.2147
L179.0987 193.1433
" />
<path d="M179.0987 193.1433
L178.9558 193.0718
" />
<path d="M178.9558 193.0718
L178.6701 193.0004
" />
<path d="M178.6701 193.0004
L178.5273 192.9290
" />
<path d="M178.5273 192.9290
L178.4558 192.8576
" />
<path d="M178.4558 192.8576
L178.3844 192.7147
" />
<path d="M178.3844 192.7147
L178.3844 192.5718
" />
<path d="M178.3844 192.5718
L178.4558 192.4290
" />
<path d="M178.4558 192.4290
L178.5273 192.3576
" />
<path d="M178.5273 192.3576
L178.6701 192.2861
" />
<path d="M178.6701 192.2861
L179.0273 192.2861
" />
<path d="M179.0273 192.2861
L179.2415 192.3576
" />
<path d="M179.8844 193.7861
L179.8844 192.7861
" />
<path d="M179.8844 192.2861
L179.8130 192.3576
" />
<path d="M179.8130 192.3576
L179.8844 192.4290
" />
<path d="M179.8844 192.4290
L179.9558 192.3576
" />
<path d="M179.9558 192.3576
L179.8844 192.2861
" />
<path d="M179.8844 192.2861
L179.8844 192.4290
" />
<path d="M180.4558 192.7861
L181.2415 192.7861
" />
<path d="M181.2415 192.7861
L180.4558 193.7861
" />
<path d="M180.4558 193.7861
L181.2415 193.7861
" />
<path d="M182.3844 193.7147
L182.2415 193.7861
" />
<path d="M182.2415 193.7861
L181.9558 193.7861
" />
<path d="M181.9558 193.7861
L181.8130 193.7147
" />
<path d="M181.8130 193.7147
L181.7415 193.5718
" />
<path d="M181.7415 193.5718
L181.7415 193.0004
" />
<path d="M181.7415 193.0004
L181.8130 192.8576
" />
<path d="M181.8130 192.8576
L181.9558 192.7861
" />
<path d="M181.9558 192.7861
L182.2415 192.7861
" />
<path d="M182.2415 192.7861
L182.3844 192.8576
" />
<path d="M182.3844 192.8576
L182.4558 193.0004
" />
<path d="M182.4558 193.0004
L182.4558 193.1433
" />
<path d="M182.4558 193.1433
L181.7415 193.2861
" />
<path d="M183.0987 193.6433
L183.1701 193.7147
" />
<path d="M183.1701 193.7147
L183.0987 193.7861
" />
<path d="M183.0987 193.7861
L183.0273 193.7147
" />
<path d="M183.0273 193.7147
L183.0987 193.6433
" />
<path d="M183.0987 193.6433
L183.0987 193.7861
" />
<path d="M183.0987 192.8576
L183.1701 192.9290
" />
<path d="M183.1701 192.9290
L183.0987 193.0004
" />
<path d="M183.0987 193.0004
L183.0273 192.9290
" />
<path d="M183.0273 192.9290
L183.0987 192.8576
" />
<path d="M183.0987 192.8576
L183.0987 193.0004
" />
<path d="M184.8844 193.3576
L185.5987 193.3576
" />
<path d="M184.7415 193.7861
L185.2415 192.2861
" />
<path d="M185.2415 192.2861
L185.7415 193.7861
" />
<path d="M186.8844 192.7861
L186.8844 193.7861
" />
<path d="M186.5273 192.2147
L186.1701 193.2861
" />
<path d="M186.1701 193.2861
L187.0987 193.2861
" />
</g></g>
<g style="fill:#000000; fill-opacity:0.0; 
stroke:#000000; stroke-width:0.3000; stroke-opacity:1; 
stroke-linecap:round; stroke-linejoin:round;">
<text x="263.0000" y="193.8500"
textLength="7.8143" font-size="2.0000" lengthAdjust="spacingAndGlyphs"
text-anchor="start" opacity="0">Rev: 1</text>
<g class="stroked-text"><desc>Rev: 1</desc>
<path d="M264.4117 193.7783
L263.9117 193.0640
" />
<path d="M263.5545 193.7783
L263.5545 192.2783
" />
<path d="M263.5545 192.2783
L264.1259 192.2783
" />
<path d="M264.1259 192.2783
L264.2688 192.3498
" />
<path d="M264.2688 192.3498
L264.3402 192.4212
" />
<path d="M264.3402 192.4212
L264.4117 192.5640
" />
<path d="M264.4117 192.5640
L264.4117 192.7783
" />
<path d="M264.4117 192.7783
L264.3402 192.9212
" />
<path d="M264.3402 192.9212
L264.2688 192.9926
" />
<path d="M264.2688 192.9926
L264.1259 193.0640
" />
<path d="M264.1259 193.0640
L263.5545 193.0640
" />
<path d="M265.6259 193.7069
L265.4831 193.7783
" />
<path d="M265.4831 193.7783
L265.1974 193.7783
" />
<path d="M265.1974 193.7783
L265.0545 193.7069
" />
<path d="M265.0545 193.7069
L264.9831 193.5640
" />
<path d="M264.9831 193.5640
L264.9831 192.9926
" />
<path d="M264.9831 192.9926
L265.0545 192.8498
" />
<path d="M265.0545 192.8498
L265.1974 192.7783
" />
<path d="M265.1974 192.7783
L265.4831 192.7783
" />
<path d="M265.4831 192.7783
L265.6259 192.8498
" />
<path d="M265.6259 192.8498
L265.6974 192.9926
" />
<path d="M265.6974 192.9926
L265.6974 193.1355
" />
<path d="M265.6974 193.1355
L264.9831 193.2783
" />
<path d="M266.1974 192.7783
L266.5545 193.7783
" />
<path d="M266.5545 193.7783
L266.9117 192.7783
" />
<path d="M267.4831 193.6355
L267.5545 193.7069
" />
<path d="M267.5545 193.7069
L267.4831 193.7783
" />
<path d="M267.4831 193.7783
L267.4117 193.7069
" />
<path d="M267.4117 193.7069
L267.4831 193.6355
" />
<path d="M267.4831 193.6355
L267.4831 193.7783
" />
<path d="M267.4831 192.8498
L267.5545 192.9212
" />
<path d="M267.5545 192.9212
L267.4831 192.9926
" />
<path d="M267.4831 192.9926
L267.4117 192.9212
" />
<path d="M267.4117 192.9212
L267.4831 192.8498
" />
<path d="M267.4831 192.8498
L267.4831 192.9926
" />
<path d="M270.1259 193.7783
L269.2688 193.7783
" />
<path d="M269.6974 193.7783
L269.6974 192.2783
" />
<path d="M269.6974 192.2783
L269.5545 192.4926
" />
<path d="M269.5545 192.4926
L269.4117 192.6355
" />
<path d="M269.4117 192.6355
L269.2688 192.7069
" />
</g></g>
<g style="fill:#000000; fill-opacity:0.0; 
stroke:#000000; stroke-width:0.1500; stroke-opacity:1; 
stroke-linecap:round; stroke-linejoin:round;">
<path d="M177.0000 191.5000
L285.0000 191.5000
" />
<text x="178.0000" y="196.6500"
textLength="63.7929" font-size="2.0000" lengthAdjust="spacingAndGlyphs"
text-anchor="start" opacity="0">KiCad E.D.A. 7.0.7-7.0.7~ubuntu23.04.1 + KiBot v1.6.3</text>
<g class="stroked-text"><desc>KiCad E.D.A. 7.0.7-7.0.7~ubuntu23.04.1 + KiBot v1.6.3</desc>
<path d="M178.4558 196.5861
L178.4558 195.0861
" />
<path d="M179.3130 196.5861
L178.6701 195.7290
" />
<path d="M179.3130 195.0861
L178.4558 195.9433
" />
<path d="M179.9558 196.5861
L179.9558 195.5861
" />
<path d="M179.9558 195.0861
L179.8844 195.1576
" />
<path d="M179.8844 195.1576
L179.9558 195.2290
" />
<path d="M179.9558 195.2290
L180.0273 195.1576
" />
<path d="M180.0273 195.1576
L179.9558 195.0861
" />
<path d="M179.9558 195.0861
L179.9558 195.2290
" />
<path d="M181.5273 196.4433
L181.4558 196.5147
" />
<path d="M181.4558 196.5147
L181.2415 196.5861
" />
<path d="M181.2415 196.5861
L181.0987 196.5861
" />
<path d="M181.0987 196.5861
L180.8844 196.5147
" />
<path d="M180.8844 196.5147
L180.7415 196.3718
" />
<path d="M180.7415 196.3718
L180.6701 196.2290
" />
<path d="M180.6701 196.2290
L180.5987 195.9433
" />
<path d="M180.5987 195.9433
L180.5987 195.7290
" />
<path d="M180.5987 195.7290
L180.6701 195.4433
" />
<path d="M180.6701 195.4433
L180.7415 195.3004
" />
<path d="M180.7415 195.3004
L180.8844 195.1576
" />
<path d="M180.8844 195.1576
L181.0987 195.0861
" />
<path d="M181.0987 195.0861
L181.2415 195.0861
" />
<path d="M181.2415 195.0861
L181.4558 195.1576
" />
<path d="M181.4558 195.1576
L181.5273 195.2290
" />
<path d="M182.8130 196.5861
L182.8130 195.8004
" />
<path d="M182.8130 195.8004
L182.7415 195.6576
" />
<path d="M182.7415 195.6576
L182.5987 195.5861
" />
<path d="M182.5987 195.5861
L182.3130 195.5861
" />
<path d="M182.3130 195.5861
L182.1701 195.6576
" />
<path d="M182.8130 196.5147
L182.6701 196.5861
" />
<path d="M182.6701 196.5861
L182.3130 196.5861
" />
<path d="M182.3130 196.5861
L182.1701 196.5147
" />
<path d="M182.1701 196.5147
L182.0987 196.3718
" />
<path d="M182.0987 196.3718
L182.0987 196.2290
" />
<path d="M182.0987 196.2290
L182.1701 196.0861
" />
<path d="M182.1701 196.0861
L182.3130 196.0147
" />
<path d="M182.3130 196.0147
L182.6701 196.0147
" />
<path d="M182.6701 196.0147
L182.8130 195.9433
" />
<path d="M184.1701 196.5861
L184.1701 195.0861
" />
<path d="M184.1701 196.5147
L184.0273 196.5861
" />
<path d="M184.0273 196.5861
L183.7415 196.5861
" />
<path d="M183.7415 196.5861
L183.5987 196.5147
" />
<path d="M183.5987 196.5147
L183.5273 196.4433
" />
<path d="M183.5273 196.4433
L183.4558 196.3004
" />
<path d="M183.4558 196.3004
L183.4558 195.8718
" />
<path d="M183.4558 195.8718
L183.5273 195.7290
" />
<path d="M183.5273 195.7290
L183.5987 195.6576
" />
<path d="M183.5987 195.6576
L183.7415 195.5861
" />
<path d="M183.7415 195.5861
L184.0273 195.5861
" />
<path d="M184.0273 195.5861
L184.1701 195.6576
" />
<path d="M186.0273 195.8004
L186.5273 195.8004
" />
<path d="M186.7415 196.5861
L186.0273 196.5861
" />
<path d="M186.0273 196.5861
L186.0273 195.0861
" />
<path d="M186.0273 195.0861
L186.7415 195.0861
" />
<path d="M187.3844 196.4433
L187.4558 196.5147
" />
<path d="M187.4558 196.5147
L187.3844 196.5861
" />
<path d="M187.3844 196.5861
L187.3130 196.5147
" />
<path d="M187.3130 196.5147
L187.3844 196.4433
" />
<path d="M187.3844 196.4433
L187.3844 196.5861
" />
<path d="M188.0987 196.5861
L188.0987 195.0861
" />
<path d="M188.0987 195.0861
L188.4558 195.0861
" />
<path d="M188.4558 195.0861
L188.6701 195.1576
" />
<path d="M188.6701 195.1576
L188.8130 195.3004
" />
<path d="M188.8130 195.3004
L188.8844 195.4433
" />
<path d="M188.8844 195.4433
L188.9558 195.7290
" />
<path d="M188.9558 195.7290
L188.9558 195.9433
" />
<path d="M188.9558 195.9433
L188.8844 196.2290
" />
<path d="M188.8844 196.2290
L188.8130 196.3718
" />
<path d="M188.8130 196.3718
L188.6701 196.5147
" />
<path d="M188.6701 196.5147
L188.4558 196.5861
" />
<path d="M188.4558 196.5861
L188.0987 196.5861
" />
<path d="M189.5987 196.4433
L189.6701 196.5147
" />
<path d="M189.6701 196.5147
L189.5987 196.5861
" />
<path d="M189.5987 196.5861
L189.5273 196.5147
" />
<path d="M189.5273 196.5147
L189.5987 196.4433
" />
<path d="M189.5987 196.4433
L189.5987 196.5861
" />
<path d="M190.2415 196.1576
L190.9558 196.1576
" />
<path d="M190.0987 196.5861
L190.5987 195.0861
" />
<path d="M190.5987 195.0861
L191.0987 196.5861
" />
<path d="M191.5987 196.4433
L191.6701 196.5147
" />
<path d="M191.6701 196.5147
L191.5987 196.5861
" />
<path d="M191.5987 196.5861
L191.5273 196.5147
" />
<path d="M191.5273 196.5147
L191.5987 196.4433
" />
<path d="M191.5987 196.4433
L191.5987 196.5861
" />
<path d="M193.3130 195.0861
L194.3130 195.0861
" />
<path d="M194.3130 195.0861
L193.6701 196.5861
" />
<path d="M194.8844 196.4433
L194.9558 196.5147
" />
<path d="M194.9558 196.5147
L194.8844 196.5861
" />
<path d="M194.8844 196.5861
L194.8130 196.5147
" />
<path d="M194.8130 196.5147
L194.8844 196.4433
" />
<path d="M194.8844 196.4433
L194.8844 196.5861
" />
<path d="M195.8844 195.0861
L196.0273 195.0861
" />
<path d="M196.0273 195.0861
L196.1701 195.1576
" />
<path d="M196.1701 195.1576
L196.2415 195.2290
" />
<path d="M196.2415 195.2290
L196.3130 195.3718
" />
<path d="M196.3130 195.3718
L196.3844 195.6576
" />
<path d="M196.3844 195.6576
L196.3844 196.0147
" />
<path d="M196.3844 196.0147
L196.3130 196.3004
" />
<path d="M196.3130 196.3004
L196.2415 196.4433
" />
<path d="M196.2415 196.4433
L196.1701 196.5147
" />
<path d="M196.1701 196.5147
L196.0273 196.5861
" />
<path d="M196.0273 196.5861
L195.8844 196.5861
" />
<path d="M195.8844 196.5861
L195.7415 196.5147
" />
<path d="M195.7415 196.5147
L195.6701 196.4433
" />
<path d="M195.6701 196.4433
L195.5987 196.3004
" />
<path d="M195.5987 196.3004
L195.5273 196.0147
" />
<path d="M195.5273 196.0147
L195.5273 195.6576
" />
<path d="M195.5273 195.6576
L195.5987 195.3718
" />
<path d="M195.5987 195.3718
L195.6701 195.2290
" />
<path d="M195.6701 195.2290
L195.7415 195.1576
" />
<path d="M195.7415 195.1576
L195.8844 195.0861
" />
<path d="M197.0273 196.4433
L197.0987 196.5147
" />
<path d="M197.0987 196.5147
L197.0273 196.5861
" />
<path d="M197.0273 196.5861
L196.9558 196.5147
" />
<path d="M196.9558 196.5147
L197.0273 196.4433
" />
<path d="M197.0273 196.4433
L197.0273 196.5861
" />
<path d="M197.5987 195.0861
L198.5987 195.0861
" />
<path d="M198.5987 195.0861
L197.9558 196.5861
" />
<path d="M199.1701 196.0147
L200.3130 196.0147
" />
<path d="M200.8844 195.0861
L201.8844 195.0861
" />
<path d="M201.8844 195.0861
L201.2415 196.5861
" />
<path d="M202.4558 196.4433
L202.5273 196.5147
" />
<path d="M202.5273 196.5147
L202.4558 196.5861
" />
<path d="M202.4558 196.5861
L202.3844 196.5147
" />
<path d="M202.3844 196.5147
L202.4558 196.4433
" />
<path d="M202.4558 196.4433
L202.4558 196.5861
" />
<path d="M203.4558 195.0861
L203.5987 195.0861
" />
<path d="M203.5987 195.0861
L203.7415 195.1576
" />
<path d="M203.7415 195.1576
L203.8130 195.2290
" />
<path d="M203.8130 195.2290
L203.8844 195.3718
" />
<path d="M203.8844 195.3718
L203.9558 195.6576
" />
<path d="M203.9558 195.6576
L203.9558 196.0147
" />
<path d="M203.9558 196.0147
L203.8844 196.3004
" />
<path d="M203.8844 196.3004
L203.8130 196.4433
" />
<path d="M203.8130 196.4433
L203.7415 196.5147
" />
<path d="M203.7415 196.5147
L203.5987 196.5861
" />
<path d="M203.5987 196.5861
L203.4558 196.5861
" />
<path d="M203.4558 196.5861
L203.3130 196.5147
" />
<path d="M203.3130 196.5147
L203.2415 196.4433
" />
<path d="M203.2415 196.4433
L203.1701 196.3004
" />
<path d="M203.1701 196.3004
L203.0987 196.0147
" />
<path d="M203.0987 196.0147
L203.0987 195.6576
" />
<path d="M203.0987 195.6576
L203.1701 195.3718
" />
<path d="M203.1701 195.3718
L203.2415 195.2290
" />
<path d="M203.2415 195.2290
L203.3130 195.1576
" />
<path d="M203.3130 195.1576
L203.4558 195.0861
" />
<path d="M204.5987 196.4433
L204.6701 196.5147
" />
<path d="M204.6701 196.5147
L204.5987 196.5861
" />
<path d="M204.5987 196.5861
L204.5273 196.5147
" />
<path d="M204.5273 196.5147
L204.5987 196.4433
" />
<path d="M204.5987 196.4433
L204.5987 196.5861
" />
<path d="M205.1701 195.0861
L206.1701 195.0861
" />
<path d="M206.1701 195.0861
L205.5273 196.5861
" />
<path d="M206.5273 196.0147
L206.5987 195.9433
" />
<path d="M206.5987 195.9433
L206.7415 195.8718
" />
<path d="M206.7415 195.8718
L207.0273 196.0147
" />
<path d="M207.0273 196.0147
L207.1701 195.9433
" />
<path d="M207.1701 195.9433
L207.2415 195.8718
" />
<path d="M208.4558 195.5861
L208.4558 196.5861
" />
<path d="M207.8130 195.5861
L207.8130 196.3718
" />
<path d="M207.8130 196.3718
L207.8844 196.5147
" />
<path d="M207.8844 196.5147
L208.0273 196.5861
" />
<path d="M208.0273 196.5861
L208.2415 196.5861
" />
<path d="M208.2415 196.5861
L208.3844 196.5147
" />
<path d="M208.3844 196.5147
L208.4558 196.4433
" />
<path d="M209.1701 196.5861
L209.1701 195.0861
" />
<path d="M209.1701 195.6576
L209.3130 195.5861
" />
<path d="M209.3130 195.5861
L209.5987 195.5861
" />
<path d="M209.5987 195.5861
L209.7415 195.6576
" />
<path d="M209.7415 195.6576
L209.8130 195.7290
" />
<path d="M209.8130 195.7290
L209.8844 195.8718
" />
<path d="M209.8844 195.8718
L209.8844 196.3004
" />
<path d="M209.8844 196.3004
L209.8130 196.4433
" />
<path d="M209.8130 196.4433
L209.7415 196.5147
" />
<path d="M209.7415 196.5147
L209.5987 196.5861
" />
<path d="M209.5987 196.5861
L209.3130 196.5861
" />
<path d="M209.3130 196.5861
L209.1701 196.5147
" />
<path d="M211.1701 195.5861
L211.1701 196.5861
" />
<path d="M210.5273 195.5861
L210.5273 196.3718
" />
<path d="M210.5273 196.3718
L210.5987 196.5147
" />
<path d="M210.5987 196.5147
L210.7415 196.5861
" />
<path d="M210.7415 196.5861
L210.9558 196.5861
" />
<path d="M210.9558 196.5861
L211.0987 196.5147
" />
<path d="M211.0987 196.5147
L211.1701 196.4433
" />
<path d="M211.8844 195.5861
L211.8844 196.5861
" />
<path d="M211.8844 195.7290
L211.9558 195.6576
" />
<path d="M211.9558 195.6576
L212.0987 195.5861
" />
<path d="M212.0987 195.5861
L212.3130 195.5861
" />
<path d="M212.3130 195.5861
L212.4558 195.6576
" />
<path d="M212.4558 195.6576
L212.5273 195.8004
" />
<path d="M212.5273 195.8004
L212.5273 196.5861
" />
<path d="M213.0273 195.5861
L213.5987 195.5861
" />
<path d="M213.2415 195.0861
L213.2415 196.3718
" />
<path d="M213.2415 196.3718
L213.3130 196.5147
" />
<path d="M213.3130 196.5147
L213.4558 196.5861
" />
<path d="M213.4558 196.5861
L213.5987 196.5861
" />
<path d="M214.7415 195.5861
L214.7415 196.5861
" />
<path d="M214.0987 195.5861
L214.0987 196.3718
" />
<path d="M214.0987 196.3718
L214.1701 196.5147
" />
<path d="M214.1701 196.5147
L214.3130 196.5861
" />
<path d="M214.3130 196.5861
L214.5273 196.5861
" />
<path d="M214.5273 196.5861
L214.6701 196.5147
" />
<path d="M214.6701 196.5147
L214.7415 196.4433
" />
<path d="M215.3844 195.2290
L215.4558 195.1576
" />
<path d="M215.4558 195.1576
L215.5987 195.0861
" />
<path d="M215.5987 195.0861
L215.9558 195.0861
" />
<path d="M215.9558 195.0861
L216.0987 195.1576
" />
<path d="M216.0987 195.1576
L216.1701 195.2290
" />
<path d="M216.1701 195.2290
L216.2415 195.3718
" />
<path d="M216.2415 195.3718
L216.2415 195.5147
" />
<path d="M216.2415 195.5147
L216.1701 195.7290
" />
<path d="M216.1701 195.7290
L215.3130 196.5861
" />
<path d="M215.3130 196.5861
L216.2415 196.5861
" />
<path d="M216.7415 195.0861
L217.6701 195.0861
" />
<path d="M217.6701 195.0861
L217.1701 195.6576
" />
<path d="M217.1701 195.6576
L217.3844 195.6576
" />
<path d="M217.3844 195.6576
L217.5273 195.7290
" />
<path d="M217.5273 195.7290
L217.5987 195.8004
" />
<path d="M217.5987 195.8004
L217.6701 195.9433
" />
<path d="M217.6701 195.9433
L217.6701 196.3004
" />
<path d="M217.6701 196.3004
L217.5987 196.4433
" />
<path d="M217.5987 196.4433
L217.5273 196.5147
" />
<path d="M217.5273 196.5147
L217.3844 196.5861
" />
<path d="M217.3844 196.5861
L216.9558 196.5861
" />
<path d="M216.9558 196.5861
L216.8130 196.5147
" />
<path d="M216.8130 196.5147
L216.7415 196.4433
" />
<path d="M218.3130 196.4433
L218.3844 196.5147
" />
<path d="M218.3844 196.5147
L218.3130 196.5861
" />
<path d="M218.3130 196.5861
L218.2415 196.5147
" />
<path d="M218.2415 196.5147
L218.3130 196.4433
" />
<path d="M218.3130 196.4433
L218.3130 196.5861
" />
<path d="M219.3130 195.0861
L219.4558 195.0861
" />
<path d="M219.4558 195.0861
L219.5987 195.1576
" />
<path d="M219.5987 195.1576
L219.6701 195.2290
" />
<path d="M219.6701 195.2290
L219.7415 195.3718
" />
<path d="M219.7415 195.3718
L219.8130 195.6576
" />
<path d="M219.8130 195.6576
L219.8130 196.0147
" />
<path d="M219.8130 196.0147
L219.7415 196.3004
" />
<path d="M219.7415 196.3004
L219.6701 196.4433
" />
<path d="M219.6701 196.4433
L219.5987 196.5147
" />
<path d="M219.5987 196.5147
L219.4558 196.5861
" />
<path d="M219.4558 196.5861
L219.3130 196.5861
" />
<path d="M219.3130 196.5861
L219.1701 196.5147
" />
<path d="M219.1701 196.5147
L219.0987 196.4433
" />
<path d="M219.0987 196.4433
L219.0273 196.3004
" />
<path d="M219.0273 196.3004
L218.9558 196.0147
" />
<path d="M218.9558 196.0147
L218.9558 195.6576
" />
<path d="M218.9558 195.6576
L219.0273 195.3718
" />
<path d="M219.0273 195.3718
L219.0987 195.2290
" />
<path d="M219.0987 195.2290
L219.1701 195.1576
" />
<path d="M219.1701 195.1576
L219.3130 195.0861
" />
<path d="M221.0987 195.5861
L221.0987 196.5861
" />
<path d="M220.7415 195.0147
L220.3844 196.0861
" />
<path d="M220.3844 196.0861
L221.3130 196.0861
" />
<path d="M221.8844 196.4433
L221.9558 196.5147
" />
<path d="M221.9558 196.5147
L221.8844 196.5861
" />
<path d="M221.8844 196.5861
L221.8130 196.5147
" />
<path d="M221.8130 196.5147
L221.8844 196.4433
" />
<path d="M221.8844 196.4433
L221.8844 196.5861
" />
<path d="M223.3844 196.5861
L222.5273 196.5861
" />
<path d="M222.9558 196.5861
L222.9558 195.0861
" />
<path d="M222.9558 195.0861
L222.8130 195.3004
" />
<path d="M222.8130 195.3004
L222.6701 195.4433
" />
<path d="M222.6701 195.4433
L222.5273 195.5147
" />
<path d="M225.1701 196.0147
L226.3130 196.0147
" />
<path d="M225.7415 196.5861
L225.7415 195.4433
" />
<path d="M228.1701 196.5861
L228.1701 195.0861
" />
<path d="M229.0273 196.5861
L228.3844 195.7290
" />
<path d="M229.0273 195.0861
L228.1701 195.9433
" />
<path d="M229.6701 196.5861
L229.6701 195.5861
" />
<path d="M229.6701 195.0861
L229.5987 195.1576
" />
<path d="M229.5987 195.1576
L229.6701 195.2290
" />
<path d="M229.6701 195.2290
L229.7415 195.1576
" />
<path d="M229.7415 195.1576
L229.6701 195.0861
" />
<path d="M229.6701 195.0861
L229.6701 195.2290
" />
<path d="M230.8844 195.8004
L231.0987 195.8718
" />
<path d="M231.0987 195.8718
L231.1701 195.9433
" />
<path d="M231.1701 195.9433
L231.2415 196.0861
" />
<path d="M231.2415 196.0861
L231.2415 196.3004
" />
<path d="M231.2415 196.3004
L231.1701 196.4433
" />
<path d="M231.1701 196.4433
L231.0987 196.5147
" />
<path d="M231.0987 196.5147
L230.9558 196.5861
" />
<path d="M230.9558 196.5861
L230.3844 196.5861
" />
<path d="M230.3844 196.5861
L230.3844 195.0861
" />
<path d="M230.3844 195.0861
L230.8844 195.0861
" />
<path d="M230.8844 195.0861
L231.0273 195.1576
" />
<path d="M231.0273 195.1576
L231.0987 195.2290
" />
<path d="M231.0987 195.2290
L231.1701 195.3718
" />
<path d="M231.1701 195.3718
L231.1701 195.5147
" />
<path d="M231.1701 195.5147
L231.0987 195.6576
" />
<path d="M231.0987 195.6576
L231.0273 195.7290
" />
<path d="M231.0273 195.7290
L230.8844 195.8004
" />
<path d="M230.8844 195.8004
L230.3844 195.8004
" />
<path d="M232.0987 196.5861
L231.9558 196.5147
" />
<path d="M231.9558 196.5147
L231.8844 196.4433
" />
<path d="M231.8844 196.4433
L231.8130 196.3004
" />
<path d="M231.8130 196.3004
L231.8130 195.8718
" />
<path d="M231.8130 195.8718
L231.8844 195.7290
" />
<path d="M231.8844 195.7290
L231.9558 195.6576
" />
<path d="M231.9558 195.6576
L232.0987 195.5861
" />
<path d="M232.0987 195.5861
L232.3130 195.5861
" />
<path d="M232.3130 195.5861
L232.4558 195.6576
" />
<path d="M232.4558 195.6576
L232.5273 195.7290
" />
<path d="M232.5273 195.7290
L232.5987 195.8718
" />
<path d="M232.5987 195.8718
L232.5987 196.3004
" />
<path d="M232.5987 196.3004
L232.5273 196.4433
" />
<path d="M232.5273 196.4433
L232.4558 196.5147
" />
<path d="M232.4558 196.5147
L232.3130 196.5861
" />
<path d="M232.3130 196.5861
L232.0987 196.5861
" />
<path d="M233.0273 195.5861
L233.5987 195.5861
" />
<path d="M233.2415 195.0861
L233.2415 196.3718
" />
<path d="M233.2415 196.3718
L233.3130 196.5147
" />
<path d="M233.3130 196.5147
L233.4558 196.5861
" />
<path d="M233.4558 196.5861
L233.5987 196.5861
" />
<path d="M235.0987 195.5861
L235.4558 196.5861
" />
<path d="M235.4558 196.5861
L235.8130 195.5861
" />
<path d="M237.1701 196.5861
L236.3130 196.5861
" />
<path d="M236.7415 196.5861
L236.7415 195.0861
" />
<path d="M236.7415 195.0861
L236.5987 195.3004
" />
<path d="M236.5987 195.3004
L236.4558 195.4433
" />
<path d="M236.4558 195.4433
L236.3130 195.5147
" />
<path d="M237.8130 196.4433
L237.8844 196.5147
" />
<path d="M237.8844 196.5147
L237.8130 196.5861
" />
<path d="M237.8130 196.5861
L237.7415 196.5147
" />
<path d="M237.7415 196.5147
L237.8130 196.4433
" />
<path d="M237.8130 196.4433
L237.8130 196.5861
" />
<path d="M239.1701 195.0861
L238.8844 195.0861
" />
<path d="M238.8844 195.0861
L238.7415 195.1576
" />
<path d="M238.7415 195.1576
L238.6701 195.2290
" />
<path d="M238.6701 195.2290
L238.5273 195.4433
" />
<path d="M238.5273 195.4433
L238.4558 195.7290
" />
<path d="M238.4558 195.7290
L238.4558 196.3004
" />
<path d="M238.4558 196.3004
L238.5273 196.4433
" />
<path d="M238.5273 196.4433
L238.5987 196.5147
" />
<path d="M238.5987 196.5147
L238.7415 196.5861
" />
<path d="M238.7415 196.5861
L239.0273 196.5861
" />
<path d="M239.0273 196.5861
L239.1701 196.5147
" />
<path d="M239.1701 196.5147
L239.2415 196.4433
" />
<path d="M239.2415 196.4433
L239.3130 196.3004
" />
<path d="M239.3130 196.3004
L239.3130 195.9433
" />
<path d="M239.3130 195.9433
L239.2415 195.8004
" />
<path d="M239.2415 195.8004
L239.1701 195.7290
" />
<path d="M239.1701 195.7290
L239.0273 195.6576
" />
<path d="M239.0273 195.6576
L238.7415 195.6576
" />
<path d="M238.7415 195.6576
L238.5987 195.7290
" />
<path d="M238.5987 195.7290
L238.5273 195.8004
" />
<path d="M238.5273 195.8004
L238.4558 195.9433
" />
<path d="M239.9558 196.4433
L240.0273 196.5147
" />
<path d="M240.0273 196.5147
L239.9558 196.5861
" />
<path d="M239.9558 196.5861
L239.8844 196.5147
" />
<path d="M239.8844 196.5147
L239.9558 196.4433
" />
<path d="M239.9558 196.4433
L239.9558 196.5861
" />
<path d="M240.5273 195.0861
L241.4558 195.0861
" />
<path d="M241.4558 195.0861
L240.9558 195.6576
" />
<path d="M240.9558 195.6576
L241.1701 195.6576
" />
<path d="M241.1701 195.6576
L241.3130 195.7290
" />
<path d="M241.3130 195.7290
L241.3844 195.8004
" />
<path d="M241.3844 195.8004
L241.4558 195.9433
" />
<path d="M241.4558 195.9433
L241.4558 196.3004
" />
<path d="M241.4558 196.3004
L241.3844 196.4433
" />
<path d="M241.3844 196.4433
L241.3130 196.5147
" />
<path d="M241.3130 196.5147
L241.1701 196.5861
" />
<path d="M241.1701 196.5861
L240.7415 196.5861
" />
<path d="M240.7415 196.5861
L240.5987 196.5147
" />
<path d="M240.5987 196.5147
L240.5273 196.4433
" />
</g><path d="M177.0000 194.5000
L285.0000 194.5000
" />
<text x="200.0000" y="193.8500"
textLength="22.1500" font-size="2.0000" lengthAdjust="spacingAndGlyphs"
text-anchor="start" opacity="0">Date: 2021-06-08</text>
<g class="stroked-text"><desc>Date: 2021-06-08</desc>
<path d="M200.4558 193.7861
L200.4558 192.2861
" />
<path d="M200.4558 192.2861
L200.8130 192.2861
" />
<path d="M200.8130 192.2861
L201.0273 192.3576
" />
<path d="M201.0273 192.3576
L201.1701 192.5004
" />
<path d="M201.1701 192.5004
L201.2415 192.6433
" />
<path d="M201.2415 192.6433
L201.3130 192.9290
" />
<path d="M201.3130 192.9290
L201.3130 193.1433
" />
<path d="M201.3130 193.1433
L201.2415 193.4290
" />
<path d="M201.2415 193.4290
L201.1701 193.5718
" />
<path d="M201.1701 193.5718
L201.0273 193.7147
" />
<path d="M201.0273 193.7147
L200.8130 193.7861
" />
<path d="M200.8130 193.7861
L200.4558 193.7861
" />
<path d="M202.5987 193.7861
L202.5987 193.0004
" />
<path d="M202.5987 193.0004
L202.5273 192.8576
" />
<path d="M202.5273 192.8576
L202.3844 192.7861
" />
<path d="M202.3844 192.7861
L202.0987 192.7861
" />
<path d="M202.0987 192.7861
L201.9558 192.8576
" />
<path d="M202.5987 193.7147
L202.4558 193.7861
" />
<path d="M202.4558 193.7861
L202.0987 193.7861
" />
<path d="M202.0987 193.7861
L201.9558 193.7147
" />
<path d="M201.9558 193.7147
L201.8844 193.5718
" />
<path d="M201.8844 193.5718
L201.8844 193.4290
" />
<path d="M201.8844 193.4290
L201.9558 193.2861
" />
<path d="M201.9558 193.2861
L202.0987 193.2147
" />
<path d="M202.0987 193.2147
L202.4558 193.2147
" />
<path d="M202.4558 193.2147
L202.5987 193.1433
" />
<path d="M203.0987 192.7861
L203.6701 192.7861
" />
<path d="M203.3130 192.2861
L203.3130 193.5718
" />
<path d="M203.3130 193.5718
L203.3844 193.7147
" />
<path d="M203.3844 193.7147
L203.5273 193.7861
" />
<path d="M203.5273 193.7861
L203.6701 193.7861
" />
<path d="M204.7415 193.7147
L204.5987 193.7861
" />
<path d="M204.5987 193.7861
L204.3130 193.7861
" />
<path d="M204.3130 193.7861
L204.1701 193.7147
" />
<path d="M204.1701 193.7147
L204.0987 193.5718
" />
<path d="M204.0987 193.5718
L204.0987 193.0004
" />
<path d="M204.0987 193.0004
L204.1701 192.8576
" />
<path d="M204.1701 192.8576
L204.3130 192.7861
" />
<path d="M204.3130 192.7861
L204.5987 192.7861
" />
<path d="M204.5987 192.7861
L204.7415 192.8576
" />
<path d="M204.7415 192.8576
L204.8130 193.0004
" />
<path d="M204.8130 193.0004
L204.8130 193.1433
" />
<path d="M204.8130 193.1433
L204.0987 193.2861
" />
<path d="M205.4558 193.6433
L205.5273 193.7147
" />
<path d="M205.5273 193.7147
L205.4558 193.7861
" />
<path d="M205.4558 193.7861
L205.3844 193.7147
" />
<path d="M205.3844 193.7147
L205.4558 193.6433
" />
<path d="M205.4558 193.6433
L205.4558 193.7861
" />
<path d="M205.4558 192.8576
L205.5273 192.9290
" />
<path d="M205.5273 192.9290
L205.4558 193.0004
" />
<path d="M205.4558 193.0004
L205.3844 192.9290
" />
<path d="M205.3844 192.9290
L205.4558 192.8576
" />
<path d="M205.4558 192.8576
L205.4558 193.0004
" />
<path d="M207.2415 192.4290
L207.3130 192.3576
" />
<path d="M207.3130 192.3576
L207.4558 192.2861
" />
<path d="M207.4558 192.2861
L207.8130 192.2861
" />
<path d="M207.8130 192.2861
L207.9558 192.3576
" />
<path d="M207.9558 192.3576
L208.0273 192.4290
" />
<path d="M208.0273 192.4290
L208.0987 192.5718
" />
<path d="M208.0987 192.5718
L208.0987 192.7147
" />
<path d="M208.0987 192.7147
L208.0273 192.9290
" />
<path d="M208.0273 192.9290
L207.1701 193.7861
" />
<path d="M207.1701 193.7861
L208.0987 193.7861
" />
<path d="M209.0273 192.2861
L209.1701 192.2861
" />
<path d="M209.1701 192.2861
L209.3130 192.3576
" />
<path d="M209.3130 192.3576
L209.3844 192.4290
" />
<path d="M209.3844 192.4290
L209.4558 192.5718
" />
<path d="M209.4558 192.5718
L209.5273 192.8576
" />
<path d="M209.5273 192.8576
L209.5273 193.2147
" />
<path d="M209.5273 193.2147
L209.4558 193.5004
" />
<path d="M209.4558 193.5004
L209.3844 193.6433
" />
<path d="M209.3844 193.6433
L209.3130 193.7147
" />
<path d="M209.3130 193.7147
L209.1701 193.7861
" />
<path d="M209.1701 193.7861
L209.0273 193.7861
" />
<path d="M209.0273 193.7861
L208.8844 193.7147
" />
<path d="M208.8844 193.7147
L208.8130 193.6433
" />
<path d="M208.8130 193.6433
L208.7415 193.5004
" />
<path d="M208.7415 193.5004
L208.6701 193.2147
" />
<path d="M208.6701 193.2147
L208.6701 192.8576
" />
<path d="M208.6701 192.8576
L208.7415 192.5718
" />
<path d="M208.7415 192.5718
L208.8130 192.4290
" />
<path d="M208.8130 192.4290
L208.8844 192.3576
" />
<path d="M208.8844 192.3576
L209.0273 192.2861
" />
<path d="M210.0987 192.4290
L210.1701 192.3576
" />
<path d="M210.1701 192.3576
L210.3130 192.2861
" />
<path d="M210.3130 192.2861
L210.6701 192.2861
" />
<path d="M210.6701 192.2861
L210.8130 192.3576
" />
<path d="M210.8130 192.3576
L210.8844 192.4290
" />
<path d="M210.8844 192.4290
L210.9558 192.5718
" />
<path d="M210.9558 192.5718
L210.9558 192.7147
" />
<path d="M210.9558 192.7147
L210.8844 192.9290
" />
<path d="M210.8844 192.9290
L210.0273 193.7861
" />
<path d="M210.0273 193.7861
L210.9558 193.7861
" />
<path d="M212.3844 193.7861
L211.5273 193.7861
" />
<path d="M211.9558 193.7861
L211.9558 192.2861
" />
<path d="M211.9558 192.2861
L211.8130 192.5004
" />
<path d="M211.8130 192.5004
L211.6701 192.6433
" />
<path d="M211.6701 192.6433
L211.5273 192.7147
" />
<path d="M213.0273 193.2147
L214.1701 193.2147
" />
<path d="M215.1701 192.2861
L215.3130 192.2861
" />
<path d="M215.3130 192.2861
L215.4558 192.3576
" />
<path d="M215.4558 192.3576
L215.5273 192.4290
" />
<path d="M215.5273 192.4290
L215.5987 192.5718
" />
<path d="M215.5987 192.5718
L215.6701 192.8576
" />
<path d="M215.6701 192.8576
L215.6701 193.2147
" />
<path d="M215.6701 193.2147
L215.5987 193.5004
" />
<path d="M215.5987 193.5004
L215.5273 193.6433
" />
<path d="M215.5273 193.6433
L215.4558 193.7147
" />
<path d="M215.4558 193.7147
L215.3130 193.7861
" />
<path d="M215.3130 193.7861
L215.1701 193.7861
" />
<path d="M215.1701 193.7861
L215.0273 193.7147
" />
<path d="M215.0273 193.7147
L214.9558 193.6433
" />
<path d="M214.9558 193.6433
L214.8844 193.5004
" />
<path d="M214.8844 193.5004
L214.8130 193.2147
" />
<path d="M214.8130 193.2147
L214.8130 192.8576
" />
<path d="M214.8130 192.8576
L214.8844 192.5718
" />
<path d="M214.8844 192.5718
L214.9558 192.4290
" />
<path d="M214.9558 192.4290
L215.0273 192.3576
" />
<path d="M215.0273 192.3576
L215.1701 192.2861
" />
<path d="M216.9558 192.2861
L216.6701 192.2861
" />
<path d="M216.6701 192.2861
L216.5273 192.3576
" />
<path d="M216.5273 192.3576
L216.4558 192.4290
" />
<path d="M216.4558 192.4290
L216.3130 192.6433
" />
<path d="M216.3130 192.6433
L216.2415 192.9290
" />
<path d="M216.2415 192.9290
L216.2415 193.5004
" />
<path d="M216.2415 193.5004
L216.3130 193.6433
" />
<path d="M216.3130 193.6433
L216.3844 193.7147
" />
<path d="M216.3844 193.7147
L216.5273 193.7861
" />
<path d="M216.5273 193.7861
L216.8130 193.7861
" />
<path d="M216.8130 193.7861
L216.9558 193.7147
" />
<path d="M216.9558 193.7147
L217.0273 193.6433
" />
<path d="M217.0273 193.6433
L217.0987 193.5004
" />
<path d="M217.0987 193.5004
L217.0987 193.1433
" />
<path d="M217.0987 193.1433
L217.0273 193.0004
" />
<path d="M217.0273 193.0004
L216.9558 192.9290
" />
<path d="M216.9558 192.9290
L216.8130 192.8576
" />
<path d="M216.8130 192.8576
L216.5273 192.8576
" />
<path d="M216.5273 192.8576
L216.3844 192.9290
" />
<path d="M216.3844 192.9290
L216.3130 193.0004
" />
<path d="M216.3130 193.0004
L216.2415 193.1433
" />
<path d="M217.7415 193.2147
L218.8844 193.2147
" />
<path d="M219.8844 192.2861
L220.0273 192.2861
" />
<path d="M220.0273 192.2861
L220.1701 192.3576
" />
<path d="M220.1701 192.3576
L220.2415 192.4290
" />
<path d="M220.2415 192.4290
L220.3130 192.5718
" />
<path d="M220.3130 192.5718
L220.3844 192.8576
" />
<path d="M220.3844 192.8576
L220.3844 193.2147
" />
<path d="M220.3844 193.2147
L220.3130 193.5004
" />
<path d="M220.3130 193.5004
L220.2415 193.6433
" />
<path d="M220.2415 193.6433
L220.1701 193.7147
" />
<path d="M220.1701 193.7147
L220.0273 193.7861
" />
<path d="M220.0273 193.7861
L219.8844 193.7861
" />
<path d="M219.8844 193.7861
L219.7415 193.7147
" />
<path d="M219.7415 193.7147
L219.6701 193.6433
" />
<path d="M219.6701 193.6433
L219.5987 193.5004
" />
<path d="M219.5987 193.5004
L219.5273 193.2147
" />
<path d="M219.5273 193.2147
L219.5273 192.8576
" />
<path d="M219.5273 192.8576
L219.5987 192.5718
" />
<path d="M219.5987 192.5718
L219.6701 192.4290
" />
<path d="M219.6701 192.4290
L219.7415 192.3576
" />
<path d="M219.7415 192.3576
L219.8844 192.2861
" />
<path d="M221.2415 192.9290
L221.0987 192.8576
" />
<path d="M221.0987 192.8576
L221.0273 192.7861
" />
<path d="M221.0273 192.7861
L220.9558 192.6433
" />
<path d="M220.9558 192.6433
L220.9558 192.5718
" />
<path d="M220.9558 192.5718
L221.0273 192.4290
" />
<path d="M221.0273 192.4290
L221.0987 192.3576
" />
<path d="M221.0987 192.3576
L221.2415 192.2861
" />
<path d="M221.2415 192.2861
L221.5273 192.2861
" />
<path d="M221.5273 192.2861
L221.6701 192.3576
" />
<path d="M221.6701 192.3576
L221.7415 192.4290
" />
<path d="M221.7415 192.4290
L221.8130 192.5718
" />
<path d="M221.8130 192.5718
L221.8130 192.6433
" />
<path d="M221.8130 192.6433
L221.7415 192.7861
" />
<path d="M221.7415 192.7861
L221.6701 192.8576
" />
<path d="M221.6701 192.8576
L221.5273 192.9290
" />
<path d="M221.5273 192.9290
L221.2415 192.9290
" />
<path d="M221.2415 192.9290
L221.0987 193.0004
" />
<path d="M221.0987 193.0004
L221.0273 193.0718
" />
<path d="M221.0273 193.0718
L220.9558 193.2147
" />
<path d="M220.9558 193.2147
L220.9558 193.5004
" />
<path d="M220.9558 193.5004
L221.0273 193.6433
" />
<path d="M221.0273 193.6433
L221.0987 193.7147
" />
<path d="M221.0987 193.7147
L221.2415 193.7861
" />
<path d="M221.2415 193.7861
L221.5273 193.7861
" />
<path d="M221.5273 193.7861
L221.6701 193.7147
" />
<path d="M221.6701 193.7147
L221.7415 193.6433
" />
<path d="M221.7415 193.6433
L221.8130 193.5004
" />
<path d="M221.8130 193.5004
L221.8130 193.2147
" />
<path d="M221.8130 193.2147
L221.7415 193.0718
" />
<path d="M221.7415 193.0718
L221.6701 193.0004
" />
<path d="M221.6701 193.0004
L221.5273 192.9290
" />
</g><text x="286.0000" y="185.6500"
textLength="1.4900" font-size="1.7333" lengthAdjust="spacingAndGlyphs"
text-anchor="middle" opacity="0">D</text>
<g class="stroked-text"><desc>D</desc>
<path d="M285.6595 185.5936
L285.6595 184.2936
" />
<path d="M285.6595 184.2936
L285.9690 184.2936
" />
<path d="M285.9690 184.2936
L286.1548 184.3555
" />
<path d="M286.1548 184.3555
L286.2786 184.4793
" />
<path d="M286.2786 184.4793
L286.3405 184.6031
" />
<path d="M286.3405 184.6031
L286.4024 184.8507
" />
<path d="M286.4024 184.8507
L286.4024 185.0365
" />
<path d="M286.4024 185.0365
L286.3405 185.2841
" />
<path d="M286.3405 185.2841
L286.2786 185.4079
" />
<path d="M286.2786 185.4079
L286.1548 185.5317
" />
<path d="M286.1548 185.5317
L285.9690 185.5936
" />
<path d="M285.9690 185.5936
L285.6595 185.5936
" />
</g><text x="286.0000" y="135.6500"
textLength="1.4900" font-size="1.7333" lengthAdjust="spacingAndGlyphs"
text-anchor="middle" opacity="0">C</text>
<g class="stroked-text"><desc>C</desc>
<path d="M286.4024 135.4698
L286.3405 135.5317
" />
<path d="M286.3405 135.5317
L286.1548 135.5936
" />
<path d="M286.1548 135.5936
L286.0310 135.5936
" />
<path d="M286.0310 135.5936
L285.8452 135.5317
" />
<path d="M285.8452 135.5317
L285.7214 135.4079
" />
<path d="M285.7214 135.4079
L285.6595 135.2841
" />
<path d="M285.6595 135.2841
L285.5976 135.0365
" />
<path d="M285.5976 135.0365
L285.5976 134.8507
" />
<path d="M285.5976 134.8507
L285.6595 134.6031
" />
<path d="M285.6595 134.6031
L285.7214 134.4793
" />
<path d="M285.7214 134.4793
L285.8452 134.3555
" />
<path d="M285.8452 134.3555
L286.0310 134.2936
" />
<path d="M286.0310 134.2936
L286.1548 134.2936
" />
<path d="M286.1548 134.2936
L286.3405 134.3555
" />
<path d="M286.3405 134.3555
L286.4024 134.4174
" />
</g><text x="286.0000" y="85.6500"
textLength="1.4900" font-size="1.7333" lengthAdjust="spacingAndGlyphs"
text-anchor="middle" opacity="0">B</text>
<g class="stroked-text"><desc>B</desc>
<path d="M286.0929 84.9127
L286.2786 84.9746
" />
<path d="M286.2786 84.9746
L286.3405 85.0365
" />
<path d="M286.3405 85.0365
L286.4024 85.1603
" />
<path d="M286.4024 85.1603
L286.4024 85.3460
" />
<path d="M286.4024 85.3460
L286.3405 85.4698
" />
<path d="M286.3405 85.4698
L286.2786 85.5317
" />
<path d="M286.2786 85.5317
L286.1548 85.5936
" />
<path d="M286.1548 85.5936
L285.6595 85.5936
" />
<path d="M285.6595 85.5936
L285.6595 84.2936
" />
<path d="M285.6595 84.2936
L286.0929 84.2936
" />
<path d="M286.0929 84.2936
L286.2167 84.3555
" />
<path d="M286.2167 84.3555
L286.2786 84.4174
" />
<path d="M286.2786 84.4174
L286.3405 84.5412
" />
<path d="M286.3405 84.5412
L286.3405 84.6650
" />
<path d="M286.3405 84.6650
L286.2786 84.7888
" />
<path d="M286.2786 84.7888
L286.2167 84.8507
" />
<path d="M286.2167 84.8507
L286.0929 84.9127
" />
<path d="M286.0929 84.9127
L285.6595 84.9127
" />
</g><text x="286.0000" y="35.6500"
textLength="1.3043" font-size="1.7333" lengthAdjust="spacingAndGlyphs"
text-anchor="middle" opacity="0">A</text>
<g class="stroked-text"><desc>A</desc>
<path d="M285.6905 35.2222
L286.3095 35.2222
" />
<path d="M285.5667 35.5936
L286.0000 34.2936
" />
<path d="M286.0000 34.2936
L286.4333 35.5936
" />
</g><path d="M287.0000 160.0000
L285.0000 160.0000
" />
<path d="M287.0000 110.0000
L285.0000 110.0000
" />
<path d="M287.0000 60.0000
L285.0000 60.0000
" />
<text x="11.0000" y="185.6500"
textLength="1.4900" font-size="1.7333" lengthAdjust="spacingAndGlyphs"
text-anchor="middle" opacity="0">D</text>
<g class="stroked-text"><desc>D</desc>
<path d="M10.6595 185.5936
L10.6595 184.2936
" />
<path d="M10.6595 184.2936
L10.9690 184.2936
" />
<path d="M10.9690 184.2936
L11.1548 184.3555
" />
<path d="M11.1548 184.3555
L11.2786 184.4793
" />
<path d="M11.2786 184.4793
L11.3405 184.6031
" />
<path d="M11.3405 184.6031
L11.4024 184.8507
" />
<path d="M11.4024 184.8507
L11.4024 185.0365
" />
<path d="M11.4024 185.0365
L11.3405 185.2841
" />
<path d="M11.3405 185.2841
L11.2786 185.4079
" />
<path d="M11.2786 185.4079
L11.1548 185.5317
" />
<path d="M11.1548 185.5317
L10.9690 185.5936
" />
<path d="M10.9690 185.5936
L10.6595 185.5936
" />
</g><text x="11.0000" y="135.6500"
textLength="1.4900" font-size="1.7333" lengthAdjust="spacingAndGlyphs"
text-anchor="middle" opacity="0">C</text>
<g class="stroked-text"><desc>C</desc>
<path d="M11.4024 135.4698
L11.3405 135.5317
" />
<path d="M11.3405 135.5317
L11.1548 135.5936
" />
<path d="M11.1548 135.5936
L11.0310 135.5936
" />
<path d="M11.0310 135.5936
L10.8452 135.5317
" />
<path d="M10.8452 135.5317
L10.7214 135.4079
" />
<path d="M10.7214 135.4079
L10.6595 135.2841
" />
<path d="M10.6595 135.2841
L10.5976 135.0365
" />
<path d="M10.5976 135.0365
L10.5976 134.8507
" />
<path d="M10.5976 134.8507
L10.6595 134.6031
" />
<path d="M10.6595 134.6031
L10.7214 134.4793
" />
<path d="M10.7214 134.4793
L10.8452 134.3555
" />
<path d="M10.8452 134.3555
L11.0310 134.2936
" />
<path d="M11.0310 134.2936
L11.1548 134.2936
" />
<path d="M11.1548 134.2936
L11.3405 134.3555
" />
<path d="M11.3405 134.3555
L11.4024 134.4174
" />
</g><text x="11.0000" y="85.6500"
textLength="1.4900" font-size="1.7333" lengthAdjust="spacingAndGlyphs"
text-anchor="middle" opacity="0">B</text>
<g class="stroked-text"><desc>B</desc>
<path d="M11.0929 84.9127
L11.2786 84.9746
" />
<path d="M11.2786 84.9746
L11.3405 85.0365
" />
<path d="M11.3405 85.0365
L11.4024 85.1603
" />
<path d="M11.4024 85.1603
L11.4024 85.3460
" />
<path d="M11.4024 85.3460
L11.3405 85.4698
" />
<path d="M11.3405 85.4698
L11.2786 85.5317
" />
<path d="M11.2786 85.5317
L11.1548 85.5936
" />
<path d="M11.1548 85.5936
L10.6595 85.5936
" />
<path d="M10.6595 85.5936
L10.6595 84.2936
" />
<path d="M10.6595 84.2936
L11.0929 84.2936
" />
<path d="M11.0929 84.2936
L11.2167 84.3555
" />
<path d="M11.2167 84.3555
L11.2786 84.4174
" />
<path d="M11.2786 84.4174
L11.3405 84.5412
" />
<path d="M11.3405 84.5412
L11.3405 84.6650
" />
<path d="M11.3405 84.6650
L11.2786 84.7888
" />
<path d="M11.2786 84.7888
L11.2167 84.8507
" />
<path d="M11.2167 84.8507
L11.0929 84.9127
" />
<path d="M11.0929 84.9127
L10.6595 84.9127
" />
</g><text x="11.0000" y="35.6500"
textLength="1.3043" font-size="1.7333" lengthAdjust="spacingAndGlyphs"
text-anchor="middle" opacity="0">A</text>
<g class="stroked-text"><desc>A</desc>
<path d="M10.6905 35.2222
L11.3095 35.2222
" />
<path d="M10.5667 35.5936
L11.0000 34.2936
" />
<path d="M11.0000 34.2936
L11.4333 35.5936
" />
</g><path d="M10.0000 160.0000
L12.0000 160.0000
" />
<path d="M10.0000 110.0000
L12.0000 110.0000
" />
<path d="M10.0000 60.0000
L12.0000 60.0000
" />
<text x="285.0000" y="199.6500"
textLength="1.4281" font-size="1.7333" lengthAdjust="spacingAndGlyphs"
text-anchor="start" opacity="0">6</text>
<g class="stroked-text"><desc>6</desc>
<path d="M285.9654 198.2936
L285.7177 198.2936
" />
<path d="M285.7177 198.2936
L285.5939 198.3555
" />
<path d="M285.5939 198.3555
L285.5320 198.4174
" />
<path d="M285.5320 198.4174
L285.4082 198.6031
" />
<path d="M285.4082 198.6031
L285.3463 198.8507
" />
<path d="M285.3463 198.8507
L285.3463 199.3460
" />
<path d="M285.3463 199.3460
L285.4082 199.4698
" />
<path d="M285.4082 199.4698
L285.4701 199.5317
" />
<path d="M285.4701 199.5317
L285.5939 199.5936
" />
<path d="M285.5939 199.5936
L285.8415 199.5936
" />
<path d="M285.8415 199.5936
L285.9654 199.5317
" />
<path d="M285.9654 199.5317
L286.0273 199.4698
" />
<path d="M286.0273 199.4698
L286.0892 199.3460
" />
<path d="M286.0892 199.3460
L286.0892 199.0365
" />
<path d="M286.0892 199.0365
L286.0273 198.9127
" />
<path d="M286.0273 198.9127
L285.9654 198.8507
" />
<path d="M285.9654 198.8507
L285.8415 198.7888
" />
<path d="M285.8415 198.7888
L285.5939 198.7888
" />
<path d="M285.5939 198.7888
L285.4701 198.8507
" />
<path d="M285.4701 198.8507
L285.4082 198.9127
" />
<path d="M285.4082 198.9127
L285.3463 199.0365
" />
</g><text x="235.0000" y="199.6500"
textLength="1.4281" font-size="1.7333" lengthAdjust="spacingAndGlyphs"
text-anchor="start" opacity="0">5</text>
<g class="stroked-text"><desc>5</desc>
<path d="M236.0273 198.2936
L235.4082 198.2936
" />
<path d="M235.4082 198.2936
L235.3463 198.9127
" />
<path d="M235.3463 198.9127
L235.4082 198.8507
" />
<path d="M235.4082 198.8507
L235.5320 198.7888
" />
<path d="M235.5320 198.7888
L235.8415 198.7888
" />
<path d="M235.8415 198.7888
L235.9654 198.8507
" />
<path d="M235.9654 198.8507
L236.0273 198.9127
" />
<path d="M236.0273 198.9127
L236.0892 199.0365
" />
<path d="M236.0892 199.0365
L236.0892 199.3460
" />
<path d="M236.0892 199.3460
L236.0273 199.4698
" />
<path d="M236.0273 199.4698
L235.9654 199.5317
" />
<path d="M235.9654 199.5317
L235.8415 199.5936
" />
<path d="M235.8415 199.5936
L235.5320 199.5936
" />
<path d="M235.5320 199.5936
L235.4082 199.5317
" />
<path d="M235.4082 199.5317
L235.3463 199.4698
" />
</g><text x="185.0000" y="199.6500"
textLength="1.4281" font-size="1.7333" lengthAdjust="spacingAndGlyphs"
text-anchor="start" opacity="0">4</text>
<g class="stroked-text"><desc>4</desc>
<path d="M185.9654 198.7269
L185.9654 199.5936
" />
<path d="M185.6558 198.2317
L185.3463 199.1603
" />
<path d="M185.3463 199.1603
L186.1511 199.1603
" />
</g><text x="135.0000" y="199.6500"
textLength="1.4281" font-size="1.7333" lengthAdjust="spacingAndGlyphs"
text-anchor="start" opacity="0">3</text>
<g class="stroked-text"><desc>3</desc>
<path d="M135.2844 198.2936
L136.0892 198.2936
" />
<path d="M136.0892 198.2936
L135.6558 198.7888
" />
<path d="M135.6558 198.7888
L135.8415 198.7888
" />
<path d="M135.8415 198.7888
L135.9654 198.8507
" />
<path d="M135.9654 198.8507
L136.0273 198.9127
" />
<path d="M136.0273 198.9127
L136.0892 199.0365
" />
<path d="M136.0892 199.0365
L136.0892 199.3460
" />
<path d="M136.0892 199.3460
L136.0273 199.4698
" />
<path d="M136.0273 199.4698
L135.9654 199.5317
" />
<path d="M135.9654 199.5317
L135.8415 199.5936
" />
<path d="M135.8415 199.5936
L135.4701 199.5936
" />
<path d="M135.4701 199.5936
L135.3463 199.5317
" />
<path d="M135.3463 199.5317
L135.2844 199.4698
" />
</g><text x="85.0000" y="199.6500"
textLength="1.4281" font-size="1.7333" lengthAdjust="spacingAndGlyphs"
text-anchor="start" opacity="0">2</text>
<g class="stroked-text"><desc>2</desc>
<path d="M85.3463 198.4174
L85.4082 198.3555
" />
<path d="M85.4082 198.3555
L85.5320 198.2936
" />
<path d="M85.5320 198.2936
L85.8415 198.2936
" />
<path d="M85.8415 198.2936
L85.9654 198.3555
" />
<path d="M85.9654 198.3555
L86.0273 198.4174
" />
<path d="M86.0273 198.4174
L86.0892 198.5412
" />
<path d="M86.0892 198.5412
L86.0892 198.6650
" />
<path d="M86.0892 198.6650
L86.0273 198.8507
" />
<path d="M86.0273 198.8507
L85.2844 199.5936
" />
<path d="M85.2844 199.5936
L86.0892 199.5936
" />
</g><text x="35.0000" y="199.6500"
textLength="1.4281" font-size="1.7333" lengthAdjust="spacingAndGlyphs"
text-anchor="start" opacity="0">1</text>
<g class="stroked-text"><desc>1</desc>
<path d="M36.0892 199.5936
L35.3463 199.5936
" />
<path d="M35.7177 199.5936
L35.7177 198.2936
" />
<path d="M35.7177 198.2936
L35.5939 198.4793
" />
<path d="M35.5939 198.4793
L35.4701 198.6031
" />
<path d="M35.4701 198.6031
L35.3463 198.6650
" />
</g><path d="M260.0000 198.0000
L260.0000 200.0000
" />
<path d="M210.0000 198.0000
L210.0000 200.0000
" />
<path d="M160.0000 198.0000
L160.0000 200.0000
" />
<path d="M110.0000 198.0000
L110.0000 200.0000
" />
<path d="M60.0000 198.0000
L60.0000 200.0000
" />
<text x="285.0000" y="11.6500"
textLength="1.4281" font-size="1.7333" lengthAdjust="spacingAndGlyphs"
text-anchor="start" opacity="0">6</text>
<g class="stroked-text"><desc>6</desc>
<path d="M285.9654 10.2936
L285.7177 10.2936
" />
<path d="M285.7177 10.2936
L285.5939 10.3555
" />
<path d="M285.5939 10.3555
L285.5320 10.4174
" />
<path d="M285.5320 10.4174
L285.4082 10.6031
" />
<path d="M285.4082 10.6031
L285.3463 10.8507
" />
<path d="M285.3463 10.8507
L285.3463 11.3460
" />
<path d="M285.3463 11.3460
L285.4082 11.4698
" />
<path d="M285.4082 11.4698
L285.4701 11.5317
" />
<path d="M285.4701 11.5317
L285.5939 11.5936
" />
<path d="M285.5939 11.5936
L285.8415 11.5936
" />
<path d="M285.8415 11.5936
L285.9654 11.5317
" />
<path d="M285.9654 11.5317
L286.0273 11.4698
" />
<path d="M286.0273 11.4698
L286.0892 11.3460
" />
<path d="M286.0892 11.3460
L286.0892 11.0365
" />
<path d="M286.0892 11.0365
L286.0273 10.9127
" />
<path d="M286.0273 10.9127
L285.9654 10.8507
" />
<path d="M285.9654 10.8507
L285.8415 10.7888
" />
<path d="M285.8415 10.7888
L285.5939 10.7888
" />
<path d="M285.5939 10.7888
L285.4701 10.8507
" />
<path d="M285.4701 10.8507
L285.4082 10.9127
" />
<path d="M285.4082 10.9127
L285.3463 11.0365
" />
</g><text x="235.0000" y="11.6500"
textLength="1.4281" font-size="1.7333" lengthAdjust="spacingAndGlyphs"
text-anchor="start" opacity="0">5</text>
<g class="stroked-text"><desc>5</desc>
<path d="M236.0273 10.2936
L235.4082 10.2936
" />
<path d="M235.4082 10.2936
L235.3463 10.9127
" />
<path d="M235.3463 10.9127
L235.4082 10.8507
" />
<path d="M235.4082 10.8507
L235.5320 10.7888
" />
<path d="M235.5320 10.7888
L235.8415 10.7888
" />
<path d="M235.8415 10.7888
L235.9654 10.8507
" />
<path d="M235.9654 10.8507
L236.0273 10.9127
" />
<path d="M236.0273 10.9127
L236.0892 11.0365
" />
<path d="M236.0892 11.0365
L236.0892 11.3460
" />
<path d="M236.0892 11.3460
L236.0273 11.4698
" />
<path d="M236.0273 11.4698
L235.9654 11.5317
" />
<path d="M235.9654 11.5317
L235.8415 11.5936
" />
<path d="M235.8415 11.5936
L235.5320 11.5936
" />
<path d="M235.5320 11.5936
L235.4082 11.5317
" />
<path d="M235.4082 11.5317
L235.3463 11.4698
" />
</g><text x="185.0000" y="11.6500"
textLength="1.4281" font-size="1.7333" lengthAdjust="spacingAndGlyphs"
text-anchor="start" opacity="0">4</text>
<g class="stroked-text"><desc>4</desc>
<path d="M185.9654 10.7269
L185.9654 11.5936
" />
<path d="M185.6558 10.2317
L185.3463 11.1603
" />
<path d="M185.3463 11.1603
L186.1511 11.1603
" />
</g><text x="135.0000" y="11.6500"
textLength="1.4281" font-size="1.7333" lengthAdjust="spacingAndGlyphs"
text-anchor="start" opacity="0">3</text>
<g class="stroked-text"><desc>3</desc>
<path d="M135.2844 10.2936
L136.0892 10.2936
" />
<path d="M136.0892 10.2936
L135.6558 10.7888
" />
<path d="M135.6558 10.7888
L135.8415 10.7888
" />
<path d="M135.8415 10.7888
L135.9654 10.8507
" />
<path d="M135.9654 10.8507
L136.0273 10.9127
" />
<path d="M136.0273 10.9127
L136.0892 11.0365
" />
<path d="M136.0892 11.0365
L136.0892 11.3460
" />
<path d="M136.0892 11.3460
L136.0273 11.4698
" />
<path d="M136.0273 11.4698
L135.9654 11.5317
" />
<path d="M135.9654 11.5317
L135.8415 11.5936
" />
<path d="M135.8415 11.5936
L135.4701 11.5936
" />
<path d="M135.4701 11.5936
L135.3463 11.5317
" />
<path d="M135.3463 11.5317
L135.2844 11.4698
" />
</g><text x="85.0000" y="11.6500"
textLength="1.4281" font-size="1.7333" lengthAdjust="spacingAndGlyphs"
text-anchor="start" opacity="0">2</text>
<g class="stroked-text"><desc>2</desc>
<path d="M85.3463 10.4174
L85.4082 10.3555
" />
<path d="M85.4082 10.3555
L85.5320 10.2936
" />
<path d="M85.5320 10.2936
L85.8415 10.2936
" />
<path d="M85.8415 10.2936
L85.9654 10.3555
" />
<path d="M85.9654 10.3555
L86.0273 10.4174
" />
<path d="M86.0273 10.4174
L86.0892 10.5412
" />
<path d="M86.0892 10.5412
L86.0892 10.6650
" />
<path d="M86.0892 10.6650
L86.0273 10.8507
" />
<path d="M86.0273 10.8507
L85.2844 11.5936
" />
<path d="M85.2844 11.5936
L86.0892 11.5936
" />
</g><text x="35.0000" y="11.6500"
textLength="1.4281" font-size="1.7333" lengthAdjust="spacingAndGlyphs"
text-anchor="start" opacity="0">1</text>
<g class="stroked-text"><desc>1</desc>
<path d="M36.0892 11.5936
L35.3463 11.5936
" />
<path d="M35.7177 11.5936
L35.7177 10.2936
" />
<path d="M35.7177 10.2936
L35.5939 10.4793
" />
<path d="M35.5939 10.4793
L35.4701 10.6031
" />
<path d="M35.4701 10.6031
L35.3463 10.6650
" />
</g><path d="M260.0000 12.0000
L260.0000 10.0000
" />
<path d="M210.0000 12.0000
L210.0000 10.0000
" />
<path d="M160.0000 12.0000
L160.0000 10.0000
" />
<path d="M110.0000 12.0000
L110.0000 10.0000
" />
<path d="M60.0000 12.0000
L60.0000 10.0000
" />
<path style="fill:#000000; fill-opacity:0.0; 
stroke:#000000; stroke-width:0.1500; stroke-opacity:1; 
stroke-linecap:round; stroke-linejoin:round;fill:none"
d="M 12.0000,12.0000
285.0000,12.0000
285.0000,198.0000
12.0000,198.0000
Z" /> 
<path style="fill:#000000; fill-opacity:0.0; 
stroke:#000000; stroke-width:0.1500; stroke-opacity:1; 
stroke-linecap:round; stroke-linejoin:round;fill:none"
d="M 10.0000,10.0000
287.0000,10.0000
287.0000,200.0000
10.0000,200.0000
Z" /> 
<path style="fill:#000000; fill-opacity:0.0; 
stroke:#000000; stroke-width:0.1500; stroke-opacity:1; 
stroke-linecap:round; stroke-linejoin:round;fill:none"
d="M 177.0000,166.0000
285.0000,166.0000
285.0000,198.0000
177.0000,198.0000
Z" /> 
<g >
</g>
<g >
</g>
<g >
</g>
<g >
</g>
<g >
</g>
<g >
</g>
<g >
</g>
<g >
</g>
<g >
</g>
<g >
</g>
<g >
</g>
<g >
</g>
<g >
</g>
<g >
</g>
<g >
</g>
<g >
</g>
<g >
</g>
<g >
</g>
<g >
</g>
<g >
</g>
<g >
</g>
<g >
</g>
<g >
</g>
<g >
</g>
<g >
</g>
<g >
</g>
<g >
</g>
<g >
</g>
<g >
</g>
<g >
</g>
<g >
</g>
<g >
</g>
<g >
</g>
<g >
</g>
<g >
</g>
<g >
</g>
<g >
</g>
<g >
</g>
<g >
</g>
<g >
</g>
<g >
</g>
<g >
</g>
</g> 
</svg>
