<?xml version="1.0" standalone="no"?>
 <!DOCTYPE svg PUBLIC "-//W3C//DTD SVG 1.1//EN" 
 "http://www.w3.org/Graphics/SVG/1.1/DTD/svg11.dtd"> 
<svg
  xmlns:svg="http://www.w3.org/2000/svg"
  xmlns="http://www.w3.org/2000/svg"
  xmlns:xlink="http://www.w3.org/1999/xlink"
  version="1.1"
  width="297.0022mm" height="210.0072mm" viewBox="0.0000 0.0000 297.0022 210.0072">
<title>SVG Image created as m5-pantilt-F_Silkscreen.svg date 2023/09/19 04:43:33 </title>
  <desc>Image generated by PCBNEW </desc>
<g style="fill:#000000; fill-opacity:1.0000;stroke:#000000; stroke-opacity:1.0000;
stroke-linecap:round; stroke-linejoin:round;"
 transform="translate(0 0) scale(1 1)">
</g>
<g style="fill:#000000; fill-opacity:0.0; 
stroke:#000000; stroke-width:0.0000; stroke-opacity:1; 
stroke-linecap:round; stroke-linejoin:round;">
</g>
<g style="fill:#000000; fill-opacity:0.0; 
stroke:#000000; stroke-width:0.1200; stroke-opacity:1; 
stroke-linecap:round; stroke-linejoin:round;">
<path d="M146.9000 67.8000
L146.9000 76.3000
" />
<path d="M146.9000 76.3000
L148.4000 76.3000
" />
<path d="M148.4000 67.8000
L146.9000 67.8000
" />
<path d="M148.4000 70.8000
L146.9000 70.8000
" />
<path d="M148.4000 73.8000
L146.9000 73.8000
" />
<path d="M148.4000 67.8000
L148.4000 76.3000
" />
<path d="M114.0500 84.3000
L117.4500 84.3000
" />
<path d="M114.0500 85.9500
L117.4500 85.9500
" />
<path d="M117.4500 87.5500
L114.0500 87.5500
" />
<path d="M117.4500 84.3000
L117.4500 87.5500
" />
<path d="M114.0500 87.5500
L114.0500 84.3000
" />
<path d="M114.0000 80.6500
L114.0000 77.4000
" />
<path d="M114.0000 79.0500
L117.4000 79.0500
" />
<path d="M114.0000 77.4000
L117.4000 77.4000
" />
<path d="M117.4000 80.6500
L114.0000 80.6500
" />
<path d="M117.4000 77.4000
L117.4000 80.6500
" />
<path d="M111.7500 74.2500
L111.7500 61.1500
" />
<path d="M111.7500 88.0000
L111.7500 75.2000
" />
<path d="M148.4500 79.1000
L148.4500 87.6000
" />
<path d="M117.5000 75.2000
L120.7500 75.2000
" />
<path d="M148.4500 85.1000
L146.9500 85.1000
" />
<path d="M111.7500 74.2500
L134.8000 74.2500
" />
<path d="M148.4500 82.1000
L146.9500 82.1000
" />
<path d="M120.7500 88.0000
L120.7500 75.2000
" />
<path d="M116.8500 61.1500
L134.8500 61.1500
" />
<path d="M111.7500 61.1500
L114.2000 61.1500
" />
<path d="M146.9500 79.1000
L146.9500 87.6000
" />
<path d="M148.4500 79.1000
L146.9500 79.1000
" />
<path d="M134.8000 74.2500
L134.8500 61.1500
" />
<path d="M111.7500 88.0000
L120.7500 88.0000
" />
<path d="M111.7500 75.2000
L113.7500 75.2000
" />
<path d="M146.9500 87.6000
L148.4500 87.6000
" />
</g>
<g style="fill:#000000; fill-opacity:0.0; 
stroke:#000000; stroke-width:0.1500; stroke-opacity:1; 
stroke-linecap:round; stroke-linejoin:round;">
<text x="138.8000" y="85.4500"
textLength="6.5757" font-size="1.0667" lengthAdjust="spacingAndGlyphs"
text-anchor="middle" opacity="0">GPIO5/TTL</text>
<g class="stroked-text"><desc>GPIO5/TTL</desc>
<path d="M136.2667 84.6504
L136.1905 84.6123
" />
<path d="M136.1905 84.6123
L136.0762 84.6123
" />
<path d="M136.0762 84.6123
L135.9619 84.6504
" />
<path d="M135.9619 84.6504
L135.8857 84.7266
" />
<path d="M135.8857 84.7266
L135.8476 84.8028
" />
<path d="M135.8476 84.8028
L135.8095 84.9552
" />
<path d="M135.8095 84.9552
L135.8095 85.0694
" />
<path d="M135.8095 85.0694
L135.8476 85.2218
" />
<path d="M135.8476 85.2218
L135.8857 85.2980
" />
<path d="M135.8857 85.2980
L135.9619 85.3742
" />
<path d="M135.9619 85.3742
L136.0762 85.4123
" />
<path d="M136.0762 85.4123
L136.1524 85.4123
" />
<path d="M136.1524 85.4123
L136.2667 85.3742
" />
<path d="M136.2667 85.3742
L136.3048 85.3361
" />
<path d="M136.3048 85.3361
L136.3048 85.0694
" />
<path d="M136.3048 85.0694
L136.1524 85.0694
" />
<path d="M136.6476 85.4123
L136.6476 84.6123
" />
<path d="M136.6476 84.6123
L136.9524 84.6123
" />
<path d="M136.9524 84.6123
L137.0286 84.6504
" />
<path d="M137.0286 84.6504
L137.0667 84.6885
" />
<path d="M137.0667 84.6885
L137.1048 84.7647
" />
<path d="M137.1048 84.7647
L137.1048 84.8790
" />
<path d="M137.1048 84.8790
L137.0667 84.9552
" />
<path d="M137.0667 84.9552
L137.0286 84.9932
" />
<path d="M137.0286 84.9932
L136.9524 85.0313
" />
<path d="M136.9524 85.0313
L136.6476 85.0313
" />
<path d="M137.4476 85.4123
L137.4476 84.6123
" />
<path d="M137.9810 84.6123
L138.1333 84.6123
" />
<path d="M138.1333 84.6123
L138.2095 84.6504
" />
<path d="M138.2095 84.6504
L138.2857 84.7266
" />
<path d="M138.2857 84.7266
L138.3238 84.8790
" />
<path d="M138.3238 84.8790
L138.3238 85.1456
" />
<path d="M138.3238 85.1456
L138.2857 85.2980
" />
<path d="M138.2857 85.2980
L138.2095 85.3742
" />
<path d="M138.2095 85.3742
L138.1333 85.4123
" />
<path d="M138.1333 85.4123
L137.9810 85.4123
" />
<path d="M137.9810 85.4123
L137.9048 85.3742
" />
<path d="M137.9048 85.3742
L137.8286 85.2980
" />
<path d="M137.8286 85.2980
L137.7905 85.1456
" />
<path d="M137.7905 85.1456
L137.7905 84.8790
" />
<path d="M137.7905 84.8790
L137.8286 84.7266
" />
<path d="M137.8286 84.7266
L137.9048 84.6504
" />
<path d="M137.9048 84.6504
L137.9810 84.6123
" />
<path d="M139.0476 84.6123
L138.6667 84.6123
" />
<path d="M138.6667 84.6123
L138.6286 84.9932
" />
<path d="M138.6286 84.9932
L138.6667 84.9552
" />
<path d="M138.6667 84.9552
L138.7429 84.9171
" />
<path d="M138.7429 84.9171
L138.9333 84.9171
" />
<path d="M138.9333 84.9171
L139.0095 84.9552
" />
<path d="M139.0095 84.9552
L139.0476 84.9932
" />
<path d="M139.0476 84.9932
L139.0857 85.0694
" />
<path d="M139.0857 85.0694
L139.0857 85.2599
" />
<path d="M139.0857 85.2599
L139.0476 85.3361
" />
<path d="M139.0476 85.3361
L139.0095 85.3742
" />
<path d="M139.0095 85.3742
L138.9333 85.4123
" />
<path d="M138.9333 85.4123
L138.7429 85.4123
" />
<path d="M138.7429 85.4123
L138.6667 85.3742
" />
<path d="M138.6667 85.3742
L138.6286 85.3361
" />
<path d="M140.0000 84.5742
L139.3143 85.6028
" />
<path d="M140.1524 84.6123
L140.6095 84.6123
" />
<path d="M140.3810 85.4123
L140.3810 84.6123
" />
<path d="M140.7619 84.6123
L141.2190 84.6123
" />
<path d="M140.9905 85.4123
L140.9905 84.6123
" />
<path d="M141.8667 85.4123
L141.4857 85.4123
" />
<path d="M141.4857 85.4123
L141.4857 84.6123
" />
</g></g>
<g style="fill:#000000; fill-opacity:0.0; 
stroke:#000000; stroke-width:0.1250; stroke-opacity:1; 
stroke-linecap:round; stroke-linejoin:round;">
<g transform="rotate(-90.000000 113.0000 79.0000)">
<text x="113.0000" y="79.5000"
textLength="4.5083" font-size="1.3333" lengthAdjust="spacingAndGlyphs"
text-anchor="middle" opacity="0">Core1</text>
</g>
<g class="stroked-text"><desc>Core1</desc>
<path d="M113.3609 80.3571
L113.4085 80.4048
" />
<path d="M113.4085 80.4048
L113.4561 80.5476
" />
<path d="M113.4561 80.5476
L113.4561 80.6429
" />
<path d="M113.4561 80.6429
L113.4085 80.7857
" />
<path d="M113.4085 80.7857
L113.3133 80.8810
" />
<path d="M113.3133 80.8810
L113.2180 80.9286
" />
<path d="M113.2180 80.9286
L113.0275 80.9762
" />
<path d="M113.0275 80.9762
L112.8847 80.9762
" />
<path d="M112.8847 80.9762
L112.6942 80.9286
" />
<path d="M112.6942 80.9286
L112.5990 80.8810
" />
<path d="M112.5990 80.8810
L112.5037 80.7857
" />
<path d="M112.5037 80.7857
L112.4561 80.6429
" />
<path d="M112.4561 80.6429
L112.4561 80.5476
" />
<path d="M112.4561 80.5476
L112.5037 80.4048
" />
<path d="M112.5037 80.4048
L112.5514 80.3571
" />
<path d="M113.4561 79.7857
L113.4085 79.8810
" />
<path d="M113.4085 79.8810
L113.3609 79.9286
" />
<path d="M113.3609 79.9286
L113.2656 79.9762
" />
<path d="M113.2656 79.9762
L112.9799 79.9762
" />
<path d="M112.9799 79.9762
L112.8847 79.9286
" />
<path d="M112.8847 79.9286
L112.8371 79.8810
" />
<path d="M112.8371 79.8810
L112.7895 79.7857
" />
<path d="M112.7895 79.7857
L112.7895 79.6429
" />
<path d="M112.7895 79.6429
L112.8371 79.5476
" />
<path d="M112.8371 79.5476
L112.8847 79.5000
" />
<path d="M112.8847 79.5000
L112.9799 79.4524
" />
<path d="M112.9799 79.4524
L113.2656 79.4524
" />
<path d="M113.2656 79.4524
L113.3609 79.5000
" />
<path d="M113.3609 79.5000
L113.4085 79.5476
" />
<path d="M113.4085 79.5476
L113.4561 79.6429
" />
<path d="M113.4561 79.6429
L113.4561 79.7857
" />
<path d="M113.4561 79.0238
L112.7895 79.0238
" />
<path d="M112.9799 79.0238
L112.8847 78.9762
" />
<path d="M112.8847 78.9762
L112.8371 78.9286
" />
<path d="M112.8371 78.9286
L112.7895 78.8333
" />
<path d="M112.7895 78.8333
L112.7895 78.7381
" />
<path d="M113.4085 78.0238
L113.4561 78.1190
" />
<path d="M113.4561 78.1190
L113.4561 78.3095
" />
<path d="M113.4561 78.3095
L113.4085 78.4048
" />
<path d="M113.4085 78.4048
L113.3133 78.4524
" />
<path d="M113.3133 78.4524
L112.9323 78.4524
" />
<path d="M112.9323 78.4524
L112.8371 78.4048
" />
<path d="M112.8371 78.4048
L112.7895 78.3095
" />
<path d="M112.7895 78.3095
L112.7895 78.1190
" />
<path d="M112.7895 78.1190
L112.8371 78.0238
" />
<path d="M112.8371 78.0238
L112.9323 77.9762
" />
<path d="M112.9323 77.9762
L113.0275 77.9762
" />
<path d="M113.0275 77.9762
L113.1228 78.4524
" />
<path d="M113.4561 77.0238
L113.4561 77.5952
" />
<path d="M113.4561 77.3095
L112.4561 77.3095
" />
<path d="M112.4561 77.3095
L112.5990 77.4048
" />
<path d="M112.5990 77.4048
L112.6942 77.5000
" />
<path d="M112.6942 77.5000
L112.7418 77.5952
" />
</g><g transform="rotate(-90.000000 113.0000 85.5000)">
<text x="113.0000" y="86.0000"
textLength="4.5083" font-size="1.3333" lengthAdjust="spacingAndGlyphs"
text-anchor="middle" opacity="0">Core2</text>
</g>
<g class="stroked-text"><desc>Core2</desc>
<path d="M113.3609 86.8571
L113.4085 86.9048
" />
<path d="M113.4085 86.9048
L113.4561 87.0476
" />
<path d="M113.4561 87.0476
L113.4561 87.1429
" />
<path d="M113.4561 87.1429
L113.4085 87.2857
" />
<path d="M113.4085 87.2857
L113.3133 87.3810
" />
<path d="M113.3133 87.3810
L113.2180 87.4286
" />
<path d="M113.2180 87.4286
L113.0275 87.4762
" />
<path d="M113.0275 87.4762
L112.8847 87.4762
" />
<path d="M112.8847 87.4762
L112.6942 87.4286
" />
<path d="M112.6942 87.4286
L112.5990 87.3810
" />
<path d="M112.5990 87.3810
L112.5037 87.2857
" />
<path d="M112.5037 87.2857
L112.4561 87.1429
" />
<path d="M112.4561 87.1429
L112.4561 87.0476
" />
<path d="M112.4561 87.0476
L112.5037 86.9048
" />
<path d="M112.5037 86.9048
L112.5514 86.8571
" />
<path d="M113.4561 86.2857
L113.4085 86.3810
" />
<path d="M113.4085 86.3810
L113.3609 86.4286
" />
<path d="M113.3609 86.4286
L113.2656 86.4762
" />
<path d="M113.2656 86.4762
L112.9799 86.4762
" />
<path d="M112.9799 86.4762
L112.8847 86.4286
" />
<path d="M112.8847 86.4286
L112.8371 86.3810
" />
<path d="M112.8371 86.3810
L112.7895 86.2857
" />
<path d="M112.7895 86.2857
L112.7895 86.1429
" />
<path d="M112.7895 86.1429
L112.8371 86.0476
" />
<path d="M112.8371 86.0476
L112.8847 86.0000
" />
<path d="M112.8847 86.0000
L112.9799 85.9524
" />
<path d="M112.9799 85.9524
L113.2656 85.9524
" />
<path d="M113.2656 85.9524
L113.3609 86.0000
" />
<path d="M113.3609 86.0000
L113.4085 86.0476
" />
<path d="M113.4085 86.0476
L113.4561 86.1429
" />
<path d="M113.4561 86.1429
L113.4561 86.2857
" />
<path d="M113.4561 85.5238
L112.7895 85.5238
" />
<path d="M112.9799 85.5238
L112.8847 85.4762
" />
<path d="M112.8847 85.4762
L112.8371 85.4286
" />
<path d="M112.8371 85.4286
L112.7895 85.3333
" />
<path d="M112.7895 85.3333
L112.7895 85.2381
" />
<path d="M113.4085 84.5238
L113.4561 84.6190
" />
<path d="M113.4561 84.6190
L113.4561 84.8095
" />
<path d="M113.4561 84.8095
L113.4085 84.9048
" />
<path d="M113.4085 84.9048
L113.3133 84.9524
" />
<path d="M113.3133 84.9524
L112.9323 84.9524
" />
<path d="M112.9323 84.9524
L112.8371 84.9048
" />
<path d="M112.8371 84.9048
L112.7895 84.8095
" />
<path d="M112.7895 84.8095
L112.7895 84.6190
" />
<path d="M112.7895 84.6190
L112.8371 84.5238
" />
<path d="M112.8371 84.5238
L112.9323 84.4762
" />
<path d="M112.9323 84.4762
L113.0275 84.4762
" />
<path d="M113.0275 84.4762
L113.1228 84.9524
" />
<path d="M112.5514 84.0952
L112.5037 84.0476
" />
<path d="M112.5037 84.0476
L112.4561 83.9524
" />
<path d="M112.4561 83.9524
L112.4561 83.7143
" />
<path d="M112.4561 83.7143
L112.5037 83.6190
" />
<path d="M112.5037 83.6190
L112.5514 83.5714
" />
<path d="M112.5514 83.5714
L112.6466 83.5238
" />
<path d="M112.6466 83.5238
L112.7418 83.5238
" />
<path d="M112.7418 83.5238
L112.8847 83.5714
" />
<path d="M112.8847 83.5714
L113.4561 84.1429
" />
<path d="M113.4561 84.1429
L113.4561 83.5238
" />
</g></g>
<g style="fill:#000000; fill-opacity:0.0; 
stroke:#000000; stroke-width:0.1500; stroke-opacity:1; 
stroke-linecap:round; stroke-linejoin:round;">
<g transform="rotate(-270.000000 147.6000 71.9500)">
<text x="147.6000" y="72.3500"
textLength="8.3281" font-size="1.0667" lengthAdjust="spacingAndGlyphs"
text-anchor="middle" opacity="0">GND +5V SIG</text>
</g>
<g class="stroked-text"><desc>GND +5V SIG</desc>
<path d="M147.9996 68.5405
L148.0377 68.4643
" />
<path d="M148.0377 68.4643
L148.0377 68.3500
" />
<path d="M148.0377 68.3500
L147.9996 68.2357
" />
<path d="M147.9996 68.2357
L147.9234 68.1595
" />
<path d="M147.9234 68.1595
L147.8472 68.1214
" />
<path d="M147.8472 68.1214
L147.6948 68.0833
" />
<path d="M147.6948 68.0833
L147.5806 68.0833
" />
<path d="M147.5806 68.0833
L147.4282 68.1214
" />
<path d="M147.4282 68.1214
L147.3520 68.1595
" />
<path d="M147.3520 68.1595
L147.2758 68.2357
" />
<path d="M147.2758 68.2357
L147.2377 68.3500
" />
<path d="M147.2377 68.3500
L147.2377 68.4262
" />
<path d="M147.2377 68.4262
L147.2758 68.5405
" />
<path d="M147.2758 68.5405
L147.3139 68.5786
" />
<path d="M147.3139 68.5786
L147.5806 68.5786
" />
<path d="M147.5806 68.5786
L147.5806 68.4262
" />
<path d="M147.2377 68.9214
L148.0377 68.9214
" />
<path d="M148.0377 68.9214
L147.2377 69.3786
" />
<path d="M147.2377 69.3786
L148.0377 69.3786
" />
<path d="M147.2377 69.7595
L148.0377 69.7595
" />
<path d="M148.0377 69.7595
L148.0377 69.9500
" />
<path d="M148.0377 69.9500
L147.9996 70.0643
" />
<path d="M147.9996 70.0643
L147.9234 70.1405
" />
<path d="M147.9234 70.1405
L147.8472 70.1786
" />
<path d="M147.8472 70.1786
L147.6948 70.2167
" />
<path d="M147.6948 70.2167
L147.5806 70.2167
" />
<path d="M147.5806 70.2167
L147.4282 70.1786
" />
<path d="M147.4282 70.1786
L147.3520 70.1405
" />
<path d="M147.3520 70.1405
L147.2758 70.0643
" />
<path d="M147.2758 70.0643
L147.2377 69.9500
" />
<path d="M147.2377 69.9500
L147.2377 69.7595
" />
<path d="M147.5425 71.1690
L147.5425 71.7786
" />
<path d="M147.2377 71.4738
L147.8472 71.4738
" />
<path d="M148.0377 72.5405
L148.0377 72.1595
" />
<path d="M148.0377 72.1595
L147.6568 72.1214
" />
<path d="M147.6568 72.1214
L147.6948 72.1595
" />
<path d="M147.6948 72.1595
L147.7329 72.2357
" />
<path d="M147.7329 72.2357
L147.7329 72.4262
" />
<path d="M147.7329 72.4262
L147.6948 72.5024
" />
<path d="M147.6948 72.5024
L147.6568 72.5405
" />
<path d="M147.6568 72.5405
L147.5806 72.5786
" />
<path d="M147.5806 72.5786
L147.3901 72.5786
" />
<path d="M147.3901 72.5786
L147.3139 72.5405
" />
<path d="M147.3139 72.5405
L147.2758 72.5024
" />
<path d="M147.2758 72.5024
L147.2377 72.4262
" />
<path d="M147.2377 72.4262
L147.2377 72.2357
" />
<path d="M147.2377 72.2357
L147.2758 72.1595
" />
<path d="M147.2758 72.1595
L147.3139 72.1214
" />
<path d="M148.0377 72.8071
L147.2377 73.0738
" />
<path d="M147.2377 73.0738
L148.0377 73.3405
" />
<path d="M147.2758 74.1786
L147.2377 74.2929
" />
<path d="M147.2377 74.2929
L147.2377 74.4833
" />
<path d="M147.2377 74.4833
L147.2758 74.5595
" />
<path d="M147.2758 74.5595
L147.3139 74.5976
" />
<path d="M147.3139 74.5976
L147.3901 74.6357
" />
<path d="M147.3901 74.6357
L147.4663 74.6357
" />
<path d="M147.4663 74.6357
L147.5425 74.5976
" />
<path d="M147.5425 74.5976
L147.5806 74.5595
" />
<path d="M147.5806 74.5595
L147.6187 74.4833
" />
<path d="M147.6187 74.4833
L147.6568 74.3310
" />
<path d="M147.6568 74.3310
L147.6948 74.2548
" />
<path d="M147.6948 74.2548
L147.7329 74.2167
" />
<path d="M147.7329 74.2167
L147.8091 74.1786
" />
<path d="M147.8091 74.1786
L147.8853 74.1786
" />
<path d="M147.8853 74.1786
L147.9615 74.2167
" />
<path d="M147.9615 74.2167
L147.9996 74.2548
" />
<path d="M147.9996 74.2548
L148.0377 74.3310
" />
<path d="M148.0377 74.3310
L148.0377 74.5214
" />
<path d="M148.0377 74.5214
L147.9996 74.6357
" />
<path d="M147.2377 74.9786
L148.0377 74.9786
" />
<path d="M147.9996 75.7786
L148.0377 75.7024
" />
<path d="M148.0377 75.7024
L148.0377 75.5881
" />
<path d="M148.0377 75.5881
L147.9996 75.4738
" />
<path d="M147.9996 75.4738
L147.9234 75.3976
" />
<path d="M147.9234 75.3976
L147.8472 75.3595
" />
<path d="M147.8472 75.3595
L147.6948 75.3214
" />
<path d="M147.6948 75.3214
L147.5806 75.3214
" />
<path d="M147.5806 75.3214
L147.4282 75.3595
" />
<path d="M147.4282 75.3595
L147.3520 75.3976
" />
<path d="M147.3520 75.3976
L147.2758 75.4738
" />
<path d="M147.2758 75.4738
L147.2377 75.5881
" />
<path d="M147.2377 75.5881
L147.2377 75.6643
" />
<path d="M147.2377 75.6643
L147.2758 75.7786
" />
<path d="M147.2758 75.7786
L147.3139 75.8167
" />
<path d="M147.3139 75.8167
L147.5806 75.8167
" />
<path d="M147.5806 75.8167
L147.5806 75.6643
" />
</g><text x="115.2000" y="58.3500"
textLength="2.7281" font-size="1.0667" lengthAdjust="spacingAndGlyphs"
text-anchor="middle" opacity="0">GND</text>
<g class="stroked-text"><desc>GND</desc>
<path d="M114.5905 57.5504
L114.5143 57.5123
" />
<path d="M114.5143 57.5123
L114.4000 57.5123
" />
<path d="M114.4000 57.5123
L114.2857 57.5504
" />
<path d="M114.2857 57.5504
L114.2095 57.6266
" />
<path d="M114.2095 57.6266
L114.1714 57.7028
" />
<path d="M114.1714 57.7028
L114.1333 57.8552
" />
<path d="M114.1333 57.8552
L114.1333 57.9694
" />
<path d="M114.1333 57.9694
L114.1714 58.1218
" />
<path d="M114.1714 58.1218
L114.2095 58.1980
" />
<path d="M114.2095 58.1980
L114.2857 58.2742
" />
<path d="M114.2857 58.2742
L114.4000 58.3123
" />
<path d="M114.4000 58.3123
L114.4762 58.3123
" />
<path d="M114.4762 58.3123
L114.5905 58.2742
" />
<path d="M114.5905 58.2742
L114.6286 58.2361
" />
<path d="M114.6286 58.2361
L114.6286 57.9694
" />
<path d="M114.6286 57.9694
L114.4762 57.9694
" />
<path d="M114.9714 58.3123
L114.9714 57.5123
" />
<path d="M114.9714 57.5123
L115.4286 58.3123
" />
<path d="M115.4286 58.3123
L115.4286 57.5123
" />
<path d="M115.8095 58.3123
L115.8095 57.5123
" />
<path d="M115.8095 57.5123
L116.0000 57.5123
" />
<path d="M116.0000 57.5123
L116.1143 57.5504
" />
<path d="M116.1143 57.5504
L116.1905 57.6266
" />
<path d="M116.1905 57.6266
L116.2286 57.7028
" />
<path d="M116.2286 57.7028
L116.2667 57.8552
" />
<path d="M116.2667 57.8552
L116.2667 57.9694
" />
<path d="M116.2667 57.9694
L116.2286 58.1218
" />
<path d="M116.2286 58.1218
L116.1905 58.1980
" />
<path d="M116.1905 58.1980
L116.1143 58.2742
" />
<path d="M116.1143 58.2742
L116.0000 58.3123
" />
<path d="M116.0000 58.3123
L115.8095 58.3123
" />
</g><text x="141.7500" y="60.5000"
textLength="2.3452" font-size="1.3333" lengthAdjust="spacingAndGlyphs"
text-anchor="middle" opacity="0">ON</text>
<g class="stroked-text"><desc>ON</desc>
<path d="M141.1310 59.4548
L141.3214 59.4548
" />
<path d="M141.3214 59.4548
L141.4167 59.5024
" />
<path d="M141.4167 59.5024
L141.5119 59.5977
" />
<path d="M141.5119 59.5977
L141.5595 59.7882
" />
<path d="M141.5595 59.7882
L141.5595 60.1215
" />
<path d="M141.5595 60.1215
L141.5119 60.3120
" />
<path d="M141.5119 60.3120
L141.4167 60.4072
" />
<path d="M141.4167 60.4072
L141.3214 60.4548
" />
<path d="M141.3214 60.4548
L141.1310 60.4548
" />
<path d="M141.1310 60.4548
L141.0357 60.4072
" />
<path d="M141.0357 60.4072
L140.9405 60.3120
" />
<path d="M140.9405 60.3120
L140.8929 60.1215
" />
<path d="M140.8929 60.1215
L140.8929 59.7882
" />
<path d="M140.8929 59.7882
L140.9405 59.5977
" />
<path d="M140.9405 59.5977
L141.0357 59.5024
" />
<path d="M141.0357 59.5024
L141.1310 59.4548
" />
<path d="M141.9881 60.4548
L141.9881 59.4548
" />
<path d="M141.9881 59.4548
L142.5595 60.4548
" />
<path d="M142.5595 60.4548
L142.5595 59.4548
" />
</g></g>
<g style="fill:#000000; fill-opacity:0.0; 
stroke:#000000; stroke-width:0.1250; stroke-opacity:1; 
stroke-linecap:round; stroke-linejoin:round;">
<text x="115.5500" y="61.6500"
textLength="2.5083" font-size="1.3333" lengthAdjust="spacingAndGlyphs"
text-anchor="middle" opacity="0">TTL</text>
<g class="stroked-text"><desc>TTL</desc>
<path d="M114.4786 60.6061
L115.0500 60.6061
" />
<path d="M114.7643 61.6061
L114.7643 60.6061
" />
<path d="M115.2405 60.6061
L115.8119 60.6061
" />
<path d="M115.5262 61.6061
L115.5262 60.6061
" />
<path d="M116.6214 61.6061
L116.1452 61.6061
" />
<path d="M116.1452 61.6061
L116.1452 60.6061
" />
</g></g>
<g style="fill:#000000; fill-opacity:0.0; 
stroke:#000000; stroke-width:0.1500; stroke-opacity:1; 
stroke-linecap:round; stroke-linejoin:round;">
<text x="118.2500" y="58.3500"
textLength="2.7281" font-size="1.0667" lengthAdjust="spacingAndGlyphs"
text-anchor="middle" opacity="0">+5V</text>
<g class="stroked-text"><desc>+5V</desc>
<path d="M117.2214 58.0075
L117.8310 58.0075
" />
<path d="M117.5262 58.3123
L117.5262 57.7028
" />
<path d="M118.5929 57.5123
L118.2119 57.5123
" />
<path d="M118.2119 57.5123
L118.1738 57.8932
" />
<path d="M118.1738 57.8932
L118.2119 57.8552
" />
<path d="M118.2119 57.8552
L118.2881 57.8171
" />
<path d="M118.2881 57.8171
L118.4786 57.8171
" />
<path d="M118.4786 57.8171
L118.5548 57.8552
" />
<path d="M118.5548 57.8552
L118.5929 57.8932
" />
<path d="M118.5929 57.8932
L118.6310 57.9694
" />
<path d="M118.6310 57.9694
L118.6310 58.1599
" />
<path d="M118.6310 58.1599
L118.5929 58.2361
" />
<path d="M118.5929 58.2361
L118.5548 58.2742
" />
<path d="M118.5548 58.2742
L118.4786 58.3123
" />
<path d="M118.4786 58.3123
L118.2881 58.3123
" />
<path d="M118.2881 58.3123
L118.2119 58.2742
" />
<path d="M118.2119 58.2742
L118.1738 58.2361
" />
<path d="M118.8595 57.5123
L119.1262 58.3123
" />
<path d="M119.1262 58.3123
L119.3929 57.5123
" />
</g><text x="138.9000" y="75.4500"
textLength="6.5757" font-size="1.0667" lengthAdjust="spacingAndGlyphs"
text-anchor="middle" opacity="0">GPIO2/TTL</text>
<g class="stroked-text"><desc>GPIO2/TTL</desc>
<path d="M136.3667 74.6504
L136.2905 74.6123
" />
<path d="M136.2905 74.6123
L136.1762 74.6123
" />
<path d="M136.1762 74.6123
L136.0619 74.6504
" />
<path d="M136.0619 74.6504
L135.9857 74.7266
" />
<path d="M135.9857 74.7266
L135.9476 74.8028
" />
<path d="M135.9476 74.8028
L135.9095 74.9552
" />
<path d="M135.9095 74.9552
L135.9095 75.0694
" />
<path d="M135.9095 75.0694
L135.9476 75.2218
" />
<path d="M135.9476 75.2218
L135.9857 75.2980
" />
<path d="M135.9857 75.2980
L136.0619 75.3742
" />
<path d="M136.0619 75.3742
L136.1762 75.4123
" />
<path d="M136.1762 75.4123
L136.2524 75.4123
" />
<path d="M136.2524 75.4123
L136.3667 75.3742
" />
<path d="M136.3667 75.3742
L136.4048 75.3361
" />
<path d="M136.4048 75.3361
L136.4048 75.0694
" />
<path d="M136.4048 75.0694
L136.2524 75.0694
" />
<path d="M136.7476 75.4123
L136.7476 74.6123
" />
<path d="M136.7476 74.6123
L137.0524 74.6123
" />
<path d="M137.0524 74.6123
L137.1286 74.6504
" />
<path d="M137.1286 74.6504
L137.1667 74.6885
" />
<path d="M137.1667 74.6885
L137.2048 74.7647
" />
<path d="M137.2048 74.7647
L137.2048 74.8790
" />
<path d="M137.2048 74.8790
L137.1667 74.9552
" />
<path d="M137.1667 74.9552
L137.1286 74.9932
" />
<path d="M137.1286 74.9932
L137.0524 75.0313
" />
<path d="M137.0524 75.0313
L136.7476 75.0313
" />
<path d="M137.5476 75.4123
L137.5476 74.6123
" />
<path d="M138.0810 74.6123
L138.2333 74.6123
" />
<path d="M138.2333 74.6123
L138.3095 74.6504
" />
<path d="M138.3095 74.6504
L138.3857 74.7266
" />
<path d="M138.3857 74.7266
L138.4238 74.8790
" />
<path d="M138.4238 74.8790
L138.4238 75.1456
" />
<path d="M138.4238 75.1456
L138.3857 75.2980
" />
<path d="M138.3857 75.2980
L138.3095 75.3742
" />
<path d="M138.3095 75.3742
L138.2333 75.4123
" />
<path d="M138.2333 75.4123
L138.0810 75.4123
" />
<path d="M138.0810 75.4123
L138.0048 75.3742
" />
<path d="M138.0048 75.3742
L137.9286 75.2980
" />
<path d="M137.9286 75.2980
L137.8905 75.1456
" />
<path d="M137.8905 75.1456
L137.8905 74.8790
" />
<path d="M137.8905 74.8790
L137.9286 74.7266
" />
<path d="M137.9286 74.7266
L138.0048 74.6504
" />
<path d="M138.0048 74.6504
L138.0810 74.6123
" />
<path d="M138.7286 74.6885
L138.7667 74.6504
" />
<path d="M138.7667 74.6504
L138.8429 74.6123
" />
<path d="M138.8429 74.6123
L139.0333 74.6123
" />
<path d="M139.0333 74.6123
L139.1095 74.6504
" />
<path d="M139.1095 74.6504
L139.1476 74.6885
" />
<path d="M139.1476 74.6885
L139.1857 74.7647
" />
<path d="M139.1857 74.7647
L139.1857 74.8409
" />
<path d="M139.1857 74.8409
L139.1476 74.9552
" />
<path d="M139.1476 74.9552
L138.6905 75.4123
" />
<path d="M138.6905 75.4123
L139.1857 75.4123
" />
<path d="M140.1000 74.5742
L139.4143 75.6028
" />
<path d="M140.2524 74.6123
L140.7095 74.6123
" />
<path d="M140.4810 75.4123
L140.4810 74.6123
" />
<path d="M140.8619 74.6123
L141.3190 74.6123
" />
<path d="M141.0905 75.4123
L141.0905 74.6123
" />
<path d="M141.9667 75.4123
L141.5857 75.4123
" />
<path d="M141.5857 75.4123
L141.5857 74.6123
" />
</g><text x="146.4000" y="91.9000"
textLength="2.7281" font-size="1.0667" lengthAdjust="spacingAndGlyphs"
text-anchor="start" opacity="0">GND</text>
<g class="stroked-text"><desc>GND</desc>
<path d="M147.1082 91.1004
L147.0320 91.0623
" />
<path d="M147.0320 91.0623
L146.9177 91.0623
" />
<path d="M146.9177 91.0623
L146.8034 91.1004
" />
<path d="M146.8034 91.1004
L146.7273 91.1766
" />
<path d="M146.7273 91.1766
L146.6892 91.2528
" />
<path d="M146.6892 91.2528
L146.6511 91.4052
" />
<path d="M146.6511 91.4052
L146.6511 91.5194
" />
<path d="M146.6511 91.5194
L146.6892 91.6718
" />
<path d="M146.6892 91.6718
L146.7273 91.7480
" />
<path d="M146.7273 91.7480
L146.8034 91.8242
" />
<path d="M146.8034 91.8242
L146.9177 91.8623
" />
<path d="M146.9177 91.8623
L146.9939 91.8623
" />
<path d="M146.9939 91.8623
L147.1082 91.8242
" />
<path d="M147.1082 91.8242
L147.1463 91.7861
" />
<path d="M147.1463 91.7861
L147.1463 91.5194
" />
<path d="M147.1463 91.5194
L146.9939 91.5194
" />
<path d="M147.4892 91.8623
L147.4892 91.0623
" />
<path d="M147.4892 91.0623
L147.9463 91.8623
" />
<path d="M147.9463 91.8623
L147.9463 91.0623
" />
<path d="M148.3273 91.8623
L148.3273 91.0623
" />
<path d="M148.3273 91.0623
L148.5177 91.0623
" />
<path d="M148.5177 91.0623
L148.6320 91.1004
" />
<path d="M148.6320 91.1004
L148.7082 91.1766
" />
<path d="M148.7082 91.1766
L148.7463 91.2528
" />
<path d="M148.7463 91.2528
L148.7844 91.4052
" />
<path d="M148.7844 91.4052
L148.7844 91.5194
" />
<path d="M148.7844 91.5194
L148.7463 91.6718
" />
<path d="M148.7463 91.6718
L148.7082 91.7480
" />
<path d="M148.7082 91.7480
L148.6320 91.8242
" />
<path d="M148.6320 91.8242
L148.5177 91.8623
" />
<path d="M148.5177 91.8623
L148.3273 91.8623
" />
</g><text x="135.7000" y="91.8000"
textLength="4.0614" font-size="1.0667" lengthAdjust="spacingAndGlyphs"
text-anchor="start" opacity="0">+VBAT</text>
<g class="stroked-text"><desc>+VBAT</desc>
<path d="M135.9892 91.4575
L136.5987 91.4575
" />
<path d="M136.2939 91.7623
L136.2939 91.1528
" />
<path d="M136.8654 90.9623
L137.1320 91.7623
" />
<path d="M137.1320 91.7623
L137.3987 90.9623
" />
<path d="M137.9320 91.3432
L138.0463 91.3813
" />
<path d="M138.0463 91.3813
L138.0844 91.4194
" />
<path d="M138.0844 91.4194
L138.1225 91.4956
" />
<path d="M138.1225 91.4956
L138.1225 91.6099
" />
<path d="M138.1225 91.6099
L138.0844 91.6861
" />
<path d="M138.0844 91.6861
L138.0463 91.7242
" />
<path d="M138.0463 91.7242
L137.9701 91.7623
" />
<path d="M137.9701 91.7623
L137.6653 91.7623
" />
<path d="M137.6653 91.7623
L137.6653 90.9623
" />
<path d="M137.6653 90.9623
L137.9320 90.9623
" />
<path d="M137.9320 90.9623
L138.0082 91.0004
" />
<path d="M138.0082 91.0004
L138.0463 91.0385
" />
<path d="M138.0463 91.0385
L138.0844 91.1147
" />
<path d="M138.0844 91.1147
L138.0844 91.1909
" />
<path d="M138.0844 91.1909
L138.0463 91.2671
" />
<path d="M138.0463 91.2671
L138.0082 91.3052
" />
<path d="M138.0082 91.3052
L137.9320 91.3432
" />
<path d="M137.9320 91.3432
L137.6653 91.3432
" />
<path d="M138.4273 91.5337
L138.8082 91.5337
" />
<path d="M138.3511 91.7623
L138.6177 90.9623
" />
<path d="M138.6177 90.9623
L138.8844 91.7623
" />
<path d="M139.0368 90.9623
L139.4939 90.9623
" />
<path d="M139.2653 91.7623
L139.2653 90.9623
" />
</g><g transform="rotate(-270.000000 147.6500 83.2500)">
<text x="147.6500" y="83.6500"
textLength="8.3281" font-size="1.0667" lengthAdjust="spacingAndGlyphs"
text-anchor="middle" opacity="0">GND +5V SIG</text>
</g>
<g class="stroked-text"><desc>GND +5V SIG</desc>
<path d="M148.0496 79.8405
L148.0877 79.7643
" />
<path d="M148.0877 79.7643
L148.0877 79.6500
" />
<path d="M148.0877 79.6500
L148.0496 79.5357
" />
<path d="M148.0496 79.5357
L147.9734 79.4595
" />
<path d="M147.9734 79.4595
L147.8972 79.4214
" />
<path d="M147.8972 79.4214
L147.7448 79.3833
" />
<path d="M147.7448 79.3833
L147.6306 79.3833
" />
<path d="M147.6306 79.3833
L147.4782 79.4214
" />
<path d="M147.4782 79.4214
L147.4020 79.4595
" />
<path d="M147.4020 79.4595
L147.3258 79.5357
" />
<path d="M147.3258 79.5357
L147.2877 79.6500
" />
<path d="M147.2877 79.6500
L147.2877 79.7262
" />
<path d="M147.2877 79.7262
L147.3258 79.8405
" />
<path d="M147.3258 79.8405
L147.3639 79.8786
" />
<path d="M147.3639 79.8786
L147.6306 79.8786
" />
<path d="M147.6306 79.8786
L147.6306 79.7262
" />
<path d="M147.2877 80.2214
L148.0877 80.2214
" />
<path d="M148.0877 80.2214
L147.2877 80.6786
" />
<path d="M147.2877 80.6786
L148.0877 80.6786
" />
<path d="M147.2877 81.0595
L148.0877 81.0595
" />
<path d="M148.0877 81.0595
L148.0877 81.2500
" />
<path d="M148.0877 81.2500
L148.0496 81.3643
" />
<path d="M148.0496 81.3643
L147.9734 81.4405
" />
<path d="M147.9734 81.4405
L147.8972 81.4786
" />
<path d="M147.8972 81.4786
L147.7448 81.5167
" />
<path d="M147.7448 81.5167
L147.6306 81.5167
" />
<path d="M147.6306 81.5167
L147.4782 81.4786
" />
<path d="M147.4782 81.4786
L147.4020 81.4405
" />
<path d="M147.4020 81.4405
L147.3258 81.3643
" />
<path d="M147.3258 81.3643
L147.2877 81.2500
" />
<path d="M147.2877 81.2500
L147.2877 81.0595
" />
<path d="M147.5925 82.4690
L147.5925 83.0786
" />
<path d="M147.2877 82.7738
L147.8972 82.7738
" />
<path d="M148.0877 83.8405
L148.0877 83.4595
" />
<path d="M148.0877 83.4595
L147.7068 83.4214
" />
<path d="M147.7068 83.4214
L147.7448 83.4595
" />
<path d="M147.7448 83.4595
L147.7829 83.5357
" />
<path d="M147.7829 83.5357
L147.7829 83.7262
" />
<path d="M147.7829 83.7262
L147.7448 83.8024
" />
<path d="M147.7448 83.8024
L147.7068 83.8405
" />
<path d="M147.7068 83.8405
L147.6306 83.8786
" />
<path d="M147.6306 83.8786
L147.4401 83.8786
" />
<path d="M147.4401 83.8786
L147.3639 83.8405
" />
<path d="M147.3639 83.8405
L147.3258 83.8024
" />
<path d="M147.3258 83.8024
L147.2877 83.7262
" />
<path d="M147.2877 83.7262
L147.2877 83.5357
" />
<path d="M147.2877 83.5357
L147.3258 83.4595
" />
<path d="M147.3258 83.4595
L147.3639 83.4214
" />
<path d="M148.0877 84.1071
L147.2877 84.3738
" />
<path d="M147.2877 84.3738
L148.0877 84.6405
" />
<path d="M147.3258 85.4786
L147.2877 85.5929
" />
<path d="M147.2877 85.5929
L147.2877 85.7833
" />
<path d="M147.2877 85.7833
L147.3258 85.8595
" />
<path d="M147.3258 85.8595
L147.3639 85.8976
" />
<path d="M147.3639 85.8976
L147.4401 85.9357
" />
<path d="M147.4401 85.9357
L147.5163 85.9357
" />
<path d="M147.5163 85.9357
L147.5925 85.8976
" />
<path d="M147.5925 85.8976
L147.6306 85.8595
" />
<path d="M147.6306 85.8595
L147.6687 85.7833
" />
<path d="M147.6687 85.7833
L147.7068 85.6310
" />
<path d="M147.7068 85.6310
L147.7448 85.5548
" />
<path d="M147.7448 85.5548
L147.7829 85.5167
" />
<path d="M147.7829 85.5167
L147.8591 85.4786
" />
<path d="M147.8591 85.4786
L147.9353 85.4786
" />
<path d="M147.9353 85.4786
L148.0115 85.5167
" />
<path d="M148.0115 85.5167
L148.0496 85.5548
" />
<path d="M148.0496 85.5548
L148.0877 85.6310
" />
<path d="M148.0877 85.6310
L148.0877 85.8214
" />
<path d="M148.0877 85.8214
L148.0496 85.9357
" />
<path d="M147.2877 86.2786
L148.0877 86.2786
" />
<path d="M148.0496 87.0786
L148.0877 87.0024
" />
<path d="M148.0877 87.0024
L148.0877 86.8881
" />
<path d="M148.0877 86.8881
L148.0496 86.7738
" />
<path d="M148.0496 86.7738
L147.9734 86.6976
" />
<path d="M147.9734 86.6976
L147.8972 86.6595
" />
<path d="M147.8972 86.6595
L147.7448 86.6214
" />
<path d="M147.7448 86.6214
L147.6306 86.6214
" />
<path d="M147.6306 86.6214
L147.4782 86.6595
" />
<path d="M147.4782 86.6595
L147.4020 86.6976
" />
<path d="M147.4020 86.6976
L147.3258 86.7738
" />
<path d="M147.3258 86.7738
L147.2877 86.8881
" />
<path d="M147.2877 86.8881
L147.2877 86.9643
" />
<path d="M147.2877 86.9643
L147.3258 87.0786
" />
<path d="M147.3258 87.0786
L147.3639 87.1167
" />
<path d="M147.3639 87.1167
L147.6306 87.1167
" />
<path d="M147.6306 87.1167
L147.6306 86.9643
" />
</g></g>
<g style="fill:#000000; fill-opacity:0.0; 
stroke:#000000; stroke-width:0.1250; stroke-opacity:1; 
stroke-linecap:round; stroke-linejoin:round;">
<text x="115.7500" y="75.7500"
textLength="3.4607" font-size="1.3333" lengthAdjust="spacingAndGlyphs"
text-anchor="middle" opacity="0">PWM</text>
<g class="stroked-text"><desc>PWM</desc>
<path d="M114.3452 75.7061
L114.3452 74.7061
" />
<path d="M114.3452 74.7061
L114.7262 74.7061
" />
<path d="M114.7262 74.7061
L114.8214 74.7537
" />
<path d="M114.8214 74.7537
L114.8690 74.8014
" />
<path d="M114.8690 74.8014
L114.9167 74.8966
" />
<path d="M114.9167 74.8966
L114.9167 75.0395
" />
<path d="M114.9167 75.0395
L114.8690 75.1347
" />
<path d="M114.8690 75.1347
L114.8214 75.1823
" />
<path d="M114.8214 75.1823
L114.7262 75.2299
" />
<path d="M114.7262 75.2299
L114.3452 75.2299
" />
<path d="M115.2500 74.7061
L115.4881 75.7061
" />
<path d="M115.4881 75.7061
L115.6786 74.9918
" />
<path d="M115.6786 74.9918
L115.8690 75.7061
" />
<path d="M115.8690 75.7061
L116.1071 74.7061
" />
<path d="M116.4881 75.7061
L116.4881 74.7061
" />
<path d="M116.4881 74.7061
L116.8214 75.4204
" />
<path d="M116.8214 75.4204
L117.1548 74.7061
" />
<path d="M117.1548 74.7061
L117.1548 75.7061
" />
</g></g>
<g style="fill:#000000; fill-opacity:0.0; 
stroke:#000000; stroke-width:0.1500; stroke-opacity:1; 
stroke-linecap:round; stroke-linejoin:round;">
<text x="133.6000" y="58.2000"
textLength="1.9643" font-size="1.3333" lengthAdjust="spacingAndGlyphs"
text-anchor="middle" opacity="0">J6</text>
<g class="stroked-text"><desc>J6</desc>
<path d="M133.2667 57.1548
L133.2667 57.8691
" />
<path d="M133.2667 57.8691
L133.2190 58.0120
" />
<path d="M133.2190 58.0120
L133.1238 58.1072
" />
<path d="M133.1238 58.1072
L132.9810 58.1548
" />
<path d="M132.9810 58.1548
L132.8857 58.1548
" />
<path d="M134.1714 57.1548
L133.9810 57.1548
" />
<path d="M133.9810 57.1548
L133.8857 57.2024
" />
<path d="M133.8857 57.2024
L133.8381 57.2501
" />
<path d="M133.8381 57.2501
L133.7429 57.3929
" />
<path d="M133.7429 57.3929
L133.6952 57.5834
" />
<path d="M133.6952 57.5834
L133.6952 57.9643
" />
<path d="M133.6952 57.9643
L133.7429 58.0596
" />
<path d="M133.7429 58.0596
L133.7905 58.1072
" />
<path d="M133.7905 58.1072
L133.8857 58.1548
" />
<path d="M133.8857 58.1548
L134.0762 58.1548
" />
<path d="M134.0762 58.1548
L134.1714 58.1072
" />
<path d="M134.1714 58.1072
L134.2190 58.0596
" />
<path d="M134.2190 58.0596
L134.2667 57.9643
" />
<path d="M134.2667 57.9643
L134.2667 57.7262
" />
<path d="M134.2667 57.7262
L134.2190 57.6310
" />
<path d="M134.2190 57.6310
L134.1714 57.5834
" />
<path d="M134.1714 57.5834
L134.0762 57.5358
" />
<path d="M134.0762 57.5358
L133.8857 57.5358
" />
<path d="M133.8857 57.5358
L133.7905 57.5834
" />
<path d="M133.7905 57.5834
L133.7429 57.6310
" />
<path d="M133.7429 57.6310
L133.6952 57.7262
" />
</g><text x="138.8000" y="90.1500"
textLength="1.9643" font-size="1.3333" lengthAdjust="spacingAndGlyphs"
text-anchor="middle" opacity="0">J5</text>
<g class="stroked-text"><desc>J5</desc>
<path d="M138.4667 89.1048
L138.4667 89.8191
" />
<path d="M138.4667 89.8191
L138.4190 89.9620
" />
<path d="M138.4190 89.9620
L138.3238 90.0572
" />
<path d="M138.3238 90.0572
L138.1810 90.1048
" />
<path d="M138.1810 90.1048
L138.0857 90.1048
" />
<path d="M139.4190 89.1048
L138.9429 89.1048
" />
<path d="M138.9429 89.1048
L138.8952 89.5810
" />
<path d="M138.8952 89.5810
L138.9429 89.5334
" />
<path d="M138.9429 89.5334
L139.0381 89.4858
" />
<path d="M139.0381 89.4858
L139.2762 89.4858
" />
<path d="M139.2762 89.4858
L139.3714 89.5334
" />
<path d="M139.3714 89.5334
L139.4190 89.5810
" />
<path d="M139.4190 89.5810
L139.4667 89.6762
" />
<path d="M139.4667 89.6762
L139.4667 89.9143
" />
<path d="M139.4667 89.9143
L139.4190 90.0096
" />
<path d="M139.4190 90.0096
L139.3714 90.0572
" />
<path d="M139.3714 90.0572
L139.2762 90.1048
" />
<path d="M139.2762 90.1048
L139.0381 90.1048
" />
<path d="M139.0381 90.1048
L138.9429 90.0572
" />
<path d="M138.9429 90.0572
L138.8952 90.0096
" />
</g><text x="118.6000" y="81.8000"
textLength="2.2024" font-size="1.3333" lengthAdjust="spacingAndGlyphs"
text-anchor="middle" opacity="0">R3</text>
<g class="stroked-text"><desc>R3</desc>
<path d="M118.4333 81.7548
L118.1000 81.2786
" />
<path d="M117.8619 81.7548
L117.8619 80.7548
" />
<path d="M117.8619 80.7548
L118.2429 80.7548
" />
<path d="M118.2429 80.7548
L118.3381 80.8024
" />
<path d="M118.3381 80.8024
L118.3857 80.8501
" />
<path d="M118.3857 80.8501
L118.4333 80.9453
" />
<path d="M118.4333 80.9453
L118.4333 81.0882
" />
<path d="M118.4333 81.0882
L118.3857 81.1834
" />
<path d="M118.3857 81.1834
L118.3381 81.2310
" />
<path d="M118.3381 81.2310
L118.2429 81.2786
" />
<path d="M118.2429 81.2786
L117.8619 81.2786
" />
<path d="M118.7667 80.7548
L119.3857 80.7548
" />
<path d="M119.3857 80.7548
L119.0524 81.1358
" />
<path d="M119.0524 81.1358
L119.1952 81.1358
" />
<path d="M119.1952 81.1358
L119.2905 81.1834
" />
<path d="M119.2905 81.1834
L119.3381 81.2310
" />
<path d="M119.3381 81.2310
L119.3857 81.3262
" />
<path d="M119.3857 81.3262
L119.3857 81.5643
" />
<path d="M119.3857 81.5643
L119.3381 81.6596
" />
<path d="M119.3381 81.6596
L119.2905 81.7072
" />
<path d="M119.2905 81.7072
L119.1952 81.7548
" />
<path d="M119.1952 81.7548
L118.9095 81.7548
" />
<path d="M118.9095 81.7548
L118.8143 81.7072
" />
<path d="M118.8143 81.7072
L118.7667 81.6596
" />
</g><text x="118.6000" y="83.5000"
textLength="2.2024" font-size="1.3333" lengthAdjust="spacingAndGlyphs"
text-anchor="middle" opacity="0">R4</text>
<g class="stroked-text"><desc>R4</desc>
<path d="M118.4333 83.4548
L118.1000 82.9786
" />
<path d="M117.8619 83.4548
L117.8619 82.4548
" />
<path d="M117.8619 82.4548
L118.2429 82.4548
" />
<path d="M118.2429 82.4548
L118.3381 82.5024
" />
<path d="M118.3381 82.5024
L118.3857 82.5501
" />
<path d="M118.3857 82.5501
L118.4333 82.6453
" />
<path d="M118.4333 82.6453
L118.4333 82.7882
" />
<path d="M118.4333 82.7882
L118.3857 82.8834
" />
<path d="M118.3857 82.8834
L118.3381 82.9310
" />
<path d="M118.3381 82.9310
L118.2429 82.9786
" />
<path d="M118.2429 82.9786
L117.8619 82.9786
" />
<path d="M119.2905 82.7882
L119.2905 83.4548
" />
<path d="M119.0524 82.4072
L118.8143 83.1215
" />
<path d="M118.8143 83.1215
L119.4333 83.1215
" />
</g><text x="111.6000" y="54.4500"
textLength="1.9643" font-size="1.3333" lengthAdjust="spacingAndGlyphs"
text-anchor="middle" opacity="0">J7</text>
<g class="stroked-text"><desc>J7</desc>
<path d="M111.2667 53.4048
L111.2667 54.1191
" />
<path d="M111.2667 54.1191
L111.2190 54.2620
" />
<path d="M111.2190 54.2620
L111.1238 54.3572
" />
<path d="M111.1238 54.3572
L110.9810 54.4048
" />
<path d="M110.9810 54.4048
L110.8857 54.4048
" />
<path d="M111.6476 53.4048
L112.3143 53.4048
" />
<path d="M112.3143 53.4048
L111.8857 54.4048
" />
</g><g transform="rotate(-90.000000 139.0500 67.9500)">
<text x="139.0500" y="68.4500"
textLength="2.2024" font-size="1.3333" lengthAdjust="spacingAndGlyphs"
text-anchor="middle" opacity="0">C3</text>
</g>
<g class="stroked-text"><desc>C3</desc>
<path d="M139.4096 68.1167
L139.4572 68.1643
" />
<path d="M139.4572 68.1643
L139.5048 68.3071
" />
<path d="M139.5048 68.3071
L139.5048 68.4024
" />
<path d="M139.5048 68.4024
L139.4572 68.5452
" />
<path d="M139.4572 68.5452
L139.3620 68.6405
" />
<path d="M139.3620 68.6405
L139.2667 68.6881
" />
<path d="M139.2667 68.6881
L139.0762 68.7357
" />
<path d="M139.0762 68.7357
L138.9334 68.7357
" />
<path d="M138.9334 68.7357
L138.7429 68.6881
" />
<path d="M138.7429 68.6881
L138.6477 68.6405
" />
<path d="M138.6477 68.6405
L138.5524 68.5452
" />
<path d="M138.5524 68.5452
L138.5048 68.4024
" />
<path d="M138.5048 68.4024
L138.5048 68.3071
" />
<path d="M138.5048 68.3071
L138.5524 68.1643
" />
<path d="M138.5524 68.1643
L138.6001 68.1167
" />
<path d="M138.5048 67.7833
L138.5048 67.1643
" />
<path d="M138.5048 67.1643
L138.8858 67.4976
" />
<path d="M138.8858 67.4976
L138.8858 67.3548
" />
<path d="M138.8858 67.3548
L138.9334 67.2595
" />
<path d="M138.9334 67.2595
L138.9810 67.2119
" />
<path d="M138.9810 67.2119
L139.0762 67.1643
" />
<path d="M139.0762 67.1643
L139.3143 67.1643
" />
<path d="M139.3143 67.1643
L139.4096 67.2119
" />
<path d="M139.4096 67.2119
L139.4572 67.2595
" />
<path d="M139.4572 67.2595
L139.5048 67.3548
" />
<path d="M139.5048 67.3548
L139.5048 67.6405
" />
<path d="M139.5048 67.6405
L139.4572 67.7357
" />
<path d="M139.4572 67.7357
L139.4096 67.7833
" />
</g><g transform="rotate(-90.000000 136.7000 68.0000)">
<text x="136.7000" y="68.5000"
textLength="2.2024" font-size="1.3333" lengthAdjust="spacingAndGlyphs"
text-anchor="middle" opacity="0">C4</text>
</g>
<g class="stroked-text"><desc>C4</desc>
<path d="M137.0596 68.1667
L137.1072 68.2143
" />
<path d="M137.1072 68.2143
L137.1548 68.3571
" />
<path d="M137.1548 68.3571
L137.1548 68.4524
" />
<path d="M137.1548 68.4524
L137.1072 68.5952
" />
<path d="M137.1072 68.5952
L137.0120 68.6905
" />
<path d="M137.0120 68.6905
L136.9167 68.7381
" />
<path d="M136.9167 68.7381
L136.7262 68.7857
" />
<path d="M136.7262 68.7857
L136.5834 68.7857
" />
<path d="M136.5834 68.7857
L136.3929 68.7381
" />
<path d="M136.3929 68.7381
L136.2977 68.6905
" />
<path d="M136.2977 68.6905
L136.2024 68.5952
" />
<path d="M136.2024 68.5952
L136.1548 68.4524
" />
<path d="M136.1548 68.4524
L136.1548 68.3571
" />
<path d="M136.1548 68.3571
L136.2024 68.2143
" />
<path d="M136.2024 68.2143
L136.2501 68.1667
" />
<path d="M136.4882 67.3095
L137.1548 67.3095
" />
<path d="M136.1072 67.5476
L136.8215 67.7857
" />
<path d="M136.8215 67.7857
L136.8215 67.1667
" />
</g><g transform="rotate(-90.000000 136.7500 77.4500)">
<text x="136.7500" y="77.9500"
textLength="2.2024" font-size="1.3333" lengthAdjust="spacingAndGlyphs"
text-anchor="middle" opacity="0">C1</text>
</g>
<g class="stroked-text"><desc>C1</desc>
<path d="M137.1096 77.6167
L137.1572 77.6643
" />
<path d="M137.1572 77.6643
L137.2048 77.8071
" />
<path d="M137.2048 77.8071
L137.2048 77.9024
" />
<path d="M137.2048 77.9024
L137.1572 78.0452
" />
<path d="M137.1572 78.0452
L137.0620 78.1405
" />
<path d="M137.0620 78.1405
L136.9667 78.1881
" />
<path d="M136.9667 78.1881
L136.7762 78.2357
" />
<path d="M136.7762 78.2357
L136.6334 78.2357
" />
<path d="M136.6334 78.2357
L136.4429 78.1881
" />
<path d="M136.4429 78.1881
L136.3477 78.1405
" />
<path d="M136.3477 78.1405
L136.2524 78.0452
" />
<path d="M136.2524 78.0452
L136.2048 77.9024
" />
<path d="M136.2048 77.9024
L136.2048 77.8071
" />
<path d="M136.2048 77.8071
L136.2524 77.6643
" />
<path d="M136.2524 77.6643
L136.3001 77.6167
" />
<path d="M137.2048 76.6643
L137.2048 77.2357
" />
<path d="M137.2048 76.9500
L136.2048 76.9500
" />
<path d="M136.2048 76.9500
L136.3477 77.0452
" />
<path d="M136.3477 77.0452
L136.4429 77.1405
" />
<path d="M136.4429 77.1405
L136.4905 77.2357
" />
</g><text x="141.5000" y="57.3000"
textLength="3.2976" font-size="1.3333" lengthAdjust="spacingAndGlyphs"
text-anchor="middle" opacity="0">SW1</text>
<g class="stroked-text"><desc>SW1</desc>
<path d="M140.1667 57.2072
L140.3095 57.2548
" />
<path d="M140.3095 57.2548
L140.5476 57.2548
" />
<path d="M140.5476 57.2548
L140.6429 57.2072
" />
<path d="M140.6429 57.2072
L140.6905 57.1596
" />
<path d="M140.6905 57.1596
L140.7381 57.0643
" />
<path d="M140.7381 57.0643
L140.7381 56.9691
" />
<path d="M140.7381 56.9691
L140.6905 56.8739
" />
<path d="M140.6905 56.8739
L140.6429 56.8262
" />
<path d="M140.6429 56.8262
L140.5476 56.7786
" />
<path d="M140.5476 56.7786
L140.3571 56.7310
" />
<path d="M140.3571 56.7310
L140.2619 56.6834
" />
<path d="M140.2619 56.6834
L140.2143 56.6358
" />
<path d="M140.2143 56.6358
L140.1667 56.5405
" />
<path d="M140.1667 56.5405
L140.1667 56.4453
" />
<path d="M140.1667 56.4453
L140.2143 56.3501
" />
<path d="M140.2143 56.3501
L140.2619 56.3024
" />
<path d="M140.2619 56.3024
L140.3571 56.2548
" />
<path d="M140.3571 56.2548
L140.5952 56.2548
" />
<path d="M140.5952 56.2548
L140.7381 56.3024
" />
<path d="M141.0714 56.2548
L141.3095 57.2548
" />
<path d="M141.3095 57.2548
L141.5000 56.5405
" />
<path d="M141.5000 56.5405
L141.6905 57.2548
" />
<path d="M141.6905 57.2548
L141.9286 56.2548
" />
<path d="M142.8333 57.2548
L142.2619 57.2548
" />
<path d="M142.5476 57.2548
L142.5476 56.2548
" />
<path d="M142.5476 56.2548
L142.4524 56.3977
" />
<path d="M142.4524 56.3977
L142.3571 56.4929
" />
<path d="M142.3571 56.4929
L142.2619 56.5405
" />
</g><text x="132.6000" y="92.9000"
textLength="2.2500" font-size="1.3333" lengthAdjust="spacingAndGlyphs"
text-anchor="middle" opacity="0">Q1</text>
<g class="stroked-text"><desc>Q1</desc>
<path d="M132.5048 92.9501
L132.4095 92.9024
" />
<path d="M132.4095 92.9024
L132.3143 92.8072
" />
<path d="M132.3143 92.8072
L132.1714 92.6643
" />
<path d="M132.1714 92.6643
L132.0762 92.6167
" />
<path d="M132.0762 92.6167
L131.9810 92.6167
" />
<path d="M132.0286 92.8548
L131.9333 92.8072
" />
<path d="M131.9333 92.8072
L131.8381 92.7120
" />
<path d="M131.8381 92.7120
L131.7905 92.5215
" />
<path d="M131.7905 92.5215
L131.7905 92.1882
" />
<path d="M131.7905 92.1882
L131.8381 91.9977
" />
<path d="M131.8381 91.9977
L131.9333 91.9024
" />
<path d="M131.9333 91.9024
L132.0286 91.8548
" />
<path d="M132.0286 91.8548
L132.2190 91.8548
" />
<path d="M132.2190 91.8548
L132.3143 91.9024
" />
<path d="M132.3143 91.9024
L132.4095 91.9977
" />
<path d="M132.4095 91.9977
L132.4571 92.1882
" />
<path d="M132.4571 92.1882
L132.4571 92.5215
" />
<path d="M132.4571 92.5215
L132.4095 92.7120
" />
<path d="M132.4095 92.7120
L132.3143 92.8072
" />
<path d="M132.3143 92.8072
L132.2190 92.8548
" />
<path d="M132.2190 92.8548
L132.0286 92.8548
" />
<path d="M133.4095 92.8548
L132.8381 92.8548
" />
<path d="M133.1238 92.8548
L133.1238 91.8548
" />
<path d="M133.1238 91.8548
L133.0286 91.9977
" />
<path d="M133.0286 91.9977
L132.9333 92.0929
" />
<path d="M132.9333 92.0929
L132.8381 92.1405
" />
</g><g transform="rotate(-90.000000 137.1000 95.0000)">
<text x="137.1000" y="95.5000"
textLength="2.2024" font-size="1.3333" lengthAdjust="spacingAndGlyphs"
text-anchor="middle" opacity="0">R5</text>
</g>
<g class="stroked-text"><desc>R5</desc>
<path d="M137.5548 95.1667
L137.0786 95.5000
" />
<path d="M137.5548 95.7381
L136.5548 95.7381
" />
<path d="M136.5548 95.7381
L136.5548 95.3571
" />
<path d="M136.5548 95.3571
L136.6024 95.2619
" />
<path d="M136.6024 95.2619
L136.6501 95.2143
" />
<path d="M136.6501 95.2143
L136.7453 95.1667
" />
<path d="M136.7453 95.1667
L136.8882 95.1667
" />
<path d="M136.8882 95.1667
L136.9834 95.2143
" />
<path d="M136.9834 95.2143
L137.0310 95.2619
" />
<path d="M137.0310 95.2619
L137.0786 95.3571
" />
<path d="M137.0786 95.3571
L137.0786 95.7381
" />
<path d="M136.5548 94.2619
L136.5548 94.7381
" />
<path d="M136.5548 94.7381
L137.0310 94.7857
" />
<path d="M137.0310 94.7857
L136.9834 94.7381
" />
<path d="M136.9834 94.7381
L136.9358 94.6429
" />
<path d="M136.9358 94.6429
L136.9358 94.4048
" />
<path d="M136.9358 94.4048
L136.9834 94.3095
" />
<path d="M136.9834 94.3095
L137.0310 94.2619
" />
<path d="M137.0310 94.2619
L137.1262 94.2143
" />
<path d="M137.1262 94.2143
L137.3643 94.2143
" />
<path d="M137.3643 94.2143
L137.4596 94.2619
" />
<path d="M137.4596 94.2619
L137.5072 94.3095
" />
<path d="M137.5072 94.3095
L137.5548 94.4048
" />
<path d="M137.5548 94.4048
L137.5548 94.6429
" />
<path d="M137.5548 94.6429
L137.5072 94.7381
" />
<path d="M137.5072 94.7381
L137.4596 94.7857
" />
</g><text x="118.7000" y="78.6000"
textLength="2.2024" font-size="1.3333" lengthAdjust="spacingAndGlyphs"
text-anchor="middle" opacity="0">R9</text>
<g class="stroked-text"><desc>R9</desc>
<path d="M118.5333 78.5548
L118.2000 78.0786
" />
<path d="M117.9619 78.5548
L117.9619 77.5548
" />
<path d="M117.9619 77.5548
L118.3429 77.5548
" />
<path d="M118.3429 77.5548
L118.4381 77.6024
" />
<path d="M118.4381 77.6024
L118.4857 77.6501
" />
<path d="M118.4857 77.6501
L118.5333 77.7453
" />
<path d="M118.5333 77.7453
L118.5333 77.8882
" />
<path d="M118.5333 77.8882
L118.4857 77.9834
" />
<path d="M118.4857 77.9834
L118.4381 78.0310
" />
<path d="M118.4381 78.0310
L118.3429 78.0786
" />
<path d="M118.3429 78.0786
L117.9619 78.0786
" />
<path d="M119.0095 78.5548
L119.2000 78.5548
" />
<path d="M119.2000 78.5548
L119.2952 78.5072
" />
<path d="M119.2952 78.5072
L119.3429 78.4596
" />
<path d="M119.3429 78.4596
L119.4381 78.3167
" />
<path d="M119.4381 78.3167
L119.4857 78.1262
" />
<path d="M119.4857 78.1262
L119.4857 77.7453
" />
<path d="M119.4857 77.7453
L119.4381 77.6501
" />
<path d="M119.4381 77.6501
L119.3905 77.6024
" />
<path d="M119.3905 77.6024
L119.2952 77.5548
" />
<path d="M119.2952 77.5548
L119.1048 77.5548
" />
<path d="M119.1048 77.5548
L119.0095 77.6024
" />
<path d="M119.0095 77.6024
L118.9619 77.6501
" />
<path d="M118.9619 77.6501
L118.9143 77.7453
" />
<path d="M118.9143 77.7453
L118.9143 77.9834
" />
<path d="M118.9143 77.9834
L118.9619 78.0786
" />
<path d="M118.9619 78.0786
L119.0095 78.1262
" />
<path d="M119.0095 78.1262
L119.1048 78.1739
" />
<path d="M119.1048 78.1739
L119.2952 78.1739
" />
<path d="M119.2952 78.1739
L119.3905 78.1262
" />
<path d="M119.3905 78.1262
L119.4381 78.0786
" />
<path d="M119.4381 78.0786
L119.4857 77.9834
" />
</g><text x="119.0000" y="85.4000"
textLength="3.1548" font-size="1.3333" lengthAdjust="spacingAndGlyphs"
text-anchor="middle" opacity="0">R10</text>
<g class="stroked-text"><desc>R10</desc>
<path d="M118.3571 85.3548
L118.0238 84.8786
" />
<path d="M117.7857 85.3548
L117.7857 84.3548
" />
<path d="M117.7857 84.3548
L118.1667 84.3548
" />
<path d="M118.1667 84.3548
L118.2619 84.4024
" />
<path d="M118.2619 84.4024
L118.3095 84.4501
" />
<path d="M118.3095 84.4501
L118.3571 84.5453
" />
<path d="M118.3571 84.5453
L118.3571 84.6882
" />
<path d="M118.3571 84.6882
L118.3095 84.7834
" />
<path d="M118.3095 84.7834
L118.2619 84.8310
" />
<path d="M118.2619 84.8310
L118.1667 84.8786
" />
<path d="M118.1667 84.8786
L117.7857 84.8786
" />
<path d="M119.3095 85.3548
L118.7381 85.3548
" />
<path d="M119.0238 85.3548
L119.0238 84.3548
" />
<path d="M119.0238 84.3548
L118.9286 84.4977
" />
<path d="M118.9286 84.4977
L118.8333 84.5929
" />
<path d="M118.8333 84.5929
L118.7381 84.6405
" />
<path d="M119.9286 84.3548
L120.0238 84.3548
" />
<path d="M120.0238 84.3548
L120.1190 84.4024
" />
<path d="M120.1190 84.4024
L120.1667 84.4501
" />
<path d="M120.1667 84.4501
L120.2143 84.5453
" />
<path d="M120.2143 84.5453
L120.2619 84.7358
" />
<path d="M120.2619 84.7358
L120.2619 84.9739
" />
<path d="M120.2619 84.9739
L120.2143 85.1643
" />
<path d="M120.2143 85.1643
L120.1667 85.2596
" />
<path d="M120.1667 85.2596
L120.1190 85.3072
" />
<path d="M120.1190 85.3072
L120.0238 85.3548
" />
<path d="M120.0238 85.3548
L119.9286 85.3548
" />
<path d="M119.9286 85.3548
L119.8333 85.3072
" />
<path d="M119.8333 85.3072
L119.7857 85.2596
" />
<path d="M119.7857 85.2596
L119.7381 85.1643
" />
<path d="M119.7381 85.1643
L119.6905 84.9739
" />
<path d="M119.6905 84.9739
L119.6905 84.7358
" />
<path d="M119.6905 84.7358
L119.7381 84.5453
" />
<path d="M119.7381 84.5453
L119.7857 84.4501
" />
<path d="M119.7857 84.4501
L119.8333 84.4024
" />
<path d="M119.8333 84.4024
L119.9286 84.3548
" />
</g><text x="119.1000" y="80.1000"
textLength="3.1548" font-size="1.3333" lengthAdjust="spacingAndGlyphs"
text-anchor="middle" opacity="0">R11</text>
<g class="stroked-text"><desc>R11</desc>
<path d="M118.4571 80.0548
L118.1238 79.5786
" />
<path d="M117.8857 80.0548
L117.8857 79.0548
" />
<path d="M117.8857 79.0548
L118.2667 79.0548
" />
<path d="M118.2667 79.0548
L118.3619 79.1024
" />
<path d="M118.3619 79.1024
L118.4095 79.1501
" />
<path d="M118.4095 79.1501
L118.4571 79.2453
" />
<path d="M118.4571 79.2453
L118.4571 79.3882
" />
<path d="M118.4571 79.3882
L118.4095 79.4834
" />
<path d="M118.4095 79.4834
L118.3619 79.5310
" />
<path d="M118.3619 79.5310
L118.2667 79.5786
" />
<path d="M118.2667 79.5786
L117.8857 79.5786
" />
<path d="M119.4095 80.0548
L118.8381 80.0548
" />
<path d="M119.1238 80.0548
L119.1238 79.0548
" />
<path d="M119.1238 79.0548
L119.0286 79.1977
" />
<path d="M119.0286 79.1977
L118.9333 79.2929
" />
<path d="M118.9333 79.2929
L118.8381 79.3405
" />
<path d="M120.3619 80.0548
L119.7905 80.0548
" />
<path d="M120.0762 80.0548
L120.0762 79.0548
" />
<path d="M120.0762 79.0548
L119.9810 79.1977
" />
<path d="M119.9810 79.1977
L119.8857 79.2929
" />
<path d="M119.8857 79.2929
L119.7905 79.3405
" />
</g><text x="119.0000" y="87.0000"
textLength="3.1548" font-size="1.3333" lengthAdjust="spacingAndGlyphs"
text-anchor="middle" opacity="0">R12</text>
<g class="stroked-text"><desc>R12</desc>
<path d="M118.3571 86.9548
L118.0238 86.4786
" />
<path d="M117.7857 86.9548
L117.7857 85.9548
" />
<path d="M117.7857 85.9548
L118.1667 85.9548
" />
<path d="M118.1667 85.9548
L118.2619 86.0024
" />
<path d="M118.2619 86.0024
L118.3095 86.0501
" />
<path d="M118.3095 86.0501
L118.3571 86.1453
" />
<path d="M118.3571 86.1453
L118.3571 86.2882
" />
<path d="M118.3571 86.2882
L118.3095 86.3834
" />
<path d="M118.3095 86.3834
L118.2619 86.4310
" />
<path d="M118.2619 86.4310
L118.1667 86.4786
" />
<path d="M118.1667 86.4786
L117.7857 86.4786
" />
<path d="M119.3095 86.9548
L118.7381 86.9548
" />
<path d="M119.0238 86.9548
L119.0238 85.9548
" />
<path d="M119.0238 85.9548
L118.9286 86.0977
" />
<path d="M118.9286 86.0977
L118.8333 86.1929
" />
<path d="M118.8333 86.1929
L118.7381 86.2405
" />
<path d="M119.6905 86.0501
L119.7381 86.0024
" />
<path d="M119.7381 86.0024
L119.8333 85.9548
" />
<path d="M119.8333 85.9548
L120.0714 85.9548
" />
<path d="M120.0714 85.9548
L120.1667 86.0024
" />
<path d="M120.1667 86.0024
L120.2143 86.0501
" />
<path d="M120.2143 86.0501
L120.2619 86.1453
" />
<path d="M120.2619 86.1453
L120.2619 86.2405
" />
<path d="M120.2619 86.2405
L120.2143 86.3834
" />
<path d="M120.2143 86.3834
L119.6429 86.9548
" />
<path d="M119.6429 86.9548
L120.2619 86.9548
" />
</g><text x="133.1000" y="72.8000"
textLength="3.1548" font-size="1.3333" lengthAdjust="spacingAndGlyphs"
text-anchor="middle" opacity="0">R13</text>
<g class="stroked-text"><desc>R13</desc>
<path d="M132.4571 72.7548
L132.1238 72.2786
" />
<path d="M131.8857 72.7548
L131.8857 71.7548
" />
<path d="M131.8857 71.7548
L132.2667 71.7548
" />
<path d="M132.2667 71.7548
L132.3619 71.8024
" />
<path d="M132.3619 71.8024
L132.4095 71.8501
" />
<path d="M132.4095 71.8501
L132.4571 71.9453
" />
<path d="M132.4571 71.9453
L132.4571 72.0882
" />
<path d="M132.4571 72.0882
L132.4095 72.1834
" />
<path d="M132.4095 72.1834
L132.3619 72.2310
" />
<path d="M132.3619 72.2310
L132.2667 72.2786
" />
<path d="M132.2667 72.2786
L131.8857 72.2786
" />
<path d="M133.4095 72.7548
L132.8381 72.7548
" />
<path d="M133.1238 72.7548
L133.1238 71.7548
" />
<path d="M133.1238 71.7548
L133.0286 71.8977
" />
<path d="M133.0286 71.8977
L132.9333 71.9929
" />
<path d="M132.9333 71.9929
L132.8381 72.0405
" />
<path d="M133.7429 71.7548
L134.3619 71.7548
" />
<path d="M134.3619 71.7548
L134.0286 72.1358
" />
<path d="M134.0286 72.1358
L134.1714 72.1358
" />
<path d="M134.1714 72.1358
L134.2667 72.1834
" />
<path d="M134.2667 72.1834
L134.3143 72.2310
" />
<path d="M134.3143 72.2310
L134.3619 72.3262
" />
<path d="M134.3619 72.3262
L134.3619 72.5643
" />
<path d="M134.3619 72.5643
L134.3143 72.6596
" />
<path d="M134.3143 72.6596
L134.2667 72.7072
" />
<path d="M134.2667 72.7072
L134.1714 72.7548
" />
<path d="M134.1714 72.7548
L133.8857 72.7548
" />
<path d="M133.8857 72.7548
L133.7905 72.7072
" />
<path d="M133.7905 72.7072
L133.7429 72.6596
" />
</g><text x="133.1000" y="71.3000"
textLength="3.1548" font-size="1.3333" lengthAdjust="spacingAndGlyphs"
text-anchor="middle" opacity="0">R14</text>
<g class="stroked-text"><desc>R14</desc>
<path d="M132.4571 71.2548
L132.1238 70.7786
" />
<path d="M131.8857 71.2548
L131.8857 70.2548
" />
<path d="M131.8857 70.2548
L132.2667 70.2548
" />
<path d="M132.2667 70.2548
L132.3619 70.3024
" />
<path d="M132.3619 70.3024
L132.4095 70.3501
" />
<path d="M132.4095 70.3501
L132.4571 70.4453
" />
<path d="M132.4571 70.4453
L132.4571 70.5882
" />
<path d="M132.4571 70.5882
L132.4095 70.6834
" />
<path d="M132.4095 70.6834
L132.3619 70.7310
" />
<path d="M132.3619 70.7310
L132.2667 70.7786
" />
<path d="M132.2667 70.7786
L131.8857 70.7786
" />
<path d="M133.4095 71.2548
L132.8381 71.2548
" />
<path d="M133.1238 71.2548
L133.1238 70.2548
" />
<path d="M133.1238 70.2548
L133.0286 70.3977
" />
<path d="M133.0286 70.3977
L132.9333 70.4929
" />
<path d="M132.9333 70.4929
L132.8381 70.5405
" />
<path d="M134.2667 70.5882
L134.2667 71.2548
" />
<path d="M134.0286 70.2072
L133.7905 70.9215
" />
<path d="M133.7905 70.9215
L134.4095 70.9215
" />
</g><g transform="rotate(-90.000000 139.2500 77.4500)">
<text x="139.2500" y="77.9500"
textLength="2.2024" font-size="1.3333" lengthAdjust="spacingAndGlyphs"
text-anchor="middle" opacity="0">C2</text>
</g>
<g class="stroked-text"><desc>C2</desc>
<path d="M139.6096 77.6167
L139.6572 77.6643
" />
<path d="M139.6572 77.6643
L139.7048 77.8071
" />
<path d="M139.7048 77.8071
L139.7048 77.9024
" />
<path d="M139.7048 77.9024
L139.6572 78.0452
" />
<path d="M139.6572 78.0452
L139.5620 78.1405
" />
<path d="M139.5620 78.1405
L139.4667 78.1881
" />
<path d="M139.4667 78.1881
L139.2762 78.2357
" />
<path d="M139.2762 78.2357
L139.1334 78.2357
" />
<path d="M139.1334 78.2357
L138.9429 78.1881
" />
<path d="M138.9429 78.1881
L138.8477 78.1405
" />
<path d="M138.8477 78.1405
L138.7524 78.0452
" />
<path d="M138.7524 78.0452
L138.7048 77.9024
" />
<path d="M138.7048 77.9024
L138.7048 77.8071
" />
<path d="M138.7048 77.8071
L138.7524 77.6643
" />
<path d="M138.7524 77.6643
L138.8001 77.6167
" />
<path d="M138.8001 77.2357
L138.7524 77.1881
" />
<path d="M138.7524 77.1881
L138.7048 77.0929
" />
<path d="M138.7048 77.0929
L138.7048 76.8548
" />
<path d="M138.7048 76.8548
L138.7524 76.7595
" />
<path d="M138.7524 76.7595
L138.8001 76.7119
" />
<path d="M138.8001 76.7119
L138.8953 76.6643
" />
<path d="M138.8953 76.6643
L138.9905 76.6643
" />
<path d="M138.9905 76.6643
L139.1334 76.7119
" />
<path d="M139.1334 76.7119
L139.7048 77.2833
" />
<path d="M139.7048 77.2833
L139.7048 76.6643
" />
</g><text x="141.1500" y="68.0000"
textLength="1.9643" font-size="1.3333" lengthAdjust="spacingAndGlyphs"
text-anchor="middle" opacity="0">J3</text>
<g class="stroked-text"><desc>J3</desc>
<path d="M140.8167 66.9548
L140.8167 67.6691
" />
<path d="M140.8167 67.6691
L140.7690 67.8120
" />
<path d="M140.7690 67.8120
L140.6738 67.9072
" />
<path d="M140.6738 67.9072
L140.5310 67.9548
" />
<path d="M140.5310 67.9548
L140.4357 67.9548
" />
<path d="M141.1976 66.9548
L141.8167 66.9548
" />
<path d="M141.8167 66.9548
L141.4833 67.3358
" />
<path d="M141.4833 67.3358
L141.6262 67.3358
" />
<path d="M141.6262 67.3358
L141.7214 67.3834
" />
<path d="M141.7214 67.3834
L141.7690 67.4310
" />
<path d="M141.7690 67.4310
L141.8167 67.5262
" />
<path d="M141.8167 67.5262
L141.8167 67.7643
" />
<path d="M141.8167 67.7643
L141.7690 67.8596
" />
<path d="M141.7690 67.8596
L141.7214 67.9072
" />
<path d="M141.7214 67.9072
L141.6262 67.9548
" />
<path d="M141.6262 67.9548
L141.3405 67.9548
" />
<path d="M141.3405 67.9548
L141.2452 67.9072
" />
<path d="M141.2452 67.9072
L141.1976 67.8596
" />
</g><text x="113.6500" y="66.2500"
textLength="2.2024" font-size="1.3333" lengthAdjust="spacingAndGlyphs"
text-anchor="middle" opacity="0">R7</text>
<g class="stroked-text"><desc>R7</desc>
<path d="M113.4833 66.2048
L113.1500 65.7286
" />
<path d="M112.9119 66.2048
L112.9119 65.2048
" />
<path d="M112.9119 65.2048
L113.2929 65.2048
" />
<path d="M113.2929 65.2048
L113.3881 65.2524
" />
<path d="M113.3881 65.2524
L113.4357 65.3001
" />
<path d="M113.4357 65.3001
L113.4833 65.3953
" />
<path d="M113.4833 65.3953
L113.4833 65.5382
" />
<path d="M113.4833 65.5382
L113.4357 65.6334
" />
<path d="M113.4357 65.6334
L113.3881 65.6810
" />
<path d="M113.3881 65.6810
L113.2929 65.7286
" />
<path d="M113.2929 65.7286
L112.9119 65.7286
" />
<path d="M113.8167 65.2048
L114.4833 65.2048
" />
<path d="M114.4833 65.2048
L114.0548 66.2048
" />
</g><text x="141.2500" y="87.3500"
textLength="1.9643" font-size="1.3333" lengthAdjust="spacingAndGlyphs"
text-anchor="middle" opacity="0">J8</text>
<g class="stroked-text"><desc>J8</desc>
<path d="M140.9167 86.3048
L140.9167 87.0191
" />
<path d="M140.9167 87.0191
L140.8690 87.1620
" />
<path d="M140.8690 87.1620
L140.7738 87.2572
" />
<path d="M140.7738 87.2572
L140.6310 87.3048
" />
<path d="M140.6310 87.3048
L140.5357 87.3048
" />
<path d="M141.5357 86.7334
L141.4405 86.6858
" />
<path d="M141.4405 86.6858
L141.3929 86.6382
" />
<path d="M141.3929 86.6382
L141.3452 86.5429
" />
<path d="M141.3452 86.5429
L141.3452 86.4953
" />
<path d="M141.3452 86.4953
L141.3929 86.4001
" />
<path d="M141.3929 86.4001
L141.4405 86.3524
" />
<path d="M141.4405 86.3524
L141.5357 86.3048
" />
<path d="M141.5357 86.3048
L141.7262 86.3048
" />
<path d="M141.7262 86.3048
L141.8214 86.3524
" />
<path d="M141.8214 86.3524
L141.8690 86.4001
" />
<path d="M141.8690 86.4001
L141.9167 86.4953
" />
<path d="M141.9167 86.4953
L141.9167 86.5429
" />
<path d="M141.9167 86.5429
L141.8690 86.6382
" />
<path d="M141.8690 86.6382
L141.8214 86.6858
" />
<path d="M141.8214 86.6858
L141.7262 86.7334
" />
<path d="M141.7262 86.7334
L141.5357 86.7334
" />
<path d="M141.5357 86.7334
L141.4405 86.7810
" />
<path d="M141.4405 86.7810
L141.3929 86.8286
" />
<path d="M141.3929 86.8286
L141.3452 86.9239
" />
<path d="M141.3452 86.9239
L141.3452 87.1143
" />
<path d="M141.3452 87.1143
L141.3929 87.2096
" />
<path d="M141.3929 87.2096
L141.4405 87.2572
" />
<path d="M141.4405 87.2572
L141.5357 87.3048
" />
<path d="M141.5357 87.3048
L141.7262 87.3048
" />
<path d="M141.7262 87.3048
L141.8214 87.2572
" />
<path d="M141.8214 87.2572
L141.8690 87.2096
" />
<path d="M141.8690 87.2096
L141.9167 87.1143
" />
<path d="M141.9167 87.1143
L141.9167 86.9239
" />
<path d="M141.9167 86.9239
L141.8690 86.8286
" />
<path d="M141.8690 86.8286
L141.8214 86.7810
" />
<path d="M141.8214 86.7810
L141.7262 86.7334
" />
</g><text x="132.6900" y="66.1000"
textLength="2.2024" font-size="1.3333" lengthAdjust="spacingAndGlyphs"
text-anchor="middle" opacity="0">R8</text>
<g class="stroked-text"><desc>R8</desc>
<path d="M132.5233 66.0548
L132.1900 65.5786
" />
<path d="M131.9519 66.0548
L131.9519 65.0548
" />
<path d="M131.9519 65.0548
L132.3329 65.0548
" />
<path d="M132.3329 65.0548
L132.4281 65.1024
" />
<path d="M132.4281 65.1024
L132.4757 65.1501
" />
<path d="M132.4757 65.1501
L132.5233 65.2453
" />
<path d="M132.5233 65.2453
L132.5233 65.3882
" />
<path d="M132.5233 65.3882
L132.4757 65.4834
" />
<path d="M132.4757 65.4834
L132.4281 65.5310
" />
<path d="M132.4281 65.5310
L132.3329 65.5786
" />
<path d="M132.3329 65.5786
L131.9519 65.5786
" />
<path d="M133.0948 65.4834
L132.9995 65.4358
" />
<path d="M132.9995 65.4358
L132.9519 65.3882
" />
<path d="M132.9519 65.3882
L132.9043 65.2929
" />
<path d="M132.9043 65.2929
L132.9043 65.2453
" />
<path d="M132.9043 65.2453
L132.9519 65.1501
" />
<path d="M132.9519 65.1501
L132.9995 65.1024
" />
<path d="M132.9995 65.1024
L133.0948 65.0548
" />
<path d="M133.0948 65.0548
L133.2852 65.0548
" />
<path d="M133.2852 65.0548
L133.3805 65.1024
" />
<path d="M133.3805 65.1024
L133.4281 65.1501
" />
<path d="M133.4281 65.1501
L133.4757 65.2453
" />
<path d="M133.4757 65.2453
L133.4757 65.2929
" />
<path d="M133.4757 65.2929
L133.4281 65.3882
" />
<path d="M133.4281 65.3882
L133.3805 65.4358
" />
<path d="M133.3805 65.4358
L133.2852 65.4834
" />
<path d="M133.2852 65.4834
L133.0948 65.4834
" />
<path d="M133.0948 65.4834
L132.9995 65.5310
" />
<path d="M132.9995 65.5310
L132.9519 65.5786
" />
<path d="M132.9519 65.5786
L132.9043 65.6739
" />
<path d="M132.9043 65.6739
L132.9043 65.8643
" />
<path d="M132.9043 65.8643
L132.9519 65.9596
" />
<path d="M132.9519 65.9596
L132.9995 66.0072
" />
<path d="M132.9995 66.0072
L133.0948 66.0548
" />
<path d="M133.0948 66.0548
L133.2852 66.0548
" />
<path d="M133.2852 66.0548
L133.3805 66.0072
" />
<path d="M133.3805 66.0072
L133.4281 65.9596
" />
<path d="M133.4281 65.9596
L133.4757 65.8643
" />
<path d="M133.4757 65.8643
L133.4757 65.6739
" />
<path d="M133.4757 65.6739
L133.4281 65.5786
" />
<path d="M133.4281 65.5786
L133.3805 65.5310
" />
<path d="M133.3805 65.5310
L133.2852 65.4834
" />
</g><text x="132.6000" y="64.5000"
textLength="2.2024" font-size="1.3333" lengthAdjust="spacingAndGlyphs"
text-anchor="middle" opacity="0">C5</text>
<g class="stroked-text"><desc>C5</desc>
<path d="M132.4333 64.3596
L132.3857 64.4072
" />
<path d="M132.3857 64.4072
L132.2429 64.4548
" />
<path d="M132.2429 64.4548
L132.1476 64.4548
" />
<path d="M132.1476 64.4548
L132.0048 64.4072
" />
<path d="M132.0048 64.4072
L131.9095 64.3120
" />
<path d="M131.9095 64.3120
L131.8619 64.2167
" />
<path d="M131.8619 64.2167
L131.8143 64.0262
" />
<path d="M131.8143 64.0262
L131.8143 63.8834
" />
<path d="M131.8143 63.8834
L131.8619 63.6929
" />
<path d="M131.8619 63.6929
L131.9095 63.5977
" />
<path d="M131.9095 63.5977
L132.0048 63.5024
" />
<path d="M132.0048 63.5024
L132.1476 63.4548
" />
<path d="M132.1476 63.4548
L132.2429 63.4548
" />
<path d="M132.2429 63.4548
L132.3857 63.5024
" />
<path d="M132.3857 63.5024
L132.4333 63.5501
" />
<path d="M133.3381 63.4548
L132.8619 63.4548
" />
<path d="M132.8619 63.4548
L132.8143 63.9310
" />
<path d="M132.8143 63.9310
L132.8619 63.8834
" />
<path d="M132.8619 63.8834
L132.9571 63.8358
" />
<path d="M132.9571 63.8358
L133.1952 63.8358
" />
<path d="M133.1952 63.8358
L133.2905 63.8834
" />
<path d="M133.2905 63.8834
L133.3381 63.9310
" />
<path d="M133.3381 63.9310
L133.3857 64.0262
" />
<path d="M133.3857 64.0262
L133.3857 64.2643
" />
<path d="M133.3857 64.2643
L133.3381 64.3596
" />
<path d="M133.3381 64.3596
L133.2905 64.4072
" />
<path d="M133.2905 64.4072
L133.1952 64.4548
" />
<path d="M133.1952 64.4548
L132.9571 64.4548
" />
<path d="M132.9571 64.4548
L132.8619 64.4072
" />
<path d="M132.8619 64.4072
L132.8143 64.3596
" />
</g><text x="101.6000" y="56.6000"
textLength="1.9643" font-size="1.3333" lengthAdjust="spacingAndGlyphs"
text-anchor="middle" opacity="0">J2</text>
<g class="stroked-text"><desc>J2</desc>
<path d="M101.2667 55.5548
L101.2667 56.2691
" />
<path d="M101.2667 56.2691
L101.2190 56.4120
" />
<path d="M101.2190 56.4120
L101.1238 56.5072
" />
<path d="M101.1238 56.5072
L100.9810 56.5548
" />
<path d="M100.9810 56.5548
L100.8857 56.5548
" />
<path d="M101.6952 55.6501
L101.7429 55.6024
" />
<path d="M101.7429 55.6024
L101.8381 55.5548
" />
<path d="M101.8381 55.5548
L102.0762 55.5548
" />
<path d="M102.0762 55.5548
L102.1714 55.6024
" />
<path d="M102.1714 55.6024
L102.2190 55.6501
" />
<path d="M102.2190 55.6501
L102.2667 55.7453
" />
<path d="M102.2667 55.7453
L102.2667 55.8405
" />
<path d="M102.2667 55.8405
L102.2190 55.9834
" />
<path d="M102.2190 55.9834
L101.6476 56.5548
" />
<path d="M101.6476 56.5548
L102.2667 56.5548
" />
</g><text x="124.5000" y="56.2500"
textLength="2.2024" font-size="1.3333" lengthAdjust="spacingAndGlyphs"
text-anchor="middle" opacity="0">D1</text>
<g class="stroked-text"><desc>D1</desc>
<path d="M123.7619 56.2048
L123.7619 55.2048
" />
<path d="M123.7619 55.2048
L124.0000 55.2048
" />
<path d="M124.0000 55.2048
L124.1429 55.2524
" />
<path d="M124.1429 55.2524
L124.2381 55.3477
" />
<path d="M124.2381 55.3477
L124.2857 55.4429
" />
<path d="M124.2857 55.4429
L124.3333 55.6334
" />
<path d="M124.3333 55.6334
L124.3333 55.7762
" />
<path d="M124.3333 55.7762
L124.2857 55.9667
" />
<path d="M124.2857 55.9667
L124.2381 56.0620
" />
<path d="M124.2381 56.0620
L124.1429 56.1572
" />
<path d="M124.1429 56.1572
L124.0000 56.2048
" />
<path d="M124.0000 56.2048
L123.7619 56.2048
" />
<path d="M125.2857 56.2048
L124.7143 56.2048
" />
<path d="M125.0000 56.2048
L125.0000 55.2048
" />
<path d="M125.0000 55.2048
L124.9048 55.3477
" />
<path d="M124.9048 55.3477
L124.8095 55.4429
" />
<path d="M124.8095 55.4429
L124.7143 55.4905
" />
</g><text x="118.0000" y="69.9500"
textLength="2.2500" font-size="1.3333" lengthAdjust="spacingAndGlyphs"
text-anchor="middle" opacity="0">Q2</text>
<g class="stroked-text"><desc>Q2</desc>
<path d="M117.9048 70.0001
L117.8095 69.9524
" />
<path d="M117.8095 69.9524
L117.7143 69.8572
" />
<path d="M117.7143 69.8572
L117.5714 69.7143
" />
<path d="M117.5714 69.7143
L117.4762 69.6667
" />
<path d="M117.4762 69.6667
L117.3810 69.6667
" />
<path d="M117.4286 69.9048
L117.3333 69.8572
" />
<path d="M117.3333 69.8572
L117.2381 69.7620
" />
<path d="M117.2381 69.7620
L117.1905 69.5715
" />
<path d="M117.1905 69.5715
L117.1905 69.2382
" />
<path d="M117.1905 69.2382
L117.2381 69.0477
" />
<path d="M117.2381 69.0477
L117.3333 68.9524
" />
<path d="M117.3333 68.9524
L117.4286 68.9048
" />
<path d="M117.4286 68.9048
L117.6190 68.9048
" />
<path d="M117.6190 68.9048
L117.7143 68.9524
" />
<path d="M117.7143 68.9524
L117.8095 69.0477
" />
<path d="M117.8095 69.0477
L117.8571 69.2382
" />
<path d="M117.8571 69.2382
L117.8571 69.5715
" />
<path d="M117.8571 69.5715
L117.8095 69.7620
" />
<path d="M117.8095 69.7620
L117.7143 69.8572
" />
<path d="M117.7143 69.8572
L117.6190 69.9048
" />
<path d="M117.6190 69.9048
L117.4286 69.9048
" />
<path d="M118.2381 69.0001
L118.2857 68.9524
" />
<path d="M118.2857 68.9524
L118.3810 68.9048
" />
<path d="M118.3810 68.9048
L118.6190 68.9048
" />
<path d="M118.6190 68.9048
L118.7143 68.9524
" />
<path d="M118.7143 68.9524
L118.7619 69.0001
" />
<path d="M118.7619 69.0001
L118.8095 69.0953
" />
<path d="M118.8095 69.0953
L118.8095 69.1905
" />
<path d="M118.8095 69.1905
L118.7619 69.3334
" />
<path d="M118.7619 69.3334
L118.1905 69.9048
" />
<path d="M118.1905 69.9048
L118.8095 69.9048
" />
</g><text x="133.1000" y="69.4000"
textLength="3.1548" font-size="1.3333" lengthAdjust="spacingAndGlyphs"
text-anchor="middle" opacity="0">R15</text>
<g class="stroked-text"><desc>R15</desc>
<path d="M132.4571 69.3548
L132.1238 68.8786
" />
<path d="M131.8857 69.3548
L131.8857 68.3548
" />
<path d="M131.8857 68.3548
L132.2667 68.3548
" />
<path d="M132.2667 68.3548
L132.3619 68.4024
" />
<path d="M132.3619 68.4024
L132.4095 68.4501
" />
<path d="M132.4095 68.4501
L132.4571 68.5453
" />
<path d="M132.4571 68.5453
L132.4571 68.6882
" />
<path d="M132.4571 68.6882
L132.4095 68.7834
" />
<path d="M132.4095 68.7834
L132.3619 68.8310
" />
<path d="M132.3619 68.8310
L132.2667 68.8786
" />
<path d="M132.2667 68.8786
L131.8857 68.8786
" />
<path d="M133.4095 69.3548
L132.8381 69.3548
" />
<path d="M133.1238 69.3548
L133.1238 68.3548
" />
<path d="M133.1238 68.3548
L133.0286 68.4977
" />
<path d="M133.0286 68.4977
L132.9333 68.5929
" />
<path d="M132.9333 68.5929
L132.8381 68.6405
" />
<path d="M134.3143 68.3548
L133.8381 68.3548
" />
<path d="M133.8381 68.3548
L133.7905 68.8310
" />
<path d="M133.7905 68.8310
L133.8381 68.7834
" />
<path d="M133.8381 68.7834
L133.9333 68.7358
" />
<path d="M133.9333 68.7358
L134.1714 68.7358
" />
<path d="M134.1714 68.7358
L134.2667 68.7834
" />
<path d="M134.2667 68.7834
L134.3143 68.8310
" />
<path d="M134.3143 68.8310
L134.3619 68.9262
" />
<path d="M134.3619 68.9262
L134.3619 69.1643
" />
<path d="M134.3619 69.1643
L134.3143 69.2596
" />
<path d="M134.3143 69.2596
L134.2667 69.3072
" />
<path d="M134.2667 69.3072
L134.1714 69.3548
" />
<path d="M134.1714 69.3548
L133.9333 69.3548
" />
<path d="M133.9333 69.3548
L133.8381 69.3072
" />
<path d="M133.8381 69.3072
L133.7905 69.2596
" />
</g><text x="123.3000" y="63.0500"
textLength="2.2500" font-size="1.3333" lengthAdjust="spacingAndGlyphs"
text-anchor="middle" opacity="0">U1</text>
<g class="stroked-text"><desc>U1</desc>
<path d="M122.5381 62.0048
L122.5381 62.8143
" />
<path d="M122.5381 62.8143
L122.5857 62.9096
" />
<path d="M122.5857 62.9096
L122.6333 62.9572
" />
<path d="M122.6333 62.9572
L122.7286 63.0048
" />
<path d="M122.7286 63.0048
L122.9190 63.0048
" />
<path d="M122.9190 63.0048
L123.0143 62.9572
" />
<path d="M123.0143 62.9572
L123.0619 62.9096
" />
<path d="M123.0619 62.9096
L123.1095 62.8143
" />
<path d="M123.1095 62.8143
L123.1095 62.0048
" />
<path d="M124.1095 63.0048
L123.5381 63.0048
" />
<path d="M123.8238 63.0048
L123.8238 62.0048
" />
<path d="M123.8238 62.0048
L123.7286 62.1477
" />
<path d="M123.7286 62.1477
L123.6333 62.2429
" />
<path d="M123.6333 62.2429
L123.5381 62.2905
" />
</g><text x="118.8000" y="72.1000"
textLength="2.2024" font-size="1.3333" lengthAdjust="spacingAndGlyphs"
text-anchor="middle" opacity="0">R2</text>
<g class="stroked-text"><desc>R2</desc>
<path d="M118.6333 72.0548
L118.3000 71.5786
" />
<path d="M118.0619 72.0548
L118.0619 71.0548
" />
<path d="M118.0619 71.0548
L118.4429 71.0548
" />
<path d="M118.4429 71.0548
L118.5381 71.1024
" />
<path d="M118.5381 71.1024
L118.5857 71.1501
" />
<path d="M118.5857 71.1501
L118.6333 71.2453
" />
<path d="M118.6333 71.2453
L118.6333 71.3882
" />
<path d="M118.6333 71.3882
L118.5857 71.4834
" />
<path d="M118.5857 71.4834
L118.5381 71.5310
" />
<path d="M118.5381 71.5310
L118.4429 71.5786
" />
<path d="M118.4429 71.5786
L118.0619 71.5786
" />
<path d="M119.0143 71.1501
L119.0619 71.1024
" />
<path d="M119.0619 71.1024
L119.1571 71.0548
" />
<path d="M119.1571 71.0548
L119.3952 71.0548
" />
<path d="M119.3952 71.0548
L119.4905 71.1024
" />
<path d="M119.4905 71.1024
L119.5381 71.1501
" />
<path d="M119.5381 71.1501
L119.5857 71.2453
" />
<path d="M119.5857 71.2453
L119.5857 71.3405
" />
<path d="M119.5857 71.3405
L119.5381 71.4834
" />
<path d="M119.5381 71.4834
L118.9667 72.0548
" />
<path d="M118.9667 72.0548
L119.5857 72.0548
" />
</g><text x="132.7000" y="67.6400"
textLength="2.2024" font-size="1.3333" lengthAdjust="spacingAndGlyphs"
text-anchor="middle" opacity="0">R6</text>
<g class="stroked-text"><desc>R6</desc>
<path d="M132.5333 67.5948
L132.2000 67.1186
" />
<path d="M131.9619 67.5948
L131.9619 66.5948
" />
<path d="M131.9619 66.5948
L132.3429 66.5948
" />
<path d="M132.3429 66.5948
L132.4381 66.6424
" />
<path d="M132.4381 66.6424
L132.4857 66.6901
" />
<path d="M132.4857 66.6901
L132.5333 66.7853
" />
<path d="M132.5333 66.7853
L132.5333 66.9282
" />
<path d="M132.5333 66.9282
L132.4857 67.0234
" />
<path d="M132.4857 67.0234
L132.4381 67.0710
" />
<path d="M132.4381 67.0710
L132.3429 67.1186
" />
<path d="M132.3429 67.1186
L131.9619 67.1186
" />
<path d="M133.3905 66.5948
L133.2000 66.5948
" />
<path d="M133.2000 66.5948
L133.1048 66.6424
" />
<path d="M133.1048 66.6424
L133.0571 66.6901
" />
<path d="M133.0571 66.6901
L132.9619 66.8329
" />
<path d="M132.9619 66.8329
L132.9143 67.0234
" />
<path d="M132.9143 67.0234
L132.9143 67.4043
" />
<path d="M132.9143 67.4043
L132.9619 67.4996
" />
<path d="M132.9619 67.4996
L133.0095 67.5472
" />
<path d="M133.0095 67.5472
L133.1048 67.5948
" />
<path d="M133.1048 67.5948
L133.2952 67.5948
" />
<path d="M133.2952 67.5948
L133.3905 67.5472
" />
<path d="M133.3905 67.5472
L133.4381 67.4996
" />
<path d="M133.4381 67.4996
L133.4857 67.4043
" />
<path d="M133.4857 67.4043
L133.4857 67.1662
" />
<path d="M133.4857 67.1662
L133.4381 67.0710
" />
<path d="M133.4381 67.0710
L133.3905 67.0234
" />
<path d="M133.3905 67.0234
L133.2952 66.9758
" />
<path d="M133.2952 66.9758
L133.1048 66.9758
" />
<path d="M133.1048 66.9758
L133.0095 67.0234
" />
<path d="M133.0095 67.0234
L132.9619 67.0710
" />
<path d="M132.9619 67.0710
L132.9143 67.1662
" />
</g><text x="113.6500" y="72.1000"
textLength="2.2024" font-size="1.3333" lengthAdjust="spacingAndGlyphs"
text-anchor="middle" opacity="0">R1</text>
<g class="stroked-text"><desc>R1</desc>
<path d="M113.4833 72.0548
L113.1500 71.5786
" />
<path d="M112.9119 72.0548
L112.9119 71.0548
" />
<path d="M112.9119 71.0548
L113.2929 71.0548
" />
<path d="M113.2929 71.0548
L113.3881 71.1024
" />
<path d="M113.3881 71.1024
L113.4357 71.1501
" />
<path d="M113.4357 71.1501
L113.4833 71.2453
" />
<path d="M113.4833 71.2453
L113.4833 71.3882
" />
<path d="M113.4833 71.3882
L113.4357 71.4834
" />
<path d="M113.4357 71.4834
L113.3881 71.5310
" />
<path d="M113.3881 71.5310
L113.2929 71.5786
" />
<path d="M113.2929 71.5786
L112.9119 71.5786
" />
<path d="M114.4357 72.0548
L113.8643 72.0548
" />
<path d="M114.1500 72.0548
L114.1500 71.0548
" />
<path d="M114.1500 71.0548
L114.0548 71.1977
" />
<path d="M114.0548 71.1977
L113.9595 71.2929
" />
<path d="M113.9595 71.2929
L113.8643 71.3405
" />
</g><g transform="rotate(-90.000000 139.2500 63.4240)">
<text x="139.2500" y="63.9240"
textLength="2.2024" font-size="1.3333" lengthAdjust="spacingAndGlyphs"
text-anchor="middle" opacity="0">D2</text>
</g>
<g class="stroked-text"><desc>D2</desc>
<path d="M139.7048 64.1621
L138.7048 64.1621
" />
<path d="M138.7048 64.1621
L138.7048 63.9240
" />
<path d="M138.7048 63.9240
L138.7524 63.7811
" />
<path d="M138.7524 63.7811
L138.8477 63.6859
" />
<path d="M138.8477 63.6859
L138.9429 63.6383
" />
<path d="M138.9429 63.6383
L139.1334 63.5907
" />
<path d="M139.1334 63.5907
L139.2762 63.5907
" />
<path d="M139.2762 63.5907
L139.4667 63.6383
" />
<path d="M139.4667 63.6383
L139.5620 63.6859
" />
<path d="M139.5620 63.6859
L139.6572 63.7811
" />
<path d="M139.6572 63.7811
L139.7048 63.9240
" />
<path d="M139.7048 63.9240
L139.7048 64.1621
" />
<path d="M138.8001 63.2097
L138.7524 63.1621
" />
<path d="M138.7524 63.1621
L138.7048 63.0669
" />
<path d="M138.7048 63.0669
L138.7048 62.8288
" />
<path d="M138.7048 62.8288
L138.7524 62.7335
" />
<path d="M138.7524 62.7335
L138.8001 62.6859
" />
<path d="M138.8001 62.6859
L138.8953 62.6383
" />
<path d="M138.8953 62.6383
L138.9905 62.6383
" />
<path d="M138.9905 62.6383
L139.1334 62.6859
" />
<path d="M139.1334 62.6859
L139.7048 63.2573
" />
<path d="M139.7048 63.2573
L139.7048 62.6383
" />
</g></g>
<g style="fill:#000000; fill-opacity:0.0; 
stroke:#000000; stroke-width:0.1200; stroke-opacity:1; 
stroke-linecap:round; stroke-linejoin:round;">
<path d="M138.6600 56.4600
L138.6600 48.6400
" />
<path d="M138.6600 54.8600
L137.7400 54.8600
" />
<path d="M138.6600 48.6400
L128.5400 48.6400
" />
<path d="M137.9000 52.5000
L137.9000 50.9000
" />
<path d="M137.9000 50.9000
L136.9000 50.9000
" />
<path d="M137.7400 56.4600
L138.6600 56.4600
" />
<path d="M137.7400 54.8600
L137.7400 56.4600
" />
<path d="M137.4600 54.8600
L137.7400 54.8600
" />
<path d="M137.4600 54.8600
L137.4600 56.0750
" />
<path d="M137.4000 50.9000
L137.4000 48.6400
" />
<path d="M136.9000 52.5000
L137.9000 52.5000
" />
<path d="M136.9000 50.9000
L136.9000 52.5000
" />
<path d="M136.9000 50.9000
L136.9000 48.6400
" />
<path d="M136.1000 53.0000
L131.1000 53.0000
" />
<path d="M136.1000 48.6400
L136.1000 53.0000
" />
<path d="M131.1000 53.0000
L131.1000 48.6400
" />
<path d="M130.3000 52.5000
L129.3000 52.5000
" />
<path d="M130.3000 50.9000
L130.3000 52.5000
" />
<path d="M129.4600 56.4600
L129.4600 54.8600
" />
<path d="M129.4600 54.8600
L129.7400 54.8600
" />
<path d="M129.3000 52.5000
L129.3000 50.9000
" />
<path d="M129.3000 50.9000
L130.3000 50.9000
" />
<path d="M128.5400 56.4600
L129.4600 56.4600
" />
<path d="M128.5400 54.8600
L129.4600 54.8600
" />
<path d="M128.5400 48.6400
L128.5400 56.4600
" />
<path d="M139.9900 89.0400
L139.9900 90.2900
" />
<path d="M140.2900 89.3400
L140.2900 94.0600
" />
<path d="M140.2900 90.6500
L140.9000 90.6500
" />
<path d="M140.2900 91.9500
L140.9000 91.9500
" />
<path d="M140.2900 94.0600
L146.4100 94.0600
" />
<path d="M140.9000 89.9500
L140.9000 93.4500
" />
<path d="M140.9000 93.4500
L145.8000 93.4500
" />
<path d="M141.2400 89.0400
L139.9900 89.0400
" />
<path d="M141.7500 89.1400
L141.7500 89.3400
" />
<path d="M142.0500 89.1400
L141.7500 89.1400
" />
<path d="M142.0500 89.2400
L141.7500 89.2400
" />
<path d="M142.0500 89.3400
L142.0500 89.1400
" />
<path d="M142.8500 89.3400
L142.8500 89.9500
" />
<path d="M142.8500 89.9500
L140.9000 89.9500
" />
<path d="M143.2500 92.9500
L143.4500 92.9500
" />
<path d="M143.2500 93.4500
L143.2500 92.9500
" />
<path d="M143.3500 93.4500
L143.3500 92.9500
" />
<path d="M143.4500 92.9500
L143.4500 93.4500
" />
<path d="M143.8500 89.9500
L143.8500 89.3400
" />
<path d="M145.8000 89.9500
L143.8500 89.9500
" />
<path d="M145.8000 93.4500
L145.8000 89.9500
" />
<path d="M146.4100 89.3400
L140.2900 89.3400
" />
<path d="M146.4100 90.6500
L145.8000 90.6500
" />
<path d="M146.4100 91.9500
L145.8000 91.9500
" />
<path d="M146.4100 94.0600
L146.4100 89.3400
" />
<path d="M115.9547 82.0225
L115.4453 82.0225
" />
<path d="M115.9547 80.9775
L115.4453 80.9775
" />
<path d="M115.9547 83.7225
L115.4453 83.7225
" />
<path d="M115.9547 82.6775
L115.4453 82.6775
" />
<path d="M120.8500 57.2750
L120.8500 56.0250
" />
<path d="M120.5600 56.9850
L120.5600 51.0150
" />
<path d="M120.5600 51.0150
L112.9400 51.0150
" />
<path d="M120.5500 56.9750
L120.5500 56.2250
" />
<path d="M120.5500 56.2250
L118.7500 56.2250
" />
<path d="M120.5500 54.7250
L119.8000 54.7250
" />
<path d="M119.8000 54.7250
L119.8000 51.7750
" />
<path d="M119.8000 51.7750
L116.7500 51.7750
" />
<path d="M119.6000 57.2750
L120.8500 57.2750
" />
<path d="M118.7500 56.9750
L120.5500 56.9750
" />
<path d="M118.7500 56.2250
L118.7500 56.9750
" />
<path d="M117.2500 56.9750
L117.2500 56.2250
" />
<path d="M117.2500 56.2250
L116.2500 56.2250
" />
<path d="M116.2500 56.9750
L117.2500 56.9750
" />
<path d="M116.2500 56.2250
L116.2500 56.9750
" />
<path d="M114.7500 56.9750
L114.7500 56.2250
" />
<path d="M114.7500 56.2250
L112.9500 56.2250
" />
<path d="M113.7000 54.7250
L113.7000 51.7750
" />
<path d="M113.7000 51.7750
L116.7500 51.7750
" />
<path d="M112.9500 56.9750
L114.7500 56.9750
" />
<path d="M112.9500 56.2250
L112.9500 56.9750
" />
<path d="M112.9500 54.7250
L113.7000 54.7250
" />
<path d="M112.9400 56.9850
L120.5600 56.9850
" />
<path d="M112.9400 51.0150
L112.9400 56.9850
" />
<path d="M138.5900 72.2113
L138.5900 70.7887
" />
<path d="M140.4100 72.2113
L140.4100 70.7887
" />
<path d="M138.0240 70.7887
L138.0240 72.2113
" />
<path d="M136.2040 70.7887
L136.2040 72.2113
" />
<path d="M138.0100 80.1887
L138.0100 81.6113
" />
<path d="M136.1900 80.1887
L136.1900 81.6113
" />
</g>
<g style="fill:#000000; fill-opacity:0.0; 
stroke:#000000; stroke-width:0.1500; stroke-opacity:1; 
stroke-linecap:round; stroke-linejoin:round;">
<path d="M143.5000 65.4500
L143.5000 56.8500
" />
<path d="M148.1000 65.4500
L148.1000 63.2500
" />
</g>
<g style="fill:#000000; fill-opacity:0.0; 
stroke:#000000; stroke-width:0.1000; stroke-opacity:1; 
stroke-linecap:round; stroke-linejoin:round;">
<path d="M148.1000 63.2500
L151.9900 63.2500
" />
<path d="M151.9900 63.2500
L151.9900 61.0600
" />
</g>
<g style="fill:#000000; fill-opacity:0.0; 
stroke:#000000; stroke-width:0.1500; stroke-opacity:1; 
stroke-linecap:round; stroke-linejoin:round;">
<path d="M148.1000 61.0600
L148.1000 56.8500
" />
</g>
<g style="fill:#000000; fill-opacity:0.0; 
stroke:#000000; stroke-width:0.1000; stroke-opacity:1; 
stroke-linecap:round; stroke-linejoin:round;">
<path d="M151.9900 61.0600
L148.1000 61.0600
" />
</g>
<g style="fill:#000000; fill-opacity:0.0; 
stroke:#000000; stroke-width:0.1200; stroke-opacity:1; 
stroke-linecap:round; stroke-linejoin:round;">
<path d="M132.0400 96.5800
L134.2000 96.5800
" />
<path d="M132.0400 96.5800
L132.0400 95.6500
" />
<path d="M132.0400 93.4200
L133.5000 93.4200
" />
<path d="M132.0400 93.4200
L132.0400 94.3500
" />
<path d="M135.1137 95.2509
L135.1137 94.7415
" />
<path d="M136.1587 95.2509
L136.1587 94.7415
" />
<path d="M115.9547 78.7725
L115.4453 78.7725
" />
<path d="M115.9547 77.7275
L115.4453 77.7275
" />
<path d="M116.0047 85.6725
L115.4953 85.6725
" />
<path d="M116.0047 84.6275
L115.4953 84.6275
" />
<path d="M115.9547 80.3725
L115.4453 80.3725
" />
<path d="M115.9547 79.3275
L115.4453 79.3275
" />
<path d="M116.0047 87.2725
L115.4953 87.2725
" />
<path d="M116.0047 86.2275
L115.4953 86.2275
" />
<path d="M129.7627 71.7775
L130.2373 71.7775
" />
<path d="M129.7627 72.8225
L130.2373 72.8225
" />
<path d="M130.2373 71.3225
L129.7627 71.3225
" />
<path d="M130.2373 70.2775
L129.7627 70.2775
" />
<path d="M140.4100 80.1887
L140.4100 81.6113
" />
<path d="M138.5900 80.1887
L138.5900 81.6113
" />
<path d="M144.5900 66.9900
L142.0900 66.9900
" />
<path d="M142.0900 66.9900
L142.0900 69.4900
" />
<path d="M146.4100 67.2900
L142.3900 67.2900
" />
<path d="M144.7000 67.2900
L144.7000 67.7900
" />
<path d="M143.8900 67.2900
L143.8900 68.2900
" />
<path d="M142.3900 67.2900
L142.3900 77.5100
" />
<path d="M145.9100 67.7900
L145.9100 77.0100
" />
<path d="M144.7000 67.7900
L145.9100 67.7900
" />
<path d="M143.8900 68.2900
L142.3900 68.2900
" />
<path d="M143.8900 76.5100
L142.3900 76.5100
" />
<path d="M145.9100 77.0100
L144.7000 77.0100
" />
<path d="M144.7000 77.0100
L144.7000 77.5100
" />
<path d="M146.4100 77.5100
L146.4100 67.2900
" />
<path d="M143.8900 77.5100
L143.8900 76.5100
" />
<path d="M142.3900 77.5100
L146.4100 77.5100
" />
<path d="M116.4873 66.2725
L116.0127 66.2725
" />
<path d="M116.4873 65.2275
L116.0127 65.2275
" />
<path d="M144.5900 77.9900
L142.0900 77.9900
" />
<path d="M142.0900 77.9900
L142.0900 80.4900
" />
<path d="M146.4100 78.2900
L142.3900 78.2900
" />
<path d="M144.7000 78.2900
L144.7000 78.7900
" />
<path d="M143.8900 78.2900
L143.8900 79.2900
" />
<path d="M142.3900 78.2900
L142.3900 88.5100
" />
<path d="M145.9100 78.7900
L145.9100 88.0100
" />
<path d="M144.7000 78.7900
L145.9100 78.7900
" />
<path d="M143.8900 79.2900
L142.3900 79.2900
" />
<path d="M143.8900 87.5100
L142.3900 87.5100
" />
<path d="M145.9100 88.0100
L144.7000 88.0100
" />
<path d="M144.7000 88.0100
L144.7000 88.5100
" />
<path d="M146.4100 88.5100
L146.4100 78.2900
" />
<path d="M143.8900 88.5100
L143.8900 87.5100
" />
<path d="M142.3900 88.5100
L146.4100 88.5100
" />
<path d="M130.2273 66.1225
L129.7527 66.1225
" />
<path d="M130.2273 65.0775
L129.7527 65.0775
" />
<path d="M129.8594 63.4900
L130.1406 63.4900
" />
<path d="M129.8594 64.5100
L130.1406 64.5100
" />
<path d="M103.6000 55.8900
L103.6000 56.4600
" />
<path d="M103.6000 55.8900
L108.8000 55.8900
" />
<path d="M103.6000 57.9800
L103.6000 59.0000
" />
<path d="M103.6000 60.5200
L103.6000 61.5400
" />
<path d="M103.6000 63.0600
L103.6000 64.0800
" />
<path d="M103.6000 65.6000
L103.6000 66.6200
" />
<path d="M103.6000 68.1400
L103.6000 69.1600
" />
<path d="M103.6000 70.6800
L103.6000 71.7000
" />
<path d="M103.6000 73.2200
L103.6000 74.2400
" />
<path d="M103.6000 75.7600
L103.6000 76.7800
" />
<path d="M103.6000 78.3000
L103.6000 79.3200
" />
<path d="M103.6000 80.8400
L103.6000 81.8600
" />
<path d="M103.6000 83.3800
L103.6000 84.4000
" />
<path d="M103.6000 85.9200
L103.6000 86.9400
" />
<path d="M103.6000 88.4600
L103.6000 89.4800
" />
<path d="M103.6000 91.0000
L103.6000 92.0200
" />
<path d="M103.6000 93.5400
L103.6000 94.1100
" />
<path d="M103.6000 94.1100
L108.8000 94.1100
" />
<path d="M108.8000 55.8900
L108.8000 56.4600
" />
<path d="M108.8000 56.4600
L110.1600 56.4600
" />
<path d="M108.8000 57.9800
L108.8000 59.0000
" />
<path d="M108.8000 60.5200
L108.8000 61.5400
" />
<path d="M108.8000 63.0600
L108.8000 64.0800
" />
<path d="M108.8000 65.6000
L108.8000 66.6200
" />
<path d="M108.8000 68.1400
L108.8000 69.1600
" />
<path d="M108.8000 70.6800
L108.8000 71.7000
" />
<path d="M108.8000 73.2200
L108.8000 74.2400
" />
<path d="M108.8000 75.7600
L108.8000 76.7800
" />
<path d="M108.8000 78.3000
L108.8000 79.3200
" />
<path d="M108.8000 80.8400
L108.8000 81.8600
" />
<path d="M108.8000 83.3800
L108.8000 84.4000
" />
<path d="M108.8000 85.9200
L108.8000 86.9400
" />
<path d="M108.8000 88.4600
L108.8000 89.4800
" />
<path d="M108.8000 91.0000
L108.8000 92.0200
" />
<path d="M108.8000 93.5400
L108.8000 94.1100
" />
<path d="M127.9000 54.9000
L127.9000 51.6000
" />
<path d="M127.9000 54.9000
L122.5000 54.9000
" />
<path d="M127.9000 51.6000
L122.5000 51.6000
" />
<path d="M115.8000 66.7400
L114.1250 66.7400
" />
<path d="M115.8000 66.7400
L116.4500 66.7400
" />
<path d="M115.8000 69.8600
L115.1500 69.8600
" />
<path d="M115.8000 69.8600
L116.4500 69.8600
" />
<path d="M130.2373 69.3225
L129.7627 69.3225
" />
<path d="M130.2373 68.2775
L129.7627 68.2775
" />
<path d="M120.5400 63.3900
L120.5400 64.1350
" />
<path d="M120.5400 64.1350
L118.8500 64.1350
" />
<path d="M120.5400 69.8100
L120.5400 69.0650
" />
<path d="M123.3000 63.3900
L120.5400 63.3900
" />
<path d="M123.3000 63.3900
L126.0600 63.3900
" />
<path d="M123.3000 69.8100
L120.5400 69.8100
" />
<path d="M123.3000 69.8100
L126.0600 69.8100
" />
<path d="M126.0600 63.3900
L126.0600 64.1350
" />
<path d="M126.0600 69.8100
L126.0600 69.0650
" />
<path d="M116.4775 71.8373
L116.4775 71.3627
" />
<path d="M117.5225 71.8373
L117.5225 71.3627
" />
<path d="M130.2373 67.6625
L129.7627 67.6625
" />
<path d="M130.2373 66.6175
L129.7627 66.6175
" />
<path d="M115.9725 71.3627
L115.9725 71.8373
" />
<path d="M114.9275 71.3627
L114.9275 71.8373
" />
<path d="M135.4700 66.5040
L138.1900 66.5040
" />
<path d="M135.4700 66.5040
L135.4700 61.5240
" />
<path d="M138.1900 66.5040
L138.1900 61.5240
" />
<g >
</g>
<g >
</g>
<g >
</g>
<g >
</g>
<g >
</g>
<g >
</g>
<g >
</g>
<g >
</g>
<g >
</g>
<g >
</g>
<g >
</g>
<g >
</g>
<g >
</g>
<g >
</g>
<g >
</g>
<g >
</g>
<g >
</g>
<g >
</g>
<g >
</g>
<g >
</g>
<g >
</g>
<g >
</g>
<g >
</g>
<g >
</g>
<g >
</g>
<g >
</g>
<g >
</g>
<g >
</g>
<g >
</g>
<g >
</g>
<g >
</g>
<g >
</g>
<g >
</g>
<g >
</g>
<g >
</g>
<g >
</g>
<g >
</g>
<g >
</g>
<g >
</g>
<g >
</g>
<g >
</g>
<g >
</g>
</g> 
</svg>
