<?xml version="1.0" standalone="no"?>
 <!DOCTYPE svg PUBLIC "-//W3C//DTD SVG 1.1//EN" 
 "http://www.w3.org/Graphics/SVG/1.1/DTD/svg11.dtd"> 
<svg
  xmlns:svg="http://www.w3.org/2000/svg"
  xmlns="http://www.w3.org/2000/svg"
  xmlns:xlink="http://www.w3.org/1999/xlink"
  version="1.1"
  width="297.0022mm" height="210.0072mm" viewBox="0.0000 0.0000 297.0022 210.0072">
<title>SVG Image created as m5-pantilt-User_Eco1.svg date 2023/09/19 04:43:33 </title>
  <desc>Image generated by PCBNEW </desc>
<g style="fill:#000000; fill-opacity:1.0000;stroke:#000000; stroke-opacity:1.0000;
stroke-linecap:round; stroke-linejoin:round;"
 transform="translate(0 0) scale(1 1)">
</g>
<g style="fill:#000000; fill-opacity:0.0; 
stroke:#000000; stroke-width:0.0000; stroke-opacity:1; 
stroke-linecap:round; stroke-linejoin:round;">
</g>
<g style="fill:#000000; fill-opacity:0.0; 
stroke:#000000; stroke-width:0.1500; stroke-opacity:1; 
stroke-linecap:round; stroke-linejoin:round;">
<g transform="rotate(-90.000000 93.7700 75.0000)">
<text x="93.7700" y="75.5000"
textLength="9.8690" font-size="1.3333" lengthAdjust="spacingAndGlyphs"
text-anchor="middle" opacity="0">50.0000 mm</text>
</g>
<g class="stroked-text"><desc>50.0000 mm</desc>
<path d="M93.2248 79.0952
L93.2248 79.5714
" />
<path d="M93.2248 79.5714
L93.7010 79.6190
" />
<path d="M93.7010 79.6190
L93.6534 79.5714
" />
<path d="M93.6534 79.5714
L93.6058 79.4762
" />
<path d="M93.6058 79.4762
L93.6058 79.2381
" />
<path d="M93.6058 79.2381
L93.6534 79.1429
" />
<path d="M93.6534 79.1429
L93.7010 79.0952
" />
<path d="M93.7010 79.0952
L93.7962 79.0476
" />
<path d="M93.7962 79.0476
L94.0343 79.0476
" />
<path d="M94.0343 79.0476
L94.1296 79.0952
" />
<path d="M94.1296 79.0952
L94.1772 79.1429
" />
<path d="M94.1772 79.1429
L94.2248 79.2381
" />
<path d="M94.2248 79.2381
L94.2248 79.4762
" />
<path d="M94.2248 79.4762
L94.1772 79.5714
" />
<path d="M94.1772 79.5714
L94.1296 79.6190
" />
<path d="M93.2248 78.4286
L93.2248 78.3333
" />
<path d="M93.2248 78.3333
L93.2724 78.2381
" />
<path d="M93.2724 78.2381
L93.3201 78.1905
" />
<path d="M93.3201 78.1905
L93.4153 78.1429
" />
<path d="M93.4153 78.1429
L93.6058 78.0952
" />
<path d="M93.6058 78.0952
L93.8439 78.0952
" />
<path d="M93.8439 78.0952
L94.0343 78.1429
" />
<path d="M94.0343 78.1429
L94.1296 78.1905
" />
<path d="M94.1296 78.1905
L94.1772 78.2381
" />
<path d="M94.1772 78.2381
L94.2248 78.3333
" />
<path d="M94.2248 78.3333
L94.2248 78.4286
" />
<path d="M94.2248 78.4286
L94.1772 78.5238
" />
<path d="M94.1772 78.5238
L94.1296 78.5714
" />
<path d="M94.1296 78.5714
L94.0343 78.6190
" />
<path d="M94.0343 78.6190
L93.8439 78.6667
" />
<path d="M93.8439 78.6667
L93.6058 78.6667
" />
<path d="M93.6058 78.6667
L93.4153 78.6190
" />
<path d="M93.4153 78.6190
L93.3201 78.5714
" />
<path d="M93.3201 78.5714
L93.2724 78.5238
" />
<path d="M93.2724 78.5238
L93.2248 78.4286
" />
<path d="M94.1296 77.6667
L94.1772 77.6190
" />
<path d="M94.1772 77.6190
L94.2248 77.6667
" />
<path d="M94.2248 77.6667
L94.1772 77.7143
" />
<path d="M94.1772 77.7143
L94.1296 77.6667
" />
<path d="M94.1296 77.6667
L94.2248 77.6667
" />
<path d="M93.2248 77.0000
L93.2248 76.9048
" />
<path d="M93.2248 76.9048
L93.2724 76.8095
" />
<path d="M93.2724 76.8095
L93.3201 76.7619
" />
<path d="M93.3201 76.7619
L93.4153 76.7143
" />
<path d="M93.4153 76.7143
L93.6058 76.6667
" />
<path d="M93.6058 76.6667
L93.8439 76.6667
" />
<path d="M93.8439 76.6667
L94.0343 76.7143
" />
<path d="M94.0343 76.7143
L94.1296 76.7619
" />
<path d="M94.1296 76.7619
L94.1772 76.8095
" />
<path d="M94.1772 76.8095
L94.2248 76.9048
" />
<path d="M94.2248 76.9048
L94.2248 77.0000
" />
<path d="M94.2248 77.0000
L94.1772 77.0952
" />
<path d="M94.1772 77.0952
L94.1296 77.1429
" />
<path d="M94.1296 77.1429
L94.0343 77.1905
" />
<path d="M94.0343 77.1905
L93.8439 77.2381
" />
<path d="M93.8439 77.2381
L93.6058 77.2381
" />
<path d="M93.6058 77.2381
L93.4153 77.1905
" />
<path d="M93.4153 77.1905
L93.3201 77.1429
" />
<path d="M93.3201 77.1429
L93.2724 77.0952
" />
<path d="M93.2724 77.0952
L93.2248 77.0000
" />
<path d="M93.2248 76.0476
L93.2248 75.9524
" />
<path d="M93.2248 75.9524
L93.2724 75.8571
" />
<path d="M93.2724 75.8571
L93.3201 75.8095
" />
<path d="M93.3201 75.8095
L93.4153 75.7619
" />
<path d="M93.4153 75.7619
L93.6058 75.7143
" />
<path d="M93.6058 75.7143
L93.8439 75.7143
" />
<path d="M93.8439 75.7143
L94.0343 75.7619
" />
<path d="M94.0343 75.7619
L94.1296 75.8095
" />
<path d="M94.1296 75.8095
L94.1772 75.8571
" />
<path d="M94.1772 75.8571
L94.2248 75.9524
" />
<path d="M94.2248 75.9524
L94.2248 76.0476
" />
<path d="M94.2248 76.0476
L94.1772 76.1429
" />
<path d="M94.1772 76.1429
L94.1296 76.1905
" />
<path d="M94.1296 76.1905
L94.0343 76.2381
" />
<path d="M94.0343 76.2381
L93.8439 76.2857
" />
<path d="M93.8439 76.2857
L93.6058 76.2857
" />
<path d="M93.6058 76.2857
L93.4153 76.2381
" />
<path d="M93.4153 76.2381
L93.3201 76.1905
" />
<path d="M93.3201 76.1905
L93.2724 76.1429
" />
<path d="M93.2724 76.1429
L93.2248 76.0476
" />
<path d="M93.2248 75.0952
L93.2248 75.0000
" />
<path d="M93.2248 75.0000
L93.2724 74.9048
" />
<path d="M93.2724 74.9048
L93.3201 74.8571
" />
<path d="M93.3201 74.8571
L93.4153 74.8095
" />
<path d="M93.4153 74.8095
L93.6058 74.7619
" />
<path d="M93.6058 74.7619
L93.8439 74.7619
" />
<path d="M93.8439 74.7619
L94.0343 74.8095
" />
<path d="M94.0343 74.8095
L94.1296 74.8571
" />
<path d="M94.1296 74.8571
L94.1772 74.9048
" />
<path d="M94.1772 74.9048
L94.2248 75.0000
" />
<path d="M94.2248 75.0000
L94.2248 75.0952
" />
<path d="M94.2248 75.0952
L94.1772 75.1905
" />
<path d="M94.1772 75.1905
L94.1296 75.2381
" />
<path d="M94.1296 75.2381
L94.0343 75.2857
" />
<path d="M94.0343 75.2857
L93.8439 75.3333
" />
<path d="M93.8439 75.3333
L93.6058 75.3333
" />
<path d="M93.6058 75.3333
L93.4153 75.2857
" />
<path d="M93.4153 75.2857
L93.3201 75.2381
" />
<path d="M93.3201 75.2381
L93.2724 75.1905
" />
<path d="M93.2724 75.1905
L93.2248 75.0952
" />
<path d="M93.2248 74.1429
L93.2248 74.0476
" />
<path d="M93.2248 74.0476
L93.2724 73.9524
" />
<path d="M93.2724 73.9524
L93.3201 73.9048
" />
<path d="M93.3201 73.9048
L93.4153 73.8571
" />
<path d="M93.4153 73.8571
L93.6058 73.8095
" />
<path d="M93.6058 73.8095
L93.8439 73.8095
" />
<path d="M93.8439 73.8095
L94.0343 73.8571
" />
<path d="M94.0343 73.8571
L94.1296 73.9048
" />
<path d="M94.1296 73.9048
L94.1772 73.9524
" />
<path d="M94.1772 73.9524
L94.2248 74.0476
" />
<path d="M94.2248 74.0476
L94.2248 74.1429
" />
<path d="M94.2248 74.1429
L94.1772 74.2381
" />
<path d="M94.1772 74.2381
L94.1296 74.2857
" />
<path d="M94.1296 74.2857
L94.0343 74.3333
" />
<path d="M94.0343 74.3333
L93.8439 74.3810
" />
<path d="M93.8439 74.3810
L93.6058 74.3810
" />
<path d="M93.6058 74.3810
L93.4153 74.3333
" />
<path d="M93.4153 74.3333
L93.3201 74.2857
" />
<path d="M93.3201 74.2857
L93.2724 74.2381
" />
<path d="M93.2724 74.2381
L93.2248 74.1429
" />
<path d="M94.2248 72.6190
L93.5582 72.6190
" />
<path d="M93.6534 72.6190
L93.6058 72.5714
" />
<path d="M93.6058 72.5714
L93.5582 72.4762
" />
<path d="M93.5582 72.4762
L93.5582 72.3333
" />
<path d="M93.5582 72.3333
L93.6058 72.2381
" />
<path d="M93.6058 72.2381
L93.7010 72.1905
" />
<path d="M93.7010 72.1905
L94.2248 72.1905
" />
<path d="M93.7010 72.1905
L93.6058 72.1429
" />
<path d="M93.6058 72.1429
L93.5582 72.0476
" />
<path d="M93.5582 72.0476
L93.5582 71.9048
" />
<path d="M93.5582 71.9048
L93.6058 71.8095
" />
<path d="M93.6058 71.8095
L93.7010 71.7619
" />
<path d="M93.7010 71.7619
L94.2248 71.7619
" />
<path d="M94.2248 71.2857
L93.5582 71.2857
" />
<path d="M93.6534 71.2857
L93.6058 71.2381
" />
<path d="M93.6058 71.2381
L93.5582 71.1429
" />
<path d="M93.5582 71.1429
L93.5582 71.0000
" />
<path d="M93.5582 71.0000
L93.6058 70.9048
" />
<path d="M93.6058 70.9048
L93.7010 70.8571
" />
<path d="M93.7010 70.8571
L94.2248 70.8571
" />
<path d="M93.7010 70.8571
L93.6058 70.8095
" />
<path d="M93.6058 70.8095
L93.5582 70.7143
" />
<path d="M93.5582 70.7143
L93.5582 70.5714
" />
<path d="M93.5582 70.5714
L93.6058 70.4762
" />
<path d="M93.6058 70.4762
L93.7010 70.4286
" />
<path d="M93.7010 70.4286
L94.2248 70.4286
" />
</g><path d="M110.0000 100.0000
L94.3336 100.0000
" />
<path d="M110.0000 50.0000
L94.3336 50.0000
" />
<path d="M94.9200 100.0000
L94.9200 50.0000
" />
<path d="M94.9200 100.0000
L94.9200 50.0000
" />
<path d="M94.9200 100.0000
L94.3336 98.8735
" />
<path d="M94.9200 100.0000
L95.5064 98.8735
" />
<path d="M94.9200 50.0000
L95.5064 51.1265
" />
<path d="M94.9200 50.0000
L94.3336 51.1265
" />
<text x="124.6000" y="104.5950"
textLength="9.8690" font-size="1.3333" lengthAdjust="spacingAndGlyphs"
text-anchor="middle" opacity="0">50.0000 mm</text>
<g class="stroked-text"><desc>50.0000 mm</desc>
<path d="M120.5048 103.5498
L120.0286 103.5498
" />
<path d="M120.0286 103.5498
L119.9810 104.0260
" />
<path d="M119.9810 104.0260
L120.0286 103.9784
" />
<path d="M120.0286 103.9784
L120.1238 103.9308
" />
<path d="M120.1238 103.9308
L120.3619 103.9308
" />
<path d="M120.3619 103.9308
L120.4571 103.9784
" />
<path d="M120.4571 103.9784
L120.5048 104.0260
" />
<path d="M120.5048 104.0260
L120.5524 104.1212
" />
<path d="M120.5524 104.1212
L120.5524 104.3593
" />
<path d="M120.5524 104.3593
L120.5048 104.4546
" />
<path d="M120.5048 104.4546
L120.4571 104.5022
" />
<path d="M120.4571 104.5022
L120.3619 104.5498
" />
<path d="M120.3619 104.5498
L120.1238 104.5498
" />
<path d="M120.1238 104.5498
L120.0286 104.5022
" />
<path d="M120.0286 104.5022
L119.9810 104.4546
" />
<path d="M121.1714 103.5498
L121.2667 103.5498
" />
<path d="M121.2667 103.5498
L121.3619 103.5974
" />
<path d="M121.3619 103.5974
L121.4095 103.6451
" />
<path d="M121.4095 103.6451
L121.4571 103.7403
" />
<path d="M121.4571 103.7403
L121.5048 103.9308
" />
<path d="M121.5048 103.9308
L121.5048 104.1689
" />
<path d="M121.5048 104.1689
L121.4571 104.3593
" />
<path d="M121.4571 104.3593
L121.4095 104.4546
" />
<path d="M121.4095 104.4546
L121.3619 104.5022
" />
<path d="M121.3619 104.5022
L121.2667 104.5498
" />
<path d="M121.2667 104.5498
L121.1714 104.5498
" />
<path d="M121.1714 104.5498
L121.0762 104.5022
" />
<path d="M121.0762 104.5022
L121.0286 104.4546
" />
<path d="M121.0286 104.4546
L120.9810 104.3593
" />
<path d="M120.9810 104.3593
L120.9333 104.1689
" />
<path d="M120.9333 104.1689
L120.9333 103.9308
" />
<path d="M120.9333 103.9308
L120.9810 103.7403
" />
<path d="M120.9810 103.7403
L121.0286 103.6451
" />
<path d="M121.0286 103.6451
L121.0762 103.5974
" />
<path d="M121.0762 103.5974
L121.1714 103.5498
" />
<path d="M121.9333 104.4546
L121.9810 104.5022
" />
<path d="M121.9810 104.5022
L121.9333 104.5498
" />
<path d="M121.9333 104.5498
L121.8857 104.5022
" />
<path d="M121.8857 104.5022
L121.9333 104.4546
" />
<path d="M121.9333 104.4546
L121.9333 104.5498
" />
<path d="M122.6000 103.5498
L122.6952 103.5498
" />
<path d="M122.6952 103.5498
L122.7905 103.5974
" />
<path d="M122.7905 103.5974
L122.8381 103.6451
" />
<path d="M122.8381 103.6451
L122.8857 103.7403
" />
<path d="M122.8857 103.7403
L122.9333 103.9308
" />
<path d="M122.9333 103.9308
L122.9333 104.1689
" />
<path d="M122.9333 104.1689
L122.8857 104.3593
" />
<path d="M122.8857 104.3593
L122.8381 104.4546
" />
<path d="M122.8381 104.4546
L122.7905 104.5022
" />
<path d="M122.7905 104.5022
L122.6952 104.5498
" />
<path d="M122.6952 104.5498
L122.6000 104.5498
" />
<path d="M122.6000 104.5498
L122.5048 104.5022
" />
<path d="M122.5048 104.5022
L122.4571 104.4546
" />
<path d="M122.4571 104.4546
L122.4095 104.3593
" />
<path d="M122.4095 104.3593
L122.3619 104.1689
" />
<path d="M122.3619 104.1689
L122.3619 103.9308
" />
<path d="M122.3619 103.9308
L122.4095 103.7403
" />
<path d="M122.4095 103.7403
L122.4571 103.6451
" />
<path d="M122.4571 103.6451
L122.5048 103.5974
" />
<path d="M122.5048 103.5974
L122.6000 103.5498
" />
<path d="M123.5524 103.5498
L123.6476 103.5498
" />
<path d="M123.6476 103.5498
L123.7429 103.5974
" />
<path d="M123.7429 103.5974
L123.7905 103.6451
" />
<path d="M123.7905 103.6451
L123.8381 103.7403
" />
<path d="M123.8381 103.7403
L123.8857 103.9308
" />
<path d="M123.8857 103.9308
L123.8857 104.1689
" />
<path d="M123.8857 104.1689
L123.8381 104.3593
" />
<path d="M123.8381 104.3593
L123.7905 104.4546
" />
<path d="M123.7905 104.4546
L123.7429 104.5022
" />
<path d="M123.7429 104.5022
L123.6476 104.5498
" />
<path d="M123.6476 104.5498
L123.5524 104.5498
" />
<path d="M123.5524 104.5498
L123.4571 104.5022
" />
<path d="M123.4571 104.5022
L123.4095 104.4546
" />
<path d="M123.4095 104.4546
L123.3619 104.3593
" />
<path d="M123.3619 104.3593
L123.3143 104.1689
" />
<path d="M123.3143 104.1689
L123.3143 103.9308
" />
<path d="M123.3143 103.9308
L123.3619 103.7403
" />
<path d="M123.3619 103.7403
L123.4095 103.6451
" />
<path d="M123.4095 103.6451
L123.4571 103.5974
" />
<path d="M123.4571 103.5974
L123.5524 103.5498
" />
<path d="M124.5048 103.5498
L124.6000 103.5498
" />
<path d="M124.6000 103.5498
L124.6952 103.5974
" />
<path d="M124.6952 103.5974
L124.7429 103.6451
" />
<path d="M124.7429 103.6451
L124.7905 103.7403
" />
<path d="M124.7905 103.7403
L124.8381 103.9308
" />
<path d="M124.8381 103.9308
L124.8381 104.1689
" />
<path d="M124.8381 104.1689
L124.7905 104.3593
" />
<path d="M124.7905 104.3593
L124.7429 104.4546
" />
<path d="M124.7429 104.4546
L124.6952 104.5022
" />
<path d="M124.6952 104.5022
L124.6000 104.5498
" />
<path d="M124.6000 104.5498
L124.5048 104.5498
" />
<path d="M124.5048 104.5498
L124.4095 104.5022
" />
<path d="M124.4095 104.5022
L124.3619 104.4546
" />
<path d="M124.3619 104.4546
L124.3143 104.3593
" />
<path d="M124.3143 104.3593
L124.2667 104.1689
" />
<path d="M124.2667 104.1689
L124.2667 103.9308
" />
<path d="M124.2667 103.9308
L124.3143 103.7403
" />
<path d="M124.3143 103.7403
L124.3619 103.6451
" />
<path d="M124.3619 103.6451
L124.4095 103.5974
" />
<path d="M124.4095 103.5974
L124.5048 103.5498
" />
<path d="M125.4571 103.5498
L125.5524 103.5498
" />
<path d="M125.5524 103.5498
L125.6476 103.5974
" />
<path d="M125.6476 103.5974
L125.6952 103.6451
" />
<path d="M125.6952 103.6451
L125.7429 103.7403
" />
<path d="M125.7429 103.7403
L125.7905 103.9308
" />
<path d="M125.7905 103.9308
L125.7905 104.1689
" />
<path d="M125.7905 104.1689
L125.7429 104.3593
" />
<path d="M125.7429 104.3593
L125.6952 104.4546
" />
<path d="M125.6952 104.4546
L125.6476 104.5022
" />
<path d="M125.6476 104.5022
L125.5524 104.5498
" />
<path d="M125.5524 104.5498
L125.4571 104.5498
" />
<path d="M125.4571 104.5498
L125.3619 104.5022
" />
<path d="M125.3619 104.5022
L125.3143 104.4546
" />
<path d="M125.3143 104.4546
L125.2667 104.3593
" />
<path d="M125.2667 104.3593
L125.2190 104.1689
" />
<path d="M125.2190 104.1689
L125.2190 103.9308
" />
<path d="M125.2190 103.9308
L125.2667 103.7403
" />
<path d="M125.2667 103.7403
L125.3143 103.6451
" />
<path d="M125.3143 103.6451
L125.3619 103.5974
" />
<path d="M125.3619 103.5974
L125.4571 103.5498
" />
<path d="M126.9810 104.5498
L126.9810 103.8832
" />
<path d="M126.9810 103.9784
L127.0286 103.9308
" />
<path d="M127.0286 103.9308
L127.1238 103.8832
" />
<path d="M127.1238 103.8832
L127.2667 103.8832
" />
<path d="M127.2667 103.8832
L127.3619 103.9308
" />
<path d="M127.3619 103.9308
L127.4095 104.0260
" />
<path d="M127.4095 104.0260
L127.4095 104.5498
" />
<path d="M127.4095 104.0260
L127.4571 103.9308
" />
<path d="M127.4571 103.9308
L127.5524 103.8832
" />
<path d="M127.5524 103.8832
L127.6952 103.8832
" />
<path d="M127.6952 103.8832
L127.7905 103.9308
" />
<path d="M127.7905 103.9308
L127.8381 104.0260
" />
<path d="M127.8381 104.0260
L127.8381 104.5498
" />
<path d="M128.3143 104.5498
L128.3143 103.8832
" />
<path d="M128.3143 103.9784
L128.3619 103.9308
" />
<path d="M128.3619 103.9308
L128.4571 103.8832
" />
<path d="M128.4571 103.8832
L128.6000 103.8832
" />
<path d="M128.6000 103.8832
L128.6952 103.9308
" />
<path d="M128.6952 103.9308
L128.7429 104.0260
" />
<path d="M128.7429 104.0260
L128.7429 104.5498
" />
<path d="M128.7429 104.0260
L128.7905 103.9308
" />
<path d="M128.7905 103.9308
L128.8857 103.8832
" />
<path d="M128.8857 103.8832
L129.0286 103.8832
" />
<path d="M129.0286 103.8832
L129.1238 103.9308
" />
<path d="M129.1238 103.9308
L129.1714 104.0260
" />
<path d="M129.1714 104.0260
L129.1714 104.5498
" />
</g><path d="M149.6000 90.8000
L149.6000 105.8314
" />
<path d="M99.6000 90.8000
L99.6000 105.8314
" />
<path d="M149.6000 105.2450
L99.6000 105.2450
" />
<path d="M149.6000 105.2450
L99.6000 105.2450
" />
<path d="M149.6000 105.2450
L148.4735 105.8314
" />
<path d="M149.6000 105.2450
L148.4735 104.6586
" />
<path d="M99.6000 105.2450
L100.7265 104.6586
" />
<path d="M99.6000 105.2450
L100.7265 105.8314
" />
<g >
</g>
<g >
</g>
<g >
</g>
<g >
</g>
<g >
</g>
<g >
</g>
<g >
</g>
<g >
</g>
<g >
</g>
<g >
</g>
<g >
</g>
<g >
</g>
<g >
</g>
<g >
</g>
<g >
</g>
<g >
</g>
<g >
</g>
<g >
</g>
<g >
</g>
<g >
</g>
<g >
</g>
<g >
</g>
<g >
</g>
<g >
</g>
<g >
</g>
<g >
</g>
<g >
</g>
<g >
</g>
<g >
</g>
<g >
</g>
<g >
</g>
<g >
</g>
<g >
</g>
<g >
</g>
<g >
</g>
<g >
</g>
<g >
</g>
<g >
</g>
<g >
</g>
<g >
</g>
<g >
</g>
<g >
</g>
</g> 
</svg>
