<?xml version="1.0" standalone="no"?>
 <!DOCTYPE svg PUBLIC "-//W3C//DTD SVG 1.1//EN" 
 "http://www.w3.org/Graphics/SVG/1.1/DTD/svg11.dtd"> 
<svg
  xmlns:svg="http://www.w3.org/2000/svg"
  xmlns="http://www.w3.org/2000/svg"
  xmlns:xlink="http://www.w3.org/1999/xlink"
  version="1.1"
  width="297.0022mm" height="210.0072mm" viewBox="0.0000 0.0000 297.0022 210.0072">
<title>SVG Image created as m5-pantilt-F_Paste.svg date 2023/09/19 04:43:33 </title>
  <desc>Image generated by PCBNEW </desc>
<g style="fill:#000000; fill-opacity:1.0000;stroke:#000000; stroke-opacity:1.0000;
stroke-linecap:round; stroke-linejoin:round;"
 transform="translate(0 0) scale(1 1)">
</g>
<g style="fill:#000000; fill-opacity:0.0; 
stroke:#000000; stroke-width:0.0000; stroke-opacity:1; 
stroke-linecap:round; stroke-linejoin:round;">
<g >
</g>
<g >
</g>
<g >
</g>
<g >
</g>
<g >
</g>
<g >
</g>
<g >
</g>
<g style="fill:#000000; fill-opacity:0.0; 
stroke:#000000; stroke-width:0.0000; stroke-opacity:1; 
stroke-linecap:round; stroke-linejoin:round;">
</g>
<g style="fill:#000000; fill-opacity:0.0; 
stroke:#000000; stroke-width:0.0000; stroke-opacity:1; 
stroke-linecap:round; stroke-linejoin:round;">
</g>
<g style="fill:#000000; fill-opacity:1.0000; 
stroke:#000000; stroke-width:0.0000; stroke-opacity:1; 
stroke-linecap:round; stroke-linejoin:round;">
<path style="fill:#000000; fill-opacity:1.0000; 
stroke:#000000; stroke-width:0.0000; stroke-opacity:1; 
stroke-linecap:round; stroke-linejoin:round;fill-rule:evenodd;"
d="M 117.1000,81.7375
117.0819,81.8284
117.0304,81.9054
116.9534,81.9569
116.8625,81.9750
116.3625,81.9750
116.2716,81.9569
116.1946,81.9054
116.1431,81.8284
116.1250,81.7375
116.1250,81.2625
116.1431,81.1716
116.1946,81.0946
116.2716,81.0431
116.3625,81.0250
116.8625,81.0250
116.9534,81.0431
117.0304,81.0946
117.0819,81.1716
117.1000,81.2625
Z" /> 
<path style="fill:#000000; fill-opacity:1.0000; 
stroke:#000000; stroke-width:0.0000; stroke-opacity:1; 
stroke-linecap:round; stroke-linejoin:round;fill-rule:evenodd;"
d="M 115.2750,81.7375
115.2569,81.8284
115.2054,81.9054
115.1284,81.9569
115.0375,81.9750
114.5375,81.9750
114.4466,81.9569
114.3696,81.9054
114.3181,81.8284
114.3000,81.7375
114.3000,81.2625
114.3181,81.1716
114.3696,81.0946
114.4466,81.0431
114.5375,81.0250
115.0375,81.0250
115.1284,81.0431
115.2054,81.0946
115.2569,81.1716
115.2750,81.2625
Z" /> 
</g>
<g >
</g>
<g style="fill:#000000; fill-opacity:1.0000; 
stroke:#000000; stroke-width:0.0000; stroke-opacity:1; 
stroke-linecap:round; stroke-linejoin:round;">
<path style="fill:#000000; fill-opacity:1.0000; 
stroke:#000000; stroke-width:0.0000; stroke-opacity:1; 
stroke-linecap:round; stroke-linejoin:round;fill-rule:evenodd;"
d="M 117.1000,83.4375
117.0819,83.5284
117.0304,83.6054
116.9534,83.6569
116.8625,83.6750
116.3625,83.6750
116.2716,83.6569
116.1946,83.6054
116.1431,83.5284
116.1250,83.4375
116.1250,82.9625
116.1431,82.8716
116.1946,82.7946
116.2716,82.7431
116.3625,82.7250
116.8625,82.7250
116.9534,82.7431
117.0304,82.7946
117.0819,82.8716
117.1000,82.9625
Z" /> 
<path style="fill:#000000; fill-opacity:1.0000; 
stroke:#000000; stroke-width:0.0000; stroke-opacity:1; 
stroke-linecap:round; stroke-linejoin:round;fill-rule:evenodd;"
d="M 115.2750,83.4375
115.2569,83.5284
115.2054,83.6054
115.1284,83.6569
115.0375,83.6750
114.5375,83.6750
114.4466,83.6569
114.3696,83.6054
114.3181,83.5284
114.3000,83.4375
114.3000,82.9625
114.3181,82.8716
114.3696,82.7946
114.4466,82.7431
114.5375,82.7250
115.0375,82.7250
115.1284,82.7431
115.2054,82.7946
115.2569,82.8716
115.2750,82.9625
Z" /> 
</g>
<g >
</g>
<g >
</g>
<g style="fill:#000000; fill-opacity:1.0000; 
stroke:#000000; stroke-width:0.0000; stroke-opacity:1; 
stroke-linecap:round; stroke-linejoin:round;">
<path style="fill:#000000; fill-opacity:1.0000; 
stroke:#000000; stroke-width:0.0000; stroke-opacity:1; 
stroke-linecap:round; stroke-linejoin:round;fill-rule:evenodd;"
d="M 138.8500,73.7250
138.7543,73.7060
138.6732,73.6518
138.6190,73.5707
138.6000,73.4750
138.6000,72.6500
138.6190,72.5543
138.6732,72.4732
138.7543,72.4190
138.8500,72.4000
140.1500,72.4000
140.2457,72.4190
140.3268,72.4732
140.3810,72.5543
140.4000,72.6500
140.4000,73.4750
140.3810,73.5707
140.3268,73.6518
140.2457,73.7060
140.1500,73.7250
Z" /> 
<path style="fill:#000000; fill-opacity:1.0000; 
stroke:#000000; stroke-width:0.0000; stroke-opacity:1; 
stroke-linecap:round; stroke-linejoin:round;fill-rule:evenodd;"
d="M 138.8500,70.6000
138.7543,70.5810
138.6732,70.5268
138.6190,70.4457
138.6000,70.3500
138.6000,69.5250
138.6190,69.4293
138.6732,69.3482
138.7543,69.2940
138.8500,69.2750
140.1500,69.2750
140.2457,69.2940
140.3268,69.3482
140.3810,69.4293
140.4000,69.5250
140.4000,70.3500
140.3810,70.4457
140.3268,70.5268
140.2457,70.5810
140.1500,70.6000
Z" /> 
</g>
<g >
</g>
<g style="fill:#000000; fill-opacity:1.0000; 
stroke:#000000; stroke-width:0.0000; stroke-opacity:1; 
stroke-linecap:round; stroke-linejoin:round;">
<path style="fill:#000000; fill-opacity:1.0000; 
stroke:#000000; stroke-width:0.0000; stroke-opacity:1; 
stroke-linecap:round; stroke-linejoin:round;fill-rule:evenodd;"
d="M 137.7640,69.2750
137.8597,69.2940
137.9408,69.3482
137.9950,69.4293
138.0140,69.5250
138.0140,70.3500
137.9950,70.4457
137.9408,70.5268
137.8597,70.5810
137.7640,70.6000
136.4640,70.6000
136.3683,70.5810
136.2872,70.5268
136.2330,70.4457
136.2140,70.3500
136.2140,69.5250
136.2330,69.4293
136.2872,69.3482
136.3683,69.2940
136.4640,69.2750
Z" /> 
<path style="fill:#000000; fill-opacity:1.0000; 
stroke:#000000; stroke-width:0.0000; stroke-opacity:1; 
stroke-linecap:round; stroke-linejoin:round;fill-rule:evenodd;"
d="M 137.7640,72.4000
137.8597,72.4190
137.9408,72.4732
137.9950,72.5543
138.0140,72.6500
138.0140,73.4750
137.9950,73.5707
137.9408,73.6518
137.8597,73.7060
137.7640,73.7250
136.4640,73.7250
136.3683,73.7060
136.2872,73.6518
136.2330,73.5707
136.2140,73.4750
136.2140,72.6500
136.2330,72.5543
136.2872,72.4732
136.3683,72.4190
136.4640,72.4000
Z" /> 
</g>
<g >
</g>
<g style="fill:#000000; fill-opacity:1.0000; 
stroke:#000000; stroke-width:0.0000; stroke-opacity:1; 
stroke-linecap:round; stroke-linejoin:round;">
<path style="fill:#000000; fill-opacity:1.0000; 
stroke:#000000; stroke-width:0.0000; stroke-opacity:1; 
stroke-linecap:round; stroke-linejoin:round;fill-rule:evenodd;"
d="M 137.7500,78.6750
137.8457,78.6940
137.9268,78.7482
137.9810,78.8293
138.0000,78.9250
138.0000,79.7500
137.9810,79.8457
137.9268,79.9268
137.8457,79.9810
137.7500,80.0000
136.4500,80.0000
136.3543,79.9810
136.2732,79.9268
136.2190,79.8457
136.2000,79.7500
136.2000,78.9250
136.2190,78.8293
136.2732,78.7482
136.3543,78.6940
136.4500,78.6750
Z" /> 
<path style="fill:#000000; fill-opacity:1.0000; 
stroke:#000000; stroke-width:0.0000; stroke-opacity:1; 
stroke-linecap:round; stroke-linejoin:round;fill-rule:evenodd;"
d="M 137.7500,81.8000
137.8457,81.8190
137.9268,81.8732
137.9810,81.9543
138.0000,82.0500
138.0000,82.8750
137.9810,82.9707
137.9268,83.0518
137.8457,83.1060
137.7500,83.1250
136.4500,83.1250
136.3543,83.1060
136.2732,83.0518
136.2190,82.9707
136.2000,82.8750
136.2000,82.0500
136.2190,81.9543
136.2732,81.8732
136.3543,81.8190
136.4500,81.8000
Z" /> 
</g>
<g >
</g>
<g >
</g>
<g style="fill:#000000; fill-opacity:1.0000; 
stroke:#000000; stroke-width:0.0000; stroke-opacity:1; 
stroke-linecap:round; stroke-linejoin:round;">
<path style="fill:#000000; fill-opacity:1.0000; 
stroke:#000000; stroke-width:0.0000; stroke-opacity:1; 
stroke-linecap:round; stroke-linejoin:round;fill-rule:evenodd;"
d="M 134.2500,95.5500
134.2500,96.3500
133.3500,96.3500
133.3500,95.5500
Z" /> 
<path style="fill:#000000; fill-opacity:1.0000; 
stroke:#000000; stroke-width:0.0000; stroke-opacity:1; 
stroke-linecap:round; stroke-linejoin:round;fill-rule:evenodd;"
d="M 134.2500,93.6500
134.2500,94.4500
133.3500,94.4500
133.3500,93.6500
Z" /> 
<path style="fill:#000000; fill-opacity:1.0000; 
stroke:#000000; stroke-width:0.0000; stroke-opacity:1; 
stroke-linecap:round; stroke-linejoin:round;fill-rule:evenodd;"
d="M 132.2500,94.6000
132.2500,95.4000
131.3500,95.4000
131.3500,94.6000
Z" /> 
</g>
<g >
</g>
<g style="fill:#000000; fill-opacity:1.0000; 
stroke:#000000; stroke-width:0.0000; stroke-opacity:1; 
stroke-linecap:round; stroke-linejoin:round;">
<path style="fill:#000000; fill-opacity:1.0000; 
stroke:#000000; stroke-width:0.0000; stroke-opacity:1; 
stroke-linecap:round; stroke-linejoin:round;fill-rule:evenodd;"
d="M 135.3987,96.3962
135.3078,96.3781
135.2308,96.3266
135.1793,96.2496
135.1612,96.1587
135.1612,95.6587
135.1793,95.5678
135.2308,95.4908
135.3078,95.4393
135.3987,95.4212
135.8737,95.4212
135.9646,95.4393
136.0416,95.4908
136.0931,95.5678
136.1112,95.6587
136.1112,96.1587
136.0931,96.2496
136.0416,96.3266
135.9646,96.3781
135.8737,96.3962
Z" /> 
<path style="fill:#000000; fill-opacity:1.0000; 
stroke:#000000; stroke-width:0.0000; stroke-opacity:1; 
stroke-linecap:round; stroke-linejoin:round;fill-rule:evenodd;"
d="M 135.3987,94.5712
135.3078,94.5531
135.2308,94.5016
135.1793,94.4246
135.1612,94.3337
135.1612,93.8337
135.1793,93.7428
135.2308,93.6658
135.3078,93.6143
135.3987,93.5962
135.8737,93.5962
135.9646,93.6143
136.0416,93.6658
136.0931,93.7428
136.1112,93.8337
136.1112,94.3337
136.0931,94.4246
136.0416,94.5016
135.9646,94.5531
135.8737,94.5712
Z" /> 
</g>
<g >
</g>
<g style="fill:#000000; fill-opacity:1.0000; 
stroke:#000000; stroke-width:0.0000; stroke-opacity:1; 
stroke-linecap:round; stroke-linejoin:round;">
<path style="fill:#000000; fill-opacity:1.0000; 
stroke:#000000; stroke-width:0.0000; stroke-opacity:1; 
stroke-linecap:round; stroke-linejoin:round;fill-rule:evenodd;"
d="M 117.1000,78.4875
117.0819,78.5784
117.0304,78.6554
116.9534,78.7069
116.8625,78.7250
116.3625,78.7250
116.2716,78.7069
116.1946,78.6554
116.1431,78.5784
116.1250,78.4875
116.1250,78.0125
116.1431,77.9216
116.1946,77.8446
116.2716,77.7931
116.3625,77.7750
116.8625,77.7750
116.9534,77.7931
117.0304,77.8446
117.0819,77.9216
117.1000,78.0125
Z" /> 
<path style="fill:#000000; fill-opacity:1.0000; 
stroke:#000000; stroke-width:0.0000; stroke-opacity:1; 
stroke-linecap:round; stroke-linejoin:round;fill-rule:evenodd;"
d="M 115.2750,78.4875
115.2569,78.5784
115.2054,78.6554
115.1284,78.7069
115.0375,78.7250
114.5375,78.7250
114.4466,78.7069
114.3696,78.6554
114.3181,78.5784
114.3000,78.4875
114.3000,78.0125
114.3181,77.9216
114.3696,77.8446
114.4466,77.7931
114.5375,77.7750
115.0375,77.7750
115.1284,77.7931
115.2054,77.8446
115.2569,77.9216
115.2750,78.0125
Z" /> 
</g>
<g >
</g>
<g style="fill:#000000; fill-opacity:1.0000; 
stroke:#000000; stroke-width:0.0000; stroke-opacity:1; 
stroke-linecap:round; stroke-linejoin:round;">
<path style="fill:#000000; fill-opacity:1.0000; 
stroke:#000000; stroke-width:0.0000; stroke-opacity:1; 
stroke-linecap:round; stroke-linejoin:round;fill-rule:evenodd;"
d="M 117.1500,85.3875
117.1319,85.4784
117.0804,85.5554
117.0034,85.6069
116.9125,85.6250
116.4125,85.6250
116.3216,85.6069
116.2446,85.5554
116.1931,85.4784
116.1750,85.3875
116.1750,84.9125
116.1931,84.8216
116.2446,84.7446
116.3216,84.6931
116.4125,84.6750
116.9125,84.6750
117.0034,84.6931
117.0804,84.7446
117.1319,84.8216
117.1500,84.9125
Z" /> 
<path style="fill:#000000; fill-opacity:1.0000; 
stroke:#000000; stroke-width:0.0000; stroke-opacity:1; 
stroke-linecap:round; stroke-linejoin:round;fill-rule:evenodd;"
d="M 115.3250,85.3875
115.3069,85.4784
115.2554,85.5554
115.1784,85.6069
115.0875,85.6250
114.5875,85.6250
114.4966,85.6069
114.4196,85.5554
114.3681,85.4784
114.3500,85.3875
114.3500,84.9125
114.3681,84.8216
114.4196,84.7446
114.4966,84.6931
114.5875,84.6750
115.0875,84.6750
115.1784,84.6931
115.2554,84.7446
115.3069,84.8216
115.3250,84.9125
Z" /> 
</g>
<g >
</g>
<g style="fill:#000000; fill-opacity:1.0000; 
stroke:#000000; stroke-width:0.0000; stroke-opacity:1; 
stroke-linecap:round; stroke-linejoin:round;">
<path style="fill:#000000; fill-opacity:1.0000; 
stroke:#000000; stroke-width:0.0000; stroke-opacity:1; 
stroke-linecap:round; stroke-linejoin:round;fill-rule:evenodd;"
d="M 117.1000,80.0875
117.0819,80.1784
117.0304,80.2554
116.9534,80.3069
116.8625,80.3250
116.3625,80.3250
116.2716,80.3069
116.1946,80.2554
116.1431,80.1784
116.1250,80.0875
116.1250,79.6125
116.1431,79.5216
116.1946,79.4446
116.2716,79.3931
116.3625,79.3750
116.8625,79.3750
116.9534,79.3931
117.0304,79.4446
117.0819,79.5216
117.1000,79.6125
Z" /> 
<path style="fill:#000000; fill-opacity:1.0000; 
stroke:#000000; stroke-width:0.0000; stroke-opacity:1; 
stroke-linecap:round; stroke-linejoin:round;fill-rule:evenodd;"
d="M 115.2750,80.0875
115.2569,80.1784
115.2054,80.2554
115.1284,80.3069
115.0375,80.3250
114.5375,80.3250
114.4466,80.3069
114.3696,80.2554
114.3181,80.1784
114.3000,80.0875
114.3000,79.6125
114.3181,79.5216
114.3696,79.4446
114.4466,79.3931
114.5375,79.3750
115.0375,79.3750
115.1284,79.3931
115.2054,79.4446
115.2569,79.5216
115.2750,79.6125
Z" /> 
</g>
<g >
</g>
<g style="fill:#000000; fill-opacity:1.0000; 
stroke:#000000; stroke-width:0.0000; stroke-opacity:1; 
stroke-linecap:round; stroke-linejoin:round;">
<path style="fill:#000000; fill-opacity:1.0000; 
stroke:#000000; stroke-width:0.0000; stroke-opacity:1; 
stroke-linecap:round; stroke-linejoin:round;fill-rule:evenodd;"
d="M 117.1500,86.9875
117.1319,87.0784
117.0804,87.1554
117.0034,87.2069
116.9125,87.2250
116.4125,87.2250
116.3216,87.2069
116.2446,87.1554
116.1931,87.0784
116.1750,86.9875
116.1750,86.5125
116.1931,86.4216
116.2446,86.3446
116.3216,86.2931
116.4125,86.2750
116.9125,86.2750
117.0034,86.2931
117.0804,86.3446
117.1319,86.4216
117.1500,86.5125
Z" /> 
<path style="fill:#000000; fill-opacity:1.0000; 
stroke:#000000; stroke-width:0.0000; stroke-opacity:1; 
stroke-linecap:round; stroke-linejoin:round;fill-rule:evenodd;"
d="M 115.3250,86.9875
115.3069,87.0784
115.2554,87.1554
115.1784,87.2069
115.0875,87.2250
114.5875,87.2250
114.4966,87.2069
114.4196,87.1554
114.3681,87.0784
114.3500,86.9875
114.3500,86.5125
114.3681,86.4216
114.4196,86.3446
114.4966,86.2931
114.5875,86.2750
115.0875,86.2750
115.1784,86.2931
115.2554,86.3446
115.3069,86.4216
115.3250,86.5125
Z" /> 
</g>
<g >
</g>
<g style="fill:#000000; fill-opacity:1.0000; 
stroke:#000000; stroke-width:0.0000; stroke-opacity:1; 
stroke-linecap:round; stroke-linejoin:round;">
<path style="fill:#000000; fill-opacity:1.0000; 
stroke:#000000; stroke-width:0.0000; stroke-opacity:1; 
stroke-linecap:round; stroke-linejoin:round;fill-rule:evenodd;"
d="M 128.7750,72.0250
128.7902,71.9485
128.8336,71.8836
128.8985,71.8402
128.9750,71.8250
129.3750,71.8250
129.4515,71.8402
129.5164,71.8836
129.5598,71.9485
129.5750,72.0250
129.5750,72.5750
129.5598,72.6515
129.5164,72.7164
129.4515,72.7598
129.3750,72.7750
128.9750,72.7750
128.8985,72.7598
128.8336,72.7164
128.7902,72.6515
128.7750,72.5750
Z" /> 
<path style="fill:#000000; fill-opacity:1.0000; 
stroke:#000000; stroke-width:0.0000; stroke-opacity:1; 
stroke-linecap:round; stroke-linejoin:round;fill-rule:evenodd;"
d="M 130.4250,72.0250
130.4402,71.9485
130.4836,71.8836
130.5485,71.8402
130.6250,71.8250
131.0250,71.8250
131.1015,71.8402
131.1664,71.8836
131.2098,71.9485
131.2250,72.0250
131.2250,72.5750
131.2098,72.6515
131.1664,72.7164
131.1015,72.7598
131.0250,72.7750
130.6250,72.7750
130.5485,72.7598
130.4836,72.7164
130.4402,72.6515
130.4250,72.5750
Z" /> 
</g>
<g >
</g>
<g style="fill:#000000; fill-opacity:1.0000; 
stroke:#000000; stroke-width:0.0000; stroke-opacity:1; 
stroke-linecap:round; stroke-linejoin:round;">
<path style="fill:#000000; fill-opacity:1.0000; 
stroke:#000000; stroke-width:0.0000; stroke-opacity:1; 
stroke-linecap:round; stroke-linejoin:round;fill-rule:evenodd;"
d="M 131.2250,71.0750
131.2098,71.1515
131.1664,71.2164
131.1015,71.2598
131.0250,71.2750
130.6250,71.2750
130.5485,71.2598
130.4836,71.2164
130.4402,71.1515
130.4250,71.0750
130.4250,70.5250
130.4402,70.4485
130.4836,70.3836
130.5485,70.3402
130.6250,70.3250
131.0250,70.3250
131.1015,70.3402
131.1664,70.3836
131.2098,70.4485
131.2250,70.5250
Z" /> 
<path style="fill:#000000; fill-opacity:1.0000; 
stroke:#000000; stroke-width:0.0000; stroke-opacity:1; 
stroke-linecap:round; stroke-linejoin:round;fill-rule:evenodd;"
d="M 129.5750,71.0750
129.5598,71.1515
129.5164,71.2164
129.4515,71.2598
129.3750,71.2750
128.9750,71.2750
128.8985,71.2598
128.8336,71.2164
128.7902,71.1515
128.7750,71.0750
128.7750,70.5250
128.7902,70.4485
128.8336,70.3836
128.8985,70.3402
128.9750,70.3250
129.3750,70.3250
129.4515,70.3402
129.5164,70.3836
129.5598,70.4485
129.5750,70.5250
Z" /> 
</g>
<g >
</g>
<g style="fill:#000000; fill-opacity:1.0000; 
stroke:#000000; stroke-width:0.0000; stroke-opacity:1; 
stroke-linecap:round; stroke-linejoin:round;">
<path style="fill:#000000; fill-opacity:1.0000; 
stroke:#000000; stroke-width:0.0000; stroke-opacity:1; 
stroke-linecap:round; stroke-linejoin:round;fill-rule:evenodd;"
d="M 140.1500,78.6750
140.2457,78.6940
140.3268,78.7482
140.3810,78.8293
140.4000,78.9250
140.4000,79.7500
140.3810,79.8457
140.3268,79.9268
140.2457,79.9810
140.1500,80.0000
138.8500,80.0000
138.7543,79.9810
138.6732,79.9268
138.6190,79.8457
138.6000,79.7500
138.6000,78.9250
138.6190,78.8293
138.6732,78.7482
138.7543,78.6940
138.8500,78.6750
Z" /> 
<path style="fill:#000000; fill-opacity:1.0000; 
stroke:#000000; stroke-width:0.0000; stroke-opacity:1; 
stroke-linecap:round; stroke-linejoin:round;fill-rule:evenodd;"
d="M 140.1500,81.8000
140.2457,81.8190
140.3268,81.8732
140.3810,81.9543
140.4000,82.0500
140.4000,82.8750
140.3810,82.9707
140.3268,83.0518
140.2457,83.1060
140.1500,83.1250
138.8500,83.1250
138.7543,83.1060
138.6732,83.0518
138.6190,82.9707
138.6000,82.8750
138.6000,82.0500
138.6190,81.9543
138.6732,81.8732
138.7543,81.8190
138.8500,81.8000
Z" /> 
</g>
<g >
</g>
<g >
</g>
<g style="fill:#000000; fill-opacity:1.0000; 
stroke:#000000; stroke-width:0.0000; stroke-opacity:1; 
stroke-linecap:round; stroke-linejoin:round;">
<path style="fill:#000000; fill-opacity:1.0000; 
stroke:#000000; stroke-width:0.0000; stroke-opacity:1; 
stroke-linecap:round; stroke-linejoin:round;fill-rule:evenodd;"
d="M 117.4750,66.0250
117.4598,66.1015
117.4164,66.1664
117.3515,66.2098
117.2750,66.2250
116.8750,66.2250
116.7985,66.2098
116.7336,66.1664
116.6902,66.1015
116.6750,66.0250
116.6750,65.4750
116.6902,65.3985
116.7336,65.3336
116.7985,65.2902
116.8750,65.2750
117.2750,65.2750
117.3515,65.2902
117.4164,65.3336
117.4598,65.3985
117.4750,65.4750
Z" /> 
<path style="fill:#000000; fill-opacity:1.0000; 
stroke:#000000; stroke-width:0.0000; stroke-opacity:1; 
stroke-linecap:round; stroke-linejoin:round;fill-rule:evenodd;"
d="M 115.8250,66.0250
115.8098,66.1015
115.7664,66.1664
115.7015,66.2098
115.6250,66.2250
115.2250,66.2250
115.1485,66.2098
115.0836,66.1664
115.0402,66.1015
115.0250,66.0250
115.0250,65.4750
115.0402,65.3985
115.0836,65.3336
115.1485,65.2902
115.2250,65.2750
115.6250,65.2750
115.7015,65.2902
115.7664,65.3336
115.8098,65.3985
115.8250,65.4750
Z" /> 
</g>
<g >
</g>
<g >
</g>
<g style="fill:#000000; fill-opacity:1.0000; 
stroke:#000000; stroke-width:0.0000; stroke-opacity:1; 
stroke-linecap:round; stroke-linejoin:round;">
<path style="fill:#000000; fill-opacity:1.0000; 
stroke:#000000; stroke-width:0.0000; stroke-opacity:1; 
stroke-linecap:round; stroke-linejoin:round;fill-rule:evenodd;"
d="M 131.2150,65.8750
131.1998,65.9515
131.1564,66.0164
131.0915,66.0598
131.0150,66.0750
130.6150,66.0750
130.5385,66.0598
130.4736,66.0164
130.4302,65.9515
130.4150,65.8750
130.4150,65.3250
130.4302,65.2485
130.4736,65.1836
130.5385,65.1402
130.6150,65.1250
131.0150,65.1250
131.0915,65.1402
131.1564,65.1836
131.1998,65.2485
131.2150,65.3250
Z" /> 
<path style="fill:#000000; fill-opacity:1.0000; 
stroke:#000000; stroke-width:0.0000; stroke-opacity:1; 
stroke-linecap:round; stroke-linejoin:round;fill-rule:evenodd;"
d="M 129.5650,65.8750
129.5498,65.9515
129.5064,66.0164
129.4415,66.0598
129.3650,66.0750
128.9650,66.0750
128.8885,66.0598
128.8236,66.0164
128.7802,65.9515
128.7650,65.8750
128.7650,65.3250
128.7802,65.2485
128.8236,65.1836
128.8885,65.1402
128.9650,65.1250
129.3650,65.1250
129.4415,65.1402
129.5064,65.1836
129.5498,65.2485
129.5650,65.3250
Z" /> 
</g>
<g >
</g>
<g style="fill:#000000; fill-opacity:1.0000; 
stroke:#000000; stroke-width:0.0000; stroke-opacity:1; 
stroke-linecap:round; stroke-linejoin:round;">
<path style="fill:#000000; fill-opacity:1.0000; 
stroke:#000000; stroke-width:0.0000; stroke-opacity:1; 
stroke-linecap:round; stroke-linejoin:round;fill-rule:evenodd;"
d="M 128.7750,63.7500
128.7921,63.6639
128.8409,63.5909
128.9139,63.5421
129.0000,63.5250
129.4500,63.5250
129.5361,63.5421
129.6091,63.5909
129.6579,63.6639
129.6750,63.7500
129.6750,64.2500
129.6579,64.3361
129.6091,64.4091
129.5361,64.4579
129.4500,64.4750
129.0000,64.4750
128.9139,64.4579
128.8409,64.4091
128.7921,64.3361
128.7750,64.2500
Z" /> 
<path style="fill:#000000; fill-opacity:1.0000; 
stroke:#000000; stroke-width:0.0000; stroke-opacity:1; 
stroke-linecap:round; stroke-linejoin:round;fill-rule:evenodd;"
d="M 130.3250,63.7500
130.3421,63.6639
130.3909,63.5909
130.4639,63.5421
130.5500,63.5250
131.0000,63.5250
131.0861,63.5421
131.1591,63.5909
131.2079,63.6639
131.2250,63.7500
131.2250,64.2500
131.2079,64.3361
131.1591,64.4091
131.0861,64.4579
131.0000,64.4750
130.5500,64.4750
130.4639,64.4579
130.3909,64.4091
130.3421,64.3361
130.3250,64.2500
Z" /> 
</g>
<g >
</g>
<g style="fill:#000000; fill-opacity:1.0000; 
stroke:#000000; stroke-width:0.0000; stroke-opacity:1; 
stroke-linecap:round; stroke-linejoin:round;">
<path style="fill:#000000; fill-opacity:1.0000; 
stroke:#000000; stroke-width:0.0000; stroke-opacity:1; 
stroke-linecap:round; stroke-linejoin:round;fill-rule:evenodd;"
d="M 107.2200,57.7200
107.2200,56.7200
110.2200,56.7200
110.2200,57.7200
Z" /> 
<path style="fill:#000000; fill-opacity:1.0000; 
stroke:#000000; stroke-width:0.0000; stroke-opacity:1; 
stroke-linecap:round; stroke-linejoin:round;fill-rule:evenodd;"
d="M 102.1800,57.7200
102.1800,56.7200
105.1800,56.7200
105.1800,57.7200
Z" /> 
<path style="fill:#000000; fill-opacity:1.0000; 
stroke:#000000; stroke-width:0.0000; stroke-opacity:1; 
stroke-linecap:round; stroke-linejoin:round;fill-rule:evenodd;"
d="M 107.2200,60.2600
107.2200,59.2600
110.2200,59.2600
110.2200,60.2600
Z" /> 
<path style="fill:#000000; fill-opacity:1.0000; 
stroke:#000000; stroke-width:0.0000; stroke-opacity:1; 
stroke-linecap:round; stroke-linejoin:round;fill-rule:evenodd;"
d="M 102.1800,60.2600
102.1800,59.2600
105.1800,59.2600
105.1800,60.2600
Z" /> 
<path style="fill:#000000; fill-opacity:1.0000; 
stroke:#000000; stroke-width:0.0000; stroke-opacity:1; 
stroke-linecap:round; stroke-linejoin:round;fill-rule:evenodd;"
d="M 107.2200,62.8000
107.2200,61.8000
110.2200,61.8000
110.2200,62.8000
Z" /> 
<path style="fill:#000000; fill-opacity:1.0000; 
stroke:#000000; stroke-width:0.0000; stroke-opacity:1; 
stroke-linecap:round; stroke-linejoin:round;fill-rule:evenodd;"
d="M 102.1800,62.8000
102.1800,61.8000
105.1800,61.8000
105.1800,62.8000
Z" /> 
<path style="fill:#000000; fill-opacity:1.0000; 
stroke:#000000; stroke-width:0.0000; stroke-opacity:1; 
stroke-linecap:round; stroke-linejoin:round;fill-rule:evenodd;"
d="M 107.2200,65.3400
107.2200,64.3400
110.2200,64.3400
110.2200,65.3400
Z" /> 
<path style="fill:#000000; fill-opacity:1.0000; 
stroke:#000000; stroke-width:0.0000; stroke-opacity:1; 
stroke-linecap:round; stroke-linejoin:round;fill-rule:evenodd;"
d="M 102.1800,65.3400
102.1800,64.3400
105.1800,64.3400
105.1800,65.3400
Z" /> 
<path style="fill:#000000; fill-opacity:1.0000; 
stroke:#000000; stroke-width:0.0000; stroke-opacity:1; 
stroke-linecap:round; stroke-linejoin:round;fill-rule:evenodd;"
d="M 107.2200,67.8800
107.2200,66.8800
110.2200,66.8800
110.2200,67.8800
Z" /> 
<path style="fill:#000000; fill-opacity:1.0000; 
stroke:#000000; stroke-width:0.0000; stroke-opacity:1; 
stroke-linecap:round; stroke-linejoin:round;fill-rule:evenodd;"
d="M 102.1800,67.8800
102.1800,66.8800
105.1800,66.8800
105.1800,67.8800
Z" /> 
<path style="fill:#000000; fill-opacity:1.0000; 
stroke:#000000; stroke-width:0.0000; stroke-opacity:1; 
stroke-linecap:round; stroke-linejoin:round;fill-rule:evenodd;"
d="M 107.2200,70.4200
107.2200,69.4200
110.2200,69.4200
110.2200,70.4200
Z" /> 
<path style="fill:#000000; fill-opacity:1.0000; 
stroke:#000000; stroke-width:0.0000; stroke-opacity:1; 
stroke-linecap:round; stroke-linejoin:round;fill-rule:evenodd;"
d="M 102.1800,70.4200
102.1800,69.4200
105.1800,69.4200
105.1800,70.4200
Z" /> 
<path style="fill:#000000; fill-opacity:1.0000; 
stroke:#000000; stroke-width:0.0000; stroke-opacity:1; 
stroke-linecap:round; stroke-linejoin:round;fill-rule:evenodd;"
d="M 107.2200,72.9600
107.2200,71.9600
110.2200,71.9600
110.2200,72.9600
Z" /> 
<path style="fill:#000000; fill-opacity:1.0000; 
stroke:#000000; stroke-width:0.0000; stroke-opacity:1; 
stroke-linecap:round; stroke-linejoin:round;fill-rule:evenodd;"
d="M 102.1800,72.9600
102.1800,71.9600
105.1800,71.9600
105.1800,72.9600
Z" /> 
<path style="fill:#000000; fill-opacity:1.0000; 
stroke:#000000; stroke-width:0.0000; stroke-opacity:1; 
stroke-linecap:round; stroke-linejoin:round;fill-rule:evenodd;"
d="M 107.2200,75.5000
107.2200,74.5000
110.2200,74.5000
110.2200,75.5000
Z" /> 
<path style="fill:#000000; fill-opacity:1.0000; 
stroke:#000000; stroke-width:0.0000; stroke-opacity:1; 
stroke-linecap:round; stroke-linejoin:round;fill-rule:evenodd;"
d="M 102.1800,75.5000
102.1800,74.5000
105.1800,74.5000
105.1800,75.5000
Z" /> 
<path style="fill:#000000; fill-opacity:1.0000; 
stroke:#000000; stroke-width:0.0000; stroke-opacity:1; 
stroke-linecap:round; stroke-linejoin:round;fill-rule:evenodd;"
d="M 107.2200,78.0400
107.2200,77.0400
110.2200,77.0400
110.2200,78.0400
Z" /> 
<path style="fill:#000000; fill-opacity:1.0000; 
stroke:#000000; stroke-width:0.0000; stroke-opacity:1; 
stroke-linecap:round; stroke-linejoin:round;fill-rule:evenodd;"
d="M 102.1800,78.0400
102.1800,77.0400
105.1800,77.0400
105.1800,78.0400
Z" /> 
<path style="fill:#000000; fill-opacity:1.0000; 
stroke:#000000; stroke-width:0.0000; stroke-opacity:1; 
stroke-linecap:round; stroke-linejoin:round;fill-rule:evenodd;"
d="M 107.2200,80.5800
107.2200,79.5800
110.2200,79.5800
110.2200,80.5800
Z" /> 
<path style="fill:#000000; fill-opacity:1.0000; 
stroke:#000000; stroke-width:0.0000; stroke-opacity:1; 
stroke-linecap:round; stroke-linejoin:round;fill-rule:evenodd;"
d="M 102.1800,80.5800
102.1800,79.5800
105.1800,79.5800
105.1800,80.5800
Z" /> 
<path style="fill:#000000; fill-opacity:1.0000; 
stroke:#000000; stroke-width:0.0000; stroke-opacity:1; 
stroke-linecap:round; stroke-linejoin:round;fill-rule:evenodd;"
d="M 107.2200,83.1200
107.2200,82.1200
110.2200,82.1200
110.2200,83.1200
Z" /> 
<path style="fill:#000000; fill-opacity:1.0000; 
stroke:#000000; stroke-width:0.0000; stroke-opacity:1; 
stroke-linecap:round; stroke-linejoin:round;fill-rule:evenodd;"
d="M 102.1800,83.1200
102.1800,82.1200
105.1800,82.1200
105.1800,83.1200
Z" /> 
<path style="fill:#000000; fill-opacity:1.0000; 
stroke:#000000; stroke-width:0.0000; stroke-opacity:1; 
stroke-linecap:round; stroke-linejoin:round;fill-rule:evenodd;"
d="M 107.2200,85.6600
107.2200,84.6600
110.2200,84.6600
110.2200,85.6600
Z" /> 
<path style="fill:#000000; fill-opacity:1.0000; 
stroke:#000000; stroke-width:0.0000; stroke-opacity:1; 
stroke-linecap:round; stroke-linejoin:round;fill-rule:evenodd;"
d="M 102.1800,85.6600
102.1800,84.6600
105.1800,84.6600
105.1800,85.6600
Z" /> 
<path style="fill:#000000; fill-opacity:1.0000; 
stroke:#000000; stroke-width:0.0000; stroke-opacity:1; 
stroke-linecap:round; stroke-linejoin:round;fill-rule:evenodd;"
d="M 107.2200,88.2000
107.2200,87.2000
110.2200,87.2000
110.2200,88.2000
Z" /> 
<path style="fill:#000000; fill-opacity:1.0000; 
stroke:#000000; stroke-width:0.0000; stroke-opacity:1; 
stroke-linecap:round; stroke-linejoin:round;fill-rule:evenodd;"
d="M 102.1800,88.2000
102.1800,87.2000
105.1800,87.2000
105.1800,88.2000
Z" /> 
<path style="fill:#000000; fill-opacity:1.0000; 
stroke:#000000; stroke-width:0.0000; stroke-opacity:1; 
stroke-linecap:round; stroke-linejoin:round;fill-rule:evenodd;"
d="M 107.2200,90.7400
107.2200,89.7400
110.2200,89.7400
110.2200,90.7400
Z" /> 
<path style="fill:#000000; fill-opacity:1.0000; 
stroke:#000000; stroke-width:0.0000; stroke-opacity:1; 
stroke-linecap:round; stroke-linejoin:round;fill-rule:evenodd;"
d="M 102.1800,90.7400
102.1800,89.7400
105.1800,89.7400
105.1800,90.7400
Z" /> 
<path style="fill:#000000; fill-opacity:1.0000; 
stroke:#000000; stroke-width:0.0000; stroke-opacity:1; 
stroke-linecap:round; stroke-linejoin:round;fill-rule:evenodd;"
d="M 107.2200,93.2800
107.2200,92.2800
110.2200,92.2800
110.2200,93.2800
Z" /> 
<path style="fill:#000000; fill-opacity:1.0000; 
stroke:#000000; stroke-width:0.0000; stroke-opacity:1; 
stroke-linecap:round; stroke-linejoin:round;fill-rule:evenodd;"
d="M 102.1800,93.2800
102.1800,92.2800
105.1800,92.2800
105.1800,93.2800
Z" /> 
</g>
<g >
</g>
<g style="fill:#000000; fill-opacity:1.0000; 
stroke:#000000; stroke-width:0.0000; stroke-opacity:1; 
stroke-linecap:round; stroke-linejoin:round;">
<path style="fill:#000000; fill-opacity:1.0000; 
stroke:#000000; stroke-width:0.0000; stroke-opacity:1; 
stroke-linecap:round; stroke-linejoin:round;fill-rule:evenodd;"
d="M 127.7500,52.3500
127.7500,54.1500
125.2500,54.1500
125.2500,52.3500
Z" /> 
<path style="fill:#000000; fill-opacity:1.0000; 
stroke:#000000; stroke-width:0.0000; stroke-opacity:1; 
stroke-linecap:round; stroke-linejoin:round;fill-rule:evenodd;"
d="M 123.7500,52.3500
123.7500,54.1500
121.2500,54.1500
121.2500,52.3500
Z" /> 
</g>
<g >
</g>
<g style="fill:#000000; fill-opacity:1.0000; 
stroke:#000000; stroke-width:0.0000; stroke-opacity:1; 
stroke-linecap:round; stroke-linejoin:round;">
<path style="fill:#000000; fill-opacity:1.0000; 
stroke:#000000; stroke-width:0.0000; stroke-opacity:1; 
stroke-linecap:round; stroke-linejoin:round;fill-rule:evenodd;"
d="M 114.1250,67.2000
114.1364,67.1426
114.1689,67.0939
114.2176,67.0614
114.2750,67.0500
115.4500,67.0500
115.5074,67.0614
115.5561,67.0939
115.5886,67.1426
115.6000,67.2000
115.6000,67.5000
115.5886,67.5574
115.5561,67.6061
115.5074,67.6386
115.4500,67.6500
114.2750,67.6500
114.2176,67.6386
114.1689,67.6061
114.1364,67.5574
114.1250,67.5000
Z" /> 
<path style="fill:#000000; fill-opacity:1.0000; 
stroke:#000000; stroke-width:0.0000; stroke-opacity:1; 
stroke-linecap:round; stroke-linejoin:round;fill-rule:evenodd;"
d="M 114.1250,69.1000
114.1364,69.0426
114.1689,68.9939
114.2176,68.9614
114.2750,68.9500
115.4500,68.9500
115.5074,68.9614
115.5561,68.9939
115.5886,69.0426
115.6000,69.1000
115.6000,69.4000
115.5886,69.4574
115.5561,69.5061
115.5074,69.5386
115.4500,69.5500
114.2750,69.5500
114.2176,69.5386
114.1689,69.5061
114.1364,69.4574
114.1250,69.4000
Z" /> 
<path style="fill:#000000; fill-opacity:1.0000; 
stroke:#000000; stroke-width:0.0000; stroke-opacity:1; 
stroke-linecap:round; stroke-linejoin:round;fill-rule:evenodd;"
d="M 116.0000,68.1500
116.0114,68.0926
116.0439,68.0439
116.0926,68.0114
116.1500,68.0000
117.3250,68.0000
117.3824,68.0114
117.4311,68.0439
117.4636,68.0926
117.4750,68.1500
117.4750,68.4500
117.4636,68.5074
117.4311,68.5561
117.3824,68.5886
117.3250,68.6000
116.1500,68.6000
116.0926,68.5886
116.0439,68.5561
116.0114,68.5074
116.0000,68.4500
Z" /> 
</g>
<g >
</g>
<g style="fill:#000000; fill-opacity:1.0000; 
stroke:#000000; stroke-width:0.0000; stroke-opacity:1; 
stroke-linecap:round; stroke-linejoin:round;">
<path style="fill:#000000; fill-opacity:1.0000; 
stroke:#000000; stroke-width:0.0000; stroke-opacity:1; 
stroke-linecap:round; stroke-linejoin:round;fill-rule:evenodd;"
d="M 131.2250,69.0750
131.2098,69.1515
131.1664,69.2164
131.1015,69.2598
131.0250,69.2750
130.6250,69.2750
130.5485,69.2598
130.4836,69.2164
130.4402,69.1515
130.4250,69.0750
130.4250,68.5250
130.4402,68.4485
130.4836,68.3836
130.5485,68.3402
130.6250,68.3250
131.0250,68.3250
131.1015,68.3402
131.1664,68.3836
131.2098,68.4485
131.2250,68.5250
Z" /> 
<path style="fill:#000000; fill-opacity:1.0000; 
stroke:#000000; stroke-width:0.0000; stroke-opacity:1; 
stroke-linecap:round; stroke-linejoin:round;fill-rule:evenodd;"
d="M 129.5750,69.0750
129.5598,69.1515
129.5164,69.2164
129.4515,69.2598
129.3750,69.2750
128.9750,69.2750
128.8985,69.2598
128.8336,69.2164
128.7902,69.1515
128.7750,69.0750
128.7750,68.5250
128.7902,68.4485
128.8336,68.3836
128.8985,68.3402
128.9750,68.3250
129.3750,68.3250
129.4515,68.3402
129.5164,68.3836
129.5598,68.4485
129.5750,68.5250
Z" /> 
</g>
<g >
</g>
<g style="fill:#000000; fill-opacity:1.0000; 
stroke:#000000; stroke-width:0.0000; stroke-opacity:1; 
stroke-linecap:round; stroke-linejoin:round;">
<path style="fill:#000000; fill-opacity:1.0000; 
stroke:#000000; stroke-width:0.0000; stroke-opacity:1; 
stroke-linecap:round; stroke-linejoin:round;fill-rule:evenodd;"
d="M 118.8500,64.5450
118.8614,64.4876
118.8939,64.4389
118.9426,64.4064
119.0000,64.3950
120.6000,64.3950
120.6574,64.4064
120.7061,64.4389
120.7386,64.4876
120.7500,64.5450
120.7500,64.8450
120.7386,64.9024
120.7061,64.9511
120.6574,64.9836
120.6000,64.9950
119.0000,64.9950
118.9426,64.9836
118.8939,64.9511
118.8614,64.9024
118.8500,64.8450
Z" /> 
<path style="fill:#000000; fill-opacity:1.0000; 
stroke:#000000; stroke-width:0.0000; stroke-opacity:1; 
stroke-linecap:round; stroke-linejoin:round;fill-rule:evenodd;"
d="M 118.8500,65.8150
118.8614,65.7576
118.8939,65.7089
118.9426,65.6764
119.0000,65.6650
120.6000,65.6650
120.6574,65.6764
120.7061,65.7089
120.7386,65.7576
120.7500,65.8150
120.7500,66.1150
120.7386,66.1724
120.7061,66.2211
120.6574,66.2536
120.6000,66.2650
119.0000,66.2650
118.9426,66.2536
118.8939,66.2211
118.8614,66.1724
118.8500,66.1150
Z" /> 
<path style="fill:#000000; fill-opacity:1.0000; 
stroke:#000000; stroke-width:0.0000; stroke-opacity:1; 
stroke-linecap:round; stroke-linejoin:round;fill-rule:evenodd;"
d="M 118.8500,67.0850
118.8614,67.0276
118.8939,66.9789
118.9426,66.9464
119.0000,66.9350
120.6000,66.9350
120.6574,66.9464
120.7061,66.9789
120.7386,67.0276
120.7500,67.0850
120.7500,67.3850
120.7386,67.4424
120.7061,67.4911
120.6574,67.5236
120.6000,67.5350
119.0000,67.5350
118.9426,67.5236
118.8939,67.4911
118.8614,67.4424
118.8500,67.3850
Z" /> 
<path style="fill:#000000; fill-opacity:1.0000; 
stroke:#000000; stroke-width:0.0000; stroke-opacity:1; 
stroke-linecap:round; stroke-linejoin:round;fill-rule:evenodd;"
d="M 118.8500,68.3550
118.8614,68.2976
118.8939,68.2489
118.9426,68.2164
119.0000,68.2050
120.6000,68.2050
120.6574,68.2164
120.7061,68.2489
120.7386,68.2976
120.7500,68.3550
120.7500,68.6550
120.7386,68.7124
120.7061,68.7611
120.6574,68.7936
120.6000,68.8050
119.0000,68.8050
118.9426,68.7936
118.8939,68.7611
118.8614,68.7124
118.8500,68.6550
Z" /> 
<path style="fill:#000000; fill-opacity:1.0000; 
stroke:#000000; stroke-width:0.0000; stroke-opacity:1; 
stroke-linecap:round; stroke-linejoin:round;fill-rule:evenodd;"
d="M 125.8500,68.3550
125.8614,68.2976
125.8939,68.2489
125.9426,68.2164
126.0000,68.2050
127.6000,68.2050
127.6574,68.2164
127.7061,68.2489
127.7386,68.2976
127.7500,68.3550
127.7500,68.6550
127.7386,68.7124
127.7061,68.7611
127.6574,68.7936
127.6000,68.8050
126.0000,68.8050
125.9426,68.7936
125.8939,68.7611
125.8614,68.7124
125.8500,68.6550
Z" /> 
<path style="fill:#000000; fill-opacity:1.0000; 
stroke:#000000; stroke-width:0.0000; stroke-opacity:1; 
stroke-linecap:round; stroke-linejoin:round;fill-rule:evenodd;"
d="M 125.8500,67.0850
125.8614,67.0276
125.8939,66.9789
125.9426,66.9464
126.0000,66.9350
127.6000,66.9350
127.6574,66.9464
127.7061,66.9789
127.7386,67.0276
127.7500,67.0850
127.7500,67.3850
127.7386,67.4424
127.7061,67.4911
127.6574,67.5236
127.6000,67.5350
126.0000,67.5350
125.9426,67.5236
125.8939,67.4911
125.8614,67.4424
125.8500,67.3850
Z" /> 
<path style="fill:#000000; fill-opacity:1.0000; 
stroke:#000000; stroke-width:0.0000; stroke-opacity:1; 
stroke-linecap:round; stroke-linejoin:round;fill-rule:evenodd;"
d="M 125.8500,65.8150
125.8614,65.7576
125.8939,65.7089
125.9426,65.6764
126.0000,65.6650
127.6000,65.6650
127.6574,65.6764
127.7061,65.7089
127.7386,65.7576
127.7500,65.8150
127.7500,66.1150
127.7386,66.1724
127.7061,66.2211
127.6574,66.2536
127.6000,66.2650
126.0000,66.2650
125.9426,66.2536
125.8939,66.2211
125.8614,66.1724
125.8500,66.1150
Z" /> 
<path style="fill:#000000; fill-opacity:1.0000; 
stroke:#000000; stroke-width:0.0000; stroke-opacity:1; 
stroke-linecap:round; stroke-linejoin:round;fill-rule:evenodd;"
d="M 125.8500,64.5450
125.8614,64.4876
125.8939,64.4389
125.9426,64.4064
126.0000,64.3950
127.6000,64.3950
127.6574,64.4064
127.7061,64.4389
127.7386,64.4876
127.7500,64.5450
127.7500,64.8450
127.7386,64.9024
127.7061,64.9511
127.6574,64.9836
127.6000,64.9950
126.0000,64.9950
125.9426,64.9836
125.8939,64.9511
125.8614,64.9024
125.8500,64.8450
Z" /> 
</g>
<g >
</g>
<g style="fill:#000000; fill-opacity:1.0000; 
stroke:#000000; stroke-width:0.0000; stroke-opacity:1; 
stroke-linecap:round; stroke-linejoin:round;">
<path style="fill:#000000; fill-opacity:1.0000; 
stroke:#000000; stroke-width:0.0000; stroke-opacity:1; 
stroke-linecap:round; stroke-linejoin:round;fill-rule:evenodd;"
d="M 116.7250,72.8250
116.6485,72.8098
116.5836,72.7664
116.5402,72.7015
116.5250,72.6250
116.5250,72.2250
116.5402,72.1485
116.5836,72.0836
116.6485,72.0402
116.7250,72.0250
117.2750,72.0250
117.3515,72.0402
117.4164,72.0836
117.4598,72.1485
117.4750,72.2250
117.4750,72.6250
117.4598,72.7015
117.4164,72.7664
117.3515,72.8098
117.2750,72.8250
Z" /> 
<path style="fill:#000000; fill-opacity:1.0000; 
stroke:#000000; stroke-width:0.0000; stroke-opacity:1; 
stroke-linecap:round; stroke-linejoin:round;fill-rule:evenodd;"
d="M 116.7250,71.1750
116.6485,71.1598
116.5836,71.1164
116.5402,71.0515
116.5250,70.9750
116.5250,70.5750
116.5402,70.4985
116.5836,70.4336
116.6485,70.3902
116.7250,70.3750
117.2750,70.3750
117.3515,70.3902
117.4164,70.4336
117.4598,70.4985
117.4750,70.5750
117.4750,70.9750
117.4598,71.0515
117.4164,71.1164
117.3515,71.1598
117.2750,71.1750
Z" /> 
</g>
<g >
</g>
<g style="fill:#000000; fill-opacity:1.0000; 
stroke:#000000; stroke-width:0.0000; stroke-opacity:1; 
stroke-linecap:round; stroke-linejoin:round;">
<path style="fill:#000000; fill-opacity:1.0000; 
stroke:#000000; stroke-width:0.0000; stroke-opacity:1; 
stroke-linecap:round; stroke-linejoin:round;fill-rule:evenodd;"
d="M 131.2250,67.4150
131.2098,67.4915
131.1664,67.5564
131.1015,67.5998
131.0250,67.6150
130.6250,67.6150
130.5485,67.5998
130.4836,67.5564
130.4402,67.4915
130.4250,67.4150
130.4250,66.8650
130.4402,66.7885
130.4836,66.7236
130.5485,66.6802
130.6250,66.6650
131.0250,66.6650
131.1015,66.6802
131.1664,66.7236
131.2098,66.7885
131.2250,66.8650
Z" /> 
<path style="fill:#000000; fill-opacity:1.0000; 
stroke:#000000; stroke-width:0.0000; stroke-opacity:1; 
stroke-linecap:round; stroke-linejoin:round;fill-rule:evenodd;"
d="M 129.5750,67.4150
129.5598,67.4915
129.5164,67.5564
129.4515,67.5998
129.3750,67.6150
128.9750,67.6150
128.8985,67.5998
128.8336,67.5564
128.7902,67.4915
128.7750,67.4150
128.7750,66.8650
128.7902,66.7885
128.8336,66.7236
128.8985,66.6802
128.9750,66.6650
129.3750,66.6650
129.4515,66.6802
129.5164,66.7236
129.5598,66.7885
129.5750,66.8650
Z" /> 
</g>
<g >
</g>
<g style="fill:#000000; fill-opacity:1.0000; 
stroke:#000000; stroke-width:0.0000; stroke-opacity:1; 
stroke-linecap:round; stroke-linejoin:round;">
<path style="fill:#000000; fill-opacity:1.0000; 
stroke:#000000; stroke-width:0.0000; stroke-opacity:1; 
stroke-linecap:round; stroke-linejoin:round;fill-rule:evenodd;"
d="M 115.7250,70.3750
115.8015,70.3902
115.8664,70.4336
115.9098,70.4985
115.9250,70.5750
115.9250,70.9750
115.9098,71.0515
115.8664,71.1164
115.8015,71.1598
115.7250,71.1750
115.1750,71.1750
115.0985,71.1598
115.0336,71.1164
114.9902,71.0515
114.9750,70.9750
114.9750,70.5750
114.9902,70.4985
115.0336,70.4336
115.0985,70.3902
115.1750,70.3750
Z" /> 
<path style="fill:#000000; fill-opacity:1.0000; 
stroke:#000000; stroke-width:0.0000; stroke-opacity:1; 
stroke-linecap:round; stroke-linejoin:round;fill-rule:evenodd;"
d="M 115.7250,72.0250
115.8015,72.0402
115.8664,72.0836
115.9098,72.1485
115.9250,72.2250
115.9250,72.6250
115.9098,72.7015
115.8664,72.7664
115.8015,72.8098
115.7250,72.8250
115.1750,72.8250
115.0985,72.8098
115.0336,72.7664
114.9902,72.7015
114.9750,72.6250
114.9750,72.2250
114.9902,72.1485
115.0336,72.0836
115.0985,72.0402
115.1750,72.0250
Z" /> 
</g>
<g >
</g>
<g style="fill:#000000; fill-opacity:1.0000; 
stroke:#000000; stroke-width:0.0000; stroke-opacity:1; 
stroke-linecap:round; stroke-linejoin:round;">
<path style="fill:#000000; fill-opacity:1.0000; 
stroke:#000000; stroke-width:0.0000; stroke-opacity:1; 
stroke-linecap:round; stroke-linejoin:round;fill-rule:evenodd;"
d="M 137.8800,66.3240
135.7800,66.3240
135.7800,64.9240
137.8800,64.9240
Z" /> 
<path style="fill:#000000; fill-opacity:1.0000; 
stroke:#000000; stroke-width:0.0000; stroke-opacity:1; 
stroke-linecap:round; stroke-linejoin:round;fill-rule:evenodd;"
d="M 137.8800,61.9240
135.7800,61.9240
135.7800,60.5240
137.8800,60.5240
Z" /> 
</g>
<g >
</g>
<g >
</g>
<g >
</g>
<g >
</g>
<g >
</g>
<g >
</g>
</g> 
</svg>
