<?xml version="1.0" standalone="no"?>
 <!DOCTYPE svg PUBLIC "-//W3C//DTD SVG 1.1//EN" 
 "http://www.w3.org/Graphics/SVG/1.1/DTD/svg11.dtd"> 
<svg
  xmlns:svg="http://www.w3.org/2000/svg"
  xmlns="http://www.w3.org/2000/svg"
  xmlns:xlink="http://www.w3.org/1999/xlink"
  version="1.1"
  width="297.0022mm" height="210.0072mm" viewBox="0.0000 0.0000 297.0022 210.0072">
<title>SVG Image created as m5-pantilt-Edge_Cuts.svg date 2023/09/19 04:43:33 </title>
  <desc>Image generated by PCBNEW </desc>
<g style="fill:#000000; fill-opacity:1.0000;stroke:#000000; stroke-opacity:1.0000;
stroke-linecap:round; stroke-linejoin:round;"
 transform="translate(0 0) scale(1 1)">
</g>
<g style="fill:#000000; fill-opacity:0.0; 
stroke:#000000; stroke-width:0.0000; stroke-opacity:1; 
stroke-linecap:round; stroke-linejoin:round;">
</g>
<g style="fill:#000000; fill-opacity:0.0; 
stroke:#000000; stroke-width:0.0500; stroke-opacity:1; 
stroke-linecap:round; stroke-linejoin:round;">
<path d="M140.0000 100.0000
L110.0000 100.0000
" />
<path d="M149.5000 53.0000
L149.5000 60.0000
" />
<path d="M147.0000 50.5000
L140.0000 50.5000
" />
<path d="M100.5000 97.0000
L100.5000 90.0000
" />
<path d="M100.5000 53.0000
L100.5000 60.0000
" />
<path d="M103.0000 50.5000 A2.5000 2.5000 0.0 0 0 100.5000 53.0000" />
<path d="M149.5000 60.0000
L150.0000 60.0000
" />
<path d="M149.5000 90.0000
L150.0000 90.0000
" />
<path d="M140.0000 99.5000
L140.0000 100.0000
" />
<path d="M110.0000 99.5000
L110.0000 100.0000
" />
<path d="M100.5000 90.0000
L100.0000 90.0000
" />
<path d="M100.0000 60.0000
L100.5000 60.0000
" />
<path d="M110.0000 50.0000
L110.0000 50.5000
" />
<circle cx="106.2000" cy="88.9764" r="0.5500" /> 
<path d="M100.0000 90.0000
L100.0000 60.0000
" />
<path d="M100.5000 97.0000 A2.5000 2.5000 0.0 0 0 103.0000 99.5000" />
<path d="M103.0000 99.5000
L110.0000 99.5000
" />
<circle cx="106.2000" cy="61.0296" r="0.5500" /> 
<path d="M147.0000 99.5000 A2.5000 2.5000 0.0 0 0 149.5000 97.0000" />
<path d="M149.5000 53.0000 A2.5000 2.5000 0.0 0 0 147.0000 50.5000" />
<path d="M110.0000 50.0000
L140.0000 50.0000
" />
<circle cx="106.2000" cy="58.5000" r="0.5500" /> 
<path d="M149.5000 97.0000
L149.5000 90.0000
" />
<circle cx="106.2000" cy="91.5500" r="0.5500" /> 
<path d="M103.0000 50.5000
L110.0000 50.5000
" />
<path d="M150.0000 60.0000
L150.0000 90.0000
" />
<path d="M140.0000 50.0000
L140.0000 50.5000
" />
<path d="M147.0000 99.5000
L140.0000 99.5000
" />
<g >
</g>
<g >
</g>
<g >
</g>
<g >
</g>
<g >
</g>
<g >
</g>
<g >
</g>
<g >
</g>
<g >
</g>
<g >
</g>
<g >
</g>
<g >
</g>
<g >
</g>
<g >
</g>
<g >
</g>
<g >
</g>
<g >
</g>
<g >
</g>
<g >
</g>
<g >
</g>
<g >
</g>
<g >
</g>
<g >
</g>
<g >
</g>
<g >
</g>
<g >
</g>
<g >
</g>
<g >
</g>
<g >
</g>
<g >
</g>
<g >
</g>
<g >
</g>
<g >
</g>
<g >
</g>
<g >
</g>
<g >
</g>
<g >
</g>
<g >
</g>
<g >
</g>
<g >
</g>
<g >
</g>
<g >
</g>
</g> 
</svg>
