<?xml version='1.0' encoding='ASCII' standalone='yes'?>
<svg xmlns="http://www.w3.org/2000/svg" version="1.1" width="297.0022mm" height="210.0072mm" viewBox="0.0000 0.0000 297.0022 210.0072">
            <title>Picture generated by PcbDraw </title>
            <desc>Picture generated by PcbDraw</desc>
        <defs><clipPath id="cut-off"><path d=" M 106.2000 88.9764 m-0.5500 0 a 0.5500 0.5500 0 1 0 1.1 0 a 0.5500 0.5500 0 1 0 -1.1 0  M 106.2000 61.0296 m-0.5500 0 a 0.5500 0.5500 0 1 0 1.1 0 a 0.5500 0.5500 0 1 0 -1.1 0  M 106.2000 58.5000 m-0.5500 0 a 0.5500 0.5500 0 1 0 1.1 0 a 0.5500 0.5500 0 1 0 -1.1 0  M 106.2000 91.5500 m-0.5500 0 a 0.5500 0.5500 0 1 0 1.1 0 a 0.5500 0.5500 0 1 0 -1.1 0  M 110.0 100.0 L 110.0 99.5 L 103.0 99.5 A 2.5 2.5 0 0 1 100.5 97.0 L 100.5 90.0 L 100.0 90.0 L 100.0 60.0 L 100.5 60.0 L 100.5 53.0 A 2.5 2.5 0 0 1 103.0 50.5 L 110.0 50.5 L 110.0 50.0 L 140.0 50.0 L 140.0 50.5 L 147.0 50.5 A 2.5 2.5 0 0 1 149.5 53.0 L 149.5 60.0 L 150.0 60.0 L 150.0 90.0 L 149.5 90.0 L 149.5 97.0 A 2.5 2.5 0 0 1 147.0 99.5 L 140.0 99.5 L 140.0 100.0 L 110.0 100.0 " style="fill-rule: evenodd;"/></clipPath><mask id="pads-mask-silkscreen"><rect x="88.835477" y="46.70175" width="65.512773" height="59.204672" fill="white"/><g style="fill:#000000; fill-opacity:0.0;  stroke:#000000; stroke-width:0.0000; stroke-opacity:1;  stroke-linecap:round; stroke-linejoin:round;">
<g style="fill:#000000; fill-opacity:1.0000;  stroke:#000000; stroke-width:0.0000; stroke-opacity:1;  stroke-linecap:round; stroke-linejoin:round;">
<circle cx="107.3000" cy="96.8500" r="1.0510"/> 
</g>
<g style="fill:#000000; fill-opacity:1.0000;  stroke:#000000; stroke-width:0.0000; stroke-opacity:1;  stroke-linecap:round; stroke-linejoin:round;">
<circle cx="103.1500" cy="96.8500" r="1.5510"/> 
</g>
<g style="fill:#000000; fill-opacity:1.0000;  stroke:#000000; stroke-width:0.0000; stroke-opacity:1;  stroke-linecap:round; stroke-linejoin:round;">
<circle cx="142.7000" cy="96.8500" r="1.0510"/> 
</g>
<g style="fill:#000000; fill-opacity:1.0000;  stroke:#000000; stroke-width:0.0000; stroke-opacity:1;  stroke-linecap:round; stroke-linejoin:round;">
<circle cx="146.8500" cy="96.8500" r="1.5510"/> 
</g>
<g style="fill:#000000; fill-opacity:1.0000;  stroke:#000000; stroke-width:0.0000; stroke-opacity:1;  stroke-linecap:round; stroke-linejoin:round;">
<circle cx="142.7000" cy="53.1500" r="1.0510"/> 
</g>
<g style="fill:#000000; fill-opacity:1.0000;  stroke:#000000; stroke-width:0.0000; stroke-opacity:1;  stroke-linecap:round; stroke-linejoin:round;">
<circle cx="146.8500" cy="53.1500" r="1.5510"/> 
</g>
<g style="fill:#000000; fill-opacity:1.0000;  stroke:#000000; stroke-width:0.0000; stroke-opacity:1;  stroke-linecap:round; stroke-linejoin:round;">
<circle cx="107.3000" cy="53.1500" r="1.0510"/> 
</g>
<g style="fill:#000000; fill-opacity:1.0000;  stroke:#000000; stroke-width:0.0000; stroke-opacity:1;  stroke-linecap:round; stroke-linejoin:round;">
<circle cx="103.1500" cy="53.1500" r="1.5510"/> 
</g>
<g style="fill:#000000; fill-opacity:1.0000;  stroke:#000000; stroke-width:0.0000; stroke-opacity:1;  stroke-linecap:round; stroke-linejoin:round;">
<path style="fill:#000000; fill-opacity:1.0000;  stroke:#000000; stroke-width:0.0000; stroke-opacity:1;  stroke-linecap:round; stroke-linejoin:round;fill-rule:evenodd;" d="M 137.2510,55.6250 137.2430,55.6939 137.1983,55.7951 137.1201,55.8733 137.0189,55.9180 136.9500,55.9260 136.2500,55.9260 136.1811,55.9180 136.0799,55.8733 136.0017,55.7951 135.9570,55.6939 135.9490,55.6250 135.9490,54.3750 135.9570,54.3061 136.0017,54.2049 136.0799,54.1267 136.1811,54.0820 136.2500,54.0740 136.9500,54.0740 137.0189,54.0820 137.1201,54.1267 137.1983,54.2049 137.2430,54.3061 137.2510,54.3750 Z"/> 
</g>
<g style="fill:#000000; fill-opacity:0.0;  stroke:#000000; stroke-width:1.3020; stroke-opacity:1;  stroke-linecap:round; stroke-linejoin:round;">
<path d="M134.6000 55.2750 L134.6000 54.7250 "/>
<path d="M132.6000 55.2750 L132.6000 54.7250 "/>
<path d="M130.6000 55.2750 L130.6000 54.7250 "/>
</g>
<g style="fill:#000000; fill-opacity:1.0000;  stroke:#000000; stroke-width:0.0000; stroke-opacity:1;  stroke-linecap:round; stroke-linejoin:round;">
<path style="fill:#000000; fill-opacity:1.0000;  stroke:#000000; stroke-width:0.0000; stroke-opacity:1;  stroke-linecap:round; stroke-linejoin:round;fill-rule:evenodd;" d="M 141.6990,90.5250 141.7070,90.4561 141.7517,90.3549 141.8299,90.2767 141.9311,90.2320 142.0000,90.2240 142.7000,90.2240 142.7689,90.2320 142.8701,90.2767 142.9483,90.3549 142.9930,90.4561 143.0010,90.5250 143.0010,91.7750 142.9930,91.8439 142.9483,91.9451 142.8701,92.0233 142.7689,92.0680 142.7000,92.0760 142.0000,92.0760 141.9311,92.0680 141.8299,92.0233 141.7517,91.9451 141.7070,91.8439 141.6990,91.7750 Z"/> 
</g>
<g style="fill:#000000; fill-opacity:0.0;  stroke:#000000; stroke-width:1.3020; stroke-opacity:1;  stroke-linecap:round; stroke-linejoin:round;">
<path d="M144.3500 90.8750 L144.3500 91.4250 "/>
</g>
<g style="fill:#000000; fill-opacity:1.0000;  stroke:#000000; stroke-width:0.0000; stroke-opacity:1;  stroke-linecap:round; stroke-linejoin:round;">
<path style="fill:#000000; fill-opacity:1.0000;  stroke:#000000; stroke-width:0.0000; stroke-opacity:1;  stroke-linecap:round; stroke-linejoin:round;fill-rule:evenodd;" d="M 117.1510,81.7375 117.1433,81.8036 117.1005,81.9005 117.0255,81.9755 116.9286,82.0183 116.8625,82.0260 116.3625,82.0260 116.2964,82.0183 116.1995,81.9755 116.1245,81.9005 116.0817,81.8036 116.0740,81.7375 116.0740,81.2625 116.0817,81.1964 116.1245,81.0995 116.1995,81.0245 116.2964,80.9817 116.3625,80.9740 116.8625,80.9740 116.9286,80.9817 117.0255,81.0245 117.1005,81.0995 117.1433,81.1964 117.1510,81.2625 Z"/> 
<path style="fill:#000000; fill-opacity:1.0000;  stroke:#000000; stroke-width:0.0000; stroke-opacity:1;  stroke-linecap:round; stroke-linejoin:round;fill-rule:evenodd;" d="M 115.3260,81.7375 115.3183,81.8036 115.2755,81.9005 115.2005,81.9755 115.1036,82.0183 115.0375,82.0260 114.5375,82.0260 114.4714,82.0183 114.3745,81.9755 114.2995,81.9005 114.2567,81.8036 114.2490,81.7375 114.2490,81.2625 114.2567,81.1964 114.2995,81.0995 114.3745,81.0245 114.4714,80.9817 114.5375,80.9740 115.0375,80.9740 115.1036,80.9817 115.2005,81.0245 115.2755,81.0995 115.3183,81.1964 115.3260,81.2625 Z"/> 
</g>
<g style="fill:#000000; fill-opacity:1.0000;  stroke:#000000; stroke-width:0.0000; stroke-opacity:1;  stroke-linecap:round; stroke-linejoin:round;">
<path style="fill:#000000; fill-opacity:1.0000;  stroke:#000000; stroke-width:0.0000; stroke-opacity:1;  stroke-linecap:round; stroke-linejoin:round;fill-rule:evenodd;" d="M 117.1510,83.4375 117.1433,83.5036 117.1005,83.6005 117.0255,83.6755 116.9286,83.7183 116.8625,83.7260 116.3625,83.7260 116.2964,83.7183 116.1995,83.6755 116.1245,83.6005 116.0817,83.5036 116.0740,83.4375 116.0740,82.9625 116.0817,82.8964 116.1245,82.7995 116.1995,82.7245 116.2964,82.6817 116.3625,82.6740 116.8625,82.6740 116.9286,82.6817 117.0255,82.7245 117.1005,82.7995 117.1433,82.8964 117.1510,82.9625 Z"/> 
<path style="fill:#000000; fill-opacity:1.0000;  stroke:#000000; stroke-width:0.0000; stroke-opacity:1;  stroke-linecap:round; stroke-linejoin:round;fill-rule:evenodd;" d="M 115.3260,83.4375 115.3183,83.5036 115.2755,83.6005 115.2005,83.6755 115.1036,83.7183 115.0375,83.7260 114.5375,83.7260 114.4714,83.7183 114.3745,83.6755 114.2995,83.6005 114.2567,83.5036 114.2490,83.4375 114.2490,82.9625 114.2567,82.8964 114.2995,82.7995 114.3745,82.7245 114.4714,82.6817 114.5375,82.6740 115.0375,82.6740 115.1036,82.6817 115.2005,82.7245 115.2755,82.7995 115.3183,82.8964 115.3260,82.9625 Z"/> 
</g>
<g style="fill:#000000; fill-opacity:1.0000;  stroke:#000000; stroke-width:0.0000; stroke-opacity:1;  stroke-linecap:round; stroke-linejoin:round;">
<path style="fill:#000000; fill-opacity:1.0000;  stroke:#000000; stroke-width:0.0000; stroke-opacity:1;  stroke-linecap:round; stroke-linejoin:round;fill-rule:evenodd;" d="M 118.9010,55.2750 118.8930,55.3439 118.8483,55.4451 118.7701,55.5233 118.6689,55.5680 118.6000,55.5760 117.4000,55.5760 117.3311,55.5680 117.2299,55.5233 117.1517,55.4451 117.1070,55.3439 117.0990,55.2750 117.0990,53.7750 117.1070,53.7061 117.1517,53.6049 117.2299,53.5267 117.3311,53.4820 117.4000,53.4740 118.6000,53.4740 118.6689,53.4820 118.7701,53.5267 118.8483,53.6049 118.8930,53.7061 118.9010,53.7750 Z"/> 
</g>
<g style="fill:#000000; fill-opacity:0.0;  stroke:#000000; stroke-width:1.8020; stroke-opacity:1;  stroke-linecap:round; stroke-linejoin:round;">
<path d="M115.5000 54.6750 L115.5000 54.3750 "/>
</g>
<g style="fill:#000000; fill-opacity:1.0000;  stroke:#000000; stroke-width:0.0000; stroke-opacity:1;  stroke-linecap:round; stroke-linejoin:round;">
<path style="fill:#000000; fill-opacity:1.0000;  stroke:#000000; stroke-width:0.0000; stroke-opacity:1;  stroke-linecap:round; stroke-linejoin:round;fill-rule:evenodd;" d="M 138.8500,73.7760 138.7811,73.7680 138.6799,73.7233 138.6017,73.6451 138.5570,73.5439 138.5490,73.4750 138.5490,72.6500 138.5570,72.5811 138.6017,72.4799 138.6799,72.4017 138.7811,72.3570 138.8500,72.3490 140.1500,72.3490 140.2189,72.3570 140.3201,72.4017 140.3983,72.4799 140.4430,72.5811 140.4510,72.6500 140.4510,73.4750 140.4430,73.5439 140.3983,73.6451 140.3201,73.7233 140.2189,73.7680 140.1500,73.7760 Z"/> 
<path style="fill:#000000; fill-opacity:1.0000;  stroke:#000000; stroke-width:0.0000; stroke-opacity:1;  stroke-linecap:round; stroke-linejoin:round;fill-rule:evenodd;" d="M 138.8500,70.6510 138.7811,70.6430 138.6799,70.5983 138.6017,70.5201 138.5570,70.4189 138.5490,70.3500 138.5490,69.5250 138.5570,69.4561 138.6017,69.3549 138.6799,69.2767 138.7811,69.2320 138.8500,69.2240 140.1500,69.2240 140.2189,69.2320 140.3201,69.2767 140.3983,69.3549 140.4430,69.4561 140.4510,69.5250 140.4510,70.3500 140.4430,70.4189 140.3983,70.5201 140.3201,70.5983 140.2189,70.6430 140.1500,70.6510 Z"/> 
</g>
<g style="fill:#000000; fill-opacity:1.0000;  stroke:#000000; stroke-width:0.0000; stroke-opacity:1;  stroke-linecap:round; stroke-linejoin:round;">
<path style="fill:#000000; fill-opacity:1.0000;  stroke:#000000; stroke-width:0.0000; stroke-opacity:1;  stroke-linecap:round; stroke-linejoin:round;fill-rule:evenodd;" d="M 137.7640,69.2240 137.8329,69.2320 137.9341,69.2767 138.0123,69.3549 138.0570,69.4561 138.0650,69.5250 138.0650,70.3500 138.0570,70.4189 138.0123,70.5201 137.9341,70.5983 137.8329,70.6430 137.7640,70.6510 136.4640,70.6510 136.3951,70.6430 136.2939,70.5983 136.2157,70.5201 136.1710,70.4189 136.1630,70.3500 136.1630,69.5250 136.1710,69.4561 136.2157,69.3549 136.2939,69.2767 136.3951,69.2320 136.4640,69.2240 Z"/> 
<path style="fill:#000000; fill-opacity:1.0000;  stroke:#000000; stroke-width:0.0000; stroke-opacity:1;  stroke-linecap:round; stroke-linejoin:round;fill-rule:evenodd;" d="M 137.7640,72.3490 137.8329,72.3570 137.9341,72.4017 138.0123,72.4799 138.0570,72.5811 138.0650,72.6500 138.0650,73.4750 138.0570,73.5439 138.0123,73.6451 137.9341,73.7233 137.8329,73.7680 137.7640,73.7760 136.4640,73.7760 136.3951,73.7680 136.2939,73.7233 136.2157,73.6451 136.1710,73.5439 136.1630,73.4750 136.1630,72.6500 136.1710,72.5811 136.2157,72.4799 136.2939,72.4017 136.3951,72.3570 136.4640,72.3490 Z"/> 
</g>
<g style="fill:#000000; fill-opacity:1.0000;  stroke:#000000; stroke-width:0.0000; stroke-opacity:1;  stroke-linecap:round; stroke-linejoin:round;">
<path style="fill:#000000; fill-opacity:1.0000;  stroke:#000000; stroke-width:0.0000; stroke-opacity:1;  stroke-linecap:round; stroke-linejoin:round;fill-rule:evenodd;" d="M 137.7500,78.6240 137.8189,78.6320 137.9201,78.6767 137.9983,78.7549 138.0430,78.8561 138.0510,78.9250 138.0510,79.7500 138.0430,79.8189 137.9983,79.9201 137.9201,79.9983 137.8189,80.0430 137.7500,80.0510 136.4500,80.0510 136.3811,80.0430 136.2799,79.9983 136.2017,79.9201 136.1570,79.8189 136.1490,79.7500 136.1490,78.9250 136.1570,78.8561 136.2017,78.7549 136.2799,78.6767 136.3811,78.6320 136.4500,78.6240 Z"/> 
<path style="fill:#000000; fill-opacity:1.0000;  stroke:#000000; stroke-width:0.0000; stroke-opacity:1;  stroke-linecap:round; stroke-linejoin:round;fill-rule:evenodd;" d="M 137.7500,81.7490 137.8189,81.7570 137.9201,81.8017 137.9983,81.8799 138.0430,81.9811 138.0510,82.0500 138.0510,82.8750 138.0430,82.9439 137.9983,83.0451 137.9201,83.1233 137.8189,83.1680 137.7500,83.1760 136.4500,83.1760 136.3811,83.1680 136.2799,83.1233 136.2017,83.0451 136.1570,82.9439 136.1490,82.8750 136.1490,82.0500 136.1570,81.9811 136.2017,81.8799 136.2799,81.8017 136.3811,81.7570 136.4500,81.7490 Z"/> 
</g>
<g style="fill:#000000; fill-opacity:0.0;  stroke:#000000; stroke-width:2.3020; stroke-opacity:1;  stroke-linecap:round; stroke-linejoin:round;">
<path d="M145.1500 65.2500 L146.4500 65.2500 "/>
<path d="M145.1500 57.0500 L146.4500 57.0500 "/>
</g>
<g style="fill:#000000; fill-opacity:1.0000;  stroke:#000000; stroke-width:0.0000; stroke-opacity:1;  stroke-linecap:round; stroke-linejoin:round;">
<path style="fill:#000000; fill-opacity:1.0000;  stroke:#000000; stroke-width:0.0000; stroke-opacity:1;  stroke-linecap:round; stroke-linejoin:round;fill-rule:evenodd;" d="M 144.5500,63.9510 144.5305,63.9471 144.5139,63.9361 144.5029,63.9195 144.4990,63.9000 144.4990,62.4000 144.5029,62.3805 144.5139,62.3639 144.5305,62.3529 144.5500,62.3490 147.0500,62.3490 147.0695,62.3529 147.0861,62.3639 147.0971,62.3805 147.1010,62.4000 147.1010,63.9000 147.0971,63.9195 147.0861,63.9361 147.0695,63.9471 147.0500,63.9510 Z"/> 
</g>
<g style="fill:#000000; fill-opacity:0.0;  stroke:#000000; stroke-width:1.6020; stroke-opacity:1;  stroke-linecap:round; stroke-linejoin:round;">
<path d="M145.3000 61.1500 L146.3000 61.1500 "/>
<path d="M145.3000 59.1500 L146.3000 59.1500 "/>
</g>
<g style="fill:#000000; fill-opacity:1.0000;  stroke:#000000; stroke-width:0.0000; stroke-opacity:1;  stroke-linecap:round; stroke-linejoin:round;">
<path style="fill:#000000; fill-opacity:1.0000;  stroke:#000000; stroke-width:0.0000; stroke-opacity:1;  stroke-linecap:round; stroke-linejoin:round;fill-rule:evenodd;" d="M 134.3010,96.3500 134.2971,96.3695 134.2861,96.3861 134.2695,96.3971 134.2500,96.4010 133.3500,96.4010 133.3305,96.3971 133.3139,96.3861 133.3029,96.3695 133.2990,96.3500 133.2990,95.5500 133.3029,95.5305 133.3139,95.5139 133.3305,95.5029 133.3500,95.4990 134.2500,95.4990 134.2695,95.5029 134.2861,95.5139 134.2971,95.5305 134.3010,95.5500 Z"/> 
<path style="fill:#000000; fill-opacity:1.0000;  stroke:#000000; stroke-width:0.0000; stroke-opacity:1;  stroke-linecap:round; stroke-linejoin:round;fill-rule:evenodd;" d="M 134.3010,94.4500 134.2971,94.4695 134.2861,94.4861 134.2695,94.4971 134.2500,94.5010 133.3500,94.5010 133.3305,94.4971 133.3139,94.4861 133.3029,94.4695 133.2990,94.4500 133.2990,93.6500 133.3029,93.6305 133.3139,93.6139 133.3305,93.6029 133.3500,93.5990 134.2500,93.5990 134.2695,93.6029 134.2861,93.6139 134.2971,93.6305 134.3010,93.6500 Z"/> 
<path style="fill:#000000; fill-opacity:1.0000;  stroke:#000000; stroke-width:0.0000; stroke-opacity:1;  stroke-linecap:round; stroke-linejoin:round;fill-rule:evenodd;" d="M 132.3010,95.4000 132.2971,95.4195 132.2861,95.4361 132.2695,95.4471 132.2500,95.4510 131.3500,95.4510 131.3305,95.4471 131.3139,95.4361 131.3029,95.4195 131.2990,95.4000 131.2990,94.6000 131.3029,94.5805 131.3139,94.5639 131.3305,94.5529 131.3500,94.5490 132.2500,94.5490 132.2695,94.5529 132.2861,94.5639 132.2971,94.5805 132.3010,94.6000 Z"/> 
</g>
<g style="fill:#000000; fill-opacity:1.0000;  stroke:#000000; stroke-width:0.0000; stroke-opacity:1;  stroke-linecap:round; stroke-linejoin:round;">
<path style="fill:#000000; fill-opacity:1.0000;  stroke:#000000; stroke-width:0.0000; stroke-opacity:1;  stroke-linecap:round; stroke-linejoin:round;fill-rule:evenodd;" d="M 135.3987,96.4472 135.3326,96.4395 135.2357,96.3967 135.1607,96.3217 135.1179,96.2248 135.1102,96.1587 135.1102,95.6587 135.1179,95.5926 135.1607,95.4957 135.2357,95.4207 135.3326,95.3779 135.3987,95.3702 135.8737,95.3702 135.9398,95.3779 136.0367,95.4207 136.1117,95.4957 136.1545,95.5926 136.1622,95.6587 136.1622,96.1587 136.1545,96.2248 136.1117,96.3217 136.0367,96.3967 135.9398,96.4395 135.8737,96.4472 Z"/> 
<path style="fill:#000000; fill-opacity:1.0000;  stroke:#000000; stroke-width:0.0000; stroke-opacity:1;  stroke-linecap:round; stroke-linejoin:round;fill-rule:evenodd;" d="M 135.3987,94.6222 135.3326,94.6145 135.2357,94.5717 135.1607,94.4967 135.1179,94.3998 135.1102,94.3337 135.1102,93.8337 135.1179,93.7676 135.1607,93.6707 135.2357,93.5957 135.3326,93.5529 135.3987,93.5452 135.8737,93.5452 135.9398,93.5529 136.0367,93.5957 136.1117,93.6707 136.1545,93.7676 136.1622,93.8337 136.1622,94.3337 136.1545,94.3998 136.1117,94.4967 136.0367,94.5717 135.9398,94.6145 135.8737,94.6222 Z"/> 
</g>
<g style="fill:#000000; fill-opacity:1.0000;  stroke:#000000; stroke-width:0.0000; stroke-opacity:1;  stroke-linecap:round; stroke-linejoin:round;">
<path style="fill:#000000; fill-opacity:1.0000;  stroke:#000000; stroke-width:0.0000; stroke-opacity:1;  stroke-linecap:round; stroke-linejoin:round;fill-rule:evenodd;" d="M 117.1510,78.4875 117.1433,78.5536 117.1005,78.6505 117.0255,78.7255 116.9286,78.7683 116.8625,78.7760 116.3625,78.7760 116.2964,78.7683 116.1995,78.7255 116.1245,78.6505 116.0817,78.5536 116.0740,78.4875 116.0740,78.0125 116.0817,77.9464 116.1245,77.8495 116.1995,77.7745 116.2964,77.7317 116.3625,77.7240 116.8625,77.7240 116.9286,77.7317 117.0255,77.7745 117.1005,77.8495 117.1433,77.9464 117.1510,78.0125 Z"/> 
<path style="fill:#000000; fill-opacity:1.0000;  stroke:#000000; stroke-width:0.0000; stroke-opacity:1;  stroke-linecap:round; stroke-linejoin:round;fill-rule:evenodd;" d="M 115.3260,78.4875 115.3183,78.5536 115.2755,78.6505 115.2005,78.7255 115.1036,78.7683 115.0375,78.7760 114.5375,78.7760 114.4714,78.7683 114.3745,78.7255 114.2995,78.6505 114.2567,78.5536 114.2490,78.4875 114.2490,78.0125 114.2567,77.9464 114.2995,77.8495 114.3745,77.7745 114.4714,77.7317 114.5375,77.7240 115.0375,77.7240 115.1036,77.7317 115.2005,77.7745 115.2755,77.8495 115.3183,77.9464 115.3260,78.0125 Z"/> 
</g>
<g style="fill:#000000; fill-opacity:1.0000;  stroke:#000000; stroke-width:0.0000; stroke-opacity:1;  stroke-linecap:round; stroke-linejoin:round;">
<path style="fill:#000000; fill-opacity:1.0000;  stroke:#000000; stroke-width:0.0000; stroke-opacity:1;  stroke-linecap:round; stroke-linejoin:round;fill-rule:evenodd;" d="M 117.2010,85.3875 117.1933,85.4536 117.1505,85.5505 117.0755,85.6255 116.9786,85.6683 116.9125,85.6760 116.4125,85.6760 116.3464,85.6683 116.2495,85.6255 116.1745,85.5505 116.1317,85.4536 116.1240,85.3875 116.1240,84.9125 116.1317,84.8464 116.1745,84.7495 116.2495,84.6745 116.3464,84.6317 116.4125,84.6240 116.9125,84.6240 116.9786,84.6317 117.0755,84.6745 117.1505,84.7495 117.1933,84.8464 117.2010,84.9125 Z"/> 
<path style="fill:#000000; fill-opacity:1.0000;  stroke:#000000; stroke-width:0.0000; stroke-opacity:1;  stroke-linecap:round; stroke-linejoin:round;fill-rule:evenodd;" d="M 115.3760,85.3875 115.3683,85.4536 115.3255,85.5505 115.2505,85.6255 115.1536,85.6683 115.0875,85.6760 114.5875,85.6760 114.5214,85.6683 114.4245,85.6255 114.3495,85.5505 114.3067,85.4536 114.2990,85.3875 114.2990,84.9125 114.3067,84.8464 114.3495,84.7495 114.4245,84.6745 114.5214,84.6317 114.5875,84.6240 115.0875,84.6240 115.1536,84.6317 115.2505,84.6745 115.3255,84.7495 115.3683,84.8464 115.3760,84.9125 Z"/> 
</g>
<g style="fill:#000000; fill-opacity:1.0000;  stroke:#000000; stroke-width:0.0000; stroke-opacity:1;  stroke-linecap:round; stroke-linejoin:round;">
<path style="fill:#000000; fill-opacity:1.0000;  stroke:#000000; stroke-width:0.0000; stroke-opacity:1;  stroke-linecap:round; stroke-linejoin:round;fill-rule:evenodd;" d="M 117.1510,80.0875 117.1433,80.1536 117.1005,80.2505 117.0255,80.3255 116.9286,80.3683 116.8625,80.3760 116.3625,80.3760 116.2964,80.3683 116.1995,80.3255 116.1245,80.2505 116.0817,80.1536 116.0740,80.0875 116.0740,79.6125 116.0817,79.5464 116.1245,79.4495 116.1995,79.3745 116.2964,79.3317 116.3625,79.3240 116.8625,79.3240 116.9286,79.3317 117.0255,79.3745 117.1005,79.4495 117.1433,79.5464 117.1510,79.6125 Z"/> 
<path style="fill:#000000; fill-opacity:1.0000;  stroke:#000000; stroke-width:0.0000; stroke-opacity:1;  stroke-linecap:round; stroke-linejoin:round;fill-rule:evenodd;" d="M 115.3260,80.0875 115.3183,80.1536 115.2755,80.2505 115.2005,80.3255 115.1036,80.3683 115.0375,80.3760 114.5375,80.3760 114.4714,80.3683 114.3745,80.3255 114.2995,80.2505 114.2567,80.1536 114.2490,80.0875 114.2490,79.6125 114.2567,79.5464 114.2995,79.4495 114.3745,79.3745 114.4714,79.3317 114.5375,79.3240 115.0375,79.3240 115.1036,79.3317 115.2005,79.3745 115.2755,79.4495 115.3183,79.5464 115.3260,79.6125 Z"/> 
</g>
<g style="fill:#000000; fill-opacity:1.0000;  stroke:#000000; stroke-width:0.0000; stroke-opacity:1;  stroke-linecap:round; stroke-linejoin:round;">
<path style="fill:#000000; fill-opacity:1.0000;  stroke:#000000; stroke-width:0.0000; stroke-opacity:1;  stroke-linecap:round; stroke-linejoin:round;fill-rule:evenodd;" d="M 117.2010,86.9875 117.1933,87.0536 117.1505,87.1505 117.0755,87.2255 116.9786,87.2683 116.9125,87.2760 116.4125,87.2760 116.3464,87.2683 116.2495,87.2255 116.1745,87.1505 116.1317,87.0536 116.1240,86.9875 116.1240,86.5125 116.1317,86.4464 116.1745,86.3495 116.2495,86.2745 116.3464,86.2317 116.4125,86.2240 116.9125,86.2240 116.9786,86.2317 117.0755,86.2745 117.1505,86.3495 117.1933,86.4464 117.2010,86.5125 Z"/> 
<path style="fill:#000000; fill-opacity:1.0000;  stroke:#000000; stroke-width:0.0000; stroke-opacity:1;  stroke-linecap:round; stroke-linejoin:round;fill-rule:evenodd;" d="M 115.3760,86.9875 115.3683,87.0536 115.3255,87.1505 115.2505,87.2255 115.1536,87.2683 115.0875,87.2760 114.5875,87.2760 114.5214,87.2683 114.4245,87.2255 114.3495,87.1505 114.3067,87.0536 114.2990,86.9875 114.2990,86.5125 114.3067,86.4464 114.3495,86.3495 114.4245,86.2745 114.5214,86.2317 114.5875,86.2240 115.0875,86.2240 115.1536,86.2317 115.2505,86.2745 115.3255,86.3495 115.3683,86.4464 115.3760,86.5125 Z"/> 
</g>
<g style="fill:#000000; fill-opacity:1.0000;  stroke:#000000; stroke-width:0.0000; stroke-opacity:1;  stroke-linecap:round; stroke-linejoin:round;">
<path style="fill:#000000; fill-opacity:1.0000;  stroke:#000000; stroke-width:0.0000; stroke-opacity:1;  stroke-linecap:round; stroke-linejoin:round;fill-rule:evenodd;" d="M 128.7240,72.0250 128.7431,71.9289 128.7975,71.8475 128.8789,71.7931 128.9750,71.7740 129.3750,71.7740 129.4711,71.7931 129.5525,71.8475 129.6069,71.9289 129.6260,72.0250 129.6260,72.5750 129.6069,72.6711 129.5525,72.7525 129.4711,72.8069 129.3750,72.8260 128.9750,72.8260 128.8789,72.8069 128.7975,72.7525 128.7431,72.6711 128.7240,72.5750 Z"/> 
<path style="fill:#000000; fill-opacity:1.0000;  stroke:#000000; stroke-width:0.0000; stroke-opacity:1;  stroke-linecap:round; stroke-linejoin:round;fill-rule:evenodd;" d="M 130.3740,72.0250 130.3931,71.9289 130.4475,71.8475 130.5289,71.7931 130.6250,71.7740 131.0250,71.7740 131.1211,71.7931 131.2025,71.8475 131.2569,71.9289 131.2760,72.0250 131.2760,72.5750 131.2569,72.6711 131.2025,72.7525 131.1211,72.8069 131.0250,72.8260 130.6250,72.8260 130.5289,72.8069 130.4475,72.7525 130.3931,72.6711 130.3740,72.5750 Z"/> 
</g>
<g style="fill:#000000; fill-opacity:1.0000;  stroke:#000000; stroke-width:0.0000; stroke-opacity:1;  stroke-linecap:round; stroke-linejoin:round;">
<path style="fill:#000000; fill-opacity:1.0000;  stroke:#000000; stroke-width:0.0000; stroke-opacity:1;  stroke-linecap:round; stroke-linejoin:round;fill-rule:evenodd;" d="M 131.2760,71.0750 131.2569,71.1711 131.2025,71.2525 131.1211,71.3069 131.0250,71.3260 130.6250,71.3260 130.5289,71.3069 130.4475,71.2525 130.3931,71.1711 130.3740,71.0750 130.3740,70.5250 130.3931,70.4289 130.4475,70.3475 130.5289,70.2931 130.6250,70.2740 131.0250,70.2740 131.1211,70.2931 131.2025,70.3475 131.2569,70.4289 131.2760,70.5250 Z"/> 
<path style="fill:#000000; fill-opacity:1.0000;  stroke:#000000; stroke-width:0.0000; stroke-opacity:1;  stroke-linecap:round; stroke-linejoin:round;fill-rule:evenodd;" d="M 129.6260,71.0750 129.6069,71.1711 129.5525,71.2525 129.4711,71.3069 129.3750,71.3260 128.9750,71.3260 128.8789,71.3069 128.7975,71.2525 128.7431,71.1711 128.7240,71.0750 128.7240,70.5250 128.7431,70.4289 128.7975,70.3475 128.8789,70.2931 128.9750,70.2740 129.3750,70.2740 129.4711,70.2931 129.5525,70.3475 129.6069,70.4289 129.6260,70.5250 Z"/> 
</g>
<g style="fill:#000000; fill-opacity:1.0000;  stroke:#000000; stroke-width:0.0000; stroke-opacity:1;  stroke-linecap:round; stroke-linejoin:round;">
<path style="fill:#000000; fill-opacity:1.0000;  stroke:#000000; stroke-width:0.0000; stroke-opacity:1;  stroke-linecap:round; stroke-linejoin:round;fill-rule:evenodd;" d="M 140.1500,78.6240 140.2189,78.6320 140.3201,78.6767 140.3983,78.7549 140.4430,78.8561 140.4510,78.9250 140.4510,79.7500 140.4430,79.8189 140.3983,79.9201 140.3201,79.9983 140.2189,80.0430 140.1500,80.0510 138.8500,80.0510 138.7811,80.0430 138.6799,79.9983 138.6017,79.9201 138.5570,79.8189 138.5490,79.7500 138.5490,78.9250 138.5570,78.8561 138.6017,78.7549 138.6799,78.6767 138.7811,78.6320 138.8500,78.6240 Z"/> 
<path style="fill:#000000; fill-opacity:1.0000;  stroke:#000000; stroke-width:0.0000; stroke-opacity:1;  stroke-linecap:round; stroke-linejoin:round;fill-rule:evenodd;" d="M 140.1500,81.7490 140.2189,81.7570 140.3201,81.8017 140.3983,81.8799 140.4430,81.9811 140.4510,82.0500 140.4510,82.8750 140.4430,82.9439 140.3983,83.0451 140.3201,83.1233 140.2189,83.1680 140.1500,83.1760 138.8500,83.1760 138.7811,83.1680 138.6799,83.1233 138.6017,83.0451 138.5570,82.9439 138.5490,82.8750 138.5490,82.0500 138.5570,81.9811 138.6017,81.8799 138.6799,81.8017 138.7811,81.7570 138.8500,81.7490 Z"/> 
</g>
<g style="fill:#000000; fill-opacity:1.0000;  stroke:#000000; stroke-width:0.0000; stroke-opacity:1;  stroke-linecap:round; stroke-linejoin:round;">
<path style="fill:#000000; fill-opacity:1.0000;  stroke:#000000; stroke-width:0.0000; stroke-opacity:1;  stroke-linecap:round; stroke-linejoin:round;fill-rule:evenodd;" d="M 145.4250,68.9990 145.4939,69.0070 145.5951,69.0517 145.6733,69.1299 145.7180,69.2311 145.7260,69.3000 145.7260,70.5000 145.7180,70.5689 145.6733,70.6701 145.5951,70.7483 145.4939,70.7930 145.4250,70.8010 143.9750,70.8010 143.9061,70.7930 143.8049,70.7483 143.7267,70.6701 143.6820,70.5689 143.6740,70.5000 143.6740,69.3000 143.6820,69.2311 143.7267,69.1299 143.8049,69.0517 143.9061,69.0070 143.9750,68.9990 Z"/> 
</g>
<g style="fill:#000000; fill-opacity:0.0;  stroke:#000000; stroke-width:1.8020; stroke-opacity:1;  stroke-linecap:round; stroke-linejoin:round;">
<path d="M144.8250 72.4000 L144.5750 72.4000 "/>
<path d="M144.8250 74.9000 L144.5750 74.9000 "/>
</g>
<g style="fill:#000000; fill-opacity:1.0000;  stroke:#000000; stroke-width:0.0000; stroke-opacity:1;  stroke-linecap:round; stroke-linejoin:round;">
<path style="fill:#000000; fill-opacity:1.0000;  stroke:#000000; stroke-width:0.0000; stroke-opacity:1;  stroke-linecap:round; stroke-linejoin:round;fill-rule:evenodd;" d="M 117.5260,66.0250 117.5069,66.1211 117.4525,66.2025 117.3711,66.2569 117.2750,66.2760 116.8750,66.2760 116.7789,66.2569 116.6975,66.2025 116.6431,66.1211 116.6240,66.0250 116.6240,65.4750 116.6431,65.3789 116.6975,65.2975 116.7789,65.2431 116.8750,65.2240 117.2750,65.2240 117.3711,65.2431 117.4525,65.2975 117.5069,65.3789 117.5260,65.4750 Z"/> 
<path style="fill:#000000; fill-opacity:1.0000;  stroke:#000000; stroke-width:0.0000; stroke-opacity:1;  stroke-linecap:round; stroke-linejoin:round;fill-rule:evenodd;" d="M 115.8760,66.0250 115.8569,66.1211 115.8025,66.2025 115.7211,66.2569 115.6250,66.2760 115.2250,66.2760 115.1289,66.2569 115.0475,66.2025 114.9931,66.1211 114.9740,66.0250 114.9740,65.4750 114.9931,65.3789 115.0475,65.2975 115.1289,65.2431 115.2250,65.2240 115.6250,65.2240 115.7211,65.2431 115.8025,65.2975 115.8569,65.3789 115.8760,65.4750 Z"/> 
</g>
<g style="fill:#000000; fill-opacity:1.0000;  stroke:#000000; stroke-width:0.0000; stroke-opacity:1;  stroke-linecap:round; stroke-linejoin:round;">
<path style="fill:#000000; fill-opacity:1.0000;  stroke:#000000; stroke-width:0.0000; stroke-opacity:1;  stroke-linecap:round; stroke-linejoin:round;fill-rule:evenodd;" d="M 145.4250,79.9990 145.4939,80.0070 145.5951,80.0517 145.6733,80.1299 145.7180,80.2311 145.7260,80.3000 145.7260,81.5000 145.7180,81.5689 145.6733,81.6701 145.5951,81.7483 145.4939,81.7930 145.4250,81.8010 143.9750,81.8010 143.9061,81.7930 143.8049,81.7483 143.7267,81.6701 143.6820,81.5689 143.6740,81.5000 143.6740,80.3000 143.6820,80.2311 143.7267,80.1299 143.8049,80.0517 143.9061,80.0070 143.9750,79.9990 Z"/> 
</g>
<g style="fill:#000000; fill-opacity:0.0;  stroke:#000000; stroke-width:1.8020; stroke-opacity:1;  stroke-linecap:round; stroke-linejoin:round;">
<path d="M144.8250 83.4000 L144.5750 83.4000 "/>
<path d="M144.8250 85.9000 L144.5750 85.9000 "/>
</g>
<g style="fill:#000000; fill-opacity:1.0000;  stroke:#000000; stroke-width:0.0000; stroke-opacity:1;  stroke-linecap:round; stroke-linejoin:round;">
<path style="fill:#000000; fill-opacity:1.0000;  stroke:#000000; stroke-width:0.0000; stroke-opacity:1;  stroke-linecap:round; stroke-linejoin:round;fill-rule:evenodd;" d="M 131.2660,65.8750 131.2469,65.9711 131.1925,66.0525 131.1111,66.1069 131.0150,66.1260 130.6150,66.1260 130.5189,66.1069 130.4375,66.0525 130.3831,65.9711 130.3640,65.8750 130.3640,65.3250 130.3831,65.2289 130.4375,65.1475 130.5189,65.0931 130.6150,65.0740 131.0150,65.0740 131.1111,65.0931 131.1925,65.1475 131.2469,65.2289 131.2660,65.3250 Z"/> 
<path style="fill:#000000; fill-opacity:1.0000;  stroke:#000000; stroke-width:0.0000; stroke-opacity:1;  stroke-linecap:round; stroke-linejoin:round;fill-rule:evenodd;" d="M 129.6160,65.8750 129.5969,65.9711 129.5425,66.0525 129.4611,66.1069 129.3650,66.1260 128.9650,66.1260 128.8689,66.1069 128.7875,66.0525 128.7331,65.9711 128.7140,65.8750 128.7140,65.3250 128.7331,65.2289 128.7875,65.1475 128.8689,65.0931 128.9650,65.0740 129.3650,65.0740 129.4611,65.0931 129.5425,65.1475 129.5969,65.2289 129.6160,65.3250 Z"/> 
</g>
<g style="fill:#000000; fill-opacity:1.0000;  stroke:#000000; stroke-width:0.0000; stroke-opacity:1;  stroke-linecap:round; stroke-linejoin:round;">
<path style="fill:#000000; fill-opacity:1.0000;  stroke:#000000; stroke-width:0.0000; stroke-opacity:1;  stroke-linecap:round; stroke-linejoin:round;fill-rule:evenodd;" d="M 128.7240,63.7500 128.7450,63.6444 128.8048,63.5548 128.8944,63.4950 129.0000,63.4740 129.4500,63.4740 129.5556,63.4950 129.6452,63.5548 129.7050,63.6444 129.7260,63.7500 129.7260,64.2500 129.7050,64.3556 129.6452,64.4452 129.5556,64.5050 129.4500,64.5260 129.0000,64.5260 128.8944,64.5050 128.8048,64.4452 128.7450,64.3556 128.7240,64.2500 Z"/> 
<path style="fill:#000000; fill-opacity:1.0000;  stroke:#000000; stroke-width:0.0000; stroke-opacity:1;  stroke-linecap:round; stroke-linejoin:round;fill-rule:evenodd;" d="M 130.2740,63.7500 130.2950,63.6444 130.3548,63.5548 130.4444,63.4950 130.5500,63.4740 131.0000,63.4740 131.1056,63.4950 131.1952,63.5548 131.2550,63.6444 131.2760,63.7500 131.2760,64.2500 131.2550,64.3556 131.1952,64.4452 131.1056,64.5050 131.0000,64.5260 130.5500,64.5260 130.4444,64.5050 130.3548,64.4452 130.2950,64.3556 130.2740,64.2500 Z"/> 
</g>
<g style="fill:#000000; fill-opacity:1.0000;  stroke:#000000; stroke-width:0.0000; stroke-opacity:1;  stroke-linecap:round; stroke-linejoin:round;">
<path style="fill:#000000; fill-opacity:1.0000;  stroke:#000000; stroke-width:0.0000; stroke-opacity:1;  stroke-linecap:round; stroke-linejoin:round;fill-rule:evenodd;" d="M 107.1690,56.7200 107.1729,56.7005 107.1839,56.6839 107.2005,56.6729 107.2200,56.6690 110.2200,56.6690 110.2395,56.6729 110.2561,56.6839 110.2671,56.7005 110.2710,56.7200 110.2710,57.7200 110.2671,57.7395 110.2561,57.7561 110.2395,57.7671 110.2200,57.7710 107.2200,57.7710 107.2005,57.7671 107.1839,57.7561 107.1729,57.7395 107.1690,57.7200 Z"/> 
<path style="fill:#000000; fill-opacity:1.0000;  stroke:#000000; stroke-width:0.0000; stroke-opacity:1;  stroke-linecap:round; stroke-linejoin:round;fill-rule:evenodd;" d="M 102.1290,56.7200 102.1329,56.7005 102.1439,56.6839 102.1605,56.6729 102.1800,56.6690 105.1800,56.6690 105.1995,56.6729 105.2161,56.6839 105.2271,56.7005 105.2310,56.7200 105.2310,57.7200 105.2271,57.7395 105.2161,57.7561 105.1995,57.7671 105.1800,57.7710 102.1800,57.7710 102.1605,57.7671 102.1439,57.7561 102.1329,57.7395 102.1290,57.7200 Z"/> 
<path style="fill:#000000; fill-opacity:1.0000;  stroke:#000000; stroke-width:0.0000; stroke-opacity:1;  stroke-linecap:round; stroke-linejoin:round;fill-rule:evenodd;" d="M 107.1690,59.2600 107.1729,59.2405 107.1839,59.2239 107.2005,59.2129 107.2200,59.2090 110.2200,59.2090 110.2395,59.2129 110.2561,59.2239 110.2671,59.2405 110.2710,59.2600 110.2710,60.2600 110.2671,60.2795 110.2561,60.2961 110.2395,60.3071 110.2200,60.3110 107.2200,60.3110 107.2005,60.3071 107.1839,60.2961 107.1729,60.2795 107.1690,60.2600 Z"/> 
<path style="fill:#000000; fill-opacity:1.0000;  stroke:#000000; stroke-width:0.0000; stroke-opacity:1;  stroke-linecap:round; stroke-linejoin:round;fill-rule:evenodd;" d="M 102.1290,59.2600 102.1329,59.2405 102.1439,59.2239 102.1605,59.2129 102.1800,59.2090 105.1800,59.2090 105.1995,59.2129 105.2161,59.2239 105.2271,59.2405 105.2310,59.2600 105.2310,60.2600 105.2271,60.2795 105.2161,60.2961 105.1995,60.3071 105.1800,60.3110 102.1800,60.3110 102.1605,60.3071 102.1439,60.2961 102.1329,60.2795 102.1290,60.2600 Z"/> 
<path style="fill:#000000; fill-opacity:1.0000;  stroke:#000000; stroke-width:0.0000; stroke-opacity:1;  stroke-linecap:round; stroke-linejoin:round;fill-rule:evenodd;" d="M 107.1690,61.8000 107.1729,61.7805 107.1839,61.7639 107.2005,61.7529 107.2200,61.7490 110.2200,61.7490 110.2395,61.7529 110.2561,61.7639 110.2671,61.7805 110.2710,61.8000 110.2710,62.8000 110.2671,62.8195 110.2561,62.8361 110.2395,62.8471 110.2200,62.8510 107.2200,62.8510 107.2005,62.8471 107.1839,62.8361 107.1729,62.8195 107.1690,62.8000 Z"/> 
<path style="fill:#000000; fill-opacity:1.0000;  stroke:#000000; stroke-width:0.0000; stroke-opacity:1;  stroke-linecap:round; stroke-linejoin:round;fill-rule:evenodd;" d="M 102.1290,61.8000 102.1329,61.7805 102.1439,61.7639 102.1605,61.7529 102.1800,61.7490 105.1800,61.7490 105.1995,61.7529 105.2161,61.7639 105.2271,61.7805 105.2310,61.8000 105.2310,62.8000 105.2271,62.8195 105.2161,62.8361 105.1995,62.8471 105.1800,62.8510 102.1800,62.8510 102.1605,62.8471 102.1439,62.8361 102.1329,62.8195 102.1290,62.8000 Z"/> 
<path style="fill:#000000; fill-opacity:1.0000;  stroke:#000000; stroke-width:0.0000; stroke-opacity:1;  stroke-linecap:round; stroke-linejoin:round;fill-rule:evenodd;" d="M 107.1690,64.3400 107.1729,64.3205 107.1839,64.3039 107.2005,64.2929 107.2200,64.2890 110.2200,64.2890 110.2395,64.2929 110.2561,64.3039 110.2671,64.3205 110.2710,64.3400 110.2710,65.3400 110.2671,65.3595 110.2561,65.3761 110.2395,65.3871 110.2200,65.3910 107.2200,65.3910 107.2005,65.3871 107.1839,65.3761 107.1729,65.3595 107.1690,65.3400 Z"/> 
<path style="fill:#000000; fill-opacity:1.0000;  stroke:#000000; stroke-width:0.0000; stroke-opacity:1;  stroke-linecap:round; stroke-linejoin:round;fill-rule:evenodd;" d="M 102.1290,64.3400 102.1329,64.3205 102.1439,64.3039 102.1605,64.2929 102.1800,64.2890 105.1800,64.2890 105.1995,64.2929 105.2161,64.3039 105.2271,64.3205 105.2310,64.3400 105.2310,65.3400 105.2271,65.3595 105.2161,65.3761 105.1995,65.3871 105.1800,65.3910 102.1800,65.3910 102.1605,65.3871 102.1439,65.3761 102.1329,65.3595 102.1290,65.3400 Z"/> 
<path style="fill:#000000; fill-opacity:1.0000;  stroke:#000000; stroke-width:0.0000; stroke-opacity:1;  stroke-linecap:round; stroke-linejoin:round;fill-rule:evenodd;" d="M 107.1690,66.8800 107.1729,66.8605 107.1839,66.8439 107.2005,66.8329 107.2200,66.8290 110.2200,66.8290 110.2395,66.8329 110.2561,66.8439 110.2671,66.8605 110.2710,66.8800 110.2710,67.8800 110.2671,67.8995 110.2561,67.9161 110.2395,67.9271 110.2200,67.9310 107.2200,67.9310 107.2005,67.9271 107.1839,67.9161 107.1729,67.8995 107.1690,67.8800 Z"/> 
<path style="fill:#000000; fill-opacity:1.0000;  stroke:#000000; stroke-width:0.0000; stroke-opacity:1;  stroke-linecap:round; stroke-linejoin:round;fill-rule:evenodd;" d="M 102.1290,66.8800 102.1329,66.8605 102.1439,66.8439 102.1605,66.8329 102.1800,66.8290 105.1800,66.8290 105.1995,66.8329 105.2161,66.8439 105.2271,66.8605 105.2310,66.8800 105.2310,67.8800 105.2271,67.8995 105.2161,67.9161 105.1995,67.9271 105.1800,67.9310 102.1800,67.9310 102.1605,67.9271 102.1439,67.9161 102.1329,67.8995 102.1290,67.8800 Z"/> 
<path style="fill:#000000; fill-opacity:1.0000;  stroke:#000000; stroke-width:0.0000; stroke-opacity:1;  stroke-linecap:round; stroke-linejoin:round;fill-rule:evenodd;" d="M 107.1690,69.4200 107.1729,69.4005 107.1839,69.3839 107.2005,69.3729 107.2200,69.3690 110.2200,69.3690 110.2395,69.3729 110.2561,69.3839 110.2671,69.4005 110.2710,69.4200 110.2710,70.4200 110.2671,70.4395 110.2561,70.4561 110.2395,70.4671 110.2200,70.4710 107.2200,70.4710 107.2005,70.4671 107.1839,70.4561 107.1729,70.4395 107.1690,70.4200 Z"/> 
<path style="fill:#000000; fill-opacity:1.0000;  stroke:#000000; stroke-width:0.0000; stroke-opacity:1;  stroke-linecap:round; stroke-linejoin:round;fill-rule:evenodd;" d="M 102.1290,69.4200 102.1329,69.4005 102.1439,69.3839 102.1605,69.3729 102.1800,69.3690 105.1800,69.3690 105.1995,69.3729 105.2161,69.3839 105.2271,69.4005 105.2310,69.4200 105.2310,70.4200 105.2271,70.4395 105.2161,70.4561 105.1995,70.4671 105.1800,70.4710 102.1800,70.4710 102.1605,70.4671 102.1439,70.4561 102.1329,70.4395 102.1290,70.4200 Z"/> 
<path style="fill:#000000; fill-opacity:1.0000;  stroke:#000000; stroke-width:0.0000; stroke-opacity:1;  stroke-linecap:round; stroke-linejoin:round;fill-rule:evenodd;" d="M 107.1690,71.9600 107.1729,71.9405 107.1839,71.9239 107.2005,71.9129 107.2200,71.9090 110.2200,71.9090 110.2395,71.9129 110.2561,71.9239 110.2671,71.9405 110.2710,71.9600 110.2710,72.9600 110.2671,72.9795 110.2561,72.9961 110.2395,73.0071 110.2200,73.0110 107.2200,73.0110 107.2005,73.0071 107.1839,72.9961 107.1729,72.9795 107.1690,72.9600 Z"/> 
<path style="fill:#000000; fill-opacity:1.0000;  stroke:#000000; stroke-width:0.0000; stroke-opacity:1;  stroke-linecap:round; stroke-linejoin:round;fill-rule:evenodd;" d="M 102.1290,71.9600 102.1329,71.9405 102.1439,71.9239 102.1605,71.9129 102.1800,71.9090 105.1800,71.9090 105.1995,71.9129 105.2161,71.9239 105.2271,71.9405 105.2310,71.9600 105.2310,72.9600 105.2271,72.9795 105.2161,72.9961 105.1995,73.0071 105.1800,73.0110 102.1800,73.0110 102.1605,73.0071 102.1439,72.9961 102.1329,72.9795 102.1290,72.9600 Z"/> 
<path style="fill:#000000; fill-opacity:1.0000;  stroke:#000000; stroke-width:0.0000; stroke-opacity:1;  stroke-linecap:round; stroke-linejoin:round;fill-rule:evenodd;" d="M 107.1690,74.5000 107.1729,74.4805 107.1839,74.4639 107.2005,74.4529 107.2200,74.4490 110.2200,74.4490 110.2395,74.4529 110.2561,74.4639 110.2671,74.4805 110.2710,74.5000 110.2710,75.5000 110.2671,75.5195 110.2561,75.5361 110.2395,75.5471 110.2200,75.5510 107.2200,75.5510 107.2005,75.5471 107.1839,75.5361 107.1729,75.5195 107.1690,75.5000 Z"/> 
<path style="fill:#000000; fill-opacity:1.0000;  stroke:#000000; stroke-width:0.0000; stroke-opacity:1;  stroke-linecap:round; stroke-linejoin:round;fill-rule:evenodd;" d="M 102.1290,74.5000 102.1329,74.4805 102.1439,74.4639 102.1605,74.4529 102.1800,74.4490 105.1800,74.4490 105.1995,74.4529 105.2161,74.4639 105.2271,74.4805 105.2310,74.5000 105.2310,75.5000 105.2271,75.5195 105.2161,75.5361 105.1995,75.5471 105.1800,75.5510 102.1800,75.5510 102.1605,75.5471 102.1439,75.5361 102.1329,75.5195 102.1290,75.5000 Z"/> 
<path style="fill:#000000; fill-opacity:1.0000;  stroke:#000000; stroke-width:0.0000; stroke-opacity:1;  stroke-linecap:round; stroke-linejoin:round;fill-rule:evenodd;" d="M 107.1690,77.0400 107.1729,77.0205 107.1839,77.0039 107.2005,76.9929 107.2200,76.9890 110.2200,76.9890 110.2395,76.9929 110.2561,77.0039 110.2671,77.0205 110.2710,77.0400 110.2710,78.0400 110.2671,78.0595 110.2561,78.0761 110.2395,78.0871 110.2200,78.0910 107.2200,78.0910 107.2005,78.0871 107.1839,78.0761 107.1729,78.0595 107.1690,78.0400 Z"/> 
<path style="fill:#000000; fill-opacity:1.0000;  stroke:#000000; stroke-width:0.0000; stroke-opacity:1;  stroke-linecap:round; stroke-linejoin:round;fill-rule:evenodd;" d="M 102.1290,77.0400 102.1329,77.0205 102.1439,77.0039 102.1605,76.9929 102.1800,76.9890 105.1800,76.9890 105.1995,76.9929 105.2161,77.0039 105.2271,77.0205 105.2310,77.0400 105.2310,78.0400 105.2271,78.0595 105.2161,78.0761 105.1995,78.0871 105.1800,78.0910 102.1800,78.0910 102.1605,78.0871 102.1439,78.0761 102.1329,78.0595 102.1290,78.0400 Z"/> 
<path style="fill:#000000; fill-opacity:1.0000;  stroke:#000000; stroke-width:0.0000; stroke-opacity:1;  stroke-linecap:round; stroke-linejoin:round;fill-rule:evenodd;" d="M 107.1690,79.5800 107.1729,79.5605 107.1839,79.5439 107.2005,79.5329 107.2200,79.5290 110.2200,79.5290 110.2395,79.5329 110.2561,79.5439 110.2671,79.5605 110.2710,79.5800 110.2710,80.5800 110.2671,80.5995 110.2561,80.6161 110.2395,80.6271 110.2200,80.6310 107.2200,80.6310 107.2005,80.6271 107.1839,80.6161 107.1729,80.5995 107.1690,80.5800 Z"/> 
<path style="fill:#000000; fill-opacity:1.0000;  stroke:#000000; stroke-width:0.0000; stroke-opacity:1;  stroke-linecap:round; stroke-linejoin:round;fill-rule:evenodd;" d="M 102.1290,79.5800 102.1329,79.5605 102.1439,79.5439 102.1605,79.5329 102.1800,79.5290 105.1800,79.5290 105.1995,79.5329 105.2161,79.5439 105.2271,79.5605 105.2310,79.5800 105.2310,80.5800 105.2271,80.5995 105.2161,80.6161 105.1995,80.6271 105.1800,80.6310 102.1800,80.6310 102.1605,80.6271 102.1439,80.6161 102.1329,80.5995 102.1290,80.5800 Z"/> 
<path style="fill:#000000; fill-opacity:1.0000;  stroke:#000000; stroke-width:0.0000; stroke-opacity:1;  stroke-linecap:round; stroke-linejoin:round;fill-rule:evenodd;" d="M 107.1690,82.1200 107.1729,82.1005 107.1839,82.0839 107.2005,82.0729 107.2200,82.0690 110.2200,82.0690 110.2395,82.0729 110.2561,82.0839 110.2671,82.1005 110.2710,82.1200 110.2710,83.1200 110.2671,83.1395 110.2561,83.1561 110.2395,83.1671 110.2200,83.1710 107.2200,83.1710 107.2005,83.1671 107.1839,83.1561 107.1729,83.1395 107.1690,83.1200 Z"/> 
<path style="fill:#000000; fill-opacity:1.0000;  stroke:#000000; stroke-width:0.0000; stroke-opacity:1;  stroke-linecap:round; stroke-linejoin:round;fill-rule:evenodd;" d="M 102.1290,82.1200 102.1329,82.1005 102.1439,82.0839 102.1605,82.0729 102.1800,82.0690 105.1800,82.0690 105.1995,82.0729 105.2161,82.0839 105.2271,82.1005 105.2310,82.1200 105.2310,83.1200 105.2271,83.1395 105.2161,83.1561 105.1995,83.1671 105.1800,83.1710 102.1800,83.1710 102.1605,83.1671 102.1439,83.1561 102.1329,83.1395 102.1290,83.1200 Z"/> 
<path style="fill:#000000; fill-opacity:1.0000;  stroke:#000000; stroke-width:0.0000; stroke-opacity:1;  stroke-linecap:round; stroke-linejoin:round;fill-rule:evenodd;" d="M 107.1690,84.6600 107.1729,84.6405 107.1839,84.6239 107.2005,84.6129 107.2200,84.6090 110.2200,84.6090 110.2395,84.6129 110.2561,84.6239 110.2671,84.6405 110.2710,84.6600 110.2710,85.6600 110.2671,85.6795 110.2561,85.6961 110.2395,85.7071 110.2200,85.7110 107.2200,85.7110 107.2005,85.7071 107.1839,85.6961 107.1729,85.6795 107.1690,85.6600 Z"/> 
<path style="fill:#000000; fill-opacity:1.0000;  stroke:#000000; stroke-width:0.0000; stroke-opacity:1;  stroke-linecap:round; stroke-linejoin:round;fill-rule:evenodd;" d="M 102.1290,84.6600 102.1329,84.6405 102.1439,84.6239 102.1605,84.6129 102.1800,84.6090 105.1800,84.6090 105.1995,84.6129 105.2161,84.6239 105.2271,84.6405 105.2310,84.6600 105.2310,85.6600 105.2271,85.6795 105.2161,85.6961 105.1995,85.7071 105.1800,85.7110 102.1800,85.7110 102.1605,85.7071 102.1439,85.6961 102.1329,85.6795 102.1290,85.6600 Z"/> 
<path style="fill:#000000; fill-opacity:1.0000;  stroke:#000000; stroke-width:0.0000; stroke-opacity:1;  stroke-linecap:round; stroke-linejoin:round;fill-rule:evenodd;" d="M 107.1690,87.2000 107.1729,87.1805 107.1839,87.1639 107.2005,87.1529 107.2200,87.1490 110.2200,87.1490 110.2395,87.1529 110.2561,87.1639 110.2671,87.1805 110.2710,87.2000 110.2710,88.2000 110.2671,88.2195 110.2561,88.2361 110.2395,88.2471 110.2200,88.2510 107.2200,88.2510 107.2005,88.2471 107.1839,88.2361 107.1729,88.2195 107.1690,88.2000 Z"/> 
<path style="fill:#000000; fill-opacity:1.0000;  stroke:#000000; stroke-width:0.0000; stroke-opacity:1;  stroke-linecap:round; stroke-linejoin:round;fill-rule:evenodd;" d="M 102.1290,87.2000 102.1329,87.1805 102.1439,87.1639 102.1605,87.1529 102.1800,87.1490 105.1800,87.1490 105.1995,87.1529 105.2161,87.1639 105.2271,87.1805 105.2310,87.2000 105.2310,88.2000 105.2271,88.2195 105.2161,88.2361 105.1995,88.2471 105.1800,88.2510 102.1800,88.2510 102.1605,88.2471 102.1439,88.2361 102.1329,88.2195 102.1290,88.2000 Z"/> 
<path style="fill:#000000; fill-opacity:1.0000;  stroke:#000000; stroke-width:0.0000; stroke-opacity:1;  stroke-linecap:round; stroke-linejoin:round;fill-rule:evenodd;" d="M 107.1690,89.7400 107.1729,89.7205 107.1839,89.7039 107.2005,89.6929 107.2200,89.6890 110.2200,89.6890 110.2395,89.6929 110.2561,89.7039 110.2671,89.7205 110.2710,89.7400 110.2710,90.7400 110.2671,90.7595 110.2561,90.7761 110.2395,90.7871 110.2200,90.7910 107.2200,90.7910 107.2005,90.7871 107.1839,90.7761 107.1729,90.7595 107.1690,90.7400 Z"/> 
<path style="fill:#000000; fill-opacity:1.0000;  stroke:#000000; stroke-width:0.0000; stroke-opacity:1;  stroke-linecap:round; stroke-linejoin:round;fill-rule:evenodd;" d="M 102.1290,89.7400 102.1329,89.7205 102.1439,89.7039 102.1605,89.6929 102.1800,89.6890 105.1800,89.6890 105.1995,89.6929 105.2161,89.7039 105.2271,89.7205 105.2310,89.7400 105.2310,90.7400 105.2271,90.7595 105.2161,90.7761 105.1995,90.7871 105.1800,90.7910 102.1800,90.7910 102.1605,90.7871 102.1439,90.7761 102.1329,90.7595 102.1290,90.7400 Z"/> 
<path style="fill:#000000; fill-opacity:1.0000;  stroke:#000000; stroke-width:0.0000; stroke-opacity:1;  stroke-linecap:round; stroke-linejoin:round;fill-rule:evenodd;" d="M 107.1690,92.2800 107.1729,92.2605 107.1839,92.2439 107.2005,92.2329 107.2200,92.2290 110.2200,92.2290 110.2395,92.2329 110.2561,92.2439 110.2671,92.2605 110.2710,92.2800 110.2710,93.2800 110.2671,93.2995 110.2561,93.3161 110.2395,93.3271 110.2200,93.3310 107.2200,93.3310 107.2005,93.3271 107.1839,93.3161 107.1729,93.2995 107.1690,93.2800 Z"/> 
<path style="fill:#000000; fill-opacity:1.0000;  stroke:#000000; stroke-width:0.0000; stroke-opacity:1;  stroke-linecap:round; stroke-linejoin:round;fill-rule:evenodd;" d="M 102.1290,92.2800 102.1329,92.2605 102.1439,92.2439 102.1605,92.2329 102.1800,92.2290 105.1800,92.2290 105.1995,92.2329 105.2161,92.2439 105.2271,92.2605 105.2310,92.2800 105.2310,93.2800 105.2271,93.2995 105.2161,93.3161 105.1995,93.3271 105.1800,93.3310 102.1800,93.3310 102.1605,93.3271 102.1439,93.3161 102.1329,93.2995 102.1290,93.2800 Z"/> 
</g>
<g style="fill:#000000; fill-opacity:1.0000;  stroke:#000000; stroke-width:0.0000; stroke-opacity:1;  stroke-linecap:round; stroke-linejoin:round;">
<path style="fill:#000000; fill-opacity:1.0000;  stroke:#000000; stroke-width:0.0000; stroke-opacity:1;  stroke-linecap:round; stroke-linejoin:round;fill-rule:evenodd;" d="M 127.8010,54.1500 127.7971,54.1695 127.7861,54.1861 127.7695,54.1971 127.7500,54.2010 125.2500,54.2010 125.2305,54.1971 125.2139,54.1861 125.2029,54.1695 125.1990,54.1500 125.1990,52.3500 125.2029,52.3305 125.2139,52.3139 125.2305,52.3029 125.2500,52.2990 127.7500,52.2990 127.7695,52.3029 127.7861,52.3139 127.7971,52.3305 127.8010,52.3500 Z"/> 
<path style="fill:#000000; fill-opacity:1.0000;  stroke:#000000; stroke-width:0.0000; stroke-opacity:1;  stroke-linecap:round; stroke-linejoin:round;fill-rule:evenodd;" d="M 123.8010,54.1500 123.7971,54.1695 123.7861,54.1861 123.7695,54.1971 123.7500,54.2010 121.2500,54.2010 121.2305,54.1971 121.2139,54.1861 121.2029,54.1695 121.1990,54.1500 121.1990,52.3500 121.2029,52.3305 121.2139,52.3139 121.2305,52.3029 121.2500,52.2990 123.7500,52.2990 123.7695,52.3029 123.7861,52.3139 123.7971,52.3305 123.8010,52.3500 Z"/> 
</g>
<g style="fill:#000000; fill-opacity:1.0000;  stroke:#000000; stroke-width:0.0000; stroke-opacity:1;  stroke-linecap:round; stroke-linejoin:round;">
<path style="fill:#000000; fill-opacity:1.0000;  stroke:#000000; stroke-width:0.0000; stroke-opacity:1;  stroke-linecap:round; stroke-linejoin:round;fill-rule:evenodd;" d="M 114.0740,67.2000 114.0893,67.1231 114.1329,67.0579 114.1981,67.0143 114.2750,66.9990 115.4500,66.9990 115.5269,67.0143 115.5921,67.0579 115.6357,67.1231 115.6510,67.2000 115.6510,67.5000 115.6357,67.5769 115.5921,67.6421 115.5269,67.6857 115.4500,67.7010 114.2750,67.7010 114.1981,67.6857 114.1329,67.6421 114.0893,67.5769 114.0740,67.5000 Z"/> 
<path style="fill:#000000; fill-opacity:1.0000;  stroke:#000000; stroke-width:0.0000; stroke-opacity:1;  stroke-linecap:round; stroke-linejoin:round;fill-rule:evenodd;" d="M 114.0740,69.1000 114.0893,69.0231 114.1329,68.9579 114.1981,68.9143 114.2750,68.8990 115.4500,68.8990 115.5269,68.9143 115.5921,68.9579 115.6357,69.0231 115.6510,69.1000 115.6510,69.4000 115.6357,69.4769 115.5921,69.5421 115.5269,69.5857 115.4500,69.6010 114.2750,69.6010 114.1981,69.5857 114.1329,69.5421 114.0893,69.4769 114.0740,69.4000 Z"/> 
<path style="fill:#000000; fill-opacity:1.0000;  stroke:#000000; stroke-width:0.0000; stroke-opacity:1;  stroke-linecap:round; stroke-linejoin:round;fill-rule:evenodd;" d="M 115.9490,68.1500 115.9643,68.0731 116.0079,68.0079 116.0731,67.9643 116.1500,67.9490 117.3250,67.9490 117.4019,67.9643 117.4671,68.0079 117.5107,68.0731 117.5260,68.1500 117.5260,68.4500 117.5107,68.5269 117.4671,68.5921 117.4019,68.6357 117.3250,68.6510 116.1500,68.6510 116.0731,68.6357 116.0079,68.5921 115.9643,68.5269 115.9490,68.4500 Z"/> 
</g>
<g style="fill:#000000; fill-opacity:1.0000;  stroke:#000000; stroke-width:0.0000; stroke-opacity:1;  stroke-linecap:round; stroke-linejoin:round;">
<path style="fill:#000000; fill-opacity:1.0000;  stroke:#000000; stroke-width:0.0000; stroke-opacity:1;  stroke-linecap:round; stroke-linejoin:round;fill-rule:evenodd;" d="M 131.2760,69.0750 131.2569,69.1711 131.2025,69.2525 131.1211,69.3069 131.0250,69.3260 130.6250,69.3260 130.5289,69.3069 130.4475,69.2525 130.3931,69.1711 130.3740,69.0750 130.3740,68.5250 130.3931,68.4289 130.4475,68.3475 130.5289,68.2931 130.6250,68.2740 131.0250,68.2740 131.1211,68.2931 131.2025,68.3475 131.2569,68.4289 131.2760,68.5250 Z"/> 
<path style="fill:#000000; fill-opacity:1.0000;  stroke:#000000; stroke-width:0.0000; stroke-opacity:1;  stroke-linecap:round; stroke-linejoin:round;fill-rule:evenodd;" d="M 129.6260,69.0750 129.6069,69.1711 129.5525,69.2525 129.4711,69.3069 129.3750,69.3260 128.9750,69.3260 128.8789,69.3069 128.7975,69.2525 128.7431,69.1711 128.7240,69.0750 128.7240,68.5250 128.7431,68.4289 128.7975,68.3475 128.8789,68.2931 128.9750,68.2740 129.3750,68.2740 129.4711,68.2931 129.5525,68.3475 129.6069,68.4289 129.6260,68.5250 Z"/> 
</g>
<g style="fill:#000000; fill-opacity:1.0000;  stroke:#000000; stroke-width:0.0000; stroke-opacity:1;  stroke-linecap:round; stroke-linejoin:round;">
<path style="fill:#000000; fill-opacity:1.0000;  stroke:#000000; stroke-width:0.0000; stroke-opacity:1;  stroke-linecap:round; stroke-linejoin:round;fill-rule:evenodd;" d="M 118.7990,64.5450 118.8143,64.4681 118.8579,64.4029 118.9231,64.3593 119.0000,64.3440 120.6000,64.3440 120.6769,64.3593 120.7421,64.4029 120.7857,64.4681 120.8010,64.5450 120.8010,64.8450 120.7857,64.9219 120.7421,64.9871 120.6769,65.0307 120.6000,65.0460 119.0000,65.0460 118.9231,65.0307 118.8579,64.9871 118.8143,64.9219 118.7990,64.8450 Z"/> 
<path style="fill:#000000; fill-opacity:1.0000;  stroke:#000000; stroke-width:0.0000; stroke-opacity:1;  stroke-linecap:round; stroke-linejoin:round;fill-rule:evenodd;" d="M 118.7990,65.8150 118.8143,65.7381 118.8579,65.6729 118.9231,65.6293 119.0000,65.6140 120.6000,65.6140 120.6769,65.6293 120.7421,65.6729 120.7857,65.7381 120.8010,65.8150 120.8010,66.1150 120.7857,66.1919 120.7421,66.2571 120.6769,66.3007 120.6000,66.3160 119.0000,66.3160 118.9231,66.3007 118.8579,66.2571 118.8143,66.1919 118.7990,66.1150 Z"/> 
<path style="fill:#000000; fill-opacity:1.0000;  stroke:#000000; stroke-width:0.0000; stroke-opacity:1;  stroke-linecap:round; stroke-linejoin:round;fill-rule:evenodd;" d="M 118.7990,67.0850 118.8143,67.0081 118.8579,66.9429 118.9231,66.8993 119.0000,66.8840 120.6000,66.8840 120.6769,66.8993 120.7421,66.9429 120.7857,67.0081 120.8010,67.0850 120.8010,67.3850 120.7857,67.4619 120.7421,67.5271 120.6769,67.5707 120.6000,67.5860 119.0000,67.5860 118.9231,67.5707 118.8579,67.5271 118.8143,67.4619 118.7990,67.3850 Z"/> 
<path style="fill:#000000; fill-opacity:1.0000;  stroke:#000000; stroke-width:0.0000; stroke-opacity:1;  stroke-linecap:round; stroke-linejoin:round;fill-rule:evenodd;" d="M 118.7990,68.3550 118.8143,68.2781 118.8579,68.2129 118.9231,68.1693 119.0000,68.1540 120.6000,68.1540 120.6769,68.1693 120.7421,68.2129 120.7857,68.2781 120.8010,68.3550 120.8010,68.6550 120.7857,68.7319 120.7421,68.7971 120.6769,68.8407 120.6000,68.8560 119.0000,68.8560 118.9231,68.8407 118.8579,68.7971 118.8143,68.7319 118.7990,68.6550 Z"/> 
<path style="fill:#000000; fill-opacity:1.0000;  stroke:#000000; stroke-width:0.0000; stroke-opacity:1;  stroke-linecap:round; stroke-linejoin:round;fill-rule:evenodd;" d="M 125.7990,68.3550 125.8143,68.2781 125.8579,68.2129 125.9231,68.1693 126.0000,68.1540 127.6000,68.1540 127.6769,68.1693 127.7421,68.2129 127.7857,68.2781 127.8010,68.3550 127.8010,68.6550 127.7857,68.7319 127.7421,68.7971 127.6769,68.8407 127.6000,68.8560 126.0000,68.8560 125.9231,68.8407 125.8579,68.7971 125.8143,68.7319 125.7990,68.6550 Z"/> 
<path style="fill:#000000; fill-opacity:1.0000;  stroke:#000000; stroke-width:0.0000; stroke-opacity:1;  stroke-linecap:round; stroke-linejoin:round;fill-rule:evenodd;" d="M 125.7990,67.0850 125.8143,67.0081 125.8579,66.9429 125.9231,66.8993 126.0000,66.8840 127.6000,66.8840 127.6769,66.8993 127.7421,66.9429 127.7857,67.0081 127.8010,67.0850 127.8010,67.3850 127.7857,67.4619 127.7421,67.5271 127.6769,67.5707 127.6000,67.5860 126.0000,67.5860 125.9231,67.5707 125.8579,67.5271 125.8143,67.4619 125.7990,67.3850 Z"/> 
<path style="fill:#000000; fill-opacity:1.0000;  stroke:#000000; stroke-width:0.0000; stroke-opacity:1;  stroke-linecap:round; stroke-linejoin:round;fill-rule:evenodd;" d="M 125.7990,65.8150 125.8143,65.7381 125.8579,65.6729 125.9231,65.6293 126.0000,65.6140 127.6000,65.6140 127.6769,65.6293 127.7421,65.6729 127.7857,65.7381 127.8010,65.8150 127.8010,66.1150 127.7857,66.1919 127.7421,66.2571 127.6769,66.3007 127.6000,66.3160 126.0000,66.3160 125.9231,66.3007 125.8579,66.2571 125.8143,66.1919 125.7990,66.1150 Z"/> 
<path style="fill:#000000; fill-opacity:1.0000;  stroke:#000000; stroke-width:0.0000; stroke-opacity:1;  stroke-linecap:round; stroke-linejoin:round;fill-rule:evenodd;" d="M 125.7990,64.5450 125.8143,64.4681 125.8579,64.4029 125.9231,64.3593 126.0000,64.3440 127.6000,64.3440 127.6769,64.3593 127.7421,64.4029 127.7857,64.4681 127.8010,64.5450 127.8010,64.8450 127.7857,64.9219 127.7421,64.9871 127.6769,65.0307 127.6000,65.0460 126.0000,65.0460 125.9231,65.0307 125.8579,64.9871 125.8143,64.9219 125.7990,64.8450 Z"/> 
</g>
<g style="fill:#000000; fill-opacity:1.0000;  stroke:#000000; stroke-width:0.0000; stroke-opacity:1;  stroke-linecap:round; stroke-linejoin:round;">
<path style="fill:#000000; fill-opacity:1.0000;  stroke:#000000; stroke-width:0.0000; stroke-opacity:1;  stroke-linecap:round; stroke-linejoin:round;fill-rule:evenodd;" d="M 116.7250,72.8760 116.6289,72.8569 116.5475,72.8025 116.4931,72.7211 116.4740,72.6250 116.4740,72.2250 116.4931,72.1289 116.5475,72.0475 116.6289,71.9931 116.7250,71.9740 117.2750,71.9740 117.3711,71.9931 117.4525,72.0475 117.5069,72.1289 117.5260,72.2250 117.5260,72.6250 117.5069,72.7211 117.4525,72.8025 117.3711,72.8569 117.2750,72.8760 Z"/> 
<path style="fill:#000000; fill-opacity:1.0000;  stroke:#000000; stroke-width:0.0000; stroke-opacity:1;  stroke-linecap:round; stroke-linejoin:round;fill-rule:evenodd;" d="M 116.7250,71.2260 116.6289,71.2069 116.5475,71.1525 116.4931,71.0711 116.4740,70.9750 116.4740,70.5750 116.4931,70.4789 116.5475,70.3975 116.6289,70.3431 116.7250,70.3240 117.2750,70.3240 117.3711,70.3431 117.4525,70.3975 117.5069,70.4789 117.5260,70.5750 117.5260,70.9750 117.5069,71.0711 117.4525,71.1525 117.3711,71.2069 117.2750,71.2260 Z"/> 
</g>
<g style="fill:#000000; fill-opacity:1.0000;  stroke:#000000; stroke-width:0.0000; stroke-opacity:1;  stroke-linecap:round; stroke-linejoin:round;">
<path style="fill:#000000; fill-opacity:1.0000;  stroke:#000000; stroke-width:0.0000; stroke-opacity:1;  stroke-linecap:round; stroke-linejoin:round;fill-rule:evenodd;" d="M 131.2760,67.4150 131.2569,67.5111 131.2025,67.5925 131.1211,67.6469 131.0250,67.6660 130.6250,67.6660 130.5289,67.6469 130.4475,67.5925 130.3931,67.5111 130.3740,67.4150 130.3740,66.8650 130.3931,66.7689 130.4475,66.6875 130.5289,66.6331 130.6250,66.6140 131.0250,66.6140 131.1211,66.6331 131.2025,66.6875 131.2569,66.7689 131.2760,66.8650 Z"/> 
<path style="fill:#000000; fill-opacity:1.0000;  stroke:#000000; stroke-width:0.0000; stroke-opacity:1;  stroke-linecap:round; stroke-linejoin:round;fill-rule:evenodd;" d="M 129.6260,67.4150 129.6069,67.5111 129.5525,67.5925 129.4711,67.6469 129.3750,67.6660 128.9750,67.6660 128.8789,67.6469 128.7975,67.5925 128.7431,67.5111 128.7240,67.4150 128.7240,66.8650 128.7431,66.7689 128.7975,66.6875 128.8789,66.6331 128.9750,66.6140 129.3750,66.6140 129.4711,66.6331 129.5525,66.6875 129.6069,66.7689 129.6260,66.8650 Z"/> 
</g>
<g style="fill:#000000; fill-opacity:1.0000;  stroke:#000000; stroke-width:0.0000; stroke-opacity:1;  stroke-linecap:round; stroke-linejoin:round;">
<path style="fill:#000000; fill-opacity:1.0000;  stroke:#000000; stroke-width:0.0000; stroke-opacity:1;  stroke-linecap:round; stroke-linejoin:round;fill-rule:evenodd;" d="M 115.7250,70.3240 115.8211,70.3431 115.9025,70.3975 115.9569,70.4789 115.9760,70.5750 115.9760,70.9750 115.9569,71.0711 115.9025,71.1525 115.8211,71.2069 115.7250,71.2260 115.1750,71.2260 115.0789,71.2069 114.9975,71.1525 114.9431,71.0711 114.9240,70.9750 114.9240,70.5750 114.9431,70.4789 114.9975,70.3975 115.0789,70.3431 115.1750,70.3240 Z"/> 
<path style="fill:#000000; fill-opacity:1.0000;  stroke:#000000; stroke-width:0.0000; stroke-opacity:1;  stroke-linecap:round; stroke-linejoin:round;fill-rule:evenodd;" d="M 115.7250,71.9740 115.8211,71.9931 115.9025,72.0475 115.9569,72.1289 115.9760,72.2250 115.9760,72.6250 115.9569,72.7211 115.9025,72.8025 115.8211,72.8569 115.7250,72.8760 115.1750,72.8760 115.0789,72.8569 114.9975,72.8025 114.9431,72.7211 114.9240,72.6250 114.9240,72.2250 114.9431,72.1289 114.9975,72.0475 115.0789,71.9931 115.1750,71.9740 Z"/> 
</g>
<g style="fill:#000000; fill-opacity:1.0000;  stroke:#000000; stroke-width:0.0000; stroke-opacity:1;  stroke-linecap:round; stroke-linejoin:round;">
<path style="fill:#000000; fill-opacity:1.0000;  stroke:#000000; stroke-width:0.0000; stroke-opacity:1;  stroke-linecap:round; stroke-linejoin:round;fill-rule:evenodd;" d="M 135.7800,66.3750 135.7605,66.3711 135.7439,66.3601 135.7329,66.3435 135.7290,66.3240 135.7290,64.9240 135.7329,64.9045 135.7439,64.8879 135.7605,64.8769 135.7800,64.8730 137.8800,64.8730 137.8995,64.8769 137.9161,64.8879 137.9271,64.9045 137.9310,64.9240 137.9310,66.3240 137.9271,66.3435 137.9161,66.3601 137.8995,66.3711 137.8800,66.3750 Z"/> 
<path style="fill:#000000; fill-opacity:1.0000;  stroke:#000000; stroke-width:0.0000; stroke-opacity:1;  stroke-linecap:round; stroke-linejoin:round;fill-rule:evenodd;" d="M 135.7800,61.9750 135.7605,61.9711 135.7439,61.9601 135.7329,61.9435 135.7290,61.9240 135.7290,60.5240 135.7329,60.5045 135.7439,60.4879 135.7605,60.4769 135.7800,60.4730 137.8800,60.4730 137.8995,60.4769 137.9161,60.4879 137.9271,60.5045 137.9310,60.5240 137.9310,61.9240 137.9271,61.9435 137.9161,61.9601 137.8995,61.9711 137.8800,61.9750 Z"/> 
</g>
</g> 
</mask></defs><g transform="" id="boardContainer"><g id="substrate" clip-path="url(#cut-off)" mask="url(#pads-mask-silkscreen)"><g id="substrate-board" style="fill:#143324; fill-opacity:0.25098039215686274; stroke:#143324; stroke-width:0;"><path d=" M 106.2000 88.9764 m-0.5500 0 a 0.5500 0.5500 0 1 0 1.1 0 a 0.5500 0.5500 0 1 0 -1.1 0  M 106.2000 61.0296 m-0.5500 0 a 0.5500 0.5500 0 1 0 1.1 0 a 0.5500 0.5500 0 1 0 -1.1 0  M 106.2000 58.5000 m-0.5500 0 a 0.5500 0.5500 0 1 0 1.1 0 a 0.5500 0.5500 0 1 0 -1.1 0  M 106.2000 91.5500 m-0.5500 0 a 0.5500 0.5500 0 1 0 1.1 0 a 0.5500 0.5500 0 1 0 -1.1 0  M 110.0 100.0 L 110.0 99.5 L 103.0 99.5 A 2.5 2.5 0 0 1 100.5 97.0 L 100.5 90.0 L 100.0 90.0 L 100.0 60.0 L 100.5 60.0 L 100.5 53.0 A 2.5 2.5 0 0 1 103.0 50.5 L 110.0 50.5 L 110.0 50.0 L 140.0 50.0 L 140.0 50.5 L 147.0 50.5 A 2.5 2.5 0 0 1 149.5 53.0 L 149.5 60.0 L 150.0 60.0 L 150.0 90.0 L 149.5 90.0 L 149.5 97.0 A 2.5 2.5 0 0 1 147.0 99.5 L 140.0 99.5 L 140.0 100.0 L 110.0 100.0 " style="fill-rule: evenodd;"/><g style="fill-opacity: 0.0;stroke-width: 0.0500;stroke-opacity: 1;stroke-linecap: round;stroke-linejoin: round">
<path d="M140.0000 100.0000 L110.0000 100.0000 "/>
<path d="M149.5000 53.0000 L149.5000 60.0000 "/>
<path d="M147.0000 50.5000 L140.0000 50.5000 "/>
<path d="M100.5000 97.0000 L100.5000 90.0000 "/>
<path d="M100.5000 53.0000 L100.5000 60.0000 "/>
<path d="M103.0000 50.5000 A2.5000 2.5000 0.0 0 0 100.5000 53.0000"/>
<path d="M149.5000 60.0000 L150.0000 60.0000 "/>
<path d="M149.5000 90.0000 L150.0000 90.0000 "/>
<path d="M140.0000 99.5000 L140.0000 100.0000 "/>
<path d="M110.0000 99.5000 L110.0000 100.0000 "/>
<path d="M100.5000 90.0000 L100.0000 90.0000 "/>
<path d="M100.0000 60.0000 L100.5000 60.0000 "/>
<path d="M110.0000 50.0000 L110.0000 50.5000 "/>
<circle cx="106.2000" cy="88.9764" r="0.5500"/> 
<path d="M100.0000 90.0000 L100.0000 60.0000 "/>
<path d="M100.5000 97.0000 A2.5000 2.5000 0.0 0 0 103.0000 99.5000"/>
<path d="M103.0000 99.5000 L110.0000 99.5000 "/>
<circle cx="106.2000" cy="61.0296" r="0.5500"/> 
<path d="M147.0000 99.5000 A2.5000 2.5000 0.0 0 0 149.5000 97.0000"/>
<path d="M149.5000 53.0000 A2.5000 2.5000 0.0 0 0 147.0000 50.5000"/>
<path d="M110.0000 50.0000 L140.0000 50.0000 "/>
<circle cx="106.2000" cy="58.5000" r="0.5500"/> 
<path d="M149.5000 97.0000 L149.5000 90.0000 "/>
<circle cx="106.2000" cy="91.5500" r="0.5500"/> 
<path d="M103.0000 50.5000 L110.0000 50.5000 "/>
<path d="M150.0000 60.0000 L150.0000 90.0000 "/>
<path d="M140.0000 50.0000 L140.0000 50.5000 "/>
<path d="M147.0000 99.5000 L140.0000 99.5000 "/>
</g> 
</g></g></g></svg>
