<?xml version="1.0" standalone="no"?>
 <!DOCTYPE svg PUBLIC "-//W3C//DTD SVG 1.1//EN" 
 "http://www.w3.org/Graphics/SVG/1.1/DTD/svg11.dtd"> 
<svg
  xmlns:svg="http://www.w3.org/2000/svg"
  xmlns="http://www.w3.org/2000/svg"
  xmlns:xlink="http://www.w3.org/1999/xlink"
  version="1.1"
  width="297.0022mm" height="210.0072mm" viewBox="0.0000 0.0000 297.0022 210.0072">
<title>SVG Image created as m5-pantilt-User_Comments.svg date 2023/09/19 04:43:33 </title>
  <desc>Image generated by PCBNEW </desc>
<g style="fill:#000000; fill-opacity:1.0000;stroke:#000000; stroke-opacity:1.0000;
stroke-linecap:round; stroke-linejoin:round;"
 transform="translate(0 0) scale(1 1)">
</g>
<g style="fill:#000000; fill-opacity:0.0; 
stroke:#000000; stroke-width:0.0000; stroke-opacity:1; 
stroke-linecap:round; stroke-linejoin:round;">
</g>
<g style="fill:#000000; fill-opacity:0.0; 
stroke:#000000; stroke-width:0.1200; stroke-opacity:1; 
stroke-linecap:round; stroke-linejoin:round;">
<path d="M103.1500 98.9500
L107.3000 98.9500
" />
<path d="M103.1500 94.7500
L107.3000 94.7500
" />
<path d="M107.3000 98.9500 A2.1000 2.1000 0.0 0 0 107.3000 94.7500" />
<path d="M103.1500 94.7500 A2.1000 2.1000 0.0 0 0 103.1500 98.9500" />
<path d="M146.8500 94.7500
L142.7000 94.7500
" />
<path d="M146.8500 98.9500
L142.7000 98.9500
" />
<path d="M142.7000 94.7500 A2.1000 2.1000 0.0 0 0 142.7000 98.9500" />
<path d="M146.8500 98.9500 A2.1000 2.1000 0.0 0 0 146.8500 94.7500" />
<path d="M146.8500 51.0500
L142.7000 51.0500
" />
<path d="M146.8500 55.2500
L142.7000 55.2500
" />
<path d="M142.7000 51.0500 A2.1000 2.1000 0.0 0 0 142.7000 55.2500" />
<path d="M146.8500 55.2500 A2.1000 2.1000 0.0 0 0 146.8500 51.0500" />
<path d="M103.1500 55.2500
L107.3000 55.2500
" />
<path d="M103.1500 51.0500
L107.3000 51.0500
" />
<path d="M107.3000 55.2500 A2.1000 2.1000 0.0 0 0 107.3000 51.0500" />
<path d="M103.1500 51.0500 A2.1000 2.1000 0.0 0 0 103.1500 55.2500" />
<g >
</g>
<g >
</g>
<g >
</g>
<g >
</g>
<g >
</g>
<g >
</g>
<g >
</g>
<g >
</g>
<g >
</g>
<g >
</g>
<g >
</g>
<g >
</g>
<g >
</g>
<g >
</g>
<g >
</g>
<g >
</g>
<g >
</g>
<g >
</g>
<g >
</g>
<g >
</g>
<g >
</g>
<g >
</g>
<g >
</g>
<g >
</g>
<g >
</g>
<g >
</g>
<g >
</g>
<g >
</g>
<g >
</g>
<g >
</g>
<g >
</g>
<g >
</g>
<g >
</g>
<g >
</g>
<g >
</g>
<g >
</g>
<g >
</g>
<g >
</g>
<g >
</g>
<g >
</g>
<g >
</g>
<g >
</g>
</g> 
</svg>
