<?xml version="1.0" standalone="no"?>
 <!DOCTYPE svg PUBLIC "-//W3C//DTD SVG 1.1//EN" 
 "http://www.w3.org/Graphics/SVG/1.1/DTD/svg11.dtd"> 
<svg
  xmlns:svg="http://www.w3.org/2000/svg"
  xmlns="http://www.w3.org/2000/svg"
  xmlns:xlink="http://www.w3.org/1999/xlink"
  version="1.1"
  width="297.0022mm" height="210.0072mm" viewBox="0.0000 0.0000 297.0022 210.0072">
<title>SVG Image created as m5-pantilt-B_Silkscreen.svg date 2023/09/19 04:43:35 </title>
  <desc>Image generated by PCBNEW </desc>
<g style="fill:#000000; fill-opacity:1.0000;stroke:#000000; stroke-opacity:1.0000;
stroke-linecap:round; stroke-linejoin:round;"
 transform="translate(0 0) scale(1 1)">
</g>
<g style="fill:#000000; fill-opacity:0.0; 
stroke:#000000; stroke-width:0.0000; stroke-opacity:1; 
stroke-linecap:round; stroke-linejoin:round;">
</g>
<g style="fill:#000000; fill-opacity:0.0; 
stroke:#000000; stroke-width:1.0000; stroke-opacity:1; 
stroke-linecap:round; stroke-linejoin:round;">
<path d="M189.3314 89.9416
L189.3822 60.2236
" />
<path d="M154.2286 90.0432
L189.3314 89.9416
" />
<path d="M154.3302 60.1728
L154.2286 90.0432
" />
<path d="M189.3822 60.2236
L154.3302 60.1728
" />
</g>
<g style="fill:#000000; fill-opacity:0.0; 
stroke:#000000; stroke-width:0.1500; stroke-opacity:1; 
stroke-linecap:round; stroke-linejoin:round;">
<text x="195.6022" y="76.1000"
transform="scale(-1 1) translate(-391.204400 0)"
textLength="1.7376" font-size="1.0667" lengthAdjust="spacingAndGlyphs"
text-anchor="middle" opacity="0">Rx</text>
<g class="stroked-text"><desc>Rx</desc>
<path d="M195.5260 76.0623
L195.2593 75.6813
" />
<path d="M195.0689 76.0623
L195.0689 75.2623
" />
<path d="M195.0689 75.2623
L195.3736 75.2623
" />
<path d="M195.3736 75.2623
L195.4498 75.3004
" />
<path d="M195.4498 75.3004
L195.4879 75.3385
" />
<path d="M195.4879 75.3385
L195.5260 75.4147
" />
<path d="M195.5260 75.4147
L195.5260 75.5290
" />
<path d="M195.5260 75.5290
L195.4879 75.6052
" />
<path d="M195.4879 75.6052
L195.4498 75.6432
" />
<path d="M195.4498 75.6432
L195.3736 75.6813
" />
<path d="M195.3736 75.6813
L195.0689 75.6813
" />
<path d="M195.7927 76.0623
L196.2117 75.5290
" />
<path d="M195.7927 75.5290
L196.2117 76.0623
" />
</g><g transform="rotate(-270.000000 161.5522 59.4500)">
<text x="161.5522" y="59.9500"
transform="scale(-1 1) translate(-323.104400 0)"
textLength="3.2976" font-size="1.3333" lengthAdjust="spacingAndGlyphs"
text-anchor="start" opacity="0">+5V</text>
</g>
<g class="stroked-text"><desc>+5V</desc>
<path d="M161.6261 59.1132
L161.6261 58.3513
" />
<path d="M162.0070 58.7323
L161.2451 58.7323
" />
<path d="M161.0070 57.3989
L161.0070 57.8751
" />
<path d="M161.0070 57.8751
L161.4832 57.9227
" />
<path d="M161.4832 57.9227
L161.4356 57.8751
" />
<path d="M161.4356 57.8751
L161.3880 57.7799
" />
<path d="M161.3880 57.7799
L161.3880 57.5418
" />
<path d="M161.3880 57.5418
L161.4356 57.4466
" />
<path d="M161.4356 57.4466
L161.4832 57.3989
" />
<path d="M161.4832 57.3989
L161.5784 57.3513
" />
<path d="M161.5784 57.3513
L161.8165 57.3513
" />
<path d="M161.8165 57.3513
L161.9118 57.3989
" />
<path d="M161.9118 57.3989
L161.9594 57.4466
" />
<path d="M161.9594 57.4466
L162.0070 57.5418
" />
<path d="M162.0070 57.5418
L162.0070 57.7799
" />
<path d="M162.0070 57.7799
L161.9594 57.8751
" />
<path d="M161.9594 57.8751
L161.9118 57.9227
" />
<path d="M161.0070 57.0656
L162.0070 56.7323
" />
<path d="M162.0070 56.7323
L161.0070 56.3989
" />
</g><g transform="rotate(-270.000000 159.5522 59.3500)">
<text x="159.5522" y="59.8500"
transform="scale(-1 1) translate(-319.104400 0)"
textLength="3.2976" font-size="1.3333" lengthAdjust="spacingAndGlyphs"
text-anchor="start" opacity="0">GND</text>
</g>
<g class="stroked-text"><desc>GND</desc>
<path d="M159.0546 58.4894
L159.0070 58.5846
" />
<path d="M159.0070 58.5846
L159.0070 58.7275
" />
<path d="M159.0070 58.7275
L159.0546 58.8704
" />
<path d="M159.0546 58.8704
L159.1499 58.9656
" />
<path d="M159.1499 58.9656
L159.2451 59.0132
" />
<path d="M159.2451 59.0132
L159.4356 59.0608
" />
<path d="M159.4356 59.0608
L159.5784 59.0608
" />
<path d="M159.5784 59.0608
L159.7689 59.0132
" />
<path d="M159.7689 59.0132
L159.8642 58.9656
" />
<path d="M159.8642 58.9656
L159.9594 58.8704
" />
<path d="M159.9594 58.8704
L160.0070 58.7275
" />
<path d="M160.0070 58.7275
L160.0070 58.6323
" />
<path d="M160.0070 58.6323
L159.9594 58.4894
" />
<path d="M159.9594 58.4894
L159.9118 58.4418
" />
<path d="M159.9118 58.4418
L159.5784 58.4418
" />
<path d="M159.5784 58.4418
L159.5784 58.6323
" />
<path d="M160.0070 58.0132
L159.0070 58.0132
" />
<path d="M159.0070 58.0132
L160.0070 57.4418
" />
<path d="M160.0070 57.4418
L159.0070 57.4418
" />
<path d="M160.0070 56.9656
L159.0070 56.9656
" />
<path d="M159.0070 56.9656
L159.0070 56.7275
" />
<path d="M159.0070 56.7275
L159.0546 56.5846
" />
<path d="M159.0546 56.5846
L159.1499 56.4894
" />
<path d="M159.1499 56.4894
L159.2451 56.4418
" />
<path d="M159.2451 56.4418
L159.4356 56.3942
" />
<path d="M159.4356 56.3942
L159.5784 56.3942
" />
<path d="M159.5784 56.3942
L159.7689 56.4418
" />
<path d="M159.7689 56.4418
L159.8642 56.4894
" />
<path d="M159.8642 56.4894
L159.9594 56.5846
" />
<path d="M159.9594 56.5846
L160.0070 56.7275
" />
<path d="M160.0070 56.7275
L160.0070 56.9656
" />
</g><g transform="rotate(-270.000000 163.5522 59.2000)">
<text x="163.5522" y="59.7000"
transform="scale(-1 1) translate(-327.104400 0)"
textLength="3.1548" font-size="1.3333" lengthAdjust="spacingAndGlyphs"
text-anchor="start" opacity="0">G26</text>
</g>
<g class="stroked-text"><desc>G26</desc>
<path d="M163.0546 58.3394
L163.0070 58.4346
" />
<path d="M163.0070 58.4346
L163.0070 58.5775
" />
<path d="M163.0070 58.5775
L163.0546 58.7204
" />
<path d="M163.0546 58.7204
L163.1499 58.8156
" />
<path d="M163.1499 58.8156
L163.2451 58.8632
" />
<path d="M163.2451 58.8632
L163.4356 58.9108
" />
<path d="M163.4356 58.9108
L163.5784 58.9108
" />
<path d="M163.5784 58.9108
L163.7689 58.8632
" />
<path d="M163.7689 58.8632
L163.8642 58.8156
" />
<path d="M163.8642 58.8156
L163.9594 58.7204
" />
<path d="M163.9594 58.7204
L164.0070 58.5775
" />
<path d="M164.0070 58.5775
L164.0070 58.4823
" />
<path d="M164.0070 58.4823
L163.9594 58.3394
" />
<path d="M163.9594 58.3394
L163.9118 58.2918
" />
<path d="M163.9118 58.2918
L163.5784 58.2918
" />
<path d="M163.5784 58.2918
L163.5784 58.4823
" />
<path d="M163.1023 57.9108
L163.0546 57.8632
" />
<path d="M163.0546 57.8632
L163.0070 57.7680
" />
<path d="M163.0070 57.7680
L163.0070 57.5299
" />
<path d="M163.0070 57.5299
L163.0546 57.4346
" />
<path d="M163.0546 57.4346
L163.1023 57.3870
" />
<path d="M163.1023 57.3870
L163.1975 57.3394
" />
<path d="M163.1975 57.3394
L163.2927 57.3394
" />
<path d="M163.2927 57.3394
L163.4356 57.3870
" />
<path d="M163.4356 57.3870
L164.0070 57.9585
" />
<path d="M164.0070 57.9585
L164.0070 57.3394
" />
<path d="M163.0070 56.4823
L163.0070 56.6727
" />
<path d="M163.0070 56.6727
L163.0546 56.7680
" />
<path d="M163.0546 56.7680
L163.1023 56.8156
" />
<path d="M163.1023 56.8156
L163.2451 56.9108
" />
<path d="M163.2451 56.9108
L163.4356 56.9585
" />
<path d="M163.4356 56.9585
L163.8165 56.9585
" />
<path d="M163.8165 56.9585
L163.9118 56.9108
" />
<path d="M163.9118 56.9108
L163.9594 56.8632
" />
<path d="M163.9594 56.8632
L164.0070 56.7680
" />
<path d="M164.0070 56.7680
L164.0070 56.5775
" />
<path d="M164.0070 56.5775
L163.9594 56.4823
" />
<path d="M163.9594 56.4823
L163.9118 56.4346
" />
<path d="M163.9118 56.4346
L163.8165 56.3870
" />
<path d="M163.8165 56.3870
L163.5784 56.3870
" />
<path d="M163.5784 56.3870
L163.4832 56.4346
" />
<path d="M163.4832 56.4346
L163.4356 56.4823
" />
<path d="M163.4356 56.4823
L163.3880 56.5775
" />
<path d="M163.3880 56.5775
L163.3880 56.7680
" />
<path d="M163.3880 56.7680
L163.4356 56.8632
" />
<path d="M163.4356 56.8632
L163.4832 56.9108
" />
<path d="M163.4832 56.9108
L163.5784 56.9585
" />
</g><text x="162.4022" y="52.5000"
transform="scale(-1 1) translate(-324.804400 0)"
textLength="3.7738" font-size="1.3333" lengthAdjust="spacingAndGlyphs"
text-anchor="middle" opacity="0">GPIO</text>
<g class="stroked-text"><desc>GPIO</desc>
<path d="M161.4022 51.5024
L161.3070 51.4548
" />
<path d="M161.3070 51.4548
L161.1641 51.4548
" />
<path d="M161.1641 51.4548
L161.0212 51.5024
" />
<path d="M161.0212 51.5024
L160.9260 51.5977
" />
<path d="M160.9260 51.5977
L160.8784 51.6929
" />
<path d="M160.8784 51.6929
L160.8308 51.8834
" />
<path d="M160.8308 51.8834
L160.8308 52.0262
" />
<path d="M160.8308 52.0262
L160.8784 52.2167
" />
<path d="M160.8784 52.2167
L160.9260 52.3120
" />
<path d="M160.9260 52.3120
L161.0212 52.4072
" />
<path d="M161.0212 52.4072
L161.1641 52.4548
" />
<path d="M161.1641 52.4548
L161.2593 52.4548
" />
<path d="M161.2593 52.4548
L161.4022 52.4072
" />
<path d="M161.4022 52.4072
L161.4498 52.3596
" />
<path d="M161.4498 52.3596
L161.4498 52.0262
" />
<path d="M161.4498 52.0262
L161.2593 52.0262
" />
<path d="M161.8784 52.4548
L161.8784 51.4548
" />
<path d="M161.8784 51.4548
L162.2593 51.4548
" />
<path d="M162.2593 51.4548
L162.3546 51.5024
" />
<path d="M162.3546 51.5024
L162.4022 51.5501
" />
<path d="M162.4022 51.5501
L162.4498 51.6453
" />
<path d="M162.4498 51.6453
L162.4498 51.7882
" />
<path d="M162.4498 51.7882
L162.4022 51.8834
" />
<path d="M162.4022 51.8834
L162.3546 51.9310
" />
<path d="M162.3546 51.9310
L162.2593 51.9786
" />
<path d="M162.2593 51.9786
L161.8784 51.9786
" />
<path d="M162.8784 52.4548
L162.8784 51.4548
" />
<path d="M163.5451 51.4548
L163.7355 51.4548
" />
<path d="M163.7355 51.4548
L163.8308 51.5024
" />
<path d="M163.8308 51.5024
L163.9260 51.5977
" />
<path d="M163.9260 51.5977
L163.9736 51.7882
" />
<path d="M163.9736 51.7882
L163.9736 52.1215
" />
<path d="M163.9736 52.1215
L163.9260 52.3120
" />
<path d="M163.9260 52.3120
L163.8308 52.4072
" />
<path d="M163.8308 52.4072
L163.7355 52.4548
" />
<path d="M163.7355 52.4548
L163.5451 52.4548
" />
<path d="M163.5451 52.4548
L163.4498 52.4072
" />
<path d="M163.4498 52.4072
L163.3546 52.3120
" />
<path d="M163.3546 52.3120
L163.3070 52.1215
" />
<path d="M163.3070 52.1215
L163.3070 51.7882
" />
<path d="M163.3070 51.7882
L163.3546 51.5977
" />
<path d="M163.3546 51.5977
L163.4498 51.5024
" />
<path d="M163.4498 51.5024
L163.5451 51.4548
" />
</g></g>
<g style="fill:#000000; fill-opacity:0.0; 
stroke:#000000; stroke-width:0.3000; stroke-opacity:1; 
stroke-linecap:round; stroke-linejoin:round;">
<text x="163.3022" y="94.8340"
transform="scale(-1 1) translate(-326.604400 0)"
textLength="24.8886" font-size="1.6000" lengthAdjust="spacingAndGlyphs"
text-anchor="middle" opacity="0">m5-pantilt board v1.0.0rc</text>
<g class="stroked-text"><desc>m5-pantilt board v1.0.0rc</desc>
<path d="M151.4736 94.7735
L151.4736 93.9735
" />
<path d="M151.4736 94.0878
L151.5308 94.0307
" />
<path d="M151.5308 94.0307
L151.6451 93.9735
" />
<path d="M151.6451 93.9735
L151.8165 93.9735
" />
<path d="M151.8165 93.9735
L151.9308 94.0307
" />
<path d="M151.9308 94.0307
L151.9879 94.1450
" />
<path d="M151.9879 94.1450
L151.9879 94.7735
" />
<path d="M151.9879 94.1450
L152.0451 94.0307
" />
<path d="M152.0451 94.0307
L152.1593 93.9735
" />
<path d="M152.1593 93.9735
L152.3308 93.9735
" />
<path d="M152.3308 93.9735
L152.4451 94.0307
" />
<path d="M152.4451 94.0307
L152.5022 94.1450
" />
<path d="M152.5022 94.1450
L152.5022 94.7735
" />
<path d="M153.6451 93.5735
L153.0736 93.5735
" />
<path d="M153.0736 93.5735
L153.0165 94.1450
" />
<path d="M153.0165 94.1450
L153.0736 94.0878
" />
<path d="M153.0736 94.0878
L153.1879 94.0307
" />
<path d="M153.1879 94.0307
L153.4736 94.0307
" />
<path d="M153.4736 94.0307
L153.5879 94.0878
" />
<path d="M153.5879 94.0878
L153.6451 94.1450
" />
<path d="M153.6451 94.1450
L153.7022 94.2593
" />
<path d="M153.7022 94.2593
L153.7022 94.5450
" />
<path d="M153.7022 94.5450
L153.6451 94.6593
" />
<path d="M153.6451 94.6593
L153.5879 94.7164
" />
<path d="M153.5879 94.7164
L153.4736 94.7735
" />
<path d="M153.4736 94.7735
L153.1879 94.7735
" />
<path d="M153.1879 94.7735
L153.0736 94.7164
" />
<path d="M153.0736 94.7164
L153.0165 94.6593
" />
<path d="M154.2165 94.3164
L155.1308 94.3164
" />
<path d="M155.7022 93.9735
L155.7022 95.1735
" />
<path d="M155.7022 94.0307
L155.8165 93.9735
" />
<path d="M155.8165 93.9735
L156.0451 93.9735
" />
<path d="M156.0451 93.9735
L156.1593 94.0307
" />
<path d="M156.1593 94.0307
L156.2165 94.0878
" />
<path d="M156.2165 94.0878
L156.2736 94.2021
" />
<path d="M156.2736 94.2021
L156.2736 94.5450
" />
<path d="M156.2736 94.5450
L156.2165 94.6593
" />
<path d="M156.2165 94.6593
L156.1593 94.7164
" />
<path d="M156.1593 94.7164
L156.0451 94.7735
" />
<path d="M156.0451 94.7735
L155.8165 94.7735
" />
<path d="M155.8165 94.7735
L155.7022 94.7164
" />
<path d="M157.3022 94.7735
L157.3022 94.1450
" />
<path d="M157.3022 94.1450
L157.2451 94.0307
" />
<path d="M157.2451 94.0307
L157.1308 93.9735
" />
<path d="M157.1308 93.9735
L156.9022 93.9735
" />
<path d="M156.9022 93.9735
L156.7879 94.0307
" />
<path d="M157.3022 94.7164
L157.1879 94.7735
" />
<path d="M157.1879 94.7735
L156.9022 94.7735
" />
<path d="M156.9022 94.7735
L156.7879 94.7164
" />
<path d="M156.7879 94.7164
L156.7308 94.6021
" />
<path d="M156.7308 94.6021
L156.7308 94.4878
" />
<path d="M156.7308 94.4878
L156.7879 94.3735
" />
<path d="M156.7879 94.3735
L156.9022 94.3164
" />
<path d="M156.9022 94.3164
L157.1879 94.3164
" />
<path d="M157.1879 94.3164
L157.3022 94.2593
" />
<path d="M157.8736 93.9735
L157.8736 94.7735
" />
<path d="M157.8736 94.0878
L157.9308 94.0307
" />
<path d="M157.9308 94.0307
L158.0451 93.9735
" />
<path d="M158.0451 93.9735
L158.2165 93.9735
" />
<path d="M158.2165 93.9735
L158.3308 94.0307
" />
<path d="M158.3308 94.0307
L158.3879 94.1450
" />
<path d="M158.3879 94.1450
L158.3879 94.7735
" />
<path d="M158.7879 93.9735
L159.2451 93.9735
" />
<path d="M158.9593 93.5735
L158.9593 94.6021
" />
<path d="M158.9593 94.6021
L159.0165 94.7164
" />
<path d="M159.0165 94.7164
L159.1308 94.7735
" />
<path d="M159.1308 94.7735
L159.2451 94.7735
" />
<path d="M159.6451 94.7735
L159.6451 93.9735
" />
<path d="M159.6451 93.5735
L159.5879 93.6307
" />
<path d="M159.5879 93.6307
L159.6451 93.6878
" />
<path d="M159.6451 93.6878
L159.7022 93.6307
" />
<path d="M159.7022 93.6307
L159.6451 93.5735
" />
<path d="M159.6451 93.5735
L159.6451 93.6878
" />
<path d="M160.3879 94.7735
L160.2736 94.7164
" />
<path d="M160.2736 94.7164
L160.2165 94.6021
" />
<path d="M160.2165 94.6021
L160.2165 93.5735
" />
<path d="M160.6736 93.9735
L161.1308 93.9735
" />
<path d="M160.8451 93.5735
L160.8451 94.6021
" />
<path d="M160.8451 94.6021
L160.9022 94.7164
" />
<path d="M160.9022 94.7164
L161.0165 94.7735
" />
<path d="M161.0165 94.7735
L161.1308 94.7735
" />
<path d="M162.4451 94.7735
L162.4451 93.5735
" />
<path d="M162.4451 94.0307
L162.5593 93.9735
" />
<path d="M162.5593 93.9735
L162.7879 93.9735
" />
<path d="M162.7879 93.9735
L162.9022 94.0307
" />
<path d="M162.9022 94.0307
L162.9593 94.0878
" />
<path d="M162.9593 94.0878
L163.0165 94.2021
" />
<path d="M163.0165 94.2021
L163.0165 94.5450
" />
<path d="M163.0165 94.5450
L162.9593 94.6593
" />
<path d="M162.9593 94.6593
L162.9022 94.7164
" />
<path d="M162.9022 94.7164
L162.7879 94.7735
" />
<path d="M162.7879 94.7735
L162.5593 94.7735
" />
<path d="M162.5593 94.7735
L162.4451 94.7164
" />
<path d="M163.7022 94.7735
L163.5879 94.7164
" />
<path d="M163.5879 94.7164
L163.5308 94.6593
" />
<path d="M163.5308 94.6593
L163.4736 94.5450
" />
<path d="M163.4736 94.5450
L163.4736 94.2021
" />
<path d="M163.4736 94.2021
L163.5308 94.0878
" />
<path d="M163.5308 94.0878
L163.5879 94.0307
" />
<path d="M163.5879 94.0307
L163.7022 93.9735
" />
<path d="M163.7022 93.9735
L163.8736 93.9735
" />
<path d="M163.8736 93.9735
L163.9879 94.0307
" />
<path d="M163.9879 94.0307
L164.0451 94.0878
" />
<path d="M164.0451 94.0878
L164.1022 94.2021
" />
<path d="M164.1022 94.2021
L164.1022 94.5450
" />
<path d="M164.1022 94.5450
L164.0451 94.6593
" />
<path d="M164.0451 94.6593
L163.9879 94.7164
" />
<path d="M163.9879 94.7164
L163.8736 94.7735
" />
<path d="M163.8736 94.7735
L163.7022 94.7735
" />
<path d="M165.1308 94.7735
L165.1308 94.1450
" />
<path d="M165.1308 94.1450
L165.0736 94.0307
" />
<path d="M165.0736 94.0307
L164.9593 93.9735
" />
<path d="M164.9593 93.9735
L164.7308 93.9735
" />
<path d="M164.7308 93.9735
L164.6165 94.0307
" />
<path d="M165.1308 94.7164
L165.0165 94.7735
" />
<path d="M165.0165 94.7735
L164.7308 94.7735
" />
<path d="M164.7308 94.7735
L164.6165 94.7164
" />
<path d="M164.6165 94.7164
L164.5593 94.6021
" />
<path d="M164.5593 94.6021
L164.5593 94.4878
" />
<path d="M164.5593 94.4878
L164.6165 94.3735
" />
<path d="M164.6165 94.3735
L164.7308 94.3164
" />
<path d="M164.7308 94.3164
L165.0165 94.3164
" />
<path d="M165.0165 94.3164
L165.1308 94.2593
" />
<path d="M165.7022 94.7735
L165.7022 93.9735
" />
<path d="M165.7022 94.2021
L165.7593 94.0878
" />
<path d="M165.7593 94.0878
L165.8165 94.0307
" />
<path d="M165.8165 94.0307
L165.9308 93.9735
" />
<path d="M165.9308 93.9735
L166.0451 93.9735
" />
<path d="M166.9593 94.7735
L166.9593 93.5735
" />
<path d="M166.9593 94.7164
L166.8451 94.7735
" />
<path d="M166.8451 94.7735
L166.6165 94.7735
" />
<path d="M166.6165 94.7735
L166.5022 94.7164
" />
<path d="M166.5022 94.7164
L166.4451 94.6593
" />
<path d="M166.4451 94.6593
L166.3879 94.5450
" />
<path d="M166.3879 94.5450
L166.3879 94.2021
" />
<path d="M166.3879 94.2021
L166.4451 94.0878
" />
<path d="M166.4451 94.0878
L166.5022 94.0307
" />
<path d="M166.5022 94.0307
L166.6165 93.9735
" />
<path d="M166.6165 93.9735
L166.8451 93.9735
" />
<path d="M166.8451 93.9735
L166.9593 94.0307
" />
<path d="M168.3308 93.9735
L168.6165 94.7735
" />
<path d="M168.6165 94.7735
L168.9022 93.9735
" />
<path d="M169.9879 94.7735
L169.3022 94.7735
" />
<path d="M169.6451 94.7735
L169.6451 93.5735
" />
<path d="M169.6451 93.5735
L169.5308 93.7450
" />
<path d="M169.5308 93.7450
L169.4165 93.8593
" />
<path d="M169.4165 93.8593
L169.3022 93.9164
" />
<path d="M170.5022 94.6593
L170.5593 94.7164
" />
<path d="M170.5593 94.7164
L170.5022 94.7735
" />
<path d="M170.5022 94.7735
L170.4451 94.7164
" />
<path d="M170.4451 94.7164
L170.5022 94.6593
" />
<path d="M170.5022 94.6593
L170.5022 94.7735
" />
<path d="M171.3022 93.5735
L171.4165 93.5735
" />
<path d="M171.4165 93.5735
L171.5308 93.6307
" />
<path d="M171.5308 93.6307
L171.5879 93.6878
" />
<path d="M171.5879 93.6878
L171.6451 93.8021
" />
<path d="M171.6451 93.8021
L171.7022 94.0307
" />
<path d="M171.7022 94.0307
L171.7022 94.3164
" />
<path d="M171.7022 94.3164
L171.6451 94.5450
" />
<path d="M171.6451 94.5450
L171.5879 94.6593
" />
<path d="M171.5879 94.6593
L171.5308 94.7164
" />
<path d="M171.5308 94.7164
L171.4165 94.7735
" />
<path d="M171.4165 94.7735
L171.3022 94.7735
" />
<path d="M171.3022 94.7735
L171.1879 94.7164
" />
<path d="M171.1879 94.7164
L171.1308 94.6593
" />
<path d="M171.1308 94.6593
L171.0736 94.5450
" />
<path d="M171.0736 94.5450
L171.0165 94.3164
" />
<path d="M171.0165 94.3164
L171.0165 94.0307
" />
<path d="M171.0165 94.0307
L171.0736 93.8021
" />
<path d="M171.0736 93.8021
L171.1308 93.6878
" />
<path d="M171.1308 93.6878
L171.1879 93.6307
" />
<path d="M171.1879 93.6307
L171.3022 93.5735
" />
<path d="M172.2165 94.6593
L172.2736 94.7164
" />
<path d="M172.2736 94.7164
L172.2165 94.7735
" />
<path d="M172.2165 94.7735
L172.1593 94.7164
" />
<path d="M172.1593 94.7164
L172.2165 94.6593
" />
<path d="M172.2165 94.6593
L172.2165 94.7735
" />
<path d="M173.0165 93.5735
L173.1308 93.5735
" />
<path d="M173.1308 93.5735
L173.2451 93.6307
" />
<path d="M173.2451 93.6307
L173.3022 93.6878
" />
<path d="M173.3022 93.6878
L173.3593 93.8021
" />
<path d="M173.3593 93.8021
L173.4165 94.0307
" />
<path d="M173.4165 94.0307
L173.4165 94.3164
" />
<path d="M173.4165 94.3164
L173.3593 94.5450
" />
<path d="M173.3593 94.5450
L173.3022 94.6593
" />
<path d="M173.3022 94.6593
L173.2451 94.7164
" />
<path d="M173.2451 94.7164
L173.1308 94.7735
" />
<path d="M173.1308 94.7735
L173.0165 94.7735
" />
<path d="M173.0165 94.7735
L172.9022 94.7164
" />
<path d="M172.9022 94.7164
L172.8451 94.6593
" />
<path d="M172.8451 94.6593
L172.7879 94.5450
" />
<path d="M172.7879 94.5450
L172.7308 94.3164
" />
<path d="M172.7308 94.3164
L172.7308 94.0307
" />
<path d="M172.7308 94.0307
L172.7879 93.8021
" />
<path d="M172.7879 93.8021
L172.8451 93.6878
" />
<path d="M172.8451 93.6878
L172.9022 93.6307
" />
<path d="M172.9022 93.6307
L173.0165 93.5735
" />
<path d="M173.9308 94.7735
L173.9308 93.9735
" />
<path d="M173.9308 94.2021
L173.9879 94.0878
" />
<path d="M173.9879 94.0878
L174.0451 94.0307
" />
<path d="M174.0451 94.0307
L174.1593 93.9735
" />
<path d="M174.1593 93.9735
L174.2736 93.9735
" />
<path d="M175.1879 94.7164
L175.0736 94.7735
" />
<path d="M175.0736 94.7735
L174.8451 94.7735
" />
<path d="M174.8451 94.7735
L174.7308 94.7164
" />
<path d="M174.7308 94.7164
L174.6736 94.6593
" />
<path d="M174.6736 94.6593
L174.6165 94.5450
" />
<path d="M174.6165 94.5450
L174.6165 94.2021
" />
<path d="M174.6165 94.2021
L174.6736 94.0878
" />
<path d="M174.6736 94.0878
L174.7308 94.0307
" />
<path d="M174.7308 94.0307
L174.8451 93.9735
" />
<path d="M174.8451 93.9735
L175.0736 93.9735
" />
<path d="M175.0736 93.9735
L175.1879 94.0307
" />
</g><text x="163.3022" y="96.7660"
transform="scale(-1 1) translate(-326.604400 0)"
textLength="14.1457" font-size="1.6000" lengthAdjust="spacingAndGlyphs"
text-anchor="middle" opacity="0">@meganetaaan</text>
<g class="stroked-text"><desc>@meganetaaan</desc>
<path d="M157.5879 96.1341
L157.5308 96.0770
" />
<path d="M157.5308 96.0770
L157.4165 96.0198
" />
<path d="M157.4165 96.0198
L157.3022 96.0198
" />
<path d="M157.3022 96.0198
L157.1879 96.0770
" />
<path d="M157.1879 96.0770
L157.1308 96.1341
" />
<path d="M157.1308 96.1341
L157.0736 96.2484
" />
<path d="M157.0736 96.2484
L157.0736 96.3627
" />
<path d="M157.0736 96.3627
L157.1308 96.4770
" />
<path d="M157.1308 96.4770
L157.1879 96.5341
" />
<path d="M157.1879 96.5341
L157.3022 96.5913
" />
<path d="M157.3022 96.5913
L157.4165 96.5913
" />
<path d="M157.4165 96.5913
L157.5308 96.5341
" />
<path d="M157.5308 96.5341
L157.5879 96.4770
" />
<path d="M157.5879 96.0198
L157.5879 96.4770
" />
<path d="M157.5879 96.4770
L157.6451 96.5341
" />
<path d="M157.6451 96.5341
L157.7022 96.5341
" />
<path d="M157.7022 96.5341
L157.8165 96.4770
" />
<path d="M157.8165 96.4770
L157.8736 96.3627
" />
<path d="M157.8736 96.3627
L157.8736 96.0770
" />
<path d="M157.8736 96.0770
L157.7593 95.9055
" />
<path d="M157.7593 95.9055
L157.5879 95.7913
" />
<path d="M157.5879 95.7913
L157.3593 95.7341
" />
<path d="M157.3593 95.7341
L157.1308 95.7913
" />
<path d="M157.1308 95.7913
L156.9593 95.9055
" />
<path d="M156.9593 95.9055
L156.8451 96.0770
" />
<path d="M156.8451 96.0770
L156.7879 96.3055
" />
<path d="M156.7879 96.3055
L156.8451 96.5341
" />
<path d="M156.8451 96.5341
L156.9593 96.7055
" />
<path d="M156.9593 96.7055
L157.1308 96.8198
" />
<path d="M157.1308 96.8198
L157.3593 96.8770
" />
<path d="M157.3593 96.8770
L157.5879 96.8198
" />
<path d="M157.5879 96.8198
L157.7593 96.7055
" />
<path d="M158.3879 96.7055
L158.3879 95.9055
" />
<path d="M158.3879 96.0198
L158.4451 95.9627
" />
<path d="M158.4451 95.9627
L158.5593 95.9055
" />
<path d="M158.5593 95.9055
L158.7308 95.9055
" />
<path d="M158.7308 95.9055
L158.8451 95.9627
" />
<path d="M158.8451 95.9627
L158.9022 96.0770
" />
<path d="M158.9022 96.0770
L158.9022 96.7055
" />
<path d="M158.9022 96.0770
L158.9593 95.9627
" />
<path d="M158.9593 95.9627
L159.0736 95.9055
" />
<path d="M159.0736 95.9055
L159.2451 95.9055
" />
<path d="M159.2451 95.9055
L159.3593 95.9627
" />
<path d="M159.3593 95.9627
L159.4165 96.0770
" />
<path d="M159.4165 96.0770
L159.4165 96.7055
" />
<path d="M160.4451 96.6484
L160.3308 96.7055
" />
<path d="M160.3308 96.7055
L160.1022 96.7055
" />
<path d="M160.1022 96.7055
L159.9879 96.6484
" />
<path d="M159.9879 96.6484
L159.9308 96.5341
" />
<path d="M159.9308 96.5341
L159.9308 96.0770
" />
<path d="M159.9308 96.0770
L159.9879 95.9627
" />
<path d="M159.9879 95.9627
L160.1022 95.9055
" />
<path d="M160.1022 95.9055
L160.3308 95.9055
" />
<path d="M160.3308 95.9055
L160.4451 95.9627
" />
<path d="M160.4451 95.9627
L160.5022 96.0770
" />
<path d="M160.5022 96.0770
L160.5022 96.1913
" />
<path d="M160.5022 96.1913
L159.9308 96.3055
" />
<path d="M161.5308 95.9055
L161.5308 96.8770
" />
<path d="M161.5308 96.8770
L161.4736 96.9913
" />
<path d="M161.4736 96.9913
L161.4165 97.0484
" />
<path d="M161.4165 97.0484
L161.3022 97.1055
" />
<path d="M161.3022 97.1055
L161.1308 97.1055
" />
<path d="M161.1308 97.1055
L161.0165 97.0484
" />
<path d="M161.5308 96.6484
L161.4165 96.7055
" />
<path d="M161.4165 96.7055
L161.1879 96.7055
" />
<path d="M161.1879 96.7055
L161.0736 96.6484
" />
<path d="M161.0736 96.6484
L161.0165 96.5913
" />
<path d="M161.0165 96.5913
L160.9593 96.4770
" />
<path d="M160.9593 96.4770
L160.9593 96.1341
" />
<path d="M160.9593 96.1341
L161.0165 96.0198
" />
<path d="M161.0165 96.0198
L161.0736 95.9627
" />
<path d="M161.0736 95.9627
L161.1879 95.9055
" />
<path d="M161.1879 95.9055
L161.4165 95.9055
" />
<path d="M161.4165 95.9055
L161.5308 95.9627
" />
<path d="M162.6165 96.7055
L162.6165 96.0770
" />
<path d="M162.6165 96.0770
L162.5593 95.9627
" />
<path d="M162.5593 95.9627
L162.4451 95.9055
" />
<path d="M162.4451 95.9055
L162.2165 95.9055
" />
<path d="M162.2165 95.9055
L162.1022 95.9627
" />
<path d="M162.6165 96.6484
L162.5022 96.7055
" />
<path d="M162.5022 96.7055
L162.2165 96.7055
" />
<path d="M162.2165 96.7055
L162.1022 96.6484
" />
<path d="M162.1022 96.6484
L162.0451 96.5341
" />
<path d="M162.0451 96.5341
L162.0451 96.4198
" />
<path d="M162.0451 96.4198
L162.1022 96.3055
" />
<path d="M162.1022 96.3055
L162.2165 96.2484
" />
<path d="M162.2165 96.2484
L162.5022 96.2484
" />
<path d="M162.5022 96.2484
L162.6165 96.1913
" />
<path d="M163.1879 95.9055
L163.1879 96.7055
" />
<path d="M163.1879 96.0198
L163.2451 95.9627
" />
<path d="M163.2451 95.9627
L163.3593 95.9055
" />
<path d="M163.3593 95.9055
L163.5308 95.9055
" />
<path d="M163.5308 95.9055
L163.6451 95.9627
" />
<path d="M163.6451 95.9627
L163.7022 96.0770
" />
<path d="M163.7022 96.0770
L163.7022 96.7055
" />
<path d="M164.7308 96.6484
L164.6165 96.7055
" />
<path d="M164.6165 96.7055
L164.3879 96.7055
" />
<path d="M164.3879 96.7055
L164.2736 96.6484
" />
<path d="M164.2736 96.6484
L164.2165 96.5341
" />
<path d="M164.2165 96.5341
L164.2165 96.0770
" />
<path d="M164.2165 96.0770
L164.2736 95.9627
" />
<path d="M164.2736 95.9627
L164.3879 95.9055
" />
<path d="M164.3879 95.9055
L164.6165 95.9055
" />
<path d="M164.6165 95.9055
L164.7308 95.9627
" />
<path d="M164.7308 95.9627
L164.7879 96.0770
" />
<path d="M164.7879 96.0770
L164.7879 96.1913
" />
<path d="M164.7879 96.1913
L164.2165 96.3055
" />
<path d="M165.1308 95.9055
L165.5879 95.9055
" />
<path d="M165.3022 95.5055
L165.3022 96.5341
" />
<path d="M165.3022 96.5341
L165.3593 96.6484
" />
<path d="M165.3593 96.6484
L165.4736 96.7055
" />
<path d="M165.4736 96.7055
L165.5879 96.7055
" />
<path d="M166.5022 96.7055
L166.5022 96.0770
" />
<path d="M166.5022 96.0770
L166.4451 95.9627
" />
<path d="M166.4451 95.9627
L166.3308 95.9055
" />
<path d="M166.3308 95.9055
L166.1022 95.9055
" />
<path d="M166.1022 95.9055
L165.9879 95.9627
" />
<path d="M166.5022 96.6484
L166.3879 96.7055
" />
<path d="M166.3879 96.7055
L166.1022 96.7055
" />
<path d="M166.1022 96.7055
L165.9879 96.6484
" />
<path d="M165.9879 96.6484
L165.9308 96.5341
" />
<path d="M165.9308 96.5341
L165.9308 96.4198
" />
<path d="M165.9308 96.4198
L165.9879 96.3055
" />
<path d="M165.9879 96.3055
L166.1022 96.2484
" />
<path d="M166.1022 96.2484
L166.3879 96.2484
" />
<path d="M166.3879 96.2484
L166.5022 96.1913
" />
<path d="M167.5879 96.7055
L167.5879 96.0770
" />
<path d="M167.5879 96.0770
L167.5308 95.9627
" />
<path d="M167.5308 95.9627
L167.4165 95.9055
" />
<path d="M167.4165 95.9055
L167.1879 95.9055
" />
<path d="M167.1879 95.9055
L167.0736 95.9627
" />
<path d="M167.5879 96.6484
L167.4736 96.7055
" />
<path d="M167.4736 96.7055
L167.1879 96.7055
" />
<path d="M167.1879 96.7055
L167.0736 96.6484
" />
<path d="M167.0736 96.6484
L167.0165 96.5341
" />
<path d="M167.0165 96.5341
L167.0165 96.4198
" />
<path d="M167.0165 96.4198
L167.0736 96.3055
" />
<path d="M167.0736 96.3055
L167.1879 96.2484
" />
<path d="M167.1879 96.2484
L167.4736 96.2484
" />
<path d="M167.4736 96.2484
L167.5879 96.1913
" />
<path d="M168.6736 96.7055
L168.6736 96.0770
" />
<path d="M168.6736 96.0770
L168.6165 95.9627
" />
<path d="M168.6165 95.9627
L168.5022 95.9055
" />
<path d="M168.5022 95.9055
L168.2736 95.9055
" />
<path d="M168.2736 95.9055
L168.1593 95.9627
" />
<path d="M168.6736 96.6484
L168.5593 96.7055
" />
<path d="M168.5593 96.7055
L168.2736 96.7055
" />
<path d="M168.2736 96.7055
L168.1593 96.6484
" />
<path d="M168.1593 96.6484
L168.1022 96.5341
" />
<path d="M168.1022 96.5341
L168.1022 96.4198
" />
<path d="M168.1022 96.4198
L168.1593 96.3055
" />
<path d="M168.1593 96.3055
L168.2736 96.2484
" />
<path d="M168.2736 96.2484
L168.5593 96.2484
" />
<path d="M168.5593 96.2484
L168.6736 96.1913
" />
<path d="M169.2451 95.9055
L169.2451 96.7055
" />
<path d="M169.2451 96.0198
L169.3022 95.9627
" />
<path d="M169.3022 95.9627
L169.4165 95.9055
" />
<path d="M169.4165 95.9055
L169.5879 95.9055
" />
<path d="M169.5879 95.9055
L169.7022 95.9627
" />
<path d="M169.7022 95.9627
L169.7593 96.0770
" />
<path d="M169.7593 96.0770
L169.7593 96.7055
" />
</g></g>
<g style="fill:#000000; fill-opacity:0.0; 
stroke:#000000; stroke-width:0.1500; stroke-opacity:1; 
stroke-linecap:round; stroke-linejoin:round;">
<g transform="rotate(-270.000000 165.5022 59.2000)">
<text x="165.5022" y="59.7000"
transform="scale(-1 1) translate(-331.004400 0)"
textLength="3.1548" font-size="1.3333" lengthAdjust="spacingAndGlyphs"
text-anchor="start" opacity="0">G36</text>
</g>
<g class="stroked-text"><desc>G36</desc>
<path d="M165.0046 58.3394
L164.9570 58.4346
" />
<path d="M164.9570 58.4346
L164.9570 58.5775
" />
<path d="M164.9570 58.5775
L165.0046 58.7204
" />
<path d="M165.0046 58.7204
L165.0999 58.8156
" />
<path d="M165.0999 58.8156
L165.1951 58.8632
" />
<path d="M165.1951 58.8632
L165.3856 58.9108
" />
<path d="M165.3856 58.9108
L165.5284 58.9108
" />
<path d="M165.5284 58.9108
L165.7189 58.8632
" />
<path d="M165.7189 58.8632
L165.8142 58.8156
" />
<path d="M165.8142 58.8156
L165.9094 58.7204
" />
<path d="M165.9094 58.7204
L165.9570 58.5775
" />
<path d="M165.9570 58.5775
L165.9570 58.4823
" />
<path d="M165.9570 58.4823
L165.9094 58.3394
" />
<path d="M165.9094 58.3394
L165.8618 58.2918
" />
<path d="M165.8618 58.2918
L165.5284 58.2918
" />
<path d="M165.5284 58.2918
L165.5284 58.4823
" />
<path d="M164.9570 57.9585
L164.9570 57.3394
" />
<path d="M164.9570 57.3394
L165.3380 57.6727
" />
<path d="M165.3380 57.6727
L165.3380 57.5299
" />
<path d="M165.3380 57.5299
L165.3856 57.4346
" />
<path d="M165.3856 57.4346
L165.4332 57.3870
" />
<path d="M165.4332 57.3870
L165.5284 57.3394
" />
<path d="M165.5284 57.3394
L165.7665 57.3394
" />
<path d="M165.7665 57.3394
L165.8618 57.3870
" />
<path d="M165.8618 57.3870
L165.9094 57.4346
" />
<path d="M165.9094 57.4346
L165.9570 57.5299
" />
<path d="M165.9570 57.5299
L165.9570 57.8156
" />
<path d="M165.9570 57.8156
L165.9094 57.9108
" />
<path d="M165.9094 57.9108
L165.8618 57.9585
" />
<path d="M164.9570 56.4823
L164.9570 56.6727
" />
<path d="M164.9570 56.6727
L165.0046 56.7680
" />
<path d="M165.0046 56.7680
L165.0523 56.8156
" />
<path d="M165.0523 56.8156
L165.1951 56.9108
" />
<path d="M165.1951 56.9108
L165.3856 56.9585
" />
<path d="M165.3856 56.9585
L165.7665 56.9585
" />
<path d="M165.7665 56.9585
L165.8618 56.9108
" />
<path d="M165.8618 56.9108
L165.9094 56.8632
" />
<path d="M165.9094 56.8632
L165.9570 56.7680
" />
<path d="M165.9570 56.7680
L165.9570 56.5775
" />
<path d="M165.9570 56.5775
L165.9094 56.4823
" />
<path d="M165.9094 56.4823
L165.8618 56.4346
" />
<path d="M165.8618 56.4346
L165.7665 56.3870
" />
<path d="M165.7665 56.3870
L165.5284 56.3870
" />
<path d="M165.5284 56.3870
L165.4332 56.4346
" />
<path d="M165.4332 56.4346
L165.3856 56.4823
" />
<path d="M165.3856 56.4823
L165.3380 56.5775
" />
<path d="M165.3380 56.5775
L165.3380 56.7680
" />
<path d="M165.3380 56.7680
L165.3856 56.8632
" />
<path d="M165.3856 56.8632
L165.4332 56.9108
" />
<path d="M165.4332 56.9108
L165.5284 56.9585
" />
</g><text x="186.4022" y="76.2000"
transform="scale(-1 1) translate(-372.804400 0)"
textLength="1.5471" font-size="1.0667" lengthAdjust="spacingAndGlyphs"
text-anchor="middle" opacity="0">Tx</text>
<g class="stroked-text"><desc>Tx</desc>
<path d="M185.8498 75.3623
L186.3070 75.3623
" />
<path d="M186.0784 76.1623
L186.0784 75.3623
" />
<path d="M186.4974 76.1623
L186.9165 75.6290
" />
<path d="M186.4974 75.6290
L186.9165 76.1623
" />
</g><text x="186.8422" y="55.9992"
transform="scale(-1 1) translate(-373.684400 0)"
textLength="1.9643" font-size="1.3333" lengthAdjust="spacingAndGlyphs"
text-anchor="middle" opacity="0">J1</text>
<g class="stroked-text"><desc>J1</desc>
<path d="M186.5089 54.9540
L186.5089 55.6683
" />
<path d="M186.5089 55.6683
L186.4612 55.8112
" />
<path d="M186.4612 55.8112
L186.3660 55.9064
" />
<path d="M186.3660 55.9064
L186.2232 55.9540
" />
<path d="M186.2232 55.9540
L186.1279 55.9540
" />
<path d="M187.5089 55.9540
L186.9374 55.9540
" />
<path d="M187.2232 55.9540
L187.2232 54.9540
" />
<path d="M187.2232 54.9540
L187.1279 55.0969
" />
<path d="M187.1279 55.0969
L187.0327 55.1921
" />
<path d="M187.0327 55.1921
L186.9374 55.2397
" />
</g></g>
<g style="fill:#000000; fill-opacity:0.0; 
stroke:#000000; stroke-width:0.1200; stroke-opacity:1; 
stroke-linecap:round; stroke-linejoin:round;">
<path d="M186.7622 56.4600
L188.2022 56.4600
" />
<path d="M188.2022 94.1100
L193.4022 94.1100
" />
<path d="M188.2022 93.5400
L188.2022 94.1100
" />
<path d="M188.2022 91.0000
L188.2022 92.0200
" />
<path d="M188.2022 88.4600
L188.2022 89.4800
" />
<path d="M188.2022 85.9200
L188.2022 86.9400
" />
<path d="M188.2022 83.3800
L188.2022 84.4000
" />
<path d="M188.2022 80.8400
L188.2022 81.8600
" />
<path d="M188.2022 78.3000
L188.2022 79.3200
" />
<path d="M188.2022 75.7600
L188.2022 76.7800
" />
<path d="M188.2022 73.2200
L188.2022 74.2400
" />
<path d="M188.2022 70.6800
L188.2022 71.7000
" />
<path d="M188.2022 68.1400
L188.2022 69.1600
" />
<path d="M188.2022 65.6000
L188.2022 66.6200
" />
<path d="M188.2022 63.0600
L188.2022 64.0800
" />
<path d="M188.2022 60.5200
L188.2022 61.5400
" />
<path d="M188.2022 57.9800
L188.2022 59.0000
" />
<path d="M188.2022 55.8900
L188.2022 56.4600
" />
<path d="M188.2022 55.8900
L193.4022 55.8900
" />
<path d="M193.4022 93.5400
L193.4022 94.1100
" />
<path d="M193.4022 91.0000
L193.4022 92.0200
" />
<path d="M193.4022 88.4600
L193.4022 89.4800
" />
<path d="M193.4022 85.9200
L193.4022 86.9400
" />
<path d="M193.4022 83.3800
L193.4022 84.4000
" />
<path d="M193.4022 80.8400
L193.4022 81.8600
" />
<path d="M193.4022 78.3000
L193.4022 79.3200
" />
<path d="M193.4022 75.7600
L193.4022 76.7800
" />
<path d="M193.4022 73.2200
L193.4022 74.2400
" />
<path d="M193.4022 70.6800
L193.4022 71.7000
" />
<path d="M193.4022 68.1400
L193.4022 69.1600
" />
<path d="M193.4022 65.6000
L193.4022 66.6200
" />
<path d="M193.4022 63.0600
L193.4022 64.0800
" />
<path d="M193.4022 60.5200
L193.4022 61.5400
" />
<path d="M193.4022 57.9800
L193.4022 59.0000
" />
<path d="M193.4022 55.8900
L193.4022 56.4600
" />
</g>
<g style="fill:#000000; fill-opacity:1.0000; 
stroke:#000000; stroke-width:0.0100; stroke-opacity:1; 
stroke-linecap:round; stroke-linejoin:round;">
<path style="fill:#000000; fill-opacity:1.0000; 
stroke:#000000; stroke-width:0.0100; stroke-opacity:1; 
stroke-linecap:round; stroke-linejoin:round;fill-rule:evenodd;"
d="M 163.8555,71.5186
163.4274,71.9807
163.3406,72.5930
163.6853,73.1175
164.2652,73.3212
164.7631,73.1374
165.0688,72.6946
165.0876,72.1321
164.7245,71.5895
164.3817,71.3966
Z" /> 
<path style="fill:#000000; fill-opacity:1.0000; 
stroke:#000000; stroke-width:0.0100; stroke-opacity:1; 
stroke-linecap:round; stroke-linejoin:round;fill-rule:evenodd;"
d="M 177.8289,71.7073
177.5044,72.1614
177.5296,72.7750
177.7905,73.0555
178.3827,73.2124
179.0044,73.0249
179.2913,72.5384
179.1313,71.9060
178.8722,71.6332
178.3394,71.5016
Z" /> 
<path style="fill:#000000; fill-opacity:1.0000; 
stroke:#000000; stroke-width:0.0100; stroke-opacity:1; 
stroke-linecap:round; stroke-linejoin:round;fill-rule:evenodd;"
d="M 169.1705,76.9888
168.5704,77.0277
168.2466,77.1156
168.1143,77.2634
168.0890,77.4825
168.0891,77.5056
168.1226,77.7163
168.2733,77.8607
168.6247,77.9513
169.2603,78.0006
170.2635,78.0210
171.7181,78.0250
172.9299,78.0217
174.0153,78.0028
174.7106,77.9574
175.0960,77.8751
175.2516,77.7452
175.2574,77.5571
175.2253,77.4527
175.0672,77.2899
174.7132,77.1774
174.0785,77.1025
173.0784,77.0524
171.6283,77.0146
171.5374,77.0127
170.1313,76.9875
Z" /> 
<path style="fill:#000000; fill-opacity:1.0000; 
stroke:#000000; stroke-width:0.0100; stroke-opacity:1; 
stroke-linecap:round; stroke-linejoin:round;fill-rule:evenodd;"
d="M 183.7694,96.6511
183.7094,96.6734
183.6845,96.6901
183.6593,96.7140
183.6413,96.7445
183.6293,96.7860
183.6223,96.8430
183.6189,96.9200
183.6180,97.0216
183.6182,97.0740
183.6190,97.1457
183.6205,97.2029
183.6224,97.2408
183.6246,97.2545
183.6390,97.2500
183.6681,97.2377
183.6690,97.2373
183.6841,97.2294
183.6943,97.2185
183.7005,97.1995
183.7037,97.1671
183.7049,97.1161
183.7051,97.0413
183.7055,96.9938
183.7095,96.9046
183.7185,96.8393
183.7337,96.7944
183.7559,96.7665
183.7860,96.7522
183.7902,96.7512
183.8467,96.7504
183.8908,96.7757
183.9212,96.8265
183.9267,96.8412
183.9390,96.8736
183.9453,96.8886
183.9582,96.8865
183.9863,96.8754
184.0125,96.8569
184.0244,96.8221
184.0209,96.7972
183.9990,96.7465
183.9636,96.6991
183.9221,96.6663
183.9048,96.6588
183.8391,96.6461
Z" /> 
<path style="fill:#000000; fill-opacity:1.0000; 
stroke:#000000; stroke-width:0.0100; stroke-opacity:1; 
stroke-linecap:round; stroke-linejoin:round;fill-rule:evenodd;"
d="M 179.8212,96.6178
179.7534,96.6497
179.6978,96.7048
179.6863,96.7220
179.6768,96.7416
179.6700,96.7662
179.6654,96.8007
179.6623,96.8499
179.6602,96.9185
179.6583,97.0114
179.6538,97.2690
179.6920,97.2545
179.7269,97.2412
179.7531,97.2283
179.7702,97.2118
179.7801,97.1865
179.7848,97.1473
179.7862,97.0893
179.7863,97.0073
179.7865,96.9419
179.7876,96.8792
179.7905,96.8363
179.7956,96.8082
179.8036,96.7897
179.8153,96.7755
179.8439,96.7556
179.8920,96.7481
179.9395,96.7671
179.9426,96.7695
179.9524,96.7807
179.9596,96.7988
179.9649,96.8280
179.9688,96.8730
179.9719,96.9380
179.9749,97.0277
179.9822,97.2677
180.0439,97.2400
180.1056,97.2124
180.1056,96.9932
180.1053,96.9337
180.1031,96.8509
180.0975,96.7892
180.0873,96.7437
180.0709,96.7095
180.0473,96.6815
180.0149,96.6547
179.9683,96.6278
179.8949,96.6102
Z" /> 
<path style="fill:#000000; fill-opacity:1.0000; 
stroke:#000000; stroke-width:0.0100; stroke-opacity:1; 
stroke-linecap:round; stroke-linejoin:round;fill-rule:evenodd;"
d="M 181.6445,96.6665
181.6399,96.6690
181.6025,96.6981
181.5690,96.7354
181.5632,96.7439
181.5520,96.7636
181.5441,96.7869
181.5386,96.8191
181.5349,96.8650
181.5323,96.9299
181.5301,97.0187
181.5298,97.0337
181.5288,97.1310
181.5302,97.1999
181.5340,97.2409
181.5403,97.2545
181.5593,97.2505
181.5916,97.2381
181.5992,97.2345
181.6110,97.2264
181.6192,97.2130
181.6246,97.1896
181.6279,97.1515
181.6302,97.0938
181.6322,97.0119
181.6327,96.9879
181.6348,96.9123
181.6375,96.8593
181.6417,96.8241
181.6481,96.8015
181.6576,96.7865
181.6711,96.7742
181.7109,96.7526
181.7599,96.7485
181.8037,96.7650
181.8352,96.7992
181.8473,96.8481
181.8476,96.8614
181.8542,96.8855
181.8737,96.8891
181.9119,96.8748
181.9208,96.8702
181.9447,96.8432
181.9451,96.8030
181.9224,96.7474
181.9015,96.7171
181.8481,96.6741
181.7821,96.6498
181.7116,96.6464
Z" /> 
<path style="fill:#000000; fill-opacity:1.0000; 
stroke:#000000; stroke-width:0.0100; stroke-opacity:1; 
stroke-linecap:round; stroke-linejoin:round;fill-rule:evenodd;"
d="M 180.5737,96.4494
180.5265,96.4693
180.5265,96.8665
180.5267,96.9695
180.5272,97.0621
180.5280,97.1407
180.5290,97.2014
180.5302,97.2406
180.5316,97.2545
180.5321,97.2545
180.5499,97.2494
180.5824,97.2386
180.6281,97.2226
180.6281,97.0182
180.6284,96.9378
180.6297,96.8796
180.6328,96.8399
180.6384,96.8136
180.6471,96.7954
180.6596,96.7801
180.6682,96.7720
180.7145,96.7494
180.7655,96.7514
180.8122,96.7781
180.8190,96.7847
180.8299,96.7985
180.8374,96.8166
180.8420,96.8442
180.8446,96.8860
180.8456,96.9470
180.8458,97.0321
180.8459,97.0752
180.8465,97.1462
180.8476,97.2031
180.8491,97.2408
180.8509,97.2545
180.8514,97.2545
180.8692,97.2494
180.9017,97.2386
180.9474,97.2226
180.9474,97.0172
180.9473,96.9990
180.9454,96.9036
180.9395,96.8315
180.9282,96.7778
180.9100,96.7375
180.8835,96.7059
180.8473,96.6779
180.8119,96.6603
180.7554,96.6468
180.6998,96.6460
180.6571,96.6592
180.6539,96.6610
180.6440,96.6608
180.6372,96.6456
180.6323,96.6106
180.6281,96.5513
180.6208,96.4295
Z" /> 
<path style="fill:#000000; fill-opacity:1.0000; 
stroke:#000000; stroke-width:0.0100; stroke-opacity:1; 
stroke-linecap:round; stroke-linejoin:round;fill-rule:evenodd;"
d="M 182.5983,96.6493
182.5664,96.6618
182.5295,96.6786
182.5295,97.1652
182.5754,97.2111
182.5859,97.2214
182.6149,97.2443
182.6443,97.2517
182.6879,97.2483
182.7056,97.2461
182.7514,97.2414
182.7835,97.2396
182.7930,97.2399
182.8319,97.2429
182.8790,97.2483
182.8941,97.2502
182.9321,97.2509
182.9599,97.2394
182.9915,97.2111
183.0375,97.1652
183.0375,96.9051
183.0371,96.8282
183.0360,96.7549
183.0342,96.6968
183.0320,96.6587
183.0295,96.6449
183.0289,96.6450
183.0104,96.6518
182.9790,96.6669
182.9366,96.6888
182.9326,96.9172
182.9286,97.1457
182.8415,97.1457
182.8375,96.8953
182.8363,96.8272
182.8345,96.7545
182.8325,96.6967
182.8306,96.6586
182.8288,96.6449
182.8283,96.6450
182.8107,96.6500
182.7784,96.6608
182.7327,96.6768
182.7324,96.8967
182.7322,96.9349
182.7307,97.0091
182.7279,97.0711
182.7242,97.1153
182.7199,97.1360
182.7045,97.1471
182.6730,97.1506
182.6383,97.1457
182.6343,96.8953
182.6329,96.8317
182.6300,96.7564
182.6261,96.6973
182.6217,96.6587
182.6169,96.6449
Z" /> 
<path style="fill:#000000; fill-opacity:1.0000; 
stroke:#000000; stroke-width:0.0100; stroke-opacity:1; 
stroke-linecap:round; stroke-linejoin:round;fill-rule:evenodd;"
d="M 177.9865,96.9352
177.9865,96.9509
177.9873,97.0211
177.9900,97.0700
177.9956,97.1042
178.0051,97.1301
178.0194,97.1544
178.0230,97.1594
178.0603,97.1991
178.1029,97.2291
178.1247,97.2388
178.2033,97.2550
178.2810,97.2445
178.3526,97.2087
178.4128,97.1489
178.4179,97.1409
178.4345,97.0943
178.4456,97.0296
178.4510,96.9547
178.4504,96.8855
178.3040,96.8855
178.3028,96.9814
178.3023,96.9876
178.2956,97.0405
178.2835,97.0740
178.2632,97.0970
178.2291,97.1185
178.1954,97.1197
178.1607,97.0949
178.1546,97.0883
178.1428,97.0688
178.1358,97.0404
178.1325,96.9964
178.1316,96.9302
178.1331,96.8681
178.1403,96.8090
178.1552,96.7717
178.1796,96.7522
178.2152,96.7465
178.2288,96.7476
178.2668,96.7682
178.2919,96.8143
178.3040,96.8855
178.4504,96.8855
178.4504,96.8781
178.4433,96.8079
178.4294,96.7523
178.4116,96.7153
178.3613,96.6577
178.2933,96.6220
178.2100,96.6097
178.1878,96.6103
178.1223,96.6239
178.0685,96.6582
178.0191,96.7173
178.0162,96.7217
178.0029,96.7453
177.9943,96.7719
177.9893,96.8082
177.9870,96.8604
177.9865,96.9302
Z" /> 
<path style="fill:#000000; fill-opacity:1.0000; 
stroke:#000000; stroke-width:0.0100; stroke-opacity:1; 
stroke-linecap:round; stroke-linejoin:round;fill-rule:evenodd;"
d="M 184.1116,96.9526
184.1119,96.9913
184.1154,97.0675
184.1247,97.1233
184.1418,97.1646
184.1689,97.1975
184.2079,97.2278
184.2328,97.2417
184.2726,97.2510
184.3285,97.2502
184.3598,97.2473
184.3975,97.2383
184.4277,97.2187
184.4628,97.1823
184.4675,97.1769
184.4990,97.1360
184.5141,97.1003
184.5179,97.0580
184.5179,96.9958
184.4745,97.0122
184.4428,97.0314
184.4152,97.0763
184.4095,97.0908
184.3773,97.1315
184.3336,97.1521
184.2859,97.1502
184.2421,97.1239
184.2271,97.1075
184.2134,97.0827
184.2177,97.0601
184.2423,97.0370
184.2895,97.0102
184.3619,96.9769
184.5107,96.9118
184.5146,96.8473
184.5131,96.8062
184.4162,96.8062
184.4088,96.8317
184.3754,96.8588
184.3146,96.8897
184.3045,96.8942
184.2564,96.9150
184.2205,96.9297
184.2038,96.9352
184.2012,96.9311
184.2002,96.9062
184.2038,96.8663
184.2130,96.8272
184.2414,96.7779
184.2825,96.7501
184.3316,96.7464
184.3841,96.7691
184.3986,96.7805
184.4162,96.8062
184.5131,96.8062
184.5129,96.7991
184.4909,96.7381
184.4632,96.7045
184.4058,96.6670
184.3377,96.6480
184.2673,96.6495
184.2029,96.6734
184.1888,96.6825
184.1563,96.7108
184.1341,96.7467
184.1204,96.7954
184.1135,96.8622
184.1126,96.9062
Z" /> 
<path style="fill:#000000; fill-opacity:1.0000; 
stroke:#000000; stroke-width:0.0100; stroke-opacity:1; 
stroke-linecap:round; stroke-linejoin:round;fill-rule:evenodd;"
d="M 182.0215,96.9497
182.0227,97.0063
182.0309,97.0835
182.0487,97.1413
182.0782,97.1854
182.1216,97.2216
182.1629,97.2425
182.2322,97.2541
182.3015,97.2414
182.3641,97.2059
182.4134,97.1494
182.4194,97.1390
182.4273,97.1207
182.4331,97.0974
182.4372,97.0651
182.4399,97.0197
182.4414,96.9573
182.4415,96.9517
182.3408,96.9517
182.3404,97.0046
182.3383,97.0524
182.3329,97.0832
182.3230,97.1039
182.3072,97.1214
182.3035,97.1247
182.2559,97.1494
182.2056,97.1469
182.1587,97.1173
182.1447,97.1020
182.1330,97.0816
182.1265,97.0535
182.1237,97.0105
182.1231,96.9456
182.1234,96.8961
182.1255,96.8478
182.1308,96.8166
182.1407,96.7956
182.1566,96.7781
182.1660,96.7702
182.2144,96.7488
182.2652,96.7522
182.3092,96.7801
182.3187,96.7912
182.3303,96.8120
182.3369,96.8411
182.3400,96.8854
182.3408,96.9517
182.4415,96.9517
182.4421,96.8738
182.4423,96.7654
182.4424,96.4286
182.3952,96.4484
182.3827,96.4538
182.3629,96.4660
182.3515,96.4845
182.3453,96.5168
182.3408,96.5706
182.3367,96.6189
182.3312,96.6506
182.3235,96.6624
182.3117,96.6592
182.2819,96.6481
182.2285,96.6453
182.1711,96.6556
182.1216,96.6779
182.0943,96.6984
182.0593,96.7386
182.0369,96.7901
182.0250,96.8586
182.0217,96.9456
Z" /> 
<path style="fill:#000000; fill-opacity:1.0000; 
stroke:#000000; stroke-width:0.0100; stroke-opacity:1; 
stroke-linecap:round; stroke-linejoin:round;fill-rule:evenodd;"
d="M 179.0899,96.8941
179.0945,97.0041
179.0971,97.0274
179.1165,97.1104
179.1516,97.1734
179.2050,97.2218
179.2080,97.2238
179.2758,97.2522
179.3467,97.2547
179.4149,97.2331
179.4750,97.1891
179.5214,97.1243
179.5221,97.1228
179.5376,97.0826
179.5488,97.0369
179.5548,96.9940
179.5543,96.9622
179.5462,96.9497
179.5390,96.9505
179.5043,96.9642
179.4651,96.9895
179.4318,97.0188
179.4147,97.0446
179.3970,97.0795
179.3607,97.1112
179.3186,97.1239
179.3031,97.1202
179.2726,97.1018
179.2461,97.0762
179.2347,97.0529
179.2347,97.0528
179.2476,97.0422
179.2820,97.0229
179.3326,96.9978
179.3944,96.9695
179.3947,96.9694
179.4618,96.9395
179.5068,96.9180
179.5341,96.9014
179.5480,96.8865
179.5531,96.8699
179.5537,96.8482
179.5495,96.8070
179.4062,96.8070
179.3914,96.8199
179.3546,96.8393
179.3535,96.8399
179.3100,96.8606
179.2711,96.8771
179.2464,96.8841
179.2365,96.8748
179.2347,96.8427
179.2422,96.8029
179.2683,96.7667
179.3060,96.7479
179.3481,96.7498
179.3872,96.7756
179.4026,96.7935
179.4062,96.8070
179.5495,96.8070
179.5484,96.7961
179.5219,96.7253
179.4777,96.6697
179.4205,96.6312
179.3551,96.6118
179.2863,96.6134
179.2189,96.6379
179.1577,96.6873
179.1238,96.7362
179.0994,96.8060
179.0954,96.8427
Z" /> 
<path style="fill:#000000; fill-opacity:1.0000; 
stroke:#000000; stroke-width:0.0100; stroke-opacity:1; 
stroke-linecap:round; stroke-linejoin:round;fill-rule:evenodd;"
d="M 181.1627,96.6606
181.1128,96.6897
181.0909,96.7123
181.0487,96.7801
181.0345,96.8539
181.0345,96.9048
181.0812,96.8851
181.1135,96.8653
181.1390,96.8242
181.1416,96.8157
181.1697,96.7725
181.2121,96.7491
181.2608,96.7481
181.3078,96.7719
181.3148,96.7781
181.3383,96.8047
181.3422,96.8280
181.3244,96.8509
181.2830,96.8763
181.2159,96.9073
181.2114,96.9093
181.1369,96.9440
181.0860,96.9748
181.0547,97.0055
181.0389,97.0401
181.0345,97.0825
181.0402,97.1294
181.0691,97.1896
181.1200,97.2328
181.1568,97.2458
181.2088,97.2529
181.2592,97.2513
181.2952,97.2406
181.2990,97.2380
181.3092,97.2193
181.3022,97.1865
181.2899,97.1607
181.2703,97.1500
181.2330,97.1505
181.1813,97.1475
181.1475,97.1262
181.1361,97.0869
181.1361,97.0857
181.1430,97.0629
181.1665,97.0420
181.2123,97.0178
181.2745,96.9887
181.3157,96.9729
181.3395,96.9739
181.3506,96.9948
181.3538,97.0386
181.3538,97.1084
181.3542,97.1515
181.3558,97.2046
181.3584,97.2410
181.3618,97.2545
181.3627,97.2544
181.3820,97.2471
181.4139,97.2317
181.4581,97.2088
181.4528,97.0031
181.4525,96.9894
181.4483,96.8937
181.4409,96.8215
181.4289,96.7681
181.4106,96.7286
181.3846,96.6984
181.3495,96.6725
181.3488,96.6721
181.2919,96.6510
181.2262,96.6474
Z" /> 
<path style="fill:#000000; fill-opacity:1.0000; 
stroke:#000000; stroke-width:0.0100; stroke-opacity:1; 
stroke-linecap:round; stroke-linejoin:round;fill-rule:evenodd;"
d="M 178.5424,97.0015
178.5409,97.1130
178.5405,97.1453
178.5393,97.2535
178.5390,97.3362
178.5406,97.3964
178.5447,97.4371
178.5522,97.4610
178.5639,97.4712
178.5806,97.4704
178.6030,97.4616
178.6319,97.4478
178.6381,97.4448
178.6638,97.4303
178.6772,97.4131
178.6824,97.3843
178.6832,97.3353
178.6832,97.2473
178.7739,97.2473
178.8297,97.2448
178.8736,97.2349
178.9100,97.2149
178.9127,97.2129
178.9497,97.1799
178.9754,97.1399
178.9916,97.0877
179.0001,97.0176
179.0021,96.9384
178.8573,96.9384
178.8573,96.9517
178.8559,97.0116
178.8515,97.0507
178.8427,97.0762
178.8283,97.0949
178.8274,97.0957
178.7920,97.1200
178.7576,97.1176
178.7188,97.0883
178.7093,97.0782
178.6953,97.0577
178.6874,97.0310
178.6840,96.9905
178.6832,96.9286
178.6838,96.8911
178.6912,96.8230
178.7080,96.7783
178.7360,96.7539
178.7767,96.7465
178.7938,96.7481
178.8235,96.7638
178.8432,96.7987
178.8540,96.8559
178.8573,96.9384
179.0021,96.9384
179.0025,96.9243
179.0019,96.8562
178.9995,96.8046
178.9940,96.7688
178.9845,96.7420
178.9698,96.7173
178.9563,96.6985
178.9074,96.6476
178.8519,96.6199
178.7823,96.6112
178.7025,96.6199
178.6336,96.6512
178.5791,96.7064
178.5750,96.7122
178.5654,96.7278
178.5580,96.7455
178.5526,96.7693
178.5486,96.8030
178.5459,96.8503
178.5439,96.9152
178.5437,96.9286
Z" /> 
<path style="fill:#000000; fill-opacity:1.0000; 
stroke:#000000; stroke-width:0.0100; stroke-opacity:1; 
stroke-linecap:round; stroke-linejoin:round;fill-rule:evenodd;"
d="M 183.2847,96.6462
183.2536,96.6541
183.2246,96.6738
183.1874,96.7105
183.1634,96.7364
183.1384,96.7700
183.1272,96.8015
183.1245,96.8415
183.1245,96.9069
183.1692,96.8838
183.2045,96.8557
183.2287,96.8178
183.2329,96.8076
183.2646,96.7676
183.3086,96.7476
183.3567,96.7496
183.4003,96.7755
183.4188,96.7966
183.4295,96.8236
183.4180,96.8476
183.3822,96.8718
183.3201,96.8992
183.3107,96.9030
183.2541,96.9278
183.2056,96.9522
183.1747,96.9715
183.1438,97.0060
183.1233,97.0610
183.1255,97.1200
183.1498,97.1758
183.1956,97.2214
183.2328,97.2407
183.3045,97.2543
183.3443,97.2525
183.3812,97.2426
183.3954,97.2218
183.3901,97.1876
183.3886,97.1831
183.3764,97.1591
183.3560,97.1500
183.3173,97.1506
183.2899,97.1515
183.2579,97.1444
183.2360,97.1232
183.2235,97.0972
183.2221,97.0698
183.2222,97.0697
183.2384,97.0549
183.2730,97.0335
183.3179,97.0095
183.3646,96.9871
183.4050,96.9707
183.4307,96.9642
183.4345,96.9705
183.4393,97.0001
183.4426,97.0484
183.4439,97.1094
183.4441,97.1515
183.4455,97.2047
183.4477,97.2410
183.4504,97.2545
183.4649,97.2500
183.4940,97.2377
183.5309,97.2208
183.5309,97.0047
183.5307,96.9493
183.5285,96.8652
183.5228,96.8028
183.5123,96.7574
183.4957,96.7241
183.4717,96.6984
183.4389,96.6753
183.3971,96.6563
183.3199,96.6449
Z" /> 
<path style="fill:#000000; fill-opacity:1.0000; 
stroke:#000000; stroke-width:0.0100; stroke-opacity:1; 
stroke-linecap:round; stroke-linejoin:round;fill-rule:evenodd;"
d="M 181.1383,91.9424
181.0623,91.9429
181.0077,91.9441
180.9707,91.9465
180.9477,91.9505
180.9349,91.9563
180.9288,91.9643
180.9256,91.9749
180.9256,91.9753
180.9204,92.0003
180.9110,92.0487
180.8983,92.1153
180.8834,92.1950
180.8671,92.2829
180.8658,92.2901
180.8495,92.3753
180.8344,92.4502
180.8214,92.5102
180.8115,92.5507
180.8057,92.5672
180.8056,92.5672
180.7873,92.5763
180.7496,92.5915
180.7007,92.6094
180.6979,92.6103
180.6354,92.6340
180.5627,92.6636
180.4949,92.6931
180.3835,92.7436
180.1368,92.5752
180.1194,92.5633
180.0450,92.5129
179.9786,92.4686
179.9242,92.4329
179.8857,92.4085
179.8672,92.3979
179.8545,92.4003
179.8256,92.4191
179.7811,92.4563
179.7195,92.5130
179.6398,92.5902
179.6327,92.5973
179.5694,92.6602
179.5132,92.7173
179.4675,92.7648
179.4358,92.7993
179.4214,92.8171
179.4214,92.8172
179.4196,92.8308
179.4263,92.8528
179.4433,92.8863
179.4722,92.9343
179.5147,92.9997
179.5726,93.0856
179.5824,93.1002
179.6323,93.1736
179.6763,93.2387
179.7118,93.2914
179.7362,93.3279
179.7469,93.3444
179.7477,93.3478
179.7427,93.3738
179.7275,93.4162
179.7047,93.4677
179.6738,93.5352
179.6392,93.6152
179.6098,93.6876
179.6026,93.7064
179.5835,93.7542
179.5695,93.7876
179.5632,93.8001
179.5562,93.8010
179.5248,93.8065
179.4734,93.8158
179.4074,93.8281
179.3321,93.8422
179.2528,93.8573
179.1750,93.8722
179.1038,93.8860
179.0448,93.8976
179.0032,93.9060
178.9843,93.9102
178.9812,93.9114
178.9736,93.9178
178.9679,93.9315
178.9639,93.9560
178.9613,93.9950
178.9598,94.0522
178.9591,94.1312
178.9589,94.2355
178.9589,94.5528
179.0351,94.5678
179.0444,94.5696
179.0933,94.5790
179.1610,94.5917
179.2397,94.6063
179.3218,94.6214
179.3541,94.6274
179.4263,94.6422
179.4865,94.6561
179.5292,94.6680
179.5487,94.6763
179.5575,94.6899
179.5737,94.7259
179.5901,94.7726
179.5959,94.7900
179.6173,94.8474
179.6448,94.9152
179.6741,94.9824
179.6897,95.0174
179.7120,95.0698
179.7273,95.1091
179.7330,95.1286
179.7327,95.1300
179.7219,95.1507
179.6976,95.1907
179.6621,95.2460
179.6181,95.3128
179.5679,95.3872
179.4027,95.6296
179.6197,95.8470
179.6407,95.8679
179.7049,95.9305
179.7622,95.9845
179.8094,96.0268
179.8430,96.0545
179.8597,96.0643
179.8779,96.0568
179.9159,96.0352
179.9695,96.0022
180.0343,95.9602
180.1063,95.9119
180.1769,95.8643
180.2407,95.8223
180.2927,95.7892
180.3289,95.7674
180.3453,95.7595
180.3463,95.7596
180.3681,95.7673
180.4068,95.7853
180.4546,95.8100
180.4551,95.8103
180.5186,95.8421
180.5621,95.8576
180.5891,95.8577
180.6031,95.8430
180.6090,95.8285
180.6250,95.7898
180.6495,95.7303
180.6814,95.6532
180.7193,95.5615
180.7619,95.4586
180.8079,95.3475
180.8495,95.2465
180.8919,95.1428
180.9294,95.0501
180.9608,94.9716
180.9848,94.9105
181.0001,94.8698
181.0055,94.8528
180.9952,94.8372
180.9666,94.8112
180.9262,94.7809
180.8292,94.7017
180.7424,94.6005
180.6789,94.4891
180.6390,94.3709
180.6232,94.2491
180.6319,94.1270
180.6654,94.0079
180.7242,93.8951
180.8086,93.7919
180.8526,93.7517
180.9580,93.6806
181.0708,93.6343
181.1877,93.6116
181.3053,93.6114
181.4205,93.6327
181.5299,93.6743
181.6301,93.7351
181.7180,93.8140
181.7901,93.9099
181.8433,94.0218
181.8741,94.1485
181.8798,94.2095
181.8720,94.3418
181.8369,94.4673
181.7756,94.5838
181.6890,94.6890
181.5782,94.7809
181.5393,94.8099
181.5101,94.8363
181.4989,94.8528
181.5034,94.8672
181.5178,94.9058
181.5410,94.9652
181.5717,95.0422
181.6087,95.1337
181.6507,95.2365
181.6964,95.3475
181.7380,95.4481
181.7810,95.5519
181.8194,95.6448
181.8519,95.7235
181.8772,95.7849
181.8941,95.8258
181.9012,95.8430
181.9013,95.8432
181.9154,95.8577
181.9425,95.8576
181.9862,95.8419
182.0498,95.8100
182.0548,95.8073
182.1021,95.7831
182.1394,95.7660
182.1591,95.7595
182.1752,95.7672
182.2112,95.7889
182.2631,95.8219
182.3268,95.8638
182.3981,95.9119
182.4685,95.9591
182.5335,96.0013
182.5874,96.0346
182.6258,96.0565
182.6447,96.0643
182.6479,96.0633
182.6702,96.0476
182.7085,96.0150
182.7592,95.9687
182.8190,95.9117
182.8846,95.8471
183.1016,95.6298
182.9326,95.3813
182.7636,95.1327
182.8150,95.0216
182.8152,95.0213
182.8460,94.9504
182.8775,94.8715
182.9029,94.8016
182.9068,94.7903
182.9262,94.7380
182.9436,94.6973
182.9558,94.6763
182.9608,94.6733
182.9906,94.6634
183.0412,94.6505
183.1070,94.6361
183.1826,94.6214
183.2052,94.6172
183.2872,94.6021
183.3636,94.5879
183.4269,94.5760
183.4693,94.5678
183.5455,94.5528
183.5455,94.2355
183.5454,94.1965
183.5451,94.1013
183.5442,94.0303
183.5423,93.9797
183.5392,93.9461
183.5347,93.9257
183.5284,93.9150
183.5201,93.9102
183.5120,93.9083
183.4790,93.9014
183.4265,93.8910
183.3596,93.8780
183.2839,93.8634
183.2045,93.8483
183.1270,93.8337
183.0565,93.8205
182.9985,93.8099
182.9583,93.8027
182.9412,93.8001
182.9401,93.7985
182.9308,93.7781
182.9148,93.7390
182.8946,93.6876
182.8665,93.6184
182.8320,93.5383
182.7997,93.4677
182.7922,93.4519
182.7714,93.4023
182.7590,93.3640
182.7573,93.3444
182.7582,93.3430
182.7717,93.3224
182.7983,93.2825
182.8357,93.2271
182.8810,93.1602
182.9316,93.0855
182.9888,93.0007
183.0316,92.9348
183.0607,92.8865
183.0779,92.8527
183.0847,92.8306
183.0829,92.8170
183.0823,92.8160
183.0659,92.7962
183.0325,92.7602
182.9855,92.7115
182.9284,92.6536
182.8646,92.5902
182.7984,92.5259
182.7336,92.4654
182.6859,92.4247
182.6542,92.4025
182.6372,92.3979
182.6350,92.3989
182.6117,92.4128
182.5693,92.4400
182.5118,92.4779
182.4433,92.5238
182.3676,92.5752
182.1209,92.7436
182.0095,92.6931
182.0063,92.6916
181.9379,92.6620
181.8653,92.6325
181.8037,92.6094
181.8035,92.6093
181.7546,92.5914
181.7170,92.5763
181.6987,92.5672
181.6984,92.5669
181.6923,92.5483
181.6821,92.5060
181.6689,92.4447
181.6536,92.3688
181.6373,92.2829
181.6368,92.2798
181.6205,92.1921
181.6056,92.1127
181.5930,92.0467
181.5838,91.9991
181.5788,91.9749
181.5784,91.9736
181.5751,91.9633
181.5685,91.9555
181.5547,91.9499
181.5303,91.9462
181.4915,91.9439
181.4347,91.9428
181.3561,91.9423
181.2522,91.9423
181.2391,91.9423
Z" /> 
<g >
</g>
<g >
</g>
<g >
</g>
<g >
</g>
<g >
</g>
<g >
</g>
<g >
</g>
<g >
</g>
<g >
</g>
<g >
</g>
<g >
</g>
<g >
</g>
<g >
</g>
<g >
</g>
<g >
</g>
<g >
</g>
<g >
</g>
<g >
</g>
<g >
</g>
<g >
</g>
<g >
</g>
<g >
</g>
<g >
</g>
<g >
</g>
<g >
</g>
<g >
</g>
<g >
</g>
<g >
</g>
<g >
</g>
<g >
</g>
<g >
</g>
<g >
</g>
<g >
</g>
<g >
</g>
<g >
</g>
<g >
</g>
<g >
</g>
<g >
</g>
<g >
</g>
<g >
</g>
<g >
</g>
<g >
</g>
</g> 
</svg>
