<?xml version='1.0' encoding='ASCII' standalone='yes'?>
<svg xmlns="http://www.w3.org/2000/svg" version="1.1" width="297.0022mm" height="210.0072mm" viewBox="0.0000 0.0000 297.0022 210.0072">
            <title>Picture generated by PcbDraw </title>
            <desc>Picture generated by PcbDraw</desc>
        <defs><clipPath id="cut-off"><path d=" M 106.2000 88.9764 m-0.5500 0 a 0.5500 0.5500 0 1 0 1.1 0 a 0.5500 0.5500 0 1 0 -1.1 0  M 106.2000 61.0296 m-0.5500 0 a 0.5500 0.5500 0 1 0 1.1 0 a 0.5500 0.5500 0 1 0 -1.1 0  M 106.2000 58.5000 m-0.5500 0 a 0.5500 0.5500 0 1 0 1.1 0 a 0.5500 0.5500 0 1 0 -1.1 0  M 106.2000 91.5500 m-0.5500 0 a 0.5500 0.5500 0 1 0 1.1 0 a 0.5500 0.5500 0 1 0 -1.1 0  M 110.0 100.0 L 110.0 99.5 L 103.0 99.5 A 2.5 2.5 0 0 1 100.5 97.0 L 100.5 90.0 L 100.0 90.0 L 100.0 60.0 L 100.5 60.0 L 100.5 53.0 A 2.5 2.5 0 0 1 103.0 50.5 L 110.0 50.5 L 110.0 50.0 L 140.0 50.0 L 140.0 50.5 L 147.0 50.5 A 2.5 2.5 0 0 1 149.5 53.0 L 149.5 60.0 L 150.0 60.0 L 150.0 90.0 L 149.5 90.0 L 149.5 97.0 A 2.5 2.5 0 0 1 147.0 99.5 L 140.0 99.5 L 140.0 100.0 L 110.0 100.0 " style="fill-rule: evenodd;"/></clipPath><mask id="pads-mask-silkscreen"><rect x="88.835477" y="49.925" width="61.724523" height="55.981422" fill="white"/><g style="fill:#000000; fill-opacity:0.0;  stroke:#000000; stroke-width:0.0000; stroke-opacity:1;  stroke-linecap:round; stroke-linejoin:round;">
<g style="fill:#000000; fill-opacity:1.0000;  stroke:#000000; stroke-width:0.0000; stroke-opacity:1;  stroke-linecap:round; stroke-linejoin:round;">
<circle cx="107.3000" cy="96.8500" r="1.0510"/> 
</g>
<g style="fill:#000000; fill-opacity:1.0000;  stroke:#000000; stroke-width:0.0000; stroke-opacity:1;  stroke-linecap:round; stroke-linejoin:round;">
<circle cx="103.1500" cy="96.8500" r="1.5510"/> 
</g>
<g style="fill:#000000; fill-opacity:1.0000;  stroke:#000000; stroke-width:0.0000; stroke-opacity:1;  stroke-linecap:round; stroke-linejoin:round;">
<circle cx="142.7000" cy="96.8500" r="1.0510"/> 
</g>
<g style="fill:#000000; fill-opacity:1.0000;  stroke:#000000; stroke-width:0.0000; stroke-opacity:1;  stroke-linecap:round; stroke-linejoin:round;">
<circle cx="146.8500" cy="96.8500" r="1.5510"/> 
</g>
<g style="fill:#000000; fill-opacity:1.0000;  stroke:#000000; stroke-width:0.0000; stroke-opacity:1;  stroke-linecap:round; stroke-linejoin:round;">
<circle cx="142.7000" cy="53.1500" r="1.0510"/> 
</g>
<g style="fill:#000000; fill-opacity:1.0000;  stroke:#000000; stroke-width:0.0000; stroke-opacity:1;  stroke-linecap:round; stroke-linejoin:round;">
<circle cx="146.8500" cy="53.1500" r="1.5510"/> 
</g>
<g style="fill:#000000; fill-opacity:1.0000;  stroke:#000000; stroke-width:0.0000; stroke-opacity:1;  stroke-linecap:round; stroke-linejoin:round;">
<circle cx="107.3000" cy="53.1500" r="1.0510"/> 
</g>
<g style="fill:#000000; fill-opacity:1.0000;  stroke:#000000; stroke-width:0.0000; stroke-opacity:1;  stroke-linecap:round; stroke-linejoin:round;">
<circle cx="103.1500" cy="53.1500" r="1.5510"/> 
</g>
<g style="fill:#000000; fill-opacity:1.0000;  stroke:#000000; stroke-width:0.0000; stroke-opacity:1;  stroke-linecap:round; stroke-linejoin:round;">
<path style="fill:#000000; fill-opacity:1.0000;  stroke:#000000; stroke-width:0.0000; stroke-opacity:1;  stroke-linecap:round; stroke-linejoin:round;fill-rule:evenodd;" d="M 137.2510,55.6250 137.2430,55.6939 137.1983,55.7951 137.1201,55.8733 137.0189,55.9180 136.9500,55.9260 136.2500,55.9260 136.1811,55.9180 136.0799,55.8733 136.0017,55.7951 135.9570,55.6939 135.9490,55.6250 135.9490,54.3750 135.9570,54.3061 136.0017,54.2049 136.0799,54.1267 136.1811,54.0820 136.2500,54.0740 136.9500,54.0740 137.0189,54.0820 137.1201,54.1267 137.1983,54.2049 137.2430,54.3061 137.2510,54.3750 Z"/> 
</g>
<g style="fill:#000000; fill-opacity:0.0;  stroke:#000000; stroke-width:1.3020; stroke-opacity:1;  stroke-linecap:round; stroke-linejoin:round;">
<path d="M134.6000 55.2750 L134.6000 54.7250 "/>
<path d="M132.6000 55.2750 L132.6000 54.7250 "/>
<path d="M130.6000 55.2750 L130.6000 54.7250 "/>
</g>
<g style="fill:#000000; fill-opacity:1.0000;  stroke:#000000; stroke-width:0.0000; stroke-opacity:1;  stroke-linecap:round; stroke-linejoin:round;">
<path style="fill:#000000; fill-opacity:1.0000;  stroke:#000000; stroke-width:0.0000; stroke-opacity:1;  stroke-linecap:round; stroke-linejoin:round;fill-rule:evenodd;" d="M 141.6990,90.5250 141.7070,90.4561 141.7517,90.3549 141.8299,90.2767 141.9311,90.2320 142.0000,90.2240 142.7000,90.2240 142.7689,90.2320 142.8701,90.2767 142.9483,90.3549 142.9930,90.4561 143.0010,90.5250 143.0010,91.7750 142.9930,91.8439 142.9483,91.9451 142.8701,92.0233 142.7689,92.0680 142.7000,92.0760 142.0000,92.0760 141.9311,92.0680 141.8299,92.0233 141.7517,91.9451 141.7070,91.8439 141.6990,91.7750 Z"/> 
</g>
<g style="fill:#000000; fill-opacity:0.0;  stroke:#000000; stroke-width:1.3020; stroke-opacity:1;  stroke-linecap:round; stroke-linejoin:round;">
<path d="M144.3500 90.8750 L144.3500 91.4250 "/>
</g>
<g style="fill:#000000; fill-opacity:1.0000;  stroke:#000000; stroke-width:0.0000; stroke-opacity:1;  stroke-linecap:round; stroke-linejoin:round;">
<path style="fill:#000000; fill-opacity:1.0000;  stroke:#000000; stroke-width:0.0000; stroke-opacity:1;  stroke-linecap:round; stroke-linejoin:round;fill-rule:evenodd;" d="M 118.9010,55.2750 118.8930,55.3439 118.8483,55.4451 118.7701,55.5233 118.6689,55.5680 118.6000,55.5760 117.4000,55.5760 117.3311,55.5680 117.2299,55.5233 117.1517,55.4451 117.1070,55.3439 117.0990,55.2750 117.0990,53.7750 117.1070,53.7061 117.1517,53.6049 117.2299,53.5267 117.3311,53.4820 117.4000,53.4740 118.6000,53.4740 118.6689,53.4820 118.7701,53.5267 118.8483,53.6049 118.8930,53.7061 118.9010,53.7750 Z"/> 
</g>
<g style="fill:#000000; fill-opacity:0.0;  stroke:#000000; stroke-width:1.8020; stroke-opacity:1;  stroke-linecap:round; stroke-linejoin:round;">
<path d="M115.5000 54.6750 L115.5000 54.3750 "/>
</g>
<g style="fill:#000000; fill-opacity:0.0;  stroke:#000000; stroke-width:2.3020; stroke-opacity:1;  stroke-linecap:round; stroke-linejoin:round;">
<path d="M145.1500 65.2500 L146.4500 65.2500 "/>
<path d="M145.1500 57.0500 L146.4500 57.0500 "/>
</g>
<g style="fill:#000000; fill-opacity:1.0000;  stroke:#000000; stroke-width:0.0000; stroke-opacity:1;  stroke-linecap:round; stroke-linejoin:round;">
<path style="fill:#000000; fill-opacity:1.0000;  stroke:#000000; stroke-width:0.0000; stroke-opacity:1;  stroke-linecap:round; stroke-linejoin:round;fill-rule:evenodd;" d="M 144.5500,63.9510 144.5305,63.9471 144.5139,63.9361 144.5029,63.9195 144.4990,63.9000 144.4990,62.4000 144.5029,62.3805 144.5139,62.3639 144.5305,62.3529 144.5500,62.3490 147.0500,62.3490 147.0695,62.3529 147.0861,62.3639 147.0971,62.3805 147.1010,62.4000 147.1010,63.9000 147.0971,63.9195 147.0861,63.9361 147.0695,63.9471 147.0500,63.9510 Z"/> 
</g>
<g style="fill:#000000; fill-opacity:0.0;  stroke:#000000; stroke-width:1.6020; stroke-opacity:1;  stroke-linecap:round; stroke-linejoin:round;">
<path d="M145.3000 61.1500 L146.3000 61.1500 "/>
<path d="M145.3000 59.1500 L146.3000 59.1500 "/>
</g>
<g style="fill:#000000; fill-opacity:1.0000;  stroke:#000000; stroke-width:0.0000; stroke-opacity:1;  stroke-linecap:round; stroke-linejoin:round;">
<path style="fill:#000000; fill-opacity:1.0000;  stroke:#000000; stroke-width:0.0000; stroke-opacity:1;  stroke-linecap:round; stroke-linejoin:round;fill-rule:evenodd;" d="M 145.4250,68.9990 145.4939,69.0070 145.5951,69.0517 145.6733,69.1299 145.7180,69.2311 145.7260,69.3000 145.7260,70.5000 145.7180,70.5689 145.6733,70.6701 145.5951,70.7483 145.4939,70.7930 145.4250,70.8010 143.9750,70.8010 143.9061,70.7930 143.8049,70.7483 143.7267,70.6701 143.6820,70.5689 143.6740,70.5000 143.6740,69.3000 143.6820,69.2311 143.7267,69.1299 143.8049,69.0517 143.9061,69.0070 143.9750,68.9990 Z"/> 
</g>
<g style="fill:#000000; fill-opacity:0.0;  stroke:#000000; stroke-width:1.8020; stroke-opacity:1;  stroke-linecap:round; stroke-linejoin:round;">
<path d="M144.8250 72.4000 L144.5750 72.4000 "/>
<path d="M144.8250 74.9000 L144.5750 74.9000 "/>
</g>
<g style="fill:#000000; fill-opacity:1.0000;  stroke:#000000; stroke-width:0.0000; stroke-opacity:1;  stroke-linecap:round; stroke-linejoin:round;">
<path style="fill:#000000; fill-opacity:1.0000;  stroke:#000000; stroke-width:0.0000; stroke-opacity:1;  stroke-linecap:round; stroke-linejoin:round;fill-rule:evenodd;" d="M 145.4250,79.9990 145.4939,80.0070 145.5951,80.0517 145.6733,80.1299 145.7180,80.2311 145.7260,80.3000 145.7260,81.5000 145.7180,81.5689 145.6733,81.6701 145.5951,81.7483 145.4939,81.7930 145.4250,81.8010 143.9750,81.8010 143.9061,81.7930 143.8049,81.7483 143.7267,81.6701 143.6820,81.5689 143.6740,81.5000 143.6740,80.3000 143.6820,80.2311 143.7267,80.1299 143.8049,80.0517 143.9061,80.0070 143.9750,79.9990 Z"/> 
</g>
<g style="fill:#000000; fill-opacity:0.0;  stroke:#000000; stroke-width:1.8020; stroke-opacity:1;  stroke-linecap:round; stroke-linejoin:round;">
<path d="M144.8250 83.4000 L144.5750 83.4000 "/>
<path d="M144.8250 85.9000 L144.5750 85.9000 "/>
</g>
<g style="fill:#000000; fill-opacity:1.0000;  stroke:#000000; stroke-width:0.0000; stroke-opacity:1;  stroke-linecap:round; stroke-linejoin:round;">
<path style="fill:#000000; fill-opacity:1.0000;  stroke:#000000; stroke-width:0.0000; stroke-opacity:1;  stroke-linecap:round; stroke-linejoin:round;fill-rule:evenodd;" d="M 110.3510,57.7200 110.3471,57.7395 110.3361,57.7561 110.3195,57.7671 110.3000,57.7710 107.1500,57.7710 107.1305,57.7671 107.1139,57.7561 107.1029,57.7395 107.0990,57.7200 107.0990,56.7200 107.1029,56.7005 107.1139,56.6839 107.1305,56.6729 107.1500,56.6690 110.3000,56.6690 110.3195,56.6729 110.3361,56.6839 110.3471,56.7005 110.3510,56.7200 Z"/> 
<path style="fill:#000000; fill-opacity:1.0000;  stroke:#000000; stroke-width:0.0000; stroke-opacity:1;  stroke-linecap:round; stroke-linejoin:round;fill-rule:evenodd;" d="M 105.3010,57.7200 105.2971,57.7395 105.2861,57.7561 105.2695,57.7671 105.2500,57.7710 102.1000,57.7710 102.0805,57.7671 102.0639,57.7561 102.0529,57.7395 102.0490,57.7200 102.0490,56.7200 102.0529,56.7005 102.0639,56.6839 102.0805,56.6729 102.1000,56.6690 105.2500,56.6690 105.2695,56.6729 105.2861,56.6839 105.2971,56.7005 105.3010,56.7200 Z"/> 
<path style="fill:#000000; fill-opacity:1.0000;  stroke:#000000; stroke-width:0.0000; stroke-opacity:1;  stroke-linecap:round; stroke-linejoin:round;fill-rule:evenodd;" d="M 110.3510,60.2600 110.3471,60.2795 110.3361,60.2961 110.3195,60.3071 110.3000,60.3110 107.1500,60.3110 107.1305,60.3071 107.1139,60.2961 107.1029,60.2795 107.0990,60.2600 107.0990,59.2600 107.1029,59.2405 107.1139,59.2239 107.1305,59.2129 107.1500,59.2090 110.3000,59.2090 110.3195,59.2129 110.3361,59.2239 110.3471,59.2405 110.3510,59.2600 Z"/> 
<path style="fill:#000000; fill-opacity:1.0000;  stroke:#000000; stroke-width:0.0000; stroke-opacity:1;  stroke-linecap:round; stroke-linejoin:round;fill-rule:evenodd;" d="M 105.3010,60.2600 105.2971,60.2795 105.2861,60.2961 105.2695,60.3071 105.2500,60.3110 102.1000,60.3110 102.0805,60.3071 102.0639,60.2961 102.0529,60.2795 102.0490,60.2600 102.0490,59.2600 102.0529,59.2405 102.0639,59.2239 102.0805,59.2129 102.1000,59.2090 105.2500,59.2090 105.2695,59.2129 105.2861,59.2239 105.2971,59.2405 105.3010,59.2600 Z"/> 
<path style="fill:#000000; fill-opacity:1.0000;  stroke:#000000; stroke-width:0.0000; stroke-opacity:1;  stroke-linecap:round; stroke-linejoin:round;fill-rule:evenodd;" d="M 110.3510,62.8000 110.3471,62.8195 110.3361,62.8361 110.3195,62.8471 110.3000,62.8510 107.1500,62.8510 107.1305,62.8471 107.1139,62.8361 107.1029,62.8195 107.0990,62.8000 107.0990,61.8000 107.1029,61.7805 107.1139,61.7639 107.1305,61.7529 107.1500,61.7490 110.3000,61.7490 110.3195,61.7529 110.3361,61.7639 110.3471,61.7805 110.3510,61.8000 Z"/> 
<path style="fill:#000000; fill-opacity:1.0000;  stroke:#000000; stroke-width:0.0000; stroke-opacity:1;  stroke-linecap:round; stroke-linejoin:round;fill-rule:evenodd;" d="M 105.3010,62.8000 105.2971,62.8195 105.2861,62.8361 105.2695,62.8471 105.2500,62.8510 102.1000,62.8510 102.0805,62.8471 102.0639,62.8361 102.0529,62.8195 102.0490,62.8000 102.0490,61.8000 102.0529,61.7805 102.0639,61.7639 102.0805,61.7529 102.1000,61.7490 105.2500,61.7490 105.2695,61.7529 105.2861,61.7639 105.2971,61.7805 105.3010,61.8000 Z"/> 
<path style="fill:#000000; fill-opacity:1.0000;  stroke:#000000; stroke-width:0.0000; stroke-opacity:1;  stroke-linecap:round; stroke-linejoin:round;fill-rule:evenodd;" d="M 110.3510,65.3400 110.3471,65.3595 110.3361,65.3761 110.3195,65.3871 110.3000,65.3910 107.1500,65.3910 107.1305,65.3871 107.1139,65.3761 107.1029,65.3595 107.0990,65.3400 107.0990,64.3400 107.1029,64.3205 107.1139,64.3039 107.1305,64.2929 107.1500,64.2890 110.3000,64.2890 110.3195,64.2929 110.3361,64.3039 110.3471,64.3205 110.3510,64.3400 Z"/> 
<path style="fill:#000000; fill-opacity:1.0000;  stroke:#000000; stroke-width:0.0000; stroke-opacity:1;  stroke-linecap:round; stroke-linejoin:round;fill-rule:evenodd;" d="M 105.3010,65.3400 105.2971,65.3595 105.2861,65.3761 105.2695,65.3871 105.2500,65.3910 102.1000,65.3910 102.0805,65.3871 102.0639,65.3761 102.0529,65.3595 102.0490,65.3400 102.0490,64.3400 102.0529,64.3205 102.0639,64.3039 102.0805,64.2929 102.1000,64.2890 105.2500,64.2890 105.2695,64.2929 105.2861,64.3039 105.2971,64.3205 105.3010,64.3400 Z"/> 
<path style="fill:#000000; fill-opacity:1.0000;  stroke:#000000; stroke-width:0.0000; stroke-opacity:1;  stroke-linecap:round; stroke-linejoin:round;fill-rule:evenodd;" d="M 110.3510,67.8800 110.3471,67.8995 110.3361,67.9161 110.3195,67.9271 110.3000,67.9310 107.1500,67.9310 107.1305,67.9271 107.1139,67.9161 107.1029,67.8995 107.0990,67.8800 107.0990,66.8800 107.1029,66.8605 107.1139,66.8439 107.1305,66.8329 107.1500,66.8290 110.3000,66.8290 110.3195,66.8329 110.3361,66.8439 110.3471,66.8605 110.3510,66.8800 Z"/> 
<path style="fill:#000000; fill-opacity:1.0000;  stroke:#000000; stroke-width:0.0000; stroke-opacity:1;  stroke-linecap:round; stroke-linejoin:round;fill-rule:evenodd;" d="M 105.3010,67.8800 105.2971,67.8995 105.2861,67.9161 105.2695,67.9271 105.2500,67.9310 102.1000,67.9310 102.0805,67.9271 102.0639,67.9161 102.0529,67.8995 102.0490,67.8800 102.0490,66.8800 102.0529,66.8605 102.0639,66.8439 102.0805,66.8329 102.1000,66.8290 105.2500,66.8290 105.2695,66.8329 105.2861,66.8439 105.2971,66.8605 105.3010,66.8800 Z"/> 
<path style="fill:#000000; fill-opacity:1.0000;  stroke:#000000; stroke-width:0.0000; stroke-opacity:1;  stroke-linecap:round; stroke-linejoin:round;fill-rule:evenodd;" d="M 110.3510,70.4200 110.3471,70.4395 110.3361,70.4561 110.3195,70.4671 110.3000,70.4710 107.1500,70.4710 107.1305,70.4671 107.1139,70.4561 107.1029,70.4395 107.0990,70.4200 107.0990,69.4200 107.1029,69.4005 107.1139,69.3839 107.1305,69.3729 107.1500,69.3690 110.3000,69.3690 110.3195,69.3729 110.3361,69.3839 110.3471,69.4005 110.3510,69.4200 Z"/> 
<path style="fill:#000000; fill-opacity:1.0000;  stroke:#000000; stroke-width:0.0000; stroke-opacity:1;  stroke-linecap:round; stroke-linejoin:round;fill-rule:evenodd;" d="M 105.3010,70.4200 105.2971,70.4395 105.2861,70.4561 105.2695,70.4671 105.2500,70.4710 102.1000,70.4710 102.0805,70.4671 102.0639,70.4561 102.0529,70.4395 102.0490,70.4200 102.0490,69.4200 102.0529,69.4005 102.0639,69.3839 102.0805,69.3729 102.1000,69.3690 105.2500,69.3690 105.2695,69.3729 105.2861,69.3839 105.2971,69.4005 105.3010,69.4200 Z"/> 
<path style="fill:#000000; fill-opacity:1.0000;  stroke:#000000; stroke-width:0.0000; stroke-opacity:1;  stroke-linecap:round; stroke-linejoin:round;fill-rule:evenodd;" d="M 110.3510,72.9600 110.3471,72.9795 110.3361,72.9961 110.3195,73.0071 110.3000,73.0110 107.1500,73.0110 107.1305,73.0071 107.1139,72.9961 107.1029,72.9795 107.0990,72.9600 107.0990,71.9600 107.1029,71.9405 107.1139,71.9239 107.1305,71.9129 107.1500,71.9090 110.3000,71.9090 110.3195,71.9129 110.3361,71.9239 110.3471,71.9405 110.3510,71.9600 Z"/> 
<path style="fill:#000000; fill-opacity:1.0000;  stroke:#000000; stroke-width:0.0000; stroke-opacity:1;  stroke-linecap:round; stroke-linejoin:round;fill-rule:evenodd;" d="M 105.3010,72.9600 105.2971,72.9795 105.2861,72.9961 105.2695,73.0071 105.2500,73.0110 102.1000,73.0110 102.0805,73.0071 102.0639,72.9961 102.0529,72.9795 102.0490,72.9600 102.0490,71.9600 102.0529,71.9405 102.0639,71.9239 102.0805,71.9129 102.1000,71.9090 105.2500,71.9090 105.2695,71.9129 105.2861,71.9239 105.2971,71.9405 105.3010,71.9600 Z"/> 
<path style="fill:#000000; fill-opacity:1.0000;  stroke:#000000; stroke-width:0.0000; stroke-opacity:1;  stroke-linecap:round; stroke-linejoin:round;fill-rule:evenodd;" d="M 110.3510,75.5000 110.3471,75.5195 110.3361,75.5361 110.3195,75.5471 110.3000,75.5510 107.1500,75.5510 107.1305,75.5471 107.1139,75.5361 107.1029,75.5195 107.0990,75.5000 107.0990,74.5000 107.1029,74.4805 107.1139,74.4639 107.1305,74.4529 107.1500,74.4490 110.3000,74.4490 110.3195,74.4529 110.3361,74.4639 110.3471,74.4805 110.3510,74.5000 Z"/> 
<path style="fill:#000000; fill-opacity:1.0000;  stroke:#000000; stroke-width:0.0000; stroke-opacity:1;  stroke-linecap:round; stroke-linejoin:round;fill-rule:evenodd;" d="M 105.3010,75.5000 105.2971,75.5195 105.2861,75.5361 105.2695,75.5471 105.2500,75.5510 102.1000,75.5510 102.0805,75.5471 102.0639,75.5361 102.0529,75.5195 102.0490,75.5000 102.0490,74.5000 102.0529,74.4805 102.0639,74.4639 102.0805,74.4529 102.1000,74.4490 105.2500,74.4490 105.2695,74.4529 105.2861,74.4639 105.2971,74.4805 105.3010,74.5000 Z"/> 
<path style="fill:#000000; fill-opacity:1.0000;  stroke:#000000; stroke-width:0.0000; stroke-opacity:1;  stroke-linecap:round; stroke-linejoin:round;fill-rule:evenodd;" d="M 110.3510,78.0400 110.3471,78.0595 110.3361,78.0761 110.3195,78.0871 110.3000,78.0910 107.1500,78.0910 107.1305,78.0871 107.1139,78.0761 107.1029,78.0595 107.0990,78.0400 107.0990,77.0400 107.1029,77.0205 107.1139,77.0039 107.1305,76.9929 107.1500,76.9890 110.3000,76.9890 110.3195,76.9929 110.3361,77.0039 110.3471,77.0205 110.3510,77.0400 Z"/> 
<path style="fill:#000000; fill-opacity:1.0000;  stroke:#000000; stroke-width:0.0000; stroke-opacity:1;  stroke-linecap:round; stroke-linejoin:round;fill-rule:evenodd;" d="M 105.3010,78.0400 105.2971,78.0595 105.2861,78.0761 105.2695,78.0871 105.2500,78.0910 102.1000,78.0910 102.0805,78.0871 102.0639,78.0761 102.0529,78.0595 102.0490,78.0400 102.0490,77.0400 102.0529,77.0205 102.0639,77.0039 102.0805,76.9929 102.1000,76.9890 105.2500,76.9890 105.2695,76.9929 105.2861,77.0039 105.2971,77.0205 105.3010,77.0400 Z"/> 
<path style="fill:#000000; fill-opacity:1.0000;  stroke:#000000; stroke-width:0.0000; stroke-opacity:1;  stroke-linecap:round; stroke-linejoin:round;fill-rule:evenodd;" d="M 110.3510,80.5800 110.3471,80.5995 110.3361,80.6161 110.3195,80.6271 110.3000,80.6310 107.1500,80.6310 107.1305,80.6271 107.1139,80.6161 107.1029,80.5995 107.0990,80.5800 107.0990,79.5800 107.1029,79.5605 107.1139,79.5439 107.1305,79.5329 107.1500,79.5290 110.3000,79.5290 110.3195,79.5329 110.3361,79.5439 110.3471,79.5605 110.3510,79.5800 Z"/> 
<path style="fill:#000000; fill-opacity:1.0000;  stroke:#000000; stroke-width:0.0000; stroke-opacity:1;  stroke-linecap:round; stroke-linejoin:round;fill-rule:evenodd;" d="M 105.3010,80.5800 105.2971,80.5995 105.2861,80.6161 105.2695,80.6271 105.2500,80.6310 102.1000,80.6310 102.0805,80.6271 102.0639,80.6161 102.0529,80.5995 102.0490,80.5800 102.0490,79.5800 102.0529,79.5605 102.0639,79.5439 102.0805,79.5329 102.1000,79.5290 105.2500,79.5290 105.2695,79.5329 105.2861,79.5439 105.2971,79.5605 105.3010,79.5800 Z"/> 
<path style="fill:#000000; fill-opacity:1.0000;  stroke:#000000; stroke-width:0.0000; stroke-opacity:1;  stroke-linecap:round; stroke-linejoin:round;fill-rule:evenodd;" d="M 110.3510,83.1200 110.3471,83.1395 110.3361,83.1561 110.3195,83.1671 110.3000,83.1710 107.1500,83.1710 107.1305,83.1671 107.1139,83.1561 107.1029,83.1395 107.0990,83.1200 107.0990,82.1200 107.1029,82.1005 107.1139,82.0839 107.1305,82.0729 107.1500,82.0690 110.3000,82.0690 110.3195,82.0729 110.3361,82.0839 110.3471,82.1005 110.3510,82.1200 Z"/> 
<path style="fill:#000000; fill-opacity:1.0000;  stroke:#000000; stroke-width:0.0000; stroke-opacity:1;  stroke-linecap:round; stroke-linejoin:round;fill-rule:evenodd;" d="M 105.3010,83.1200 105.2971,83.1395 105.2861,83.1561 105.2695,83.1671 105.2500,83.1710 102.1000,83.1710 102.0805,83.1671 102.0639,83.1561 102.0529,83.1395 102.0490,83.1200 102.0490,82.1200 102.0529,82.1005 102.0639,82.0839 102.0805,82.0729 102.1000,82.0690 105.2500,82.0690 105.2695,82.0729 105.2861,82.0839 105.2971,82.1005 105.3010,82.1200 Z"/> 
<path style="fill:#000000; fill-opacity:1.0000;  stroke:#000000; stroke-width:0.0000; stroke-opacity:1;  stroke-linecap:round; stroke-linejoin:round;fill-rule:evenodd;" d="M 110.3510,85.6600 110.3471,85.6795 110.3361,85.6961 110.3195,85.7071 110.3000,85.7110 107.1500,85.7110 107.1305,85.7071 107.1139,85.6961 107.1029,85.6795 107.0990,85.6600 107.0990,84.6600 107.1029,84.6405 107.1139,84.6239 107.1305,84.6129 107.1500,84.6090 110.3000,84.6090 110.3195,84.6129 110.3361,84.6239 110.3471,84.6405 110.3510,84.6600 Z"/> 
<path style="fill:#000000; fill-opacity:1.0000;  stroke:#000000; stroke-width:0.0000; stroke-opacity:1;  stroke-linecap:round; stroke-linejoin:round;fill-rule:evenodd;" d="M 105.3010,85.6600 105.2971,85.6795 105.2861,85.6961 105.2695,85.7071 105.2500,85.7110 102.1000,85.7110 102.0805,85.7071 102.0639,85.6961 102.0529,85.6795 102.0490,85.6600 102.0490,84.6600 102.0529,84.6405 102.0639,84.6239 102.0805,84.6129 102.1000,84.6090 105.2500,84.6090 105.2695,84.6129 105.2861,84.6239 105.2971,84.6405 105.3010,84.6600 Z"/> 
<path style="fill:#000000; fill-opacity:1.0000;  stroke:#000000; stroke-width:0.0000; stroke-opacity:1;  stroke-linecap:round; stroke-linejoin:round;fill-rule:evenodd;" d="M 110.3510,88.2000 110.3471,88.2195 110.3361,88.2361 110.3195,88.2471 110.3000,88.2510 107.1500,88.2510 107.1305,88.2471 107.1139,88.2361 107.1029,88.2195 107.0990,88.2000 107.0990,87.2000 107.1029,87.1805 107.1139,87.1639 107.1305,87.1529 107.1500,87.1490 110.3000,87.1490 110.3195,87.1529 110.3361,87.1639 110.3471,87.1805 110.3510,87.2000 Z"/> 
<path style="fill:#000000; fill-opacity:1.0000;  stroke:#000000; stroke-width:0.0000; stroke-opacity:1;  stroke-linecap:round; stroke-linejoin:round;fill-rule:evenodd;" d="M 105.3010,88.2000 105.2971,88.2195 105.2861,88.2361 105.2695,88.2471 105.2500,88.2510 102.1000,88.2510 102.0805,88.2471 102.0639,88.2361 102.0529,88.2195 102.0490,88.2000 102.0490,87.2000 102.0529,87.1805 102.0639,87.1639 102.0805,87.1529 102.1000,87.1490 105.2500,87.1490 105.2695,87.1529 105.2861,87.1639 105.2971,87.1805 105.3010,87.2000 Z"/> 
<path style="fill:#000000; fill-opacity:1.0000;  stroke:#000000; stroke-width:0.0000; stroke-opacity:1;  stroke-linecap:round; stroke-linejoin:round;fill-rule:evenodd;" d="M 110.3510,90.7400 110.3471,90.7595 110.3361,90.7761 110.3195,90.7871 110.3000,90.7910 107.1500,90.7910 107.1305,90.7871 107.1139,90.7761 107.1029,90.7595 107.0990,90.7400 107.0990,89.7400 107.1029,89.7205 107.1139,89.7039 107.1305,89.6929 107.1500,89.6890 110.3000,89.6890 110.3195,89.6929 110.3361,89.7039 110.3471,89.7205 110.3510,89.7400 Z"/> 
<path style="fill:#000000; fill-opacity:1.0000;  stroke:#000000; stroke-width:0.0000; stroke-opacity:1;  stroke-linecap:round; stroke-linejoin:round;fill-rule:evenodd;" d="M 105.3010,90.7400 105.2971,90.7595 105.2861,90.7761 105.2695,90.7871 105.2500,90.7910 102.1000,90.7910 102.0805,90.7871 102.0639,90.7761 102.0529,90.7595 102.0490,90.7400 102.0490,89.7400 102.0529,89.7205 102.0639,89.7039 102.0805,89.6929 102.1000,89.6890 105.2500,89.6890 105.2695,89.6929 105.2861,89.7039 105.2971,89.7205 105.3010,89.7400 Z"/> 
<path style="fill:#000000; fill-opacity:1.0000;  stroke:#000000; stroke-width:0.0000; stroke-opacity:1;  stroke-linecap:round; stroke-linejoin:round;fill-rule:evenodd;" d="M 110.3510,93.2800 110.3471,93.2995 110.3361,93.3161 110.3195,93.3271 110.3000,93.3310 107.1500,93.3310 107.1305,93.3271 107.1139,93.3161 107.1029,93.2995 107.0990,93.2800 107.0990,92.2800 107.1029,92.2605 107.1139,92.2439 107.1305,92.2329 107.1500,92.2290 110.3000,92.2290 110.3195,92.2329 110.3361,92.2439 110.3471,92.2605 110.3510,92.2800 Z"/> 
<path style="fill:#000000; fill-opacity:1.0000;  stroke:#000000; stroke-width:0.0000; stroke-opacity:1;  stroke-linecap:round; stroke-linejoin:round;fill-rule:evenodd;" d="M 105.3010,93.2800 105.2971,93.2995 105.2861,93.3161 105.2695,93.3271 105.2500,93.3310 102.1000,93.3310 102.0805,93.3271 102.0639,93.3161 102.0529,93.2995 102.0490,93.2800 102.0490,92.2800 102.0529,92.2605 102.0639,92.2439 102.0805,92.2329 102.1000,92.2290 105.2500,92.2290 105.2695,92.2329 105.2861,92.2439 105.2971,92.2605 105.3010,92.2800 Z"/> 
</g>
</g> 
</mask></defs><g transform="scale(-1,1) translate(-297,0)" id="boardContainer"><g id="substrate" clip-path="url(#cut-off)" mask="url(#pads-mask-silkscreen)"><g id="substrate-board" style="fill:#143324; fill-opacity:0.25098039215686274; stroke:#143324; stroke-width:0;"><path d=" M 106.2000 88.9764 m-0.5500 0 a 0.5500 0.5500 0 1 0 1.1 0 a 0.5500 0.5500 0 1 0 -1.1 0  M 106.2000 61.0296 m-0.5500 0 a 0.5500 0.5500 0 1 0 1.1 0 a 0.5500 0.5500 0 1 0 -1.1 0  M 106.2000 58.5000 m-0.5500 0 a 0.5500 0.5500 0 1 0 1.1 0 a 0.5500 0.5500 0 1 0 -1.1 0  M 106.2000 91.5500 m-0.5500 0 a 0.5500 0.5500 0 1 0 1.1 0 a 0.5500 0.5500 0 1 0 -1.1 0  M 110.0 100.0 L 110.0 99.5 L 103.0 99.5 A 2.5 2.5 0 0 1 100.5 97.0 L 100.5 90.0 L 100.0 90.0 L 100.0 60.0 L 100.5 60.0 L 100.5 53.0 A 2.5 2.5 0 0 1 103.0 50.5 L 110.0 50.5 L 110.0 50.0 L 140.0 50.0 L 140.0 50.5 L 147.0 50.5 A 2.5 2.5 0 0 1 149.5 53.0 L 149.5 60.0 L 150.0 60.0 L 150.0 90.0 L 149.5 90.0 L 149.5 97.0 A 2.5 2.5 0 0 1 147.0 99.5 L 140.0 99.5 L 140.0 100.0 L 110.0 100.0 " style="fill-rule: evenodd;"/><g style="fill-opacity: 0.0;stroke-width: 0.0500;stroke-opacity: 1;stroke-linecap: round;stroke-linejoin: round">
<path d="M140.0000 100.0000 L110.0000 100.0000 "/>
<path d="M149.5000 53.0000 L149.5000 60.0000 "/>
<path d="M147.0000 50.5000 L140.0000 50.5000 "/>
<path d="M100.5000 97.0000 L100.5000 90.0000 "/>
<path d="M100.5000 53.0000 L100.5000 60.0000 "/>
<path d="M103.0000 50.5000 A2.5000 2.5000 0.0 0 0 100.5000 53.0000"/>
<path d="M149.5000 60.0000 L150.0000 60.0000 "/>
<path d="M149.5000 90.0000 L150.0000 90.0000 "/>
<path d="M140.0000 99.5000 L140.0000 100.0000 "/>
<path d="M110.0000 99.5000 L110.0000 100.0000 "/>
<path d="M100.5000 90.0000 L100.0000 90.0000 "/>
<path d="M100.0000 60.0000 L100.5000 60.0000 "/>
<path d="M110.0000 50.0000 L110.0000 50.5000 "/>
<circle cx="106.2000" cy="88.9764" r="0.5500"/> 
<path d="M100.0000 90.0000 L100.0000 60.0000 "/>
<path d="M100.5000 97.0000 A2.5000 2.5000 0.0 0 0 103.0000 99.5000"/>
<path d="M103.0000 99.5000 L110.0000 99.5000 "/>
<circle cx="106.2000" cy="61.0296" r="0.5500"/> 
<path d="M147.0000 99.5000 A2.5000 2.5000 0.0 0 0 149.5000 97.0000"/>
<path d="M149.5000 53.0000 A2.5000 2.5000 0.0 0 0 147.0000 50.5000"/>
<path d="M110.0000 50.0000 L140.0000 50.0000 "/>
<circle cx="106.2000" cy="58.5000" r="0.5500"/> 
<path d="M149.5000 97.0000 L149.5000 90.0000 "/>
<circle cx="106.2000" cy="91.5500" r="0.5500"/> 
<path d="M103.0000 50.5000 L110.0000 50.5000 "/>
<path d="M150.0000 60.0000 L150.0000 90.0000 "/>
<path d="M140.0000 50.0000 L140.0000 50.5000 "/>
<path d="M147.0000 99.5000 L140.0000 99.5000 "/>
</g> 
</g></g></g></svg>
