G04 #@! TF.GenerationSoftware,KiCad,Pcbnew,7.0.7-7.0.7~ubuntu23.04.1*
G04 #@! TF.CreationDate,2023-09-19T04:43:27+00:00*
G04 #@! TF.ProjectId,m5-pantilt,6d352d70-616e-4746-996c-742e6b696361,1*
G04 #@! TF.SameCoordinates,Original*
G04 #@! TF.FileFunction,Legend,Top*
G04 #@! TF.FilePolarity,Positive*
%FSLAX46Y46*%
G04 Gerber Fmt 4.6, Leading zero omitted, Abs format (unit mm)*
G04 Created by KiCad (PCBNEW 7.0.7-7.0.7~ubuntu23.04.1) date 2023-09-19 04:43:27*
%MOMM*%
%LPD*%
G01*
G04 APERTURE LIST*
%ADD10C,0.120000*%
%ADD11C,0.150000*%
%ADD12C,0.125000*%
%ADD13C,0.100000*%
%ADD14C,2.102000*%
%ADD15C,3.102000*%
%ADD16O,1.302000X1.852000*%
%ADD17O,1.802000X2.102000*%
%ADD18O,3.602000X2.302000*%
%ADD19O,2.602000X1.602000*%
%ADD20O,2.052000X1.802000*%
G04 APERTURE END LIST*
D10*
X146900000Y-67800000D02*
X146900000Y-76300000D01*
X146900000Y-76300000D02*
X148400000Y-76300000D01*
X148400000Y-67800000D02*
X146900000Y-67800000D01*
X148400000Y-70800000D02*
X146900000Y-70800000D01*
X148400000Y-73800000D02*
X146900000Y-73800000D01*
X148400000Y-67800000D02*
X148400000Y-76300000D01*
X114050000Y-84300000D02*
X117450000Y-84300000D01*
X114050000Y-85950000D02*
X117450000Y-85950000D01*
X117450000Y-87550000D02*
X114050000Y-87550000D01*
X117450000Y-84300000D02*
X117450000Y-87550000D01*
X114050000Y-87550000D02*
X114050000Y-84300000D01*
X114000000Y-80650000D02*
X114000000Y-77400000D01*
X114000000Y-79050000D02*
X117400000Y-79050000D01*
X114000000Y-77400000D02*
X117400000Y-77400000D01*
X117400000Y-80650000D02*
X114000000Y-80650000D01*
X117400000Y-77400000D02*
X117400000Y-80650000D01*
X111750000Y-74250000D02*
X111750000Y-61150000D01*
X111750000Y-88000000D02*
X111750000Y-75200000D01*
X148450000Y-79100000D02*
X148450000Y-87600000D01*
X117500000Y-75200000D02*
X120750000Y-75200000D01*
X148450000Y-85100000D02*
X146950000Y-85100000D01*
X111750000Y-74250000D02*
X134800000Y-74250000D01*
X148450000Y-82100000D02*
X146950000Y-82100000D01*
X120750000Y-88000000D02*
X120750000Y-75200000D01*
X116850000Y-61150000D02*
X134850000Y-61150000D01*
X111750000Y-61150000D02*
X114200000Y-61150000D01*
X146950000Y-79100000D02*
X146950000Y-87600000D01*
X148450000Y-79100000D02*
X146950000Y-79100000D01*
X134800000Y-74250000D02*
X134850000Y-61150000D01*
X111750000Y-88000000D02*
X120750000Y-88000000D01*
X111750000Y-75200000D02*
X113750000Y-75200000D01*
X146950000Y-87600000D02*
X148450000Y-87600000D01*
D11*
X136266666Y-84650390D02*
X136190476Y-84612295D01*
X136190476Y-84612295D02*
X136076190Y-84612295D01*
X136076190Y-84612295D02*
X135961904Y-84650390D01*
X135961904Y-84650390D02*
X135885714Y-84726580D01*
X135885714Y-84726580D02*
X135847619Y-84802771D01*
X135847619Y-84802771D02*
X135809523Y-84955152D01*
X135809523Y-84955152D02*
X135809523Y-85069438D01*
X135809523Y-85069438D02*
X135847619Y-85221819D01*
X135847619Y-85221819D02*
X135885714Y-85298009D01*
X135885714Y-85298009D02*
X135961904Y-85374200D01*
X135961904Y-85374200D02*
X136076190Y-85412295D01*
X136076190Y-85412295D02*
X136152381Y-85412295D01*
X136152381Y-85412295D02*
X136266666Y-85374200D01*
X136266666Y-85374200D02*
X136304762Y-85336104D01*
X136304762Y-85336104D02*
X136304762Y-85069438D01*
X136304762Y-85069438D02*
X136152381Y-85069438D01*
X136647619Y-85412295D02*
X136647619Y-84612295D01*
X136647619Y-84612295D02*
X136952381Y-84612295D01*
X136952381Y-84612295D02*
X137028571Y-84650390D01*
X137028571Y-84650390D02*
X137066666Y-84688485D01*
X137066666Y-84688485D02*
X137104762Y-84764676D01*
X137104762Y-84764676D02*
X137104762Y-84878961D01*
X137104762Y-84878961D02*
X137066666Y-84955152D01*
X137066666Y-84955152D02*
X137028571Y-84993247D01*
X137028571Y-84993247D02*
X136952381Y-85031342D01*
X136952381Y-85031342D02*
X136647619Y-85031342D01*
X137447619Y-85412295D02*
X137447619Y-84612295D01*
X137980952Y-84612295D02*
X138133333Y-84612295D01*
X138133333Y-84612295D02*
X138209523Y-84650390D01*
X138209523Y-84650390D02*
X138285714Y-84726580D01*
X138285714Y-84726580D02*
X138323809Y-84878961D01*
X138323809Y-84878961D02*
X138323809Y-85145628D01*
X138323809Y-85145628D02*
X138285714Y-85298009D01*
X138285714Y-85298009D02*
X138209523Y-85374200D01*
X138209523Y-85374200D02*
X138133333Y-85412295D01*
X138133333Y-85412295D02*
X137980952Y-85412295D01*
X137980952Y-85412295D02*
X137904761Y-85374200D01*
X137904761Y-85374200D02*
X137828571Y-85298009D01*
X137828571Y-85298009D02*
X137790475Y-85145628D01*
X137790475Y-85145628D02*
X137790475Y-84878961D01*
X137790475Y-84878961D02*
X137828571Y-84726580D01*
X137828571Y-84726580D02*
X137904761Y-84650390D01*
X137904761Y-84650390D02*
X137980952Y-84612295D01*
X139047618Y-84612295D02*
X138666666Y-84612295D01*
X138666666Y-84612295D02*
X138628570Y-84993247D01*
X138628570Y-84993247D02*
X138666666Y-84955152D01*
X138666666Y-84955152D02*
X138742856Y-84917057D01*
X138742856Y-84917057D02*
X138933332Y-84917057D01*
X138933332Y-84917057D02*
X139009523Y-84955152D01*
X139009523Y-84955152D02*
X139047618Y-84993247D01*
X139047618Y-84993247D02*
X139085713Y-85069438D01*
X139085713Y-85069438D02*
X139085713Y-85259914D01*
X139085713Y-85259914D02*
X139047618Y-85336104D01*
X139047618Y-85336104D02*
X139009523Y-85374200D01*
X139009523Y-85374200D02*
X138933332Y-85412295D01*
X138933332Y-85412295D02*
X138742856Y-85412295D01*
X138742856Y-85412295D02*
X138666666Y-85374200D01*
X138666666Y-85374200D02*
X138628570Y-85336104D01*
X139999999Y-84574200D02*
X139314285Y-85602771D01*
X140152380Y-84612295D02*
X140609523Y-84612295D01*
X140380951Y-85412295D02*
X140380951Y-84612295D01*
X140761904Y-84612295D02*
X141219047Y-84612295D01*
X140990475Y-85412295D02*
X140990475Y-84612295D01*
X141866666Y-85412295D02*
X141485714Y-85412295D01*
X141485714Y-85412295D02*
X141485714Y-84612295D01*
D12*
X113360880Y-80357143D02*
X113408500Y-80404762D01*
X113408500Y-80404762D02*
X113456119Y-80547619D01*
X113456119Y-80547619D02*
X113456119Y-80642857D01*
X113456119Y-80642857D02*
X113408500Y-80785714D01*
X113408500Y-80785714D02*
X113313261Y-80880952D01*
X113313261Y-80880952D02*
X113218023Y-80928571D01*
X113218023Y-80928571D02*
X113027547Y-80976190D01*
X113027547Y-80976190D02*
X112884690Y-80976190D01*
X112884690Y-80976190D02*
X112694214Y-80928571D01*
X112694214Y-80928571D02*
X112598976Y-80880952D01*
X112598976Y-80880952D02*
X112503738Y-80785714D01*
X112503738Y-80785714D02*
X112456119Y-80642857D01*
X112456119Y-80642857D02*
X112456119Y-80547619D01*
X112456119Y-80547619D02*
X112503738Y-80404762D01*
X112503738Y-80404762D02*
X112551357Y-80357143D01*
X113456119Y-79785714D02*
X113408500Y-79880952D01*
X113408500Y-79880952D02*
X113360880Y-79928571D01*
X113360880Y-79928571D02*
X113265642Y-79976190D01*
X113265642Y-79976190D02*
X112979928Y-79976190D01*
X112979928Y-79976190D02*
X112884690Y-79928571D01*
X112884690Y-79928571D02*
X112837071Y-79880952D01*
X112837071Y-79880952D02*
X112789452Y-79785714D01*
X112789452Y-79785714D02*
X112789452Y-79642857D01*
X112789452Y-79642857D02*
X112837071Y-79547619D01*
X112837071Y-79547619D02*
X112884690Y-79500000D01*
X112884690Y-79500000D02*
X112979928Y-79452381D01*
X112979928Y-79452381D02*
X113265642Y-79452381D01*
X113265642Y-79452381D02*
X113360880Y-79500000D01*
X113360880Y-79500000D02*
X113408500Y-79547619D01*
X113408500Y-79547619D02*
X113456119Y-79642857D01*
X113456119Y-79642857D02*
X113456119Y-79785714D01*
X113456119Y-79023809D02*
X112789452Y-79023809D01*
X112979928Y-79023809D02*
X112884690Y-78976190D01*
X112884690Y-78976190D02*
X112837071Y-78928571D01*
X112837071Y-78928571D02*
X112789452Y-78833333D01*
X112789452Y-78833333D02*
X112789452Y-78738095D01*
X113408500Y-78023809D02*
X113456119Y-78119047D01*
X113456119Y-78119047D02*
X113456119Y-78309523D01*
X113456119Y-78309523D02*
X113408500Y-78404761D01*
X113408500Y-78404761D02*
X113313261Y-78452380D01*
X113313261Y-78452380D02*
X112932309Y-78452380D01*
X112932309Y-78452380D02*
X112837071Y-78404761D01*
X112837071Y-78404761D02*
X112789452Y-78309523D01*
X112789452Y-78309523D02*
X112789452Y-78119047D01*
X112789452Y-78119047D02*
X112837071Y-78023809D01*
X112837071Y-78023809D02*
X112932309Y-77976190D01*
X112932309Y-77976190D02*
X113027547Y-77976190D01*
X113027547Y-77976190D02*
X113122785Y-78452380D01*
X113456119Y-77023809D02*
X113456119Y-77595237D01*
X113456119Y-77309523D02*
X112456119Y-77309523D01*
X112456119Y-77309523D02*
X112598976Y-77404761D01*
X112598976Y-77404761D02*
X112694214Y-77499999D01*
X112694214Y-77499999D02*
X112741833Y-77595237D01*
X113360880Y-86857143D02*
X113408500Y-86904762D01*
X113408500Y-86904762D02*
X113456119Y-87047619D01*
X113456119Y-87047619D02*
X113456119Y-87142857D01*
X113456119Y-87142857D02*
X113408500Y-87285714D01*
X113408500Y-87285714D02*
X113313261Y-87380952D01*
X113313261Y-87380952D02*
X113218023Y-87428571D01*
X113218023Y-87428571D02*
X113027547Y-87476190D01*
X113027547Y-87476190D02*
X112884690Y-87476190D01*
X112884690Y-87476190D02*
X112694214Y-87428571D01*
X112694214Y-87428571D02*
X112598976Y-87380952D01*
X112598976Y-87380952D02*
X112503738Y-87285714D01*
X112503738Y-87285714D02*
X112456119Y-87142857D01*
X112456119Y-87142857D02*
X112456119Y-87047619D01*
X112456119Y-87047619D02*
X112503738Y-86904762D01*
X112503738Y-86904762D02*
X112551357Y-86857143D01*
X113456119Y-86285714D02*
X113408500Y-86380952D01*
X113408500Y-86380952D02*
X113360880Y-86428571D01*
X113360880Y-86428571D02*
X113265642Y-86476190D01*
X113265642Y-86476190D02*
X112979928Y-86476190D01*
X112979928Y-86476190D02*
X112884690Y-86428571D01*
X112884690Y-86428571D02*
X112837071Y-86380952D01*
X112837071Y-86380952D02*
X112789452Y-86285714D01*
X112789452Y-86285714D02*
X112789452Y-86142857D01*
X112789452Y-86142857D02*
X112837071Y-86047619D01*
X112837071Y-86047619D02*
X112884690Y-86000000D01*
X112884690Y-86000000D02*
X112979928Y-85952381D01*
X112979928Y-85952381D02*
X113265642Y-85952381D01*
X113265642Y-85952381D02*
X113360880Y-86000000D01*
X113360880Y-86000000D02*
X113408500Y-86047619D01*
X113408500Y-86047619D02*
X113456119Y-86142857D01*
X113456119Y-86142857D02*
X113456119Y-86285714D01*
X113456119Y-85523809D02*
X112789452Y-85523809D01*
X112979928Y-85523809D02*
X112884690Y-85476190D01*
X112884690Y-85476190D02*
X112837071Y-85428571D01*
X112837071Y-85428571D02*
X112789452Y-85333333D01*
X112789452Y-85333333D02*
X112789452Y-85238095D01*
X113408500Y-84523809D02*
X113456119Y-84619047D01*
X113456119Y-84619047D02*
X113456119Y-84809523D01*
X113456119Y-84809523D02*
X113408500Y-84904761D01*
X113408500Y-84904761D02*
X113313261Y-84952380D01*
X113313261Y-84952380D02*
X112932309Y-84952380D01*
X112932309Y-84952380D02*
X112837071Y-84904761D01*
X112837071Y-84904761D02*
X112789452Y-84809523D01*
X112789452Y-84809523D02*
X112789452Y-84619047D01*
X112789452Y-84619047D02*
X112837071Y-84523809D01*
X112837071Y-84523809D02*
X112932309Y-84476190D01*
X112932309Y-84476190D02*
X113027547Y-84476190D01*
X113027547Y-84476190D02*
X113122785Y-84952380D01*
X112551357Y-84095237D02*
X112503738Y-84047618D01*
X112503738Y-84047618D02*
X112456119Y-83952380D01*
X112456119Y-83952380D02*
X112456119Y-83714285D01*
X112456119Y-83714285D02*
X112503738Y-83619047D01*
X112503738Y-83619047D02*
X112551357Y-83571428D01*
X112551357Y-83571428D02*
X112646595Y-83523809D01*
X112646595Y-83523809D02*
X112741833Y-83523809D01*
X112741833Y-83523809D02*
X112884690Y-83571428D01*
X112884690Y-83571428D02*
X113456119Y-84142856D01*
X113456119Y-84142856D02*
X113456119Y-83523809D01*
D11*
X147999609Y-68540476D02*
X148037704Y-68464286D01*
X148037704Y-68464286D02*
X148037704Y-68350000D01*
X148037704Y-68350000D02*
X147999609Y-68235714D01*
X147999609Y-68235714D02*
X147923419Y-68159524D01*
X147923419Y-68159524D02*
X147847228Y-68121429D01*
X147847228Y-68121429D02*
X147694847Y-68083333D01*
X147694847Y-68083333D02*
X147580561Y-68083333D01*
X147580561Y-68083333D02*
X147428180Y-68121429D01*
X147428180Y-68121429D02*
X147351990Y-68159524D01*
X147351990Y-68159524D02*
X147275800Y-68235714D01*
X147275800Y-68235714D02*
X147237704Y-68350000D01*
X147237704Y-68350000D02*
X147237704Y-68426191D01*
X147237704Y-68426191D02*
X147275800Y-68540476D01*
X147275800Y-68540476D02*
X147313895Y-68578572D01*
X147313895Y-68578572D02*
X147580561Y-68578572D01*
X147580561Y-68578572D02*
X147580561Y-68426191D01*
X147237704Y-68921429D02*
X148037704Y-68921429D01*
X148037704Y-68921429D02*
X147237704Y-69378572D01*
X147237704Y-69378572D02*
X148037704Y-69378572D01*
X147237704Y-69759524D02*
X148037704Y-69759524D01*
X148037704Y-69759524D02*
X148037704Y-69950000D01*
X148037704Y-69950000D02*
X147999609Y-70064286D01*
X147999609Y-70064286D02*
X147923419Y-70140476D01*
X147923419Y-70140476D02*
X147847228Y-70178571D01*
X147847228Y-70178571D02*
X147694847Y-70216667D01*
X147694847Y-70216667D02*
X147580561Y-70216667D01*
X147580561Y-70216667D02*
X147428180Y-70178571D01*
X147428180Y-70178571D02*
X147351990Y-70140476D01*
X147351990Y-70140476D02*
X147275800Y-70064286D01*
X147275800Y-70064286D02*
X147237704Y-69950000D01*
X147237704Y-69950000D02*
X147237704Y-69759524D01*
X147542466Y-71169048D02*
X147542466Y-71778572D01*
X147237704Y-71473810D02*
X147847228Y-71473810D01*
X148037704Y-72540476D02*
X148037704Y-72159524D01*
X148037704Y-72159524D02*
X147656752Y-72121428D01*
X147656752Y-72121428D02*
X147694847Y-72159524D01*
X147694847Y-72159524D02*
X147732942Y-72235714D01*
X147732942Y-72235714D02*
X147732942Y-72426190D01*
X147732942Y-72426190D02*
X147694847Y-72502381D01*
X147694847Y-72502381D02*
X147656752Y-72540476D01*
X147656752Y-72540476D02*
X147580561Y-72578571D01*
X147580561Y-72578571D02*
X147390085Y-72578571D01*
X147390085Y-72578571D02*
X147313895Y-72540476D01*
X147313895Y-72540476D02*
X147275800Y-72502381D01*
X147275800Y-72502381D02*
X147237704Y-72426190D01*
X147237704Y-72426190D02*
X147237704Y-72235714D01*
X147237704Y-72235714D02*
X147275800Y-72159524D01*
X147275800Y-72159524D02*
X147313895Y-72121428D01*
X148037704Y-72807143D02*
X147237704Y-73073810D01*
X147237704Y-73073810D02*
X148037704Y-73340476D01*
X147275800Y-74178571D02*
X147237704Y-74292857D01*
X147237704Y-74292857D02*
X147237704Y-74483333D01*
X147237704Y-74483333D02*
X147275800Y-74559524D01*
X147275800Y-74559524D02*
X147313895Y-74597619D01*
X147313895Y-74597619D02*
X147390085Y-74635714D01*
X147390085Y-74635714D02*
X147466276Y-74635714D01*
X147466276Y-74635714D02*
X147542466Y-74597619D01*
X147542466Y-74597619D02*
X147580561Y-74559524D01*
X147580561Y-74559524D02*
X147618657Y-74483333D01*
X147618657Y-74483333D02*
X147656752Y-74330952D01*
X147656752Y-74330952D02*
X147694847Y-74254762D01*
X147694847Y-74254762D02*
X147732942Y-74216667D01*
X147732942Y-74216667D02*
X147809133Y-74178571D01*
X147809133Y-74178571D02*
X147885323Y-74178571D01*
X147885323Y-74178571D02*
X147961514Y-74216667D01*
X147961514Y-74216667D02*
X147999609Y-74254762D01*
X147999609Y-74254762D02*
X148037704Y-74330952D01*
X148037704Y-74330952D02*
X148037704Y-74521429D01*
X148037704Y-74521429D02*
X147999609Y-74635714D01*
X147237704Y-74978572D02*
X148037704Y-74978572D01*
X147999609Y-75778571D02*
X148037704Y-75702381D01*
X148037704Y-75702381D02*
X148037704Y-75588095D01*
X148037704Y-75588095D02*
X147999609Y-75473809D01*
X147999609Y-75473809D02*
X147923419Y-75397619D01*
X147923419Y-75397619D02*
X147847228Y-75359524D01*
X147847228Y-75359524D02*
X147694847Y-75321428D01*
X147694847Y-75321428D02*
X147580561Y-75321428D01*
X147580561Y-75321428D02*
X147428180Y-75359524D01*
X147428180Y-75359524D02*
X147351990Y-75397619D01*
X147351990Y-75397619D02*
X147275800Y-75473809D01*
X147275800Y-75473809D02*
X147237704Y-75588095D01*
X147237704Y-75588095D02*
X147237704Y-75664286D01*
X147237704Y-75664286D02*
X147275800Y-75778571D01*
X147275800Y-75778571D02*
X147313895Y-75816667D01*
X147313895Y-75816667D02*
X147580561Y-75816667D01*
X147580561Y-75816667D02*
X147580561Y-75664286D01*
X114590476Y-57550390D02*
X114514286Y-57512295D01*
X114514286Y-57512295D02*
X114400000Y-57512295D01*
X114400000Y-57512295D02*
X114285714Y-57550390D01*
X114285714Y-57550390D02*
X114209524Y-57626580D01*
X114209524Y-57626580D02*
X114171429Y-57702771D01*
X114171429Y-57702771D02*
X114133333Y-57855152D01*
X114133333Y-57855152D02*
X114133333Y-57969438D01*
X114133333Y-57969438D02*
X114171429Y-58121819D01*
X114171429Y-58121819D02*
X114209524Y-58198009D01*
X114209524Y-58198009D02*
X114285714Y-58274200D01*
X114285714Y-58274200D02*
X114400000Y-58312295D01*
X114400000Y-58312295D02*
X114476191Y-58312295D01*
X114476191Y-58312295D02*
X114590476Y-58274200D01*
X114590476Y-58274200D02*
X114628572Y-58236104D01*
X114628572Y-58236104D02*
X114628572Y-57969438D01*
X114628572Y-57969438D02*
X114476191Y-57969438D01*
X114971429Y-58312295D02*
X114971429Y-57512295D01*
X114971429Y-57512295D02*
X115428572Y-58312295D01*
X115428572Y-58312295D02*
X115428572Y-57512295D01*
X115809524Y-58312295D02*
X115809524Y-57512295D01*
X115809524Y-57512295D02*
X116000000Y-57512295D01*
X116000000Y-57512295D02*
X116114286Y-57550390D01*
X116114286Y-57550390D02*
X116190476Y-57626580D01*
X116190476Y-57626580D02*
X116228571Y-57702771D01*
X116228571Y-57702771D02*
X116266667Y-57855152D01*
X116266667Y-57855152D02*
X116266667Y-57969438D01*
X116266667Y-57969438D02*
X116228571Y-58121819D01*
X116228571Y-58121819D02*
X116190476Y-58198009D01*
X116190476Y-58198009D02*
X116114286Y-58274200D01*
X116114286Y-58274200D02*
X116000000Y-58312295D01*
X116000000Y-58312295D02*
X115809524Y-58312295D01*
X141130952Y-59454819D02*
X141321428Y-59454819D01*
X141321428Y-59454819D02*
X141416666Y-59502438D01*
X141416666Y-59502438D02*
X141511904Y-59597676D01*
X141511904Y-59597676D02*
X141559523Y-59788152D01*
X141559523Y-59788152D02*
X141559523Y-60121485D01*
X141559523Y-60121485D02*
X141511904Y-60311961D01*
X141511904Y-60311961D02*
X141416666Y-60407200D01*
X141416666Y-60407200D02*
X141321428Y-60454819D01*
X141321428Y-60454819D02*
X141130952Y-60454819D01*
X141130952Y-60454819D02*
X141035714Y-60407200D01*
X141035714Y-60407200D02*
X140940476Y-60311961D01*
X140940476Y-60311961D02*
X140892857Y-60121485D01*
X140892857Y-60121485D02*
X140892857Y-59788152D01*
X140892857Y-59788152D02*
X140940476Y-59597676D01*
X140940476Y-59597676D02*
X141035714Y-59502438D01*
X141035714Y-59502438D02*
X141130952Y-59454819D01*
X141988095Y-60454819D02*
X141988095Y-59454819D01*
X141988095Y-59454819D02*
X142559523Y-60454819D01*
X142559523Y-60454819D02*
X142559523Y-59454819D01*
D12*
X114478571Y-60606119D02*
X115049999Y-60606119D01*
X114764285Y-61606119D02*
X114764285Y-60606119D01*
X115240476Y-60606119D02*
X115811904Y-60606119D01*
X115526190Y-61606119D02*
X115526190Y-60606119D01*
X116621428Y-61606119D02*
X116145238Y-61606119D01*
X116145238Y-61606119D02*
X116145238Y-60606119D01*
D11*
X117221429Y-58007533D02*
X117830953Y-58007533D01*
X117526191Y-58312295D02*
X117526191Y-57702771D01*
X118592857Y-57512295D02*
X118211905Y-57512295D01*
X118211905Y-57512295D02*
X118173809Y-57893247D01*
X118173809Y-57893247D02*
X118211905Y-57855152D01*
X118211905Y-57855152D02*
X118288095Y-57817057D01*
X118288095Y-57817057D02*
X118478571Y-57817057D01*
X118478571Y-57817057D02*
X118554762Y-57855152D01*
X118554762Y-57855152D02*
X118592857Y-57893247D01*
X118592857Y-57893247D02*
X118630952Y-57969438D01*
X118630952Y-57969438D02*
X118630952Y-58159914D01*
X118630952Y-58159914D02*
X118592857Y-58236104D01*
X118592857Y-58236104D02*
X118554762Y-58274200D01*
X118554762Y-58274200D02*
X118478571Y-58312295D01*
X118478571Y-58312295D02*
X118288095Y-58312295D01*
X118288095Y-58312295D02*
X118211905Y-58274200D01*
X118211905Y-58274200D02*
X118173809Y-58236104D01*
X118859524Y-57512295D02*
X119126191Y-58312295D01*
X119126191Y-58312295D02*
X119392857Y-57512295D01*
X136366666Y-74650390D02*
X136290476Y-74612295D01*
X136290476Y-74612295D02*
X136176190Y-74612295D01*
X136176190Y-74612295D02*
X136061904Y-74650390D01*
X136061904Y-74650390D02*
X135985714Y-74726580D01*
X135985714Y-74726580D02*
X135947619Y-74802771D01*
X135947619Y-74802771D02*
X135909523Y-74955152D01*
X135909523Y-74955152D02*
X135909523Y-75069438D01*
X135909523Y-75069438D02*
X135947619Y-75221819D01*
X135947619Y-75221819D02*
X135985714Y-75298009D01*
X135985714Y-75298009D02*
X136061904Y-75374200D01*
X136061904Y-75374200D02*
X136176190Y-75412295D01*
X136176190Y-75412295D02*
X136252381Y-75412295D01*
X136252381Y-75412295D02*
X136366666Y-75374200D01*
X136366666Y-75374200D02*
X136404762Y-75336104D01*
X136404762Y-75336104D02*
X136404762Y-75069438D01*
X136404762Y-75069438D02*
X136252381Y-75069438D01*
X136747619Y-75412295D02*
X136747619Y-74612295D01*
X136747619Y-74612295D02*
X137052381Y-74612295D01*
X137052381Y-74612295D02*
X137128571Y-74650390D01*
X137128571Y-74650390D02*
X137166666Y-74688485D01*
X137166666Y-74688485D02*
X137204762Y-74764676D01*
X137204762Y-74764676D02*
X137204762Y-74878961D01*
X137204762Y-74878961D02*
X137166666Y-74955152D01*
X137166666Y-74955152D02*
X137128571Y-74993247D01*
X137128571Y-74993247D02*
X137052381Y-75031342D01*
X137052381Y-75031342D02*
X136747619Y-75031342D01*
X137547619Y-75412295D02*
X137547619Y-74612295D01*
X138080952Y-74612295D02*
X138233333Y-74612295D01*
X138233333Y-74612295D02*
X138309523Y-74650390D01*
X138309523Y-74650390D02*
X138385714Y-74726580D01*
X138385714Y-74726580D02*
X138423809Y-74878961D01*
X138423809Y-74878961D02*
X138423809Y-75145628D01*
X138423809Y-75145628D02*
X138385714Y-75298009D01*
X138385714Y-75298009D02*
X138309523Y-75374200D01*
X138309523Y-75374200D02*
X138233333Y-75412295D01*
X138233333Y-75412295D02*
X138080952Y-75412295D01*
X138080952Y-75412295D02*
X138004761Y-75374200D01*
X138004761Y-75374200D02*
X137928571Y-75298009D01*
X137928571Y-75298009D02*
X137890475Y-75145628D01*
X137890475Y-75145628D02*
X137890475Y-74878961D01*
X137890475Y-74878961D02*
X137928571Y-74726580D01*
X137928571Y-74726580D02*
X138004761Y-74650390D01*
X138004761Y-74650390D02*
X138080952Y-74612295D01*
X138728570Y-74688485D02*
X138766666Y-74650390D01*
X138766666Y-74650390D02*
X138842856Y-74612295D01*
X138842856Y-74612295D02*
X139033332Y-74612295D01*
X139033332Y-74612295D02*
X139109523Y-74650390D01*
X139109523Y-74650390D02*
X139147618Y-74688485D01*
X139147618Y-74688485D02*
X139185713Y-74764676D01*
X139185713Y-74764676D02*
X139185713Y-74840866D01*
X139185713Y-74840866D02*
X139147618Y-74955152D01*
X139147618Y-74955152D02*
X138690475Y-75412295D01*
X138690475Y-75412295D02*
X139185713Y-75412295D01*
X140099999Y-74574200D02*
X139414285Y-75602771D01*
X140252380Y-74612295D02*
X140709523Y-74612295D01*
X140480951Y-75412295D02*
X140480951Y-74612295D01*
X140861904Y-74612295D02*
X141319047Y-74612295D01*
X141090475Y-75412295D02*
X141090475Y-74612295D01*
X141966666Y-75412295D02*
X141585714Y-75412295D01*
X141585714Y-75412295D02*
X141585714Y-74612295D01*
X147108207Y-91100390D02*
X147032017Y-91062295D01*
X147032017Y-91062295D02*
X146917731Y-91062295D01*
X146917731Y-91062295D02*
X146803445Y-91100390D01*
X146803445Y-91100390D02*
X146727255Y-91176580D01*
X146727255Y-91176580D02*
X146689160Y-91252771D01*
X146689160Y-91252771D02*
X146651064Y-91405152D01*
X146651064Y-91405152D02*
X146651064Y-91519438D01*
X146651064Y-91519438D02*
X146689160Y-91671819D01*
X146689160Y-91671819D02*
X146727255Y-91748009D01*
X146727255Y-91748009D02*
X146803445Y-91824200D01*
X146803445Y-91824200D02*
X146917731Y-91862295D01*
X146917731Y-91862295D02*
X146993922Y-91862295D01*
X146993922Y-91862295D02*
X147108207Y-91824200D01*
X147108207Y-91824200D02*
X147146303Y-91786104D01*
X147146303Y-91786104D02*
X147146303Y-91519438D01*
X147146303Y-91519438D02*
X146993922Y-91519438D01*
X147489160Y-91862295D02*
X147489160Y-91062295D01*
X147489160Y-91062295D02*
X147946303Y-91862295D01*
X147946303Y-91862295D02*
X147946303Y-91062295D01*
X148327255Y-91862295D02*
X148327255Y-91062295D01*
X148327255Y-91062295D02*
X148517731Y-91062295D01*
X148517731Y-91062295D02*
X148632017Y-91100390D01*
X148632017Y-91100390D02*
X148708207Y-91176580D01*
X148708207Y-91176580D02*
X148746302Y-91252771D01*
X148746302Y-91252771D02*
X148784398Y-91405152D01*
X148784398Y-91405152D02*
X148784398Y-91519438D01*
X148784398Y-91519438D02*
X148746302Y-91671819D01*
X148746302Y-91671819D02*
X148708207Y-91748009D01*
X148708207Y-91748009D02*
X148632017Y-91824200D01*
X148632017Y-91824200D02*
X148517731Y-91862295D01*
X148517731Y-91862295D02*
X148327255Y-91862295D01*
X135989160Y-91457533D02*
X136598684Y-91457533D01*
X136293922Y-91762295D02*
X136293922Y-91152771D01*
X136865350Y-90962295D02*
X137132017Y-91762295D01*
X137132017Y-91762295D02*
X137398683Y-90962295D01*
X137932016Y-91343247D02*
X138046302Y-91381342D01*
X138046302Y-91381342D02*
X138084397Y-91419438D01*
X138084397Y-91419438D02*
X138122493Y-91495628D01*
X138122493Y-91495628D02*
X138122493Y-91609914D01*
X138122493Y-91609914D02*
X138084397Y-91686104D01*
X138084397Y-91686104D02*
X138046302Y-91724200D01*
X138046302Y-91724200D02*
X137970112Y-91762295D01*
X137970112Y-91762295D02*
X137665350Y-91762295D01*
X137665350Y-91762295D02*
X137665350Y-90962295D01*
X137665350Y-90962295D02*
X137932016Y-90962295D01*
X137932016Y-90962295D02*
X138008207Y-91000390D01*
X138008207Y-91000390D02*
X138046302Y-91038485D01*
X138046302Y-91038485D02*
X138084397Y-91114676D01*
X138084397Y-91114676D02*
X138084397Y-91190866D01*
X138084397Y-91190866D02*
X138046302Y-91267057D01*
X138046302Y-91267057D02*
X138008207Y-91305152D01*
X138008207Y-91305152D02*
X137932016Y-91343247D01*
X137932016Y-91343247D02*
X137665350Y-91343247D01*
X138427254Y-91533723D02*
X138808207Y-91533723D01*
X138351064Y-91762295D02*
X138617731Y-90962295D01*
X138617731Y-90962295D02*
X138884397Y-91762295D01*
X139036778Y-90962295D02*
X139493921Y-90962295D01*
X139265349Y-91762295D02*
X139265349Y-90962295D01*
X148049609Y-79840476D02*
X148087704Y-79764286D01*
X148087704Y-79764286D02*
X148087704Y-79650000D01*
X148087704Y-79650000D02*
X148049609Y-79535714D01*
X148049609Y-79535714D02*
X147973419Y-79459524D01*
X147973419Y-79459524D02*
X147897228Y-79421429D01*
X147897228Y-79421429D02*
X147744847Y-79383333D01*
X147744847Y-79383333D02*
X147630561Y-79383333D01*
X147630561Y-79383333D02*
X147478180Y-79421429D01*
X147478180Y-79421429D02*
X147401990Y-79459524D01*
X147401990Y-79459524D02*
X147325800Y-79535714D01*
X147325800Y-79535714D02*
X147287704Y-79650000D01*
X147287704Y-79650000D02*
X147287704Y-79726191D01*
X147287704Y-79726191D02*
X147325800Y-79840476D01*
X147325800Y-79840476D02*
X147363895Y-79878572D01*
X147363895Y-79878572D02*
X147630561Y-79878572D01*
X147630561Y-79878572D02*
X147630561Y-79726191D01*
X147287704Y-80221429D02*
X148087704Y-80221429D01*
X148087704Y-80221429D02*
X147287704Y-80678572D01*
X147287704Y-80678572D02*
X148087704Y-80678572D01*
X147287704Y-81059524D02*
X148087704Y-81059524D01*
X148087704Y-81059524D02*
X148087704Y-81250000D01*
X148087704Y-81250000D02*
X148049609Y-81364286D01*
X148049609Y-81364286D02*
X147973419Y-81440476D01*
X147973419Y-81440476D02*
X147897228Y-81478571D01*
X147897228Y-81478571D02*
X147744847Y-81516667D01*
X147744847Y-81516667D02*
X147630561Y-81516667D01*
X147630561Y-81516667D02*
X147478180Y-81478571D01*
X147478180Y-81478571D02*
X147401990Y-81440476D01*
X147401990Y-81440476D02*
X147325800Y-81364286D01*
X147325800Y-81364286D02*
X147287704Y-81250000D01*
X147287704Y-81250000D02*
X147287704Y-81059524D01*
X147592466Y-82469048D02*
X147592466Y-83078572D01*
X147287704Y-82773810D02*
X147897228Y-82773810D01*
X148087704Y-83840476D02*
X148087704Y-83459524D01*
X148087704Y-83459524D02*
X147706752Y-83421428D01*
X147706752Y-83421428D02*
X147744847Y-83459524D01*
X147744847Y-83459524D02*
X147782942Y-83535714D01*
X147782942Y-83535714D02*
X147782942Y-83726190D01*
X147782942Y-83726190D02*
X147744847Y-83802381D01*
X147744847Y-83802381D02*
X147706752Y-83840476D01*
X147706752Y-83840476D02*
X147630561Y-83878571D01*
X147630561Y-83878571D02*
X147440085Y-83878571D01*
X147440085Y-83878571D02*
X147363895Y-83840476D01*
X147363895Y-83840476D02*
X147325800Y-83802381D01*
X147325800Y-83802381D02*
X147287704Y-83726190D01*
X147287704Y-83726190D02*
X147287704Y-83535714D01*
X147287704Y-83535714D02*
X147325800Y-83459524D01*
X147325800Y-83459524D02*
X147363895Y-83421428D01*
X148087704Y-84107143D02*
X147287704Y-84373810D01*
X147287704Y-84373810D02*
X148087704Y-84640476D01*
X147325800Y-85478571D02*
X147287704Y-85592857D01*
X147287704Y-85592857D02*
X147287704Y-85783333D01*
X147287704Y-85783333D02*
X147325800Y-85859524D01*
X147325800Y-85859524D02*
X147363895Y-85897619D01*
X147363895Y-85897619D02*
X147440085Y-85935714D01*
X147440085Y-85935714D02*
X147516276Y-85935714D01*
X147516276Y-85935714D02*
X147592466Y-85897619D01*
X147592466Y-85897619D02*
X147630561Y-85859524D01*
X147630561Y-85859524D02*
X147668657Y-85783333D01*
X147668657Y-85783333D02*
X147706752Y-85630952D01*
X147706752Y-85630952D02*
X147744847Y-85554762D01*
X147744847Y-85554762D02*
X147782942Y-85516667D01*
X147782942Y-85516667D02*
X147859133Y-85478571D01*
X147859133Y-85478571D02*
X147935323Y-85478571D01*
X147935323Y-85478571D02*
X148011514Y-85516667D01*
X148011514Y-85516667D02*
X148049609Y-85554762D01*
X148049609Y-85554762D02*
X148087704Y-85630952D01*
X148087704Y-85630952D02*
X148087704Y-85821429D01*
X148087704Y-85821429D02*
X148049609Y-85935714D01*
X147287704Y-86278572D02*
X148087704Y-86278572D01*
X148049609Y-87078571D02*
X148087704Y-87002381D01*
X148087704Y-87002381D02*
X148087704Y-86888095D01*
X148087704Y-86888095D02*
X148049609Y-86773809D01*
X148049609Y-86773809D02*
X147973419Y-86697619D01*
X147973419Y-86697619D02*
X147897228Y-86659524D01*
X147897228Y-86659524D02*
X147744847Y-86621428D01*
X147744847Y-86621428D02*
X147630561Y-86621428D01*
X147630561Y-86621428D02*
X147478180Y-86659524D01*
X147478180Y-86659524D02*
X147401990Y-86697619D01*
X147401990Y-86697619D02*
X147325800Y-86773809D01*
X147325800Y-86773809D02*
X147287704Y-86888095D01*
X147287704Y-86888095D02*
X147287704Y-86964286D01*
X147287704Y-86964286D02*
X147325800Y-87078571D01*
X147325800Y-87078571D02*
X147363895Y-87116667D01*
X147363895Y-87116667D02*
X147630561Y-87116667D01*
X147630561Y-87116667D02*
X147630561Y-86964286D01*
D12*
X114345238Y-75706119D02*
X114345238Y-74706119D01*
X114345238Y-74706119D02*
X114726190Y-74706119D01*
X114726190Y-74706119D02*
X114821428Y-74753738D01*
X114821428Y-74753738D02*
X114869047Y-74801357D01*
X114869047Y-74801357D02*
X114916666Y-74896595D01*
X114916666Y-74896595D02*
X114916666Y-75039452D01*
X114916666Y-75039452D02*
X114869047Y-75134690D01*
X114869047Y-75134690D02*
X114821428Y-75182309D01*
X114821428Y-75182309D02*
X114726190Y-75229928D01*
X114726190Y-75229928D02*
X114345238Y-75229928D01*
X115250000Y-74706119D02*
X115488095Y-75706119D01*
X115488095Y-75706119D02*
X115678571Y-74991833D01*
X115678571Y-74991833D02*
X115869047Y-75706119D01*
X115869047Y-75706119D02*
X116107143Y-74706119D01*
X116488095Y-75706119D02*
X116488095Y-74706119D01*
X116488095Y-74706119D02*
X116821428Y-75420404D01*
X116821428Y-75420404D02*
X117154761Y-74706119D01*
X117154761Y-74706119D02*
X117154761Y-75706119D01*
D11*
X133266666Y-57154819D02*
X133266666Y-57869104D01*
X133266666Y-57869104D02*
X133219047Y-58011961D01*
X133219047Y-58011961D02*
X133123809Y-58107200D01*
X133123809Y-58107200D02*
X132980952Y-58154819D01*
X132980952Y-58154819D02*
X132885714Y-58154819D01*
X134171428Y-57154819D02*
X133980952Y-57154819D01*
X133980952Y-57154819D02*
X133885714Y-57202438D01*
X133885714Y-57202438D02*
X133838095Y-57250057D01*
X133838095Y-57250057D02*
X133742857Y-57392914D01*
X133742857Y-57392914D02*
X133695238Y-57583390D01*
X133695238Y-57583390D02*
X133695238Y-57964342D01*
X133695238Y-57964342D02*
X133742857Y-58059580D01*
X133742857Y-58059580D02*
X133790476Y-58107200D01*
X133790476Y-58107200D02*
X133885714Y-58154819D01*
X133885714Y-58154819D02*
X134076190Y-58154819D01*
X134076190Y-58154819D02*
X134171428Y-58107200D01*
X134171428Y-58107200D02*
X134219047Y-58059580D01*
X134219047Y-58059580D02*
X134266666Y-57964342D01*
X134266666Y-57964342D02*
X134266666Y-57726247D01*
X134266666Y-57726247D02*
X134219047Y-57631009D01*
X134219047Y-57631009D02*
X134171428Y-57583390D01*
X134171428Y-57583390D02*
X134076190Y-57535771D01*
X134076190Y-57535771D02*
X133885714Y-57535771D01*
X133885714Y-57535771D02*
X133790476Y-57583390D01*
X133790476Y-57583390D02*
X133742857Y-57631009D01*
X133742857Y-57631009D02*
X133695238Y-57726247D01*
X138466666Y-89104819D02*
X138466666Y-89819104D01*
X138466666Y-89819104D02*
X138419047Y-89961961D01*
X138419047Y-89961961D02*
X138323809Y-90057200D01*
X138323809Y-90057200D02*
X138180952Y-90104819D01*
X138180952Y-90104819D02*
X138085714Y-90104819D01*
X139419047Y-89104819D02*
X138942857Y-89104819D01*
X138942857Y-89104819D02*
X138895238Y-89581009D01*
X138895238Y-89581009D02*
X138942857Y-89533390D01*
X138942857Y-89533390D02*
X139038095Y-89485771D01*
X139038095Y-89485771D02*
X139276190Y-89485771D01*
X139276190Y-89485771D02*
X139371428Y-89533390D01*
X139371428Y-89533390D02*
X139419047Y-89581009D01*
X139419047Y-89581009D02*
X139466666Y-89676247D01*
X139466666Y-89676247D02*
X139466666Y-89914342D01*
X139466666Y-89914342D02*
X139419047Y-90009580D01*
X139419047Y-90009580D02*
X139371428Y-90057200D01*
X139371428Y-90057200D02*
X139276190Y-90104819D01*
X139276190Y-90104819D02*
X139038095Y-90104819D01*
X139038095Y-90104819D02*
X138942857Y-90057200D01*
X138942857Y-90057200D02*
X138895238Y-90009580D01*
X118433333Y-81754819D02*
X118100000Y-81278628D01*
X117861905Y-81754819D02*
X117861905Y-80754819D01*
X117861905Y-80754819D02*
X118242857Y-80754819D01*
X118242857Y-80754819D02*
X118338095Y-80802438D01*
X118338095Y-80802438D02*
X118385714Y-80850057D01*
X118385714Y-80850057D02*
X118433333Y-80945295D01*
X118433333Y-80945295D02*
X118433333Y-81088152D01*
X118433333Y-81088152D02*
X118385714Y-81183390D01*
X118385714Y-81183390D02*
X118338095Y-81231009D01*
X118338095Y-81231009D02*
X118242857Y-81278628D01*
X118242857Y-81278628D02*
X117861905Y-81278628D01*
X118766667Y-80754819D02*
X119385714Y-80754819D01*
X119385714Y-80754819D02*
X119052381Y-81135771D01*
X119052381Y-81135771D02*
X119195238Y-81135771D01*
X119195238Y-81135771D02*
X119290476Y-81183390D01*
X119290476Y-81183390D02*
X119338095Y-81231009D01*
X119338095Y-81231009D02*
X119385714Y-81326247D01*
X119385714Y-81326247D02*
X119385714Y-81564342D01*
X119385714Y-81564342D02*
X119338095Y-81659580D01*
X119338095Y-81659580D02*
X119290476Y-81707200D01*
X119290476Y-81707200D02*
X119195238Y-81754819D01*
X119195238Y-81754819D02*
X118909524Y-81754819D01*
X118909524Y-81754819D02*
X118814286Y-81707200D01*
X118814286Y-81707200D02*
X118766667Y-81659580D01*
X118433333Y-83454819D02*
X118100000Y-82978628D01*
X117861905Y-83454819D02*
X117861905Y-82454819D01*
X117861905Y-82454819D02*
X118242857Y-82454819D01*
X118242857Y-82454819D02*
X118338095Y-82502438D01*
X118338095Y-82502438D02*
X118385714Y-82550057D01*
X118385714Y-82550057D02*
X118433333Y-82645295D01*
X118433333Y-82645295D02*
X118433333Y-82788152D01*
X118433333Y-82788152D02*
X118385714Y-82883390D01*
X118385714Y-82883390D02*
X118338095Y-82931009D01*
X118338095Y-82931009D02*
X118242857Y-82978628D01*
X118242857Y-82978628D02*
X117861905Y-82978628D01*
X119290476Y-82788152D02*
X119290476Y-83454819D01*
X119052381Y-82407200D02*
X118814286Y-83121485D01*
X118814286Y-83121485D02*
X119433333Y-83121485D01*
X111266666Y-53404819D02*
X111266666Y-54119104D01*
X111266666Y-54119104D02*
X111219047Y-54261961D01*
X111219047Y-54261961D02*
X111123809Y-54357200D01*
X111123809Y-54357200D02*
X110980952Y-54404819D01*
X110980952Y-54404819D02*
X110885714Y-54404819D01*
X111647619Y-53404819D02*
X112314285Y-53404819D01*
X112314285Y-53404819D02*
X111885714Y-54404819D01*
X139409580Y-68116666D02*
X139457200Y-68164285D01*
X139457200Y-68164285D02*
X139504819Y-68307142D01*
X139504819Y-68307142D02*
X139504819Y-68402380D01*
X139504819Y-68402380D02*
X139457200Y-68545237D01*
X139457200Y-68545237D02*
X139361961Y-68640475D01*
X139361961Y-68640475D02*
X139266723Y-68688094D01*
X139266723Y-68688094D02*
X139076247Y-68735713D01*
X139076247Y-68735713D02*
X138933390Y-68735713D01*
X138933390Y-68735713D02*
X138742914Y-68688094D01*
X138742914Y-68688094D02*
X138647676Y-68640475D01*
X138647676Y-68640475D02*
X138552438Y-68545237D01*
X138552438Y-68545237D02*
X138504819Y-68402380D01*
X138504819Y-68402380D02*
X138504819Y-68307142D01*
X138504819Y-68307142D02*
X138552438Y-68164285D01*
X138552438Y-68164285D02*
X138600057Y-68116666D01*
X138504819Y-67783332D02*
X138504819Y-67164285D01*
X138504819Y-67164285D02*
X138885771Y-67497618D01*
X138885771Y-67497618D02*
X138885771Y-67354761D01*
X138885771Y-67354761D02*
X138933390Y-67259523D01*
X138933390Y-67259523D02*
X138981009Y-67211904D01*
X138981009Y-67211904D02*
X139076247Y-67164285D01*
X139076247Y-67164285D02*
X139314342Y-67164285D01*
X139314342Y-67164285D02*
X139409580Y-67211904D01*
X139409580Y-67211904D02*
X139457200Y-67259523D01*
X139457200Y-67259523D02*
X139504819Y-67354761D01*
X139504819Y-67354761D02*
X139504819Y-67640475D01*
X139504819Y-67640475D02*
X139457200Y-67735713D01*
X139457200Y-67735713D02*
X139409580Y-67783332D01*
X137059580Y-68166666D02*
X137107200Y-68214285D01*
X137107200Y-68214285D02*
X137154819Y-68357142D01*
X137154819Y-68357142D02*
X137154819Y-68452380D01*
X137154819Y-68452380D02*
X137107200Y-68595237D01*
X137107200Y-68595237D02*
X137011961Y-68690475D01*
X137011961Y-68690475D02*
X136916723Y-68738094D01*
X136916723Y-68738094D02*
X136726247Y-68785713D01*
X136726247Y-68785713D02*
X136583390Y-68785713D01*
X136583390Y-68785713D02*
X136392914Y-68738094D01*
X136392914Y-68738094D02*
X136297676Y-68690475D01*
X136297676Y-68690475D02*
X136202438Y-68595237D01*
X136202438Y-68595237D02*
X136154819Y-68452380D01*
X136154819Y-68452380D02*
X136154819Y-68357142D01*
X136154819Y-68357142D02*
X136202438Y-68214285D01*
X136202438Y-68214285D02*
X136250057Y-68166666D01*
X136488152Y-67309523D02*
X137154819Y-67309523D01*
X136107200Y-67547618D02*
X136821485Y-67785713D01*
X136821485Y-67785713D02*
X136821485Y-67166666D01*
X137109580Y-77616666D02*
X137157200Y-77664285D01*
X137157200Y-77664285D02*
X137204819Y-77807142D01*
X137204819Y-77807142D02*
X137204819Y-77902380D01*
X137204819Y-77902380D02*
X137157200Y-78045237D01*
X137157200Y-78045237D02*
X137061961Y-78140475D01*
X137061961Y-78140475D02*
X136966723Y-78188094D01*
X136966723Y-78188094D02*
X136776247Y-78235713D01*
X136776247Y-78235713D02*
X136633390Y-78235713D01*
X136633390Y-78235713D02*
X136442914Y-78188094D01*
X136442914Y-78188094D02*
X136347676Y-78140475D01*
X136347676Y-78140475D02*
X136252438Y-78045237D01*
X136252438Y-78045237D02*
X136204819Y-77902380D01*
X136204819Y-77902380D02*
X136204819Y-77807142D01*
X136204819Y-77807142D02*
X136252438Y-77664285D01*
X136252438Y-77664285D02*
X136300057Y-77616666D01*
X137204819Y-76664285D02*
X137204819Y-77235713D01*
X137204819Y-76949999D02*
X136204819Y-76949999D01*
X136204819Y-76949999D02*
X136347676Y-77045237D01*
X136347676Y-77045237D02*
X136442914Y-77140475D01*
X136442914Y-77140475D02*
X136490533Y-77235713D01*
X140166667Y-57207200D02*
X140309524Y-57254819D01*
X140309524Y-57254819D02*
X140547619Y-57254819D01*
X140547619Y-57254819D02*
X140642857Y-57207200D01*
X140642857Y-57207200D02*
X140690476Y-57159580D01*
X140690476Y-57159580D02*
X140738095Y-57064342D01*
X140738095Y-57064342D02*
X140738095Y-56969104D01*
X140738095Y-56969104D02*
X140690476Y-56873866D01*
X140690476Y-56873866D02*
X140642857Y-56826247D01*
X140642857Y-56826247D02*
X140547619Y-56778628D01*
X140547619Y-56778628D02*
X140357143Y-56731009D01*
X140357143Y-56731009D02*
X140261905Y-56683390D01*
X140261905Y-56683390D02*
X140214286Y-56635771D01*
X140214286Y-56635771D02*
X140166667Y-56540533D01*
X140166667Y-56540533D02*
X140166667Y-56445295D01*
X140166667Y-56445295D02*
X140214286Y-56350057D01*
X140214286Y-56350057D02*
X140261905Y-56302438D01*
X140261905Y-56302438D02*
X140357143Y-56254819D01*
X140357143Y-56254819D02*
X140595238Y-56254819D01*
X140595238Y-56254819D02*
X140738095Y-56302438D01*
X141071429Y-56254819D02*
X141309524Y-57254819D01*
X141309524Y-57254819D02*
X141500000Y-56540533D01*
X141500000Y-56540533D02*
X141690476Y-57254819D01*
X141690476Y-57254819D02*
X141928572Y-56254819D01*
X142833333Y-57254819D02*
X142261905Y-57254819D01*
X142547619Y-57254819D02*
X142547619Y-56254819D01*
X142547619Y-56254819D02*
X142452381Y-56397676D01*
X142452381Y-56397676D02*
X142357143Y-56492914D01*
X142357143Y-56492914D02*
X142261905Y-56540533D01*
X132504761Y-92950057D02*
X132409523Y-92902438D01*
X132409523Y-92902438D02*
X132314285Y-92807200D01*
X132314285Y-92807200D02*
X132171428Y-92664342D01*
X132171428Y-92664342D02*
X132076190Y-92616723D01*
X132076190Y-92616723D02*
X131980952Y-92616723D01*
X132028571Y-92854819D02*
X131933333Y-92807200D01*
X131933333Y-92807200D02*
X131838095Y-92711961D01*
X131838095Y-92711961D02*
X131790476Y-92521485D01*
X131790476Y-92521485D02*
X131790476Y-92188152D01*
X131790476Y-92188152D02*
X131838095Y-91997676D01*
X131838095Y-91997676D02*
X131933333Y-91902438D01*
X131933333Y-91902438D02*
X132028571Y-91854819D01*
X132028571Y-91854819D02*
X132219047Y-91854819D01*
X132219047Y-91854819D02*
X132314285Y-91902438D01*
X132314285Y-91902438D02*
X132409523Y-91997676D01*
X132409523Y-91997676D02*
X132457142Y-92188152D01*
X132457142Y-92188152D02*
X132457142Y-92521485D01*
X132457142Y-92521485D02*
X132409523Y-92711961D01*
X132409523Y-92711961D02*
X132314285Y-92807200D01*
X132314285Y-92807200D02*
X132219047Y-92854819D01*
X132219047Y-92854819D02*
X132028571Y-92854819D01*
X133409523Y-92854819D02*
X132838095Y-92854819D01*
X133123809Y-92854819D02*
X133123809Y-91854819D01*
X133123809Y-91854819D02*
X133028571Y-91997676D01*
X133028571Y-91997676D02*
X132933333Y-92092914D01*
X132933333Y-92092914D02*
X132838095Y-92140533D01*
X137554819Y-95166666D02*
X137078628Y-95499999D01*
X137554819Y-95738094D02*
X136554819Y-95738094D01*
X136554819Y-95738094D02*
X136554819Y-95357142D01*
X136554819Y-95357142D02*
X136602438Y-95261904D01*
X136602438Y-95261904D02*
X136650057Y-95214285D01*
X136650057Y-95214285D02*
X136745295Y-95166666D01*
X136745295Y-95166666D02*
X136888152Y-95166666D01*
X136888152Y-95166666D02*
X136983390Y-95214285D01*
X136983390Y-95214285D02*
X137031009Y-95261904D01*
X137031009Y-95261904D02*
X137078628Y-95357142D01*
X137078628Y-95357142D02*
X137078628Y-95738094D01*
X136554819Y-94261904D02*
X136554819Y-94738094D01*
X136554819Y-94738094D02*
X137031009Y-94785713D01*
X137031009Y-94785713D02*
X136983390Y-94738094D01*
X136983390Y-94738094D02*
X136935771Y-94642856D01*
X136935771Y-94642856D02*
X136935771Y-94404761D01*
X136935771Y-94404761D02*
X136983390Y-94309523D01*
X136983390Y-94309523D02*
X137031009Y-94261904D01*
X137031009Y-94261904D02*
X137126247Y-94214285D01*
X137126247Y-94214285D02*
X137364342Y-94214285D01*
X137364342Y-94214285D02*
X137459580Y-94261904D01*
X137459580Y-94261904D02*
X137507200Y-94309523D01*
X137507200Y-94309523D02*
X137554819Y-94404761D01*
X137554819Y-94404761D02*
X137554819Y-94642856D01*
X137554819Y-94642856D02*
X137507200Y-94738094D01*
X137507200Y-94738094D02*
X137459580Y-94785713D01*
X118533333Y-78554819D02*
X118200000Y-78078628D01*
X117961905Y-78554819D02*
X117961905Y-77554819D01*
X117961905Y-77554819D02*
X118342857Y-77554819D01*
X118342857Y-77554819D02*
X118438095Y-77602438D01*
X118438095Y-77602438D02*
X118485714Y-77650057D01*
X118485714Y-77650057D02*
X118533333Y-77745295D01*
X118533333Y-77745295D02*
X118533333Y-77888152D01*
X118533333Y-77888152D02*
X118485714Y-77983390D01*
X118485714Y-77983390D02*
X118438095Y-78031009D01*
X118438095Y-78031009D02*
X118342857Y-78078628D01*
X118342857Y-78078628D02*
X117961905Y-78078628D01*
X119009524Y-78554819D02*
X119200000Y-78554819D01*
X119200000Y-78554819D02*
X119295238Y-78507200D01*
X119295238Y-78507200D02*
X119342857Y-78459580D01*
X119342857Y-78459580D02*
X119438095Y-78316723D01*
X119438095Y-78316723D02*
X119485714Y-78126247D01*
X119485714Y-78126247D02*
X119485714Y-77745295D01*
X119485714Y-77745295D02*
X119438095Y-77650057D01*
X119438095Y-77650057D02*
X119390476Y-77602438D01*
X119390476Y-77602438D02*
X119295238Y-77554819D01*
X119295238Y-77554819D02*
X119104762Y-77554819D01*
X119104762Y-77554819D02*
X119009524Y-77602438D01*
X119009524Y-77602438D02*
X118961905Y-77650057D01*
X118961905Y-77650057D02*
X118914286Y-77745295D01*
X118914286Y-77745295D02*
X118914286Y-77983390D01*
X118914286Y-77983390D02*
X118961905Y-78078628D01*
X118961905Y-78078628D02*
X119009524Y-78126247D01*
X119009524Y-78126247D02*
X119104762Y-78173866D01*
X119104762Y-78173866D02*
X119295238Y-78173866D01*
X119295238Y-78173866D02*
X119390476Y-78126247D01*
X119390476Y-78126247D02*
X119438095Y-78078628D01*
X119438095Y-78078628D02*
X119485714Y-77983390D01*
X118357142Y-85354819D02*
X118023809Y-84878628D01*
X117785714Y-85354819D02*
X117785714Y-84354819D01*
X117785714Y-84354819D02*
X118166666Y-84354819D01*
X118166666Y-84354819D02*
X118261904Y-84402438D01*
X118261904Y-84402438D02*
X118309523Y-84450057D01*
X118309523Y-84450057D02*
X118357142Y-84545295D01*
X118357142Y-84545295D02*
X118357142Y-84688152D01*
X118357142Y-84688152D02*
X118309523Y-84783390D01*
X118309523Y-84783390D02*
X118261904Y-84831009D01*
X118261904Y-84831009D02*
X118166666Y-84878628D01*
X118166666Y-84878628D02*
X117785714Y-84878628D01*
X119309523Y-85354819D02*
X118738095Y-85354819D01*
X119023809Y-85354819D02*
X119023809Y-84354819D01*
X119023809Y-84354819D02*
X118928571Y-84497676D01*
X118928571Y-84497676D02*
X118833333Y-84592914D01*
X118833333Y-84592914D02*
X118738095Y-84640533D01*
X119928571Y-84354819D02*
X120023809Y-84354819D01*
X120023809Y-84354819D02*
X120119047Y-84402438D01*
X120119047Y-84402438D02*
X120166666Y-84450057D01*
X120166666Y-84450057D02*
X120214285Y-84545295D01*
X120214285Y-84545295D02*
X120261904Y-84735771D01*
X120261904Y-84735771D02*
X120261904Y-84973866D01*
X120261904Y-84973866D02*
X120214285Y-85164342D01*
X120214285Y-85164342D02*
X120166666Y-85259580D01*
X120166666Y-85259580D02*
X120119047Y-85307200D01*
X120119047Y-85307200D02*
X120023809Y-85354819D01*
X120023809Y-85354819D02*
X119928571Y-85354819D01*
X119928571Y-85354819D02*
X119833333Y-85307200D01*
X119833333Y-85307200D02*
X119785714Y-85259580D01*
X119785714Y-85259580D02*
X119738095Y-85164342D01*
X119738095Y-85164342D02*
X119690476Y-84973866D01*
X119690476Y-84973866D02*
X119690476Y-84735771D01*
X119690476Y-84735771D02*
X119738095Y-84545295D01*
X119738095Y-84545295D02*
X119785714Y-84450057D01*
X119785714Y-84450057D02*
X119833333Y-84402438D01*
X119833333Y-84402438D02*
X119928571Y-84354819D01*
X118457142Y-80054819D02*
X118123809Y-79578628D01*
X117885714Y-80054819D02*
X117885714Y-79054819D01*
X117885714Y-79054819D02*
X118266666Y-79054819D01*
X118266666Y-79054819D02*
X118361904Y-79102438D01*
X118361904Y-79102438D02*
X118409523Y-79150057D01*
X118409523Y-79150057D02*
X118457142Y-79245295D01*
X118457142Y-79245295D02*
X118457142Y-79388152D01*
X118457142Y-79388152D02*
X118409523Y-79483390D01*
X118409523Y-79483390D02*
X118361904Y-79531009D01*
X118361904Y-79531009D02*
X118266666Y-79578628D01*
X118266666Y-79578628D02*
X117885714Y-79578628D01*
X119409523Y-80054819D02*
X118838095Y-80054819D01*
X119123809Y-80054819D02*
X119123809Y-79054819D01*
X119123809Y-79054819D02*
X119028571Y-79197676D01*
X119028571Y-79197676D02*
X118933333Y-79292914D01*
X118933333Y-79292914D02*
X118838095Y-79340533D01*
X120361904Y-80054819D02*
X119790476Y-80054819D01*
X120076190Y-80054819D02*
X120076190Y-79054819D01*
X120076190Y-79054819D02*
X119980952Y-79197676D01*
X119980952Y-79197676D02*
X119885714Y-79292914D01*
X119885714Y-79292914D02*
X119790476Y-79340533D01*
X118357142Y-86954819D02*
X118023809Y-86478628D01*
X117785714Y-86954819D02*
X117785714Y-85954819D01*
X117785714Y-85954819D02*
X118166666Y-85954819D01*
X118166666Y-85954819D02*
X118261904Y-86002438D01*
X118261904Y-86002438D02*
X118309523Y-86050057D01*
X118309523Y-86050057D02*
X118357142Y-86145295D01*
X118357142Y-86145295D02*
X118357142Y-86288152D01*
X118357142Y-86288152D02*
X118309523Y-86383390D01*
X118309523Y-86383390D02*
X118261904Y-86431009D01*
X118261904Y-86431009D02*
X118166666Y-86478628D01*
X118166666Y-86478628D02*
X117785714Y-86478628D01*
X119309523Y-86954819D02*
X118738095Y-86954819D01*
X119023809Y-86954819D02*
X119023809Y-85954819D01*
X119023809Y-85954819D02*
X118928571Y-86097676D01*
X118928571Y-86097676D02*
X118833333Y-86192914D01*
X118833333Y-86192914D02*
X118738095Y-86240533D01*
X119690476Y-86050057D02*
X119738095Y-86002438D01*
X119738095Y-86002438D02*
X119833333Y-85954819D01*
X119833333Y-85954819D02*
X120071428Y-85954819D01*
X120071428Y-85954819D02*
X120166666Y-86002438D01*
X120166666Y-86002438D02*
X120214285Y-86050057D01*
X120214285Y-86050057D02*
X120261904Y-86145295D01*
X120261904Y-86145295D02*
X120261904Y-86240533D01*
X120261904Y-86240533D02*
X120214285Y-86383390D01*
X120214285Y-86383390D02*
X119642857Y-86954819D01*
X119642857Y-86954819D02*
X120261904Y-86954819D01*
X132457142Y-72754819D02*
X132123809Y-72278628D01*
X131885714Y-72754819D02*
X131885714Y-71754819D01*
X131885714Y-71754819D02*
X132266666Y-71754819D01*
X132266666Y-71754819D02*
X132361904Y-71802438D01*
X132361904Y-71802438D02*
X132409523Y-71850057D01*
X132409523Y-71850057D02*
X132457142Y-71945295D01*
X132457142Y-71945295D02*
X132457142Y-72088152D01*
X132457142Y-72088152D02*
X132409523Y-72183390D01*
X132409523Y-72183390D02*
X132361904Y-72231009D01*
X132361904Y-72231009D02*
X132266666Y-72278628D01*
X132266666Y-72278628D02*
X131885714Y-72278628D01*
X133409523Y-72754819D02*
X132838095Y-72754819D01*
X133123809Y-72754819D02*
X133123809Y-71754819D01*
X133123809Y-71754819D02*
X133028571Y-71897676D01*
X133028571Y-71897676D02*
X132933333Y-71992914D01*
X132933333Y-71992914D02*
X132838095Y-72040533D01*
X133742857Y-71754819D02*
X134361904Y-71754819D01*
X134361904Y-71754819D02*
X134028571Y-72135771D01*
X134028571Y-72135771D02*
X134171428Y-72135771D01*
X134171428Y-72135771D02*
X134266666Y-72183390D01*
X134266666Y-72183390D02*
X134314285Y-72231009D01*
X134314285Y-72231009D02*
X134361904Y-72326247D01*
X134361904Y-72326247D02*
X134361904Y-72564342D01*
X134361904Y-72564342D02*
X134314285Y-72659580D01*
X134314285Y-72659580D02*
X134266666Y-72707200D01*
X134266666Y-72707200D02*
X134171428Y-72754819D01*
X134171428Y-72754819D02*
X133885714Y-72754819D01*
X133885714Y-72754819D02*
X133790476Y-72707200D01*
X133790476Y-72707200D02*
X133742857Y-72659580D01*
X132457142Y-71254819D02*
X132123809Y-70778628D01*
X131885714Y-71254819D02*
X131885714Y-70254819D01*
X131885714Y-70254819D02*
X132266666Y-70254819D01*
X132266666Y-70254819D02*
X132361904Y-70302438D01*
X132361904Y-70302438D02*
X132409523Y-70350057D01*
X132409523Y-70350057D02*
X132457142Y-70445295D01*
X132457142Y-70445295D02*
X132457142Y-70588152D01*
X132457142Y-70588152D02*
X132409523Y-70683390D01*
X132409523Y-70683390D02*
X132361904Y-70731009D01*
X132361904Y-70731009D02*
X132266666Y-70778628D01*
X132266666Y-70778628D02*
X131885714Y-70778628D01*
X133409523Y-71254819D02*
X132838095Y-71254819D01*
X133123809Y-71254819D02*
X133123809Y-70254819D01*
X133123809Y-70254819D02*
X133028571Y-70397676D01*
X133028571Y-70397676D02*
X132933333Y-70492914D01*
X132933333Y-70492914D02*
X132838095Y-70540533D01*
X134266666Y-70588152D02*
X134266666Y-71254819D01*
X134028571Y-70207200D02*
X133790476Y-70921485D01*
X133790476Y-70921485D02*
X134409523Y-70921485D01*
X139609580Y-77616666D02*
X139657200Y-77664285D01*
X139657200Y-77664285D02*
X139704819Y-77807142D01*
X139704819Y-77807142D02*
X139704819Y-77902380D01*
X139704819Y-77902380D02*
X139657200Y-78045237D01*
X139657200Y-78045237D02*
X139561961Y-78140475D01*
X139561961Y-78140475D02*
X139466723Y-78188094D01*
X139466723Y-78188094D02*
X139276247Y-78235713D01*
X139276247Y-78235713D02*
X139133390Y-78235713D01*
X139133390Y-78235713D02*
X138942914Y-78188094D01*
X138942914Y-78188094D02*
X138847676Y-78140475D01*
X138847676Y-78140475D02*
X138752438Y-78045237D01*
X138752438Y-78045237D02*
X138704819Y-77902380D01*
X138704819Y-77902380D02*
X138704819Y-77807142D01*
X138704819Y-77807142D02*
X138752438Y-77664285D01*
X138752438Y-77664285D02*
X138800057Y-77616666D01*
X138800057Y-77235713D02*
X138752438Y-77188094D01*
X138752438Y-77188094D02*
X138704819Y-77092856D01*
X138704819Y-77092856D02*
X138704819Y-76854761D01*
X138704819Y-76854761D02*
X138752438Y-76759523D01*
X138752438Y-76759523D02*
X138800057Y-76711904D01*
X138800057Y-76711904D02*
X138895295Y-76664285D01*
X138895295Y-76664285D02*
X138990533Y-76664285D01*
X138990533Y-76664285D02*
X139133390Y-76711904D01*
X139133390Y-76711904D02*
X139704819Y-77283332D01*
X139704819Y-77283332D02*
X139704819Y-76664285D01*
X140816666Y-66954819D02*
X140816666Y-67669104D01*
X140816666Y-67669104D02*
X140769047Y-67811961D01*
X140769047Y-67811961D02*
X140673809Y-67907200D01*
X140673809Y-67907200D02*
X140530952Y-67954819D01*
X140530952Y-67954819D02*
X140435714Y-67954819D01*
X141197619Y-66954819D02*
X141816666Y-66954819D01*
X141816666Y-66954819D02*
X141483333Y-67335771D01*
X141483333Y-67335771D02*
X141626190Y-67335771D01*
X141626190Y-67335771D02*
X141721428Y-67383390D01*
X141721428Y-67383390D02*
X141769047Y-67431009D01*
X141769047Y-67431009D02*
X141816666Y-67526247D01*
X141816666Y-67526247D02*
X141816666Y-67764342D01*
X141816666Y-67764342D02*
X141769047Y-67859580D01*
X141769047Y-67859580D02*
X141721428Y-67907200D01*
X141721428Y-67907200D02*
X141626190Y-67954819D01*
X141626190Y-67954819D02*
X141340476Y-67954819D01*
X141340476Y-67954819D02*
X141245238Y-67907200D01*
X141245238Y-67907200D02*
X141197619Y-67859580D01*
X113483333Y-66204819D02*
X113150000Y-65728628D01*
X112911905Y-66204819D02*
X112911905Y-65204819D01*
X112911905Y-65204819D02*
X113292857Y-65204819D01*
X113292857Y-65204819D02*
X113388095Y-65252438D01*
X113388095Y-65252438D02*
X113435714Y-65300057D01*
X113435714Y-65300057D02*
X113483333Y-65395295D01*
X113483333Y-65395295D02*
X113483333Y-65538152D01*
X113483333Y-65538152D02*
X113435714Y-65633390D01*
X113435714Y-65633390D02*
X113388095Y-65681009D01*
X113388095Y-65681009D02*
X113292857Y-65728628D01*
X113292857Y-65728628D02*
X112911905Y-65728628D01*
X113816667Y-65204819D02*
X114483333Y-65204819D01*
X114483333Y-65204819D02*
X114054762Y-66204819D01*
X140916666Y-86304819D02*
X140916666Y-87019104D01*
X140916666Y-87019104D02*
X140869047Y-87161961D01*
X140869047Y-87161961D02*
X140773809Y-87257200D01*
X140773809Y-87257200D02*
X140630952Y-87304819D01*
X140630952Y-87304819D02*
X140535714Y-87304819D01*
X141535714Y-86733390D02*
X141440476Y-86685771D01*
X141440476Y-86685771D02*
X141392857Y-86638152D01*
X141392857Y-86638152D02*
X141345238Y-86542914D01*
X141345238Y-86542914D02*
X141345238Y-86495295D01*
X141345238Y-86495295D02*
X141392857Y-86400057D01*
X141392857Y-86400057D02*
X141440476Y-86352438D01*
X141440476Y-86352438D02*
X141535714Y-86304819D01*
X141535714Y-86304819D02*
X141726190Y-86304819D01*
X141726190Y-86304819D02*
X141821428Y-86352438D01*
X141821428Y-86352438D02*
X141869047Y-86400057D01*
X141869047Y-86400057D02*
X141916666Y-86495295D01*
X141916666Y-86495295D02*
X141916666Y-86542914D01*
X141916666Y-86542914D02*
X141869047Y-86638152D01*
X141869047Y-86638152D02*
X141821428Y-86685771D01*
X141821428Y-86685771D02*
X141726190Y-86733390D01*
X141726190Y-86733390D02*
X141535714Y-86733390D01*
X141535714Y-86733390D02*
X141440476Y-86781009D01*
X141440476Y-86781009D02*
X141392857Y-86828628D01*
X141392857Y-86828628D02*
X141345238Y-86923866D01*
X141345238Y-86923866D02*
X141345238Y-87114342D01*
X141345238Y-87114342D02*
X141392857Y-87209580D01*
X141392857Y-87209580D02*
X141440476Y-87257200D01*
X141440476Y-87257200D02*
X141535714Y-87304819D01*
X141535714Y-87304819D02*
X141726190Y-87304819D01*
X141726190Y-87304819D02*
X141821428Y-87257200D01*
X141821428Y-87257200D02*
X141869047Y-87209580D01*
X141869047Y-87209580D02*
X141916666Y-87114342D01*
X141916666Y-87114342D02*
X141916666Y-86923866D01*
X141916666Y-86923866D02*
X141869047Y-86828628D01*
X141869047Y-86828628D02*
X141821428Y-86781009D01*
X141821428Y-86781009D02*
X141726190Y-86733390D01*
X132523333Y-66054819D02*
X132190000Y-65578628D01*
X131951905Y-66054819D02*
X131951905Y-65054819D01*
X131951905Y-65054819D02*
X132332857Y-65054819D01*
X132332857Y-65054819D02*
X132428095Y-65102438D01*
X132428095Y-65102438D02*
X132475714Y-65150057D01*
X132475714Y-65150057D02*
X132523333Y-65245295D01*
X132523333Y-65245295D02*
X132523333Y-65388152D01*
X132523333Y-65388152D02*
X132475714Y-65483390D01*
X132475714Y-65483390D02*
X132428095Y-65531009D01*
X132428095Y-65531009D02*
X132332857Y-65578628D01*
X132332857Y-65578628D02*
X131951905Y-65578628D01*
X133094762Y-65483390D02*
X132999524Y-65435771D01*
X132999524Y-65435771D02*
X132951905Y-65388152D01*
X132951905Y-65388152D02*
X132904286Y-65292914D01*
X132904286Y-65292914D02*
X132904286Y-65245295D01*
X132904286Y-65245295D02*
X132951905Y-65150057D01*
X132951905Y-65150057D02*
X132999524Y-65102438D01*
X132999524Y-65102438D02*
X133094762Y-65054819D01*
X133094762Y-65054819D02*
X133285238Y-65054819D01*
X133285238Y-65054819D02*
X133380476Y-65102438D01*
X133380476Y-65102438D02*
X133428095Y-65150057D01*
X133428095Y-65150057D02*
X133475714Y-65245295D01*
X133475714Y-65245295D02*
X133475714Y-65292914D01*
X133475714Y-65292914D02*
X133428095Y-65388152D01*
X133428095Y-65388152D02*
X133380476Y-65435771D01*
X133380476Y-65435771D02*
X133285238Y-65483390D01*
X133285238Y-65483390D02*
X133094762Y-65483390D01*
X133094762Y-65483390D02*
X132999524Y-65531009D01*
X132999524Y-65531009D02*
X132951905Y-65578628D01*
X132951905Y-65578628D02*
X132904286Y-65673866D01*
X132904286Y-65673866D02*
X132904286Y-65864342D01*
X132904286Y-65864342D02*
X132951905Y-65959580D01*
X132951905Y-65959580D02*
X132999524Y-66007200D01*
X132999524Y-66007200D02*
X133094762Y-66054819D01*
X133094762Y-66054819D02*
X133285238Y-66054819D01*
X133285238Y-66054819D02*
X133380476Y-66007200D01*
X133380476Y-66007200D02*
X133428095Y-65959580D01*
X133428095Y-65959580D02*
X133475714Y-65864342D01*
X133475714Y-65864342D02*
X133475714Y-65673866D01*
X133475714Y-65673866D02*
X133428095Y-65578628D01*
X133428095Y-65578628D02*
X133380476Y-65531009D01*
X133380476Y-65531009D02*
X133285238Y-65483390D01*
X132433333Y-64359580D02*
X132385714Y-64407200D01*
X132385714Y-64407200D02*
X132242857Y-64454819D01*
X132242857Y-64454819D02*
X132147619Y-64454819D01*
X132147619Y-64454819D02*
X132004762Y-64407200D01*
X132004762Y-64407200D02*
X131909524Y-64311961D01*
X131909524Y-64311961D02*
X131861905Y-64216723D01*
X131861905Y-64216723D02*
X131814286Y-64026247D01*
X131814286Y-64026247D02*
X131814286Y-63883390D01*
X131814286Y-63883390D02*
X131861905Y-63692914D01*
X131861905Y-63692914D02*
X131909524Y-63597676D01*
X131909524Y-63597676D02*
X132004762Y-63502438D01*
X132004762Y-63502438D02*
X132147619Y-63454819D01*
X132147619Y-63454819D02*
X132242857Y-63454819D01*
X132242857Y-63454819D02*
X132385714Y-63502438D01*
X132385714Y-63502438D02*
X132433333Y-63550057D01*
X133338095Y-63454819D02*
X132861905Y-63454819D01*
X132861905Y-63454819D02*
X132814286Y-63931009D01*
X132814286Y-63931009D02*
X132861905Y-63883390D01*
X132861905Y-63883390D02*
X132957143Y-63835771D01*
X132957143Y-63835771D02*
X133195238Y-63835771D01*
X133195238Y-63835771D02*
X133290476Y-63883390D01*
X133290476Y-63883390D02*
X133338095Y-63931009D01*
X133338095Y-63931009D02*
X133385714Y-64026247D01*
X133385714Y-64026247D02*
X133385714Y-64264342D01*
X133385714Y-64264342D02*
X133338095Y-64359580D01*
X133338095Y-64359580D02*
X133290476Y-64407200D01*
X133290476Y-64407200D02*
X133195238Y-64454819D01*
X133195238Y-64454819D02*
X132957143Y-64454819D01*
X132957143Y-64454819D02*
X132861905Y-64407200D01*
X132861905Y-64407200D02*
X132814286Y-64359580D01*
X101266666Y-55554819D02*
X101266666Y-56269104D01*
X101266666Y-56269104D02*
X101219047Y-56411961D01*
X101219047Y-56411961D02*
X101123809Y-56507200D01*
X101123809Y-56507200D02*
X100980952Y-56554819D01*
X100980952Y-56554819D02*
X100885714Y-56554819D01*
X101695238Y-55650057D02*
X101742857Y-55602438D01*
X101742857Y-55602438D02*
X101838095Y-55554819D01*
X101838095Y-55554819D02*
X102076190Y-55554819D01*
X102076190Y-55554819D02*
X102171428Y-55602438D01*
X102171428Y-55602438D02*
X102219047Y-55650057D01*
X102219047Y-55650057D02*
X102266666Y-55745295D01*
X102266666Y-55745295D02*
X102266666Y-55840533D01*
X102266666Y-55840533D02*
X102219047Y-55983390D01*
X102219047Y-55983390D02*
X101647619Y-56554819D01*
X101647619Y-56554819D02*
X102266666Y-56554819D01*
X123761905Y-56204819D02*
X123761905Y-55204819D01*
X123761905Y-55204819D02*
X124000000Y-55204819D01*
X124000000Y-55204819D02*
X124142857Y-55252438D01*
X124142857Y-55252438D02*
X124238095Y-55347676D01*
X124238095Y-55347676D02*
X124285714Y-55442914D01*
X124285714Y-55442914D02*
X124333333Y-55633390D01*
X124333333Y-55633390D02*
X124333333Y-55776247D01*
X124333333Y-55776247D02*
X124285714Y-55966723D01*
X124285714Y-55966723D02*
X124238095Y-56061961D01*
X124238095Y-56061961D02*
X124142857Y-56157200D01*
X124142857Y-56157200D02*
X124000000Y-56204819D01*
X124000000Y-56204819D02*
X123761905Y-56204819D01*
X125285714Y-56204819D02*
X124714286Y-56204819D01*
X125000000Y-56204819D02*
X125000000Y-55204819D01*
X125000000Y-55204819D02*
X124904762Y-55347676D01*
X124904762Y-55347676D02*
X124809524Y-55442914D01*
X124809524Y-55442914D02*
X124714286Y-55490533D01*
X117904761Y-70000057D02*
X117809523Y-69952438D01*
X117809523Y-69952438D02*
X117714285Y-69857200D01*
X117714285Y-69857200D02*
X117571428Y-69714342D01*
X117571428Y-69714342D02*
X117476190Y-69666723D01*
X117476190Y-69666723D02*
X117380952Y-69666723D01*
X117428571Y-69904819D02*
X117333333Y-69857200D01*
X117333333Y-69857200D02*
X117238095Y-69761961D01*
X117238095Y-69761961D02*
X117190476Y-69571485D01*
X117190476Y-69571485D02*
X117190476Y-69238152D01*
X117190476Y-69238152D02*
X117238095Y-69047676D01*
X117238095Y-69047676D02*
X117333333Y-68952438D01*
X117333333Y-68952438D02*
X117428571Y-68904819D01*
X117428571Y-68904819D02*
X117619047Y-68904819D01*
X117619047Y-68904819D02*
X117714285Y-68952438D01*
X117714285Y-68952438D02*
X117809523Y-69047676D01*
X117809523Y-69047676D02*
X117857142Y-69238152D01*
X117857142Y-69238152D02*
X117857142Y-69571485D01*
X117857142Y-69571485D02*
X117809523Y-69761961D01*
X117809523Y-69761961D02*
X117714285Y-69857200D01*
X117714285Y-69857200D02*
X117619047Y-69904819D01*
X117619047Y-69904819D02*
X117428571Y-69904819D01*
X118238095Y-69000057D02*
X118285714Y-68952438D01*
X118285714Y-68952438D02*
X118380952Y-68904819D01*
X118380952Y-68904819D02*
X118619047Y-68904819D01*
X118619047Y-68904819D02*
X118714285Y-68952438D01*
X118714285Y-68952438D02*
X118761904Y-69000057D01*
X118761904Y-69000057D02*
X118809523Y-69095295D01*
X118809523Y-69095295D02*
X118809523Y-69190533D01*
X118809523Y-69190533D02*
X118761904Y-69333390D01*
X118761904Y-69333390D02*
X118190476Y-69904819D01*
X118190476Y-69904819D02*
X118809523Y-69904819D01*
X132457142Y-69354819D02*
X132123809Y-68878628D01*
X131885714Y-69354819D02*
X131885714Y-68354819D01*
X131885714Y-68354819D02*
X132266666Y-68354819D01*
X132266666Y-68354819D02*
X132361904Y-68402438D01*
X132361904Y-68402438D02*
X132409523Y-68450057D01*
X132409523Y-68450057D02*
X132457142Y-68545295D01*
X132457142Y-68545295D02*
X132457142Y-68688152D01*
X132457142Y-68688152D02*
X132409523Y-68783390D01*
X132409523Y-68783390D02*
X132361904Y-68831009D01*
X132361904Y-68831009D02*
X132266666Y-68878628D01*
X132266666Y-68878628D02*
X131885714Y-68878628D01*
X133409523Y-69354819D02*
X132838095Y-69354819D01*
X133123809Y-69354819D02*
X133123809Y-68354819D01*
X133123809Y-68354819D02*
X133028571Y-68497676D01*
X133028571Y-68497676D02*
X132933333Y-68592914D01*
X132933333Y-68592914D02*
X132838095Y-68640533D01*
X134314285Y-68354819D02*
X133838095Y-68354819D01*
X133838095Y-68354819D02*
X133790476Y-68831009D01*
X133790476Y-68831009D02*
X133838095Y-68783390D01*
X133838095Y-68783390D02*
X133933333Y-68735771D01*
X133933333Y-68735771D02*
X134171428Y-68735771D01*
X134171428Y-68735771D02*
X134266666Y-68783390D01*
X134266666Y-68783390D02*
X134314285Y-68831009D01*
X134314285Y-68831009D02*
X134361904Y-68926247D01*
X134361904Y-68926247D02*
X134361904Y-69164342D01*
X134361904Y-69164342D02*
X134314285Y-69259580D01*
X134314285Y-69259580D02*
X134266666Y-69307200D01*
X134266666Y-69307200D02*
X134171428Y-69354819D01*
X134171428Y-69354819D02*
X133933333Y-69354819D01*
X133933333Y-69354819D02*
X133838095Y-69307200D01*
X133838095Y-69307200D02*
X133790476Y-69259580D01*
X122538095Y-62004819D02*
X122538095Y-62814342D01*
X122538095Y-62814342D02*
X122585714Y-62909580D01*
X122585714Y-62909580D02*
X122633333Y-62957200D01*
X122633333Y-62957200D02*
X122728571Y-63004819D01*
X122728571Y-63004819D02*
X122919047Y-63004819D01*
X122919047Y-63004819D02*
X123014285Y-62957200D01*
X123014285Y-62957200D02*
X123061904Y-62909580D01*
X123061904Y-62909580D02*
X123109523Y-62814342D01*
X123109523Y-62814342D02*
X123109523Y-62004819D01*
X124109523Y-63004819D02*
X123538095Y-63004819D01*
X123823809Y-63004819D02*
X123823809Y-62004819D01*
X123823809Y-62004819D02*
X123728571Y-62147676D01*
X123728571Y-62147676D02*
X123633333Y-62242914D01*
X123633333Y-62242914D02*
X123538095Y-62290533D01*
X118633333Y-72054819D02*
X118300000Y-71578628D01*
X118061905Y-72054819D02*
X118061905Y-71054819D01*
X118061905Y-71054819D02*
X118442857Y-71054819D01*
X118442857Y-71054819D02*
X118538095Y-71102438D01*
X118538095Y-71102438D02*
X118585714Y-71150057D01*
X118585714Y-71150057D02*
X118633333Y-71245295D01*
X118633333Y-71245295D02*
X118633333Y-71388152D01*
X118633333Y-71388152D02*
X118585714Y-71483390D01*
X118585714Y-71483390D02*
X118538095Y-71531009D01*
X118538095Y-71531009D02*
X118442857Y-71578628D01*
X118442857Y-71578628D02*
X118061905Y-71578628D01*
X119014286Y-71150057D02*
X119061905Y-71102438D01*
X119061905Y-71102438D02*
X119157143Y-71054819D01*
X119157143Y-71054819D02*
X119395238Y-71054819D01*
X119395238Y-71054819D02*
X119490476Y-71102438D01*
X119490476Y-71102438D02*
X119538095Y-71150057D01*
X119538095Y-71150057D02*
X119585714Y-71245295D01*
X119585714Y-71245295D02*
X119585714Y-71340533D01*
X119585714Y-71340533D02*
X119538095Y-71483390D01*
X119538095Y-71483390D02*
X118966667Y-72054819D01*
X118966667Y-72054819D02*
X119585714Y-72054819D01*
X132533333Y-67594819D02*
X132200000Y-67118628D01*
X131961905Y-67594819D02*
X131961905Y-66594819D01*
X131961905Y-66594819D02*
X132342857Y-66594819D01*
X132342857Y-66594819D02*
X132438095Y-66642438D01*
X132438095Y-66642438D02*
X132485714Y-66690057D01*
X132485714Y-66690057D02*
X132533333Y-66785295D01*
X132533333Y-66785295D02*
X132533333Y-66928152D01*
X132533333Y-66928152D02*
X132485714Y-67023390D01*
X132485714Y-67023390D02*
X132438095Y-67071009D01*
X132438095Y-67071009D02*
X132342857Y-67118628D01*
X132342857Y-67118628D02*
X131961905Y-67118628D01*
X133390476Y-66594819D02*
X133200000Y-66594819D01*
X133200000Y-66594819D02*
X133104762Y-66642438D01*
X133104762Y-66642438D02*
X133057143Y-66690057D01*
X133057143Y-66690057D02*
X132961905Y-66832914D01*
X132961905Y-66832914D02*
X132914286Y-67023390D01*
X132914286Y-67023390D02*
X132914286Y-67404342D01*
X132914286Y-67404342D02*
X132961905Y-67499580D01*
X132961905Y-67499580D02*
X133009524Y-67547200D01*
X133009524Y-67547200D02*
X133104762Y-67594819D01*
X133104762Y-67594819D02*
X133295238Y-67594819D01*
X133295238Y-67594819D02*
X133390476Y-67547200D01*
X133390476Y-67547200D02*
X133438095Y-67499580D01*
X133438095Y-67499580D02*
X133485714Y-67404342D01*
X133485714Y-67404342D02*
X133485714Y-67166247D01*
X133485714Y-67166247D02*
X133438095Y-67071009D01*
X133438095Y-67071009D02*
X133390476Y-67023390D01*
X133390476Y-67023390D02*
X133295238Y-66975771D01*
X133295238Y-66975771D02*
X133104762Y-66975771D01*
X133104762Y-66975771D02*
X133009524Y-67023390D01*
X133009524Y-67023390D02*
X132961905Y-67071009D01*
X132961905Y-67071009D02*
X132914286Y-67166247D01*
X113483333Y-72054819D02*
X113150000Y-71578628D01*
X112911905Y-72054819D02*
X112911905Y-71054819D01*
X112911905Y-71054819D02*
X113292857Y-71054819D01*
X113292857Y-71054819D02*
X113388095Y-71102438D01*
X113388095Y-71102438D02*
X113435714Y-71150057D01*
X113435714Y-71150057D02*
X113483333Y-71245295D01*
X113483333Y-71245295D02*
X113483333Y-71388152D01*
X113483333Y-71388152D02*
X113435714Y-71483390D01*
X113435714Y-71483390D02*
X113388095Y-71531009D01*
X113388095Y-71531009D02*
X113292857Y-71578628D01*
X113292857Y-71578628D02*
X112911905Y-71578628D01*
X114435714Y-72054819D02*
X113864286Y-72054819D01*
X114150000Y-72054819D02*
X114150000Y-71054819D01*
X114150000Y-71054819D02*
X114054762Y-71197676D01*
X114054762Y-71197676D02*
X113959524Y-71292914D01*
X113959524Y-71292914D02*
X113864286Y-71340533D01*
X139704819Y-64162094D02*
X138704819Y-64162094D01*
X138704819Y-64162094D02*
X138704819Y-63923999D01*
X138704819Y-63923999D02*
X138752438Y-63781142D01*
X138752438Y-63781142D02*
X138847676Y-63685904D01*
X138847676Y-63685904D02*
X138942914Y-63638285D01*
X138942914Y-63638285D02*
X139133390Y-63590666D01*
X139133390Y-63590666D02*
X139276247Y-63590666D01*
X139276247Y-63590666D02*
X139466723Y-63638285D01*
X139466723Y-63638285D02*
X139561961Y-63685904D01*
X139561961Y-63685904D02*
X139657200Y-63781142D01*
X139657200Y-63781142D02*
X139704819Y-63923999D01*
X139704819Y-63923999D02*
X139704819Y-64162094D01*
X138800057Y-63209713D02*
X138752438Y-63162094D01*
X138752438Y-63162094D02*
X138704819Y-63066856D01*
X138704819Y-63066856D02*
X138704819Y-62828761D01*
X138704819Y-62828761D02*
X138752438Y-62733523D01*
X138752438Y-62733523D02*
X138800057Y-62685904D01*
X138800057Y-62685904D02*
X138895295Y-62638285D01*
X138895295Y-62638285D02*
X138990533Y-62638285D01*
X138990533Y-62638285D02*
X139133390Y-62685904D01*
X139133390Y-62685904D02*
X139704819Y-63257332D01*
X139704819Y-63257332D02*
X139704819Y-62638285D01*
D10*
X138660000Y-56460000D02*
X138660000Y-48640000D01*
X138660000Y-54860000D02*
X137740000Y-54860000D01*
X138660000Y-48640000D02*
X128540000Y-48640000D01*
X137900000Y-52500000D02*
X137900000Y-50900000D01*
X137900000Y-50900000D02*
X136900000Y-50900000D01*
X137740000Y-56460000D02*
X138660000Y-56460000D01*
X137740000Y-54860000D02*
X137740000Y-56460000D01*
X137460000Y-54860000D02*
X137740000Y-54860000D01*
X137460000Y-54860000D02*
X137460000Y-56075000D01*
X137400000Y-50900000D02*
X137400000Y-48640000D01*
X136900000Y-52500000D02*
X137900000Y-52500000D01*
X136900000Y-50900000D02*
X136900000Y-52500000D01*
X136900000Y-50900000D02*
X136900000Y-48640000D01*
X136100000Y-53000000D02*
X131100000Y-53000000D01*
X136100000Y-48640000D02*
X136100000Y-53000000D01*
X131100000Y-53000000D02*
X131100000Y-48640000D01*
X130300000Y-52500000D02*
X129300000Y-52500000D01*
X130300000Y-50900000D02*
X130300000Y-52500000D01*
X129460000Y-56460000D02*
X129460000Y-54860000D01*
X129460000Y-54860000D02*
X129740000Y-54860000D01*
X129300000Y-52500000D02*
X129300000Y-50900000D01*
X129300000Y-50900000D02*
X130300000Y-50900000D01*
X128540000Y-56460000D02*
X129460000Y-56460000D01*
X128540000Y-54860000D02*
X129460000Y-54860000D01*
X128540000Y-48640000D02*
X128540000Y-56460000D01*
X139990000Y-89040000D02*
X139990000Y-90290000D01*
X140290000Y-89340000D02*
X140290000Y-94060000D01*
X140290000Y-90650000D02*
X140900000Y-90650000D01*
X140290000Y-91950000D02*
X140900000Y-91950000D01*
X140290000Y-94060000D02*
X146410000Y-94060000D01*
X140900000Y-89950000D02*
X140900000Y-93450000D01*
X140900000Y-93450000D02*
X145800000Y-93450000D01*
X141240000Y-89040000D02*
X139990000Y-89040000D01*
X141750000Y-89140000D02*
X141750000Y-89340000D01*
X142050000Y-89140000D02*
X141750000Y-89140000D01*
X142050000Y-89240000D02*
X141750000Y-89240000D01*
X142050000Y-89340000D02*
X142050000Y-89140000D01*
X142850000Y-89340000D02*
X142850000Y-89950000D01*
X142850000Y-89950000D02*
X140900000Y-89950000D01*
X143250000Y-92950000D02*
X143450000Y-92950000D01*
X143250000Y-93450000D02*
X143250000Y-92950000D01*
X143350000Y-93450000D02*
X143350000Y-92950000D01*
X143450000Y-92950000D02*
X143450000Y-93450000D01*
X143850000Y-89950000D02*
X143850000Y-89340000D01*
X145800000Y-89950000D02*
X143850000Y-89950000D01*
X145800000Y-93450000D02*
X145800000Y-89950000D01*
X146410000Y-89340000D02*
X140290000Y-89340000D01*
X146410000Y-90650000D02*
X145800000Y-90650000D01*
X146410000Y-91950000D02*
X145800000Y-91950000D01*
X146410000Y-94060000D02*
X146410000Y-89340000D01*
X115954724Y-82022500D02*
X115445276Y-82022500D01*
X115954724Y-80977500D02*
X115445276Y-80977500D01*
X115954724Y-83722500D02*
X115445276Y-83722500D01*
X115954724Y-82677500D02*
X115445276Y-82677500D01*
X120850000Y-57275000D02*
X120850000Y-56025000D01*
X120560000Y-56985000D02*
X120560000Y-51015000D01*
X120560000Y-51015000D02*
X112940000Y-51015000D01*
X120550000Y-56975000D02*
X120550000Y-56225000D01*
X120550000Y-56225000D02*
X118750000Y-56225000D01*
X120550000Y-54725000D02*
X119800000Y-54725000D01*
X119800000Y-54725000D02*
X119800000Y-51775000D01*
X119800000Y-51775000D02*
X116750000Y-51775000D01*
X119600000Y-57275000D02*
X120850000Y-57275000D01*
X118750000Y-56975000D02*
X120550000Y-56975000D01*
X118750000Y-56225000D02*
X118750000Y-56975000D01*
X117250000Y-56975000D02*
X117250000Y-56225000D01*
X117250000Y-56225000D02*
X116250000Y-56225000D01*
X116250000Y-56975000D02*
X117250000Y-56975000D01*
X116250000Y-56225000D02*
X116250000Y-56975000D01*
X114750000Y-56975000D02*
X114750000Y-56225000D01*
X114750000Y-56225000D02*
X112950000Y-56225000D01*
X113700000Y-54725000D02*
X113700000Y-51775000D01*
X113700000Y-51775000D02*
X116750000Y-51775000D01*
X112950000Y-56975000D02*
X114750000Y-56975000D01*
X112950000Y-56225000D02*
X112950000Y-56975000D01*
X112950000Y-54725000D02*
X113700000Y-54725000D01*
X112940000Y-56985000D02*
X120560000Y-56985000D01*
X112940000Y-51015000D02*
X112940000Y-56985000D01*
X138590000Y-72211252D02*
X138590000Y-70788748D01*
X140410000Y-72211252D02*
X140410000Y-70788748D01*
X138024000Y-70788748D02*
X138024000Y-72211252D01*
X136204000Y-70788748D02*
X136204000Y-72211252D01*
X138010000Y-80188748D02*
X138010000Y-81611252D01*
X136190000Y-80188748D02*
X136190000Y-81611252D01*
D11*
X143500000Y-65450000D02*
X143500000Y-56850000D01*
X148100000Y-65450000D02*
X148100000Y-63250000D01*
D13*
X148100000Y-63250000D02*
X151990000Y-63250000D01*
X151990000Y-63250000D02*
X151990000Y-61060000D01*
D11*
X148100000Y-61060000D02*
X148100000Y-56850000D01*
D13*
X151990000Y-61060000D02*
X148100000Y-61060000D01*
D10*
X132040000Y-96580000D02*
X134200000Y-96580000D01*
X132040000Y-96580000D02*
X132040000Y-95650000D01*
X132040000Y-93420000D02*
X133500000Y-93420000D01*
X132040000Y-93420000D02*
X132040000Y-94350000D01*
X135113700Y-95250924D02*
X135113700Y-94741476D01*
X136158700Y-95250924D02*
X136158700Y-94741476D01*
X115954724Y-78772500D02*
X115445276Y-78772500D01*
X115954724Y-77727500D02*
X115445276Y-77727500D01*
X116004724Y-85672500D02*
X115495276Y-85672500D01*
X116004724Y-84627500D02*
X115495276Y-84627500D01*
X115954724Y-80372500D02*
X115445276Y-80372500D01*
X115954724Y-79327500D02*
X115445276Y-79327500D01*
X116004724Y-87272500D02*
X115495276Y-87272500D01*
X116004724Y-86227500D02*
X115495276Y-86227500D01*
X129762742Y-71777500D02*
X130237258Y-71777500D01*
X129762742Y-72822500D02*
X130237258Y-72822500D01*
X130237258Y-71322500D02*
X129762742Y-71322500D01*
X130237258Y-70277500D02*
X129762742Y-70277500D01*
X140410000Y-80188748D02*
X140410000Y-81611252D01*
X138590000Y-80188748D02*
X138590000Y-81611252D01*
X144590000Y-66990000D02*
X142090000Y-66990000D01*
X142090000Y-66990000D02*
X142090000Y-69490000D01*
X146410000Y-67290000D02*
X142390000Y-67290000D01*
X144700000Y-67290000D02*
X144700000Y-67790000D01*
X143890000Y-67290000D02*
X143890000Y-68290000D01*
X142390000Y-67290000D02*
X142390000Y-77510000D01*
X145910000Y-67790000D02*
X145910000Y-77010000D01*
X144700000Y-67790000D02*
X145910000Y-67790000D01*
X143890000Y-68290000D02*
X142390000Y-68290000D01*
X143890000Y-76510000D02*
X142390000Y-76510000D01*
X145910000Y-77010000D02*
X144700000Y-77010000D01*
X144700000Y-77010000D02*
X144700000Y-77510000D01*
X146410000Y-77510000D02*
X146410000Y-67290000D01*
X143890000Y-77510000D02*
X143890000Y-76510000D01*
X142390000Y-77510000D02*
X146410000Y-77510000D01*
X116487258Y-66272500D02*
X116012742Y-66272500D01*
X116487258Y-65227500D02*
X116012742Y-65227500D01*
X144590000Y-77990000D02*
X142090000Y-77990000D01*
X142090000Y-77990000D02*
X142090000Y-80490000D01*
X146410000Y-78290000D02*
X142390000Y-78290000D01*
X144700000Y-78290000D02*
X144700000Y-78790000D01*
X143890000Y-78290000D02*
X143890000Y-79290000D01*
X142390000Y-78290000D02*
X142390000Y-88510000D01*
X145910000Y-78790000D02*
X145910000Y-88010000D01*
X144700000Y-78790000D02*
X145910000Y-78790000D01*
X143890000Y-79290000D02*
X142390000Y-79290000D01*
X143890000Y-87510000D02*
X142390000Y-87510000D01*
X145910000Y-88010000D02*
X144700000Y-88010000D01*
X144700000Y-88010000D02*
X144700000Y-88510000D01*
X146410000Y-88510000D02*
X146410000Y-78290000D01*
X143890000Y-88510000D02*
X143890000Y-87510000D01*
X142390000Y-88510000D02*
X146410000Y-88510000D01*
X130227258Y-66122500D02*
X129752742Y-66122500D01*
X130227258Y-65077500D02*
X129752742Y-65077500D01*
X129859420Y-63490000D02*
X130140580Y-63490000D01*
X129859420Y-64510000D02*
X130140580Y-64510000D01*
X103600000Y-55890000D02*
X103600000Y-56460000D01*
X103600000Y-55890000D02*
X108800000Y-55890000D01*
X103600000Y-57980000D02*
X103600000Y-59000000D01*
X103600000Y-60520000D02*
X103600000Y-61540000D01*
X103600000Y-63060000D02*
X103600000Y-64080000D01*
X103600000Y-65600000D02*
X103600000Y-66620000D01*
X103600000Y-68140000D02*
X103600000Y-69160000D01*
X103600000Y-70680000D02*
X103600000Y-71700000D01*
X103600000Y-73220000D02*
X103600000Y-74240000D01*
X103600000Y-75760000D02*
X103600000Y-76780000D01*
X103600000Y-78300000D02*
X103600000Y-79320000D01*
X103600000Y-80840000D02*
X103600000Y-81860000D01*
X103600000Y-83380000D02*
X103600000Y-84400000D01*
X103600000Y-85920000D02*
X103600000Y-86940000D01*
X103600000Y-88460000D02*
X103600000Y-89480000D01*
X103600000Y-91000000D02*
X103600000Y-92020000D01*
X103600000Y-93540000D02*
X103600000Y-94110000D01*
X103600000Y-94110000D02*
X108800000Y-94110000D01*
X108800000Y-55890000D02*
X108800000Y-56460000D01*
X108800000Y-56460000D02*
X110160000Y-56460000D01*
X108800000Y-57980000D02*
X108800000Y-59000000D01*
X108800000Y-60520000D02*
X108800000Y-61540000D01*
X108800000Y-63060000D02*
X108800000Y-64080000D01*
X108800000Y-65600000D02*
X108800000Y-66620000D01*
X108800000Y-68140000D02*
X108800000Y-69160000D01*
X108800000Y-70680000D02*
X108800000Y-71700000D01*
X108800000Y-73220000D02*
X108800000Y-74240000D01*
X108800000Y-75760000D02*
X108800000Y-76780000D01*
X108800000Y-78300000D02*
X108800000Y-79320000D01*
X108800000Y-80840000D02*
X108800000Y-81860000D01*
X108800000Y-83380000D02*
X108800000Y-84400000D01*
X108800000Y-85920000D02*
X108800000Y-86940000D01*
X108800000Y-88460000D02*
X108800000Y-89480000D01*
X108800000Y-91000000D02*
X108800000Y-92020000D01*
X108800000Y-93540000D02*
X108800000Y-94110000D01*
X127900000Y-54900000D02*
X127900000Y-51600000D01*
X127900000Y-54900000D02*
X122500000Y-54900000D01*
X127900000Y-51600000D02*
X122500000Y-51600000D01*
X115800000Y-66740000D02*
X114125000Y-66740000D01*
X115800000Y-66740000D02*
X116450000Y-66740000D01*
X115800000Y-69860000D02*
X115150000Y-69860000D01*
X115800000Y-69860000D02*
X116450000Y-69860000D01*
X130237258Y-69322500D02*
X129762742Y-69322500D01*
X130237258Y-68277500D02*
X129762742Y-68277500D01*
X120540000Y-63390000D02*
X120540000Y-64135000D01*
X120540000Y-64135000D02*
X118850000Y-64135000D01*
X120540000Y-69810000D02*
X120540000Y-69065000D01*
X123300000Y-63390000D02*
X120540000Y-63390000D01*
X123300000Y-63390000D02*
X126060000Y-63390000D01*
X123300000Y-69810000D02*
X120540000Y-69810000D01*
X123300000Y-69810000D02*
X126060000Y-69810000D01*
X126060000Y-63390000D02*
X126060000Y-64135000D01*
X126060000Y-69810000D02*
X126060000Y-69065000D01*
X116477500Y-71837258D02*
X116477500Y-71362742D01*
X117522500Y-71837258D02*
X117522500Y-71362742D01*
X130237258Y-67662500D02*
X129762742Y-67662500D01*
X130237258Y-66617500D02*
X129762742Y-66617500D01*
X115972500Y-71362742D02*
X115972500Y-71837258D01*
X114927500Y-71362742D02*
X114927500Y-71837258D01*
X135470000Y-66504000D02*
X138190000Y-66504000D01*
X135470000Y-66504000D02*
X135470000Y-61524000D01*
X138190000Y-66504000D02*
X138190000Y-61524000D01*
%LPC*%
D14*
X107300000Y-96850000D03*
D15*
X103150000Y-96850000D03*
D14*
X142700000Y-96850000D03*
D15*
X146850000Y-96850000D03*
D14*
X142700000Y-53150000D03*
D15*
X146850000Y-53150000D03*
D14*
X107300000Y-53150000D03*
D15*
X103150000Y-53150000D03*
G36*
G01*
X137251000Y-54375000D02*
X137251000Y-55625000D01*
G75*
G02*
X136950000Y-55926000I-301000J0D01*
G01*
X136250000Y-55926000D01*
G75*
G02*
X135949000Y-55625000I0J301000D01*
G01*
X135949000Y-54375000D01*
G75*
G02*
X136250000Y-54074000I301000J0D01*
G01*
X136950000Y-54074000D01*
G75*
G02*
X137251000Y-54375000I0J-301000D01*
G01*
G37*
D16*
X134600000Y-55000000D03*
X132600000Y-55000000D03*
X130600000Y-55000000D03*
G36*
G01*
X141699000Y-91775000D02*
X141699000Y-90525000D01*
G75*
G02*
X142000000Y-90224000I301000J0D01*
G01*
X142700000Y-90224000D01*
G75*
G02*
X143001000Y-90525000I0J-301000D01*
G01*
X143001000Y-91775000D01*
G75*
G02*
X142700000Y-92076000I-301000J0D01*
G01*
X142000000Y-92076000D01*
G75*
G02*
X141699000Y-91775000I0J301000D01*
G01*
G37*
X144350000Y-91150000D03*
G36*
G01*
X117151000Y-81262500D02*
X117151000Y-81737500D01*
G75*
G02*
X116862500Y-82026000I-288500J0D01*
G01*
X116362500Y-82026000D01*
G75*
G02*
X116074000Y-81737500I0J288500D01*
G01*
X116074000Y-81262500D01*
G75*
G02*
X116362500Y-80974000I288500J0D01*
G01*
X116862500Y-80974000D01*
G75*
G02*
X117151000Y-81262500I0J-288500D01*
G01*
G37*
G36*
G01*
X115326000Y-81262500D02*
X115326000Y-81737500D01*
G75*
G02*
X115037500Y-82026000I-288500J0D01*
G01*
X114537500Y-82026000D01*
G75*
G02*
X114249000Y-81737500I0J288500D01*
G01*
X114249000Y-81262500D01*
G75*
G02*
X114537500Y-80974000I288500J0D01*
G01*
X115037500Y-80974000D01*
G75*
G02*
X115326000Y-81262500I0J-288500D01*
G01*
G37*
G36*
G01*
X117151000Y-82962500D02*
X117151000Y-83437500D01*
G75*
G02*
X116862500Y-83726000I-288500J0D01*
G01*
X116362500Y-83726000D01*
G75*
G02*
X116074000Y-83437500I0J288500D01*
G01*
X116074000Y-82962500D01*
G75*
G02*
X116362500Y-82674000I288500J0D01*
G01*
X116862500Y-82674000D01*
G75*
G02*
X117151000Y-82962500I0J-288500D01*
G01*
G37*
G36*
G01*
X115326000Y-82962500D02*
X115326000Y-83437500D01*
G75*
G02*
X115037500Y-83726000I-288500J0D01*
G01*
X114537500Y-83726000D01*
G75*
G02*
X114249000Y-83437500I0J288500D01*
G01*
X114249000Y-82962500D01*
G75*
G02*
X114537500Y-82674000I288500J0D01*
G01*
X115037500Y-82674000D01*
G75*
G02*
X115326000Y-82962500I0J-288500D01*
G01*
G37*
G36*
G01*
X118901000Y-53775000D02*
X118901000Y-55275000D01*
G75*
G02*
X118600000Y-55576000I-301000J0D01*
G01*
X117400000Y-55576000D01*
G75*
G02*
X117099000Y-55275000I0J301000D01*
G01*
X117099000Y-53775000D01*
G75*
G02*
X117400000Y-53474000I301000J0D01*
G01*
X118600000Y-53474000D01*
G75*
G02*
X118901000Y-53775000I0J-301000D01*
G01*
G37*
D17*
X115500000Y-54525000D03*
G36*
G01*
X140150000Y-73776000D02*
X138850000Y-73776000D01*
G75*
G02*
X138549000Y-73475000I0J301000D01*
G01*
X138549000Y-72650000D01*
G75*
G02*
X138850000Y-72349000I301000J0D01*
G01*
X140150000Y-72349000D01*
G75*
G02*
X140451000Y-72650000I0J-301000D01*
G01*
X140451000Y-73475000D01*
G75*
G02*
X140150000Y-73776000I-301000J0D01*
G01*
G37*
G36*
G01*
X140150000Y-70651000D02*
X138850000Y-70651000D01*
G75*
G02*
X138549000Y-70350000I0J301000D01*
G01*
X138549000Y-69525000D01*
G75*
G02*
X138850000Y-69224000I301000J0D01*
G01*
X140150000Y-69224000D01*
G75*
G02*
X140451000Y-69525000I0J-301000D01*
G01*
X140451000Y-70350000D01*
G75*
G02*
X140150000Y-70651000I-301000J0D01*
G01*
G37*
G36*
G01*
X136464000Y-69224000D02*
X137764000Y-69224000D01*
G75*
G02*
X138065000Y-69525000I0J-301000D01*
G01*
X138065000Y-70350000D01*
G75*
G02*
X137764000Y-70651000I-301000J0D01*
G01*
X136464000Y-70651000D01*
G75*
G02*
X136163000Y-70350000I0J301000D01*
G01*
X136163000Y-69525000D01*
G75*
G02*
X136464000Y-69224000I301000J0D01*
G01*
G37*
G36*
G01*
X136464000Y-72349000D02*
X137764000Y-72349000D01*
G75*
G02*
X138065000Y-72650000I0J-301000D01*
G01*
X138065000Y-73475000D01*
G75*
G02*
X137764000Y-73776000I-301000J0D01*
G01*
X136464000Y-73776000D01*
G75*
G02*
X136163000Y-73475000I0J301000D01*
G01*
X136163000Y-72650000D01*
G75*
G02*
X136464000Y-72349000I301000J0D01*
G01*
G37*
G36*
G01*
X136450000Y-78624000D02*
X137750000Y-78624000D01*
G75*
G02*
X138051000Y-78925000I0J-301000D01*
G01*
X138051000Y-79750000D01*
G75*
G02*
X137750000Y-80051000I-301000J0D01*
G01*
X136450000Y-80051000D01*
G75*
G02*
X136149000Y-79750000I0J301000D01*
G01*
X136149000Y-78925000D01*
G75*
G02*
X136450000Y-78624000I301000J0D01*
G01*
G37*
G36*
G01*
X136450000Y-81749000D02*
X137750000Y-81749000D01*
G75*
G02*
X138051000Y-82050000I0J-301000D01*
G01*
X138051000Y-82875000D01*
G75*
G02*
X137750000Y-83176000I-301000J0D01*
G01*
X136450000Y-83176000D01*
G75*
G02*
X136149000Y-82875000I0J301000D01*
G01*
X136149000Y-82050000D01*
G75*
G02*
X136450000Y-81749000I301000J0D01*
G01*
G37*
D18*
X145800000Y-65250000D03*
X145800000Y-57050000D03*
G36*
G01*
X147050000Y-63951000D02*
X144550000Y-63951000D01*
G75*
G02*
X144499000Y-63900000I0J51000D01*
G01*
X144499000Y-62400000D01*
G75*
G02*
X144550000Y-62349000I51000J0D01*
G01*
X147050000Y-62349000D01*
G75*
G02*
X147101000Y-62400000I0J-51000D01*
G01*
X147101000Y-63900000D01*
G75*
G02*
X147050000Y-63951000I-51000J0D01*
G01*
G37*
D19*
X145800000Y-61150000D03*
X145800000Y-59150000D03*
G36*
G01*
X134301000Y-95550000D02*
X134301000Y-96350000D01*
G75*
G02*
X134250000Y-96401000I-51000J0D01*
G01*
X133350000Y-96401000D01*
G75*
G02*
X133299000Y-96350000I0J51000D01*
G01*
X133299000Y-95550000D01*
G75*
G02*
X133350000Y-95499000I51000J0D01*
G01*
X134250000Y-95499000D01*
G75*
G02*
X134301000Y-95550000I0J-51000D01*
G01*
G37*
G36*
G01*
X134301000Y-93650000D02*
X134301000Y-94450000D01*
G75*
G02*
X134250000Y-94501000I-51000J0D01*
G01*
X133350000Y-94501000D01*
G75*
G02*
X133299000Y-94450000I0J51000D01*
G01*
X133299000Y-93650000D01*
G75*
G02*
X133350000Y-93599000I51000J0D01*
G01*
X134250000Y-93599000D01*
G75*
G02*
X134301000Y-93650000I0J-51000D01*
G01*
G37*
G36*
G01*
X132301000Y-94600000D02*
X132301000Y-95400000D01*
G75*
G02*
X132250000Y-95451000I-51000J0D01*
G01*
X131350000Y-95451000D01*
G75*
G02*
X131299000Y-95400000I0J51000D01*
G01*
X131299000Y-94600000D01*
G75*
G02*
X131350000Y-94549000I51000J0D01*
G01*
X132250000Y-94549000D01*
G75*
G02*
X132301000Y-94600000I0J-51000D01*
G01*
G37*
G36*
G01*
X135873700Y-96447200D02*
X135398700Y-96447200D01*
G75*
G02*
X135110200Y-96158700I0J288500D01*
G01*
X135110200Y-95658700D01*
G75*
G02*
X135398700Y-95370200I288500J0D01*
G01*
X135873700Y-95370200D01*
G75*
G02*
X136162200Y-95658700I0J-288500D01*
G01*
X136162200Y-96158700D01*
G75*
G02*
X135873700Y-96447200I-288500J0D01*
G01*
G37*
G36*
G01*
X135873700Y-94622200D02*
X135398700Y-94622200D01*
G75*
G02*
X135110200Y-94333700I0J288500D01*
G01*
X135110200Y-93833700D01*
G75*
G02*
X135398700Y-93545200I288500J0D01*
G01*
X135873700Y-93545200D01*
G75*
G02*
X136162200Y-93833700I0J-288500D01*
G01*
X136162200Y-94333700D01*
G75*
G02*
X135873700Y-94622200I-288500J0D01*
G01*
G37*
G36*
G01*
X117151000Y-78012500D02*
X117151000Y-78487500D01*
G75*
G02*
X116862500Y-78776000I-288500J0D01*
G01*
X116362500Y-78776000D01*
G75*
G02*
X116074000Y-78487500I0J288500D01*
G01*
X116074000Y-78012500D01*
G75*
G02*
X116362500Y-77724000I288500J0D01*
G01*
X116862500Y-77724000D01*
G75*
G02*
X117151000Y-78012500I0J-288500D01*
G01*
G37*
G36*
G01*
X115326000Y-78012500D02*
X115326000Y-78487500D01*
G75*
G02*
X115037500Y-78776000I-288500J0D01*
G01*
X114537500Y-78776000D01*
G75*
G02*
X114249000Y-78487500I0J288500D01*
G01*
X114249000Y-78012500D01*
G75*
G02*
X114537500Y-77724000I288500J0D01*
G01*
X115037500Y-77724000D01*
G75*
G02*
X115326000Y-78012500I0J-288500D01*
G01*
G37*
G36*
G01*
X117201000Y-84912500D02*
X117201000Y-85387500D01*
G75*
G02*
X116912500Y-85676000I-288500J0D01*
G01*
X116412500Y-85676000D01*
G75*
G02*
X116124000Y-85387500I0J288500D01*
G01*
X116124000Y-84912500D01*
G75*
G02*
X116412500Y-84624000I288500J0D01*
G01*
X116912500Y-84624000D01*
G75*
G02*
X117201000Y-84912500I0J-288500D01*
G01*
G37*
G36*
G01*
X115376000Y-84912500D02*
X115376000Y-85387500D01*
G75*
G02*
X115087500Y-85676000I-288500J0D01*
G01*
X114587500Y-85676000D01*
G75*
G02*
X114299000Y-85387500I0J288500D01*
G01*
X114299000Y-84912500D01*
G75*
G02*
X114587500Y-84624000I288500J0D01*
G01*
X115087500Y-84624000D01*
G75*
G02*
X115376000Y-84912500I0J-288500D01*
G01*
G37*
G36*
G01*
X117151000Y-79612500D02*
X117151000Y-80087500D01*
G75*
G02*
X116862500Y-80376000I-288500J0D01*
G01*
X116362500Y-80376000D01*
G75*
G02*
X116074000Y-80087500I0J288500D01*
G01*
X116074000Y-79612500D01*
G75*
G02*
X116362500Y-79324000I288500J0D01*
G01*
X116862500Y-79324000D01*
G75*
G02*
X117151000Y-79612500I0J-288500D01*
G01*
G37*
G36*
G01*
X115326000Y-79612500D02*
X115326000Y-80087500D01*
G75*
G02*
X115037500Y-80376000I-288500J0D01*
G01*
X114537500Y-80376000D01*
G75*
G02*
X114249000Y-80087500I0J288500D01*
G01*
X114249000Y-79612500D01*
G75*
G02*
X114537500Y-79324000I288500J0D01*
G01*
X115037500Y-79324000D01*
G75*
G02*
X115326000Y-79612500I0J-288500D01*
G01*
G37*
G36*
G01*
X117201000Y-86512500D02*
X117201000Y-86987500D01*
G75*
G02*
X116912500Y-87276000I-288500J0D01*
G01*
X116412500Y-87276000D01*
G75*
G02*
X116124000Y-86987500I0J288500D01*
G01*
X116124000Y-86512500D01*
G75*
G02*
X116412500Y-86224000I288500J0D01*
G01*
X116912500Y-86224000D01*
G75*
G02*
X117201000Y-86512500I0J-288500D01*
G01*
G37*
G36*
G01*
X115376000Y-86512500D02*
X115376000Y-86987500D01*
G75*
G02*
X115087500Y-87276000I-288500J0D01*
G01*
X114587500Y-87276000D01*
G75*
G02*
X114299000Y-86987500I0J288500D01*
G01*
X114299000Y-86512500D01*
G75*
G02*
X114587500Y-86224000I288500J0D01*
G01*
X115087500Y-86224000D01*
G75*
G02*
X115376000Y-86512500I0J-288500D01*
G01*
G37*
G36*
G01*
X128724000Y-72575000D02*
X128724000Y-72025000D01*
G75*
G02*
X128975000Y-71774000I251000J0D01*
G01*
X129375000Y-71774000D01*
G75*
G02*
X129626000Y-72025000I0J-251000D01*
G01*
X129626000Y-72575000D01*
G75*
G02*
X129375000Y-72826000I-251000J0D01*
G01*
X128975000Y-72826000D01*
G75*
G02*
X128724000Y-72575000I0J251000D01*
G01*
G37*
G36*
G01*
X130374000Y-72575000D02*
X130374000Y-72025000D01*
G75*
G02*
X130625000Y-71774000I251000J0D01*
G01*
X131025000Y-71774000D01*
G75*
G02*
X131276000Y-72025000I0J-251000D01*
G01*
X131276000Y-72575000D01*
G75*
G02*
X131025000Y-72826000I-251000J0D01*
G01*
X130625000Y-72826000D01*
G75*
G02*
X130374000Y-72575000I0J251000D01*
G01*
G37*
G36*
G01*
X131276000Y-70525000D02*
X131276000Y-71075000D01*
G75*
G02*
X131025000Y-71326000I-251000J0D01*
G01*
X130625000Y-71326000D01*
G75*
G02*
X130374000Y-71075000I0J251000D01*
G01*
X130374000Y-70525000D01*
G75*
G02*
X130625000Y-70274000I251000J0D01*
G01*
X131025000Y-70274000D01*
G75*
G02*
X131276000Y-70525000I0J-251000D01*
G01*
G37*
G36*
G01*
X129626000Y-70525000D02*
X129626000Y-71075000D01*
G75*
G02*
X129375000Y-71326000I-251000J0D01*
G01*
X128975000Y-71326000D01*
G75*
G02*
X128724000Y-71075000I0J251000D01*
G01*
X128724000Y-70525000D01*
G75*
G02*
X128975000Y-70274000I251000J0D01*
G01*
X129375000Y-70274000D01*
G75*
G02*
X129626000Y-70525000I0J-251000D01*
G01*
G37*
G36*
G01*
X138850000Y-78624000D02*
X140150000Y-78624000D01*
G75*
G02*
X140451000Y-78925000I0J-301000D01*
G01*
X140451000Y-79750000D01*
G75*
G02*
X140150000Y-80051000I-301000J0D01*
G01*
X138850000Y-80051000D01*
G75*
G02*
X138549000Y-79750000I0J301000D01*
G01*
X138549000Y-78925000D01*
G75*
G02*
X138850000Y-78624000I301000J0D01*
G01*
G37*
G36*
G01*
X138850000Y-81749000D02*
X140150000Y-81749000D01*
G75*
G02*
X140451000Y-82050000I0J-301000D01*
G01*
X140451000Y-82875000D01*
G75*
G02*
X140150000Y-83176000I-301000J0D01*
G01*
X138850000Y-83176000D01*
G75*
G02*
X138549000Y-82875000I0J301000D01*
G01*
X138549000Y-82050000D01*
G75*
G02*
X138850000Y-81749000I301000J0D01*
G01*
G37*
G36*
G01*
X143975000Y-68999000D02*
X145425000Y-68999000D01*
G75*
G02*
X145726000Y-69300000I0J-301000D01*
G01*
X145726000Y-70500000D01*
G75*
G02*
X145425000Y-70801000I-301000J0D01*
G01*
X143975000Y-70801000D01*
G75*
G02*
X143674000Y-70500000I0J301000D01*
G01*
X143674000Y-69300000D01*
G75*
G02*
X143975000Y-68999000I301000J0D01*
G01*
G37*
D20*
X144700000Y-72400000D03*
X144700000Y-74900000D03*
G36*
G01*
X117526000Y-65475000D02*
X117526000Y-66025000D01*
G75*
G02*
X117275000Y-66276000I-251000J0D01*
G01*
X116875000Y-66276000D01*
G75*
G02*
X116624000Y-66025000I0J251000D01*
G01*
X116624000Y-65475000D01*
G75*
G02*
X116875000Y-65224000I251000J0D01*
G01*
X117275000Y-65224000D01*
G75*
G02*
X117526000Y-65475000I0J-251000D01*
G01*
G37*
G36*
G01*
X115876000Y-65475000D02*
X115876000Y-66025000D01*
G75*
G02*
X115625000Y-66276000I-251000J0D01*
G01*
X115225000Y-66276000D01*
G75*
G02*
X114974000Y-66025000I0J251000D01*
G01*
X114974000Y-65475000D01*
G75*
G02*
X115225000Y-65224000I251000J0D01*
G01*
X115625000Y-65224000D01*
G75*
G02*
X115876000Y-65475000I0J-251000D01*
G01*
G37*
G36*
G01*
X143975000Y-79999000D02*
X145425000Y-79999000D01*
G75*
G02*
X145726000Y-80300000I0J-301000D01*
G01*
X145726000Y-81500000D01*
G75*
G02*
X145425000Y-81801000I-301000J0D01*
G01*
X143975000Y-81801000D01*
G75*
G02*
X143674000Y-81500000I0J301000D01*
G01*
X143674000Y-80300000D01*
G75*
G02*
X143975000Y-79999000I301000J0D01*
G01*
G37*
X144700000Y-83400000D03*
X144700000Y-85900000D03*
G36*
G01*
X131266000Y-65325000D02*
X131266000Y-65875000D01*
G75*
G02*
X131015000Y-66126000I-251000J0D01*
G01*
X130615000Y-66126000D01*
G75*
G02*
X130364000Y-65875000I0J251000D01*
G01*
X130364000Y-65325000D01*
G75*
G02*
X130615000Y-65074000I251000J0D01*
G01*
X131015000Y-65074000D01*
G75*
G02*
X131266000Y-65325000I0J-251000D01*
G01*
G37*
G36*
G01*
X129616000Y-65325000D02*
X129616000Y-65875000D01*
G75*
G02*
X129365000Y-66126000I-251000J0D01*
G01*
X128965000Y-66126000D01*
G75*
G02*
X128714000Y-65875000I0J251000D01*
G01*
X128714000Y-65325000D01*
G75*
G02*
X128965000Y-65074000I251000J0D01*
G01*
X129365000Y-65074000D01*
G75*
G02*
X129616000Y-65325000I0J-251000D01*
G01*
G37*
G36*
G01*
X128724000Y-64250000D02*
X128724000Y-63750000D01*
G75*
G02*
X129000000Y-63474000I276000J0D01*
G01*
X129450000Y-63474000D01*
G75*
G02*
X129726000Y-63750000I0J-276000D01*
G01*
X129726000Y-64250000D01*
G75*
G02*
X129450000Y-64526000I-276000J0D01*
G01*
X129000000Y-64526000D01*
G75*
G02*
X128724000Y-64250000I0J276000D01*
G01*
G37*
G36*
G01*
X130274000Y-64250000D02*
X130274000Y-63750000D01*
G75*
G02*
X130550000Y-63474000I276000J0D01*
G01*
X131000000Y-63474000D01*
G75*
G02*
X131276000Y-63750000I0J-276000D01*
G01*
X131276000Y-64250000D01*
G75*
G02*
X131000000Y-64526000I-276000J0D01*
G01*
X130550000Y-64526000D01*
G75*
G02*
X130274000Y-64250000I0J276000D01*
G01*
G37*
G36*
G01*
X107169000Y-57720000D02*
X107169000Y-56720000D01*
G75*
G02*
X107220000Y-56669000I51000J0D01*
G01*
X110220000Y-56669000D01*
G75*
G02*
X110271000Y-56720000I0J-51000D01*
G01*
X110271000Y-57720000D01*
G75*
G02*
X110220000Y-57771000I-51000J0D01*
G01*
X107220000Y-57771000D01*
G75*
G02*
X107169000Y-57720000I0J51000D01*
G01*
G37*
G36*
G01*
X102129000Y-57720000D02*
X102129000Y-56720000D01*
G75*
G02*
X102180000Y-56669000I51000J0D01*
G01*
X105180000Y-56669000D01*
G75*
G02*
X105231000Y-56720000I0J-51000D01*
G01*
X105231000Y-57720000D01*
G75*
G02*
X105180000Y-57771000I-51000J0D01*
G01*
X102180000Y-57771000D01*
G75*
G02*
X102129000Y-57720000I0J51000D01*
G01*
G37*
G36*
G01*
X107169000Y-60260000D02*
X107169000Y-59260000D01*
G75*
G02*
X107220000Y-59209000I51000J0D01*
G01*
X110220000Y-59209000D01*
G75*
G02*
X110271000Y-59260000I0J-51000D01*
G01*
X110271000Y-60260000D01*
G75*
G02*
X110220000Y-60311000I-51000J0D01*
G01*
X107220000Y-60311000D01*
G75*
G02*
X107169000Y-60260000I0J51000D01*
G01*
G37*
G36*
G01*
X102129000Y-60260000D02*
X102129000Y-59260000D01*
G75*
G02*
X102180000Y-59209000I51000J0D01*
G01*
X105180000Y-59209000D01*
G75*
G02*
X105231000Y-59260000I0J-51000D01*
G01*
X105231000Y-60260000D01*
G75*
G02*
X105180000Y-60311000I-51000J0D01*
G01*
X102180000Y-60311000D01*
G75*
G02*
X102129000Y-60260000I0J51000D01*
G01*
G37*
G36*
G01*
X107169000Y-62800000D02*
X107169000Y-61800000D01*
G75*
G02*
X107220000Y-61749000I51000J0D01*
G01*
X110220000Y-61749000D01*
G75*
G02*
X110271000Y-61800000I0J-51000D01*
G01*
X110271000Y-62800000D01*
G75*
G02*
X110220000Y-62851000I-51000J0D01*
G01*
X107220000Y-62851000D01*
G75*
G02*
X107169000Y-62800000I0J51000D01*
G01*
G37*
G36*
G01*
X102129000Y-62800000D02*
X102129000Y-61800000D01*
G75*
G02*
X102180000Y-61749000I51000J0D01*
G01*
X105180000Y-61749000D01*
G75*
G02*
X105231000Y-61800000I0J-51000D01*
G01*
X105231000Y-62800000D01*
G75*
G02*
X105180000Y-62851000I-51000J0D01*
G01*
X102180000Y-62851000D01*
G75*
G02*
X102129000Y-62800000I0J51000D01*
G01*
G37*
G36*
G01*
X107169000Y-65340000D02*
X107169000Y-64340000D01*
G75*
G02*
X107220000Y-64289000I51000J0D01*
G01*
X110220000Y-64289000D01*
G75*
G02*
X110271000Y-64340000I0J-51000D01*
G01*
X110271000Y-65340000D01*
G75*
G02*
X110220000Y-65391000I-51000J0D01*
G01*
X107220000Y-65391000D01*
G75*
G02*
X107169000Y-65340000I0J51000D01*
G01*
G37*
G36*
G01*
X102129000Y-65340000D02*
X102129000Y-64340000D01*
G75*
G02*
X102180000Y-64289000I51000J0D01*
G01*
X105180000Y-64289000D01*
G75*
G02*
X105231000Y-64340000I0J-51000D01*
G01*
X105231000Y-65340000D01*
G75*
G02*
X105180000Y-65391000I-51000J0D01*
G01*
X102180000Y-65391000D01*
G75*
G02*
X102129000Y-65340000I0J51000D01*
G01*
G37*
G36*
G01*
X107169000Y-67880000D02*
X107169000Y-66880000D01*
G75*
G02*
X107220000Y-66829000I51000J0D01*
G01*
X110220000Y-66829000D01*
G75*
G02*
X110271000Y-66880000I0J-51000D01*
G01*
X110271000Y-67880000D01*
G75*
G02*
X110220000Y-67931000I-51000J0D01*
G01*
X107220000Y-67931000D01*
G75*
G02*
X107169000Y-67880000I0J51000D01*
G01*
G37*
G36*
G01*
X102129000Y-67880000D02*
X102129000Y-66880000D01*
G75*
G02*
X102180000Y-66829000I51000J0D01*
G01*
X105180000Y-66829000D01*
G75*
G02*
X105231000Y-66880000I0J-51000D01*
G01*
X105231000Y-67880000D01*
G75*
G02*
X105180000Y-67931000I-51000J0D01*
G01*
X102180000Y-67931000D01*
G75*
G02*
X102129000Y-67880000I0J51000D01*
G01*
G37*
G36*
G01*
X107169000Y-70420000D02*
X107169000Y-69420000D01*
G75*
G02*
X107220000Y-69369000I51000J0D01*
G01*
X110220000Y-69369000D01*
G75*
G02*
X110271000Y-69420000I0J-51000D01*
G01*
X110271000Y-70420000D01*
G75*
G02*
X110220000Y-70471000I-51000J0D01*
G01*
X107220000Y-70471000D01*
G75*
G02*
X107169000Y-70420000I0J51000D01*
G01*
G37*
G36*
G01*
X102129000Y-70420000D02*
X102129000Y-69420000D01*
G75*
G02*
X102180000Y-69369000I51000J0D01*
G01*
X105180000Y-69369000D01*
G75*
G02*
X105231000Y-69420000I0J-51000D01*
G01*
X105231000Y-70420000D01*
G75*
G02*
X105180000Y-70471000I-51000J0D01*
G01*
X102180000Y-70471000D01*
G75*
G02*
X102129000Y-70420000I0J51000D01*
G01*
G37*
G36*
G01*
X107169000Y-72960000D02*
X107169000Y-71960000D01*
G75*
G02*
X107220000Y-71909000I51000J0D01*
G01*
X110220000Y-71909000D01*
G75*
G02*
X110271000Y-71960000I0J-51000D01*
G01*
X110271000Y-72960000D01*
G75*
G02*
X110220000Y-73011000I-51000J0D01*
G01*
X107220000Y-73011000D01*
G75*
G02*
X107169000Y-72960000I0J51000D01*
G01*
G37*
G36*
G01*
X102129000Y-72960000D02*
X102129000Y-71960000D01*
G75*
G02*
X102180000Y-71909000I51000J0D01*
G01*
X105180000Y-71909000D01*
G75*
G02*
X105231000Y-71960000I0J-51000D01*
G01*
X105231000Y-72960000D01*
G75*
G02*
X105180000Y-73011000I-51000J0D01*
G01*
X102180000Y-73011000D01*
G75*
G02*
X102129000Y-72960000I0J51000D01*
G01*
G37*
G36*
G01*
X107169000Y-75500000D02*
X107169000Y-74500000D01*
G75*
G02*
X107220000Y-74449000I51000J0D01*
G01*
X110220000Y-74449000D01*
G75*
G02*
X110271000Y-74500000I0J-51000D01*
G01*
X110271000Y-75500000D01*
G75*
G02*
X110220000Y-75551000I-51000J0D01*
G01*
X107220000Y-75551000D01*
G75*
G02*
X107169000Y-75500000I0J51000D01*
G01*
G37*
G36*
G01*
X102129000Y-75500000D02*
X102129000Y-74500000D01*
G75*
G02*
X102180000Y-74449000I51000J0D01*
G01*
X105180000Y-74449000D01*
G75*
G02*
X105231000Y-74500000I0J-51000D01*
G01*
X105231000Y-75500000D01*
G75*
G02*
X105180000Y-75551000I-51000J0D01*
G01*
X102180000Y-75551000D01*
G75*
G02*
X102129000Y-75500000I0J51000D01*
G01*
G37*
G36*
G01*
X107169000Y-78040000D02*
X107169000Y-77040000D01*
G75*
G02*
X107220000Y-76989000I51000J0D01*
G01*
X110220000Y-76989000D01*
G75*
G02*
X110271000Y-77040000I0J-51000D01*
G01*
X110271000Y-78040000D01*
G75*
G02*
X110220000Y-78091000I-51000J0D01*
G01*
X107220000Y-78091000D01*
G75*
G02*
X107169000Y-78040000I0J51000D01*
G01*
G37*
G36*
G01*
X102129000Y-78040000D02*
X102129000Y-77040000D01*
G75*
G02*
X102180000Y-76989000I51000J0D01*
G01*
X105180000Y-76989000D01*
G75*
G02*
X105231000Y-77040000I0J-51000D01*
G01*
X105231000Y-78040000D01*
G75*
G02*
X105180000Y-78091000I-51000J0D01*
G01*
X102180000Y-78091000D01*
G75*
G02*
X102129000Y-78040000I0J51000D01*
G01*
G37*
G36*
G01*
X107169000Y-80580000D02*
X107169000Y-79580000D01*
G75*
G02*
X107220000Y-79529000I51000J0D01*
G01*
X110220000Y-79529000D01*
G75*
G02*
X110271000Y-79580000I0J-51000D01*
G01*
X110271000Y-80580000D01*
G75*
G02*
X110220000Y-80631000I-51000J0D01*
G01*
X107220000Y-80631000D01*
G75*
G02*
X107169000Y-80580000I0J51000D01*
G01*
G37*
G36*
G01*
X102129000Y-80580000D02*
X102129000Y-79580000D01*
G75*
G02*
X102180000Y-79529000I51000J0D01*
G01*
X105180000Y-79529000D01*
G75*
G02*
X105231000Y-79580000I0J-51000D01*
G01*
X105231000Y-80580000D01*
G75*
G02*
X105180000Y-80631000I-51000J0D01*
G01*
X102180000Y-80631000D01*
G75*
G02*
X102129000Y-80580000I0J51000D01*
G01*
G37*
G36*
G01*
X107169000Y-83120000D02*
X107169000Y-82120000D01*
G75*
G02*
X107220000Y-82069000I51000J0D01*
G01*
X110220000Y-82069000D01*
G75*
G02*
X110271000Y-82120000I0J-51000D01*
G01*
X110271000Y-83120000D01*
G75*
G02*
X110220000Y-83171000I-51000J0D01*
G01*
X107220000Y-83171000D01*
G75*
G02*
X107169000Y-83120000I0J51000D01*
G01*
G37*
G36*
G01*
X102129000Y-83120000D02*
X102129000Y-82120000D01*
G75*
G02*
X102180000Y-82069000I51000J0D01*
G01*
X105180000Y-82069000D01*
G75*
G02*
X105231000Y-82120000I0J-51000D01*
G01*
X105231000Y-83120000D01*
G75*
G02*
X105180000Y-83171000I-51000J0D01*
G01*
X102180000Y-83171000D01*
G75*
G02*
X102129000Y-83120000I0J51000D01*
G01*
G37*
G36*
G01*
X107169000Y-85660000D02*
X107169000Y-84660000D01*
G75*
G02*
X107220000Y-84609000I51000J0D01*
G01*
X110220000Y-84609000D01*
G75*
G02*
X110271000Y-84660000I0J-51000D01*
G01*
X110271000Y-85660000D01*
G75*
G02*
X110220000Y-85711000I-51000J0D01*
G01*
X107220000Y-85711000D01*
G75*
G02*
X107169000Y-85660000I0J51000D01*
G01*
G37*
G36*
G01*
X102129000Y-85660000D02*
X102129000Y-84660000D01*
G75*
G02*
X102180000Y-84609000I51000J0D01*
G01*
X105180000Y-84609000D01*
G75*
G02*
X105231000Y-84660000I0J-51000D01*
G01*
X105231000Y-85660000D01*
G75*
G02*
X105180000Y-85711000I-51000J0D01*
G01*
X102180000Y-85711000D01*
G75*
G02*
X102129000Y-85660000I0J51000D01*
G01*
G37*
G36*
G01*
X107169000Y-88200000D02*
X107169000Y-87200000D01*
G75*
G02*
X107220000Y-87149000I51000J0D01*
G01*
X110220000Y-87149000D01*
G75*
G02*
X110271000Y-87200000I0J-51000D01*
G01*
X110271000Y-88200000D01*
G75*
G02*
X110220000Y-88251000I-51000J0D01*
G01*
X107220000Y-88251000D01*
G75*
G02*
X107169000Y-88200000I0J51000D01*
G01*
G37*
G36*
G01*
X102129000Y-88200000D02*
X102129000Y-87200000D01*
G75*
G02*
X102180000Y-87149000I51000J0D01*
G01*
X105180000Y-87149000D01*
G75*
G02*
X105231000Y-87200000I0J-51000D01*
G01*
X105231000Y-88200000D01*
G75*
G02*
X105180000Y-88251000I-51000J0D01*
G01*
X102180000Y-88251000D01*
G75*
G02*
X102129000Y-88200000I0J51000D01*
G01*
G37*
G36*
G01*
X107169000Y-90740000D02*
X107169000Y-89740000D01*
G75*
G02*
X107220000Y-89689000I51000J0D01*
G01*
X110220000Y-89689000D01*
G75*
G02*
X110271000Y-89740000I0J-51000D01*
G01*
X110271000Y-90740000D01*
G75*
G02*
X110220000Y-90791000I-51000J0D01*
G01*
X107220000Y-90791000D01*
G75*
G02*
X107169000Y-90740000I0J51000D01*
G01*
G37*
G36*
G01*
X102129000Y-90740000D02*
X102129000Y-89740000D01*
G75*
G02*
X102180000Y-89689000I51000J0D01*
G01*
X105180000Y-89689000D01*
G75*
G02*
X105231000Y-89740000I0J-51000D01*
G01*
X105231000Y-90740000D01*
G75*
G02*
X105180000Y-90791000I-51000J0D01*
G01*
X102180000Y-90791000D01*
G75*
G02*
X102129000Y-90740000I0J51000D01*
G01*
G37*
G36*
G01*
X107169000Y-93280000D02*
X107169000Y-92280000D01*
G75*
G02*
X107220000Y-92229000I51000J0D01*
G01*
X110220000Y-92229000D01*
G75*
G02*
X110271000Y-92280000I0J-51000D01*
G01*
X110271000Y-93280000D01*
G75*
G02*
X110220000Y-93331000I-51000J0D01*
G01*
X107220000Y-93331000D01*
G75*
G02*
X107169000Y-93280000I0J51000D01*
G01*
G37*
G36*
G01*
X102129000Y-93280000D02*
X102129000Y-92280000D01*
G75*
G02*
X102180000Y-92229000I51000J0D01*
G01*
X105180000Y-92229000D01*
G75*
G02*
X105231000Y-92280000I0J-51000D01*
G01*
X105231000Y-93280000D01*
G75*
G02*
X105180000Y-93331000I-51000J0D01*
G01*
X102180000Y-93331000D01*
G75*
G02*
X102129000Y-93280000I0J51000D01*
G01*
G37*
G36*
G01*
X127801000Y-52350000D02*
X127801000Y-54150000D01*
G75*
G02*
X127750000Y-54201000I-51000J0D01*
G01*
X125250000Y-54201000D01*
G75*
G02*
X125199000Y-54150000I0J51000D01*
G01*
X125199000Y-52350000D01*
G75*
G02*
X125250000Y-52299000I51000J0D01*
G01*
X127750000Y-52299000D01*
G75*
G02*
X127801000Y-52350000I0J-51000D01*
G01*
G37*
G36*
G01*
X123801000Y-52350000D02*
X123801000Y-54150000D01*
G75*
G02*
X123750000Y-54201000I-51000J0D01*
G01*
X121250000Y-54201000D01*
G75*
G02*
X121199000Y-54150000I0J51000D01*
G01*
X121199000Y-52350000D01*
G75*
G02*
X121250000Y-52299000I51000J0D01*
G01*
X123750000Y-52299000D01*
G75*
G02*
X123801000Y-52350000I0J-51000D01*
G01*
G37*
G36*
G01*
X114074000Y-67500000D02*
X114074000Y-67200000D01*
G75*
G02*
X114275000Y-66999000I201000J0D01*
G01*
X115450000Y-66999000D01*
G75*
G02*
X115651000Y-67200000I0J-201000D01*
G01*
X115651000Y-67500000D01*
G75*
G02*
X115450000Y-67701000I-201000J0D01*
G01*
X114275000Y-67701000D01*
G75*
G02*
X114074000Y-67500000I0J201000D01*
G01*
G37*
G36*
G01*
X114074000Y-69400000D02*
X114074000Y-69100000D01*
G75*
G02*
X114275000Y-68899000I201000J0D01*
G01*
X115450000Y-68899000D01*
G75*
G02*
X115651000Y-69100000I0J-201000D01*
G01*
X115651000Y-69400000D01*
G75*
G02*
X115450000Y-69601000I-201000J0D01*
G01*
X114275000Y-69601000D01*
G75*
G02*
X114074000Y-69400000I0J201000D01*
G01*
G37*
G36*
G01*
X115949000Y-68450000D02*
X115949000Y-68150000D01*
G75*
G02*
X116150000Y-67949000I201000J0D01*
G01*
X117325000Y-67949000D01*
G75*
G02*
X117526000Y-68150000I0J-201000D01*
G01*
X117526000Y-68450000D01*
G75*
G02*
X117325000Y-68651000I-201000J0D01*
G01*
X116150000Y-68651000D01*
G75*
G02*
X115949000Y-68450000I0J201000D01*
G01*
G37*
G36*
G01*
X131276000Y-68525000D02*
X131276000Y-69075000D01*
G75*
G02*
X131025000Y-69326000I-251000J0D01*
G01*
X130625000Y-69326000D01*
G75*
G02*
X130374000Y-69075000I0J251000D01*
G01*
X130374000Y-68525000D01*
G75*
G02*
X130625000Y-68274000I251000J0D01*
G01*
X131025000Y-68274000D01*
G75*
G02*
X131276000Y-68525000I0J-251000D01*
G01*
G37*
G36*
G01*
X129626000Y-68525000D02*
X129626000Y-69075000D01*
G75*
G02*
X129375000Y-69326000I-251000J0D01*
G01*
X128975000Y-69326000D01*
G75*
G02*
X128724000Y-69075000I0J251000D01*
G01*
X128724000Y-68525000D01*
G75*
G02*
X128975000Y-68274000I251000J0D01*
G01*
X129375000Y-68274000D01*
G75*
G02*
X129626000Y-68525000I0J-251000D01*
G01*
G37*
G36*
G01*
X118799000Y-64845000D02*
X118799000Y-64545000D01*
G75*
G02*
X119000000Y-64344000I201000J0D01*
G01*
X120600000Y-64344000D01*
G75*
G02*
X120801000Y-64545000I0J-201000D01*
G01*
X120801000Y-64845000D01*
G75*
G02*
X120600000Y-65046000I-201000J0D01*
G01*
X119000000Y-65046000D01*
G75*
G02*
X118799000Y-64845000I0J201000D01*
G01*
G37*
G36*
G01*
X118799000Y-66115000D02*
X118799000Y-65815000D01*
G75*
G02*
X119000000Y-65614000I201000J0D01*
G01*
X120600000Y-65614000D01*
G75*
G02*
X120801000Y-65815000I0J-201000D01*
G01*
X120801000Y-66115000D01*
G75*
G02*
X120600000Y-66316000I-201000J0D01*
G01*
X119000000Y-66316000D01*
G75*
G02*
X118799000Y-66115000I0J201000D01*
G01*
G37*
G36*
G01*
X118799000Y-67385000D02*
X118799000Y-67085000D01*
G75*
G02*
X119000000Y-66884000I201000J0D01*
G01*
X120600000Y-66884000D01*
G75*
G02*
X120801000Y-67085000I0J-201000D01*
G01*
X120801000Y-67385000D01*
G75*
G02*
X120600000Y-67586000I-201000J0D01*
G01*
X119000000Y-67586000D01*
G75*
G02*
X118799000Y-67385000I0J201000D01*
G01*
G37*
G36*
G01*
X118799000Y-68655000D02*
X118799000Y-68355000D01*
G75*
G02*
X119000000Y-68154000I201000J0D01*
G01*
X120600000Y-68154000D01*
G75*
G02*
X120801000Y-68355000I0J-201000D01*
G01*
X120801000Y-68655000D01*
G75*
G02*
X120600000Y-68856000I-201000J0D01*
G01*
X119000000Y-68856000D01*
G75*
G02*
X118799000Y-68655000I0J201000D01*
G01*
G37*
G36*
G01*
X125799000Y-68655000D02*
X125799000Y-68355000D01*
G75*
G02*
X126000000Y-68154000I201000J0D01*
G01*
X127600000Y-68154000D01*
G75*
G02*
X127801000Y-68355000I0J-201000D01*
G01*
X127801000Y-68655000D01*
G75*
G02*
X127600000Y-68856000I-201000J0D01*
G01*
X126000000Y-68856000D01*
G75*
G02*
X125799000Y-68655000I0J201000D01*
G01*
G37*
G36*
G01*
X125799000Y-67385000D02*
X125799000Y-67085000D01*
G75*
G02*
X126000000Y-66884000I201000J0D01*
G01*
X127600000Y-66884000D01*
G75*
G02*
X127801000Y-67085000I0J-201000D01*
G01*
X127801000Y-67385000D01*
G75*
G02*
X127600000Y-67586000I-201000J0D01*
G01*
X126000000Y-67586000D01*
G75*
G02*
X125799000Y-67385000I0J201000D01*
G01*
G37*
G36*
G01*
X125799000Y-66115000D02*
X125799000Y-65815000D01*
G75*
G02*
X126000000Y-65614000I201000J0D01*
G01*
X127600000Y-65614000D01*
G75*
G02*
X127801000Y-65815000I0J-201000D01*
G01*
X127801000Y-66115000D01*
G75*
G02*
X127600000Y-66316000I-201000J0D01*
G01*
X126000000Y-66316000D01*
G75*
G02*
X125799000Y-66115000I0J201000D01*
G01*
G37*
G36*
G01*
X125799000Y-64845000D02*
X125799000Y-64545000D01*
G75*
G02*
X126000000Y-64344000I201000J0D01*
G01*
X127600000Y-64344000D01*
G75*
G02*
X127801000Y-64545000I0J-201000D01*
G01*
X127801000Y-64845000D01*
G75*
G02*
X127600000Y-65046000I-201000J0D01*
G01*
X126000000Y-65046000D01*
G75*
G02*
X125799000Y-64845000I0J201000D01*
G01*
G37*
G36*
G01*
X117275000Y-72876000D02*
X116725000Y-72876000D01*
G75*
G02*
X116474000Y-72625000I0J251000D01*
G01*
X116474000Y-72225000D01*
G75*
G02*
X116725000Y-71974000I251000J0D01*
G01*
X117275000Y-71974000D01*
G75*
G02*
X117526000Y-72225000I0J-251000D01*
G01*
X117526000Y-72625000D01*
G75*
G02*
X117275000Y-72876000I-251000J0D01*
G01*
G37*
G36*
G01*
X117275000Y-71226000D02*
X116725000Y-71226000D01*
G75*
G02*
X116474000Y-70975000I0J251000D01*
G01*
X116474000Y-70575000D01*
G75*
G02*
X116725000Y-70324000I251000J0D01*
G01*
X117275000Y-70324000D01*
G75*
G02*
X117526000Y-70575000I0J-251000D01*
G01*
X117526000Y-70975000D01*
G75*
G02*
X117275000Y-71226000I-251000J0D01*
G01*
G37*
G36*
G01*
X131276000Y-66865000D02*
X131276000Y-67415000D01*
G75*
G02*
X131025000Y-67666000I-251000J0D01*
G01*
X130625000Y-67666000D01*
G75*
G02*
X130374000Y-67415000I0J251000D01*
G01*
X130374000Y-66865000D01*
G75*
G02*
X130625000Y-66614000I251000J0D01*
G01*
X131025000Y-66614000D01*
G75*
G02*
X131276000Y-66865000I0J-251000D01*
G01*
G37*
G36*
G01*
X129626000Y-66865000D02*
X129626000Y-67415000D01*
G75*
G02*
X129375000Y-67666000I-251000J0D01*
G01*
X128975000Y-67666000D01*
G75*
G02*
X128724000Y-67415000I0J251000D01*
G01*
X128724000Y-66865000D01*
G75*
G02*
X128975000Y-66614000I251000J0D01*
G01*
X129375000Y-66614000D01*
G75*
G02*
X129626000Y-66865000I0J-251000D01*
G01*
G37*
G36*
G01*
X115175000Y-70324000D02*
X115725000Y-70324000D01*
G75*
G02*
X115976000Y-70575000I0J-251000D01*
G01*
X115976000Y-70975000D01*
G75*
G02*
X115725000Y-71226000I-251000J0D01*
G01*
X115175000Y-71226000D01*
G75*
G02*
X114924000Y-70975000I0J251000D01*
G01*
X114924000Y-70575000D01*
G75*
G02*
X115175000Y-70324000I251000J0D01*
G01*
G37*
G36*
G01*
X115175000Y-71974000D02*
X115725000Y-71974000D01*
G75*
G02*
X115976000Y-72225000I0J-251000D01*
G01*
X115976000Y-72625000D01*
G75*
G02*
X115725000Y-72876000I-251000J0D01*
G01*
X115175000Y-72876000D01*
G75*
G02*
X114924000Y-72625000I0J251000D01*
G01*
X114924000Y-72225000D01*
G75*
G02*
X115175000Y-71974000I251000J0D01*
G01*
G37*
G36*
G01*
X137880000Y-66375000D02*
X135780000Y-66375000D01*
G75*
G02*
X135729000Y-66324000I0J51000D01*
G01*
X135729000Y-64924000D01*
G75*
G02*
X135780000Y-64873000I51000J0D01*
G01*
X137880000Y-64873000D01*
G75*
G02*
X137931000Y-64924000I0J-51000D01*
G01*
X137931000Y-66324000D01*
G75*
G02*
X137880000Y-66375000I-51000J0D01*
G01*
G37*
G36*
G01*
X137880000Y-61975000D02*
X135780000Y-61975000D01*
G75*
G02*
X135729000Y-61924000I0J51000D01*
G01*
X135729000Y-60524000D01*
G75*
G02*
X135780000Y-60473000I51000J0D01*
G01*
X137880000Y-60473000D01*
G75*
G02*
X137931000Y-60524000I0J-51000D01*
G01*
X137931000Y-61924000D01*
G75*
G02*
X137880000Y-61975000I-51000J0D01*
G01*
G37*
%LPD*%
M02*
