G04 #@! TF.GenerationSoftware,KiCad,Pcbnew,7.0.7-7.0.7~ubuntu23.04.1*
G04 #@! TF.CreationDate,2023-09-19T04:43:27+00:00*
G04 #@! TF.ProjectId,m5-pantilt,6d352d70-616e-4746-996c-742e6b696361,1*
G04 #@! TF.SameCoordinates,Original*
G04 #@! TF.FileFunction,Copper,L2,Bot*
G04 #@! TF.FilePolarity,Positive*
%FSLAX46Y46*%
G04 Gerber Fmt 4.6, Leading zero omitted, Abs format (unit mm)*
G04 Created by KiCad (PCBNEW 7.0.7-7.0.7~ubuntu23.04.1) date 2023-09-19 04:43:27*
%MOMM*%
%LPD*%
G01*
G04 APERTURE LIST*
G04 #@! TA.AperFunction,ComponentPad*
%ADD10O,1.200000X1.750000*%
G04 #@! TD*
G04 #@! TA.AperFunction,ComponentPad*
%ADD11O,1.700000X2.000000*%
G04 #@! TD*
G04 #@! TA.AperFunction,ComponentPad*
%ADD12O,3.500000X2.200000*%
G04 #@! TD*
G04 #@! TA.AperFunction,ComponentPad*
%ADD13R,2.500000X1.500000*%
G04 #@! TD*
G04 #@! TA.AperFunction,ComponentPad*
%ADD14O,2.500000X1.500000*%
G04 #@! TD*
G04 #@! TA.AperFunction,ComponentPad*
%ADD15O,1.950000X1.700000*%
G04 #@! TD*
G04 #@! TA.AperFunction,SMDPad,CuDef*
%ADD16R,3.150000X1.000000*%
G04 #@! TD*
G04 #@! TA.AperFunction,ViaPad*
%ADD17C,0.600000*%
G04 #@! TD*
G04 #@! TA.AperFunction,Conductor*
%ADD18C,2.000000*%
G04 #@! TD*
G04 #@! TA.AperFunction,Conductor*
%ADD19C,0.200000*%
G04 #@! TD*
G04 #@! TA.AperFunction,Conductor*
%ADD20C,1.000000*%
G04 #@! TD*
G04 #@! TA.AperFunction,Conductor*
%ADD21C,0.152400*%
G04 #@! TD*
G04 APERTURE END LIST*
G04 #@! TA.AperFunction,ComponentPad*
G36*
G01*
X137200000Y-54375000D02*
X137200000Y-55625000D01*
G75*
G02*
X136950000Y-55875000I-250000J0D01*
G01*
X136250000Y-55875000D01*
G75*
G02*
X136000000Y-55625000I0J250000D01*
G01*
X136000000Y-54375000D01*
G75*
G02*
X136250000Y-54125000I250000J0D01*
G01*
X136950000Y-54125000D01*
G75*
G02*
X137200000Y-54375000I0J-250000D01*
G01*
G37*
G04 #@! TD.AperFunction*
D10*
X134600000Y-55000000D03*
X132600000Y-55000000D03*
X130600000Y-55000000D03*
G04 #@! TA.AperFunction,ComponentPad*
G36*
G01*
X141750000Y-91775000D02*
X141750000Y-90525000D01*
G75*
G02*
X142000000Y-90275000I250000J0D01*
G01*
X142700000Y-90275000D01*
G75*
G02*
X142950000Y-90525000I0J-250000D01*
G01*
X142950000Y-91775000D01*
G75*
G02*
X142700000Y-92025000I-250000J0D01*
G01*
X142000000Y-92025000D01*
G75*
G02*
X141750000Y-91775000I0J250000D01*
G01*
G37*
G04 #@! TD.AperFunction*
X144350000Y-91150000D03*
G04 #@! TA.AperFunction,ComponentPad*
G36*
G01*
X118850000Y-53775000D02*
X118850000Y-55275000D01*
G75*
G02*
X118600000Y-55525000I-250000J0D01*
G01*
X117400000Y-55525000D01*
G75*
G02*
X117150000Y-55275000I0J250000D01*
G01*
X117150000Y-53775000D01*
G75*
G02*
X117400000Y-53525000I250000J0D01*
G01*
X118600000Y-53525000D01*
G75*
G02*
X118850000Y-53775000I0J-250000D01*
G01*
G37*
G04 #@! TD.AperFunction*
D11*
X115500000Y-54525000D03*
D12*
X145800000Y-65250000D03*
X145800000Y-57050000D03*
D13*
X145800000Y-63150000D03*
D14*
X145800000Y-61150000D03*
X145800000Y-59150000D03*
G04 #@! TA.AperFunction,ComponentPad*
G36*
G01*
X143975000Y-69050000D02*
X145425000Y-69050000D01*
G75*
G02*
X145675000Y-69300000I0J-250000D01*
G01*
X145675000Y-70500000D01*
G75*
G02*
X145425000Y-70750000I-250000J0D01*
G01*
X143975000Y-70750000D01*
G75*
G02*
X143725000Y-70500000I0J250000D01*
G01*
X143725000Y-69300000D01*
G75*
G02*
X143975000Y-69050000I250000J0D01*
G01*
G37*
G04 #@! TD.AperFunction*
D15*
X144700000Y-72400000D03*
X144700000Y-74900000D03*
G04 #@! TA.AperFunction,ComponentPad*
G36*
G01*
X143975000Y-80050000D02*
X145425000Y-80050000D01*
G75*
G02*
X145675000Y-80300000I0J-250000D01*
G01*
X145675000Y-81500000D01*
G75*
G02*
X145425000Y-81750000I-250000J0D01*
G01*
X143975000Y-81750000D01*
G75*
G02*
X143725000Y-81500000I0J250000D01*
G01*
X143725000Y-80300000D01*
G75*
G02*
X143975000Y-80050000I250000J0D01*
G01*
G37*
G04 #@! TD.AperFunction*
X144700000Y-83400000D03*
X144700000Y-85900000D03*
D16*
X108725000Y-57220000D03*
X103675000Y-57220000D03*
X108725000Y-59760000D03*
X103675000Y-59760000D03*
X108725000Y-62300000D03*
X103675000Y-62300000D03*
X108725000Y-64840000D03*
X103675000Y-64840000D03*
X108725000Y-67380000D03*
X103675000Y-67380000D03*
X108725000Y-69920000D03*
X103675000Y-69920000D03*
X108725000Y-72460000D03*
X103675000Y-72460000D03*
X108725000Y-75000000D03*
X103675000Y-75000000D03*
X108725000Y-77540000D03*
X103675000Y-77540000D03*
X108725000Y-80080000D03*
X103675000Y-80080000D03*
X108725000Y-82620000D03*
X103675000Y-82620000D03*
X108725000Y-85160000D03*
X103675000Y-85160000D03*
X108725000Y-87700000D03*
X103675000Y-87700000D03*
X108725000Y-90240000D03*
X103675000Y-90240000D03*
X108725000Y-92780000D03*
X103675000Y-92780000D03*
D17*
X108000000Y-51500000D03*
X101500000Y-95000000D03*
X138600000Y-76200000D03*
X142000000Y-51500000D03*
X148500000Y-94500000D03*
X112600000Y-62650000D03*
X127900000Y-69700000D03*
X141400000Y-84200000D03*
X143700000Y-63400000D03*
X116250000Y-76800000D03*
X140500000Y-51000000D03*
X113900000Y-73400000D03*
X149000000Y-63000000D03*
X101000000Y-81450000D03*
X109000000Y-94600000D03*
X130950000Y-62400000D03*
X106200000Y-93300000D03*
X101000000Y-76000000D03*
X126000000Y-94850000D03*
X137000000Y-81000000D03*
X116000000Y-99000000D03*
X117800000Y-63700000D03*
X101000000Y-86538000D03*
X149000000Y-74000000D03*
X123000000Y-61550000D03*
X130980000Y-96530000D03*
X139400000Y-80963000D03*
X128000000Y-74750000D03*
X108000000Y-98500000D03*
X149000000Y-68000000D03*
X129000000Y-51000000D03*
X131800000Y-92000000D03*
X101000000Y-71000000D03*
X138200000Y-71400000D03*
X132400000Y-57650000D03*
X126000000Y-99000000D03*
X146400000Y-87100000D03*
X137000000Y-75000000D03*
X101000000Y-61000000D03*
X131000000Y-99000000D03*
X113550000Y-70550000D03*
X124000000Y-51000000D03*
X149000000Y-79000000D03*
X101500000Y-55000000D03*
X121000000Y-94850000D03*
X130350000Y-78000000D03*
X148500000Y-55500000D03*
X136600000Y-59300000D03*
X149000000Y-89000000D03*
X136800000Y-77600000D03*
X126600000Y-88000000D03*
X119000000Y-51000000D03*
X134000000Y-51000000D03*
X111000000Y-99000000D03*
X107600000Y-88976400D03*
X136000000Y-99000000D03*
X116000000Y-94850000D03*
X121000000Y-99000000D03*
X134600000Y-83900000D03*
X119400000Y-88200000D03*
X141000000Y-77800000D03*
X119400000Y-69600000D03*
X129100000Y-54900000D03*
X130200000Y-84600000D03*
X137795200Y-93065800D03*
X119200000Y-77700000D03*
X142000000Y-98500000D03*
X123050000Y-58650000D03*
X106200000Y-76100000D03*
X111000000Y-94830000D03*
X126800000Y-63700000D03*
X106150000Y-81400000D03*
X107700000Y-91500000D03*
X134600000Y-87600000D03*
X101000000Y-66000000D03*
X106250000Y-87550000D03*
X149000000Y-84000000D03*
X113900000Y-58600000D03*
X114000000Y-51000000D03*
X111300000Y-90600000D03*
X111300000Y-89800000D03*
X111000000Y-59400000D03*
X101016000Y-91364000D03*
X110700000Y-92300000D03*
X110700000Y-93300000D03*
X101016000Y-90385503D03*
X111220000Y-67380000D03*
X101016000Y-89586000D03*
X111200000Y-69900000D03*
X111410000Y-87740000D03*
X101016000Y-85014000D03*
X111430000Y-85268000D03*
X110930000Y-75010000D03*
X118100480Y-65499520D03*
X105800000Y-75000000D03*
X101100000Y-77500000D03*
X111000000Y-77500000D03*
X101016000Y-72568000D03*
X110809600Y-72201600D03*
X101016000Y-69774000D03*
X101016000Y-67488000D03*
X101016000Y-64948000D03*
X111000000Y-64800000D03*
X131000000Y-75500000D03*
X117550000Y-76500000D03*
X106150000Y-82700000D03*
X111500000Y-82500000D03*
X106150000Y-80150000D03*
X111600000Y-80100000D03*
X118500000Y-76534015D03*
X129100000Y-76534015D03*
X111000000Y-62200000D03*
X111200000Y-57200000D03*
X137380000Y-95490000D03*
D18*
X108725000Y-90240000D02*
X111360000Y-90240000D01*
D19*
X111000000Y-59400000D02*
X110640000Y-59760000D01*
X110640000Y-59760000D02*
X108725000Y-59760000D01*
X101016000Y-91364000D02*
X102432000Y-92780000D01*
X102432000Y-92780000D02*
X103675000Y-92780000D01*
D18*
X108735000Y-92770000D02*
X110770000Y-92770000D01*
X108725000Y-92780000D02*
X108735000Y-92770000D01*
D19*
X101016000Y-90385503D02*
X101161503Y-90240000D01*
X101161503Y-90240000D02*
X103675000Y-90240000D01*
X108725000Y-67380000D02*
X111220000Y-67380000D01*
X102902000Y-87700000D02*
X103675000Y-87700000D01*
X101016000Y-89586000D02*
X102902000Y-87700000D01*
D20*
X111200000Y-69900000D02*
X108745000Y-69900000D01*
X108745000Y-69900000D02*
X108725000Y-69920000D01*
D19*
X111370000Y-87700000D02*
X108725000Y-87700000D01*
X111410000Y-87740000D02*
X111370000Y-87700000D01*
X101016000Y-85014000D02*
X101162000Y-85160000D01*
X101162000Y-85160000D02*
X103675000Y-85160000D01*
X111430000Y-85268000D02*
X111322000Y-85160000D01*
X111322000Y-85160000D02*
X108725000Y-85160000D01*
X110920000Y-75000000D02*
X108725000Y-75000000D01*
X110930000Y-75010000D02*
X110920000Y-75000000D01*
X103675000Y-75000000D02*
X105800000Y-75000000D01*
X118100480Y-66949020D02*
X113399500Y-71650000D01*
X113399500Y-71650000D02*
X110949500Y-74100000D01*
X118100480Y-65499520D02*
X118100480Y-66949020D01*
X106700000Y-74100000D02*
X105800000Y-75000000D01*
X110949500Y-74100000D02*
X106700000Y-74100000D01*
D21*
X101140000Y-77540000D02*
X101100000Y-77500000D01*
X103675000Y-77540000D02*
X101140000Y-77540000D01*
X111000000Y-77500000D02*
X110960000Y-77540000D01*
X110960000Y-77540000D02*
X108725000Y-77540000D01*
X101124000Y-72460000D02*
X103675000Y-72460000D01*
X101016000Y-72568000D02*
X101124000Y-72460000D01*
D19*
X110809600Y-72210400D02*
X110560000Y-72460000D01*
X110809600Y-72201600D02*
X110809600Y-72210400D01*
X110560000Y-72460000D02*
X108725000Y-72460000D01*
X101016000Y-69774000D02*
X101162000Y-69920000D01*
X101162000Y-69920000D02*
X103675000Y-69920000D01*
X101016000Y-67488000D02*
X101124000Y-67380000D01*
X101124000Y-67380000D02*
X103675000Y-67380000D01*
X101016000Y-64948000D02*
X101124000Y-64840000D01*
X101124000Y-64840000D02*
X103675000Y-64840000D01*
D21*
X111000000Y-64800000D02*
X110960000Y-64840000D01*
X110960000Y-64840000D02*
X108725000Y-64840000D01*
D19*
X131000000Y-75634515D02*
X131300000Y-75934515D01*
X138300000Y-74900000D02*
X144700000Y-74900000D01*
X118115485Y-75934515D02*
X132665485Y-75934515D01*
X132665485Y-75934515D02*
X137265485Y-75934515D01*
X117550000Y-76500000D02*
X118115485Y-75934515D01*
X131300000Y-75934515D02*
X132665485Y-75934515D01*
X131000000Y-75500000D02*
X131000000Y-75634515D01*
X137265485Y-75934515D02*
X138300000Y-74900000D01*
X103675000Y-82620000D02*
X106070000Y-82620000D01*
X106070000Y-82620000D02*
X106150000Y-82700000D01*
X111500000Y-82500000D02*
X111380000Y-82620000D01*
X111380000Y-82620000D02*
X108725000Y-82620000D01*
X106080000Y-80080000D02*
X106150000Y-80150000D01*
X103675000Y-80080000D02*
X106080000Y-80080000D01*
X108745000Y-80100000D02*
X108725000Y-80080000D01*
X111600000Y-80100000D02*
X108745000Y-80100000D01*
X129100000Y-76534015D02*
X129299981Y-76334034D01*
X137134034Y-76334034D02*
X143425480Y-82625480D01*
X133634034Y-76334034D02*
X137134034Y-76334034D01*
X143425480Y-84625480D02*
X144700000Y-85900000D01*
X129299981Y-76334034D02*
X133634034Y-76334034D01*
X143425480Y-82625480D02*
X143425480Y-84625480D01*
X118500000Y-76534015D02*
X118699981Y-76334034D01*
X118699981Y-76334034D02*
X133634034Y-76334034D01*
D21*
X108725000Y-62300000D02*
X110900000Y-62300000D01*
X110900000Y-62300000D02*
X111000000Y-62200000D01*
D19*
X111180000Y-57220000D02*
X108725000Y-57220000D01*
X111200000Y-57200000D02*
X111180000Y-57220000D01*
X146700000Y-61100000D02*
X145800000Y-61100000D01*
X140790000Y-95490000D02*
X142400000Y-93880000D01*
X144190000Y-93880000D02*
X147849520Y-90220480D01*
X142400000Y-93880000D02*
X144190000Y-93880000D01*
X147849520Y-62249520D02*
X146700000Y-61100000D01*
X137380000Y-95490000D02*
X140790000Y-95490000D01*
X147849520Y-90220480D02*
X147849520Y-62249520D01*
G04 #@! TA.AperFunction,Conductor*
G36*
X139916621Y-50045502D02*
G01*
X139963114Y-50099158D01*
X139974500Y-50151500D01*
X139974500Y-50469867D01*
X139972398Y-50480435D01*
X139972399Y-50500000D01*
X139974500Y-50505073D01*
X139980482Y-50519517D01*
X140000000Y-50527601D01*
X140019575Y-50527601D01*
X140030137Y-50525500D01*
X146991715Y-50525500D01*
X146998097Y-50525500D01*
X147001900Y-50525614D01*
X147294470Y-50543312D01*
X147302012Y-50544228D01*
X147588449Y-50596719D01*
X147595822Y-50598536D01*
X147873837Y-50685169D01*
X147880941Y-50687864D01*
X148146479Y-50807373D01*
X148153216Y-50810910D01*
X148402411Y-50961552D01*
X148408671Y-50965872D01*
X148637899Y-51145461D01*
X148643589Y-51150502D01*
X148849496Y-51356409D01*
X148854538Y-51362100D01*
X149016187Y-51568430D01*
X149034121Y-51591320D01*
X149038447Y-51597588D01*
X149189089Y-51846783D01*
X149192628Y-51853525D01*
X149312131Y-52119048D01*
X149314831Y-52126167D01*
X149401461Y-52404172D01*
X149403283Y-52411562D01*
X149421079Y-52508672D01*
X149455770Y-52697980D01*
X149456688Y-52705539D01*
X149474385Y-52998097D01*
X149474500Y-53001902D01*
X149474500Y-59969867D01*
X149472398Y-59980435D01*
X149472399Y-60000000D01*
X149474500Y-60005073D01*
X149480482Y-60019517D01*
X149500000Y-60027601D01*
X149519575Y-60027601D01*
X149530137Y-60025500D01*
X149848500Y-60025500D01*
X149916621Y-60045502D01*
X149963114Y-60099158D01*
X149974500Y-60151500D01*
X149974500Y-89848500D01*
X149954498Y-89916621D01*
X149900842Y-89963114D01*
X149848500Y-89974500D01*
X149530136Y-89974500D01*
X149519574Y-89972399D01*
X149499999Y-89972399D01*
X149494927Y-89974500D01*
X149480482Y-89980482D01*
X149472399Y-89999999D01*
X149472399Y-90019575D01*
X149474500Y-90030136D01*
X149474500Y-96998097D01*
X149474385Y-97001902D01*
X149456688Y-97294460D01*
X149455770Y-97302019D01*
X149403284Y-97588433D01*
X149401461Y-97595827D01*
X149314831Y-97873832D01*
X149312131Y-97880951D01*
X149192628Y-98146474D01*
X149189089Y-98153216D01*
X149038447Y-98402411D01*
X149034121Y-98408679D01*
X148854538Y-98637899D01*
X148849489Y-98643598D01*
X148643598Y-98849489D01*
X148637899Y-98854538D01*
X148408679Y-99034121D01*
X148402411Y-99038447D01*
X148153216Y-99189089D01*
X148146474Y-99192628D01*
X147880951Y-99312131D01*
X147873832Y-99314831D01*
X147595827Y-99401461D01*
X147588433Y-99403284D01*
X147302019Y-99455770D01*
X147294460Y-99456688D01*
X147039453Y-99472113D01*
X147001900Y-99474385D01*
X146998097Y-99474500D01*
X140030136Y-99474500D01*
X140019574Y-99472399D01*
X139999999Y-99472399D01*
X139994927Y-99474500D01*
X139980482Y-99480482D01*
X139972399Y-99499999D01*
X139972399Y-99519575D01*
X139974500Y-99530136D01*
X139974500Y-99848500D01*
X139954498Y-99916621D01*
X139900842Y-99963114D01*
X139848500Y-99974500D01*
X110151500Y-99974500D01*
X110083379Y-99954498D01*
X110036886Y-99900842D01*
X110025500Y-99848500D01*
X110025500Y-99530130D01*
X110027601Y-99519576D01*
X110027601Y-99499999D01*
X110019517Y-99480482D01*
X110005073Y-99474500D01*
X110000001Y-99472399D01*
X109980426Y-99472399D01*
X109969864Y-99474500D01*
X103001903Y-99474500D01*
X102998099Y-99474385D01*
X102953724Y-99471700D01*
X102705539Y-99456688D01*
X102697980Y-99455770D01*
X102515862Y-99422396D01*
X102411562Y-99403283D01*
X102404172Y-99401461D01*
X102126167Y-99314831D01*
X102119048Y-99312131D01*
X101853525Y-99192628D01*
X101846783Y-99189089D01*
X101597588Y-99038447D01*
X101591325Y-99034124D01*
X101362100Y-98854538D01*
X101356409Y-98849496D01*
X101150502Y-98643589D01*
X101145461Y-98637899D01*
X101116161Y-98600500D01*
X100965872Y-98408671D01*
X100961552Y-98402411D01*
X100810910Y-98153216D01*
X100807371Y-98146474D01*
X100687864Y-97880941D01*
X100685168Y-97873832D01*
X100598533Y-97595811D01*
X100596719Y-97588449D01*
X100562064Y-97399339D01*
X100560000Y-97376628D01*
X100560000Y-96981182D01*
X101399500Y-96981182D01*
X101405131Y-97018538D01*
X101438604Y-97240619D01*
X101515933Y-97491314D01*
X101515938Y-97491327D01*
X101629773Y-97727706D01*
X101629777Y-97727713D01*
X101777562Y-97944472D01*
X101777567Y-97944479D01*
X101956019Y-98136805D01*
X102161143Y-98300386D01*
X102161146Y-98300388D01*
X102388352Y-98431566D01*
X102388356Y-98431567D01*
X102388357Y-98431568D01*
X102632584Y-98527420D01*
X102888370Y-98585802D01*
X103040409Y-98597195D01*
X103084503Y-98600500D01*
X103084506Y-98600500D01*
X103215497Y-98600500D01*
X103256516Y-98597425D01*
X103411630Y-98585802D01*
X103667416Y-98527420D01*
X103911643Y-98431568D01*
X103911645Y-98431566D01*
X103911647Y-98431566D01*
X104124067Y-98308925D01*
X104138857Y-98300386D01*
X104343981Y-98136805D01*
X104522433Y-97944479D01*
X104670228Y-97727704D01*
X104784063Y-97491323D01*
X104784066Y-97491314D01*
X104861395Y-97240619D01*
X104861792Y-97237986D01*
X104900500Y-96981182D01*
X104900500Y-96906330D01*
X106045710Y-96906330D01*
X106058656Y-97001902D01*
X106075925Y-97129390D01*
X106145484Y-97343467D01*
X106252144Y-97541675D01*
X106252148Y-97541682D01*
X106292425Y-97592187D01*
X106392492Y-97717666D01*
X106562004Y-97865765D01*
X106755236Y-97981215D01*
X106965976Y-98060307D01*
X106965978Y-98060307D01*
X106965980Y-98060308D01*
X107099229Y-98084489D01*
X107187453Y-98100500D01*
X107187454Y-98100500D01*
X107356149Y-98100500D01*
X107356155Y-98100500D01*
X107513759Y-98086315D01*
X107524189Y-98085377D01*
X107524189Y-98085376D01*
X107699507Y-98036991D01*
X107741167Y-98025494D01*
X107741167Y-98025493D01*
X107741170Y-98025493D01*
X107943973Y-97927829D01*
X108126078Y-97795522D01*
X108281632Y-97632825D01*
X108405635Y-97444968D01*
X108494103Y-97237988D01*
X108544191Y-97018537D01*
X108549230Y-96906330D01*
X141445710Y-96906330D01*
X141458656Y-97001902D01*
X141475925Y-97129390D01*
X141545484Y-97343467D01*
X141652144Y-97541675D01*
X141652148Y-97541682D01*
X141692425Y-97592187D01*
X141792492Y-97717666D01*
X141962004Y-97865765D01*
X142155236Y-97981215D01*
X142365976Y-98060307D01*
X142365978Y-98060307D01*
X142365980Y-98060308D01*
X142499229Y-98084489D01*
X142587453Y-98100500D01*
X142587454Y-98100500D01*
X142756149Y-98100500D01*
X142756155Y-98100500D01*
X142913759Y-98086315D01*
X142924189Y-98085377D01*
X142924189Y-98085376D01*
X143099507Y-98036991D01*
X143141167Y-98025494D01*
X143141167Y-98025493D01*
X143141170Y-98025493D01*
X143343973Y-97927829D01*
X143526078Y-97795522D01*
X143681632Y-97632825D01*
X143805635Y-97444968D01*
X143894103Y-97237988D01*
X143944191Y-97018537D01*
X143945869Y-96981182D01*
X145099500Y-96981182D01*
X145105131Y-97018538D01*
X145138604Y-97240619D01*
X145215933Y-97491314D01*
X145215938Y-97491327D01*
X145329773Y-97727706D01*
X145329777Y-97727713D01*
X145477562Y-97944472D01*
X145477567Y-97944479D01*
X145656019Y-98136805D01*
X145861143Y-98300386D01*
X145861146Y-98300388D01*
X146088352Y-98431566D01*
X146088356Y-98431567D01*
X146088357Y-98431568D01*
X146332584Y-98527420D01*
X146588370Y-98585802D01*
X146740408Y-98597195D01*
X146784503Y-98600500D01*
X146784506Y-98600500D01*
X146915497Y-98600500D01*
X146956516Y-98597425D01*
X147111630Y-98585802D01*
X147367416Y-98527420D01*
X147611643Y-98431568D01*
X147611645Y-98431566D01*
X147611647Y-98431566D01*
X147824067Y-98308925D01*
X147838857Y-98300386D01*
X148043981Y-98136805D01*
X148222433Y-97944479D01*
X148370228Y-97727704D01*
X148484063Y-97491323D01*
X148484066Y-97491314D01*
X148561395Y-97240619D01*
X148561792Y-97237986D01*
X148600500Y-96981182D01*
X148600500Y-96718818D01*
X148561396Y-96459385D01*
X148561395Y-96459383D01*
X148561395Y-96459380D01*
X148484066Y-96208685D01*
X148484061Y-96208672D01*
X148375061Y-95982332D01*
X148370228Y-95972296D01*
X148370226Y-95972293D01*
X148370222Y-95972286D01*
X148222437Y-95755527D01*
X148222433Y-95755521D01*
X148043981Y-95563195D01*
X147838857Y-95399614D01*
X147838852Y-95399611D01*
X147838853Y-95399611D01*
X147611647Y-95268433D01*
X147611639Y-95268430D01*
X147367419Y-95172581D01*
X147367417Y-95172580D01*
X147111632Y-95114198D01*
X146915497Y-95099500D01*
X146915494Y-95099500D01*
X146784506Y-95099500D01*
X146784503Y-95099500D01*
X146588367Y-95114198D01*
X146332582Y-95172580D01*
X146332580Y-95172581D01*
X146088360Y-95268430D01*
X146088352Y-95268433D01*
X145861146Y-95399611D01*
X145656018Y-95563195D01*
X145477566Y-95755522D01*
X145477562Y-95755527D01*
X145329777Y-95972286D01*
X145329773Y-95972293D01*
X145215938Y-96208672D01*
X145215933Y-96208685D01*
X145138604Y-96459380D01*
X145121839Y-96570609D01*
X145099500Y-96718818D01*
X145099500Y-96981182D01*
X143945869Y-96981182D01*
X143954290Y-96793670D01*
X143924075Y-96570613D01*
X143854517Y-96356536D01*
X143799897Y-96255035D01*
X143747855Y-96158324D01*
X143747851Y-96158317D01*
X143607506Y-95982332D01*
X143437998Y-95834237D01*
X143437996Y-95834235D01*
X143244764Y-95718785D01*
X143034024Y-95639693D01*
X143034019Y-95639691D01*
X142844091Y-95605224D01*
X142812547Y-95599500D01*
X142643845Y-95599500D01*
X142612558Y-95602315D01*
X142475810Y-95614622D01*
X142475810Y-95614623D01*
X142258832Y-95674505D01*
X142056031Y-95772168D01*
X142056023Y-95772173D01*
X141873921Y-95904478D01*
X141873920Y-95904479D01*
X141718369Y-96067172D01*
X141594367Y-96255027D01*
X141594363Y-96255035D01*
X141505897Y-96462011D01*
X141505896Y-96462013D01*
X141455809Y-96681461D01*
X141455809Y-96681463D01*
X141450770Y-96793673D01*
X141445710Y-96906330D01*
X108549230Y-96906330D01*
X108554290Y-96793670D01*
X108524075Y-96570613D01*
X108454517Y-96356536D01*
X108399897Y-96255035D01*
X108347855Y-96158324D01*
X108347851Y-96158317D01*
X108207506Y-95982332D01*
X108037998Y-95834237D01*
X108037996Y-95834235D01*
X107844764Y-95718785D01*
X107634024Y-95639693D01*
X107634019Y-95639691D01*
X107444091Y-95605224D01*
X107412547Y-95599500D01*
X107243845Y-95599500D01*
X107212558Y-95602315D01*
X107075810Y-95614622D01*
X107075810Y-95614623D01*
X106858832Y-95674505D01*
X106656031Y-95772168D01*
X106656023Y-95772173D01*
X106473921Y-95904478D01*
X106473920Y-95904479D01*
X106318369Y-96067172D01*
X106194367Y-96255027D01*
X106194363Y-96255035D01*
X106105897Y-96462011D01*
X106105896Y-96462013D01*
X106055809Y-96681461D01*
X106055809Y-96681463D01*
X106050770Y-96793673D01*
X106045710Y-96906330D01*
X104900500Y-96906330D01*
X104900500Y-96718818D01*
X104861396Y-96459385D01*
X104861395Y-96459383D01*
X104861395Y-96459380D01*
X104784066Y-96208685D01*
X104784061Y-96208672D01*
X104675061Y-95982332D01*
X104670228Y-95972296D01*
X104670226Y-95972293D01*
X104670222Y-95972286D01*
X104522437Y-95755527D01*
X104522433Y-95755521D01*
X104343981Y-95563195D01*
X104252201Y-95490003D01*
X136724722Y-95490003D01*
X136743761Y-95646815D01*
X136771056Y-95718785D01*
X136799780Y-95794523D01*
X136799781Y-95794525D01*
X136799782Y-95794526D01*
X136799783Y-95794529D01*
X136886406Y-95920023D01*
X136889517Y-95924530D01*
X137007760Y-96029283D01*
X137147635Y-96102696D01*
X137147636Y-96102696D01*
X137147638Y-96102697D01*
X137224324Y-96121598D01*
X137301015Y-96140500D01*
X137301017Y-96140500D01*
X137458983Y-96140500D01*
X137458985Y-96140500D01*
X137612365Y-96102696D01*
X137752240Y-96029283D01*
X137816689Y-95972186D01*
X137880942Y-95941987D01*
X137900241Y-95940500D01*
X140761157Y-95940500D01*
X140768211Y-95940895D01*
X140807035Y-95945270D01*
X140807035Y-95945269D01*
X140807036Y-95945270D01*
X140807036Y-95945269D01*
X140832397Y-95940470D01*
X140865478Y-95934212D01*
X140896636Y-95929515D01*
X140924287Y-95925348D01*
X140924295Y-95925343D01*
X140932472Y-95922821D01*
X140940472Y-95920023D01*
X140993073Y-95892222D01*
X141010484Y-95883836D01*
X141046642Y-95866425D01*
X141046646Y-95866421D01*
X141053685Y-95861622D01*
X141060531Y-95856569D01*
X141060538Y-95856566D01*
X141102599Y-95814504D01*
X141146194Y-95774055D01*
X141146197Y-95774048D01*
X141152081Y-95766672D01*
X141152762Y-95767215D01*
X141162219Y-95754883D01*
X142549698Y-94367405D01*
X142612010Y-94333379D01*
X142638793Y-94330500D01*
X144161157Y-94330500D01*
X144168211Y-94330895D01*
X144207035Y-94335270D01*
X144207035Y-94335269D01*
X144207036Y-94335270D01*
X144207036Y-94335269D01*
X144232397Y-94330470D01*
X144265478Y-94324212D01*
X144296636Y-94319515D01*
X144324287Y-94315348D01*
X144324295Y-94315343D01*
X144332472Y-94312821D01*
X144340472Y-94310023D01*
X144393073Y-94282222D01*
X144410484Y-94273836D01*
X144446642Y-94256425D01*
X144446646Y-94256421D01*
X144453689Y-94251619D01*
X144460533Y-94246568D01*
X144460538Y-94246566D01*
X144502599Y-94204503D01*
X144546194Y-94164055D01*
X144546197Y-94164049D01*
X144552082Y-94156671D01*
X144552763Y-94157214D01*
X144562219Y-94144883D01*
X148147690Y-90559411D01*
X148152934Y-90554725D01*
X148183490Y-90530359D01*
X148217000Y-90481208D01*
X148252313Y-90433362D01*
X148252313Y-90433359D01*
X148252315Y-90433358D01*
X148256301Y-90425816D01*
X148259991Y-90418154D01*
X148259990Y-90418154D01*
X148259992Y-90418153D01*
X148277527Y-90361302D01*
X148297166Y-90305179D01*
X148297166Y-90305176D01*
X148298749Y-90296810D01*
X148300020Y-90288381D01*
X148300020Y-90228921D01*
X148301590Y-90186963D01*
X148302245Y-90169470D01*
X148302243Y-90169465D01*
X148301188Y-90160085D01*
X148302047Y-90159988D01*
X148300020Y-90144576D01*
X148300020Y-62278362D01*
X148300416Y-62271302D01*
X148304790Y-62232485D01*
X148297417Y-62193517D01*
X148293731Y-62174032D01*
X148290379Y-62151800D01*
X148284868Y-62115233D01*
X148284865Y-62115228D01*
X148282344Y-62107052D01*
X148279543Y-62099047D01*
X148251742Y-62046446D01*
X148225946Y-61992880D01*
X148221148Y-61985842D01*
X148216082Y-61978978D01*
X148174036Y-61936933D01*
X148133574Y-61893324D01*
X148126194Y-61887439D01*
X148126733Y-61886762D01*
X148114400Y-61877297D01*
X147436924Y-61199821D01*
X147402898Y-61137509D01*
X147400162Y-61116720D01*
X147394254Y-60992678D01*
X147394254Y-60992670D01*
X147344704Y-60788424D01*
X147344701Y-60788419D01*
X147344701Y-60788416D01*
X147267381Y-60619112D01*
X147257396Y-60597247D01*
X147135486Y-60426048D01*
X147084434Y-60377370D01*
X147049578Y-60344135D01*
X147014080Y-60282650D01*
X147017458Y-60211734D01*
X147058640Y-60153901D01*
X147062468Y-60151007D01*
X147131035Y-60101191D01*
X147287518Y-59937522D01*
X147412265Y-59748539D01*
X147412266Y-59748536D01*
X147501265Y-59540310D01*
X147532377Y-59404000D01*
X146172968Y-59404000D01*
X146223625Y-59316260D01*
X146253810Y-59184008D01*
X146243673Y-59048735D01*
X146194113Y-58922459D01*
X146173013Y-58896000D01*
X147535082Y-58896000D01*
X147531415Y-58868933D01*
X147461441Y-58653576D01*
X147354140Y-58454175D01*
X147354136Y-58454168D01*
X147302999Y-58390045D01*
X147276165Y-58324315D01*
X147289127Y-58254511D01*
X147332597Y-58206001D01*
X147343964Y-58198574D01*
X147343963Y-58198574D01*
X147343969Y-58198571D01*
X147520825Y-58035764D01*
X147668472Y-57846067D01*
X147782882Y-57634656D01*
X147860934Y-57407297D01*
X147900500Y-57170192D01*
X147900500Y-56929808D01*
X147860934Y-56692703D01*
X147785866Y-56474035D01*
X147782883Y-56465346D01*
X147782882Y-56465344D01*
X147668472Y-56253933D01*
X147668471Y-56253932D01*
X147635834Y-56212000D01*
X147520825Y-56064236D01*
X147458996Y-56007319D01*
X147343971Y-55901431D01*
X147343969Y-55901429D01*
X147142728Y-55769951D01*
X147142725Y-55769949D01*
X147142724Y-55769949D01*
X146922594Y-55673391D01*
X146922587Y-55673388D01*
X146689570Y-55614381D01*
X146689565Y-55614380D01*
X146689563Y-55614380D01*
X146560805Y-55603710D01*
X146509992Y-55599500D01*
X146509990Y-55599500D01*
X145090010Y-55599500D01*
X145090008Y-55599500D01*
X145030819Y-55604404D01*
X144910437Y-55614380D01*
X144910435Y-55614380D01*
X144910429Y-55614381D01*
X144677412Y-55673388D01*
X144677405Y-55673391D01*
X144457275Y-55769949D01*
X144256028Y-55901431D01*
X144079177Y-56064233D01*
X143931528Y-56253932D01*
X143931527Y-56253933D01*
X143817117Y-56465344D01*
X143817116Y-56465346D01*
X143739067Y-56692698D01*
X143739065Y-56692705D01*
X143726923Y-56765470D01*
X143699500Y-56929808D01*
X143699500Y-57170192D01*
X143704475Y-57200003D01*
X143739065Y-57407294D01*
X143739067Y-57407301D01*
X143817116Y-57634653D01*
X143817117Y-57634655D01*
X143927488Y-57838601D01*
X143931528Y-57846067D01*
X144079175Y-58035764D01*
X144256031Y-58198571D01*
X144265079Y-58204482D01*
X144311169Y-58258483D01*
X144320747Y-58328830D01*
X144301324Y-58379379D01*
X144187733Y-58551463D01*
X144098734Y-58759689D01*
X144067622Y-58895999D01*
X144067623Y-58896000D01*
X145427032Y-58896000D01*
X145376375Y-58983740D01*
X145346190Y-59115992D01*
X145356327Y-59251265D01*
X145405887Y-59377541D01*
X145426987Y-59404000D01*
X144064918Y-59404000D01*
X144068584Y-59431066D01*
X144138558Y-59646423D01*
X144245859Y-59845826D01*
X144387050Y-60022872D01*
X144540692Y-60157105D01*
X144578832Y-60216987D01*
X144578542Y-60287983D01*
X144541224Y-60345532D01*
X144541453Y-60345772D01*
X144540447Y-60346730D01*
X144539915Y-60347552D01*
X144537514Y-60349527D01*
X144537107Y-60349914D01*
X144399485Y-60508738D01*
X144399479Y-60508746D01*
X144294396Y-60690755D01*
X144294393Y-60690760D01*
X144225658Y-60889359D01*
X144225654Y-60889374D01*
X144195745Y-61097396D01*
X144205744Y-61307319D01*
X144205746Y-61307332D01*
X144255295Y-61511572D01*
X144255298Y-61511583D01*
X144292717Y-61593517D01*
X144342604Y-61702753D01*
X144388169Y-61766740D01*
X144464515Y-61873953D01*
X144465419Y-61874996D01*
X144465706Y-61875626D01*
X144467996Y-61878841D01*
X144467376Y-61879282D01*
X144494912Y-61939577D01*
X144484809Y-62009851D01*
X144438316Y-62063507D01*
X144425534Y-62070706D01*
X144343516Y-62110802D01*
X144343514Y-62110803D01*
X144260803Y-62193514D01*
X144260801Y-62193517D01*
X144209427Y-62298605D01*
X144199500Y-62366738D01*
X144199500Y-63933261D01*
X144209427Y-64001393D01*
X144209427Y-64001394D01*
X144216352Y-64015558D01*
X144228302Y-64085542D01*
X144200519Y-64150877D01*
X144188494Y-64163600D01*
X144079178Y-64264232D01*
X143931528Y-64453932D01*
X143931527Y-64453933D01*
X143817117Y-64665344D01*
X143817116Y-64665346D01*
X143739067Y-64892698D01*
X143739065Y-64892705D01*
X143719300Y-65011149D01*
X143699500Y-65129808D01*
X143699500Y-65370192D01*
X143721081Y-65499520D01*
X143739065Y-65607294D01*
X143739067Y-65607301D01*
X143817116Y-65834653D01*
X143817117Y-65834655D01*
X143920766Y-66026180D01*
X143931528Y-66046067D01*
X144079175Y-66235764D01*
X144256031Y-66398571D01*
X144457272Y-66530049D01*
X144677409Y-66626610D01*
X144677410Y-66626610D01*
X144677412Y-66626611D01*
X144910429Y-66685618D01*
X144910437Y-66685620D01*
X145070204Y-66698858D01*
X145090008Y-66700500D01*
X145090010Y-66700500D01*
X146509992Y-66700500D01*
X146528760Y-66698944D01*
X146689563Y-66685620D01*
X146922591Y-66626610D01*
X147142728Y-66530049D01*
X147204106Y-66489948D01*
X147272072Y-66469436D01*
X147340342Y-66488925D01*
X147387237Y-66542229D01*
X147399020Y-66595432D01*
X147399020Y-89981686D01*
X147379018Y-90049807D01*
X147362115Y-90070781D01*
X145642565Y-91790331D01*
X145580253Y-91824357D01*
X145509438Y-91819292D01*
X145452602Y-91776745D01*
X145427791Y-91710225D01*
X145429747Y-91677390D01*
X145457999Y-91530805D01*
X145458000Y-91530796D01*
X145458000Y-91404000D01*
X144625878Y-91404000D01*
X144668278Y-91357941D01*
X144718551Y-91243330D01*
X144728886Y-91118605D01*
X144698163Y-90997281D01*
X144631992Y-90896000D01*
X145458000Y-90896000D01*
X145458000Y-90822220D01*
X145457998Y-90822199D01*
X145442927Y-90664366D01*
X145442924Y-90664351D01*
X145383310Y-90461322D01*
X145286349Y-90273245D01*
X145155544Y-90106914D01*
X145155539Y-90106908D01*
X144995625Y-89968343D01*
X144995624Y-89968342D01*
X144812377Y-89862545D01*
X144812368Y-89862541D01*
X144612413Y-89793336D01*
X144612405Y-89793334D01*
X144604000Y-89792124D01*
X144604000Y-90872496D01*
X144530948Y-90815637D01*
X144412576Y-90775000D01*
X144318927Y-90775000D01*
X144226554Y-90790414D01*
X144116486Y-90849981D01*
X144096000Y-90872234D01*
X144096000Y-89796479D01*
X143985961Y-89823175D01*
X143985952Y-89823178D01*
X143793484Y-89911077D01*
X143793480Y-89911079D01*
X143621112Y-90033821D01*
X143621111Y-90033822D01*
X143475091Y-90186963D01*
X143444097Y-90235192D01*
X143390441Y-90281685D01*
X143320167Y-90291789D01*
X143255587Y-90262295D01*
X143230873Y-90228032D01*
X143228663Y-90229309D01*
X143224536Y-90222160D01*
X143224536Y-90222159D01*
X143128282Y-90096718D01*
X143002841Y-90000464D01*
X143001719Y-89999999D01*
X142856760Y-89939955D01*
X142780332Y-89929893D01*
X142739361Y-89924500D01*
X142739358Y-89924500D01*
X141960640Y-89924500D01*
X141960631Y-89924501D01*
X141854978Y-89938410D01*
X141843238Y-89939956D01*
X141697160Y-90000463D01*
X141697157Y-90000465D01*
X141571718Y-90096718D01*
X141475465Y-90222157D01*
X141475463Y-90222160D01*
X141414955Y-90368239D01*
X141399500Y-90485636D01*
X141399500Y-91814359D01*
X141399501Y-91814368D01*
X141409800Y-91892595D01*
X141414956Y-91931762D01*
X141475464Y-92077841D01*
X141571718Y-92203282D01*
X141697159Y-92299536D01*
X141843238Y-92360044D01*
X141960639Y-92375500D01*
X142739360Y-92375499D01*
X142856762Y-92360044D01*
X143002841Y-92299536D01*
X143128282Y-92203282D01*
X143224536Y-92077841D01*
X143224537Y-92077837D01*
X143228518Y-92070942D01*
X143279896Y-92021944D01*
X143349609Y-92008503D01*
X143415522Y-92034884D01*
X143436685Y-92056045D01*
X143544455Y-92193085D01*
X143544460Y-92193091D01*
X143704374Y-92331656D01*
X143704375Y-92331657D01*
X143887622Y-92437454D01*
X143887631Y-92437458D01*
X144087584Y-92506662D01*
X144087590Y-92506664D01*
X144096000Y-92507873D01*
X144096000Y-91427503D01*
X144169052Y-91484363D01*
X144287424Y-91525000D01*
X144381073Y-91525000D01*
X144473446Y-91509586D01*
X144583514Y-91450019D01*
X144604000Y-91427765D01*
X144604000Y-92503518D01*
X144606575Y-92505544D01*
X144668358Y-92508487D01*
X144726191Y-92549668D01*
X144752578Y-92615579D01*
X144739143Y-92685292D01*
X144716245Y-92716651D01*
X144040300Y-93392596D01*
X143977990Y-93426620D01*
X143951207Y-93429500D01*
X142428844Y-93429500D01*
X142421787Y-93429104D01*
X142382965Y-93424730D01*
X142382964Y-93424730D01*
X142324511Y-93435789D01*
X142265713Y-93444651D01*
X142257539Y-93447172D01*
X142249533Y-93449974D01*
X142196920Y-93477780D01*
X142143361Y-93503572D01*
X142136293Y-93508391D01*
X142129462Y-93513433D01*
X142087400Y-93555495D01*
X142043808Y-93595941D01*
X142037923Y-93603322D01*
X142037247Y-93602783D01*
X142027784Y-93615110D01*
X140640302Y-95002595D01*
X140577989Y-95036620D01*
X140551206Y-95039500D01*
X137900241Y-95039500D01*
X137832120Y-95019498D01*
X137816691Y-95007815D01*
X137752240Y-94950717D01*
X137612365Y-94877304D01*
X137612361Y-94877302D01*
X137458987Y-94839500D01*
X137458985Y-94839500D01*
X137301015Y-94839500D01*
X137301012Y-94839500D01*
X137147638Y-94877302D01*
X137147634Y-94877304D01*
X137007759Y-94950717D01*
X136889518Y-95055468D01*
X136889516Y-95055470D01*
X136799783Y-95185470D01*
X136799782Y-95185473D01*
X136743761Y-95333184D01*
X136724722Y-95489996D01*
X136724722Y-95490003D01*
X104252201Y-95490003D01*
X104138857Y-95399614D01*
X104138852Y-95399611D01*
X104138853Y-95399611D01*
X103911647Y-95268433D01*
X103911639Y-95268430D01*
X103667419Y-95172581D01*
X103667417Y-95172580D01*
X103411632Y-95114198D01*
X103215497Y-95099500D01*
X103215494Y-95099500D01*
X103084506Y-95099500D01*
X103084503Y-95099500D01*
X102888367Y-95114198D01*
X102632582Y-95172580D01*
X102632580Y-95172581D01*
X102388360Y-95268430D01*
X102388352Y-95268433D01*
X102161146Y-95399611D01*
X101956018Y-95563195D01*
X101777566Y-95755522D01*
X101777562Y-95755527D01*
X101629777Y-95972286D01*
X101629773Y-95972293D01*
X101515938Y-96208672D01*
X101515933Y-96208685D01*
X101438604Y-96459380D01*
X101421839Y-96570609D01*
X101399500Y-96718818D01*
X101399500Y-96981182D01*
X100560000Y-96981182D01*
X100560000Y-92067752D01*
X100580002Y-91999631D01*
X100633658Y-91953138D01*
X100703932Y-91943034D01*
X100744553Y-91956184D01*
X100783635Y-91976696D01*
X100783636Y-91976696D01*
X100783638Y-91976697D01*
X100860325Y-91995598D01*
X100937015Y-92014500D01*
X100977206Y-92014500D01*
X101045327Y-92034502D01*
X101066301Y-92051405D01*
X101712595Y-92697699D01*
X101746621Y-92760011D01*
X101749500Y-92786794D01*
X101749500Y-93313261D01*
X101759427Y-93381394D01*
X101810801Y-93486482D01*
X101810803Y-93486485D01*
X101893514Y-93569196D01*
X101893517Y-93569198D01*
X101998607Y-93620573D01*
X102066740Y-93630500D01*
X102066745Y-93630500D01*
X105283255Y-93630500D01*
X105283260Y-93630500D01*
X105351393Y-93620573D01*
X105456483Y-93569198D01*
X105539198Y-93486483D01*
X105590573Y-93381393D01*
X105600500Y-93313261D01*
X106799500Y-93313261D01*
X106809427Y-93381394D01*
X106860801Y-93486482D01*
X106860803Y-93486485D01*
X106943514Y-93569196D01*
X106943517Y-93569198D01*
X107048607Y-93620573D01*
X107116740Y-93630500D01*
X107616946Y-93630500D01*
X107685067Y-93650502D01*
X107713467Y-93675508D01*
X107766404Y-93738596D01*
X107849707Y-93808495D01*
X107947426Y-93890491D01*
X107947428Y-93890493D01*
X108152069Y-94008642D01*
X108152080Y-94008648D01*
X108333974Y-94074850D01*
X108374129Y-94089466D01*
X108606847Y-94130500D01*
X108606848Y-94130500D01*
X108843152Y-94130500D01*
X108843153Y-94130500D01*
X108867699Y-94126171D01*
X108889012Y-94122414D01*
X108910891Y-94120500D01*
X110828965Y-94120500D01*
X110828966Y-94120500D01*
X111005408Y-94105063D01*
X111233663Y-94043903D01*
X111447829Y-93944035D01*
X111641401Y-93808495D01*
X111808495Y-93641401D01*
X111944035Y-93447830D01*
X112043903Y-93233663D01*
X112105063Y-93005408D01*
X112125659Y-92770000D01*
X112105063Y-92534592D01*
X112043903Y-92306337D01*
X111944035Y-92092171D01*
X111944034Y-92092170D01*
X111944033Y-92092167D01*
X111808501Y-91898607D01*
X111808498Y-91898603D01*
X111808495Y-91898599D01*
X111662617Y-91752721D01*
X111628591Y-91690409D01*
X111633656Y-91619594D01*
X111676203Y-91562758D01*
X111719098Y-91541920D01*
X111823663Y-91513903D01*
X112037829Y-91414035D01*
X112047174Y-91407492D01*
X112231392Y-91278501D01*
X112231401Y-91278495D01*
X112398495Y-91111401D01*
X112534035Y-90917830D01*
X112633903Y-90703663D01*
X112695063Y-90475408D01*
X112715659Y-90240000D01*
X112695063Y-90004592D01*
X112633903Y-89776337D01*
X112534035Y-89562171D01*
X112534034Y-89562170D01*
X112534033Y-89562167D01*
X112398501Y-89368607D01*
X112398498Y-89368603D01*
X112398495Y-89368599D01*
X112231401Y-89201505D01*
X112231397Y-89201502D01*
X112231392Y-89201498D01*
X112037832Y-89065966D01*
X112037833Y-89065966D01*
X111823665Y-88966098D01*
X111823661Y-88966096D01*
X111595411Y-88904937D01*
X111463076Y-88893359D01*
X111418966Y-88889500D01*
X108666034Y-88889500D01*
X108630745Y-88892587D01*
X108489588Y-88904937D01*
X108261338Y-88966096D01*
X108261334Y-88966098D01*
X108047167Y-89065966D01*
X107853607Y-89201498D01*
X107853596Y-89201507D01*
X107702509Y-89352595D01*
X107640197Y-89386621D01*
X107613414Y-89389500D01*
X107116738Y-89389500D01*
X107048605Y-89399427D01*
X106943517Y-89450801D01*
X106943514Y-89450803D01*
X106860803Y-89533514D01*
X106860801Y-89533517D01*
X106809427Y-89638605D01*
X106799500Y-89706738D01*
X106799500Y-90773261D01*
X106809427Y-90841394D01*
X106860801Y-90946482D01*
X106860803Y-90946485D01*
X106943514Y-91029196D01*
X106943517Y-91029198D01*
X107048607Y-91080573D01*
X107116740Y-91090500D01*
X107613414Y-91090500D01*
X107681535Y-91110502D01*
X107702509Y-91127405D01*
X107853599Y-91278495D01*
X107853603Y-91278498D01*
X107853607Y-91278501D01*
X108034677Y-91405287D01*
X108079006Y-91460744D01*
X108086315Y-91531363D01*
X108054285Y-91594723D01*
X108034678Y-91611713D01*
X108010945Y-91628331D01*
X108006308Y-91631285D01*
X107957426Y-91659509D01*
X107957424Y-91659510D01*
X107914184Y-91695791D01*
X107909825Y-91699135D01*
X107863603Y-91731501D01*
X107863592Y-91731510D01*
X107702508Y-91892595D01*
X107640196Y-91926621D01*
X107613413Y-91929500D01*
X107116738Y-91929500D01*
X107048605Y-91939427D01*
X106943517Y-91990801D01*
X106943514Y-91990803D01*
X106860803Y-92073514D01*
X106860801Y-92073517D01*
X106809427Y-92178605D01*
X106799500Y-92246738D01*
X106799500Y-93313261D01*
X105600500Y-93313261D01*
X105600500Y-93313260D01*
X105600500Y-92246740D01*
X105590573Y-92178607D01*
X105539198Y-92073517D01*
X105539196Y-92073514D01*
X105456485Y-91990803D01*
X105456482Y-91990801D01*
X105351394Y-91939427D01*
X105283261Y-91929500D01*
X105283260Y-91929500D01*
X102270793Y-91929500D01*
X102202672Y-91909498D01*
X102181698Y-91892595D01*
X101839103Y-91550000D01*
X105619534Y-91550000D01*
X105639312Y-91700234D01*
X105697301Y-91840231D01*
X105697306Y-91840239D01*
X105789548Y-91960451D01*
X105909760Y-92052693D01*
X105909767Y-92052698D01*
X106049764Y-92110687D01*
X106200000Y-92130466D01*
X106350236Y-92110687D01*
X106490233Y-92052698D01*
X106610451Y-91960451D01*
X106702698Y-91840233D01*
X106760687Y-91700236D01*
X106780466Y-91550000D01*
X106775713Y-91513901D01*
X106762566Y-91414035D01*
X106760687Y-91399764D01*
X106702698Y-91259767D01*
X106702693Y-91259760D01*
X106610451Y-91139548D01*
X106490239Y-91047306D01*
X106490231Y-91047301D01*
X106350234Y-90989312D01*
X106200000Y-90969534D01*
X106049765Y-90989312D01*
X105909768Y-91047301D01*
X105909760Y-91047306D01*
X105789548Y-91139548D01*
X105697306Y-91259760D01*
X105697301Y-91259768D01*
X105639312Y-91399765D01*
X105619534Y-91549999D01*
X105619534Y-91550000D01*
X101839103Y-91550000D01*
X101704535Y-91415432D01*
X101670509Y-91353120D01*
X101668549Y-91341524D01*
X101652238Y-91207184D01*
X101626587Y-91139548D01*
X101604226Y-91080589D01*
X101598773Y-91009805D01*
X101632455Y-90947307D01*
X101694579Y-90912940D01*
X101765422Y-90917615D01*
X101811134Y-90946816D01*
X101893514Y-91029196D01*
X101893517Y-91029198D01*
X101998607Y-91080573D01*
X102066740Y-91090500D01*
X102066745Y-91090500D01*
X105283255Y-91090500D01*
X105283260Y-91090500D01*
X105351393Y-91080573D01*
X105456483Y-91029198D01*
X105539198Y-90946483D01*
X105590573Y-90841393D01*
X105600500Y-90773260D01*
X105600500Y-89706740D01*
X105590573Y-89638607D01*
X105539198Y-89533517D01*
X105539196Y-89533514D01*
X105456485Y-89450803D01*
X105456482Y-89450801D01*
X105351394Y-89399427D01*
X105283261Y-89389500D01*
X105283260Y-89389500D01*
X102153793Y-89389500D01*
X102085672Y-89369498D01*
X102039179Y-89315842D01*
X102029075Y-89245568D01*
X102058569Y-89180988D01*
X102064698Y-89174405D01*
X102262703Y-88976400D01*
X105619534Y-88976400D01*
X105639312Y-89126634D01*
X105697301Y-89266631D01*
X105697306Y-89266639D01*
X105789548Y-89386851D01*
X105872892Y-89450803D01*
X105909767Y-89479098D01*
X106049764Y-89537087D01*
X106200000Y-89556866D01*
X106350236Y-89537087D01*
X106490233Y-89479098D01*
X106610451Y-89386851D01*
X106702698Y-89266633D01*
X106760687Y-89126636D01*
X106780466Y-88976400D01*
X106780058Y-88973304D01*
X106760687Y-88826165D01*
X106702698Y-88686168D01*
X106702698Y-88686167D01*
X106640817Y-88605522D01*
X106610451Y-88565948D01*
X106490239Y-88473706D01*
X106490231Y-88473701D01*
X106350234Y-88415712D01*
X106200000Y-88395934D01*
X106049765Y-88415712D01*
X105909768Y-88473701D01*
X105909760Y-88473706D01*
X105789548Y-88565948D01*
X105697306Y-88686160D01*
X105697301Y-88686168D01*
X105639312Y-88826165D01*
X105619534Y-88976399D01*
X105619534Y-88976400D01*
X102262703Y-88976400D01*
X102651698Y-88587405D01*
X102714010Y-88553379D01*
X102740793Y-88550500D01*
X105283255Y-88550500D01*
X105283260Y-88550500D01*
X105351393Y-88540573D01*
X105456483Y-88489198D01*
X105539198Y-88406483D01*
X105590573Y-88301393D01*
X105600500Y-88233261D01*
X106799500Y-88233261D01*
X106809427Y-88301394D01*
X106860801Y-88406482D01*
X106860803Y-88406485D01*
X106943514Y-88489196D01*
X106943517Y-88489198D01*
X107048607Y-88540573D01*
X107116740Y-88550500D01*
X107116745Y-88550500D01*
X110333255Y-88550500D01*
X110333260Y-88550500D01*
X110401393Y-88540573D01*
X110506483Y-88489198D01*
X110589198Y-88406483D01*
X110640573Y-88301393D01*
X110646846Y-88258333D01*
X110676460Y-88193809D01*
X110736258Y-88155538D01*
X110771530Y-88150500D01*
X110844607Y-88150500D01*
X110912728Y-88170502D01*
X110928160Y-88182187D01*
X111037760Y-88279283D01*
X111177635Y-88352696D01*
X111177636Y-88352696D01*
X111177638Y-88352697D01*
X111254324Y-88371598D01*
X111331015Y-88390500D01*
X111331017Y-88390500D01*
X111488983Y-88390500D01*
X111488985Y-88390500D01*
X111642365Y-88352696D01*
X111782240Y-88279283D01*
X111900483Y-88174530D01*
X111990220Y-88044523D01*
X112046237Y-87896818D01*
X112046237Y-87896817D01*
X112046238Y-87896815D01*
X112065278Y-87740003D01*
X112065278Y-87739996D01*
X112046238Y-87583184D01*
X112038392Y-87562498D01*
X111990220Y-87435477D01*
X111990216Y-87435472D01*
X111990216Y-87435470D01*
X111900483Y-87305470D01*
X111900481Y-87305468D01*
X111782240Y-87200717D01*
X111642365Y-87127304D01*
X111642361Y-87127302D01*
X111488987Y-87089500D01*
X111488985Y-87089500D01*
X111331015Y-87089500D01*
X111331012Y-87089500D01*
X111177638Y-87127302D01*
X111177634Y-87127304D01*
X111049860Y-87194366D01*
X111037760Y-87200717D01*
X111018460Y-87217814D01*
X110954208Y-87248013D01*
X110934910Y-87249500D01*
X110771530Y-87249500D01*
X110703409Y-87229498D01*
X110656916Y-87175842D01*
X110646847Y-87141668D01*
X110640573Y-87098607D01*
X110589198Y-86993517D01*
X110589196Y-86993514D01*
X110506485Y-86910803D01*
X110506482Y-86910801D01*
X110401394Y-86859427D01*
X110333261Y-86849500D01*
X110333260Y-86849500D01*
X107116740Y-86849500D01*
X107116738Y-86849500D01*
X107048605Y-86859427D01*
X106943517Y-86910801D01*
X106943514Y-86910803D01*
X106860803Y-86993514D01*
X106860801Y-86993517D01*
X106809427Y-87098605D01*
X106799500Y-87166738D01*
X106799500Y-88233261D01*
X105600500Y-88233261D01*
X105600500Y-88233260D01*
X105600500Y-87166740D01*
X105590573Y-87098607D01*
X105539198Y-86993517D01*
X105539196Y-86993514D01*
X105456485Y-86910803D01*
X105456482Y-86910801D01*
X105351394Y-86859427D01*
X105283261Y-86849500D01*
X105283260Y-86849500D01*
X102066740Y-86849500D01*
X102066738Y-86849500D01*
X101998605Y-86859427D01*
X101893517Y-86910801D01*
X101893514Y-86910803D01*
X101810803Y-86993514D01*
X101810801Y-86993517D01*
X101759427Y-87098605D01*
X101749500Y-87166738D01*
X101749500Y-88163207D01*
X101729498Y-88231328D01*
X101712595Y-88252302D01*
X101066302Y-88898595D01*
X101003990Y-88932621D01*
X100977207Y-88935500D01*
X100937012Y-88935500D01*
X100783638Y-88973302D01*
X100783633Y-88973305D01*
X100744554Y-88993815D01*
X100674941Y-89007761D01*
X100608839Y-88981857D01*
X100567235Y-88924328D01*
X100560000Y-88882247D01*
X100560000Y-85717752D01*
X100580002Y-85649631D01*
X100633658Y-85603138D01*
X100703932Y-85593034D01*
X100744553Y-85606184D01*
X100783635Y-85626696D01*
X100783636Y-85626696D01*
X100783638Y-85626697D01*
X100860324Y-85645598D01*
X100937015Y-85664500D01*
X100937017Y-85664500D01*
X101094983Y-85664500D01*
X101094985Y-85664500D01*
X101248365Y-85626696D01*
X101248367Y-85626695D01*
X101251727Y-85624932D01*
X101255414Y-85624023D01*
X101255494Y-85623993D01*
X101255497Y-85624002D01*
X101310281Y-85610500D01*
X101628470Y-85610500D01*
X101696591Y-85630502D01*
X101743084Y-85684158D01*
X101753152Y-85718331D01*
X101758139Y-85752559D01*
X101759427Y-85761394D01*
X101810801Y-85866482D01*
X101810803Y-85866485D01*
X101893514Y-85949196D01*
X101893517Y-85949198D01*
X101998607Y-86000573D01*
X102066740Y-86010500D01*
X102066745Y-86010500D01*
X105283255Y-86010500D01*
X105283260Y-86010500D01*
X105351393Y-86000573D01*
X105456483Y-85949198D01*
X105539198Y-85866483D01*
X105590573Y-85761393D01*
X105600500Y-85693261D01*
X106799500Y-85693261D01*
X106809427Y-85761394D01*
X106860801Y-85866482D01*
X106860803Y-85866485D01*
X106943514Y-85949196D01*
X106943517Y-85949198D01*
X107048607Y-86000573D01*
X107116740Y-86010500D01*
X107116745Y-86010500D01*
X110333255Y-86010500D01*
X110333260Y-86010500D01*
X110401393Y-86000573D01*
X110506483Y-85949198D01*
X110589198Y-85866483D01*
X110640573Y-85761393D01*
X110646846Y-85718333D01*
X110676460Y-85653809D01*
X110736258Y-85615538D01*
X110771530Y-85610500D01*
X110809864Y-85610500D01*
X110877985Y-85630502D01*
X110913559Y-85664923D01*
X110939517Y-85702530D01*
X111057760Y-85807283D01*
X111197635Y-85880696D01*
X111197636Y-85880696D01*
X111197638Y-85880697D01*
X111274324Y-85899598D01*
X111351015Y-85918500D01*
X111351017Y-85918500D01*
X111508983Y-85918500D01*
X111508985Y-85918500D01*
X111662365Y-85880696D01*
X111802240Y-85807283D01*
X111920483Y-85702530D01*
X112010220Y-85572523D01*
X112066237Y-85424818D01*
X112066237Y-85424817D01*
X112066238Y-85424815D01*
X112085278Y-85268003D01*
X112085278Y-85267996D01*
X112066238Y-85111184D01*
X112058392Y-85090498D01*
X112010220Y-84963477D01*
X112010216Y-84963472D01*
X112010216Y-84963470D01*
X111920483Y-84833470D01*
X111920481Y-84833468D01*
X111802240Y-84728717D01*
X111662365Y-84655304D01*
X111662361Y-84655302D01*
X111508987Y-84617500D01*
X111508985Y-84617500D01*
X111351015Y-84617500D01*
X111351012Y-84617500D01*
X111197638Y-84655302D01*
X111197634Y-84655304D01*
X111181487Y-84663779D01*
X111132485Y-84689498D01*
X111121874Y-84695067D01*
X111063318Y-84709500D01*
X110771530Y-84709500D01*
X110703409Y-84689498D01*
X110656916Y-84635842D01*
X110646847Y-84601668D01*
X110640573Y-84558607D01*
X110589198Y-84453517D01*
X110589196Y-84453514D01*
X110506485Y-84370803D01*
X110506482Y-84370801D01*
X110401394Y-84319427D01*
X110333261Y-84309500D01*
X110333260Y-84309500D01*
X107116740Y-84309500D01*
X107116738Y-84309500D01*
X107048605Y-84319427D01*
X106943517Y-84370801D01*
X106943514Y-84370803D01*
X106860803Y-84453514D01*
X106860801Y-84453517D01*
X106809427Y-84558605D01*
X106799500Y-84626738D01*
X106799500Y-85693261D01*
X105600500Y-85693261D01*
X105600500Y-85693260D01*
X105600500Y-84626740D01*
X105590573Y-84558607D01*
X105539198Y-84453517D01*
X105539196Y-84453514D01*
X105456485Y-84370803D01*
X105456482Y-84370801D01*
X105351394Y-84319427D01*
X105283261Y-84309500D01*
X105283260Y-84309500D01*
X102066740Y-84309500D01*
X102066738Y-84309500D01*
X101998605Y-84319427D01*
X101893517Y-84370801D01*
X101893514Y-84370803D01*
X101810803Y-84453514D01*
X101810801Y-84453517D01*
X101759426Y-84558606D01*
X101759426Y-84558607D01*
X101759060Y-84561122D01*
X101757803Y-84563859D01*
X101756537Y-84567958D01*
X101755998Y-84567791D01*
X101729443Y-84625646D01*
X101669643Y-84663915D01*
X101598647Y-84663779D01*
X101538994Y-84625280D01*
X101530681Y-84614527D01*
X101506483Y-84579470D01*
X101506481Y-84579468D01*
X101388240Y-84474717D01*
X101248365Y-84401304D01*
X101248361Y-84401302D01*
X101094987Y-84363500D01*
X101094985Y-84363500D01*
X100937015Y-84363500D01*
X100937012Y-84363500D01*
X100783638Y-84401302D01*
X100783633Y-84401305D01*
X100744554Y-84421815D01*
X100674941Y-84435761D01*
X100608839Y-84409857D01*
X100567235Y-84352328D01*
X100560000Y-84310247D01*
X100560000Y-83153261D01*
X101749500Y-83153261D01*
X101759427Y-83221394D01*
X101810801Y-83326482D01*
X101810803Y-83326485D01*
X101893514Y-83409196D01*
X101893517Y-83409198D01*
X101998607Y-83460573D01*
X102066740Y-83470500D01*
X102066745Y-83470500D01*
X105283255Y-83470500D01*
X105283260Y-83470500D01*
X105351393Y-83460573D01*
X105456483Y-83409198D01*
X105539198Y-83326483D01*
X105568286Y-83266981D01*
X105616172Y-83214570D01*
X105684795Y-83196366D01*
X105752366Y-83218152D01*
X105765032Y-83228007D01*
X105777760Y-83239283D01*
X105917635Y-83312696D01*
X105917636Y-83312696D01*
X105917638Y-83312697D01*
X105973568Y-83326482D01*
X106071015Y-83350500D01*
X106071017Y-83350500D01*
X106228983Y-83350500D01*
X106228985Y-83350500D01*
X106382365Y-83312696D01*
X106522240Y-83239283D01*
X106605794Y-83165260D01*
X106670045Y-83135061D01*
X106740426Y-83144392D01*
X106794589Y-83190293D01*
X106805120Y-83212606D01*
X106805129Y-83212602D01*
X106860801Y-83326482D01*
X106860803Y-83326485D01*
X106943514Y-83409196D01*
X106943517Y-83409198D01*
X107048607Y-83460573D01*
X107116740Y-83470500D01*
X107116745Y-83470500D01*
X110333255Y-83470500D01*
X110333260Y-83470500D01*
X110401393Y-83460573D01*
X110506483Y-83409198D01*
X110589198Y-83326483D01*
X110640573Y-83221393D01*
X110646846Y-83178333D01*
X110676460Y-83113809D01*
X110736258Y-83075538D01*
X110771530Y-83070500D01*
X111156182Y-83070500D01*
X111214737Y-83084932D01*
X111267635Y-83112696D01*
X111267636Y-83112696D01*
X111267638Y-83112697D01*
X111344325Y-83131598D01*
X111421015Y-83150500D01*
X111421017Y-83150500D01*
X111578983Y-83150500D01*
X111578985Y-83150500D01*
X111732365Y-83112696D01*
X111872240Y-83039283D01*
X111990483Y-82934530D01*
X112080220Y-82804523D01*
X112136237Y-82656818D01*
X112136237Y-82656817D01*
X112136238Y-82656815D01*
X112155278Y-82500003D01*
X112155278Y-82499996D01*
X112136238Y-82343184D01*
X112110671Y-82275771D01*
X112080220Y-82195477D01*
X112080216Y-82195472D01*
X112080216Y-82195470D01*
X111990483Y-82065470D01*
X111990481Y-82065468D01*
X111872240Y-81960717D01*
X111732365Y-81887304D01*
X111732361Y-81887302D01*
X111578987Y-81849500D01*
X111578985Y-81849500D01*
X111421015Y-81849500D01*
X111421012Y-81849500D01*
X111267638Y-81887302D01*
X111267634Y-81887304D01*
X111127759Y-81960717D01*
X111009517Y-82065469D01*
X110994446Y-82087304D01*
X110975276Y-82115075D01*
X110920120Y-82159775D01*
X110871581Y-82169500D01*
X110771530Y-82169500D01*
X110703409Y-82149498D01*
X110656916Y-82095842D01*
X110646847Y-82061668D01*
X110640573Y-82018607D01*
X110589198Y-81913517D01*
X110589196Y-81913514D01*
X110506485Y-81830803D01*
X110506482Y-81830801D01*
X110401394Y-81779427D01*
X110333261Y-81769500D01*
X110333260Y-81769500D01*
X107116740Y-81769500D01*
X107116738Y-81769500D01*
X107048605Y-81779427D01*
X106943517Y-81830801D01*
X106943514Y-81830803D01*
X106860803Y-81913514D01*
X106860801Y-81913517D01*
X106809427Y-82018605D01*
X106799500Y-82086738D01*
X106799500Y-82126386D01*
X106779498Y-82194507D01*
X106725842Y-82241000D01*
X106655568Y-82251104D01*
X106590988Y-82221610D01*
X106589948Y-82220699D01*
X106522243Y-82160719D01*
X106522242Y-82160718D01*
X106382365Y-82087304D01*
X106382361Y-82087302D01*
X106228987Y-82049500D01*
X106228985Y-82049500D01*
X106071015Y-82049500D01*
X106071012Y-82049500D01*
X105917638Y-82087302D01*
X105917634Y-82087304D01*
X105864722Y-82115075D01*
X105788524Y-82155067D01*
X105729970Y-82169500D01*
X105721530Y-82169500D01*
X105653409Y-82149498D01*
X105606916Y-82095842D01*
X105596847Y-82061668D01*
X105590573Y-82018607D01*
X105539198Y-81913517D01*
X105539196Y-81913514D01*
X105456485Y-81830803D01*
X105456482Y-81830801D01*
X105351394Y-81779427D01*
X105283261Y-81769500D01*
X105283260Y-81769500D01*
X102066740Y-81769500D01*
X102066738Y-81769500D01*
X101998605Y-81779427D01*
X101893517Y-81830801D01*
X101893514Y-81830803D01*
X101810803Y-81913514D01*
X101810801Y-81913517D01*
X101759427Y-82018605D01*
X101749500Y-82086738D01*
X101749500Y-83153261D01*
X100560000Y-83153261D01*
X100560000Y-80613261D01*
X101749500Y-80613261D01*
X101759427Y-80681394D01*
X101810801Y-80786482D01*
X101810803Y-80786485D01*
X101893514Y-80869196D01*
X101893517Y-80869198D01*
X101998607Y-80920573D01*
X102066740Y-80930500D01*
X102066745Y-80930500D01*
X105283255Y-80930500D01*
X105283260Y-80930500D01*
X105351393Y-80920573D01*
X105456483Y-80869198D01*
X105539198Y-80786483D01*
X105571696Y-80720004D01*
X105619582Y-80667592D01*
X105688205Y-80649388D01*
X105755777Y-80671174D01*
X105768444Y-80681030D01*
X105777760Y-80689283D01*
X105917635Y-80762696D01*
X105917636Y-80762696D01*
X105917638Y-80762697D01*
X105994325Y-80781598D01*
X106071015Y-80800500D01*
X106071017Y-80800500D01*
X106228983Y-80800500D01*
X106228985Y-80800500D01*
X106382365Y-80762696D01*
X106522240Y-80689283D01*
X106603369Y-80617409D01*
X106667619Y-80587210D01*
X106738000Y-80596541D01*
X106792163Y-80642442D01*
X106807302Y-80674518D01*
X106809427Y-80681393D01*
X106860801Y-80786482D01*
X106860803Y-80786485D01*
X106943514Y-80869196D01*
X106943517Y-80869198D01*
X107048607Y-80920573D01*
X107116740Y-80930500D01*
X107116745Y-80930500D01*
X110333255Y-80930500D01*
X110333260Y-80930500D01*
X110401393Y-80920573D01*
X110506483Y-80869198D01*
X110589198Y-80786483D01*
X110640573Y-80681393D01*
X110643932Y-80658334D01*
X110673546Y-80593810D01*
X110733343Y-80555538D01*
X110768616Y-80550500D01*
X111079759Y-80550500D01*
X111147880Y-80570502D01*
X111163308Y-80582184D01*
X111227760Y-80639283D01*
X111367635Y-80712696D01*
X111367636Y-80712696D01*
X111367638Y-80712697D01*
X111444325Y-80731598D01*
X111521015Y-80750500D01*
X111521017Y-80750500D01*
X111678983Y-80750500D01*
X111678985Y-80750500D01*
X111832365Y-80712696D01*
X111972240Y-80639283D01*
X112090483Y-80534530D01*
X112180220Y-80404523D01*
X112236237Y-80256818D01*
X112236237Y-80256817D01*
X112236238Y-80256815D01*
X112255278Y-80100003D01*
X112255278Y-80099996D01*
X112236238Y-79943184D01*
X112199182Y-79845477D01*
X112180220Y-79795477D01*
X112180216Y-79795472D01*
X112180216Y-79795470D01*
X112090483Y-79665470D01*
X112090481Y-79665468D01*
X111972240Y-79560717D01*
X111832365Y-79487304D01*
X111832361Y-79487302D01*
X111678987Y-79449500D01*
X111678985Y-79449500D01*
X111521015Y-79449500D01*
X111521012Y-79449500D01*
X111367638Y-79487302D01*
X111367634Y-79487304D01*
X111254379Y-79546746D01*
X111227760Y-79560717D01*
X111163310Y-79617813D01*
X111099058Y-79648013D01*
X111079759Y-79649500D01*
X110774444Y-79649500D01*
X110706323Y-79629498D01*
X110659830Y-79575842D01*
X110649761Y-79541670D01*
X110640573Y-79478607D01*
X110589198Y-79373517D01*
X110589196Y-79373514D01*
X110506485Y-79290803D01*
X110506482Y-79290801D01*
X110401394Y-79239427D01*
X110333261Y-79229500D01*
X110333260Y-79229500D01*
X107116740Y-79229500D01*
X107116738Y-79229500D01*
X107048605Y-79239427D01*
X106943517Y-79290801D01*
X106943514Y-79290803D01*
X106860803Y-79373514D01*
X106860801Y-79373517D01*
X106809427Y-79478605D01*
X106799500Y-79546738D01*
X106799499Y-79546746D01*
X106799499Y-79576390D01*
X106779495Y-79644510D01*
X106725838Y-79691001D01*
X106655564Y-79701103D01*
X106590984Y-79671608D01*
X106589946Y-79670699D01*
X106584041Y-79665468D01*
X106522240Y-79610717D01*
X106382365Y-79537304D01*
X106382361Y-79537302D01*
X106228987Y-79499500D01*
X106228985Y-79499500D01*
X106071015Y-79499500D01*
X106071012Y-79499500D01*
X105917638Y-79537302D01*
X105917634Y-79537304D01*
X105779332Y-79609892D01*
X105709718Y-79623839D01*
X105643616Y-79597936D01*
X105602011Y-79540407D01*
X105596093Y-79516495D01*
X105590573Y-79478607D01*
X105539198Y-79373517D01*
X105539196Y-79373514D01*
X105456485Y-79290803D01*
X105456482Y-79290801D01*
X105351394Y-79239427D01*
X105283261Y-79229500D01*
X105283260Y-79229500D01*
X102066740Y-79229500D01*
X102066738Y-79229500D01*
X101998605Y-79239427D01*
X101893517Y-79290801D01*
X101893514Y-79290803D01*
X101810803Y-79373514D01*
X101810801Y-79373517D01*
X101759427Y-79478605D01*
X101749500Y-79546738D01*
X101749500Y-80613261D01*
X100560000Y-80613261D01*
X100560000Y-78159665D01*
X100580002Y-78091544D01*
X100633658Y-78045051D01*
X100703932Y-78034947D01*
X100744554Y-78048097D01*
X100867635Y-78112696D01*
X100867636Y-78112696D01*
X100867638Y-78112697D01*
X100924643Y-78126747D01*
X101021015Y-78150500D01*
X101021017Y-78150500D01*
X101178983Y-78150500D01*
X101178985Y-78150500D01*
X101332365Y-78112696D01*
X101472240Y-78039283D01*
X101489022Y-78024414D01*
X101518402Y-77998388D01*
X101582655Y-77968187D01*
X101601955Y-77966700D01*
X101625002Y-77966700D01*
X101693123Y-77986702D01*
X101739616Y-78040358D01*
X101749686Y-78074534D01*
X101759427Y-78141394D01*
X101810801Y-78246482D01*
X101810803Y-78246485D01*
X101893514Y-78329196D01*
X101893517Y-78329198D01*
X101998607Y-78380573D01*
X102066740Y-78390500D01*
X102066745Y-78390500D01*
X105283255Y-78390500D01*
X105283260Y-78390500D01*
X105351393Y-78380573D01*
X105456483Y-78329198D01*
X105539198Y-78246483D01*
X105590573Y-78141393D01*
X105600500Y-78073261D01*
X106799500Y-78073261D01*
X106809427Y-78141394D01*
X106860801Y-78246482D01*
X106860803Y-78246485D01*
X106943514Y-78329196D01*
X106943517Y-78329198D01*
X107048607Y-78380573D01*
X107116740Y-78390500D01*
X107116745Y-78390500D01*
X110333255Y-78390500D01*
X110333260Y-78390500D01*
X110401393Y-78380573D01*
X110506483Y-78329198D01*
X110589198Y-78246483D01*
X110622110Y-78179159D01*
X110669995Y-78126747D01*
X110738618Y-78108543D01*
X110765459Y-78112160D01*
X110824643Y-78126747D01*
X110921015Y-78150500D01*
X110921017Y-78150500D01*
X111078983Y-78150500D01*
X111078985Y-78150500D01*
X111232365Y-78112696D01*
X111372240Y-78039283D01*
X111490483Y-77934530D01*
X111580220Y-77804523D01*
X111636237Y-77656818D01*
X111636237Y-77656817D01*
X111636238Y-77656815D01*
X111655278Y-77500003D01*
X111655278Y-77499996D01*
X111636238Y-77343184D01*
X111628392Y-77322498D01*
X111580220Y-77195477D01*
X111580216Y-77195472D01*
X111580216Y-77195470D01*
X111490483Y-77065470D01*
X111490481Y-77065468D01*
X111372240Y-76960717D01*
X111232365Y-76887304D01*
X111232361Y-76887302D01*
X111078987Y-76849500D01*
X111078985Y-76849500D01*
X110921015Y-76849500D01*
X110921012Y-76849500D01*
X110767638Y-76887302D01*
X110767635Y-76887304D01*
X110761363Y-76890596D01*
X110691749Y-76904541D01*
X110625647Y-76878636D01*
X110595627Y-76841754D01*
X110595265Y-76842014D01*
X110591167Y-76836275D01*
X110589612Y-76834364D01*
X110589197Y-76833515D01*
X110506485Y-76750803D01*
X110506482Y-76750801D01*
X110401394Y-76699427D01*
X110333261Y-76689500D01*
X110333260Y-76689500D01*
X107116740Y-76689500D01*
X107116738Y-76689500D01*
X107048605Y-76699427D01*
X106943517Y-76750801D01*
X106943514Y-76750803D01*
X106860803Y-76833514D01*
X106860801Y-76833517D01*
X106809427Y-76938605D01*
X106799500Y-77006738D01*
X106799500Y-78073261D01*
X105600500Y-78073261D01*
X105600500Y-78073260D01*
X105600500Y-77006740D01*
X105590573Y-76938607D01*
X105539198Y-76833517D01*
X105539196Y-76833514D01*
X105456485Y-76750803D01*
X105456482Y-76750801D01*
X105351394Y-76699427D01*
X105283261Y-76689500D01*
X105283260Y-76689500D01*
X102066740Y-76689500D01*
X102066738Y-76689500D01*
X101998605Y-76699427D01*
X101893517Y-76750801D01*
X101893514Y-76750803D01*
X101810803Y-76833514D01*
X101810801Y-76833517D01*
X101759426Y-76938606D01*
X101759426Y-76938607D01*
X101757373Y-76952698D01*
X101727757Y-77017222D01*
X101667957Y-77055492D01*
X101596961Y-77055356D01*
X101549137Y-77028841D01*
X101472240Y-76960717D01*
X101332365Y-76887304D01*
X101332361Y-76887302D01*
X101178987Y-76849500D01*
X101178985Y-76849500D01*
X101021015Y-76849500D01*
X101021012Y-76849500D01*
X100867638Y-76887302D01*
X100867630Y-76887306D01*
X100744555Y-76951901D01*
X100674942Y-76965848D01*
X100608839Y-76939944D01*
X100567235Y-76882415D01*
X100560000Y-76840334D01*
X100560000Y-76500003D01*
X116894722Y-76500003D01*
X116913761Y-76656815D01*
X116929922Y-76699427D01*
X116969780Y-76804523D01*
X116969781Y-76804525D01*
X116969782Y-76804526D01*
X116969783Y-76804529D01*
X117059516Y-76934529D01*
X117059518Y-76934531D01*
X117089076Y-76960717D01*
X117177760Y-77039283D01*
X117317635Y-77112696D01*
X117317636Y-77112696D01*
X117317638Y-77112697D01*
X117394324Y-77131598D01*
X117471015Y-77150500D01*
X117471017Y-77150500D01*
X117628983Y-77150500D01*
X117628985Y-77150500D01*
X117782365Y-77112696D01*
X117922240Y-77039283D01*
X117922243Y-77039279D01*
X117928514Y-77034952D01*
X117929233Y-77035994D01*
X117986493Y-77009075D01*
X118056874Y-77018402D01*
X118089355Y-77039275D01*
X118127756Y-77073295D01*
X118127757Y-77073296D01*
X118127758Y-77073296D01*
X118127760Y-77073298D01*
X118267635Y-77146711D01*
X118267636Y-77146711D01*
X118267638Y-77146712D01*
X118344325Y-77165613D01*
X118421015Y-77184515D01*
X118421017Y-77184515D01*
X118578983Y-77184515D01*
X118578985Y-77184515D01*
X118732365Y-77146711D01*
X118872240Y-77073298D01*
X118990483Y-76968545D01*
X119049934Y-76882415D01*
X119079931Y-76838958D01*
X119135090Y-76794258D01*
X119183627Y-76784534D01*
X128416373Y-76784534D01*
X128484494Y-76804536D01*
X128520069Y-76838958D01*
X128553442Y-76887306D01*
X128609517Y-76968545D01*
X128727760Y-77073298D01*
X128867635Y-77146711D01*
X128867636Y-77146711D01*
X128867638Y-77146712D01*
X128944325Y-77165613D01*
X129021015Y-77184515D01*
X129021017Y-77184515D01*
X129178983Y-77184515D01*
X129178985Y-77184515D01*
X129332365Y-77146711D01*
X129472240Y-77073298D01*
X129590483Y-76968545D01*
X129649934Y-76882415D01*
X129679931Y-76838958D01*
X129735090Y-76794258D01*
X129783627Y-76784534D01*
X133566132Y-76784534D01*
X136895240Y-76784534D01*
X136963361Y-76804536D01*
X136984335Y-76821439D01*
X142938075Y-82775178D01*
X142972101Y-82837490D01*
X142974980Y-82864273D01*
X142974980Y-84596636D01*
X142974584Y-84603692D01*
X142970210Y-84642515D01*
X142981268Y-84700959D01*
X142986143Y-84733305D01*
X142990133Y-84759771D01*
X142992640Y-84767901D01*
X142995458Y-84775954D01*
X143023256Y-84828552D01*
X143049055Y-84882123D01*
X143053866Y-84889179D01*
X143058915Y-84896020D01*
X143100976Y-84938080D01*
X143141425Y-84981674D01*
X143141426Y-84981675D01*
X143148809Y-84987562D01*
X143148268Y-84988240D01*
X143160597Y-84997701D01*
X143446003Y-85283107D01*
X143480029Y-85345419D01*
X143474964Y-85416234D01*
X143474399Y-85417719D01*
X143415383Y-85570053D01*
X143404795Y-85626695D01*
X143374500Y-85788757D01*
X143374500Y-86011243D01*
X143409664Y-86199352D01*
X143415383Y-86229946D01*
X143495751Y-86437396D01*
X143495759Y-86437412D01*
X143612874Y-86626560D01*
X143612875Y-86626561D01*
X143762764Y-86790982D01*
X143940310Y-86925057D01*
X143940315Y-86925061D01*
X144139462Y-87024225D01*
X144139468Y-87024227D01*
X144139472Y-87024229D01*
X144353464Y-87085115D01*
X144519497Y-87100500D01*
X144519504Y-87100500D01*
X144880496Y-87100500D01*
X144880503Y-87100500D01*
X145046536Y-87085115D01*
X145260528Y-87024229D01*
X145260533Y-87024226D01*
X145260537Y-87024225D01*
X145459684Y-86925061D01*
X145459685Y-86925059D01*
X145459689Y-86925058D01*
X145637236Y-86790981D01*
X145787124Y-86626562D01*
X145904247Y-86437401D01*
X145984618Y-86229940D01*
X146025500Y-86011243D01*
X146025500Y-85788757D01*
X145984618Y-85570060D01*
X145984616Y-85570056D01*
X145984616Y-85570053D01*
X145928351Y-85424818D01*
X145904247Y-85362599D01*
X145892873Y-85344230D01*
X145787125Y-85173439D01*
X145787124Y-85173438D01*
X145637235Y-85009017D01*
X145459689Y-84874942D01*
X145459684Y-84874938D01*
X145260537Y-84775774D01*
X145260525Y-84775770D01*
X145244423Y-84771188D01*
X145184379Y-84733305D01*
X145154347Y-84668973D01*
X145163863Y-84598617D01*
X145209906Y-84544574D01*
X145244427Y-84528810D01*
X145260528Y-84524229D01*
X145260534Y-84524225D01*
X145260537Y-84524225D01*
X145459684Y-84425061D01*
X145459685Y-84425059D01*
X145459689Y-84425058D01*
X145637236Y-84290981D01*
X145787124Y-84126562D01*
X145904247Y-83937401D01*
X145984618Y-83729940D01*
X146025500Y-83511243D01*
X146025500Y-83288757D01*
X145984618Y-83070060D01*
X145984616Y-83070056D01*
X145984616Y-83070053D01*
X145932113Y-82934529D01*
X145904247Y-82862599D01*
X145888700Y-82837490D01*
X145787125Y-82673439D01*
X145787124Y-82673438D01*
X145637235Y-82509017D01*
X145570336Y-82458498D01*
X145528029Y-82401485D01*
X145523261Y-82330648D01*
X145557547Y-82268479D01*
X145606635Y-82238343D01*
X145747525Y-82191657D01*
X145898339Y-82098634D01*
X145898345Y-82098629D01*
X146023629Y-81973345D01*
X146023634Y-81973339D01*
X146116657Y-81822525D01*
X146172393Y-81654321D01*
X146172394Y-81654318D01*
X146182999Y-81550516D01*
X146183000Y-81550516D01*
X146183000Y-81154000D01*
X145101398Y-81154000D01*
X145136519Y-81099351D01*
X145175000Y-80968295D01*
X145175000Y-80831705D01*
X145136519Y-80700649D01*
X145101398Y-80646000D01*
X146183000Y-80646000D01*
X146183000Y-80249483D01*
X146172394Y-80145681D01*
X146172393Y-80145678D01*
X146116657Y-79977474D01*
X146023634Y-79826660D01*
X146023629Y-79826654D01*
X145898345Y-79701370D01*
X145898339Y-79701365D01*
X145747525Y-79608342D01*
X145579321Y-79552606D01*
X145579318Y-79552605D01*
X145475516Y-79542000D01*
X144954000Y-79542000D01*
X144954000Y-80493808D01*
X144835199Y-80439554D01*
X144733975Y-80425000D01*
X144666025Y-80425000D01*
X144564801Y-80439554D01*
X144446000Y-80493808D01*
X144446000Y-79542000D01*
X143924483Y-79542000D01*
X143820681Y-79552605D01*
X143820678Y-79552606D01*
X143652474Y-79608342D01*
X143501660Y-79701365D01*
X143501654Y-79701370D01*
X143376370Y-79826654D01*
X143376365Y-79826660D01*
X143283342Y-79977474D01*
X143227606Y-80145678D01*
X143227605Y-80145681D01*
X143217000Y-80249483D01*
X143217000Y-80646000D01*
X144298602Y-80646000D01*
X144263481Y-80700649D01*
X144225000Y-80831705D01*
X144225000Y-80968295D01*
X144263481Y-81099351D01*
X144298602Y-81154000D01*
X143217000Y-81154000D01*
X143217000Y-81475707D01*
X143196998Y-81543828D01*
X143143342Y-81590321D01*
X143073068Y-81600425D01*
X143008488Y-81570931D01*
X143001905Y-81564802D01*
X137726198Y-76289094D01*
X137692172Y-76226782D01*
X137697237Y-76155967D01*
X137726194Y-76110908D01*
X138449700Y-75387402D01*
X138512010Y-75353379D01*
X138538793Y-75350500D01*
X143375775Y-75350500D01*
X143443896Y-75370502D01*
X143490389Y-75424158D01*
X143493266Y-75430981D01*
X143495753Y-75437401D01*
X143495757Y-75437410D01*
X143612874Y-75626560D01*
X143612875Y-75626561D01*
X143762764Y-75790982D01*
X143940310Y-75925057D01*
X143940315Y-75925061D01*
X144139462Y-76024225D01*
X144139468Y-76024227D01*
X144139472Y-76024229D01*
X144353464Y-76085115D01*
X144519497Y-76100500D01*
X144519504Y-76100500D01*
X144880496Y-76100500D01*
X144880503Y-76100500D01*
X145046536Y-76085115D01*
X145260528Y-76024229D01*
X145260533Y-76024226D01*
X145260537Y-76024225D01*
X145459684Y-75925061D01*
X145459685Y-75925059D01*
X145459689Y-75925058D01*
X145637236Y-75790981D01*
X145787124Y-75626562D01*
X145904247Y-75437401D01*
X145984618Y-75229940D01*
X146025500Y-75011243D01*
X146025500Y-74788757D01*
X145984618Y-74570060D01*
X145984616Y-74570056D01*
X145984616Y-74570053D01*
X145934617Y-74440994D01*
X145904247Y-74362599D01*
X145896136Y-74349500D01*
X145787125Y-74173439D01*
X145787124Y-74173438D01*
X145637235Y-74009017D01*
X145459689Y-73874942D01*
X145459684Y-73874938D01*
X145260537Y-73775774D01*
X145260520Y-73775768D01*
X145244429Y-73771190D01*
X145184382Y-73733310D01*
X145154348Y-73668979D01*
X145163861Y-73598622D01*
X145209901Y-73544578D01*
X145244429Y-73528810D01*
X145254293Y-73526002D01*
X145260528Y-73524229D01*
X145260533Y-73524226D01*
X145260537Y-73524225D01*
X145459684Y-73425061D01*
X145459685Y-73425059D01*
X145459689Y-73425058D01*
X145624534Y-73300573D01*
X145637235Y-73290982D01*
X145637236Y-73290981D01*
X145787124Y-73126562D01*
X145904247Y-72937401D01*
X145984618Y-72729940D01*
X146025500Y-72511243D01*
X146025500Y-72288757D01*
X145984618Y-72070060D01*
X145984616Y-72070056D01*
X145984616Y-72070053D01*
X145929095Y-71926740D01*
X145904247Y-71862599D01*
X145901775Y-71858607D01*
X145787125Y-71673439D01*
X145787124Y-71673438D01*
X145637235Y-71509017D01*
X145570336Y-71458498D01*
X145528029Y-71401485D01*
X145523261Y-71330648D01*
X145557547Y-71268479D01*
X145606635Y-71238343D01*
X145747525Y-71191657D01*
X145898339Y-71098634D01*
X145898345Y-71098629D01*
X146023629Y-70973345D01*
X146023634Y-70973339D01*
X146116657Y-70822525D01*
X146172393Y-70654321D01*
X146172394Y-70654318D01*
X146182999Y-70550516D01*
X146183000Y-70550516D01*
X146183000Y-70154000D01*
X145101398Y-70154000D01*
X145136519Y-70099351D01*
X145175000Y-69968295D01*
X145175000Y-69831705D01*
X145136519Y-69700649D01*
X145101398Y-69646000D01*
X146183000Y-69646000D01*
X146183000Y-69249483D01*
X146172394Y-69145681D01*
X146172393Y-69145678D01*
X146116657Y-68977474D01*
X146023634Y-68826660D01*
X146023629Y-68826654D01*
X145898345Y-68701370D01*
X145898339Y-68701365D01*
X145747525Y-68608342D01*
X145579321Y-68552606D01*
X145579318Y-68552605D01*
X145475516Y-68542000D01*
X144954000Y-68542000D01*
X144954000Y-69493808D01*
X144835199Y-69439554D01*
X144733975Y-69425000D01*
X144666025Y-69425000D01*
X144564801Y-69439554D01*
X144446000Y-69493808D01*
X144446000Y-68542000D01*
X143924483Y-68542000D01*
X143820681Y-68552605D01*
X143820678Y-68552606D01*
X143652474Y-68608342D01*
X143501660Y-68701365D01*
X143501654Y-68701370D01*
X143376370Y-68826654D01*
X143376365Y-68826660D01*
X143283342Y-68977474D01*
X143227606Y-69145678D01*
X143227605Y-69145681D01*
X143217000Y-69249483D01*
X143217000Y-69646000D01*
X144298602Y-69646000D01*
X144263481Y-69700649D01*
X144225000Y-69831705D01*
X144225000Y-69968295D01*
X144263481Y-70099351D01*
X144298602Y-70154000D01*
X143217000Y-70154000D01*
X143217000Y-70550516D01*
X143227605Y-70654318D01*
X143227606Y-70654321D01*
X143283342Y-70822525D01*
X143376365Y-70973339D01*
X143376370Y-70973345D01*
X143501654Y-71098629D01*
X143501660Y-71098634D01*
X143652474Y-71191657D01*
X143793364Y-71238343D01*
X143851735Y-71278757D01*
X143878991Y-71344314D01*
X143866478Y-71414199D01*
X143829663Y-71458498D01*
X143762764Y-71509017D01*
X143612875Y-71673438D01*
X143612874Y-71673439D01*
X143495759Y-71862587D01*
X143495751Y-71862603D01*
X143415383Y-72070053D01*
X143415382Y-72070060D01*
X143374500Y-72288757D01*
X143374500Y-72511243D01*
X143397846Y-72636130D01*
X143415383Y-72729946D01*
X143495751Y-72937396D01*
X143495759Y-72937412D01*
X143612874Y-73126560D01*
X143612875Y-73126561D01*
X143762764Y-73290982D01*
X143940310Y-73425057D01*
X143940315Y-73425061D01*
X144139462Y-73524225D01*
X144139467Y-73524226D01*
X144139472Y-73524229D01*
X144152159Y-73527839D01*
X144155572Y-73528810D01*
X144215618Y-73566692D01*
X144245652Y-73631023D01*
X144236138Y-73701379D01*
X144190097Y-73755423D01*
X144155572Y-73771190D01*
X144139474Y-73775770D01*
X144139462Y-73775774D01*
X143940315Y-73874938D01*
X143940310Y-73874942D01*
X143762764Y-74009017D01*
X143612875Y-74173438D01*
X143612874Y-74173439D01*
X143495757Y-74362589D01*
X143495753Y-74362598D01*
X143493266Y-74369019D01*
X143450005Y-74425313D01*
X143383177Y-74449282D01*
X143375775Y-74449500D01*
X138328843Y-74449500D01*
X138321788Y-74449104D01*
X138282965Y-74444730D01*
X138282964Y-74444730D01*
X138282963Y-74444730D01*
X138282962Y-74444730D01*
X138239131Y-74453023D01*
X138224520Y-74455788D01*
X138165713Y-74464652D01*
X138165710Y-74464653D01*
X138165711Y-74464653D01*
X138157536Y-74467174D01*
X138149528Y-74469977D01*
X138096936Y-74497773D01*
X138069158Y-74511149D01*
X138043357Y-74523575D01*
X138036331Y-74528365D01*
X138029462Y-74533434D01*
X137987413Y-74575483D01*
X137943808Y-74615942D01*
X137937919Y-74623327D01*
X137937243Y-74622788D01*
X137927782Y-74635113D01*
X137115787Y-75447110D01*
X137053474Y-75481135D01*
X137026691Y-75484015D01*
X131764964Y-75484015D01*
X131696843Y-75464013D01*
X131650350Y-75410357D01*
X131639883Y-75373203D01*
X131636238Y-75343185D01*
X131636237Y-75343182D01*
X131625368Y-75314523D01*
X131580220Y-75195477D01*
X131580216Y-75195472D01*
X131580216Y-75195470D01*
X131490483Y-75065470D01*
X131490481Y-75065468D01*
X131372240Y-74960717D01*
X131232365Y-74887304D01*
X131232361Y-74887302D01*
X131078987Y-74849500D01*
X131078985Y-74849500D01*
X130921015Y-74849500D01*
X130921012Y-74849500D01*
X130767638Y-74887302D01*
X130767634Y-74887304D01*
X130627759Y-74960717D01*
X130509518Y-75065468D01*
X130509516Y-75065470D01*
X130419783Y-75195470D01*
X130419782Y-75195473D01*
X130363762Y-75343182D01*
X130363761Y-75343185D01*
X130360117Y-75373203D01*
X130332050Y-75438416D01*
X130273181Y-75478102D01*
X130235036Y-75484015D01*
X118144329Y-75484015D01*
X118137272Y-75483619D01*
X118098450Y-75479245D01*
X118098449Y-75479245D01*
X118039996Y-75490304D01*
X117981198Y-75499166D01*
X117973038Y-75501683D01*
X117965015Y-75504490D01*
X117912411Y-75532292D01*
X117858841Y-75558090D01*
X117851810Y-75562883D01*
X117844948Y-75567948D01*
X117802898Y-75609998D01*
X117759293Y-75650457D01*
X117753404Y-75657842D01*
X117752728Y-75657303D01*
X117743267Y-75669628D01*
X117600302Y-75812595D01*
X117537990Y-75846620D01*
X117511206Y-75849500D01*
X117471012Y-75849500D01*
X117317638Y-75887302D01*
X117317634Y-75887304D01*
X117177759Y-75960717D01*
X117059518Y-76065468D01*
X117059516Y-76065470D01*
X116969783Y-76195470D01*
X116969782Y-76195473D01*
X116913761Y-76343184D01*
X116894722Y-76499996D01*
X116894722Y-76500003D01*
X100560000Y-76500003D01*
X100560000Y-75533261D01*
X101749500Y-75533261D01*
X101759427Y-75601394D01*
X101810801Y-75706482D01*
X101810803Y-75706485D01*
X101893514Y-75789196D01*
X101893517Y-75789198D01*
X101998607Y-75840573D01*
X102066740Y-75850500D01*
X102066745Y-75850500D01*
X105283255Y-75850500D01*
X105283260Y-75850500D01*
X105351393Y-75840573D01*
X105456483Y-75789198D01*
X105539198Y-75706483D01*
X105539199Y-75706480D01*
X105545265Y-75697986D01*
X105546645Y-75698971D01*
X105586400Y-75655448D01*
X105655021Y-75637235D01*
X105681879Y-75640854D01*
X105721008Y-75650499D01*
X105721013Y-75650499D01*
X105721015Y-75650500D01*
X105721017Y-75650500D01*
X105878983Y-75650500D01*
X105878985Y-75650500D01*
X106032365Y-75612696D01*
X106172240Y-75539283D01*
X106290483Y-75434530D01*
X106373313Y-75314529D01*
X106380216Y-75304529D01*
X106380216Y-75304528D01*
X106380220Y-75304523D01*
X106436237Y-75156818D01*
X106436237Y-75156817D01*
X106436238Y-75156815D01*
X106452549Y-75022475D01*
X106480615Y-74957262D01*
X106488514Y-74948588D01*
X106584407Y-74852695D01*
X106646717Y-74818672D01*
X106717533Y-74823738D01*
X106774369Y-74866285D01*
X106799179Y-74932805D01*
X106799500Y-74941793D01*
X106799500Y-75533261D01*
X106809427Y-75601394D01*
X106860801Y-75706482D01*
X106860803Y-75706485D01*
X106943514Y-75789196D01*
X106943517Y-75789198D01*
X107048607Y-75840573D01*
X107116740Y-75850500D01*
X107116745Y-75850500D01*
X110333255Y-75850500D01*
X110333260Y-75850500D01*
X110401393Y-75840573D01*
X110506483Y-75789198D01*
X110589198Y-75706483D01*
X110592766Y-75699183D01*
X110640650Y-75646770D01*
X110709273Y-75628563D01*
X110736117Y-75632181D01*
X110756623Y-75637235D01*
X110851015Y-75660500D01*
X110851017Y-75660500D01*
X111008983Y-75660500D01*
X111008985Y-75660500D01*
X111162365Y-75622696D01*
X111302240Y-75549283D01*
X111420483Y-75444530D01*
X111510220Y-75314523D01*
X111566237Y-75166818D01*
X111566237Y-75166817D01*
X111566238Y-75166815D01*
X111585278Y-75010003D01*
X111585278Y-75009996D01*
X111566238Y-74853184D01*
X111553149Y-74818672D01*
X111510220Y-74705477D01*
X111510216Y-74705472D01*
X111510216Y-74705470D01*
X111420483Y-74575470D01*
X111420482Y-74575469D01*
X111414368Y-74570053D01*
X111356638Y-74518909D01*
X111318915Y-74458769D01*
X111319693Y-74387777D01*
X111351096Y-74335506D01*
X113659661Y-72026940D01*
X113659671Y-72026933D01*
X114228106Y-71458498D01*
X118398650Y-67287951D01*
X118403894Y-67283265D01*
X118434450Y-67258899D01*
X118467960Y-67209748D01*
X118503273Y-67161902D01*
X118503273Y-67161899D01*
X118503275Y-67161898D01*
X118507261Y-67154356D01*
X118510951Y-67146694D01*
X118510950Y-67146694D01*
X118510952Y-67146693D01*
X118528487Y-67089842D01*
X118548126Y-67033719D01*
X118548126Y-67033716D01*
X118549709Y-67025350D01*
X118550980Y-67016921D01*
X118550980Y-66957461D01*
X118552026Y-66929500D01*
X118553205Y-66898010D01*
X118553203Y-66898005D01*
X118552148Y-66888625D01*
X118553007Y-66888528D01*
X118550980Y-66873116D01*
X118550980Y-66026180D01*
X118570982Y-65958059D01*
X118586338Y-65940139D01*
X118585907Y-65939757D01*
X118590958Y-65934053D01*
X118590963Y-65934050D01*
X118680700Y-65804043D01*
X118736717Y-65656338D01*
X118736717Y-65656337D01*
X118736718Y-65656335D01*
X118755758Y-65499523D01*
X118755758Y-65499516D01*
X118736718Y-65342704D01*
X118716919Y-65290500D01*
X118680700Y-65194997D01*
X118680696Y-65194992D01*
X118680696Y-65194990D01*
X118590963Y-65064990D01*
X118590961Y-65064988D01*
X118472720Y-64960237D01*
X118332845Y-64886824D01*
X118332841Y-64886822D01*
X118179467Y-64849020D01*
X118179465Y-64849020D01*
X118021495Y-64849020D01*
X118021492Y-64849020D01*
X117868118Y-64886822D01*
X117868114Y-64886824D01*
X117728239Y-64960237D01*
X117609998Y-65064988D01*
X117609996Y-65064990D01*
X117520263Y-65194990D01*
X117520262Y-65194993D01*
X117464241Y-65342704D01*
X117445202Y-65499516D01*
X117445202Y-65499523D01*
X117464241Y-65656335D01*
X117492251Y-65730190D01*
X117520260Y-65804043D01*
X117520261Y-65804045D01*
X117520262Y-65804046D01*
X117520263Y-65804049D01*
X117609996Y-65934049D01*
X117615053Y-65939757D01*
X117613399Y-65941221D01*
X117645257Y-65992006D01*
X117649980Y-66026180D01*
X117649980Y-66710226D01*
X117629978Y-66778347D01*
X117613075Y-66799321D01*
X113069433Y-71342961D01*
X113069429Y-71342967D01*
X110799802Y-73612595D01*
X110737490Y-73646620D01*
X110710707Y-73649500D01*
X106728843Y-73649500D01*
X106721788Y-73649104D01*
X106682965Y-73644730D01*
X106682964Y-73644730D01*
X106682963Y-73644730D01*
X106682962Y-73644730D01*
X106639131Y-73653023D01*
X106624520Y-73655788D01*
X106565713Y-73664652D01*
X106565710Y-73664653D01*
X106565711Y-73664653D01*
X106557536Y-73667174D01*
X106549528Y-73669977D01*
X106496936Y-73697773D01*
X106469158Y-73711149D01*
X106443357Y-73723575D01*
X106436331Y-73728365D01*
X106429462Y-73733434D01*
X106387413Y-73775483D01*
X106343808Y-73815942D01*
X106337919Y-73823327D01*
X106337243Y-73822788D01*
X106327782Y-73835113D01*
X105850302Y-74312595D01*
X105787989Y-74346620D01*
X105761206Y-74349500D01*
X105721012Y-74349500D01*
X105681874Y-74359146D01*
X105610946Y-74356025D01*
X105552965Y-74315053D01*
X105540855Y-74295838D01*
X105539196Y-74293514D01*
X105456485Y-74210803D01*
X105456482Y-74210801D01*
X105351394Y-74159427D01*
X105283261Y-74149500D01*
X105283260Y-74149500D01*
X102066740Y-74149500D01*
X102066738Y-74149500D01*
X101998605Y-74159427D01*
X101893517Y-74210801D01*
X101893514Y-74210803D01*
X101810803Y-74293514D01*
X101810801Y-74293517D01*
X101759427Y-74398605D01*
X101749500Y-74466738D01*
X101749500Y-75533261D01*
X100560000Y-75533261D01*
X100560000Y-73271752D01*
X100580002Y-73203631D01*
X100633658Y-73157138D01*
X100703932Y-73147034D01*
X100744553Y-73160184D01*
X100783635Y-73180696D01*
X100783636Y-73180696D01*
X100783638Y-73180697D01*
X100860324Y-73199598D01*
X100937015Y-73218500D01*
X100937017Y-73218500D01*
X101094983Y-73218500D01*
X101094985Y-73218500D01*
X101248365Y-73180696D01*
X101388240Y-73107283D01*
X101506483Y-73002530D01*
X101526109Y-72974096D01*
X101581264Y-72929396D01*
X101651832Y-72921611D01*
X101715407Y-72953214D01*
X101751804Y-73014172D01*
X101754488Y-73027503D01*
X101759426Y-73061391D01*
X101759426Y-73061393D01*
X101810801Y-73166482D01*
X101810803Y-73166485D01*
X101893514Y-73249196D01*
X101893517Y-73249198D01*
X101998607Y-73300573D01*
X102066740Y-73310500D01*
X102066745Y-73310500D01*
X105283255Y-73310500D01*
X105283260Y-73310500D01*
X105351393Y-73300573D01*
X105456483Y-73249198D01*
X105539198Y-73166483D01*
X105590573Y-73061393D01*
X105600500Y-72993261D01*
X106799500Y-72993261D01*
X106809427Y-73061394D01*
X106860801Y-73166482D01*
X106860803Y-73166485D01*
X106943514Y-73249196D01*
X106943517Y-73249198D01*
X107048607Y-73300573D01*
X107116740Y-73310500D01*
X107116745Y-73310500D01*
X110333255Y-73310500D01*
X110333260Y-73310500D01*
X110401393Y-73300573D01*
X110506483Y-73249198D01*
X110589198Y-73166483D01*
X110640573Y-73061393D01*
X110650500Y-72993260D01*
X110650500Y-72993247D01*
X110650829Y-72988714D01*
X110653073Y-72988876D01*
X110670502Y-72929520D01*
X110717624Y-72886243D01*
X110754597Y-72866702D01*
X110813473Y-72852100D01*
X110888583Y-72852100D01*
X110888585Y-72852100D01*
X111041965Y-72814296D01*
X111181840Y-72740883D01*
X111300083Y-72636130D01*
X111389820Y-72506123D01*
X111445837Y-72358418D01*
X111445837Y-72358417D01*
X111445838Y-72358415D01*
X111464878Y-72201603D01*
X111464878Y-72201596D01*
X111445838Y-72044784D01*
X111435136Y-72016566D01*
X111389820Y-71897077D01*
X111389816Y-71897072D01*
X111389816Y-71897070D01*
X111300083Y-71767070D01*
X111300081Y-71767068D01*
X111181840Y-71662317D01*
X111041965Y-71588904D01*
X111041961Y-71588902D01*
X110888587Y-71551100D01*
X110888585Y-71551100D01*
X110730615Y-71551100D01*
X110730612Y-71551100D01*
X110577239Y-71588902D01*
X110577229Y-71588906D01*
X110518855Y-71619543D01*
X110449242Y-71633489D01*
X110404967Y-71621174D01*
X110401393Y-71619427D01*
X110367326Y-71614463D01*
X110333261Y-71609500D01*
X110333260Y-71609500D01*
X107116740Y-71609500D01*
X107116738Y-71609500D01*
X107048605Y-71619427D01*
X106943517Y-71670801D01*
X106943514Y-71670803D01*
X106860803Y-71753514D01*
X106860801Y-71753517D01*
X106809427Y-71858605D01*
X106799500Y-71926738D01*
X106799500Y-72993261D01*
X105600500Y-72993261D01*
X105600500Y-72993260D01*
X105600500Y-71926740D01*
X105590573Y-71858607D01*
X105539198Y-71753517D01*
X105539196Y-71753514D01*
X105456485Y-71670803D01*
X105456482Y-71670801D01*
X105351394Y-71619427D01*
X105283261Y-71609500D01*
X105283260Y-71609500D01*
X102066740Y-71609500D01*
X102066738Y-71609500D01*
X101998605Y-71619427D01*
X101893517Y-71670801D01*
X101893514Y-71670803D01*
X101810803Y-71753514D01*
X101810801Y-71753517D01*
X101759427Y-71858605D01*
X101759426Y-71858607D01*
X101759427Y-71858607D01*
X101750847Y-71917500D01*
X101749686Y-71925466D01*
X101720071Y-71989991D01*
X101660273Y-72028263D01*
X101625002Y-72033300D01*
X101428028Y-72033300D01*
X101369473Y-72018867D01*
X101248365Y-71955304D01*
X101248361Y-71955302D01*
X101094987Y-71917500D01*
X101094985Y-71917500D01*
X100937015Y-71917500D01*
X100937012Y-71917500D01*
X100783638Y-71955302D01*
X100783633Y-71955305D01*
X100744554Y-71975815D01*
X100674941Y-71989761D01*
X100608839Y-71963857D01*
X100567235Y-71906328D01*
X100560000Y-71864247D01*
X100560000Y-70477752D01*
X100580002Y-70409631D01*
X100633658Y-70363138D01*
X100703932Y-70353034D01*
X100744553Y-70366184D01*
X100783635Y-70386696D01*
X100783636Y-70386696D01*
X100783638Y-70386697D01*
X100860324Y-70405598D01*
X100937015Y-70424500D01*
X100937017Y-70424500D01*
X101094983Y-70424500D01*
X101094985Y-70424500D01*
X101248365Y-70386696D01*
X101248367Y-70386695D01*
X101251727Y-70384932D01*
X101255414Y-70384023D01*
X101255494Y-70383993D01*
X101255497Y-70384002D01*
X101310281Y-70370500D01*
X101628470Y-70370500D01*
X101696591Y-70390502D01*
X101743084Y-70444158D01*
X101753152Y-70478331D01*
X101758139Y-70512559D01*
X101759427Y-70521394D01*
X101810801Y-70626482D01*
X101810803Y-70626485D01*
X101893514Y-70709196D01*
X101893517Y-70709198D01*
X101998607Y-70760573D01*
X102066740Y-70770500D01*
X102066745Y-70770500D01*
X105283255Y-70770500D01*
X105283260Y-70770500D01*
X105351393Y-70760573D01*
X105456483Y-70709198D01*
X105539198Y-70626483D01*
X105590573Y-70521393D01*
X105600500Y-70453261D01*
X106799500Y-70453261D01*
X106809427Y-70521394D01*
X106860801Y-70626482D01*
X106860803Y-70626485D01*
X106943514Y-70709196D01*
X106943517Y-70709198D01*
X107048607Y-70760573D01*
X107116740Y-70770500D01*
X108687877Y-70770500D01*
X108692985Y-70770707D01*
X108719108Y-70772834D01*
X108748163Y-70775201D01*
X108748166Y-70775201D01*
X108748166Y-70775200D01*
X108748167Y-70775201D01*
X108763184Y-70773154D01*
X108778437Y-70771077D01*
X108786951Y-70770500D01*
X110333255Y-70770500D01*
X110333260Y-70770500D01*
X110401393Y-70760573D01*
X110401394Y-70760572D01*
X110401396Y-70760572D01*
X110410740Y-70757685D01*
X110411363Y-70759702D01*
X110451148Y-70750500D01*
X111246105Y-70750500D01*
X111246113Y-70750500D01*
X111257365Y-70749276D01*
X111383903Y-70735515D01*
X111383905Y-70735514D01*
X111383910Y-70735514D01*
X111559221Y-70676444D01*
X111717736Y-70581070D01*
X111852041Y-70453849D01*
X111955858Y-70300730D01*
X111990312Y-70214258D01*
X112024330Y-70128877D01*
X112024331Y-70128874D01*
X112029171Y-70099351D01*
X112054260Y-69946317D01*
X112044245Y-69761593D01*
X111994754Y-69583341D01*
X111934399Y-69469500D01*
X111908100Y-69419895D01*
X111788342Y-69278906D01*
X111788337Y-69278900D01*
X111641064Y-69166946D01*
X111641063Y-69166945D01*
X111641060Y-69166943D01*
X111473166Y-69089267D01*
X111292503Y-69049501D01*
X111292500Y-69049500D01*
X111292497Y-69049500D01*
X111292494Y-69049500D01*
X108782123Y-69049500D01*
X108777014Y-69049292D01*
X108766498Y-69048436D01*
X108721836Y-69044798D01*
X108721834Y-69044798D01*
X108641607Y-69055729D01*
X108561092Y-69064485D01*
X108554425Y-69065953D01*
X108554173Y-69064808D01*
X108525554Y-69069500D01*
X107116738Y-69069500D01*
X107048605Y-69079427D01*
X106943517Y-69130801D01*
X106943514Y-69130803D01*
X106860803Y-69213514D01*
X106860801Y-69213517D01*
X106809427Y-69318605D01*
X106799500Y-69386738D01*
X106799500Y-70453261D01*
X105600500Y-70453261D01*
X105600500Y-70453260D01*
X105600500Y-69386740D01*
X105590573Y-69318607D01*
X105539198Y-69213517D01*
X105539196Y-69213514D01*
X105456485Y-69130803D01*
X105456482Y-69130801D01*
X105351394Y-69079427D01*
X105283261Y-69069500D01*
X105283260Y-69069500D01*
X102066740Y-69069500D01*
X102066738Y-69069500D01*
X101998605Y-69079427D01*
X101893517Y-69130801D01*
X101893514Y-69130803D01*
X101810803Y-69213514D01*
X101810801Y-69213517D01*
X101759426Y-69318606D01*
X101759426Y-69318607D01*
X101759060Y-69321122D01*
X101757803Y-69323859D01*
X101756537Y-69327958D01*
X101755998Y-69327791D01*
X101729443Y-69385646D01*
X101669643Y-69423915D01*
X101598647Y-69423779D01*
X101538994Y-69385280D01*
X101530681Y-69374527D01*
X101506483Y-69339470D01*
X101506481Y-69339468D01*
X101388240Y-69234717D01*
X101248365Y-69161304D01*
X101248361Y-69161302D01*
X101094987Y-69123500D01*
X101094985Y-69123500D01*
X100937015Y-69123500D01*
X100937012Y-69123500D01*
X100783638Y-69161302D01*
X100783633Y-69161305D01*
X100744554Y-69181815D01*
X100674941Y-69195761D01*
X100608839Y-69169857D01*
X100567235Y-69112328D01*
X100560000Y-69070247D01*
X100560000Y-68191752D01*
X100580002Y-68123631D01*
X100633658Y-68077138D01*
X100703932Y-68067034D01*
X100744553Y-68080184D01*
X100783635Y-68100696D01*
X100783636Y-68100696D01*
X100783638Y-68100697D01*
X100860324Y-68119598D01*
X100937015Y-68138500D01*
X100937017Y-68138500D01*
X101094983Y-68138500D01*
X101094985Y-68138500D01*
X101248365Y-68100696D01*
X101388240Y-68027283D01*
X101506483Y-67922530D01*
X101526109Y-67894096D01*
X101581264Y-67849396D01*
X101651832Y-67841611D01*
X101715407Y-67873214D01*
X101751804Y-67934172D01*
X101754488Y-67947503D01*
X101759426Y-67981391D01*
X101759426Y-67981393D01*
X101810801Y-68086482D01*
X101810803Y-68086485D01*
X101893514Y-68169196D01*
X101893517Y-68169198D01*
X101998607Y-68220573D01*
X102066740Y-68230500D01*
X102066745Y-68230500D01*
X105283255Y-68230500D01*
X105283260Y-68230500D01*
X105351393Y-68220573D01*
X105456483Y-68169198D01*
X105539198Y-68086483D01*
X105590573Y-67981393D01*
X105600500Y-67913261D01*
X106799500Y-67913261D01*
X106809427Y-67981394D01*
X106860801Y-68086482D01*
X106860803Y-68086485D01*
X106943514Y-68169196D01*
X106943517Y-68169198D01*
X107048607Y-68220573D01*
X107116740Y-68230500D01*
X107116745Y-68230500D01*
X110333255Y-68230500D01*
X110333260Y-68230500D01*
X110401393Y-68220573D01*
X110506483Y-68169198D01*
X110589198Y-68086483D01*
X110640573Y-67981393D01*
X110640574Y-67981385D01*
X110642482Y-67975212D01*
X110681703Y-67916032D01*
X110746692Y-67887451D01*
X110816817Y-67898542D01*
X110846413Y-67918089D01*
X110847760Y-67919283D01*
X110987635Y-67992696D01*
X110987636Y-67992696D01*
X110987638Y-67992697D01*
X111064324Y-68011598D01*
X111141015Y-68030500D01*
X111141017Y-68030500D01*
X111298983Y-68030500D01*
X111298985Y-68030500D01*
X111452365Y-67992696D01*
X111592240Y-67919283D01*
X111710483Y-67814530D01*
X111800220Y-67684523D01*
X111856237Y-67536818D01*
X111856237Y-67536817D01*
X111856238Y-67536815D01*
X111875278Y-67380003D01*
X111875278Y-67379996D01*
X111856238Y-67223184D01*
X111841179Y-67183477D01*
X111800220Y-67075477D01*
X111800216Y-67075472D01*
X111800216Y-67075470D01*
X111710483Y-66945470D01*
X111710481Y-66945468D01*
X111592240Y-66840717D01*
X111452365Y-66767304D01*
X111452361Y-66767302D01*
X111298987Y-66729500D01*
X111298985Y-66729500D01*
X111141015Y-66729500D01*
X111141012Y-66729500D01*
X110987638Y-66767302D01*
X110987634Y-66767304D01*
X110847761Y-66840716D01*
X110847757Y-66840719D01*
X110846411Y-66841912D01*
X110845216Y-66842473D01*
X110841491Y-66845045D01*
X110841063Y-66844424D01*
X110782154Y-66872106D01*
X110711775Y-66862767D01*
X110657616Y-66816861D01*
X110642483Y-66784789D01*
X110640573Y-66778611D01*
X110640573Y-66778607D01*
X110589198Y-66673517D01*
X110589196Y-66673514D01*
X110506485Y-66590803D01*
X110506482Y-66590801D01*
X110401394Y-66539427D01*
X110333261Y-66529500D01*
X110333260Y-66529500D01*
X107116740Y-66529500D01*
X107116738Y-66529500D01*
X107048605Y-66539427D01*
X106943517Y-66590801D01*
X106943514Y-66590803D01*
X106860803Y-66673514D01*
X106860801Y-66673517D01*
X106809427Y-66778605D01*
X106799500Y-66846738D01*
X106799500Y-67913261D01*
X105600500Y-67913261D01*
X105600500Y-67913260D01*
X105600500Y-66846740D01*
X105590573Y-66778607D01*
X105539198Y-66673517D01*
X105539196Y-66673514D01*
X105456485Y-66590803D01*
X105456482Y-66590801D01*
X105351394Y-66539427D01*
X105283261Y-66529500D01*
X105283260Y-66529500D01*
X102066740Y-66529500D01*
X102066738Y-66529500D01*
X101998605Y-66539427D01*
X101893517Y-66590801D01*
X101893514Y-66590803D01*
X101810803Y-66673514D01*
X101810801Y-66673517D01*
X101759427Y-66778605D01*
X101759426Y-66778607D01*
X101759427Y-66778607D01*
X101753153Y-66821666D01*
X101723540Y-66886191D01*
X101663742Y-66924462D01*
X101628470Y-66929500D01*
X101382682Y-66929500D01*
X101324126Y-66915067D01*
X101314016Y-66909761D01*
X101248365Y-66875304D01*
X101248361Y-66875302D01*
X101094987Y-66837500D01*
X101094985Y-66837500D01*
X100937015Y-66837500D01*
X100937012Y-66837500D01*
X100783638Y-66875302D01*
X100783633Y-66875305D01*
X100744554Y-66895815D01*
X100674941Y-66909761D01*
X100608839Y-66883857D01*
X100567235Y-66826328D01*
X100560000Y-66784247D01*
X100560000Y-65651752D01*
X100580002Y-65583631D01*
X100633658Y-65537138D01*
X100703932Y-65527034D01*
X100744553Y-65540184D01*
X100783635Y-65560696D01*
X100783636Y-65560696D01*
X100783638Y-65560697D01*
X100860324Y-65579598D01*
X100937015Y-65598500D01*
X100937017Y-65598500D01*
X101094983Y-65598500D01*
X101094985Y-65598500D01*
X101248365Y-65560696D01*
X101388240Y-65487283D01*
X101506483Y-65382530D01*
X101526109Y-65354096D01*
X101581264Y-65309396D01*
X101651832Y-65301611D01*
X101715407Y-65333214D01*
X101751804Y-65394172D01*
X101754488Y-65407503D01*
X101759426Y-65441391D01*
X101759426Y-65441393D01*
X101810801Y-65546482D01*
X101810803Y-65546485D01*
X101893514Y-65629196D01*
X101893517Y-65629198D01*
X101998607Y-65680573D01*
X102066740Y-65690500D01*
X102066745Y-65690500D01*
X105283255Y-65690500D01*
X105283260Y-65690500D01*
X105351393Y-65680573D01*
X105456483Y-65629198D01*
X105539198Y-65546483D01*
X105590573Y-65441393D01*
X105600500Y-65373261D01*
X106799500Y-65373261D01*
X106809427Y-65441394D01*
X106860801Y-65546482D01*
X106860803Y-65546485D01*
X106943514Y-65629196D01*
X106943517Y-65629198D01*
X107048607Y-65680573D01*
X107116740Y-65690500D01*
X107116745Y-65690500D01*
X110333255Y-65690500D01*
X110333260Y-65690500D01*
X110401393Y-65680573D01*
X110506483Y-65629198D01*
X110589198Y-65546483D01*
X110622110Y-65479159D01*
X110669995Y-65426747D01*
X110738618Y-65408543D01*
X110765459Y-65412160D01*
X110824643Y-65426747D01*
X110921015Y-65450500D01*
X110921017Y-65450500D01*
X111078983Y-65450500D01*
X111078985Y-65450500D01*
X111232365Y-65412696D01*
X111372240Y-65339283D01*
X111490483Y-65234530D01*
X111564951Y-65126643D01*
X111580216Y-65104529D01*
X111580216Y-65104528D01*
X111580220Y-65104523D01*
X111636237Y-64956818D01*
X111636237Y-64956817D01*
X111636238Y-64956815D01*
X111655278Y-64800003D01*
X111655278Y-64799996D01*
X111636238Y-64643184D01*
X111628392Y-64622498D01*
X111580220Y-64495477D01*
X111580216Y-64495472D01*
X111580216Y-64495470D01*
X111490483Y-64365470D01*
X111490481Y-64365468D01*
X111372240Y-64260717D01*
X111232365Y-64187304D01*
X111232361Y-64187302D01*
X111078987Y-64149500D01*
X111078985Y-64149500D01*
X110921015Y-64149500D01*
X110921012Y-64149500D01*
X110767638Y-64187302D01*
X110767635Y-64187304D01*
X110761363Y-64190596D01*
X110691749Y-64204541D01*
X110625647Y-64178636D01*
X110595627Y-64141754D01*
X110595265Y-64142014D01*
X110591167Y-64136275D01*
X110589612Y-64134364D01*
X110589197Y-64133515D01*
X110506485Y-64050803D01*
X110506482Y-64050801D01*
X110401394Y-63999427D01*
X110333261Y-63989500D01*
X110333260Y-63989500D01*
X107116740Y-63989500D01*
X107116738Y-63989500D01*
X107048605Y-63999427D01*
X106943517Y-64050801D01*
X106943514Y-64050803D01*
X106860803Y-64133514D01*
X106860801Y-64133517D01*
X106809427Y-64238605D01*
X106799500Y-64306738D01*
X106799500Y-65373261D01*
X105600500Y-65373261D01*
X105600500Y-65373260D01*
X105600500Y-64306740D01*
X105590573Y-64238607D01*
X105539198Y-64133517D01*
X105539196Y-64133514D01*
X105456485Y-64050803D01*
X105456482Y-64050801D01*
X105351394Y-63999427D01*
X105283261Y-63989500D01*
X105283260Y-63989500D01*
X102066740Y-63989500D01*
X102066738Y-63989500D01*
X101998605Y-63999427D01*
X101893517Y-64050801D01*
X101893514Y-64050803D01*
X101810803Y-64133514D01*
X101810801Y-64133517D01*
X101759427Y-64238605D01*
X101759426Y-64238607D01*
X101759427Y-64238607D01*
X101753153Y-64281666D01*
X101723540Y-64346191D01*
X101663742Y-64384462D01*
X101628470Y-64389500D01*
X101382682Y-64389500D01*
X101324126Y-64375067D01*
X101314016Y-64369761D01*
X101248365Y-64335304D01*
X101248361Y-64335302D01*
X101094987Y-64297500D01*
X101094985Y-64297500D01*
X100937015Y-64297500D01*
X100937012Y-64297500D01*
X100783638Y-64335302D01*
X100783633Y-64335305D01*
X100744554Y-64355815D01*
X100674941Y-64369761D01*
X100608839Y-64343857D01*
X100567235Y-64286328D01*
X100560000Y-64244247D01*
X100560000Y-62554000D01*
X101592000Y-62554000D01*
X101592000Y-62848597D01*
X101598505Y-62909093D01*
X101649555Y-63045964D01*
X101649555Y-63045965D01*
X101737095Y-63162904D01*
X101854034Y-63250444D01*
X101990906Y-63301494D01*
X102051402Y-63307999D01*
X102051415Y-63308000D01*
X103421000Y-63308000D01*
X103421000Y-62554000D01*
X103929000Y-62554000D01*
X103929000Y-63308000D01*
X105298585Y-63308000D01*
X105298597Y-63307999D01*
X105359093Y-63301494D01*
X105495964Y-63250444D01*
X105495965Y-63250444D01*
X105612904Y-63162904D01*
X105700444Y-63045965D01*
X105700444Y-63045964D01*
X105751494Y-62909093D01*
X105757999Y-62848597D01*
X105758000Y-62848585D01*
X105758000Y-62833261D01*
X106799500Y-62833261D01*
X106809427Y-62901394D01*
X106860801Y-63006482D01*
X106860803Y-63006485D01*
X106943514Y-63089196D01*
X106943517Y-63089198D01*
X107048607Y-63140573D01*
X107116740Y-63150500D01*
X107116745Y-63150500D01*
X110333255Y-63150500D01*
X110333260Y-63150500D01*
X110401393Y-63140573D01*
X110506483Y-63089198D01*
X110589198Y-63006483D01*
X110640573Y-62901393D01*
X110640572Y-62901393D01*
X110644871Y-62892602D01*
X110646579Y-62893437D01*
X110679147Y-62844291D01*
X110744134Y-62815706D01*
X110790469Y-62818324D01*
X110921015Y-62850500D01*
X110921017Y-62850500D01*
X111078983Y-62850500D01*
X111078985Y-62850500D01*
X111232365Y-62812696D01*
X111372240Y-62739283D01*
X111490483Y-62634530D01*
X111580220Y-62504523D01*
X111636237Y-62356818D01*
X111636237Y-62356817D01*
X111636238Y-62356815D01*
X111655278Y-62200003D01*
X111655278Y-62199996D01*
X111636238Y-62043184D01*
X111614770Y-61986579D01*
X111580220Y-61895477D01*
X111580216Y-61895472D01*
X111580216Y-61895470D01*
X111490483Y-61765470D01*
X111490481Y-61765468D01*
X111372240Y-61660717D01*
X111232365Y-61587304D01*
X111232361Y-61587302D01*
X111078987Y-61549500D01*
X111078985Y-61549500D01*
X110921015Y-61549500D01*
X110921012Y-61549500D01*
X110767638Y-61587302D01*
X110767632Y-61587305D01*
X110728632Y-61607774D01*
X110659019Y-61621720D01*
X110592917Y-61595816D01*
X110580983Y-61585301D01*
X110506485Y-61510803D01*
X110506482Y-61510801D01*
X110401394Y-61459427D01*
X110333261Y-61449500D01*
X110333260Y-61449500D01*
X107116740Y-61449500D01*
X107116738Y-61449500D01*
X107048605Y-61459427D01*
X106943517Y-61510801D01*
X106943514Y-61510803D01*
X106860803Y-61593514D01*
X106860801Y-61593517D01*
X106809427Y-61698605D01*
X106799500Y-61766738D01*
X106799500Y-62833261D01*
X105758000Y-62833261D01*
X105758000Y-62554000D01*
X103929000Y-62554000D01*
X103421000Y-62554000D01*
X101592000Y-62554000D01*
X100560000Y-62554000D01*
X100560000Y-62046000D01*
X101592000Y-62046000D01*
X103421000Y-62046000D01*
X103421000Y-61292000D01*
X102051402Y-61292000D01*
X101990906Y-61298505D01*
X101854035Y-61349555D01*
X101854034Y-61349555D01*
X101737095Y-61437095D01*
X101649555Y-61554034D01*
X101649555Y-61554035D01*
X101598505Y-61690906D01*
X101592000Y-61751402D01*
X101592000Y-62046000D01*
X100560000Y-62046000D01*
X100560000Y-60014000D01*
X101592000Y-60014000D01*
X101592000Y-60308597D01*
X101598505Y-60369093D01*
X101649555Y-60505964D01*
X101649555Y-60505965D01*
X101737095Y-60622904D01*
X101854034Y-60710444D01*
X101990906Y-60761494D01*
X102051402Y-60767999D01*
X102051415Y-60768000D01*
X103421000Y-60768000D01*
X103421000Y-60014000D01*
X103929000Y-60014000D01*
X103929000Y-60768000D01*
X105298585Y-60768000D01*
X105298597Y-60767999D01*
X105359096Y-60761494D01*
X105477026Y-60717508D01*
X105547842Y-60712442D01*
X105610154Y-60746467D01*
X105644179Y-60808779D01*
X105639737Y-60870892D01*
X105641450Y-60871351D01*
X105639313Y-60879325D01*
X105619534Y-61029562D01*
X105619534Y-61029563D01*
X105639313Y-61179800D01*
X105641450Y-61187775D01*
X105639186Y-61188381D01*
X105645485Y-61246967D01*
X105613706Y-61310454D01*
X105552647Y-61346681D01*
X105481696Y-61344147D01*
X105477455Y-61342651D01*
X105359094Y-61298505D01*
X105298597Y-61292000D01*
X103929000Y-61292000D01*
X103929000Y-62046000D01*
X105758000Y-62046000D01*
X105758000Y-61751414D01*
X105757999Y-61751402D01*
X105751494Y-61690903D01*
X105749682Y-61683234D01*
X105752722Y-61682515D01*
X105748675Y-61626171D01*
X105782682Y-61563848D01*
X105844984Y-61529805D01*
X105915801Y-61534848D01*
X105919965Y-61536485D01*
X106049764Y-61590250D01*
X106200000Y-61610029D01*
X106350236Y-61590250D01*
X106490233Y-61532261D01*
X106610451Y-61440014D01*
X106702698Y-61319796D01*
X106760687Y-61179799D01*
X106780466Y-61029563D01*
X106760687Y-60879327D01*
X106702698Y-60739330D01*
X106702693Y-60739323D01*
X106610451Y-60619111D01*
X106490239Y-60526869D01*
X106490231Y-60526864D01*
X106350234Y-60468875D01*
X106200000Y-60449097D01*
X106049765Y-60468875D01*
X105920408Y-60522457D01*
X105849818Y-60530046D01*
X105786331Y-60498266D01*
X105750104Y-60437208D01*
X105752241Y-60377370D01*
X105749682Y-60376766D01*
X105751494Y-60369096D01*
X105757999Y-60308597D01*
X105758000Y-60308585D01*
X105758000Y-60293261D01*
X106799500Y-60293261D01*
X106809427Y-60361394D01*
X106860801Y-60466482D01*
X106860803Y-60466485D01*
X106943514Y-60549196D01*
X106943517Y-60549198D01*
X107048607Y-60600573D01*
X107116740Y-60610500D01*
X107116745Y-60610500D01*
X110333255Y-60610500D01*
X110333260Y-60610500D01*
X110401393Y-60600573D01*
X110506483Y-60549198D01*
X110589198Y-60466483D01*
X110640573Y-60361393D01*
X110648830Y-60304718D01*
X110678443Y-60240197D01*
X110738241Y-60201925D01*
X110754734Y-60198294D01*
X110774287Y-60195348D01*
X110774297Y-60195342D01*
X110782472Y-60192821D01*
X110790472Y-60190023D01*
X110843073Y-60162222D01*
X110866361Y-60151007D01*
X110896642Y-60136425D01*
X110896646Y-60136421D01*
X110903685Y-60131622D01*
X110910531Y-60126569D01*
X110910538Y-60126566D01*
X110913420Y-60123684D01*
X110949698Y-60087406D01*
X111012009Y-60053380D01*
X111038794Y-60050500D01*
X111078983Y-60050500D01*
X111078985Y-60050500D01*
X111232365Y-60012696D01*
X111372240Y-59939283D01*
X111490483Y-59834530D01*
X111580220Y-59704523D01*
X111636237Y-59556818D01*
X111636237Y-59556817D01*
X111636238Y-59556815D01*
X111655278Y-59400003D01*
X111655278Y-59399996D01*
X111636238Y-59243184D01*
X111613795Y-59184008D01*
X111580220Y-59095477D01*
X111580216Y-59095472D01*
X111580216Y-59095470D01*
X111490483Y-58965470D01*
X111490481Y-58965468D01*
X111372240Y-58860717D01*
X111232365Y-58787304D01*
X111232361Y-58787302D01*
X111078987Y-58749500D01*
X111078985Y-58749500D01*
X110921015Y-58749500D01*
X110921012Y-58749500D01*
X110767638Y-58787302D01*
X110767634Y-58787304D01*
X110627759Y-58860717D01*
X110567685Y-58913938D01*
X110503431Y-58944138D01*
X110433051Y-58934806D01*
X110428794Y-58932822D01*
X110401394Y-58919427D01*
X110333261Y-58909500D01*
X110333260Y-58909500D01*
X107116740Y-58909500D01*
X107116738Y-58909500D01*
X107048605Y-58919427D01*
X106943517Y-58970801D01*
X106943514Y-58970803D01*
X106860803Y-59053514D01*
X106860801Y-59053517D01*
X106809427Y-59158605D01*
X106799500Y-59226738D01*
X106799500Y-60293261D01*
X105758000Y-60293261D01*
X105758000Y-60014000D01*
X103929000Y-60014000D01*
X103421000Y-60014000D01*
X101592000Y-60014000D01*
X100560000Y-60014000D01*
X100560000Y-59506000D01*
X101592000Y-59506000D01*
X103421000Y-59506000D01*
X103421000Y-58752000D01*
X102051402Y-58752000D01*
X101990906Y-58758505D01*
X101854035Y-58809555D01*
X101854034Y-58809555D01*
X101737095Y-58897095D01*
X101649555Y-59014034D01*
X101649555Y-59014035D01*
X101598505Y-59150906D01*
X101592000Y-59211402D01*
X101592000Y-59506000D01*
X100560000Y-59506000D01*
X100560000Y-57474000D01*
X101592000Y-57474000D01*
X101592000Y-57768597D01*
X101598505Y-57829093D01*
X101649555Y-57965964D01*
X101649555Y-57965965D01*
X101737095Y-58082904D01*
X101854034Y-58170444D01*
X101990906Y-58221494D01*
X102051402Y-58227999D01*
X102051415Y-58228000D01*
X103421000Y-58228000D01*
X103421000Y-57474000D01*
X103929000Y-57474000D01*
X103929000Y-58228000D01*
X105298585Y-58228000D01*
X105298597Y-58227999D01*
X105359096Y-58221494D01*
X105482139Y-58175601D01*
X105552955Y-58170535D01*
X105615267Y-58204560D01*
X105649292Y-58266872D01*
X105644228Y-58337688D01*
X105642582Y-58341870D01*
X105639313Y-58349762D01*
X105619534Y-58499999D01*
X105619534Y-58500000D01*
X105639313Y-58650237D01*
X105639402Y-58650569D01*
X105639395Y-58650859D01*
X105640391Y-58658424D01*
X105639211Y-58658579D01*
X105637713Y-58721545D01*
X105597920Y-58780341D01*
X105532656Y-58808290D01*
X105473664Y-58801237D01*
X105359094Y-58758505D01*
X105298597Y-58752000D01*
X103929000Y-58752000D01*
X103929000Y-59506000D01*
X105758000Y-59506000D01*
X105758000Y-59211414D01*
X105757999Y-59211402D01*
X105750652Y-59143070D01*
X105752694Y-59142850D01*
X105755913Y-59082666D01*
X105797432Y-59025076D01*
X105863496Y-58999074D01*
X105922957Y-59008161D01*
X106049764Y-59060687D01*
X106200000Y-59080466D01*
X106350236Y-59060687D01*
X106490233Y-59002698D01*
X106610451Y-58910451D01*
X106702698Y-58790233D01*
X106760687Y-58650236D01*
X106780466Y-58500000D01*
X106760687Y-58349764D01*
X106702698Y-58209767D01*
X106702693Y-58209760D01*
X106610451Y-58089548D01*
X106490239Y-57997306D01*
X106490231Y-57997301D01*
X106350234Y-57939312D01*
X106200000Y-57919534D01*
X106049765Y-57939312D01*
X105915804Y-57994801D01*
X105845214Y-58002390D01*
X105781727Y-57970610D01*
X105745500Y-57909552D01*
X105748034Y-57838601D01*
X105749532Y-57834356D01*
X105751494Y-57829094D01*
X105757999Y-57768597D01*
X105758000Y-57768585D01*
X105758000Y-57753261D01*
X106799500Y-57753261D01*
X106809427Y-57821394D01*
X106860801Y-57926482D01*
X106860803Y-57926485D01*
X106943514Y-58009196D01*
X106943517Y-58009198D01*
X107048607Y-58060573D01*
X107116740Y-58070500D01*
X107116745Y-58070500D01*
X110333255Y-58070500D01*
X110333260Y-58070500D01*
X110401393Y-58060573D01*
X110506483Y-58009198D01*
X110589198Y-57926483D01*
X110640573Y-57821393D01*
X110640572Y-57821392D01*
X110643463Y-57812042D01*
X110647040Y-57813147D01*
X110668937Y-57765435D01*
X110728734Y-57727161D01*
X110799731Y-57727293D01*
X110822565Y-57736556D01*
X110827758Y-57739281D01*
X110827760Y-57739283D01*
X110967635Y-57812696D01*
X110967636Y-57812696D01*
X110967638Y-57812697D01*
X111034166Y-57829094D01*
X111121015Y-57850500D01*
X111121017Y-57850500D01*
X111278983Y-57850500D01*
X111278985Y-57850500D01*
X111432365Y-57812696D01*
X111572240Y-57739283D01*
X111690483Y-57634530D01*
X111780220Y-57504523D01*
X111836237Y-57356818D01*
X111836237Y-57356817D01*
X111836238Y-57356815D01*
X111855278Y-57200003D01*
X111855278Y-57199996D01*
X111836238Y-57043184D01*
X111828392Y-57022498D01*
X111780220Y-56895477D01*
X111780216Y-56895472D01*
X111780216Y-56895470D01*
X111690483Y-56765470D01*
X111690481Y-56765468D01*
X111572240Y-56660717D01*
X111432365Y-56587304D01*
X111432361Y-56587302D01*
X111278987Y-56549500D01*
X111278985Y-56549500D01*
X111121015Y-56549500D01*
X111121012Y-56549500D01*
X110967638Y-56587302D01*
X110967634Y-56587304D01*
X110827755Y-56660719D01*
X110823660Y-56663546D01*
X110756233Y-56685774D01*
X110687492Y-56668020D01*
X110639262Y-56615920D01*
X110638970Y-56615329D01*
X110589198Y-56513517D01*
X110589196Y-56513515D01*
X110589196Y-56513514D01*
X110506485Y-56430803D01*
X110506482Y-56430801D01*
X110401394Y-56379427D01*
X110333261Y-56369500D01*
X110333260Y-56369500D01*
X107116740Y-56369500D01*
X107116738Y-56369500D01*
X107048605Y-56379427D01*
X106943517Y-56430801D01*
X106943514Y-56430803D01*
X106860803Y-56513514D01*
X106860801Y-56513517D01*
X106809427Y-56618605D01*
X106799500Y-56686738D01*
X106799500Y-57753261D01*
X105758000Y-57753261D01*
X105758000Y-57474000D01*
X103929000Y-57474000D01*
X103421000Y-57474000D01*
X101592000Y-57474000D01*
X100560000Y-57474000D01*
X100560000Y-56966000D01*
X101592000Y-56966000D01*
X103421000Y-56966000D01*
X103421000Y-56212000D01*
X103929000Y-56212000D01*
X103929000Y-56966000D01*
X105758000Y-56966000D01*
X105758000Y-56671414D01*
X105757999Y-56671402D01*
X105751494Y-56610906D01*
X105700444Y-56474035D01*
X105700444Y-56474034D01*
X105612904Y-56357095D01*
X105495965Y-56269555D01*
X105359093Y-56218505D01*
X105298597Y-56212000D01*
X103929000Y-56212000D01*
X103421000Y-56212000D01*
X102051402Y-56212000D01*
X101990906Y-56218505D01*
X101854035Y-56269555D01*
X101854034Y-56269555D01*
X101737095Y-56357095D01*
X101649555Y-56474034D01*
X101649555Y-56474035D01*
X101598505Y-56610906D01*
X101592000Y-56671402D01*
X101592000Y-56966000D01*
X100560000Y-56966000D01*
X100560000Y-53281182D01*
X101399500Y-53281182D01*
X101410159Y-53351897D01*
X101438604Y-53540619D01*
X101515933Y-53791314D01*
X101515938Y-53791327D01*
X101629773Y-54027706D01*
X101629777Y-54027713D01*
X101777562Y-54244472D01*
X101777567Y-54244479D01*
X101956019Y-54436805D01*
X102161143Y-54600386D01*
X102161146Y-54600388D01*
X102388352Y-54731566D01*
X102388356Y-54731567D01*
X102388357Y-54731568D01*
X102632584Y-54827420D01*
X102888370Y-54885802D01*
X103040409Y-54897195D01*
X103084503Y-54900500D01*
X103084506Y-54900500D01*
X103215497Y-54900500D01*
X103256516Y-54897425D01*
X103411630Y-54885802D01*
X103667416Y-54827420D01*
X103911643Y-54731568D01*
X103911645Y-54731566D01*
X103911647Y-54731566D01*
X104069526Y-54640414D01*
X104138857Y-54600386D01*
X104343981Y-54436805D01*
X104522433Y-54244479D01*
X104670228Y-54027704D01*
X104784063Y-53791323D01*
X104787366Y-53780615D01*
X104861395Y-53540619D01*
X104871714Y-53472158D01*
X104900500Y-53281182D01*
X104900500Y-53206330D01*
X106045710Y-53206330D01*
X106060909Y-53318536D01*
X106075925Y-53429390D01*
X106145484Y-53643467D01*
X106252144Y-53841675D01*
X106252148Y-53841682D01*
X106364069Y-53982026D01*
X106392492Y-54017666D01*
X106562004Y-54165765D01*
X106755236Y-54281215D01*
X106965976Y-54360307D01*
X106965978Y-54360307D01*
X106965980Y-54360308D01*
X107099229Y-54384489D01*
X107187453Y-54400500D01*
X107187454Y-54400500D01*
X107356149Y-54400500D01*
X107356155Y-54400500D01*
X107513759Y-54386315D01*
X107524189Y-54385377D01*
X107524189Y-54385376D01*
X107699507Y-54336991D01*
X107741167Y-54325494D01*
X107741167Y-54325493D01*
X107741170Y-54325493D01*
X107854327Y-54271000D01*
X114142000Y-54271000D01*
X115068884Y-54271000D01*
X115040507Y-54315156D01*
X115000000Y-54453111D01*
X115000000Y-54596889D01*
X115040507Y-54734844D01*
X115068884Y-54779000D01*
X114145942Y-54779000D01*
X114156693Y-54905331D01*
X114156695Y-54905338D01*
X114214940Y-55129033D01*
X114310157Y-55339678D01*
X114310160Y-55339684D01*
X114439606Y-55531205D01*
X114439612Y-55531213D01*
X114599556Y-55698096D01*
X114599564Y-55698102D01*
X114785413Y-55835556D01*
X114991834Y-55939630D01*
X114991833Y-55939630D01*
X115212863Y-56007319D01*
X115245999Y-56011562D01*
X115245999Y-54958674D01*
X115357685Y-55009680D01*
X115464237Y-55025000D01*
X115535763Y-55025000D01*
X115642315Y-55009680D01*
X115753999Y-54958674D01*
X115754000Y-56009437D01*
X115899093Y-55978167D01*
X116113587Y-55891977D01*
X116310435Y-55770772D01*
X116483961Y-55618048D01*
X116483962Y-55618047D01*
X116620465Y-55448991D01*
X116678822Y-55408556D01*
X116749776Y-55406090D01*
X116810799Y-55442376D01*
X116834905Y-55479925D01*
X116875464Y-55577841D01*
X116971718Y-55703282D01*
X117097159Y-55799536D01*
X117243238Y-55860044D01*
X117360639Y-55875500D01*
X118639360Y-55875499D01*
X118756762Y-55860044D01*
X118902841Y-55799536D01*
X119028282Y-55703282D01*
X119124536Y-55577841D01*
X119185044Y-55431762D01*
X119199336Y-55323205D01*
X129649500Y-55323205D01*
X129649501Y-55323224D01*
X129664154Y-55467316D01*
X129664155Y-55467321D01*
X129697625Y-55573997D01*
X129722025Y-55651766D01*
X129815842Y-55820794D01*
X129924636Y-55947521D01*
X129941760Y-55967468D01*
X130094627Y-56085796D01*
X130268184Y-56170930D01*
X130455326Y-56219385D01*
X130455331Y-56219385D01*
X130455334Y-56219386D01*
X130648390Y-56229176D01*
X130839474Y-56199903D01*
X131020753Y-56132764D01*
X131184807Y-56030509D01*
X131324919Y-55897323D01*
X131435353Y-55738658D01*
X131482535Y-55628708D01*
X131527780Y-55573997D01*
X131595422Y-55552431D01*
X131663985Y-55570859D01*
X131711701Y-55623429D01*
X131718544Y-55640675D01*
X131722021Y-55651758D01*
X131722025Y-55651766D01*
X131815842Y-55820794D01*
X131924636Y-55947521D01*
X131941760Y-55967468D01*
X132094627Y-56085796D01*
X132268184Y-56170930D01*
X132455326Y-56219385D01*
X132455331Y-56219385D01*
X132455334Y-56219386D01*
X132648390Y-56229176D01*
X132839474Y-56199903D01*
X133020753Y-56132764D01*
X133184807Y-56030509D01*
X133324919Y-55897323D01*
X133435353Y-55738658D01*
X133482535Y-55628708D01*
X133527780Y-55573997D01*
X133595422Y-55552431D01*
X133663985Y-55570859D01*
X133711701Y-55623429D01*
X133718544Y-55640675D01*
X133722021Y-55651758D01*
X133722025Y-55651766D01*
X133815842Y-55820794D01*
X133924636Y-55947521D01*
X133941760Y-55967468D01*
X134094627Y-56085796D01*
X134268184Y-56170930D01*
X134455326Y-56219385D01*
X134455331Y-56219385D01*
X134455334Y-56219386D01*
X134648390Y-56229176D01*
X134839474Y-56199903D01*
X135020753Y-56132764D01*
X135184807Y-56030509D01*
X135324919Y-55897323D01*
X135327956Y-55892958D01*
X135383286Y-55848473D01*
X135453885Y-55840963D01*
X135517336Y-55872813D01*
X135550978Y-55925303D01*
X135558340Y-55947521D01*
X135651365Y-56098339D01*
X135651370Y-56098345D01*
X135776654Y-56223629D01*
X135776660Y-56223634D01*
X135927474Y-56316657D01*
X136095678Y-56372393D01*
X136095681Y-56372394D01*
X136199483Y-56382999D01*
X136199483Y-56383000D01*
X136346000Y-56383000D01*
X136346000Y-55277503D01*
X136419052Y-55334363D01*
X136537424Y-55375000D01*
X136631073Y-55375000D01*
X136723446Y-55359586D01*
X136833514Y-55300019D01*
X136854000Y-55277765D01*
X136854000Y-56383000D01*
X137000517Y-56383000D01*
X137000516Y-56382999D01*
X137104318Y-56372394D01*
X137104321Y-56372393D01*
X137272525Y-56316657D01*
X137423339Y-56223634D01*
X137423345Y-56223629D01*
X137548629Y-56098345D01*
X137548634Y-56098339D01*
X137641657Y-55947525D01*
X137697393Y-55779321D01*
X137697394Y-55779318D01*
X137707999Y-55675516D01*
X137708000Y-55675516D01*
X137708000Y-55254000D01*
X136875878Y-55254000D01*
X136918278Y-55207941D01*
X136968551Y-55093330D01*
X136978886Y-54968605D01*
X136948163Y-54847281D01*
X136881992Y-54746000D01*
X137708000Y-54746000D01*
X137708000Y-54324483D01*
X137697394Y-54220681D01*
X137697393Y-54220678D01*
X137641657Y-54052474D01*
X137548634Y-53901660D01*
X137548629Y-53901654D01*
X137423345Y-53776370D01*
X137423339Y-53776365D01*
X137272525Y-53683342D01*
X137104321Y-53627606D01*
X137104318Y-53627605D01*
X137000516Y-53617000D01*
X136854000Y-53617000D01*
X136854000Y-54722496D01*
X136780948Y-54665637D01*
X136662576Y-54625000D01*
X136568927Y-54625000D01*
X136476554Y-54640414D01*
X136366486Y-54699981D01*
X136346000Y-54722234D01*
X136346000Y-53617000D01*
X136199483Y-53617000D01*
X136095681Y-53627605D01*
X136095678Y-53627606D01*
X135927474Y-53683342D01*
X135776660Y-53776365D01*
X135776654Y-53776370D01*
X135651370Y-53901654D01*
X135651365Y-53901660D01*
X135558342Y-54052475D01*
X135549613Y-54078817D01*
X135509197Y-54137187D01*
X135443640Y-54164441D01*
X135373755Y-54151926D01*
X135334407Y-54121256D01*
X135258240Y-54032532D01*
X135105373Y-53914204D01*
X135105369Y-53914202D01*
X135105368Y-53914201D01*
X135015480Y-53870109D01*
X134931816Y-53829070D01*
X134931813Y-53829069D01*
X134819917Y-53800097D01*
X134744674Y-53780615D01*
X134744672Y-53780614D01*
X134744669Y-53780614D01*
X134744665Y-53780613D01*
X134551609Y-53770823D01*
X134360525Y-53800097D01*
X134179244Y-53867237D01*
X134015193Y-53969490D01*
X133875080Y-54102678D01*
X133875078Y-54102680D01*
X133764645Y-54261343D01*
X133764644Y-54261344D01*
X133717463Y-54371290D01*
X133672218Y-54426002D01*
X133604576Y-54447568D01*
X133536013Y-54429139D01*
X133488297Y-54376568D01*
X133481453Y-54359320D01*
X133477974Y-54348232D01*
X133384157Y-54179205D01*
X133258245Y-54032538D01*
X133258240Y-54032532D01*
X133105373Y-53914204D01*
X133105369Y-53914202D01*
X133105368Y-53914201D01*
X133015480Y-53870109D01*
X132931816Y-53829070D01*
X132931813Y-53829069D01*
X132819917Y-53800097D01*
X132744674Y-53780615D01*
X132744672Y-53780614D01*
X132744669Y-53780614D01*
X132744665Y-53780613D01*
X132551609Y-53770823D01*
X132360525Y-53800097D01*
X132179244Y-53867237D01*
X132015193Y-53969490D01*
X131875080Y-54102678D01*
X131875078Y-54102680D01*
X131764645Y-54261343D01*
X131764644Y-54261344D01*
X131717463Y-54371290D01*
X131672218Y-54426002D01*
X131604576Y-54447568D01*
X131536013Y-54429139D01*
X131488297Y-54376568D01*
X131481453Y-54359320D01*
X131477974Y-54348232D01*
X131384157Y-54179205D01*
X131258245Y-54032538D01*
X131258240Y-54032532D01*
X131105373Y-53914204D01*
X131105369Y-53914202D01*
X131105368Y-53914201D01*
X131015480Y-53870109D01*
X130931816Y-53829070D01*
X130931813Y-53829069D01*
X130819917Y-53800097D01*
X130744674Y-53780615D01*
X130744672Y-53780614D01*
X130744669Y-53780614D01*
X130744665Y-53780613D01*
X130551609Y-53770823D01*
X130360525Y-53800097D01*
X130179244Y-53867237D01*
X130015193Y-53969490D01*
X129875080Y-54102678D01*
X129875078Y-54102680D01*
X129764647Y-54261340D01*
X129688412Y-54438989D01*
X129649500Y-54628345D01*
X129649500Y-55323205D01*
X119199336Y-55323205D01*
X119200500Y-55314361D01*
X119200499Y-53735640D01*
X119185044Y-53618238D01*
X119124536Y-53472159D01*
X119028282Y-53346718D01*
X118902841Y-53250464D01*
X118796293Y-53206330D01*
X141445710Y-53206330D01*
X141460909Y-53318536D01*
X141475925Y-53429390D01*
X141545484Y-53643467D01*
X141652144Y-53841675D01*
X141652148Y-53841682D01*
X141764069Y-53982026D01*
X141792492Y-54017666D01*
X141962004Y-54165765D01*
X142155236Y-54281215D01*
X142365976Y-54360307D01*
X142365978Y-54360307D01*
X142365980Y-54360308D01*
X142499229Y-54384489D01*
X142587453Y-54400500D01*
X142587454Y-54400500D01*
X142756149Y-54400500D01*
X142756155Y-54400500D01*
X142913759Y-54386315D01*
X142924189Y-54385377D01*
X142924189Y-54385376D01*
X143099507Y-54336991D01*
X143141167Y-54325494D01*
X143141167Y-54325493D01*
X143141170Y-54325493D01*
X143343973Y-54227829D01*
X143526078Y-54095522D01*
X143681632Y-53932825D01*
X143805635Y-53744968D01*
X143894103Y-53537988D01*
X143944191Y-53318537D01*
X143945869Y-53281182D01*
X145099500Y-53281182D01*
X145110159Y-53351897D01*
X145138604Y-53540619D01*
X145215933Y-53791314D01*
X145215938Y-53791327D01*
X145329773Y-54027706D01*
X145329777Y-54027713D01*
X145477562Y-54244472D01*
X145477567Y-54244479D01*
X145656019Y-54436805D01*
X145861143Y-54600386D01*
X145861146Y-54600388D01*
X146088352Y-54731566D01*
X146088356Y-54731567D01*
X146088357Y-54731568D01*
X146332584Y-54827420D01*
X146588370Y-54885802D01*
X146740409Y-54897195D01*
X146784503Y-54900500D01*
X146784506Y-54900500D01*
X146915497Y-54900500D01*
X146956516Y-54897425D01*
X147111630Y-54885802D01*
X147367416Y-54827420D01*
X147611643Y-54731568D01*
X147611645Y-54731566D01*
X147611647Y-54731566D01*
X147769526Y-54640414D01*
X147838857Y-54600386D01*
X148043981Y-54436805D01*
X148222433Y-54244479D01*
X148370228Y-54027704D01*
X148484063Y-53791323D01*
X148487366Y-53780615D01*
X148561395Y-53540619D01*
X148571714Y-53472158D01*
X148600500Y-53281182D01*
X148600500Y-53018818D01*
X148561396Y-52759385D01*
X148561395Y-52759383D01*
X148561395Y-52759380D01*
X148484066Y-52508685D01*
X148484061Y-52508672D01*
X148375061Y-52282332D01*
X148370228Y-52272296D01*
X148370226Y-52272293D01*
X148370222Y-52272286D01*
X148222437Y-52055527D01*
X148222433Y-52055521D01*
X148043981Y-51863195D01*
X147838857Y-51699614D01*
X147838852Y-51699611D01*
X147838853Y-51699611D01*
X147611647Y-51568433D01*
X147611639Y-51568430D01*
X147367419Y-51472581D01*
X147367417Y-51472580D01*
X147111632Y-51414198D01*
X146915497Y-51399500D01*
X146915494Y-51399500D01*
X146784506Y-51399500D01*
X146784503Y-51399500D01*
X146588367Y-51414198D01*
X146332582Y-51472580D01*
X146332580Y-51472581D01*
X146088360Y-51568430D01*
X146088352Y-51568433D01*
X145861146Y-51699611D01*
X145656018Y-51863195D01*
X145477566Y-52055522D01*
X145477562Y-52055527D01*
X145329777Y-52272286D01*
X145329773Y-52272293D01*
X145215938Y-52508672D01*
X145215933Y-52508685D01*
X145138604Y-52759380D01*
X145125362Y-52847235D01*
X145099500Y-53018818D01*
X145099500Y-53281182D01*
X143945869Y-53281182D01*
X143954290Y-53093670D01*
X143924075Y-52870613D01*
X143854517Y-52656536D01*
X143799897Y-52555035D01*
X143747855Y-52458324D01*
X143747851Y-52458317D01*
X143607506Y-52282332D01*
X143437998Y-52134237D01*
X143437996Y-52134235D01*
X143244764Y-52018785D01*
X143126780Y-51974505D01*
X143034019Y-51939691D01*
X142844091Y-51905224D01*
X142812547Y-51899500D01*
X142643845Y-51899500D01*
X142612558Y-51902315D01*
X142475810Y-51914622D01*
X142475810Y-51914623D01*
X142258832Y-51974505D01*
X142056031Y-52072168D01*
X142056023Y-52072173D01*
X141873921Y-52204478D01*
X141873920Y-52204479D01*
X141718369Y-52367172D01*
X141594367Y-52555027D01*
X141594363Y-52555035D01*
X141505897Y-52762011D01*
X141505896Y-52762013D01*
X141455809Y-52981461D01*
X141455809Y-52981463D01*
X141447140Y-53174500D01*
X141445710Y-53206330D01*
X118796293Y-53206330D01*
X118756760Y-53189955D01*
X118680332Y-53179893D01*
X118639361Y-53174500D01*
X118639358Y-53174500D01*
X117360640Y-53174500D01*
X117360631Y-53174501D01*
X117254978Y-53188410D01*
X117243238Y-53189956D01*
X117097160Y-53250463D01*
X117097157Y-53250465D01*
X116971718Y-53346718D01*
X116875465Y-53472157D01*
X116875464Y-53472159D01*
X116833402Y-53573703D01*
X116788855Y-53628982D01*
X116721492Y-53651403D01*
X116652701Y-53633845D01*
X116612603Y-53596040D01*
X116560393Y-53518794D01*
X116560387Y-53518786D01*
X116400443Y-53351903D01*
X116400435Y-53351897D01*
X116214586Y-53214443D01*
X116008165Y-53110369D01*
X115787137Y-53042680D01*
X115754000Y-53038435D01*
X115753999Y-54091325D01*
X115642315Y-54040320D01*
X115535763Y-54025000D01*
X115464237Y-54025000D01*
X115357685Y-54040320D01*
X115246000Y-54091325D01*
X115246000Y-53040561D01*
X115100906Y-53071831D01*
X114886412Y-53158022D01*
X114689564Y-53279227D01*
X114516038Y-53431951D01*
X114516035Y-53431954D01*
X114370819Y-53611800D01*
X114258077Y-53813617D01*
X114181068Y-54031570D01*
X114142000Y-54259419D01*
X114142000Y-54271000D01*
X107854327Y-54271000D01*
X107943973Y-54227829D01*
X108126078Y-54095522D01*
X108281632Y-53932825D01*
X108405635Y-53744968D01*
X108494103Y-53537988D01*
X108544191Y-53318537D01*
X108554290Y-53093670D01*
X108524075Y-52870613D01*
X108454517Y-52656536D01*
X108399897Y-52555035D01*
X108347855Y-52458324D01*
X108347851Y-52458317D01*
X108207506Y-52282332D01*
X108037998Y-52134237D01*
X108037996Y-52134235D01*
X107844764Y-52018785D01*
X107726780Y-51974505D01*
X107634019Y-51939691D01*
X107444091Y-51905224D01*
X107412547Y-51899500D01*
X107243845Y-51899500D01*
X107212558Y-51902315D01*
X107075810Y-51914622D01*
X107075810Y-51914623D01*
X106858832Y-51974505D01*
X106656031Y-52072168D01*
X106656023Y-52072173D01*
X106473921Y-52204478D01*
X106473920Y-52204479D01*
X106318369Y-52367172D01*
X106194367Y-52555027D01*
X106194363Y-52555035D01*
X106105897Y-52762011D01*
X106105896Y-52762013D01*
X106055809Y-52981461D01*
X106055809Y-52981463D01*
X106047140Y-53174500D01*
X106045710Y-53206330D01*
X104900500Y-53206330D01*
X104900500Y-53018818D01*
X104861396Y-52759385D01*
X104861395Y-52759383D01*
X104861395Y-52759380D01*
X104784066Y-52508685D01*
X104784061Y-52508672D01*
X104675061Y-52282332D01*
X104670228Y-52272296D01*
X104670226Y-52272293D01*
X104670222Y-52272286D01*
X104522437Y-52055527D01*
X104522433Y-52055521D01*
X104343981Y-51863195D01*
X104138857Y-51699614D01*
X104138852Y-51699611D01*
X104138853Y-51699611D01*
X103911647Y-51568433D01*
X103911639Y-51568430D01*
X103667419Y-51472581D01*
X103667417Y-51472580D01*
X103411632Y-51414198D01*
X103215497Y-51399500D01*
X103215494Y-51399500D01*
X103084506Y-51399500D01*
X103084503Y-51399500D01*
X102888367Y-51414198D01*
X102632582Y-51472580D01*
X102632580Y-51472581D01*
X102388360Y-51568430D01*
X102388352Y-51568433D01*
X102161146Y-51699611D01*
X101956018Y-51863195D01*
X101777566Y-52055522D01*
X101777562Y-52055527D01*
X101629777Y-52272286D01*
X101629773Y-52272293D01*
X101515938Y-52508672D01*
X101515933Y-52508685D01*
X101438604Y-52759380D01*
X101425362Y-52847235D01*
X101399500Y-53018818D01*
X101399500Y-53281182D01*
X100560000Y-53281182D01*
X100560000Y-52623371D01*
X100562064Y-52600660D01*
X100572459Y-52543934D01*
X100596719Y-52411546D01*
X100598532Y-52404192D01*
X100685171Y-52126157D01*
X100687861Y-52119063D01*
X100807377Y-51853513D01*
X100810910Y-51846783D01*
X100905038Y-51691075D01*
X100961558Y-51597578D01*
X100965867Y-51591335D01*
X101145469Y-51362090D01*
X101150494Y-51356418D01*
X101356418Y-51150494D01*
X101362090Y-51145469D01*
X101591335Y-50965867D01*
X101597578Y-50961558D01*
X101846783Y-50810910D01*
X101853513Y-50807377D01*
X102119063Y-50687861D01*
X102126157Y-50685171D01*
X102404180Y-50598535D01*
X102411546Y-50596719D01*
X102697989Y-50544227D01*
X102705527Y-50543312D01*
X102998099Y-50525614D01*
X103001903Y-50525500D01*
X103008285Y-50525500D01*
X109969863Y-50525500D01*
X109980425Y-50527601D01*
X110000000Y-50527601D01*
X110019517Y-50519517D01*
X110025500Y-50505072D01*
X110027601Y-50500000D01*
X110027600Y-50499997D01*
X110027601Y-50480435D01*
X110025500Y-50469867D01*
X110025500Y-50151500D01*
X110045502Y-50083379D01*
X110099158Y-50036886D01*
X110151500Y-50025500D01*
X139848500Y-50025500D01*
X139916621Y-50045502D01*
G37*
G04 #@! TD.AperFunction*
M02*
