M48
; DRILL file {KiCad 7.0.7-7.0.7~ubuntu23.04.1} date Tue Sep 19 04:43:27 2023
; FORMAT={-:-/ absolute / metric / decimal}
; #@! TF.CreationDate,2023-09-19T04:43:27+00:00
; #@! TF.GenerationSoftware,Kicad,Pcbnew,7.0.7-7.0.7~ubuntu23.04.1
; #@! TF.FileFunction,Plated,1,2,PTH
FMAT,2
METRIC
; #@! TA.AperFunction,Plated,PTH,ViaDrill
T1C0.300
; #@! TA.AperFunction,Plated,PTH,ComponentDrill
T2C0.750
; #@! TA.AperFunction,Plated,PTH,ComponentDrill
T3C0.900
; #@! TA.AperFunction,Plated,PTH,ComponentDrill
T4C0.950
; #@! TA.AperFunction,Plated,PTH,ComponentDrill
T5C1.000
; #@! TA.AperFunction,Plated,PTH,ComponentDrill
T6C1.500
%
G90
G05
T1
X101.0Y-61.0
X101.0Y-66.0
X101.0Y-71.0
X101.0Y-76.0
X101.0Y-81.45
X101.0Y-86.538
X101.016Y-64.948
X101.016Y-67.488
X101.016Y-69.774
X101.016Y-72.568
X101.016Y-85.014
X101.016Y-89.586
X101.016Y-90.386
X101.016Y-91.364
X101.1Y-77.5
X101.5Y-55.0
X101.5Y-95.0
X105.8Y-75.0
X106.15Y-80.15
X106.15Y-81.4
X106.15Y-82.7
X106.2Y-76.1
X106.2Y-93.3
X106.25Y-87.55
X107.6Y-88.976
X107.7Y-91.5
X108.0Y-51.5
X108.0Y-98.5
X109.0Y-94.6
X110.7Y-92.3
X110.7Y-93.3
X110.81Y-72.202
X110.93Y-75.01
X111.0Y-59.4
X111.0Y-62.2
X111.0Y-64.8
X111.0Y-77.5
X111.0Y-94.83
X111.0Y-99.0
X111.2Y-57.2
X111.2Y-69.9
X111.22Y-67.38
X111.3Y-89.8
X111.3Y-90.6
X111.41Y-87.74
X111.43Y-85.268
X111.5Y-82.5
X111.6Y-80.1
X112.6Y-62.65
X113.55Y-70.55
X113.9Y-58.6
X113.9Y-73.4
X114.0Y-51.0
X116.0Y-94.85
X116.0Y-99.0
X116.25Y-76.8
X117.55Y-76.5
X117.8Y-63.7
X118.1Y-65.5
X118.5Y-76.534
X119.0Y-51.0
X119.2Y-77.7
X119.4Y-69.6
X119.4Y-88.2
X121.0Y-94.85
X121.0Y-99.0
X123.0Y-61.55
X123.05Y-58.65
X124.0Y-51.0
X126.0Y-94.85
X126.0Y-99.0
X126.6Y-88.0
X126.8Y-63.7
X127.9Y-69.7
X128.0Y-74.75
X129.0Y-51.0
X129.1Y-54.9
X129.1Y-76.534
X130.2Y-84.6
X130.35Y-78.0
X130.95Y-62.4
X130.98Y-96.53
X131.0Y-75.5
X131.0Y-99.0
X131.8Y-92.0
X132.4Y-57.65
X134.0Y-51.0
X134.6Y-83.9
X134.6Y-87.6
X136.0Y-99.0
X136.6Y-59.3
X136.8Y-77.6
X137.0Y-75.0
X137.0Y-81.0
X137.38Y-95.49
X137.795Y-93.066
X138.2Y-71.4
X138.6Y-76.2
X139.4Y-80.963
X140.5Y-51.0
X141.0Y-77.8
X141.4Y-84.2
X142.0Y-51.5
X142.0Y-98.5
X143.7Y-63.4
X146.4Y-87.1
X148.5Y-55.5
X148.5Y-94.5
X149.0Y-63.0
X149.0Y-68.0
X149.0Y-74.0
X149.0Y-79.0
X149.0Y-84.0
X149.0Y-89.0
T2
X130.6Y-55.0
X132.6Y-55.0
X134.6Y-55.0
X136.6Y-55.0
X142.35Y-91.15
X144.35Y-91.15
T3
X145.8Y-59.15
X145.8Y-61.15
X145.8Y-63.15
T4
X144.7Y-69.9
X144.7Y-72.4
X144.7Y-74.9
X144.7Y-80.9
X144.7Y-83.4
X144.7Y-85.9
T5
X115.5Y-54.525
X118.0Y-54.525
T6
X145.8Y-57.05
X145.8Y-65.25
T0
M30
