G04 #@! TF.GenerationSoftware,KiCad,Pcbnew,7.0.7-7.0.7~ubuntu23.04.1*
G04 #@! TF.CreationDate,2023-09-19T04:43:27+00:00*
G04 #@! TF.ProjectId,m5-pantilt,6d352d70-616e-4746-996c-742e6b696361,1*
G04 #@! TF.SameCoordinates,Original*
G04 #@! TF.FileFunction,Paste,Top*
G04 #@! TF.FilePolarity,Positive*
%FSLAX46Y46*%
G04 Gerber Fmt 4.6, Leading zero omitted, Abs format (unit mm)*
G04 Created by KiCad (PCBNEW 7.0.7-7.0.7~ubuntu23.04.1) date 2023-09-19 04:43:27*
%MOMM*%
%LPD*%
G01*
G04 APERTURE LIST*
%ADD10R,0.900000X0.800000*%
%ADD11R,3.000000X1.000000*%
%ADD12R,2.500000X1.800000*%
%ADD13R,2.100000X1.400000*%
G04 APERTURE END LIST*
G36*
G01*
X117100000Y-81262500D02*
X117100000Y-81737500D01*
G75*
G02*
X116862500Y-81975000I-237500J0D01*
G01*
X116362500Y-81975000D01*
G75*
G02*
X116125000Y-81737500I0J237500D01*
G01*
X116125000Y-81262500D01*
G75*
G02*
X116362500Y-81025000I237500J0D01*
G01*
X116862500Y-81025000D01*
G75*
G02*
X117100000Y-81262500I0J-237500D01*
G01*
G37*
G36*
G01*
X115275000Y-81262500D02*
X115275000Y-81737500D01*
G75*
G02*
X115037500Y-81975000I-237500J0D01*
G01*
X114537500Y-81975000D01*
G75*
G02*
X114300000Y-81737500I0J237500D01*
G01*
X114300000Y-81262500D01*
G75*
G02*
X114537500Y-81025000I237500J0D01*
G01*
X115037500Y-81025000D01*
G75*
G02*
X115275000Y-81262500I0J-237500D01*
G01*
G37*
G36*
G01*
X117100000Y-82962500D02*
X117100000Y-83437500D01*
G75*
G02*
X116862500Y-83675000I-237500J0D01*
G01*
X116362500Y-83675000D01*
G75*
G02*
X116125000Y-83437500I0J237500D01*
G01*
X116125000Y-82962500D01*
G75*
G02*
X116362500Y-82725000I237500J0D01*
G01*
X116862500Y-82725000D01*
G75*
G02*
X117100000Y-82962500I0J-237500D01*
G01*
G37*
G36*
G01*
X115275000Y-82962500D02*
X115275000Y-83437500D01*
G75*
G02*
X115037500Y-83675000I-237500J0D01*
G01*
X114537500Y-83675000D01*
G75*
G02*
X114300000Y-83437500I0J237500D01*
G01*
X114300000Y-82962500D01*
G75*
G02*
X114537500Y-82725000I237500J0D01*
G01*
X115037500Y-82725000D01*
G75*
G02*
X115275000Y-82962500I0J-237500D01*
G01*
G37*
G36*
G01*
X140150000Y-73725000D02*
X138850000Y-73725000D01*
G75*
G02*
X138600000Y-73475000I0J250000D01*
G01*
X138600000Y-72650000D01*
G75*
G02*
X138850000Y-72400000I250000J0D01*
G01*
X140150000Y-72400000D01*
G75*
G02*
X140400000Y-72650000I0J-250000D01*
G01*
X140400000Y-73475000D01*
G75*
G02*
X140150000Y-73725000I-250000J0D01*
G01*
G37*
G36*
G01*
X140150000Y-70600000D02*
X138850000Y-70600000D01*
G75*
G02*
X138600000Y-70350000I0J250000D01*
G01*
X138600000Y-69525000D01*
G75*
G02*
X138850000Y-69275000I250000J0D01*
G01*
X140150000Y-69275000D01*
G75*
G02*
X140400000Y-69525000I0J-250000D01*
G01*
X140400000Y-70350000D01*
G75*
G02*
X140150000Y-70600000I-250000J0D01*
G01*
G37*
G36*
G01*
X136464000Y-69275000D02*
X137764000Y-69275000D01*
G75*
G02*
X138014000Y-69525000I0J-250000D01*
G01*
X138014000Y-70350000D01*
G75*
G02*
X137764000Y-70600000I-250000J0D01*
G01*
X136464000Y-70600000D01*
G75*
G02*
X136214000Y-70350000I0J250000D01*
G01*
X136214000Y-69525000D01*
G75*
G02*
X136464000Y-69275000I250000J0D01*
G01*
G37*
G36*
G01*
X136464000Y-72400000D02*
X137764000Y-72400000D01*
G75*
G02*
X138014000Y-72650000I0J-250000D01*
G01*
X138014000Y-73475000D01*
G75*
G02*
X137764000Y-73725000I-250000J0D01*
G01*
X136464000Y-73725000D01*
G75*
G02*
X136214000Y-73475000I0J250000D01*
G01*
X136214000Y-72650000D01*
G75*
G02*
X136464000Y-72400000I250000J0D01*
G01*
G37*
G36*
G01*
X136450000Y-78675000D02*
X137750000Y-78675000D01*
G75*
G02*
X138000000Y-78925000I0J-250000D01*
G01*
X138000000Y-79750000D01*
G75*
G02*
X137750000Y-80000000I-250000J0D01*
G01*
X136450000Y-80000000D01*
G75*
G02*
X136200000Y-79750000I0J250000D01*
G01*
X136200000Y-78925000D01*
G75*
G02*
X136450000Y-78675000I250000J0D01*
G01*
G37*
G36*
G01*
X136450000Y-81800000D02*
X137750000Y-81800000D01*
G75*
G02*
X138000000Y-82050000I0J-250000D01*
G01*
X138000000Y-82875000D01*
G75*
G02*
X137750000Y-83125000I-250000J0D01*
G01*
X136450000Y-83125000D01*
G75*
G02*
X136200000Y-82875000I0J250000D01*
G01*
X136200000Y-82050000D01*
G75*
G02*
X136450000Y-81800000I250000J0D01*
G01*
G37*
D10*
X133800000Y-95950000D03*
X133800000Y-94050000D03*
X131800000Y-95000000D03*
G36*
G01*
X135873700Y-96396200D02*
X135398700Y-96396200D01*
G75*
G02*
X135161200Y-96158700I0J237500D01*
G01*
X135161200Y-95658700D01*
G75*
G02*
X135398700Y-95421200I237500J0D01*
G01*
X135873700Y-95421200D01*
G75*
G02*
X136111200Y-95658700I0J-237500D01*
G01*
X136111200Y-96158700D01*
G75*
G02*
X135873700Y-96396200I-237500J0D01*
G01*
G37*
G36*
G01*
X135873700Y-94571200D02*
X135398700Y-94571200D01*
G75*
G02*
X135161200Y-94333700I0J237500D01*
G01*
X135161200Y-93833700D01*
G75*
G02*
X135398700Y-93596200I237500J0D01*
G01*
X135873700Y-93596200D01*
G75*
G02*
X136111200Y-93833700I0J-237500D01*
G01*
X136111200Y-94333700D01*
G75*
G02*
X135873700Y-94571200I-237500J0D01*
G01*
G37*
G36*
G01*
X117100000Y-78012500D02*
X117100000Y-78487500D01*
G75*
G02*
X116862500Y-78725000I-237500J0D01*
G01*
X116362500Y-78725000D01*
G75*
G02*
X116125000Y-78487500I0J237500D01*
G01*
X116125000Y-78012500D01*
G75*
G02*
X116362500Y-77775000I237500J0D01*
G01*
X116862500Y-77775000D01*
G75*
G02*
X117100000Y-78012500I0J-237500D01*
G01*
G37*
G36*
G01*
X115275000Y-78012500D02*
X115275000Y-78487500D01*
G75*
G02*
X115037500Y-78725000I-237500J0D01*
G01*
X114537500Y-78725000D01*
G75*
G02*
X114300000Y-78487500I0J237500D01*
G01*
X114300000Y-78012500D01*
G75*
G02*
X114537500Y-77775000I237500J0D01*
G01*
X115037500Y-77775000D01*
G75*
G02*
X115275000Y-78012500I0J-237500D01*
G01*
G37*
G36*
G01*
X117150000Y-84912500D02*
X117150000Y-85387500D01*
G75*
G02*
X116912500Y-85625000I-237500J0D01*
G01*
X116412500Y-85625000D01*
G75*
G02*
X116175000Y-85387500I0J237500D01*
G01*
X116175000Y-84912500D01*
G75*
G02*
X116412500Y-84675000I237500J0D01*
G01*
X116912500Y-84675000D01*
G75*
G02*
X117150000Y-84912500I0J-237500D01*
G01*
G37*
G36*
G01*
X115325000Y-84912500D02*
X115325000Y-85387500D01*
G75*
G02*
X115087500Y-85625000I-237500J0D01*
G01*
X114587500Y-85625000D01*
G75*
G02*
X114350000Y-85387500I0J237500D01*
G01*
X114350000Y-84912500D01*
G75*
G02*
X114587500Y-84675000I237500J0D01*
G01*
X115087500Y-84675000D01*
G75*
G02*
X115325000Y-84912500I0J-237500D01*
G01*
G37*
G36*
G01*
X117100000Y-79612500D02*
X117100000Y-80087500D01*
G75*
G02*
X116862500Y-80325000I-237500J0D01*
G01*
X116362500Y-80325000D01*
G75*
G02*
X116125000Y-80087500I0J237500D01*
G01*
X116125000Y-79612500D01*
G75*
G02*
X116362500Y-79375000I237500J0D01*
G01*
X116862500Y-79375000D01*
G75*
G02*
X117100000Y-79612500I0J-237500D01*
G01*
G37*
G36*
G01*
X115275000Y-79612500D02*
X115275000Y-80087500D01*
G75*
G02*
X115037500Y-80325000I-237500J0D01*
G01*
X114537500Y-80325000D01*
G75*
G02*
X114300000Y-80087500I0J237500D01*
G01*
X114300000Y-79612500D01*
G75*
G02*
X114537500Y-79375000I237500J0D01*
G01*
X115037500Y-79375000D01*
G75*
G02*
X115275000Y-79612500I0J-237500D01*
G01*
G37*
G36*
G01*
X117150000Y-86512500D02*
X117150000Y-86987500D01*
G75*
G02*
X116912500Y-87225000I-237500J0D01*
G01*
X116412500Y-87225000D01*
G75*
G02*
X116175000Y-86987500I0J237500D01*
G01*
X116175000Y-86512500D01*
G75*
G02*
X116412500Y-86275000I237500J0D01*
G01*
X116912500Y-86275000D01*
G75*
G02*
X117150000Y-86512500I0J-237500D01*
G01*
G37*
G36*
G01*
X115325000Y-86512500D02*
X115325000Y-86987500D01*
G75*
G02*
X115087500Y-87225000I-237500J0D01*
G01*
X114587500Y-87225000D01*
G75*
G02*
X114350000Y-86987500I0J237500D01*
G01*
X114350000Y-86512500D01*
G75*
G02*
X114587500Y-86275000I237500J0D01*
G01*
X115087500Y-86275000D01*
G75*
G02*
X115325000Y-86512500I0J-237500D01*
G01*
G37*
G36*
G01*
X128775000Y-72575000D02*
X128775000Y-72025000D01*
G75*
G02*
X128975000Y-71825000I200000J0D01*
G01*
X129375000Y-71825000D01*
G75*
G02*
X129575000Y-72025000I0J-200000D01*
G01*
X129575000Y-72575000D01*
G75*
G02*
X129375000Y-72775000I-200000J0D01*
G01*
X128975000Y-72775000D01*
G75*
G02*
X128775000Y-72575000I0J200000D01*
G01*
G37*
G36*
G01*
X130425000Y-72575000D02*
X130425000Y-72025000D01*
G75*
G02*
X130625000Y-71825000I200000J0D01*
G01*
X131025000Y-71825000D01*
G75*
G02*
X131225000Y-72025000I0J-200000D01*
G01*
X131225000Y-72575000D01*
G75*
G02*
X131025000Y-72775000I-200000J0D01*
G01*
X130625000Y-72775000D01*
G75*
G02*
X130425000Y-72575000I0J200000D01*
G01*
G37*
G36*
G01*
X131225000Y-70525000D02*
X131225000Y-71075000D01*
G75*
G02*
X131025000Y-71275000I-200000J0D01*
G01*
X130625000Y-71275000D01*
G75*
G02*
X130425000Y-71075000I0J200000D01*
G01*
X130425000Y-70525000D01*
G75*
G02*
X130625000Y-70325000I200000J0D01*
G01*
X131025000Y-70325000D01*
G75*
G02*
X131225000Y-70525000I0J-200000D01*
G01*
G37*
G36*
G01*
X129575000Y-70525000D02*
X129575000Y-71075000D01*
G75*
G02*
X129375000Y-71275000I-200000J0D01*
G01*
X128975000Y-71275000D01*
G75*
G02*
X128775000Y-71075000I0J200000D01*
G01*
X128775000Y-70525000D01*
G75*
G02*
X128975000Y-70325000I200000J0D01*
G01*
X129375000Y-70325000D01*
G75*
G02*
X129575000Y-70525000I0J-200000D01*
G01*
G37*
G36*
G01*
X138850000Y-78675000D02*
X140150000Y-78675000D01*
G75*
G02*
X140400000Y-78925000I0J-250000D01*
G01*
X140400000Y-79750000D01*
G75*
G02*
X140150000Y-80000000I-250000J0D01*
G01*
X138850000Y-80000000D01*
G75*
G02*
X138600000Y-79750000I0J250000D01*
G01*
X138600000Y-78925000D01*
G75*
G02*
X138850000Y-78675000I250000J0D01*
G01*
G37*
G36*
G01*
X138850000Y-81800000D02*
X140150000Y-81800000D01*
G75*
G02*
X140400000Y-82050000I0J-250000D01*
G01*
X140400000Y-82875000D01*
G75*
G02*
X140150000Y-83125000I-250000J0D01*
G01*
X138850000Y-83125000D01*
G75*
G02*
X138600000Y-82875000I0J250000D01*
G01*
X138600000Y-82050000D01*
G75*
G02*
X138850000Y-81800000I250000J0D01*
G01*
G37*
G36*
G01*
X117475000Y-65475000D02*
X117475000Y-66025000D01*
G75*
G02*
X117275000Y-66225000I-200000J0D01*
G01*
X116875000Y-66225000D01*
G75*
G02*
X116675000Y-66025000I0J200000D01*
G01*
X116675000Y-65475000D01*
G75*
G02*
X116875000Y-65275000I200000J0D01*
G01*
X117275000Y-65275000D01*
G75*
G02*
X117475000Y-65475000I0J-200000D01*
G01*
G37*
G36*
G01*
X115825000Y-65475000D02*
X115825000Y-66025000D01*
G75*
G02*
X115625000Y-66225000I-200000J0D01*
G01*
X115225000Y-66225000D01*
G75*
G02*
X115025000Y-66025000I0J200000D01*
G01*
X115025000Y-65475000D01*
G75*
G02*
X115225000Y-65275000I200000J0D01*
G01*
X115625000Y-65275000D01*
G75*
G02*
X115825000Y-65475000I0J-200000D01*
G01*
G37*
G36*
G01*
X131215000Y-65325000D02*
X131215000Y-65875000D01*
G75*
G02*
X131015000Y-66075000I-200000J0D01*
G01*
X130615000Y-66075000D01*
G75*
G02*
X130415000Y-65875000I0J200000D01*
G01*
X130415000Y-65325000D01*
G75*
G02*
X130615000Y-65125000I200000J0D01*
G01*
X131015000Y-65125000D01*
G75*
G02*
X131215000Y-65325000I0J-200000D01*
G01*
G37*
G36*
G01*
X129565000Y-65325000D02*
X129565000Y-65875000D01*
G75*
G02*
X129365000Y-66075000I-200000J0D01*
G01*
X128965000Y-66075000D01*
G75*
G02*
X128765000Y-65875000I0J200000D01*
G01*
X128765000Y-65325000D01*
G75*
G02*
X128965000Y-65125000I200000J0D01*
G01*
X129365000Y-65125000D01*
G75*
G02*
X129565000Y-65325000I0J-200000D01*
G01*
G37*
G36*
G01*
X128775000Y-64250000D02*
X128775000Y-63750000D01*
G75*
G02*
X129000000Y-63525000I225000J0D01*
G01*
X129450000Y-63525000D01*
G75*
G02*
X129675000Y-63750000I0J-225000D01*
G01*
X129675000Y-64250000D01*
G75*
G02*
X129450000Y-64475000I-225000J0D01*
G01*
X129000000Y-64475000D01*
G75*
G02*
X128775000Y-64250000I0J225000D01*
G01*
G37*
G36*
G01*
X130325000Y-64250000D02*
X130325000Y-63750000D01*
G75*
G02*
X130550000Y-63525000I225000J0D01*
G01*
X131000000Y-63525000D01*
G75*
G02*
X131225000Y-63750000I0J-225000D01*
G01*
X131225000Y-64250000D01*
G75*
G02*
X131000000Y-64475000I-225000J0D01*
G01*
X130550000Y-64475000D01*
G75*
G02*
X130325000Y-64250000I0J225000D01*
G01*
G37*
D11*
X108720000Y-57220000D03*
X103680000Y-57220000D03*
X108720000Y-59760000D03*
X103680000Y-59760000D03*
X108720000Y-62300000D03*
X103680000Y-62300000D03*
X108720000Y-64840000D03*
X103680000Y-64840000D03*
X108720000Y-67380000D03*
X103680000Y-67380000D03*
X108720000Y-69920000D03*
X103680000Y-69920000D03*
X108720000Y-72460000D03*
X103680000Y-72460000D03*
X108720000Y-75000000D03*
X103680000Y-75000000D03*
X108720000Y-77540000D03*
X103680000Y-77540000D03*
X108720000Y-80080000D03*
X103680000Y-80080000D03*
X108720000Y-82620000D03*
X103680000Y-82620000D03*
X108720000Y-85160000D03*
X103680000Y-85160000D03*
X108720000Y-87700000D03*
X103680000Y-87700000D03*
X108720000Y-90240000D03*
X103680000Y-90240000D03*
X108720000Y-92780000D03*
X103680000Y-92780000D03*
D12*
X126500000Y-53250000D03*
X122500000Y-53250000D03*
G36*
G01*
X114125000Y-67500000D02*
X114125000Y-67200000D01*
G75*
G02*
X114275000Y-67050000I150000J0D01*
G01*
X115450000Y-67050000D01*
G75*
G02*
X115600000Y-67200000I0J-150000D01*
G01*
X115600000Y-67500000D01*
G75*
G02*
X115450000Y-67650000I-150000J0D01*
G01*
X114275000Y-67650000D01*
G75*
G02*
X114125000Y-67500000I0J150000D01*
G01*
G37*
G36*
G01*
X114125000Y-69400000D02*
X114125000Y-69100000D01*
G75*
G02*
X114275000Y-68950000I150000J0D01*
G01*
X115450000Y-68950000D01*
G75*
G02*
X115600000Y-69100000I0J-150000D01*
G01*
X115600000Y-69400000D01*
G75*
G02*
X115450000Y-69550000I-150000J0D01*
G01*
X114275000Y-69550000D01*
G75*
G02*
X114125000Y-69400000I0J150000D01*
G01*
G37*
G36*
G01*
X116000000Y-68450000D02*
X116000000Y-68150000D01*
G75*
G02*
X116150000Y-68000000I150000J0D01*
G01*
X117325000Y-68000000D01*
G75*
G02*
X117475000Y-68150000I0J-150000D01*
G01*
X117475000Y-68450000D01*
G75*
G02*
X117325000Y-68600000I-150000J0D01*
G01*
X116150000Y-68600000D01*
G75*
G02*
X116000000Y-68450000I0J150000D01*
G01*
G37*
G36*
G01*
X131225000Y-68525000D02*
X131225000Y-69075000D01*
G75*
G02*
X131025000Y-69275000I-200000J0D01*
G01*
X130625000Y-69275000D01*
G75*
G02*
X130425000Y-69075000I0J200000D01*
G01*
X130425000Y-68525000D01*
G75*
G02*
X130625000Y-68325000I200000J0D01*
G01*
X131025000Y-68325000D01*
G75*
G02*
X131225000Y-68525000I0J-200000D01*
G01*
G37*
G36*
G01*
X129575000Y-68525000D02*
X129575000Y-69075000D01*
G75*
G02*
X129375000Y-69275000I-200000J0D01*
G01*
X128975000Y-69275000D01*
G75*
G02*
X128775000Y-69075000I0J200000D01*
G01*
X128775000Y-68525000D01*
G75*
G02*
X128975000Y-68325000I200000J0D01*
G01*
X129375000Y-68325000D01*
G75*
G02*
X129575000Y-68525000I0J-200000D01*
G01*
G37*
G36*
G01*
X118850000Y-64845000D02*
X118850000Y-64545000D01*
G75*
G02*
X119000000Y-64395000I150000J0D01*
G01*
X120600000Y-64395000D01*
G75*
G02*
X120750000Y-64545000I0J-150000D01*
G01*
X120750000Y-64845000D01*
G75*
G02*
X120600000Y-64995000I-150000J0D01*
G01*
X119000000Y-64995000D01*
G75*
G02*
X118850000Y-64845000I0J150000D01*
G01*
G37*
G36*
G01*
X118850000Y-66115000D02*
X118850000Y-65815000D01*
G75*
G02*
X119000000Y-65665000I150000J0D01*
G01*
X120600000Y-65665000D01*
G75*
G02*
X120750000Y-65815000I0J-150000D01*
G01*
X120750000Y-66115000D01*
G75*
G02*
X120600000Y-66265000I-150000J0D01*
G01*
X119000000Y-66265000D01*
G75*
G02*
X118850000Y-66115000I0J150000D01*
G01*
G37*
G36*
G01*
X118850000Y-67385000D02*
X118850000Y-67085000D01*
G75*
G02*
X119000000Y-66935000I150000J0D01*
G01*
X120600000Y-66935000D01*
G75*
G02*
X120750000Y-67085000I0J-150000D01*
G01*
X120750000Y-67385000D01*
G75*
G02*
X120600000Y-67535000I-150000J0D01*
G01*
X119000000Y-67535000D01*
G75*
G02*
X118850000Y-67385000I0J150000D01*
G01*
G37*
G36*
G01*
X118850000Y-68655000D02*
X118850000Y-68355000D01*
G75*
G02*
X119000000Y-68205000I150000J0D01*
G01*
X120600000Y-68205000D01*
G75*
G02*
X120750000Y-68355000I0J-150000D01*
G01*
X120750000Y-68655000D01*
G75*
G02*
X120600000Y-68805000I-150000J0D01*
G01*
X119000000Y-68805000D01*
G75*
G02*
X118850000Y-68655000I0J150000D01*
G01*
G37*
G36*
G01*
X125850000Y-68655000D02*
X125850000Y-68355000D01*
G75*
G02*
X126000000Y-68205000I150000J0D01*
G01*
X127600000Y-68205000D01*
G75*
G02*
X127750000Y-68355000I0J-150000D01*
G01*
X127750000Y-68655000D01*
G75*
G02*
X127600000Y-68805000I-150000J0D01*
G01*
X126000000Y-68805000D01*
G75*
G02*
X125850000Y-68655000I0J150000D01*
G01*
G37*
G36*
G01*
X125850000Y-67385000D02*
X125850000Y-67085000D01*
G75*
G02*
X126000000Y-66935000I150000J0D01*
G01*
X127600000Y-66935000D01*
G75*
G02*
X127750000Y-67085000I0J-150000D01*
G01*
X127750000Y-67385000D01*
G75*
G02*
X127600000Y-67535000I-150000J0D01*
G01*
X126000000Y-67535000D01*
G75*
G02*
X125850000Y-67385000I0J150000D01*
G01*
G37*
G36*
G01*
X125850000Y-66115000D02*
X125850000Y-65815000D01*
G75*
G02*
X126000000Y-65665000I150000J0D01*
G01*
X127600000Y-65665000D01*
G75*
G02*
X127750000Y-65815000I0J-150000D01*
G01*
X127750000Y-66115000D01*
G75*
G02*
X127600000Y-66265000I-150000J0D01*
G01*
X126000000Y-66265000D01*
G75*
G02*
X125850000Y-66115000I0J150000D01*
G01*
G37*
G36*
G01*
X125850000Y-64845000D02*
X125850000Y-64545000D01*
G75*
G02*
X126000000Y-64395000I150000J0D01*
G01*
X127600000Y-64395000D01*
G75*
G02*
X127750000Y-64545000I0J-150000D01*
G01*
X127750000Y-64845000D01*
G75*
G02*
X127600000Y-64995000I-150000J0D01*
G01*
X126000000Y-64995000D01*
G75*
G02*
X125850000Y-64845000I0J150000D01*
G01*
G37*
G36*
G01*
X117275000Y-72825000D02*
X116725000Y-72825000D01*
G75*
G02*
X116525000Y-72625000I0J200000D01*
G01*
X116525000Y-72225000D01*
G75*
G02*
X116725000Y-72025000I200000J0D01*
G01*
X117275000Y-72025000D01*
G75*
G02*
X117475000Y-72225000I0J-200000D01*
G01*
X117475000Y-72625000D01*
G75*
G02*
X117275000Y-72825000I-200000J0D01*
G01*
G37*
G36*
G01*
X117275000Y-71175000D02*
X116725000Y-71175000D01*
G75*
G02*
X116525000Y-70975000I0J200000D01*
G01*
X116525000Y-70575000D01*
G75*
G02*
X116725000Y-70375000I200000J0D01*
G01*
X117275000Y-70375000D01*
G75*
G02*
X117475000Y-70575000I0J-200000D01*
G01*
X117475000Y-70975000D01*
G75*
G02*
X117275000Y-71175000I-200000J0D01*
G01*
G37*
G36*
G01*
X131225000Y-66865000D02*
X131225000Y-67415000D01*
G75*
G02*
X131025000Y-67615000I-200000J0D01*
G01*
X130625000Y-67615000D01*
G75*
G02*
X130425000Y-67415000I0J200000D01*
G01*
X130425000Y-66865000D01*
G75*
G02*
X130625000Y-66665000I200000J0D01*
G01*
X131025000Y-66665000D01*
G75*
G02*
X131225000Y-66865000I0J-200000D01*
G01*
G37*
G36*
G01*
X129575000Y-66865000D02*
X129575000Y-67415000D01*
G75*
G02*
X129375000Y-67615000I-200000J0D01*
G01*
X128975000Y-67615000D01*
G75*
G02*
X128775000Y-67415000I0J200000D01*
G01*
X128775000Y-66865000D01*
G75*
G02*
X128975000Y-66665000I200000J0D01*
G01*
X129375000Y-66665000D01*
G75*
G02*
X129575000Y-66865000I0J-200000D01*
G01*
G37*
G36*
G01*
X115175000Y-70375000D02*
X115725000Y-70375000D01*
G75*
G02*
X115925000Y-70575000I0J-200000D01*
G01*
X115925000Y-70975000D01*
G75*
G02*
X115725000Y-71175000I-200000J0D01*
G01*
X115175000Y-71175000D01*
G75*
G02*
X114975000Y-70975000I0J200000D01*
G01*
X114975000Y-70575000D01*
G75*
G02*
X115175000Y-70375000I200000J0D01*
G01*
G37*
G36*
G01*
X115175000Y-72025000D02*
X115725000Y-72025000D01*
G75*
G02*
X115925000Y-72225000I0J-200000D01*
G01*
X115925000Y-72625000D01*
G75*
G02*
X115725000Y-72825000I-200000J0D01*
G01*
X115175000Y-72825000D01*
G75*
G02*
X114975000Y-72625000I0J200000D01*
G01*
X114975000Y-72225000D01*
G75*
G02*
X115175000Y-72025000I200000J0D01*
G01*
G37*
D13*
X136830000Y-65624000D03*
X136830000Y-61224000D03*
M02*
