G04 #@! TF.GenerationSoftware,KiCad,Pcbnew,7.0.7-7.0.7~ubuntu23.04.1*
G04 #@! TF.CreationDate,2023-09-19T04:43:27+00:00*
G04 #@! TF.ProjectId,m5-pantilt,6d352d70-616e-4746-996c-742e6b696361,1*
G04 #@! TF.SameCoordinates,Original*
G04 #@! TF.FileFunction,Soldermask,Top*
G04 #@! TF.FilePolarity,Negative*
%FSLAX46Y46*%
G04 Gerber Fmt 4.6, Leading zero omitted, Abs format (unit mm)*
G04 Created by KiCad (PCBNEW 7.0.7-7.0.7~ubuntu23.04.1) date 2023-09-19 04:43:27*
%MOMM*%
%LPD*%
G01*
G04 APERTURE LIST*
%ADD10C,2.102000*%
%ADD11C,3.102000*%
%ADD12O,1.302000X1.852000*%
%ADD13O,1.802000X2.102000*%
%ADD14O,3.602000X2.302000*%
%ADD15O,2.602000X1.602000*%
%ADD16O,2.052000X1.802000*%
G04 APERTURE END LIST*
D10*
X107300000Y-96850000D03*
D11*
X103150000Y-96850000D03*
D10*
X142700000Y-96850000D03*
D11*
X146850000Y-96850000D03*
D10*
X142700000Y-53150000D03*
D11*
X146850000Y-53150000D03*
D10*
X107300000Y-53150000D03*
D11*
X103150000Y-53150000D03*
G36*
G01*
X137251000Y-54375000D02*
X137251000Y-55625000D01*
G75*
G02*
X136950000Y-55926000I-301000J0D01*
G01*
X136250000Y-55926000D01*
G75*
G02*
X135949000Y-55625000I0J301000D01*
G01*
X135949000Y-54375000D01*
G75*
G02*
X136250000Y-54074000I301000J0D01*
G01*
X136950000Y-54074000D01*
G75*
G02*
X137251000Y-54375000I0J-301000D01*
G01*
G37*
D12*
X134600000Y-55000000D03*
X132600000Y-55000000D03*
X130600000Y-55000000D03*
G36*
G01*
X141699000Y-91775000D02*
X141699000Y-90525000D01*
G75*
G02*
X142000000Y-90224000I301000J0D01*
G01*
X142700000Y-90224000D01*
G75*
G02*
X143001000Y-90525000I0J-301000D01*
G01*
X143001000Y-91775000D01*
G75*
G02*
X142700000Y-92076000I-301000J0D01*
G01*
X142000000Y-92076000D01*
G75*
G02*
X141699000Y-91775000I0J301000D01*
G01*
G37*
X144350000Y-91150000D03*
G36*
G01*
X117151000Y-81262500D02*
X117151000Y-81737500D01*
G75*
G02*
X116862500Y-82026000I-288500J0D01*
G01*
X116362500Y-82026000D01*
G75*
G02*
X116074000Y-81737500I0J288500D01*
G01*
X116074000Y-81262500D01*
G75*
G02*
X116362500Y-80974000I288500J0D01*
G01*
X116862500Y-80974000D01*
G75*
G02*
X117151000Y-81262500I0J-288500D01*
G01*
G37*
G36*
G01*
X115326000Y-81262500D02*
X115326000Y-81737500D01*
G75*
G02*
X115037500Y-82026000I-288500J0D01*
G01*
X114537500Y-82026000D01*
G75*
G02*
X114249000Y-81737500I0J288500D01*
G01*
X114249000Y-81262500D01*
G75*
G02*
X114537500Y-80974000I288500J0D01*
G01*
X115037500Y-80974000D01*
G75*
G02*
X115326000Y-81262500I0J-288500D01*
G01*
G37*
G36*
G01*
X117151000Y-82962500D02*
X117151000Y-83437500D01*
G75*
G02*
X116862500Y-83726000I-288500J0D01*
G01*
X116362500Y-83726000D01*
G75*
G02*
X116074000Y-83437500I0J288500D01*
G01*
X116074000Y-82962500D01*
G75*
G02*
X116362500Y-82674000I288500J0D01*
G01*
X116862500Y-82674000D01*
G75*
G02*
X117151000Y-82962500I0J-288500D01*
G01*
G37*
G36*
G01*
X115326000Y-82962500D02*
X115326000Y-83437500D01*
G75*
G02*
X115037500Y-83726000I-288500J0D01*
G01*
X114537500Y-83726000D01*
G75*
G02*
X114249000Y-83437500I0J288500D01*
G01*
X114249000Y-82962500D01*
G75*
G02*
X114537500Y-82674000I288500J0D01*
G01*
X115037500Y-82674000D01*
G75*
G02*
X115326000Y-82962500I0J-288500D01*
G01*
G37*
G36*
G01*
X118901000Y-53775000D02*
X118901000Y-55275000D01*
G75*
G02*
X118600000Y-55576000I-301000J0D01*
G01*
X117400000Y-55576000D01*
G75*
G02*
X117099000Y-55275000I0J301000D01*
G01*
X117099000Y-53775000D01*
G75*
G02*
X117400000Y-53474000I301000J0D01*
G01*
X118600000Y-53474000D01*
G75*
G02*
X118901000Y-53775000I0J-301000D01*
G01*
G37*
D13*
X115500000Y-54525000D03*
G36*
G01*
X140150000Y-73776000D02*
X138850000Y-73776000D01*
G75*
G02*
X138549000Y-73475000I0J301000D01*
G01*
X138549000Y-72650000D01*
G75*
G02*
X138850000Y-72349000I301000J0D01*
G01*
X140150000Y-72349000D01*
G75*
G02*
X140451000Y-72650000I0J-301000D01*
G01*
X140451000Y-73475000D01*
G75*
G02*
X140150000Y-73776000I-301000J0D01*
G01*
G37*
G36*
G01*
X140150000Y-70651000D02*
X138850000Y-70651000D01*
G75*
G02*
X138549000Y-70350000I0J301000D01*
G01*
X138549000Y-69525000D01*
G75*
G02*
X138850000Y-69224000I301000J0D01*
G01*
X140150000Y-69224000D01*
G75*
G02*
X140451000Y-69525000I0J-301000D01*
G01*
X140451000Y-70350000D01*
G75*
G02*
X140150000Y-70651000I-301000J0D01*
G01*
G37*
G36*
G01*
X136464000Y-69224000D02*
X137764000Y-69224000D01*
G75*
G02*
X138065000Y-69525000I0J-301000D01*
G01*
X138065000Y-70350000D01*
G75*
G02*
X137764000Y-70651000I-301000J0D01*
G01*
X136464000Y-70651000D01*
G75*
G02*
X136163000Y-70350000I0J301000D01*
G01*
X136163000Y-69525000D01*
G75*
G02*
X136464000Y-69224000I301000J0D01*
G01*
G37*
G36*
G01*
X136464000Y-72349000D02*
X137764000Y-72349000D01*
G75*
G02*
X138065000Y-72650000I0J-301000D01*
G01*
X138065000Y-73475000D01*
G75*
G02*
X137764000Y-73776000I-301000J0D01*
G01*
X136464000Y-73776000D01*
G75*
G02*
X136163000Y-73475000I0J301000D01*
G01*
X136163000Y-72650000D01*
G75*
G02*
X136464000Y-72349000I301000J0D01*
G01*
G37*
G36*
G01*
X136450000Y-78624000D02*
X137750000Y-78624000D01*
G75*
G02*
X138051000Y-78925000I0J-301000D01*
G01*
X138051000Y-79750000D01*
G75*
G02*
X137750000Y-80051000I-301000J0D01*
G01*
X136450000Y-80051000D01*
G75*
G02*
X136149000Y-79750000I0J301000D01*
G01*
X136149000Y-78925000D01*
G75*
G02*
X136450000Y-78624000I301000J0D01*
G01*
G37*
G36*
G01*
X136450000Y-81749000D02*
X137750000Y-81749000D01*
G75*
G02*
X138051000Y-82050000I0J-301000D01*
G01*
X138051000Y-82875000D01*
G75*
G02*
X137750000Y-83176000I-301000J0D01*
G01*
X136450000Y-83176000D01*
G75*
G02*
X136149000Y-82875000I0J301000D01*
G01*
X136149000Y-82050000D01*
G75*
G02*
X136450000Y-81749000I301000J0D01*
G01*
G37*
D14*
X145800000Y-65250000D03*
X145800000Y-57050000D03*
G36*
G01*
X147050000Y-63951000D02*
X144550000Y-63951000D01*
G75*
G02*
X144499000Y-63900000I0J51000D01*
G01*
X144499000Y-62400000D01*
G75*
G02*
X144550000Y-62349000I51000J0D01*
G01*
X147050000Y-62349000D01*
G75*
G02*
X147101000Y-62400000I0J-51000D01*
G01*
X147101000Y-63900000D01*
G75*
G02*
X147050000Y-63951000I-51000J0D01*
G01*
G37*
D15*
X145800000Y-61150000D03*
X145800000Y-59150000D03*
G36*
G01*
X134301000Y-95550000D02*
X134301000Y-96350000D01*
G75*
G02*
X134250000Y-96401000I-51000J0D01*
G01*
X133350000Y-96401000D01*
G75*
G02*
X133299000Y-96350000I0J51000D01*
G01*
X133299000Y-95550000D01*
G75*
G02*
X133350000Y-95499000I51000J0D01*
G01*
X134250000Y-95499000D01*
G75*
G02*
X134301000Y-95550000I0J-51000D01*
G01*
G37*
G36*
G01*
X134301000Y-93650000D02*
X134301000Y-94450000D01*
G75*
G02*
X134250000Y-94501000I-51000J0D01*
G01*
X133350000Y-94501000D01*
G75*
G02*
X133299000Y-94450000I0J51000D01*
G01*
X133299000Y-93650000D01*
G75*
G02*
X133350000Y-93599000I51000J0D01*
G01*
X134250000Y-93599000D01*
G75*
G02*
X134301000Y-93650000I0J-51000D01*
G01*
G37*
G36*
G01*
X132301000Y-94600000D02*
X132301000Y-95400000D01*
G75*
G02*
X132250000Y-95451000I-51000J0D01*
G01*
X131350000Y-95451000D01*
G75*
G02*
X131299000Y-95400000I0J51000D01*
G01*
X131299000Y-94600000D01*
G75*
G02*
X131350000Y-94549000I51000J0D01*
G01*
X132250000Y-94549000D01*
G75*
G02*
X132301000Y-94600000I0J-51000D01*
G01*
G37*
G36*
G01*
X135873700Y-96447200D02*
X135398700Y-96447200D01*
G75*
G02*
X135110200Y-96158700I0J288500D01*
G01*
X135110200Y-95658700D01*
G75*
G02*
X135398700Y-95370200I288500J0D01*
G01*
X135873700Y-95370200D01*
G75*
G02*
X136162200Y-95658700I0J-288500D01*
G01*
X136162200Y-96158700D01*
G75*
G02*
X135873700Y-96447200I-288500J0D01*
G01*
G37*
G36*
G01*
X135873700Y-94622200D02*
X135398700Y-94622200D01*
G75*
G02*
X135110200Y-94333700I0J288500D01*
G01*
X135110200Y-93833700D01*
G75*
G02*
X135398700Y-93545200I288500J0D01*
G01*
X135873700Y-93545200D01*
G75*
G02*
X136162200Y-93833700I0J-288500D01*
G01*
X136162200Y-94333700D01*
G75*
G02*
X135873700Y-94622200I-288500J0D01*
G01*
G37*
G36*
G01*
X117151000Y-78012500D02*
X117151000Y-78487500D01*
G75*
G02*
X116862500Y-78776000I-288500J0D01*
G01*
X116362500Y-78776000D01*
G75*
G02*
X116074000Y-78487500I0J288500D01*
G01*
X116074000Y-78012500D01*
G75*
G02*
X116362500Y-77724000I288500J0D01*
G01*
X116862500Y-77724000D01*
G75*
G02*
X117151000Y-78012500I0J-288500D01*
G01*
G37*
G36*
G01*
X115326000Y-78012500D02*
X115326000Y-78487500D01*
G75*
G02*
X115037500Y-78776000I-288500J0D01*
G01*
X114537500Y-78776000D01*
G75*
G02*
X114249000Y-78487500I0J288500D01*
G01*
X114249000Y-78012500D01*
G75*
G02*
X114537500Y-77724000I288500J0D01*
G01*
X115037500Y-77724000D01*
G75*
G02*
X115326000Y-78012500I0J-288500D01*
G01*
G37*
G36*
G01*
X117201000Y-84912500D02*
X117201000Y-85387500D01*
G75*
G02*
X116912500Y-85676000I-288500J0D01*
G01*
X116412500Y-85676000D01*
G75*
G02*
X116124000Y-85387500I0J288500D01*
G01*
X116124000Y-84912500D01*
G75*
G02*
X116412500Y-84624000I288500J0D01*
G01*
X116912500Y-84624000D01*
G75*
G02*
X117201000Y-84912500I0J-288500D01*
G01*
G37*
G36*
G01*
X115376000Y-84912500D02*
X115376000Y-85387500D01*
G75*
G02*
X115087500Y-85676000I-288500J0D01*
G01*
X114587500Y-85676000D01*
G75*
G02*
X114299000Y-85387500I0J288500D01*
G01*
X114299000Y-84912500D01*
G75*
G02*
X114587500Y-84624000I288500J0D01*
G01*
X115087500Y-84624000D01*
G75*
G02*
X115376000Y-84912500I0J-288500D01*
G01*
G37*
G36*
G01*
X117151000Y-79612500D02*
X117151000Y-80087500D01*
G75*
G02*
X116862500Y-80376000I-288500J0D01*
G01*
X116362500Y-80376000D01*
G75*
G02*
X116074000Y-80087500I0J288500D01*
G01*
X116074000Y-79612500D01*
G75*
G02*
X116362500Y-79324000I288500J0D01*
G01*
X116862500Y-79324000D01*
G75*
G02*
X117151000Y-79612500I0J-288500D01*
G01*
G37*
G36*
G01*
X115326000Y-79612500D02*
X115326000Y-80087500D01*
G75*
G02*
X115037500Y-80376000I-288500J0D01*
G01*
X114537500Y-80376000D01*
G75*
G02*
X114249000Y-80087500I0J288500D01*
G01*
X114249000Y-79612500D01*
G75*
G02*
X114537500Y-79324000I288500J0D01*
G01*
X115037500Y-79324000D01*
G75*
G02*
X115326000Y-79612500I0J-288500D01*
G01*
G37*
G36*
G01*
X117201000Y-86512500D02*
X117201000Y-86987500D01*
G75*
G02*
X116912500Y-87276000I-288500J0D01*
G01*
X116412500Y-87276000D01*
G75*
G02*
X116124000Y-86987500I0J288500D01*
G01*
X116124000Y-86512500D01*
G75*
G02*
X116412500Y-86224000I288500J0D01*
G01*
X116912500Y-86224000D01*
G75*
G02*
X117201000Y-86512500I0J-288500D01*
G01*
G37*
G36*
G01*
X115376000Y-86512500D02*
X115376000Y-86987500D01*
G75*
G02*
X115087500Y-87276000I-288500J0D01*
G01*
X114587500Y-87276000D01*
G75*
G02*
X114299000Y-86987500I0J288500D01*
G01*
X114299000Y-86512500D01*
G75*
G02*
X114587500Y-86224000I288500J0D01*
G01*
X115087500Y-86224000D01*
G75*
G02*
X115376000Y-86512500I0J-288500D01*
G01*
G37*
G36*
G01*
X128724000Y-72575000D02*
X128724000Y-72025000D01*
G75*
G02*
X128975000Y-71774000I251000J0D01*
G01*
X129375000Y-71774000D01*
G75*
G02*
X129626000Y-72025000I0J-251000D01*
G01*
X129626000Y-72575000D01*
G75*
G02*
X129375000Y-72826000I-251000J0D01*
G01*
X128975000Y-72826000D01*
G75*
G02*
X128724000Y-72575000I0J251000D01*
G01*
G37*
G36*
G01*
X130374000Y-72575000D02*
X130374000Y-72025000D01*
G75*
G02*
X130625000Y-71774000I251000J0D01*
G01*
X131025000Y-71774000D01*
G75*
G02*
X131276000Y-72025000I0J-251000D01*
G01*
X131276000Y-72575000D01*
G75*
G02*
X131025000Y-72826000I-251000J0D01*
G01*
X130625000Y-72826000D01*
G75*
G02*
X130374000Y-72575000I0J251000D01*
G01*
G37*
G36*
G01*
X131276000Y-70525000D02*
X131276000Y-71075000D01*
G75*
G02*
X131025000Y-71326000I-251000J0D01*
G01*
X130625000Y-71326000D01*
G75*
G02*
X130374000Y-71075000I0J251000D01*
G01*
X130374000Y-70525000D01*
G75*
G02*
X130625000Y-70274000I251000J0D01*
G01*
X131025000Y-70274000D01*
G75*
G02*
X131276000Y-70525000I0J-251000D01*
G01*
G37*
G36*
G01*
X129626000Y-70525000D02*
X129626000Y-71075000D01*
G75*
G02*
X129375000Y-71326000I-251000J0D01*
G01*
X128975000Y-71326000D01*
G75*
G02*
X128724000Y-71075000I0J251000D01*
G01*
X128724000Y-70525000D01*
G75*
G02*
X128975000Y-70274000I251000J0D01*
G01*
X129375000Y-70274000D01*
G75*
G02*
X129626000Y-70525000I0J-251000D01*
G01*
G37*
G36*
G01*
X138850000Y-78624000D02*
X140150000Y-78624000D01*
G75*
G02*
X140451000Y-78925000I0J-301000D01*
G01*
X140451000Y-79750000D01*
G75*
G02*
X140150000Y-80051000I-301000J0D01*
G01*
X138850000Y-80051000D01*
G75*
G02*
X138549000Y-79750000I0J301000D01*
G01*
X138549000Y-78925000D01*
G75*
G02*
X138850000Y-78624000I301000J0D01*
G01*
G37*
G36*
G01*
X138850000Y-81749000D02*
X140150000Y-81749000D01*
G75*
G02*
X140451000Y-82050000I0J-301000D01*
G01*
X140451000Y-82875000D01*
G75*
G02*
X140150000Y-83176000I-301000J0D01*
G01*
X138850000Y-83176000D01*
G75*
G02*
X138549000Y-82875000I0J301000D01*
G01*
X138549000Y-82050000D01*
G75*
G02*
X138850000Y-81749000I301000J0D01*
G01*
G37*
G36*
G01*
X143975000Y-68999000D02*
X145425000Y-68999000D01*
G75*
G02*
X145726000Y-69300000I0J-301000D01*
G01*
X145726000Y-70500000D01*
G75*
G02*
X145425000Y-70801000I-301000J0D01*
G01*
X143975000Y-70801000D01*
G75*
G02*
X143674000Y-70500000I0J301000D01*
G01*
X143674000Y-69300000D01*
G75*
G02*
X143975000Y-68999000I301000J0D01*
G01*
G37*
D16*
X144700000Y-72400000D03*
X144700000Y-74900000D03*
G36*
G01*
X117526000Y-65475000D02*
X117526000Y-66025000D01*
G75*
G02*
X117275000Y-66276000I-251000J0D01*
G01*
X116875000Y-66276000D01*
G75*
G02*
X116624000Y-66025000I0J251000D01*
G01*
X116624000Y-65475000D01*
G75*
G02*
X116875000Y-65224000I251000J0D01*
G01*
X117275000Y-65224000D01*
G75*
G02*
X117526000Y-65475000I0J-251000D01*
G01*
G37*
G36*
G01*
X115876000Y-65475000D02*
X115876000Y-66025000D01*
G75*
G02*
X115625000Y-66276000I-251000J0D01*
G01*
X115225000Y-66276000D01*
G75*
G02*
X114974000Y-66025000I0J251000D01*
G01*
X114974000Y-65475000D01*
G75*
G02*
X115225000Y-65224000I251000J0D01*
G01*
X115625000Y-65224000D01*
G75*
G02*
X115876000Y-65475000I0J-251000D01*
G01*
G37*
G36*
G01*
X143975000Y-79999000D02*
X145425000Y-79999000D01*
G75*
G02*
X145726000Y-80300000I0J-301000D01*
G01*
X145726000Y-81500000D01*
G75*
G02*
X145425000Y-81801000I-301000J0D01*
G01*
X143975000Y-81801000D01*
G75*
G02*
X143674000Y-81500000I0J301000D01*
G01*
X143674000Y-80300000D01*
G75*
G02*
X143975000Y-79999000I301000J0D01*
G01*
G37*
X144700000Y-83400000D03*
X144700000Y-85900000D03*
G36*
G01*
X131266000Y-65325000D02*
X131266000Y-65875000D01*
G75*
G02*
X131015000Y-66126000I-251000J0D01*
G01*
X130615000Y-66126000D01*
G75*
G02*
X130364000Y-65875000I0J251000D01*
G01*
X130364000Y-65325000D01*
G75*
G02*
X130615000Y-65074000I251000J0D01*
G01*
X131015000Y-65074000D01*
G75*
G02*
X131266000Y-65325000I0J-251000D01*
G01*
G37*
G36*
G01*
X129616000Y-65325000D02*
X129616000Y-65875000D01*
G75*
G02*
X129365000Y-66126000I-251000J0D01*
G01*
X128965000Y-66126000D01*
G75*
G02*
X128714000Y-65875000I0J251000D01*
G01*
X128714000Y-65325000D01*
G75*
G02*
X128965000Y-65074000I251000J0D01*
G01*
X129365000Y-65074000D01*
G75*
G02*
X129616000Y-65325000I0J-251000D01*
G01*
G37*
G36*
G01*
X128724000Y-64250000D02*
X128724000Y-63750000D01*
G75*
G02*
X129000000Y-63474000I276000J0D01*
G01*
X129450000Y-63474000D01*
G75*
G02*
X129726000Y-63750000I0J-276000D01*
G01*
X129726000Y-64250000D01*
G75*
G02*
X129450000Y-64526000I-276000J0D01*
G01*
X129000000Y-64526000D01*
G75*
G02*
X128724000Y-64250000I0J276000D01*
G01*
G37*
G36*
G01*
X130274000Y-64250000D02*
X130274000Y-63750000D01*
G75*
G02*
X130550000Y-63474000I276000J0D01*
G01*
X131000000Y-63474000D01*
G75*
G02*
X131276000Y-63750000I0J-276000D01*
G01*
X131276000Y-64250000D01*
G75*
G02*
X131000000Y-64526000I-276000J0D01*
G01*
X130550000Y-64526000D01*
G75*
G02*
X130274000Y-64250000I0J276000D01*
G01*
G37*
G36*
G01*
X107169000Y-57720000D02*
X107169000Y-56720000D01*
G75*
G02*
X107220000Y-56669000I51000J0D01*
G01*
X110220000Y-56669000D01*
G75*
G02*
X110271000Y-56720000I0J-51000D01*
G01*
X110271000Y-57720000D01*
G75*
G02*
X110220000Y-57771000I-51000J0D01*
G01*
X107220000Y-57771000D01*
G75*
G02*
X107169000Y-57720000I0J51000D01*
G01*
G37*
G36*
G01*
X102129000Y-57720000D02*
X102129000Y-56720000D01*
G75*
G02*
X102180000Y-56669000I51000J0D01*
G01*
X105180000Y-56669000D01*
G75*
G02*
X105231000Y-56720000I0J-51000D01*
G01*
X105231000Y-57720000D01*
G75*
G02*
X105180000Y-57771000I-51000J0D01*
G01*
X102180000Y-57771000D01*
G75*
G02*
X102129000Y-57720000I0J51000D01*
G01*
G37*
G36*
G01*
X107169000Y-60260000D02*
X107169000Y-59260000D01*
G75*
G02*
X107220000Y-59209000I51000J0D01*
G01*
X110220000Y-59209000D01*
G75*
G02*
X110271000Y-59260000I0J-51000D01*
G01*
X110271000Y-60260000D01*
G75*
G02*
X110220000Y-60311000I-51000J0D01*
G01*
X107220000Y-60311000D01*
G75*
G02*
X107169000Y-60260000I0J51000D01*
G01*
G37*
G36*
G01*
X102129000Y-60260000D02*
X102129000Y-59260000D01*
G75*
G02*
X102180000Y-59209000I51000J0D01*
G01*
X105180000Y-59209000D01*
G75*
G02*
X105231000Y-59260000I0J-51000D01*
G01*
X105231000Y-60260000D01*
G75*
G02*
X105180000Y-60311000I-51000J0D01*
G01*
X102180000Y-60311000D01*
G75*
G02*
X102129000Y-60260000I0J51000D01*
G01*
G37*
G36*
G01*
X107169000Y-62800000D02*
X107169000Y-61800000D01*
G75*
G02*
X107220000Y-61749000I51000J0D01*
G01*
X110220000Y-61749000D01*
G75*
G02*
X110271000Y-61800000I0J-51000D01*
G01*
X110271000Y-62800000D01*
G75*
G02*
X110220000Y-62851000I-51000J0D01*
G01*
X107220000Y-62851000D01*
G75*
G02*
X107169000Y-62800000I0J51000D01*
G01*
G37*
G36*
G01*
X102129000Y-62800000D02*
X102129000Y-61800000D01*
G75*
G02*
X102180000Y-61749000I51000J0D01*
G01*
X105180000Y-61749000D01*
G75*
G02*
X105231000Y-61800000I0J-51000D01*
G01*
X105231000Y-62800000D01*
G75*
G02*
X105180000Y-62851000I-51000J0D01*
G01*
X102180000Y-62851000D01*
G75*
G02*
X102129000Y-62800000I0J51000D01*
G01*
G37*
G36*
G01*
X107169000Y-65340000D02*
X107169000Y-64340000D01*
G75*
G02*
X107220000Y-64289000I51000J0D01*
G01*
X110220000Y-64289000D01*
G75*
G02*
X110271000Y-64340000I0J-51000D01*
G01*
X110271000Y-65340000D01*
G75*
G02*
X110220000Y-65391000I-51000J0D01*
G01*
X107220000Y-65391000D01*
G75*
G02*
X107169000Y-65340000I0J51000D01*
G01*
G37*
G36*
G01*
X102129000Y-65340000D02*
X102129000Y-64340000D01*
G75*
G02*
X102180000Y-64289000I51000J0D01*
G01*
X105180000Y-64289000D01*
G75*
G02*
X105231000Y-64340000I0J-51000D01*
G01*
X105231000Y-65340000D01*
G75*
G02*
X105180000Y-65391000I-51000J0D01*
G01*
X102180000Y-65391000D01*
G75*
G02*
X102129000Y-65340000I0J51000D01*
G01*
G37*
G36*
G01*
X107169000Y-67880000D02*
X107169000Y-66880000D01*
G75*
G02*
X107220000Y-66829000I51000J0D01*
G01*
X110220000Y-66829000D01*
G75*
G02*
X110271000Y-66880000I0J-51000D01*
G01*
X110271000Y-67880000D01*
G75*
G02*
X110220000Y-67931000I-51000J0D01*
G01*
X107220000Y-67931000D01*
G75*
G02*
X107169000Y-67880000I0J51000D01*
G01*
G37*
G36*
G01*
X102129000Y-67880000D02*
X102129000Y-66880000D01*
G75*
G02*
X102180000Y-66829000I51000J0D01*
G01*
X105180000Y-66829000D01*
G75*
G02*
X105231000Y-66880000I0J-51000D01*
G01*
X105231000Y-67880000D01*
G75*
G02*
X105180000Y-67931000I-51000J0D01*
G01*
X102180000Y-67931000D01*
G75*
G02*
X102129000Y-67880000I0J51000D01*
G01*
G37*
G36*
G01*
X107169000Y-70420000D02*
X107169000Y-69420000D01*
G75*
G02*
X107220000Y-69369000I51000J0D01*
G01*
X110220000Y-69369000D01*
G75*
G02*
X110271000Y-69420000I0J-51000D01*
G01*
X110271000Y-70420000D01*
G75*
G02*
X110220000Y-70471000I-51000J0D01*
G01*
X107220000Y-70471000D01*
G75*
G02*
X107169000Y-70420000I0J51000D01*
G01*
G37*
G36*
G01*
X102129000Y-70420000D02*
X102129000Y-69420000D01*
G75*
G02*
X102180000Y-69369000I51000J0D01*
G01*
X105180000Y-69369000D01*
G75*
G02*
X105231000Y-69420000I0J-51000D01*
G01*
X105231000Y-70420000D01*
G75*
G02*
X105180000Y-70471000I-51000J0D01*
G01*
X102180000Y-70471000D01*
G75*
G02*
X102129000Y-70420000I0J51000D01*
G01*
G37*
G36*
G01*
X107169000Y-72960000D02*
X107169000Y-71960000D01*
G75*
G02*
X107220000Y-71909000I51000J0D01*
G01*
X110220000Y-71909000D01*
G75*
G02*
X110271000Y-71960000I0J-51000D01*
G01*
X110271000Y-72960000D01*
G75*
G02*
X110220000Y-73011000I-51000J0D01*
G01*
X107220000Y-73011000D01*
G75*
G02*
X107169000Y-72960000I0J51000D01*
G01*
G37*
G36*
G01*
X102129000Y-72960000D02*
X102129000Y-71960000D01*
G75*
G02*
X102180000Y-71909000I51000J0D01*
G01*
X105180000Y-71909000D01*
G75*
G02*
X105231000Y-71960000I0J-51000D01*
G01*
X105231000Y-72960000D01*
G75*
G02*
X105180000Y-73011000I-51000J0D01*
G01*
X102180000Y-73011000D01*
G75*
G02*
X102129000Y-72960000I0J51000D01*
G01*
G37*
G36*
G01*
X107169000Y-75500000D02*
X107169000Y-74500000D01*
G75*
G02*
X107220000Y-74449000I51000J0D01*
G01*
X110220000Y-74449000D01*
G75*
G02*
X110271000Y-74500000I0J-51000D01*
G01*
X110271000Y-75500000D01*
G75*
G02*
X110220000Y-75551000I-51000J0D01*
G01*
X107220000Y-75551000D01*
G75*
G02*
X107169000Y-75500000I0J51000D01*
G01*
G37*
G36*
G01*
X102129000Y-75500000D02*
X102129000Y-74500000D01*
G75*
G02*
X102180000Y-74449000I51000J0D01*
G01*
X105180000Y-74449000D01*
G75*
G02*
X105231000Y-74500000I0J-51000D01*
G01*
X105231000Y-75500000D01*
G75*
G02*
X105180000Y-75551000I-51000J0D01*
G01*
X102180000Y-75551000D01*
G75*
G02*
X102129000Y-75500000I0J51000D01*
G01*
G37*
G36*
G01*
X107169000Y-78040000D02*
X107169000Y-77040000D01*
G75*
G02*
X107220000Y-76989000I51000J0D01*
G01*
X110220000Y-76989000D01*
G75*
G02*
X110271000Y-77040000I0J-51000D01*
G01*
X110271000Y-78040000D01*
G75*
G02*
X110220000Y-78091000I-51000J0D01*
G01*
X107220000Y-78091000D01*
G75*
G02*
X107169000Y-78040000I0J51000D01*
G01*
G37*
G36*
G01*
X102129000Y-78040000D02*
X102129000Y-77040000D01*
G75*
G02*
X102180000Y-76989000I51000J0D01*
G01*
X105180000Y-76989000D01*
G75*
G02*
X105231000Y-77040000I0J-51000D01*
G01*
X105231000Y-78040000D01*
G75*
G02*
X105180000Y-78091000I-51000J0D01*
G01*
X102180000Y-78091000D01*
G75*
G02*
X102129000Y-78040000I0J51000D01*
G01*
G37*
G36*
G01*
X107169000Y-80580000D02*
X107169000Y-79580000D01*
G75*
G02*
X107220000Y-79529000I51000J0D01*
G01*
X110220000Y-79529000D01*
G75*
G02*
X110271000Y-79580000I0J-51000D01*
G01*
X110271000Y-80580000D01*
G75*
G02*
X110220000Y-80631000I-51000J0D01*
G01*
X107220000Y-80631000D01*
G75*
G02*
X107169000Y-80580000I0J51000D01*
G01*
G37*
G36*
G01*
X102129000Y-80580000D02*
X102129000Y-79580000D01*
G75*
G02*
X102180000Y-79529000I51000J0D01*
G01*
X105180000Y-79529000D01*
G75*
G02*
X105231000Y-79580000I0J-51000D01*
G01*
X105231000Y-80580000D01*
G75*
G02*
X105180000Y-80631000I-51000J0D01*
G01*
X102180000Y-80631000D01*
G75*
G02*
X102129000Y-80580000I0J51000D01*
G01*
G37*
G36*
G01*
X107169000Y-83120000D02*
X107169000Y-82120000D01*
G75*
G02*
X107220000Y-82069000I51000J0D01*
G01*
X110220000Y-82069000D01*
G75*
G02*
X110271000Y-82120000I0J-51000D01*
G01*
X110271000Y-83120000D01*
G75*
G02*
X110220000Y-83171000I-51000J0D01*
G01*
X107220000Y-83171000D01*
G75*
G02*
X107169000Y-83120000I0J51000D01*
G01*
G37*
G36*
G01*
X102129000Y-83120000D02*
X102129000Y-82120000D01*
G75*
G02*
X102180000Y-82069000I51000J0D01*
G01*
X105180000Y-82069000D01*
G75*
G02*
X105231000Y-82120000I0J-51000D01*
G01*
X105231000Y-83120000D01*
G75*
G02*
X105180000Y-83171000I-51000J0D01*
G01*
X102180000Y-83171000D01*
G75*
G02*
X102129000Y-83120000I0J51000D01*
G01*
G37*
G36*
G01*
X107169000Y-85660000D02*
X107169000Y-84660000D01*
G75*
G02*
X107220000Y-84609000I51000J0D01*
G01*
X110220000Y-84609000D01*
G75*
G02*
X110271000Y-84660000I0J-51000D01*
G01*
X110271000Y-85660000D01*
G75*
G02*
X110220000Y-85711000I-51000J0D01*
G01*
X107220000Y-85711000D01*
G75*
G02*
X107169000Y-85660000I0J51000D01*
G01*
G37*
G36*
G01*
X102129000Y-85660000D02*
X102129000Y-84660000D01*
G75*
G02*
X102180000Y-84609000I51000J0D01*
G01*
X105180000Y-84609000D01*
G75*
G02*
X105231000Y-84660000I0J-51000D01*
G01*
X105231000Y-85660000D01*
G75*
G02*
X105180000Y-85711000I-51000J0D01*
G01*
X102180000Y-85711000D01*
G75*
G02*
X102129000Y-85660000I0J51000D01*
G01*
G37*
G36*
G01*
X107169000Y-88200000D02*
X107169000Y-87200000D01*
G75*
G02*
X107220000Y-87149000I51000J0D01*
G01*
X110220000Y-87149000D01*
G75*
G02*
X110271000Y-87200000I0J-51000D01*
G01*
X110271000Y-88200000D01*
G75*
G02*
X110220000Y-88251000I-51000J0D01*
G01*
X107220000Y-88251000D01*
G75*
G02*
X107169000Y-88200000I0J51000D01*
G01*
G37*
G36*
G01*
X102129000Y-88200000D02*
X102129000Y-87200000D01*
G75*
G02*
X102180000Y-87149000I51000J0D01*
G01*
X105180000Y-87149000D01*
G75*
G02*
X105231000Y-87200000I0J-51000D01*
G01*
X105231000Y-88200000D01*
G75*
G02*
X105180000Y-88251000I-51000J0D01*
G01*
X102180000Y-88251000D01*
G75*
G02*
X102129000Y-88200000I0J51000D01*
G01*
G37*
G36*
G01*
X107169000Y-90740000D02*
X107169000Y-89740000D01*
G75*
G02*
X107220000Y-89689000I51000J0D01*
G01*
X110220000Y-89689000D01*
G75*
G02*
X110271000Y-89740000I0J-51000D01*
G01*
X110271000Y-90740000D01*
G75*
G02*
X110220000Y-90791000I-51000J0D01*
G01*
X107220000Y-90791000D01*
G75*
G02*
X107169000Y-90740000I0J51000D01*
G01*
G37*
G36*
G01*
X102129000Y-90740000D02*
X102129000Y-89740000D01*
G75*
G02*
X102180000Y-89689000I51000J0D01*
G01*
X105180000Y-89689000D01*
G75*
G02*
X105231000Y-89740000I0J-51000D01*
G01*
X105231000Y-90740000D01*
G75*
G02*
X105180000Y-90791000I-51000J0D01*
G01*
X102180000Y-90791000D01*
G75*
G02*
X102129000Y-90740000I0J51000D01*
G01*
G37*
G36*
G01*
X107169000Y-93280000D02*
X107169000Y-92280000D01*
G75*
G02*
X107220000Y-92229000I51000J0D01*
G01*
X110220000Y-92229000D01*
G75*
G02*
X110271000Y-92280000I0J-51000D01*
G01*
X110271000Y-93280000D01*
G75*
G02*
X110220000Y-93331000I-51000J0D01*
G01*
X107220000Y-93331000D01*
G75*
G02*
X107169000Y-93280000I0J51000D01*
G01*
G37*
G36*
G01*
X102129000Y-93280000D02*
X102129000Y-92280000D01*
G75*
G02*
X102180000Y-92229000I51000J0D01*
G01*
X105180000Y-92229000D01*
G75*
G02*
X105231000Y-92280000I0J-51000D01*
G01*
X105231000Y-93280000D01*
G75*
G02*
X105180000Y-93331000I-51000J0D01*
G01*
X102180000Y-93331000D01*
G75*
G02*
X102129000Y-93280000I0J51000D01*
G01*
G37*
G36*
G01*
X127801000Y-52350000D02*
X127801000Y-54150000D01*
G75*
G02*
X127750000Y-54201000I-51000J0D01*
G01*
X125250000Y-54201000D01*
G75*
G02*
X125199000Y-54150000I0J51000D01*
G01*
X125199000Y-52350000D01*
G75*
G02*
X125250000Y-52299000I51000J0D01*
G01*
X127750000Y-52299000D01*
G75*
G02*
X127801000Y-52350000I0J-51000D01*
G01*
G37*
G36*
G01*
X123801000Y-52350000D02*
X123801000Y-54150000D01*
G75*
G02*
X123750000Y-54201000I-51000J0D01*
G01*
X121250000Y-54201000D01*
G75*
G02*
X121199000Y-54150000I0J51000D01*
G01*
X121199000Y-52350000D01*
G75*
G02*
X121250000Y-52299000I51000J0D01*
G01*
X123750000Y-52299000D01*
G75*
G02*
X123801000Y-52350000I0J-51000D01*
G01*
G37*
G36*
G01*
X114074000Y-67500000D02*
X114074000Y-67200000D01*
G75*
G02*
X114275000Y-66999000I201000J0D01*
G01*
X115450000Y-66999000D01*
G75*
G02*
X115651000Y-67200000I0J-201000D01*
G01*
X115651000Y-67500000D01*
G75*
G02*
X115450000Y-67701000I-201000J0D01*
G01*
X114275000Y-67701000D01*
G75*
G02*
X114074000Y-67500000I0J201000D01*
G01*
G37*
G36*
G01*
X114074000Y-69400000D02*
X114074000Y-69100000D01*
G75*
G02*
X114275000Y-68899000I201000J0D01*
G01*
X115450000Y-68899000D01*
G75*
G02*
X115651000Y-69100000I0J-201000D01*
G01*
X115651000Y-69400000D01*
G75*
G02*
X115450000Y-69601000I-201000J0D01*
G01*
X114275000Y-69601000D01*
G75*
G02*
X114074000Y-69400000I0J201000D01*
G01*
G37*
G36*
G01*
X115949000Y-68450000D02*
X115949000Y-68150000D01*
G75*
G02*
X116150000Y-67949000I201000J0D01*
G01*
X117325000Y-67949000D01*
G75*
G02*
X117526000Y-68150000I0J-201000D01*
G01*
X117526000Y-68450000D01*
G75*
G02*
X117325000Y-68651000I-201000J0D01*
G01*
X116150000Y-68651000D01*
G75*
G02*
X115949000Y-68450000I0J201000D01*
G01*
G37*
G36*
G01*
X131276000Y-68525000D02*
X131276000Y-69075000D01*
G75*
G02*
X131025000Y-69326000I-251000J0D01*
G01*
X130625000Y-69326000D01*
G75*
G02*
X130374000Y-69075000I0J251000D01*
G01*
X130374000Y-68525000D01*
G75*
G02*
X130625000Y-68274000I251000J0D01*
G01*
X131025000Y-68274000D01*
G75*
G02*
X131276000Y-68525000I0J-251000D01*
G01*
G37*
G36*
G01*
X129626000Y-68525000D02*
X129626000Y-69075000D01*
G75*
G02*
X129375000Y-69326000I-251000J0D01*
G01*
X128975000Y-69326000D01*
G75*
G02*
X128724000Y-69075000I0J251000D01*
G01*
X128724000Y-68525000D01*
G75*
G02*
X128975000Y-68274000I251000J0D01*
G01*
X129375000Y-68274000D01*
G75*
G02*
X129626000Y-68525000I0J-251000D01*
G01*
G37*
G36*
G01*
X118799000Y-64845000D02*
X118799000Y-64545000D01*
G75*
G02*
X119000000Y-64344000I201000J0D01*
G01*
X120600000Y-64344000D01*
G75*
G02*
X120801000Y-64545000I0J-201000D01*
G01*
X120801000Y-64845000D01*
G75*
G02*
X120600000Y-65046000I-201000J0D01*
G01*
X119000000Y-65046000D01*
G75*
G02*
X118799000Y-64845000I0J201000D01*
G01*
G37*
G36*
G01*
X118799000Y-66115000D02*
X118799000Y-65815000D01*
G75*
G02*
X119000000Y-65614000I201000J0D01*
G01*
X120600000Y-65614000D01*
G75*
G02*
X120801000Y-65815000I0J-201000D01*
G01*
X120801000Y-66115000D01*
G75*
G02*
X120600000Y-66316000I-201000J0D01*
G01*
X119000000Y-66316000D01*
G75*
G02*
X118799000Y-66115000I0J201000D01*
G01*
G37*
G36*
G01*
X118799000Y-67385000D02*
X118799000Y-67085000D01*
G75*
G02*
X119000000Y-66884000I201000J0D01*
G01*
X120600000Y-66884000D01*
G75*
G02*
X120801000Y-67085000I0J-201000D01*
G01*
X120801000Y-67385000D01*
G75*
G02*
X120600000Y-67586000I-201000J0D01*
G01*
X119000000Y-67586000D01*
G75*
G02*
X118799000Y-67385000I0J201000D01*
G01*
G37*
G36*
G01*
X118799000Y-68655000D02*
X118799000Y-68355000D01*
G75*
G02*
X119000000Y-68154000I201000J0D01*
G01*
X120600000Y-68154000D01*
G75*
G02*
X120801000Y-68355000I0J-201000D01*
G01*
X120801000Y-68655000D01*
G75*
G02*
X120600000Y-68856000I-201000J0D01*
G01*
X119000000Y-68856000D01*
G75*
G02*
X118799000Y-68655000I0J201000D01*
G01*
G37*
G36*
G01*
X125799000Y-68655000D02*
X125799000Y-68355000D01*
G75*
G02*
X126000000Y-68154000I201000J0D01*
G01*
X127600000Y-68154000D01*
G75*
G02*
X127801000Y-68355000I0J-201000D01*
G01*
X127801000Y-68655000D01*
G75*
G02*
X127600000Y-68856000I-201000J0D01*
G01*
X126000000Y-68856000D01*
G75*
G02*
X125799000Y-68655000I0J201000D01*
G01*
G37*
G36*
G01*
X125799000Y-67385000D02*
X125799000Y-67085000D01*
G75*
G02*
X126000000Y-66884000I201000J0D01*
G01*
X127600000Y-66884000D01*
G75*
G02*
X127801000Y-67085000I0J-201000D01*
G01*
X127801000Y-67385000D01*
G75*
G02*
X127600000Y-67586000I-201000J0D01*
G01*
X126000000Y-67586000D01*
G75*
G02*
X125799000Y-67385000I0J201000D01*
G01*
G37*
G36*
G01*
X125799000Y-66115000D02*
X125799000Y-65815000D01*
G75*
G02*
X126000000Y-65614000I201000J0D01*
G01*
X127600000Y-65614000D01*
G75*
G02*
X127801000Y-65815000I0J-201000D01*
G01*
X127801000Y-66115000D01*
G75*
G02*
X127600000Y-66316000I-201000J0D01*
G01*
X126000000Y-66316000D01*
G75*
G02*
X125799000Y-66115000I0J201000D01*
G01*
G37*
G36*
G01*
X125799000Y-64845000D02*
X125799000Y-64545000D01*
G75*
G02*
X126000000Y-64344000I201000J0D01*
G01*
X127600000Y-64344000D01*
G75*
G02*
X127801000Y-64545000I0J-201000D01*
G01*
X127801000Y-64845000D01*
G75*
G02*
X127600000Y-65046000I-201000J0D01*
G01*
X126000000Y-65046000D01*
G75*
G02*
X125799000Y-64845000I0J201000D01*
G01*
G37*
G36*
G01*
X117275000Y-72876000D02*
X116725000Y-72876000D01*
G75*
G02*
X116474000Y-72625000I0J251000D01*
G01*
X116474000Y-72225000D01*
G75*
G02*
X116725000Y-71974000I251000J0D01*
G01*
X117275000Y-71974000D01*
G75*
G02*
X117526000Y-72225000I0J-251000D01*
G01*
X117526000Y-72625000D01*
G75*
G02*
X117275000Y-72876000I-251000J0D01*
G01*
G37*
G36*
G01*
X117275000Y-71226000D02*
X116725000Y-71226000D01*
G75*
G02*
X116474000Y-70975000I0J251000D01*
G01*
X116474000Y-70575000D01*
G75*
G02*
X116725000Y-70324000I251000J0D01*
G01*
X117275000Y-70324000D01*
G75*
G02*
X117526000Y-70575000I0J-251000D01*
G01*
X117526000Y-70975000D01*
G75*
G02*
X117275000Y-71226000I-251000J0D01*
G01*
G37*
G36*
G01*
X131276000Y-66865000D02*
X131276000Y-67415000D01*
G75*
G02*
X131025000Y-67666000I-251000J0D01*
G01*
X130625000Y-67666000D01*
G75*
G02*
X130374000Y-67415000I0J251000D01*
G01*
X130374000Y-66865000D01*
G75*
G02*
X130625000Y-66614000I251000J0D01*
G01*
X131025000Y-66614000D01*
G75*
G02*
X131276000Y-66865000I0J-251000D01*
G01*
G37*
G36*
G01*
X129626000Y-66865000D02*
X129626000Y-67415000D01*
G75*
G02*
X129375000Y-67666000I-251000J0D01*
G01*
X128975000Y-67666000D01*
G75*
G02*
X128724000Y-67415000I0J251000D01*
G01*
X128724000Y-66865000D01*
G75*
G02*
X128975000Y-66614000I251000J0D01*
G01*
X129375000Y-66614000D01*
G75*
G02*
X129626000Y-66865000I0J-251000D01*
G01*
G37*
G36*
G01*
X115175000Y-70324000D02*
X115725000Y-70324000D01*
G75*
G02*
X115976000Y-70575000I0J-251000D01*
G01*
X115976000Y-70975000D01*
G75*
G02*
X115725000Y-71226000I-251000J0D01*
G01*
X115175000Y-71226000D01*
G75*
G02*
X114924000Y-70975000I0J251000D01*
G01*
X114924000Y-70575000D01*
G75*
G02*
X115175000Y-70324000I251000J0D01*
G01*
G37*
G36*
G01*
X115175000Y-71974000D02*
X115725000Y-71974000D01*
G75*
G02*
X115976000Y-72225000I0J-251000D01*
G01*
X115976000Y-72625000D01*
G75*
G02*
X115725000Y-72876000I-251000J0D01*
G01*
X115175000Y-72876000D01*
G75*
G02*
X114924000Y-72625000I0J251000D01*
G01*
X114924000Y-72225000D01*
G75*
G02*
X115175000Y-71974000I251000J0D01*
G01*
G37*
G36*
G01*
X137880000Y-66375000D02*
X135780000Y-66375000D01*
G75*
G02*
X135729000Y-66324000I0J51000D01*
G01*
X135729000Y-64924000D01*
G75*
G02*
X135780000Y-64873000I51000J0D01*
G01*
X137880000Y-64873000D01*
G75*
G02*
X137931000Y-64924000I0J-51000D01*
G01*
X137931000Y-66324000D01*
G75*
G02*
X137880000Y-66375000I-51000J0D01*
G01*
G37*
G36*
G01*
X137880000Y-61975000D02*
X135780000Y-61975000D01*
G75*
G02*
X135729000Y-61924000I0J51000D01*
G01*
X135729000Y-60524000D01*
G75*
G02*
X135780000Y-60473000I51000J0D01*
G01*
X137880000Y-60473000D01*
G75*
G02*
X137931000Y-60524000I0J-51000D01*
G01*
X137931000Y-61924000D01*
G75*
G02*
X137880000Y-61975000I-51000J0D01*
G01*
G37*
M02*
