G04 #@! TF.GenerationSoftware,KiCad,Pcbnew,7.0.7-7.0.7~ubuntu23.04.1*
G04 #@! TF.CreationDate,2023-09-19T04:43:27+00:00*
G04 #@! TF.ProjectId,m5-pantilt,6d352d70-616e-4746-996c-742e6b696361,1*
G04 #@! TF.SameCoordinates,Original*
G04 #@! TF.FileFunction,Soldermask,Bot*
G04 #@! TF.FilePolarity,Negative*
%FSLAX46Y46*%
G04 Gerber Fmt 4.6, Leading zero omitted, Abs format (unit mm)*
G04 Created by KiCad (PCBNEW 7.0.7-7.0.7~ubuntu23.04.1) date 2023-09-19 04:43:27*
%MOMM*%
%LPD*%
G01*
G04 APERTURE LIST*
%ADD10C,2.102000*%
%ADD11C,3.102000*%
%ADD12O,1.302000X1.852000*%
%ADD13O,1.802000X2.102000*%
%ADD14O,3.602000X2.302000*%
%ADD15O,2.602000X1.602000*%
%ADD16O,2.052000X1.802000*%
G04 APERTURE END LIST*
D10*
X107300000Y-96850000D03*
D11*
X103150000Y-96850000D03*
D10*
X142700000Y-96850000D03*
D11*
X146850000Y-96850000D03*
D10*
X142700000Y-53150000D03*
D11*
X146850000Y-53150000D03*
D10*
X107300000Y-53150000D03*
D11*
X103150000Y-53150000D03*
G36*
G01*
X137251000Y-54375000D02*
X137251000Y-55625000D01*
G75*
G02*
X136950000Y-55926000I-301000J0D01*
G01*
X136250000Y-55926000D01*
G75*
G02*
X135949000Y-55625000I0J301000D01*
G01*
X135949000Y-54375000D01*
G75*
G02*
X136250000Y-54074000I301000J0D01*
G01*
X136950000Y-54074000D01*
G75*
G02*
X137251000Y-54375000I0J-301000D01*
G01*
G37*
D12*
X134600000Y-55000000D03*
X132600000Y-55000000D03*
X130600000Y-55000000D03*
G36*
G01*
X141699000Y-91775000D02*
X141699000Y-90525000D01*
G75*
G02*
X142000000Y-90224000I301000J0D01*
G01*
X142700000Y-90224000D01*
G75*
G02*
X143001000Y-90525000I0J-301000D01*
G01*
X143001000Y-91775000D01*
G75*
G02*
X142700000Y-92076000I-301000J0D01*
G01*
X142000000Y-92076000D01*
G75*
G02*
X141699000Y-91775000I0J301000D01*
G01*
G37*
X144350000Y-91150000D03*
G36*
G01*
X118901000Y-53775000D02*
X118901000Y-55275000D01*
G75*
G02*
X118600000Y-55576000I-301000J0D01*
G01*
X117400000Y-55576000D01*
G75*
G02*
X117099000Y-55275000I0J301000D01*
G01*
X117099000Y-53775000D01*
G75*
G02*
X117400000Y-53474000I301000J0D01*
G01*
X118600000Y-53474000D01*
G75*
G02*
X118901000Y-53775000I0J-301000D01*
G01*
G37*
D13*
X115500000Y-54525000D03*
D14*
X145800000Y-65250000D03*
X145800000Y-57050000D03*
G36*
G01*
X147050000Y-63951000D02*
X144550000Y-63951000D01*
G75*
G02*
X144499000Y-63900000I0J51000D01*
G01*
X144499000Y-62400000D01*
G75*
G02*
X144550000Y-62349000I51000J0D01*
G01*
X147050000Y-62349000D01*
G75*
G02*
X147101000Y-62400000I0J-51000D01*
G01*
X147101000Y-63900000D01*
G75*
G02*
X147050000Y-63951000I-51000J0D01*
G01*
G37*
D15*
X145800000Y-61150000D03*
X145800000Y-59150000D03*
G36*
G01*
X143975000Y-68999000D02*
X145425000Y-68999000D01*
G75*
G02*
X145726000Y-69300000I0J-301000D01*
G01*
X145726000Y-70500000D01*
G75*
G02*
X145425000Y-70801000I-301000J0D01*
G01*
X143975000Y-70801000D01*
G75*
G02*
X143674000Y-70500000I0J301000D01*
G01*
X143674000Y-69300000D01*
G75*
G02*
X143975000Y-68999000I301000J0D01*
G01*
G37*
D16*
X144700000Y-72400000D03*
X144700000Y-74900000D03*
G36*
G01*
X143975000Y-79999000D02*
X145425000Y-79999000D01*
G75*
G02*
X145726000Y-80300000I0J-301000D01*
G01*
X145726000Y-81500000D01*
G75*
G02*
X145425000Y-81801000I-301000J0D01*
G01*
X143975000Y-81801000D01*
G75*
G02*
X143674000Y-81500000I0J301000D01*
G01*
X143674000Y-80300000D01*
G75*
G02*
X143975000Y-79999000I301000J0D01*
G01*
G37*
X144700000Y-83400000D03*
X144700000Y-85900000D03*
G36*
G01*
X110351000Y-56720000D02*
X110351000Y-57720000D01*
G75*
G02*
X110300000Y-57771000I-51000J0D01*
G01*
X107150000Y-57771000D01*
G75*
G02*
X107099000Y-57720000I0J51000D01*
G01*
X107099000Y-56720000D01*
G75*
G02*
X107150000Y-56669000I51000J0D01*
G01*
X110300000Y-56669000D01*
G75*
G02*
X110351000Y-56720000I0J-51000D01*
G01*
G37*
G36*
G01*
X105301000Y-56720000D02*
X105301000Y-57720000D01*
G75*
G02*
X105250000Y-57771000I-51000J0D01*
G01*
X102100000Y-57771000D01*
G75*
G02*
X102049000Y-57720000I0J51000D01*
G01*
X102049000Y-56720000D01*
G75*
G02*
X102100000Y-56669000I51000J0D01*
G01*
X105250000Y-56669000D01*
G75*
G02*
X105301000Y-56720000I0J-51000D01*
G01*
G37*
G36*
G01*
X110351000Y-59260000D02*
X110351000Y-60260000D01*
G75*
G02*
X110300000Y-60311000I-51000J0D01*
G01*
X107150000Y-60311000D01*
G75*
G02*
X107099000Y-60260000I0J51000D01*
G01*
X107099000Y-59260000D01*
G75*
G02*
X107150000Y-59209000I51000J0D01*
G01*
X110300000Y-59209000D01*
G75*
G02*
X110351000Y-59260000I0J-51000D01*
G01*
G37*
G36*
G01*
X105301000Y-59260000D02*
X105301000Y-60260000D01*
G75*
G02*
X105250000Y-60311000I-51000J0D01*
G01*
X102100000Y-60311000D01*
G75*
G02*
X102049000Y-60260000I0J51000D01*
G01*
X102049000Y-59260000D01*
G75*
G02*
X102100000Y-59209000I51000J0D01*
G01*
X105250000Y-59209000D01*
G75*
G02*
X105301000Y-59260000I0J-51000D01*
G01*
G37*
G36*
G01*
X110351000Y-61800000D02*
X110351000Y-62800000D01*
G75*
G02*
X110300000Y-62851000I-51000J0D01*
G01*
X107150000Y-62851000D01*
G75*
G02*
X107099000Y-62800000I0J51000D01*
G01*
X107099000Y-61800000D01*
G75*
G02*
X107150000Y-61749000I51000J0D01*
G01*
X110300000Y-61749000D01*
G75*
G02*
X110351000Y-61800000I0J-51000D01*
G01*
G37*
G36*
G01*
X105301000Y-61800000D02*
X105301000Y-62800000D01*
G75*
G02*
X105250000Y-62851000I-51000J0D01*
G01*
X102100000Y-62851000D01*
G75*
G02*
X102049000Y-62800000I0J51000D01*
G01*
X102049000Y-61800000D01*
G75*
G02*
X102100000Y-61749000I51000J0D01*
G01*
X105250000Y-61749000D01*
G75*
G02*
X105301000Y-61800000I0J-51000D01*
G01*
G37*
G36*
G01*
X110351000Y-64340000D02*
X110351000Y-65340000D01*
G75*
G02*
X110300000Y-65391000I-51000J0D01*
G01*
X107150000Y-65391000D01*
G75*
G02*
X107099000Y-65340000I0J51000D01*
G01*
X107099000Y-64340000D01*
G75*
G02*
X107150000Y-64289000I51000J0D01*
G01*
X110300000Y-64289000D01*
G75*
G02*
X110351000Y-64340000I0J-51000D01*
G01*
G37*
G36*
G01*
X105301000Y-64340000D02*
X105301000Y-65340000D01*
G75*
G02*
X105250000Y-65391000I-51000J0D01*
G01*
X102100000Y-65391000D01*
G75*
G02*
X102049000Y-65340000I0J51000D01*
G01*
X102049000Y-64340000D01*
G75*
G02*
X102100000Y-64289000I51000J0D01*
G01*
X105250000Y-64289000D01*
G75*
G02*
X105301000Y-64340000I0J-51000D01*
G01*
G37*
G36*
G01*
X110351000Y-66880000D02*
X110351000Y-67880000D01*
G75*
G02*
X110300000Y-67931000I-51000J0D01*
G01*
X107150000Y-67931000D01*
G75*
G02*
X107099000Y-67880000I0J51000D01*
G01*
X107099000Y-66880000D01*
G75*
G02*
X107150000Y-66829000I51000J0D01*
G01*
X110300000Y-66829000D01*
G75*
G02*
X110351000Y-66880000I0J-51000D01*
G01*
G37*
G36*
G01*
X105301000Y-66880000D02*
X105301000Y-67880000D01*
G75*
G02*
X105250000Y-67931000I-51000J0D01*
G01*
X102100000Y-67931000D01*
G75*
G02*
X102049000Y-67880000I0J51000D01*
G01*
X102049000Y-66880000D01*
G75*
G02*
X102100000Y-66829000I51000J0D01*
G01*
X105250000Y-66829000D01*
G75*
G02*
X105301000Y-66880000I0J-51000D01*
G01*
G37*
G36*
G01*
X110351000Y-69420000D02*
X110351000Y-70420000D01*
G75*
G02*
X110300000Y-70471000I-51000J0D01*
G01*
X107150000Y-70471000D01*
G75*
G02*
X107099000Y-70420000I0J51000D01*
G01*
X107099000Y-69420000D01*
G75*
G02*
X107150000Y-69369000I51000J0D01*
G01*
X110300000Y-69369000D01*
G75*
G02*
X110351000Y-69420000I0J-51000D01*
G01*
G37*
G36*
G01*
X105301000Y-69420000D02*
X105301000Y-70420000D01*
G75*
G02*
X105250000Y-70471000I-51000J0D01*
G01*
X102100000Y-70471000D01*
G75*
G02*
X102049000Y-70420000I0J51000D01*
G01*
X102049000Y-69420000D01*
G75*
G02*
X102100000Y-69369000I51000J0D01*
G01*
X105250000Y-69369000D01*
G75*
G02*
X105301000Y-69420000I0J-51000D01*
G01*
G37*
G36*
G01*
X110351000Y-71960000D02*
X110351000Y-72960000D01*
G75*
G02*
X110300000Y-73011000I-51000J0D01*
G01*
X107150000Y-73011000D01*
G75*
G02*
X107099000Y-72960000I0J51000D01*
G01*
X107099000Y-71960000D01*
G75*
G02*
X107150000Y-71909000I51000J0D01*
G01*
X110300000Y-71909000D01*
G75*
G02*
X110351000Y-71960000I0J-51000D01*
G01*
G37*
G36*
G01*
X105301000Y-71960000D02*
X105301000Y-72960000D01*
G75*
G02*
X105250000Y-73011000I-51000J0D01*
G01*
X102100000Y-73011000D01*
G75*
G02*
X102049000Y-72960000I0J51000D01*
G01*
X102049000Y-71960000D01*
G75*
G02*
X102100000Y-71909000I51000J0D01*
G01*
X105250000Y-71909000D01*
G75*
G02*
X105301000Y-71960000I0J-51000D01*
G01*
G37*
G36*
G01*
X110351000Y-74500000D02*
X110351000Y-75500000D01*
G75*
G02*
X110300000Y-75551000I-51000J0D01*
G01*
X107150000Y-75551000D01*
G75*
G02*
X107099000Y-75500000I0J51000D01*
G01*
X107099000Y-74500000D01*
G75*
G02*
X107150000Y-74449000I51000J0D01*
G01*
X110300000Y-74449000D01*
G75*
G02*
X110351000Y-74500000I0J-51000D01*
G01*
G37*
G36*
G01*
X105301000Y-74500000D02*
X105301000Y-75500000D01*
G75*
G02*
X105250000Y-75551000I-51000J0D01*
G01*
X102100000Y-75551000D01*
G75*
G02*
X102049000Y-75500000I0J51000D01*
G01*
X102049000Y-74500000D01*
G75*
G02*
X102100000Y-74449000I51000J0D01*
G01*
X105250000Y-74449000D01*
G75*
G02*
X105301000Y-74500000I0J-51000D01*
G01*
G37*
G36*
G01*
X110351000Y-77040000D02*
X110351000Y-78040000D01*
G75*
G02*
X110300000Y-78091000I-51000J0D01*
G01*
X107150000Y-78091000D01*
G75*
G02*
X107099000Y-78040000I0J51000D01*
G01*
X107099000Y-77040000D01*
G75*
G02*
X107150000Y-76989000I51000J0D01*
G01*
X110300000Y-76989000D01*
G75*
G02*
X110351000Y-77040000I0J-51000D01*
G01*
G37*
G36*
G01*
X105301000Y-77040000D02*
X105301000Y-78040000D01*
G75*
G02*
X105250000Y-78091000I-51000J0D01*
G01*
X102100000Y-78091000D01*
G75*
G02*
X102049000Y-78040000I0J51000D01*
G01*
X102049000Y-77040000D01*
G75*
G02*
X102100000Y-76989000I51000J0D01*
G01*
X105250000Y-76989000D01*
G75*
G02*
X105301000Y-77040000I0J-51000D01*
G01*
G37*
G36*
G01*
X110351000Y-79580000D02*
X110351000Y-80580000D01*
G75*
G02*
X110300000Y-80631000I-51000J0D01*
G01*
X107150000Y-80631000D01*
G75*
G02*
X107099000Y-80580000I0J51000D01*
G01*
X107099000Y-79580000D01*
G75*
G02*
X107150000Y-79529000I51000J0D01*
G01*
X110300000Y-79529000D01*
G75*
G02*
X110351000Y-79580000I0J-51000D01*
G01*
G37*
G36*
G01*
X105301000Y-79580000D02*
X105301000Y-80580000D01*
G75*
G02*
X105250000Y-80631000I-51000J0D01*
G01*
X102100000Y-80631000D01*
G75*
G02*
X102049000Y-80580000I0J51000D01*
G01*
X102049000Y-79580000D01*
G75*
G02*
X102100000Y-79529000I51000J0D01*
G01*
X105250000Y-79529000D01*
G75*
G02*
X105301000Y-79580000I0J-51000D01*
G01*
G37*
G36*
G01*
X110351000Y-82120000D02*
X110351000Y-83120000D01*
G75*
G02*
X110300000Y-83171000I-51000J0D01*
G01*
X107150000Y-83171000D01*
G75*
G02*
X107099000Y-83120000I0J51000D01*
G01*
X107099000Y-82120000D01*
G75*
G02*
X107150000Y-82069000I51000J0D01*
G01*
X110300000Y-82069000D01*
G75*
G02*
X110351000Y-82120000I0J-51000D01*
G01*
G37*
G36*
G01*
X105301000Y-82120000D02*
X105301000Y-83120000D01*
G75*
G02*
X105250000Y-83171000I-51000J0D01*
G01*
X102100000Y-83171000D01*
G75*
G02*
X102049000Y-83120000I0J51000D01*
G01*
X102049000Y-82120000D01*
G75*
G02*
X102100000Y-82069000I51000J0D01*
G01*
X105250000Y-82069000D01*
G75*
G02*
X105301000Y-82120000I0J-51000D01*
G01*
G37*
G36*
G01*
X110351000Y-84660000D02*
X110351000Y-85660000D01*
G75*
G02*
X110300000Y-85711000I-51000J0D01*
G01*
X107150000Y-85711000D01*
G75*
G02*
X107099000Y-85660000I0J51000D01*
G01*
X107099000Y-84660000D01*
G75*
G02*
X107150000Y-84609000I51000J0D01*
G01*
X110300000Y-84609000D01*
G75*
G02*
X110351000Y-84660000I0J-51000D01*
G01*
G37*
G36*
G01*
X105301000Y-84660000D02*
X105301000Y-85660000D01*
G75*
G02*
X105250000Y-85711000I-51000J0D01*
G01*
X102100000Y-85711000D01*
G75*
G02*
X102049000Y-85660000I0J51000D01*
G01*
X102049000Y-84660000D01*
G75*
G02*
X102100000Y-84609000I51000J0D01*
G01*
X105250000Y-84609000D01*
G75*
G02*
X105301000Y-84660000I0J-51000D01*
G01*
G37*
G36*
G01*
X110351000Y-87200000D02*
X110351000Y-88200000D01*
G75*
G02*
X110300000Y-88251000I-51000J0D01*
G01*
X107150000Y-88251000D01*
G75*
G02*
X107099000Y-88200000I0J51000D01*
G01*
X107099000Y-87200000D01*
G75*
G02*
X107150000Y-87149000I51000J0D01*
G01*
X110300000Y-87149000D01*
G75*
G02*
X110351000Y-87200000I0J-51000D01*
G01*
G37*
G36*
G01*
X105301000Y-87200000D02*
X105301000Y-88200000D01*
G75*
G02*
X105250000Y-88251000I-51000J0D01*
G01*
X102100000Y-88251000D01*
G75*
G02*
X102049000Y-88200000I0J51000D01*
G01*
X102049000Y-87200000D01*
G75*
G02*
X102100000Y-87149000I51000J0D01*
G01*
X105250000Y-87149000D01*
G75*
G02*
X105301000Y-87200000I0J-51000D01*
G01*
G37*
G36*
G01*
X110351000Y-89740000D02*
X110351000Y-90740000D01*
G75*
G02*
X110300000Y-90791000I-51000J0D01*
G01*
X107150000Y-90791000D01*
G75*
G02*
X107099000Y-90740000I0J51000D01*
G01*
X107099000Y-89740000D01*
G75*
G02*
X107150000Y-89689000I51000J0D01*
G01*
X110300000Y-89689000D01*
G75*
G02*
X110351000Y-89740000I0J-51000D01*
G01*
G37*
G36*
G01*
X105301000Y-89740000D02*
X105301000Y-90740000D01*
G75*
G02*
X105250000Y-90791000I-51000J0D01*
G01*
X102100000Y-90791000D01*
G75*
G02*
X102049000Y-90740000I0J51000D01*
G01*
X102049000Y-89740000D01*
G75*
G02*
X102100000Y-89689000I51000J0D01*
G01*
X105250000Y-89689000D01*
G75*
G02*
X105301000Y-89740000I0J-51000D01*
G01*
G37*
G36*
G01*
X110351000Y-92280000D02*
X110351000Y-93280000D01*
G75*
G02*
X110300000Y-93331000I-51000J0D01*
G01*
X107150000Y-93331000D01*
G75*
G02*
X107099000Y-93280000I0J51000D01*
G01*
X107099000Y-92280000D01*
G75*
G02*
X107150000Y-92229000I51000J0D01*
G01*
X110300000Y-92229000D01*
G75*
G02*
X110351000Y-92280000I0J-51000D01*
G01*
G37*
G36*
G01*
X105301000Y-92280000D02*
X105301000Y-93280000D01*
G75*
G02*
X105250000Y-93331000I-51000J0D01*
G01*
X102100000Y-93331000D01*
G75*
G02*
X102049000Y-93280000I0J51000D01*
G01*
X102049000Y-92280000D01*
G75*
G02*
X102100000Y-92229000I51000J0D01*
G01*
X105250000Y-92229000D01*
G75*
G02*
X105301000Y-92280000I0J-51000D01*
G01*
G37*
M02*
