%TF.GenerationSoftware,KiCad,Pcbnew,7.0.7-7.0.7~ubuntu23.04.1*%
%TF.CreationDate,2023-09-19T04:43:30+00:00*%
%TF.ProjectId,m5-pantilt,6d352d70-616e-4746-996c-742e6b696361,1*%
%TF.SameCoordinates,Original*%
%TF.FileFunction,Other,User*%
%FSLAX46Y46*%
G04 Gerber Fmt 4.6, Leading zero omitted, Abs format (unit mm)*
G04 Created by KiCad (PCBNEW 7.0.7-7.0.7~ubuntu23.04.1) date 2023-09-19 04:43:30*
%MOMM*%
%LPD*%
G01*
G04 APERTURE LIST*
%ADD10C,0.050000*%
G04 APERTURE END LIST*
D10*
%TO.C,Hole3*%
X103150000Y-98950000D02*
X107300000Y-98950000D01*
X103150000Y-94750000D02*
X107300000Y-94750000D01*
X107300000Y-98950000D02*
G75*
G03*
X107300000Y-94750000I0J2100000D01*
G01*
X103150000Y-94750000D02*
G75*
G03*
X103150000Y-98950000I0J-2100000D01*
G01*
%TO.C,Hole2*%
X146850000Y-94750000D02*
X142700000Y-94750000D01*
X146850000Y-98950000D02*
X142700000Y-98950000D01*
X142700000Y-94750000D02*
G75*
G03*
X142700000Y-98950000I0J-2100000D01*
G01*
X146850000Y-98950000D02*
G75*
G03*
X146850000Y-94750000I0J2100000D01*
G01*
%TO.C,Hole1*%
X146850000Y-51050000D02*
X142700000Y-51050000D01*
X146850000Y-55250000D02*
X142700000Y-55250000D01*
X142700000Y-51050000D02*
G75*
G03*
X142700000Y-55250000I0J-2100000D01*
G01*
X146850000Y-55250000D02*
G75*
G03*
X146850000Y-51050000I0J2100000D01*
G01*
%TO.C,Hole4*%
X103150000Y-55250000D02*
X107300000Y-55250000D01*
X103150000Y-51050000D02*
X107300000Y-51050000D01*
X107300000Y-55250000D02*
G75*
G03*
X107300000Y-51050000I0J2100000D01*
G01*
X103150000Y-51050000D02*
G75*
G03*
X103150000Y-55250000I0J-2100000D01*
G01*
%TO.C,J6*%
X139050000Y-56850000D02*
X139050000Y-48250000D01*
X139050000Y-48250000D02*
X128150000Y-48250000D01*
X128150000Y-56850000D02*
X139050000Y-56850000D01*
X128150000Y-48250000D02*
X128150000Y-56850000D01*
%TO.C,J5*%
X139900000Y-88950000D02*
X139900000Y-94450000D01*
X139900000Y-94450000D02*
X146800000Y-94450000D01*
X146800000Y-88950000D02*
X139900000Y-88950000D01*
X146800000Y-94450000D02*
X146800000Y-88950000D01*
%TO.C,R3*%
X117350000Y-82230000D02*
X114050000Y-82230000D01*
X117350000Y-80770000D02*
X117350000Y-82230000D01*
X114050000Y-82230000D02*
X114050000Y-80770000D01*
X114050000Y-80770000D02*
X117350000Y-80770000D01*
%TO.C,R4*%
X117350000Y-83930000D02*
X114050000Y-83930000D01*
X117350000Y-82470000D02*
X117350000Y-83930000D01*
X114050000Y-83930000D02*
X114050000Y-82470000D01*
X114050000Y-82470000D02*
X117350000Y-82470000D01*
%TO.C,J7*%
X120950000Y-57375000D02*
X120950000Y-50625000D01*
X120950000Y-50625000D02*
X112550000Y-50625000D01*
X112550000Y-57375000D02*
X120950000Y-57375000D01*
X112550000Y-50625000D02*
X112550000Y-57375000D01*
%TO.C,C3*%
X138350000Y-73980000D02*
X138350000Y-69020000D01*
X140650000Y-73980000D02*
X138350000Y-73980000D01*
X138350000Y-69020000D02*
X140650000Y-69020000D01*
X140650000Y-69020000D02*
X140650000Y-73980000D01*
%TO.C,C4*%
X138264000Y-69020000D02*
X138264000Y-73980000D01*
X135964000Y-69020000D02*
X138264000Y-69020000D01*
X138264000Y-73980000D02*
X135964000Y-73980000D01*
X135964000Y-73980000D02*
X135964000Y-69020000D01*
%TO.C,C1*%
X138250000Y-78420000D02*
X138250000Y-83380000D01*
X135950000Y-78420000D02*
X138250000Y-78420000D01*
X138250000Y-83380000D02*
X135950000Y-83380000D01*
X135950000Y-83380000D02*
X135950000Y-78420000D01*
%TO.C,SW1*%
X143100000Y-66850000D02*
X143100000Y-55450000D01*
X152500000Y-66850000D02*
X143100000Y-66850000D01*
X143100000Y-55450000D02*
X152500000Y-55450000D01*
X152500000Y-55450000D02*
X152500000Y-66850000D01*
%TO.C,Q1*%
X134500000Y-96750000D02*
X131100000Y-96750000D01*
X134500000Y-93250000D02*
X134500000Y-96750000D01*
X131100000Y-96750000D02*
X131100000Y-93250000D01*
X131100000Y-93250000D02*
X134500000Y-93250000D01*
%TO.C,R5*%
X134906200Y-96646200D02*
X134906200Y-93346200D01*
X136366200Y-96646200D02*
X134906200Y-96646200D01*
X134906200Y-93346200D02*
X136366200Y-93346200D01*
X136366200Y-93346200D02*
X136366200Y-96646200D01*
%TO.C,R9*%
X117350000Y-78980000D02*
X114050000Y-78980000D01*
X117350000Y-77520000D02*
X117350000Y-78980000D01*
X114050000Y-78980000D02*
X114050000Y-77520000D01*
X114050000Y-77520000D02*
X117350000Y-77520000D01*
%TO.C,R10*%
X117400000Y-85880000D02*
X114100000Y-85880000D01*
X117400000Y-84420000D02*
X117400000Y-85880000D01*
X114100000Y-85880000D02*
X114100000Y-84420000D01*
X114100000Y-84420000D02*
X117400000Y-84420000D01*
%TO.C,R11*%
X117350000Y-80580000D02*
X114050000Y-80580000D01*
X117350000Y-79120000D02*
X117350000Y-80580000D01*
X114050000Y-80580000D02*
X114050000Y-79120000D01*
X114050000Y-79120000D02*
X117350000Y-79120000D01*
%TO.C,R12*%
X117400000Y-87480000D02*
X114100000Y-87480000D01*
X117400000Y-86020000D02*
X117400000Y-87480000D01*
X114100000Y-87480000D02*
X114100000Y-86020000D01*
X114100000Y-86020000D02*
X117400000Y-86020000D01*
%TO.C,R13*%
X128520000Y-71570000D02*
X131480000Y-71570000D01*
X128520000Y-73030000D02*
X128520000Y-71570000D01*
X131480000Y-71570000D02*
X131480000Y-73030000D01*
X131480000Y-73030000D02*
X128520000Y-73030000D01*
%TO.C,R14*%
X131480000Y-71530000D02*
X128520000Y-71530000D01*
X131480000Y-70070000D02*
X131480000Y-71530000D01*
X128520000Y-71530000D02*
X128520000Y-70070000D01*
X128520000Y-70070000D02*
X131480000Y-70070000D01*
%TO.C,C2*%
X140650000Y-78420000D02*
X140650000Y-83380000D01*
X138350000Y-78420000D02*
X140650000Y-78420000D01*
X140650000Y-83380000D02*
X138350000Y-83380000D01*
X138350000Y-83380000D02*
X138350000Y-78420000D01*
%TO.C,J3*%
X146800000Y-66900000D02*
X142000000Y-66900000D01*
X142000000Y-66900000D02*
X142000000Y-77900000D01*
X146800000Y-77900000D02*
X146800000Y-66900000D01*
X142000000Y-77900000D02*
X146800000Y-77900000D01*
%TO.C,R7*%
X117730000Y-66480000D02*
X114770000Y-66480000D01*
X117730000Y-65020000D02*
X117730000Y-66480000D01*
X114770000Y-66480000D02*
X114770000Y-65020000D01*
X114770000Y-65020000D02*
X117730000Y-65020000D01*
%TO.C,J8*%
X146800000Y-77900000D02*
X142000000Y-77900000D01*
X142000000Y-77900000D02*
X142000000Y-88900000D01*
X146800000Y-88900000D02*
X146800000Y-77900000D01*
X142000000Y-88900000D02*
X146800000Y-88900000D01*
%TO.C,R8*%
X131470000Y-66330000D02*
X128510000Y-66330000D01*
X131470000Y-64870000D02*
X131470000Y-66330000D01*
X128510000Y-66330000D02*
X128510000Y-64870000D01*
X128510000Y-64870000D02*
X131470000Y-64870000D01*
%TO.C,C5*%
X128520000Y-63270000D02*
X131480000Y-63270000D01*
X128520000Y-64730000D02*
X128520000Y-63270000D01*
X131480000Y-63270000D02*
X131480000Y-64730000D01*
X131480000Y-64730000D02*
X128520000Y-64730000D01*
%TO.C,J2*%
X101650000Y-55450000D02*
X110700000Y-55450000D01*
X101650000Y-94550000D02*
X101650000Y-55450000D01*
X110700000Y-55450000D02*
X110700000Y-94550000D01*
X110700000Y-94550000D02*
X101650000Y-94550000D01*
%TO.C,D1*%
X128000000Y-55000000D02*
X121000000Y-55000000D01*
X128000000Y-51500000D02*
X128000000Y-55000000D01*
X121000000Y-55000000D02*
X121000000Y-51500000D01*
X121000000Y-51500000D02*
X128000000Y-51500000D01*
%TO.C,Q2*%
X113880000Y-66600000D02*
X113880000Y-70000000D01*
X113880000Y-70000000D02*
X117720000Y-70000000D01*
X117720000Y-66600000D02*
X113880000Y-66600000D01*
X117720000Y-70000000D02*
X117720000Y-66600000D01*
%TO.C,R15*%
X131480000Y-69530000D02*
X128520000Y-69530000D01*
X131480000Y-68070000D02*
X131480000Y-69530000D01*
X128520000Y-69530000D02*
X128520000Y-68070000D01*
X128520000Y-68070000D02*
X131480000Y-68070000D01*
%TO.C,U1*%
X118600000Y-63250000D02*
X118600000Y-69950000D01*
X118600000Y-69950000D02*
X128000000Y-69950000D01*
X128000000Y-63250000D02*
X118600000Y-63250000D01*
X128000000Y-69950000D02*
X128000000Y-63250000D01*
%TO.C,R2*%
X116270000Y-73080000D02*
X116270000Y-70120000D01*
X117730000Y-73080000D02*
X116270000Y-73080000D01*
X116270000Y-70120000D02*
X117730000Y-70120000D01*
X117730000Y-70120000D02*
X117730000Y-73080000D01*
%TO.C,R6*%
X131480000Y-67870000D02*
X128520000Y-67870000D01*
X131480000Y-66410000D02*
X131480000Y-67870000D01*
X128520000Y-67870000D02*
X128520000Y-66410000D01*
X128520000Y-66410000D02*
X131480000Y-66410000D01*
%TO.C,R1*%
X116180000Y-70120000D02*
X116180000Y-73080000D01*
X114720000Y-70120000D02*
X116180000Y-70120000D01*
X116180000Y-73080000D02*
X114720000Y-73080000D01*
X114720000Y-73080000D02*
X114720000Y-70120000D01*
%TO.C,D2*%
X135330000Y-66574000D02*
X138330000Y-66574000D01*
X135330000Y-66574000D02*
X135330000Y-60274000D01*
X135330000Y-60274000D02*
X138330000Y-60274000D01*
X138330000Y-60274000D02*
X138330000Y-66574000D01*
%TD*%
M02*
