%TF.GenerationSoftware,KiCad,Pcbnew,7.0.7-7.0.7~ubuntu23.04.1*%
%TF.CreationDate,2023-09-19T04:43:30+00:00*%
%TF.ProjectId,m5-pantilt,6d352d70-616e-4746-996c-742e6b696361,1*%
%TF.SameCoordinates,Original*%
%TF.FileFunction,Soldermask,Top*%
%TF.FilePolarity,Negative*%
%FSLAX46Y46*%
G04 Gerber Fmt 4.6, Leading zero omitted, Abs format (unit mm)*
G04 Created by KiCad (PCBNEW 7.0.7-7.0.7~ubuntu23.04.1) date 2023-09-19 04:43:30*
%MOMM*%
%LPD*%
G01*
G04 APERTURE LIST*
G04 Aperture macros list*
%AMRoundRect*
0 Rectangle with rounded corners*
0 $1 Rounding radius*
0 $2 $3 $4 $5 $6 $7 $8 $9 X,Y pos of 4 corners*
0 Add a 4 corners polygon primitive as box body*
4,1,4,$2,$3,$4,$5,$6,$7,$8,$9,$2,$3,0*
0 Add four circle primitives for the rounded corners*
1,1,$1+$1,$2,$3*
1,1,$1+$1,$4,$5*
1,1,$1+$1,$6,$7*
1,1,$1+$1,$8,$9*
0 Add four rect primitives between the rounded corners*
20,1,$1+$1,$2,$3,$4,$5,0*
20,1,$1+$1,$4,$5,$6,$7,0*
20,1,$1+$1,$6,$7,$8,$9,0*
20,1,$1+$1,$8,$9,$2,$3,0*%
G04 Aperture macros list end*
%ADD10C,2.102000*%
%ADD11C,3.102000*%
%ADD12RoundRect,0.301000X0.350000X0.625000X-0.350000X0.625000X-0.350000X-0.625000X0.350000X-0.625000X0*%
%ADD13O,1.302000X1.852000*%
%ADD14RoundRect,0.301000X-0.350000X-0.625000X0.350000X-0.625000X0.350000X0.625000X-0.350000X0.625000X0*%
%ADD15RoundRect,0.288500X0.250000X0.237500X-0.250000X0.237500X-0.250000X-0.237500X0.250000X-0.237500X0*%
%ADD16RoundRect,0.301000X0.600000X0.750000X-0.600000X0.750000X-0.600000X-0.750000X0.600000X-0.750000X0*%
%ADD17O,1.802000X2.102000*%
%ADD18RoundRect,0.301000X0.650000X-0.412500X0.650000X0.412500X-0.650000X0.412500X-0.650000X-0.412500X0*%
%ADD19RoundRect,0.301000X-0.650000X0.412500X-0.650000X-0.412500X0.650000X-0.412500X0.650000X0.412500X0*%
%ADD20O,3.602000X2.302000*%
%ADD21RoundRect,0.051000X1.250000X-0.750000X1.250000X0.750000X-1.250000X0.750000X-1.250000X-0.750000X0*%
%ADD22O,2.602000X1.602000*%
%ADD23RoundRect,0.051000X0.450000X0.400000X-0.450000X0.400000X-0.450000X-0.400000X0.450000X-0.400000X0*%
%ADD24RoundRect,0.288500X0.237500X-0.250000X0.237500X0.250000X-0.237500X0.250000X-0.237500X-0.250000X0*%
%ADD25RoundRect,0.251000X-0.200000X-0.275000X0.200000X-0.275000X0.200000X0.275000X-0.200000X0.275000X0*%
%ADD26RoundRect,0.251000X0.200000X0.275000X-0.200000X0.275000X-0.200000X-0.275000X0.200000X-0.275000X0*%
%ADD27RoundRect,0.301000X-0.725000X0.600000X-0.725000X-0.600000X0.725000X-0.600000X0.725000X0.600000X0*%
%ADD28O,2.052000X1.802000*%
%ADD29RoundRect,0.276000X-0.225000X-0.250000X0.225000X-0.250000X0.225000X0.250000X-0.225000X0.250000X0*%
%ADD30RoundRect,0.051000X-1.500000X-0.500000X1.500000X-0.500000X1.500000X0.500000X-1.500000X0.500000X0*%
%ADD31RoundRect,0.051000X1.250000X0.900000X-1.250000X0.900000X-1.250000X-0.900000X1.250000X-0.900000X0*%
%ADD32RoundRect,0.201000X-0.587500X-0.150000X0.587500X-0.150000X0.587500X0.150000X-0.587500X0.150000X0*%
%ADD33RoundRect,0.201000X-0.800000X-0.150000X0.800000X-0.150000X0.800000X0.150000X-0.800000X0.150000X0*%
%ADD34RoundRect,0.251000X0.275000X-0.200000X0.275000X0.200000X-0.275000X0.200000X-0.275000X-0.200000X0*%
%ADD35RoundRect,0.251000X-0.275000X0.200000X-0.275000X-0.200000X0.275000X-0.200000X0.275000X0.200000X0*%
%ADD36RoundRect,0.051000X1.050000X-0.700000X1.050000X0.700000X-1.050000X0.700000X-1.050000X-0.700000X0*%
G04 APERTURE END LIST*
D10*
%TO.C,Hole3*%
X107300000Y-96850000D03*
D11*
X103150000Y-96850000D03*
%TD*%
D10*
%TO.C,Hole2*%
X142700000Y-96850000D03*
D11*
X146850000Y-96850000D03*
%TD*%
D10*
%TO.C,Hole1*%
X142700000Y-53150000D03*
D11*
X146850000Y-53150000D03*
%TD*%
D10*
%TO.C,Hole4*%
X107300000Y-53150000D03*
D11*
X103150000Y-53150000D03*
%TD*%
D12*
%TO.C,J6*%
X136600000Y-55000000D03*
D13*
X134600000Y-55000000D03*
X132600000Y-55000000D03*
X130600000Y-55000000D03*
%TD*%
D14*
%TO.C,J5*%
X142350000Y-91150000D03*
D13*
X144350000Y-91150000D03*
%TD*%
D15*
%TO.C,R3*%
X116612500Y-81500000D03*
X114787500Y-81500000D03*
%TD*%
%TO.C,R4*%
X116612500Y-83200000D03*
X114787500Y-83200000D03*
%TD*%
D16*
%TO.C,J7*%
X118000000Y-54525000D03*
D17*
X115500000Y-54525000D03*
%TD*%
D18*
%TO.C,C3*%
X139500000Y-73062500D03*
X139500000Y-69937500D03*
%TD*%
D19*
%TO.C,C4*%
X137114000Y-69937500D03*
X137114000Y-73062500D03*
%TD*%
%TO.C,C1*%
X137100000Y-79337500D03*
X137100000Y-82462500D03*
%TD*%
D20*
%TO.C,SW1*%
X145800000Y-65250000D03*
X145800000Y-57050000D03*
D21*
X145800000Y-63150000D03*
D22*
X145800000Y-61150000D03*
X145800000Y-59150000D03*
%TD*%
D23*
%TO.C,Q1*%
X133800000Y-95950000D03*
X133800000Y-94050000D03*
X131800000Y-95000000D03*
%TD*%
D24*
%TO.C,R5*%
X135636200Y-95908700D03*
X135636200Y-94083700D03*
%TD*%
D15*
%TO.C,R9*%
X116612500Y-78250000D03*
X114787500Y-78250000D03*
%TD*%
%TO.C,R10*%
X116662500Y-85150000D03*
X114837500Y-85150000D03*
%TD*%
%TO.C,R11*%
X116612500Y-79850000D03*
X114787500Y-79850000D03*
%TD*%
%TO.C,R12*%
X116662500Y-86750000D03*
X114837500Y-86750000D03*
%TD*%
D25*
%TO.C,R13*%
X129175000Y-72300000D03*
X130825000Y-72300000D03*
%TD*%
D26*
%TO.C,R14*%
X130825000Y-70800000D03*
X129175000Y-70800000D03*
%TD*%
D19*
%TO.C,C2*%
X139500000Y-79337500D03*
X139500000Y-82462500D03*
%TD*%
D27*
%TO.C,J3*%
X144700000Y-69900000D03*
D28*
X144700000Y-72400000D03*
X144700000Y-74900000D03*
%TD*%
D26*
%TO.C,R7*%
X117075000Y-65750000D03*
X115425000Y-65750000D03*
%TD*%
D27*
%TO.C,J8*%
X144700000Y-80900000D03*
D28*
X144700000Y-83400000D03*
X144700000Y-85900000D03*
%TD*%
D26*
%TO.C,R8*%
X130815000Y-65600000D03*
X129165000Y-65600000D03*
%TD*%
D29*
%TO.C,C5*%
X129225000Y-64000000D03*
X130775000Y-64000000D03*
%TD*%
D30*
%TO.C,J2*%
X108720000Y-57220000D03*
X103680000Y-57220000D03*
X108720000Y-59760000D03*
X103680000Y-59760000D03*
X108720000Y-62300000D03*
X103680000Y-62300000D03*
X108720000Y-64840000D03*
X103680000Y-64840000D03*
X108720000Y-67380000D03*
X103680000Y-67380000D03*
X108720000Y-69920000D03*
X103680000Y-69920000D03*
X108720000Y-72460000D03*
X103680000Y-72460000D03*
X108720000Y-75000000D03*
X103680000Y-75000000D03*
X108720000Y-77540000D03*
X103680000Y-77540000D03*
X108720000Y-80080000D03*
X103680000Y-80080000D03*
X108720000Y-82620000D03*
X103680000Y-82620000D03*
X108720000Y-85160000D03*
X103680000Y-85160000D03*
X108720000Y-87700000D03*
X103680000Y-87700000D03*
X108720000Y-90240000D03*
X103680000Y-90240000D03*
X108720000Y-92780000D03*
X103680000Y-92780000D03*
%TD*%
D31*
%TO.C,D1*%
X126500000Y-53250000D03*
X122500000Y-53250000D03*
%TD*%
D32*
%TO.C,Q2*%
X114862500Y-67350000D03*
X114862500Y-69250000D03*
X116737500Y-68300000D03*
%TD*%
D26*
%TO.C,R15*%
X130825000Y-68800000D03*
X129175000Y-68800000D03*
%TD*%
D33*
%TO.C,U1*%
X119800000Y-64695000D03*
X119800000Y-65965000D03*
X119800000Y-67235000D03*
X119800000Y-68505000D03*
X126800000Y-68505000D03*
X126800000Y-67235000D03*
X126800000Y-65965000D03*
X126800000Y-64695000D03*
%TD*%
D34*
%TO.C,R2*%
X117000000Y-72425000D03*
X117000000Y-70775000D03*
%TD*%
D26*
%TO.C,R6*%
X130825000Y-67140000D03*
X129175000Y-67140000D03*
%TD*%
D35*
%TO.C,R1*%
X115450000Y-70775000D03*
X115450000Y-72425000D03*
%TD*%
D36*
%TO.C,D2*%
X136830000Y-65624000D03*
X136830000Y-61224000D03*
%TD*%
M02*
