%TF.GenerationSoftware,KiCad,Pcbnew,7.0.7-7.0.7~ubuntu23.04.1*%
%TF.CreationDate,2023-09-19T04:43:30+00:00*%
%TF.ProjectId,m5-pantilt,6d352d70-616e-4746-996c-742e6b696361,1*%
%TF.SameCoordinates,Original*%
%TF.FileFunction,Copper,L1,Top*%
%TF.FilePolarity,Positive*%
%FSLAX46Y46*%
G04 Gerber Fmt 4.6, Leading zero omitted, Abs format (unit mm)*
G04 Created by KiCad (PCBNEW 7.0.7-7.0.7~ubuntu23.04.1) date 2023-09-19 04:43:30*
%MOMM*%
%LPD*%
G01*
G04 APERTURE LIST*
G04 Aperture macros list*
%AMRoundRect*
0 Rectangle with rounded corners*
0 $1 Rounding radius*
0 $2 $3 $4 $5 $6 $7 $8 $9 X,Y pos of 4 corners*
0 Add a 4 corners polygon primitive as box body*
4,1,4,$2,$3,$4,$5,$6,$7,$8,$9,$2,$3,0*
0 Add four circle primitives for the rounded corners*
1,1,$1+$1,$2,$3*
1,1,$1+$1,$4,$5*
1,1,$1+$1,$6,$7*
1,1,$1+$1,$8,$9*
0 Add four rect primitives between the rounded corners*
20,1,$1+$1,$2,$3,$4,$5,0*
20,1,$1+$1,$4,$5,$6,$7,0*
20,1,$1+$1,$6,$7,$8,$9,0*
20,1,$1+$1,$8,$9,$2,$3,0*%
G04 Aperture macros list end*
%TA.AperFunction,ComponentPad*%
%ADD10RoundRect,0.250000X0.350000X0.625000X-0.350000X0.625000X-0.350000X-0.625000X0.350000X-0.625000X0*%
%TD*%
%TA.AperFunction,ComponentPad*%
%ADD11O,1.200000X1.750000*%
%TD*%
%TA.AperFunction,ComponentPad*%
%ADD12RoundRect,0.250000X-0.350000X-0.625000X0.350000X-0.625000X0.350000X0.625000X-0.350000X0.625000X0*%
%TD*%
%TA.AperFunction,SMDPad,CuDef*%
%ADD13RoundRect,0.237500X0.250000X0.237500X-0.250000X0.237500X-0.250000X-0.237500X0.250000X-0.237500X0*%
%TD*%
%TA.AperFunction,ComponentPad*%
%ADD14RoundRect,0.250000X0.600000X0.750000X-0.600000X0.750000X-0.600000X-0.750000X0.600000X-0.750000X0*%
%TD*%
%TA.AperFunction,ComponentPad*%
%ADD15O,1.700000X2.000000*%
%TD*%
%TA.AperFunction,SMDPad,CuDef*%
%ADD16RoundRect,0.250000X0.650000X-0.412500X0.650000X0.412500X-0.650000X0.412500X-0.650000X-0.412500X0*%
%TD*%
%TA.AperFunction,SMDPad,CuDef*%
%ADD17RoundRect,0.250000X-0.650000X0.412500X-0.650000X-0.412500X0.650000X-0.412500X0.650000X0.412500X0*%
%TD*%
%TA.AperFunction,ComponentPad*%
%ADD18O,3.500000X2.200000*%
%TD*%
%TA.AperFunction,ComponentPad*%
%ADD19R,2.500000X1.500000*%
%TD*%
%TA.AperFunction,ComponentPad*%
%ADD20O,2.500000X1.500000*%
%TD*%
%TA.AperFunction,SMDPad,CuDef*%
%ADD21R,0.900000X0.800000*%
%TD*%
%TA.AperFunction,SMDPad,CuDef*%
%ADD22RoundRect,0.237500X0.237500X-0.250000X0.237500X0.250000X-0.237500X0.250000X-0.237500X-0.250000X0*%
%TD*%
%TA.AperFunction,SMDPad,CuDef*%
%ADD23RoundRect,0.200000X-0.200000X-0.275000X0.200000X-0.275000X0.200000X0.275000X-0.200000X0.275000X0*%
%TD*%
%TA.AperFunction,SMDPad,CuDef*%
%ADD24RoundRect,0.200000X0.200000X0.275000X-0.200000X0.275000X-0.200000X-0.275000X0.200000X-0.275000X0*%
%TD*%
%TA.AperFunction,ComponentPad*%
%ADD25RoundRect,0.250000X-0.725000X0.600000X-0.725000X-0.600000X0.725000X-0.600000X0.725000X0.600000X0*%
%TD*%
%TA.AperFunction,ComponentPad*%
%ADD26O,1.950000X1.700000*%
%TD*%
%TA.AperFunction,SMDPad,CuDef*%
%ADD27RoundRect,0.225000X-0.225000X-0.250000X0.225000X-0.250000X0.225000X0.250000X-0.225000X0.250000X0*%
%TD*%
%TA.AperFunction,SMDPad,CuDef*%
%ADD28R,3.000000X1.000000*%
%TD*%
%TA.AperFunction,SMDPad,CuDef*%
%ADD29R,2.500000X1.800000*%
%TD*%
%TA.AperFunction,SMDPad,CuDef*%
%ADD30RoundRect,0.150000X-0.587500X-0.150000X0.587500X-0.150000X0.587500X0.150000X-0.587500X0.150000X0*%
%TD*%
%TA.AperFunction,SMDPad,CuDef*%
%ADD31RoundRect,0.150000X-0.800000X-0.150000X0.800000X-0.150000X0.800000X0.150000X-0.800000X0.150000X0*%
%TD*%
%TA.AperFunction,SMDPad,CuDef*%
%ADD32RoundRect,0.200000X0.275000X-0.200000X0.275000X0.200000X-0.275000X0.200000X-0.275000X-0.200000X0*%
%TD*%
%TA.AperFunction,SMDPad,CuDef*%
%ADD33RoundRect,0.200000X-0.275000X0.200000X-0.275000X-0.200000X0.275000X-0.200000X0.275000X0.200000X0*%
%TD*%
%TA.AperFunction,SMDPad,CuDef*%
%ADD34R,2.100000X1.400000*%
%TD*%
%TA.AperFunction,ViaPad*%
%ADD35C,0.600000*%
%TD*%
%TA.AperFunction,Conductor*%
%ADD36C,0.200000*%
%TD*%
%TA.AperFunction,Conductor*%
%ADD37C,2.000000*%
%TD*%
%TA.AperFunction,Conductor*%
%ADD38C,0.600000*%
%TD*%
%TA.AperFunction,Conductor*%
%ADD39C,1.000000*%
%TD*%
%TA.AperFunction,Conductor*%
%ADD40C,0.152400*%
%TD*%
%TA.AperFunction,Conductor*%
%ADD41C,1.600000*%
%TD*%
%TA.AperFunction,Conductor*%
%ADD42C,0.400000*%
%TD*%
G04 APERTURE END LIST*
D10*
%TO.P,J6,1,Pin_1*%
%TO.N,GND*%
X136600000Y-55000000D03*
D11*
%TO.P,J6,2,Pin_2*%
%TO.N,+5V*%
X134600000Y-55000000D03*
%TO.P,J6,3,Pin_3*%
%TO.N,/PORTB1*%
X132600000Y-55000000D03*
%TO.P,J6,4,Pin_4*%
%TO.N,/PORTB2*%
X130600000Y-55000000D03*
%TD*%
D12*
%TO.P,J5,1,Pin_1*%
%TO.N,Net-(J5-Pin_1)*%
X142350000Y-91150000D03*
D11*
%TO.P,J5,2,Pin_2*%
%TO.N,GND*%
X144350000Y-91150000D03*
%TD*%
D13*
%TO.P,R3,1*%
%TO.N,Net-(J3-Pin_3)*%
X116612500Y-81500000D03*
%TO.P,R3,2*%
%TO.N,/PWM1*%
X114787500Y-81500000D03*
%TD*%
%TO.P,R4,1*%
%TO.N,Net-(J8-Pin_3)*%
X116612500Y-83200000D03*
%TO.P,R4,2*%
%TO.N,/PWM2*%
X114787500Y-83200000D03*
%TD*%
D14*
%TO.P,J7,1,Pin_1*%
%TO.N,Net-(D1-A)*%
X118000000Y-54525000D03*
D15*
%TO.P,J7,2,Pin_2*%
%TO.N,GND*%
X115500000Y-54525000D03*
%TD*%
D16*
%TO.P,C3,1*%
%TO.N,Net-(D2-K)*%
X139500000Y-73062500D03*
%TO.P,C3,2*%
%TO.N,GND*%
X139500000Y-69937500D03*
%TD*%
D17*
%TO.P,C4,1*%
%TO.N,GND*%
X137114000Y-69937500D03*
%TO.P,C4,2*%
%TO.N,Net-(D2-K)*%
X137114000Y-73062500D03*
%TD*%
%TO.P,C1,1*%
%TO.N,GND*%
X137100000Y-79337500D03*
%TO.P,C1,2*%
%TO.N,Net-(D2-K)*%
X137100000Y-82462500D03*
%TD*%
D18*
%TO.P,SW1,*%
%TO.N,*%
X145800000Y-65250000D03*
X145800000Y-57050000D03*
D19*
%TO.P,SW1,1,A*%
%TO.N,unconnected-(SW1-A-Pad1)*%
X145800000Y-63150000D03*
D20*
%TO.P,SW1,2,B*%
%TO.N,Net-(Q1-G)*%
X145800000Y-61150000D03*
%TO.P,SW1,3,C*%
%TO.N,GND*%
X145800000Y-59150000D03*
%TD*%
D21*
%TO.P,Q1,1,G*%
%TO.N,Net-(Q1-G)*%
X133800000Y-95950000D03*
%TO.P,Q1,2,S*%
%TO.N,Net-(J5-Pin_1)*%
X133800000Y-94050000D03*
%TO.P,Q1,3,D*%
%TO.N,/BAT*%
X131800000Y-95000000D03*
%TD*%
D22*
%TO.P,R5,1*%
%TO.N,Net-(Q1-G)*%
X135636200Y-95908700D03*
%TO.P,R5,2*%
%TO.N,Net-(J5-Pin_1)*%
X135636200Y-94083700D03*
%TD*%
D13*
%TO.P,R9,1*%
%TO.N,/PWM1*%
X116612500Y-78250000D03*
%TO.P,R9,2*%
%TO.N,/PWM1_C1*%
X114787500Y-78250000D03*
%TD*%
%TO.P,R10,1*%
%TO.N,/PWM1*%
X116662500Y-85150000D03*
%TO.P,R10,2*%
%TO.N,/PWM1_C2*%
X114837500Y-85150000D03*
%TD*%
%TO.P,R11,1*%
%TO.N,/PWM2*%
X116612500Y-79850000D03*
%TO.P,R11,2*%
%TO.N,/PWM2_C1*%
X114787500Y-79850000D03*
%TD*%
%TO.P,R12,1*%
%TO.N,/PWM2*%
X116662500Y-86750000D03*
%TO.P,R12,2*%
%TO.N,/PWM2_C2*%
X114837500Y-86750000D03*
%TD*%
D23*
%TO.P,R13,1*%
%TO.N,Net-(J8-Pin_3)*%
X129175000Y-72300000D03*
%TO.P,R13,2*%
%TO.N,Net-(J3-Pin_3)*%
X130825000Y-72300000D03*
%TD*%
D24*
%TO.P,R14,1*%
%TO.N,/TTL*%
X130825000Y-70800000D03*
%TO.P,R14,2*%
%TO.N,Net-(J8-Pin_3)*%
X129175000Y-70800000D03*
%TD*%
D17*
%TO.P,C2,1*%
%TO.N,GND*%
X139500000Y-79337500D03*
%TO.P,C2,2*%
%TO.N,Net-(D2-K)*%
X139500000Y-82462500D03*
%TD*%
D25*
%TO.P,J3,1,Pin_1*%
%TO.N,GND*%
X144700000Y-69900000D03*
D26*
%TO.P,J3,2,Pin_2*%
%TO.N,Net-(D2-K)*%
X144700000Y-72400000D03*
%TO.P,J3,3,Pin_3*%
%TO.N,Net-(J3-Pin_3)*%
X144700000Y-74900000D03*
%TD*%
D24*
%TO.P,R7,1*%
%TO.N,Net-(Q2-C)*%
X117075000Y-65750000D03*
%TO.P,R7,2*%
%TO.N,GND*%
X115425000Y-65750000D03*
%TD*%
D25*
%TO.P,J8,1,Pin_1*%
%TO.N,GND*%
X144700000Y-80900000D03*
D26*
%TO.P,J8,2,Pin_2*%
%TO.N,Net-(D2-K)*%
X144700000Y-83400000D03*
%TO.P,J8,3,Pin_3*%
%TO.N,Net-(J8-Pin_3)*%
X144700000Y-85900000D03*
%TD*%
D24*
%TO.P,R8,1*%
%TO.N,+3V3*%
X130815000Y-65600000D03*
%TO.P,R8,2*%
%TO.N,Net-(U1-B)*%
X129165000Y-65600000D03*
%TD*%
D27*
%TO.P,C5,1*%
%TO.N,+3V3*%
X129225000Y-64000000D03*
%TO.P,C5,2*%
%TO.N,GND*%
X130775000Y-64000000D03*
%TD*%
D28*
%TO.P,J2,1,Pin_1*%
%TO.N,/PIN1*%
X108720000Y-57220000D03*
%TO.P,J2,2,Pin_2*%
%TO.N,GND*%
X103680000Y-57220000D03*
%TO.P,J2,3,Pin_3*%
%TO.N,/PORTB2*%
X108720000Y-59760000D03*
%TO.P,J2,4,Pin_4*%
%TO.N,GND*%
X103680000Y-59760000D03*
%TO.P,J2,5,Pin_5*%
%TO.N,/PIN5*%
X108720000Y-62300000D03*
%TO.P,J2,6,Pin_6*%
%TO.N,GND*%
X103680000Y-62300000D03*
%TO.P,J2,7,Pin_7*%
%TO.N,/PIN7*%
X108720000Y-64840000D03*
%TO.P,J2,8,Pin_8*%
%TO.N,/PIN8*%
X103680000Y-64840000D03*
%TO.P,J2,9,Pin_9*%
%TO.N,/PORTB1*%
X108720000Y-67380000D03*
%TO.P,J2,10,Pin_10*%
%TO.N,/PIN10*%
X103680000Y-67380000D03*
%TO.P,J2,11,Pin_11*%
%TO.N,+3V3*%
X108720000Y-69920000D03*
%TO.P,J2,12,Pin_12*%
%TO.N,/PIN12*%
X103680000Y-69920000D03*
%TO.P,J2,13,Pin_13*%
%TO.N,/PIN13*%
X108720000Y-72460000D03*
%TO.P,J2,14,Pin_14*%
%TO.N,/PIN14*%
X103680000Y-72460000D03*
%TO.P,J2,15,Pin_15*%
%TO.N,/TXD2*%
X108720000Y-75000000D03*
%TO.P,J2,16,Pin_16*%
%TO.N,/RXD2*%
X103680000Y-75000000D03*
%TO.P,J2,17,Pin_17*%
%TO.N,/PIN17*%
X108720000Y-77540000D03*
%TO.P,J2,18,Pin_18*%
%TO.N,/PIN18*%
X103680000Y-77540000D03*
%TO.P,J2,19,Pin_19*%
%TO.N,/PWM1_C1*%
X108720000Y-80080000D03*
%TO.P,J2,20,Pin_20*%
%TO.N,/PWM2_C1*%
X103680000Y-80080000D03*
%TO.P,J2,21,Pin_21*%
%TO.N,/PWM1_C2*%
X108720000Y-82620000D03*
%TO.P,J2,22,Pin_22*%
%TO.N,/PWM2_C2*%
X103680000Y-82620000D03*
%TO.P,J2,23,Pin_23*%
%TO.N,/PIN23*%
X108720000Y-85160000D03*
%TO.P,J2,24,Pin_24*%
%TO.N,/PIN24*%
X103680000Y-85160000D03*
%TO.P,J2,25,Pin_25*%
%TO.N,/PIN25*%
X108720000Y-87700000D03*
%TO.P,J2,26,Pin_26*%
%TO.N,/PIN26*%
X103680000Y-87700000D03*
%TO.P,J2,27,Pin_27*%
%TO.N,+5V*%
X108720000Y-90240000D03*
%TO.P,J2,28,Pin_28*%
%TO.N,/PIN28*%
X103680000Y-90240000D03*
%TO.P,J2,29,Pin_29*%
%TO.N,/BAT*%
X108720000Y-92780000D03*
%TO.P,J2,30,Pin_30*%
%TO.N,/PIN30*%
X103680000Y-92780000D03*
%TD*%
D29*
%TO.P,D1,1,K*%
%TO.N,+5V*%
X126500000Y-53250000D03*
%TO.P,D1,2,A*%
%TO.N,Net-(D1-A)*%
X122500000Y-53250000D03*
%TD*%
D30*
%TO.P,Q2,1,B*%
%TO.N,Net-(Q2-B)*%
X114862500Y-67350000D03*
%TO.P,Q2,2,E*%
%TO.N,+3V3*%
X114862500Y-69250000D03*
%TO.P,Q2,3,C*%
%TO.N,Net-(Q2-C)*%
X116737500Y-68300000D03*
%TD*%
D24*
%TO.P,R15,1*%
%TO.N,Net-(U1-B)*%
X130825000Y-68800000D03*
%TO.P,R15,2*%
%TO.N,GND*%
X129175000Y-68800000D03*
%TD*%
D31*
%TO.P,U1,1,RO*%
%TO.N,/RXD2*%
X119800000Y-64695000D03*
%TO.P,U1,2,~{RE}*%
%TO.N,Net-(Q2-C)*%
X119800000Y-65965000D03*
%TO.P,U1,3,DE*%
X119800000Y-67235000D03*
%TO.P,U1,4,DI*%
%TO.N,/TXD2*%
X119800000Y-68505000D03*
%TO.P,U1,5,GND*%
%TO.N,GND*%
X126800000Y-68505000D03*
%TO.P,U1,6,A*%
%TO.N,/TTL*%
X126800000Y-67235000D03*
%TO.P,U1,7,B*%
%TO.N,Net-(U1-B)*%
X126800000Y-65965000D03*
%TO.P,U1,8,VCC*%
%TO.N,+3V3*%
X126800000Y-64695000D03*
%TD*%
D32*
%TO.P,R2,1*%
%TO.N,/TXD2*%
X117000000Y-72425000D03*
%TO.P,R2,2*%
%TO.N,Net-(Q2-B)*%
X117000000Y-70775000D03*
%TD*%
D24*
%TO.P,R6,1*%
%TO.N,+3V3*%
X130825000Y-67140000D03*
%TO.P,R6,2*%
%TO.N,/TTL*%
X129175000Y-67140000D03*
%TD*%
D33*
%TO.P,R1,1*%
%TO.N,+3V3*%
X115450000Y-70775000D03*
%TO.P,R1,2*%
%TO.N,/TXD2*%
X115450000Y-72425000D03*
%TD*%
D34*
%TO.P,D2,1,K*%
%TO.N,Net-(D2-K)*%
X136830000Y-65624000D03*
%TO.P,D2,2,A*%
%TO.N,+5V*%
X136830000Y-61224000D03*
%TD*%
D35*
%TO.N,GND*%
X108000000Y-51500000D03*
X101500000Y-95000000D03*
X138600000Y-76200000D03*
X142000000Y-51500000D03*
X148500000Y-94500000D03*
X112600000Y-62650000D03*
X127900000Y-69700000D03*
X141400000Y-84200000D03*
X143700000Y-63400000D03*
X116250000Y-76800000D03*
X140500000Y-51000000D03*
X113900000Y-73400000D03*
X149000000Y-63000000D03*
X101000000Y-81450000D03*
X109000000Y-94600000D03*
X130950000Y-62400000D03*
X106200000Y-93300000D03*
X101000000Y-76000000D03*
X126000000Y-94850000D03*
X137000000Y-81000000D03*
X116000000Y-99000000D03*
X117800000Y-63700000D03*
X101000000Y-86538000D03*
X149000000Y-74000000D03*
X123000000Y-61550000D03*
X130980000Y-96530000D03*
X139400000Y-80963000D03*
X128000000Y-74750000D03*
X108000000Y-98500000D03*
X149000000Y-68000000D03*
X129000000Y-51000000D03*
X131800000Y-92000000D03*
X101000000Y-71000000D03*
X138200000Y-71400000D03*
X132400000Y-57650000D03*
X126000000Y-99000000D03*
X146400000Y-87100000D03*
X137000000Y-75000000D03*
X101000000Y-61000000D03*
X131000000Y-99000000D03*
X113550000Y-70550000D03*
X124000000Y-51000000D03*
X149000000Y-79000000D03*
X101500000Y-55000000D03*
X121000000Y-94850000D03*
X130350000Y-78000000D03*
X148500000Y-55500000D03*
X136600000Y-59300000D03*
X149000000Y-89000000D03*
X136800000Y-77600000D03*
X126600000Y-88000000D03*
X119000000Y-51000000D03*
X134000000Y-51000000D03*
X111000000Y-99000000D03*
X107600000Y-88976400D03*
X136000000Y-99000000D03*
X116000000Y-94850000D03*
X121000000Y-99000000D03*
X134600000Y-83900000D03*
X119400000Y-88200000D03*
X141000000Y-77800000D03*
X119400000Y-69600000D03*
X129100000Y-54900000D03*
X130200000Y-84600000D03*
X137795200Y-93065800D03*
X119200000Y-77700000D03*
X142000000Y-98500000D03*
X123050000Y-58650000D03*
X106200000Y-76100000D03*
X111000000Y-94830000D03*
X126800000Y-63700000D03*
X106150000Y-81400000D03*
X107700000Y-91500000D03*
X134600000Y-87600000D03*
X101000000Y-66000000D03*
X106250000Y-87550000D03*
X149000000Y-84000000D03*
X113900000Y-58600000D03*
X114000000Y-51000000D03*
%TO.N,+5V*%
X111300000Y-90600000D03*
X111300000Y-89800000D03*
%TO.N,/PORTB2*%
X111000000Y-59400000D03*
%TO.N,/PIN30*%
X101016000Y-91364000D03*
%TO.N,/BAT*%
X110700000Y-92300000D03*
X110700000Y-93300000D03*
%TO.N,/PIN28*%
X101016000Y-90385503D03*
%TO.N,/PORTB1*%
X111220000Y-67380000D03*
%TO.N,/PIN26*%
X101016000Y-89586000D03*
%TO.N,+3V3*%
X111200000Y-69900000D03*
%TO.N,/PIN25*%
X111410000Y-87740000D03*
%TO.N,/PIN24*%
X101016000Y-85014000D03*
%TO.N,/PIN23*%
X111430000Y-85268000D03*
%TO.N,/TXD2*%
X110930000Y-75010000D03*
%TO.N,/RXD2*%
X118100480Y-65499520D03*
X105800000Y-75000000D03*
%TO.N,/PIN18*%
X101100000Y-77500000D03*
%TO.N,/PIN17*%
X111000000Y-77500000D03*
%TO.N,/PIN14*%
X101016000Y-72568000D03*
%TO.N,/PIN13*%
X110809600Y-72201600D03*
%TO.N,/PIN12*%
X101016000Y-69774000D03*
%TO.N,/PIN10*%
X101016000Y-67488000D03*
%TO.N,/PIN8*%
X101016000Y-64948000D03*
%TO.N,/PIN7*%
X111000000Y-64800000D03*
%TO.N,Net-(J3-Pin_3)*%
X131000000Y-75500000D03*
X117550000Y-76500000D03*
%TO.N,/PWM2_C2*%
X106150000Y-82700000D03*
%TO.N,/PWM1_C2*%
X111500000Y-82500000D03*
%TO.N,/PWM2_C1*%
X106150000Y-80150000D03*
%TO.N,/PWM1_C1*%
X111600000Y-80100000D03*
%TO.N,Net-(J8-Pin_3)*%
X118500000Y-76534015D03*
X129100000Y-76534015D03*
%TO.N,/PIN5*%
X111000000Y-62200000D03*
%TO.N,/PIN1*%
X111200000Y-57200000D03*
%TO.N,Net-(Q1-G)*%
X137380000Y-95490000D03*
%TD*%
D36*
%TO.N,GND*%
X126800000Y-68505000D02*
X128880000Y-68505000D01*
X128880000Y-68505000D02*
X129175000Y-68800000D01*
D37*
%TO.N,+5V*%
X126500000Y-53250000D02*
X126825000Y-52925000D01*
X134600000Y-63400000D02*
X134600000Y-55000000D01*
X108720000Y-90240000D02*
X129360000Y-90240000D01*
X126825000Y-52925000D02*
X133345584Y-52925000D01*
X132600000Y-87000000D02*
X132600000Y-66650000D01*
X136830000Y-61224000D02*
X135776000Y-61224000D01*
X134600000Y-64650000D02*
X134600000Y-63400000D01*
X134600000Y-62400000D02*
X134600000Y-63400000D01*
X129360000Y-90240000D02*
X132600000Y-87000000D01*
X132600000Y-66650000D02*
X134600000Y-64650000D01*
X133345584Y-52925000D02*
X134600000Y-54179416D01*
X134600000Y-54179416D02*
X134600000Y-55000000D01*
X135776000Y-61224000D02*
X134600000Y-62400000D01*
%TO.N,Net-(D1-A)*%
X118000000Y-54525000D02*
X118000000Y-54000000D01*
X118750000Y-53250000D02*
X122500000Y-53250000D01*
X118000000Y-54000000D02*
X118750000Y-53250000D01*
D36*
%TO.N,/PORTB2*%
X111000000Y-59400000D02*
X110640000Y-59760000D01*
X110640000Y-59760000D02*
X108720000Y-59760000D01*
X130209520Y-57290480D02*
X130600000Y-56900000D01*
X130600000Y-56900000D02*
X130600000Y-55000000D01*
X111000000Y-59400000D02*
X113109520Y-57290480D01*
X113109520Y-57290480D02*
X130209520Y-57290480D01*
%TO.N,/PIN30*%
X101016000Y-91364000D02*
X102432000Y-92780000D01*
X102432000Y-92780000D02*
X103680000Y-92780000D01*
D37*
%TO.N,/BAT*%
X108720000Y-92780000D02*
X129580000Y-92780000D01*
X129580000Y-92780000D02*
X131800000Y-95000000D01*
D36*
%TO.N,/PIN28*%
X101161503Y-90240000D02*
X103680000Y-90240000D01*
X101016000Y-90385503D02*
X101161503Y-90240000D01*
%TO.N,/PORTB1*%
X132600000Y-55900000D02*
X132600000Y-55000000D01*
X111220000Y-67380000D02*
X108720000Y-67380000D01*
X111600000Y-59500000D02*
X113410000Y-57690000D01*
X111220000Y-67380000D02*
X111600000Y-67000000D01*
X111600000Y-67000000D02*
X111600000Y-59500000D01*
X113410000Y-57690000D02*
X130810000Y-57690000D01*
X130810000Y-57690000D02*
X132600000Y-55900000D01*
%TO.N,/PIN26*%
X101016000Y-89586000D02*
X102902000Y-87700000D01*
X102902000Y-87700000D02*
X103680000Y-87700000D01*
D38*
%TO.N,+3V3*%
X129225000Y-64000000D02*
X129225000Y-64010000D01*
X129225000Y-64010000D02*
X130815000Y-65600000D01*
X128295000Y-62795000D02*
X129225000Y-63725000D01*
X130815000Y-67130000D02*
X130825000Y-67140000D01*
X113300000Y-68352150D02*
X113300000Y-64310730D01*
X111752150Y-69900000D02*
X112376075Y-69276075D01*
X129225000Y-63725000D02*
X129225000Y-64000000D01*
X114815730Y-62795000D02*
X115705000Y-62795000D01*
X127405000Y-64695000D02*
X128100000Y-64000000D01*
X114836425Y-69276075D02*
X114862500Y-69250000D01*
X114862500Y-69250000D02*
X114862500Y-70187500D01*
X114862500Y-70187500D02*
X115450000Y-70775000D01*
X130815000Y-65600000D02*
X130815000Y-67130000D01*
X128100000Y-64000000D02*
X129225000Y-64000000D01*
X115705000Y-62795000D02*
X128295000Y-62795000D01*
X111200000Y-69900000D02*
X111752150Y-69900000D01*
X112376075Y-69276075D02*
X114836425Y-69276075D01*
X126800000Y-64695000D02*
X127405000Y-64695000D01*
X113300000Y-64310730D02*
X114815730Y-62795000D01*
D39*
X108720000Y-69920000D02*
X111180000Y-69920000D01*
X111180000Y-69920000D02*
X111200000Y-69900000D01*
D38*
X112376075Y-69276075D02*
X113300000Y-68352150D01*
D36*
%TO.N,/PIN25*%
X111370000Y-87700000D02*
X111410000Y-87740000D01*
X108720000Y-87700000D02*
X111370000Y-87700000D01*
%TO.N,/PIN24*%
X101162000Y-85160000D02*
X101016000Y-85014000D01*
X103680000Y-85160000D02*
X101162000Y-85160000D01*
%TO.N,/PIN23*%
X108720000Y-85160000D02*
X111322000Y-85160000D01*
X111322000Y-85160000D02*
X111430000Y-85268000D01*
%TO.N,/TXD2*%
X118500000Y-68900000D02*
X118895000Y-68505000D01*
X118500000Y-71650000D02*
X118500000Y-68900000D01*
X110930000Y-75010000D02*
X113515000Y-72425000D01*
X117000000Y-72425000D02*
X117725000Y-72425000D01*
X110930000Y-75010000D02*
X110920000Y-75000000D01*
X115450000Y-72425000D02*
X117000000Y-72425000D01*
X110920000Y-75000000D02*
X108720000Y-75000000D01*
X117725000Y-72425000D02*
X118500000Y-71650000D01*
X118895000Y-68505000D02*
X119800000Y-68505000D01*
X113515000Y-72425000D02*
X115450000Y-72425000D01*
%TO.N,/RXD2*%
X118905000Y-64695000D02*
X118100480Y-65499520D01*
X105800000Y-75000000D02*
X103680000Y-75000000D01*
X119800000Y-64695000D02*
X118905000Y-64695000D01*
D40*
%TO.N,/PIN18*%
X101140000Y-77540000D02*
X103680000Y-77540000D01*
X101100000Y-77500000D02*
X101140000Y-77540000D01*
%TO.N,/PIN17*%
X110960000Y-77540000D02*
X111000000Y-77500000D01*
X108720000Y-77540000D02*
X110960000Y-77540000D01*
%TO.N,/PIN14*%
X103680000Y-72460000D02*
X101124000Y-72460000D01*
X101124000Y-72460000D02*
X101016000Y-72568000D01*
D36*
%TO.N,/PIN13*%
X108720000Y-72460000D02*
X110551200Y-72460000D01*
X110551200Y-72460000D02*
X110809600Y-72201600D01*
%TO.N,/PIN12*%
X103680000Y-69920000D02*
X101162000Y-69920000D01*
X101162000Y-69920000D02*
X101016000Y-69774000D01*
%TO.N,/PIN10*%
X103680000Y-67380000D02*
X101124000Y-67380000D01*
X101124000Y-67380000D02*
X101016000Y-67488000D01*
%TO.N,/PIN8*%
X103680000Y-64840000D02*
X101124000Y-64840000D01*
X101124000Y-64840000D02*
X101016000Y-64948000D01*
D40*
%TO.N,/PIN7*%
X110960000Y-64840000D02*
X111000000Y-64800000D01*
X108720000Y-64840000D02*
X110960000Y-64840000D01*
D36*
%TO.N,Net-(J3-Pin_3)*%
X117550000Y-76500000D02*
X117499520Y-76550480D01*
X117499520Y-76550480D02*
X117499520Y-80575480D01*
X117499520Y-80575480D02*
X116575000Y-81500000D01*
X130912500Y-75412500D02*
X130912500Y-72300000D01*
X131000000Y-75500000D02*
X130912500Y-75412500D01*
D37*
%TO.N,Net-(J5-Pin_1)*%
X136585548Y-91400000D02*
X142050000Y-91400000D01*
D36*
X135633574Y-92351974D02*
X135636200Y-92354600D01*
D41*
X142050000Y-91400000D02*
X142100000Y-91350000D01*
D42*
X133800000Y-94050000D02*
X133950000Y-94050000D01*
D37*
X133950000Y-94050000D02*
X135602500Y-94050000D01*
X135633574Y-92366426D02*
X133950000Y-94050000D01*
X135602500Y-94050000D02*
X135636200Y-94083700D01*
X135633574Y-92351974D02*
X135633574Y-92366426D01*
X135633574Y-92351974D02*
X136585548Y-91400000D01*
D36*
X135636200Y-92354600D02*
X135636200Y-94121200D01*
%TO.N,/PWM1*%
X115611342Y-84170000D02*
X114510540Y-84170000D01*
X115325082Y-80600720D02*
X115625720Y-80300082D01*
X114825000Y-81100720D02*
X115325000Y-80600720D01*
X115625720Y-79199280D02*
X116575000Y-78250000D01*
X113800000Y-82525000D02*
X114825000Y-81500000D01*
X113800000Y-83459460D02*
X113800000Y-82525000D01*
X115625720Y-80300082D02*
X115625720Y-79199280D01*
X116591342Y-85150000D02*
X115611342Y-84170000D01*
X114510540Y-84170000D02*
X113800000Y-83459460D01*
X114825000Y-81500000D02*
X114825000Y-81100720D01*
X115325000Y-80600720D02*
X115325082Y-80600720D01*
X116625000Y-85150000D02*
X116591342Y-85150000D01*
%TO.N,/PWM2*%
X117449520Y-84690060D02*
X117449520Y-85609940D01*
X114787500Y-83200000D02*
X115230672Y-83643172D01*
X117134940Y-84375480D02*
X117449520Y-84690060D01*
X117449520Y-85609940D02*
X117425720Y-85633740D01*
X116540540Y-80325000D02*
X116575000Y-80325000D01*
X115825480Y-82162020D02*
X115825480Y-81040060D01*
X116381828Y-84375480D02*
X117134940Y-84375480D01*
X114787500Y-83200000D02*
X115825480Y-82162020D01*
X115649520Y-83643172D02*
X116381828Y-84375480D01*
X117425720Y-85949280D02*
X116625000Y-86750000D01*
X117425720Y-85633740D02*
X117425720Y-85949280D01*
X115230672Y-83643172D02*
X115649520Y-83643172D01*
X115825480Y-81040060D02*
X116540540Y-80325000D01*
%TO.N,/PWM2_C2*%
X106950000Y-83500000D02*
X106150000Y-82700000D01*
X106070000Y-82620000D02*
X103680000Y-82620000D01*
X114875000Y-86750000D02*
X114875000Y-86475000D01*
X114875000Y-86475000D02*
X111900000Y-83500000D01*
X106150000Y-82700000D02*
X106070000Y-82620000D01*
X111900000Y-83500000D02*
X106950000Y-83500000D01*
%TO.N,/PWM1_C2*%
X111500000Y-82500000D02*
X112225000Y-82500000D01*
D40*
X111380000Y-82620000D02*
X108720000Y-82620000D01*
D36*
X112225000Y-82500000D02*
X114875000Y-85150000D01*
D40*
X111500000Y-82500000D02*
X111380000Y-82620000D01*
D36*
%TO.N,/PWM2_C1*%
X107500000Y-81500000D02*
X113175000Y-81500000D01*
X106080000Y-80080000D02*
X103680000Y-80080000D01*
X113175000Y-81500000D02*
X114825000Y-79850000D01*
X106150000Y-80150000D02*
X106080000Y-80080000D01*
X106150000Y-80150000D02*
X107500000Y-81500000D01*
%TO.N,/PWM1_C1*%
X112975000Y-80100000D02*
X114825000Y-78250000D01*
X111580000Y-80080000D02*
X108720000Y-80080000D01*
X111600000Y-80100000D02*
X112975000Y-80100000D01*
X111600000Y-80100000D02*
X111580000Y-80080000D01*
%TO.N,Net-(J8-Pin_3)*%
X129100000Y-73984015D02*
X129087500Y-73971515D01*
X118500000Y-76534015D02*
X117899040Y-77134975D01*
X129087500Y-73971515D02*
X129087500Y-70800000D01*
X129100000Y-76534015D02*
X129100000Y-73984015D01*
X117899040Y-77134975D02*
X117899040Y-81875960D01*
X117899040Y-81875960D02*
X116575000Y-83200000D01*
D40*
%TO.N,/PIN5*%
X111000000Y-62200000D02*
X110900000Y-62300000D01*
X110900000Y-62300000D02*
X108720000Y-62300000D01*
D36*
%TO.N,/PIN1*%
X111180000Y-57220000D02*
X111200000Y-57200000D01*
X108720000Y-57220000D02*
X111180000Y-57220000D01*
%TO.N,Net-(Q1-G)*%
X135636200Y-95871200D02*
X133878800Y-95871200D01*
X136961300Y-95908700D02*
X137380000Y-95490000D01*
X135636200Y-95908700D02*
X136961300Y-95908700D01*
X133878800Y-95871200D02*
X133800000Y-95950000D01*
%TO.N,Net-(Q2-B)*%
X117000000Y-69935717D02*
X117000000Y-70775000D01*
X114862500Y-67350000D02*
X114862500Y-67798217D01*
X114862500Y-67798217D02*
X117000000Y-69935717D01*
%TO.N,/TTL*%
X129175000Y-67236433D02*
X129175000Y-67140000D01*
X126800000Y-67235000D02*
X129080000Y-67235000D01*
X129080000Y-67235000D02*
X129175000Y-67140000D01*
X129874520Y-67935953D02*
X129175000Y-67236433D01*
X130912500Y-70400000D02*
X129874520Y-69362020D01*
X129874520Y-69362020D02*
X129874520Y-67935953D01*
%TO.N,Net-(Q2-C)*%
X119800000Y-67235000D02*
X119800000Y-65965000D01*
X117424031Y-66099031D02*
X119665969Y-66099031D01*
X117075000Y-65750000D02*
X117075000Y-67962500D01*
X117075000Y-67962500D02*
X116737500Y-68300000D01*
X119665969Y-66099031D02*
X119800000Y-65965000D01*
X117075000Y-65750000D02*
X117424031Y-66099031D01*
%TO.N,Net-(U1-B)*%
X126800000Y-65965000D02*
X126865000Y-65900000D01*
X128865000Y-65900000D02*
X129165000Y-65600000D01*
X130400000Y-68375000D02*
X130825000Y-68800000D01*
X126865000Y-65900000D02*
X128865000Y-65900000D01*
X130400000Y-67896427D02*
X130400000Y-68375000D01*
X130100000Y-67596427D02*
X130400000Y-67896427D01*
X129165000Y-65600000D02*
X130100000Y-66535000D01*
X130100000Y-66535000D02*
X130100000Y-67596427D01*
D37*
%TO.N,Net-(D2-K)*%
X139462500Y-82500000D02*
X139500000Y-82462500D01*
X136830000Y-65624000D02*
X135000000Y-67454000D01*
X136200000Y-73000000D02*
X136262500Y-73062500D01*
X136100000Y-82500000D02*
X139462500Y-82500000D01*
X140400000Y-82462500D02*
X142362500Y-82462500D01*
X136262500Y-73062500D02*
X141537500Y-73062500D01*
X142362500Y-82462500D02*
X143300000Y-83400000D01*
X143300000Y-83400000D02*
X144700000Y-83400000D01*
X135000000Y-81400000D02*
X136100000Y-82500000D01*
X141537500Y-73062500D02*
X142200000Y-72400000D01*
X138000000Y-82462500D02*
X140400000Y-82462500D01*
X142200000Y-72400000D02*
X144700000Y-72400000D01*
X135000000Y-67454000D02*
X135000000Y-81400000D01*
%TD*%
%TA.AperFunction,Conductor*%
%TO.N,GND*%
G36*
X139916621Y-50045502D02*
G01*
X139963114Y-50099158D01*
X139974500Y-50151500D01*
X139974500Y-50469867D01*
X139972398Y-50480435D01*
X139972399Y-50500000D01*
X139974500Y-50505073D01*
X139980482Y-50519517D01*
X140000000Y-50527601D01*
X140019575Y-50527601D01*
X140030137Y-50525500D01*
X146991715Y-50525500D01*
X146998097Y-50525500D01*
X147001900Y-50525614D01*
X147294470Y-50543312D01*
X147302012Y-50544228D01*
X147588449Y-50596719D01*
X147595822Y-50598536D01*
X147873837Y-50685169D01*
X147880941Y-50687864D01*
X148146479Y-50807373D01*
X148153216Y-50810910D01*
X148402411Y-50961552D01*
X148408671Y-50965872D01*
X148637899Y-51145461D01*
X148643589Y-51150502D01*
X148849496Y-51356409D01*
X148854538Y-51362100D01*
X149033036Y-51589936D01*
X149034121Y-51591320D01*
X149038447Y-51597588D01*
X149189089Y-51846783D01*
X149192628Y-51853525D01*
X149226307Y-51928357D01*
X149308637Y-52111286D01*
X149312131Y-52119048D01*
X149314831Y-52126167D01*
X149401461Y-52404172D01*
X149403283Y-52411562D01*
X149421079Y-52508672D01*
X149455770Y-52697980D01*
X149456688Y-52705539D01*
X149472171Y-52961505D01*
X149474385Y-52998097D01*
X149474500Y-53001902D01*
X149474500Y-59969867D01*
X149472398Y-59980435D01*
X149472399Y-60000000D01*
X149474500Y-60005073D01*
X149480482Y-60019517D01*
X149500000Y-60027601D01*
X149519575Y-60027601D01*
X149530137Y-60025500D01*
X149848500Y-60025500D01*
X149916621Y-60045502D01*
X149963114Y-60099158D01*
X149974500Y-60151500D01*
X149974500Y-89848500D01*
X149954498Y-89916621D01*
X149900842Y-89963114D01*
X149848500Y-89974500D01*
X149530136Y-89974500D01*
X149519574Y-89972399D01*
X149499999Y-89972399D01*
X149494927Y-89974500D01*
X149480482Y-89980482D01*
X149472399Y-89999999D01*
X149472399Y-90019575D01*
X149474500Y-90030136D01*
X149474500Y-96998097D01*
X149474385Y-97001902D01*
X149456688Y-97294460D01*
X149455770Y-97302019D01*
X149403284Y-97588433D01*
X149401461Y-97595827D01*
X149314831Y-97873832D01*
X149312131Y-97880951D01*
X149192628Y-98146474D01*
X149189089Y-98153216D01*
X149038447Y-98402411D01*
X149034121Y-98408679D01*
X148854538Y-98637899D01*
X148849489Y-98643598D01*
X148643598Y-98849489D01*
X148637899Y-98854538D01*
X148408679Y-99034121D01*
X148402411Y-99038447D01*
X148153216Y-99189089D01*
X148146474Y-99192628D01*
X147880951Y-99312131D01*
X147873832Y-99314831D01*
X147595827Y-99401461D01*
X147588433Y-99403284D01*
X147302019Y-99455770D01*
X147294460Y-99456688D01*
X147039453Y-99472113D01*
X147001900Y-99474385D01*
X146998097Y-99474500D01*
X140030136Y-99474500D01*
X140019574Y-99472399D01*
X139999999Y-99472399D01*
X139994927Y-99474500D01*
X139980482Y-99480482D01*
X139972399Y-99499999D01*
X139972399Y-99519575D01*
X139974500Y-99530136D01*
X139974500Y-99848500D01*
X139954498Y-99916621D01*
X139900842Y-99963114D01*
X139848500Y-99974500D01*
X110151500Y-99974500D01*
X110083379Y-99954498D01*
X110036886Y-99900842D01*
X110025500Y-99848500D01*
X110025500Y-99530130D01*
X110027601Y-99519576D01*
X110027601Y-99499999D01*
X110019517Y-99480482D01*
X110005073Y-99474500D01*
X110000001Y-99472399D01*
X109980426Y-99472399D01*
X109969864Y-99474500D01*
X103001903Y-99474500D01*
X102998099Y-99474385D01*
X102953724Y-99471700D01*
X102705539Y-99456688D01*
X102697980Y-99455770D01*
X102515862Y-99422396D01*
X102411562Y-99403283D01*
X102404172Y-99401461D01*
X102126167Y-99314831D01*
X102119048Y-99312131D01*
X101853525Y-99192628D01*
X101846783Y-99189089D01*
X101597588Y-99038447D01*
X101591325Y-99034124D01*
X101362100Y-98854538D01*
X101356409Y-98849496D01*
X101150502Y-98643589D01*
X101145461Y-98637899D01*
X101116161Y-98600500D01*
X100965872Y-98408671D01*
X100961552Y-98402411D01*
X100810910Y-98153216D01*
X100807371Y-98146474D01*
X100687864Y-97880941D01*
X100685168Y-97873832D01*
X100598533Y-97595811D01*
X100596719Y-97588449D01*
X100562064Y-97399339D01*
X100560000Y-97376628D01*
X100560000Y-96981182D01*
X101399500Y-96981182D01*
X101405131Y-97018538D01*
X101438604Y-97240619D01*
X101515933Y-97491314D01*
X101515938Y-97491327D01*
X101629773Y-97727706D01*
X101629777Y-97727713D01*
X101777562Y-97944472D01*
X101777567Y-97944479D01*
X101956019Y-98136805D01*
X102161143Y-98300386D01*
X102161146Y-98300388D01*
X102388352Y-98431566D01*
X102388356Y-98431567D01*
X102388357Y-98431568D01*
X102632584Y-98527420D01*
X102888370Y-98585802D01*
X103040409Y-98597195D01*
X103084503Y-98600500D01*
X103084506Y-98600500D01*
X103215497Y-98600500D01*
X103256516Y-98597425D01*
X103411630Y-98585802D01*
X103667416Y-98527420D01*
X103911643Y-98431568D01*
X103911645Y-98431566D01*
X103911647Y-98431566D01*
X104124067Y-98308925D01*
X104138857Y-98300386D01*
X104343981Y-98136805D01*
X104522433Y-97944479D01*
X104670228Y-97727704D01*
X104784063Y-97491323D01*
X104784066Y-97491314D01*
X104861395Y-97240619D01*
X104861792Y-97237986D01*
X104900500Y-96981182D01*
X104900500Y-96906330D01*
X106045710Y-96906330D01*
X106058656Y-97001902D01*
X106075925Y-97129390D01*
X106145484Y-97343467D01*
X106252144Y-97541675D01*
X106252148Y-97541682D01*
X106292425Y-97592187D01*
X106392492Y-97717666D01*
X106562004Y-97865765D01*
X106755236Y-97981215D01*
X106965976Y-98060307D01*
X106965978Y-98060307D01*
X106965980Y-98060308D01*
X107099229Y-98084489D01*
X107187453Y-98100500D01*
X107187454Y-98100500D01*
X107356149Y-98100500D01*
X107356155Y-98100500D01*
X107513759Y-98086315D01*
X107524189Y-98085377D01*
X107524189Y-98085376D01*
X107699507Y-98036991D01*
X107741167Y-98025494D01*
X107741167Y-98025493D01*
X107741170Y-98025493D01*
X107943973Y-97927829D01*
X108126078Y-97795522D01*
X108281632Y-97632825D01*
X108405635Y-97444968D01*
X108494103Y-97237988D01*
X108544191Y-97018537D01*
X108549230Y-96906330D01*
X141445710Y-96906330D01*
X141458656Y-97001902D01*
X141475925Y-97129390D01*
X141545484Y-97343467D01*
X141652144Y-97541675D01*
X141652148Y-97541682D01*
X141692425Y-97592187D01*
X141792492Y-97717666D01*
X141962004Y-97865765D01*
X142155236Y-97981215D01*
X142365976Y-98060307D01*
X142365978Y-98060307D01*
X142365980Y-98060308D01*
X142499229Y-98084489D01*
X142587453Y-98100500D01*
X142587454Y-98100500D01*
X142756149Y-98100500D01*
X142756155Y-98100500D01*
X142913759Y-98086315D01*
X142924189Y-98085377D01*
X142924189Y-98085376D01*
X143099507Y-98036991D01*
X143141167Y-98025494D01*
X143141167Y-98025493D01*
X143141170Y-98025493D01*
X143343973Y-97927829D01*
X143526078Y-97795522D01*
X143681632Y-97632825D01*
X143805635Y-97444968D01*
X143894103Y-97237988D01*
X143944191Y-97018537D01*
X143945869Y-96981182D01*
X145099500Y-96981182D01*
X145105131Y-97018538D01*
X145138604Y-97240619D01*
X145215933Y-97491314D01*
X145215938Y-97491327D01*
X145329773Y-97727706D01*
X145329777Y-97727713D01*
X145477562Y-97944472D01*
X145477567Y-97944479D01*
X145656019Y-98136805D01*
X145861143Y-98300386D01*
X145861146Y-98300388D01*
X146088352Y-98431566D01*
X146088356Y-98431567D01*
X146088357Y-98431568D01*
X146332584Y-98527420D01*
X146588370Y-98585802D01*
X146740408Y-98597195D01*
X146784503Y-98600500D01*
X146784506Y-98600500D01*
X146915497Y-98600500D01*
X146956516Y-98597425D01*
X147111630Y-98585802D01*
X147367416Y-98527420D01*
X147611643Y-98431568D01*
X147611645Y-98431566D01*
X147611647Y-98431566D01*
X147824067Y-98308925D01*
X147838857Y-98300386D01*
X148043981Y-98136805D01*
X148222433Y-97944479D01*
X148370228Y-97727704D01*
X148484063Y-97491323D01*
X148484066Y-97491314D01*
X148561395Y-97240619D01*
X148561792Y-97237986D01*
X148600500Y-96981182D01*
X148600500Y-96718818D01*
X148561396Y-96459385D01*
X148561395Y-96459383D01*
X148561395Y-96459380D01*
X148484066Y-96208685D01*
X148484061Y-96208672D01*
X148392083Y-96017679D01*
X148370228Y-95972296D01*
X148370226Y-95972293D01*
X148370222Y-95972286D01*
X148222437Y-95755527D01*
X148222433Y-95755521D01*
X148043981Y-95563195D01*
X147838857Y-95399614D01*
X147838852Y-95399611D01*
X147838853Y-95399611D01*
X147611647Y-95268433D01*
X147611639Y-95268430D01*
X147367419Y-95172581D01*
X147367417Y-95172580D01*
X147111632Y-95114198D01*
X146915497Y-95099500D01*
X146915494Y-95099500D01*
X146784506Y-95099500D01*
X146784503Y-95099500D01*
X146588367Y-95114198D01*
X146332582Y-95172580D01*
X146332580Y-95172581D01*
X146088360Y-95268430D01*
X146088352Y-95268433D01*
X145861146Y-95399611D01*
X145656018Y-95563195D01*
X145477566Y-95755522D01*
X145477562Y-95755527D01*
X145329777Y-95972286D01*
X145329773Y-95972293D01*
X145215938Y-96208672D01*
X145215933Y-96208685D01*
X145138604Y-96459380D01*
X145123968Y-96556485D01*
X145099500Y-96718818D01*
X145099500Y-96981182D01*
X143945869Y-96981182D01*
X143954290Y-96793670D01*
X143924075Y-96570613D01*
X143854517Y-96356536D01*
X143847797Y-96344048D01*
X143747855Y-96158324D01*
X143747851Y-96158317D01*
X143607506Y-95982332D01*
X143437998Y-95834237D01*
X143437996Y-95834235D01*
X143244764Y-95718785D01*
X143034024Y-95639693D01*
X143034019Y-95639691D01*
X142844091Y-95605224D01*
X142812547Y-95599500D01*
X142643845Y-95599500D01*
X142612558Y-95602315D01*
X142475810Y-95614622D01*
X142475810Y-95614623D01*
X142258832Y-95674505D01*
X142056031Y-95772168D01*
X142056023Y-95772173D01*
X141873921Y-95904478D01*
X141873920Y-95904479D01*
X141718369Y-96067172D01*
X141594367Y-96255027D01*
X141594363Y-96255035D01*
X141505897Y-96462011D01*
X141505896Y-96462013D01*
X141455809Y-96681461D01*
X141455809Y-96681463D01*
X141450770Y-96793673D01*
X141445710Y-96906330D01*
X108549230Y-96906330D01*
X108554290Y-96793670D01*
X108524075Y-96570613D01*
X108454517Y-96356536D01*
X108447797Y-96344048D01*
X108347855Y-96158324D01*
X108347851Y-96158317D01*
X108207506Y-95982332D01*
X108037998Y-95834237D01*
X108037996Y-95834235D01*
X107844764Y-95718785D01*
X107634024Y-95639693D01*
X107634019Y-95639691D01*
X107444091Y-95605224D01*
X107412547Y-95599500D01*
X107243845Y-95599500D01*
X107212558Y-95602315D01*
X107075810Y-95614622D01*
X107075810Y-95614623D01*
X106858832Y-95674505D01*
X106656031Y-95772168D01*
X106656023Y-95772173D01*
X106473921Y-95904478D01*
X106473920Y-95904479D01*
X106318369Y-96067172D01*
X106194367Y-96255027D01*
X106194363Y-96255035D01*
X106105897Y-96462011D01*
X106105896Y-96462013D01*
X106055809Y-96681461D01*
X106055809Y-96681463D01*
X106050770Y-96793673D01*
X106045710Y-96906330D01*
X104900500Y-96906330D01*
X104900500Y-96718818D01*
X104861396Y-96459385D01*
X104861395Y-96459383D01*
X104861395Y-96459380D01*
X104784066Y-96208685D01*
X104784061Y-96208672D01*
X104692083Y-96017679D01*
X104670228Y-95972296D01*
X104670226Y-95972293D01*
X104670222Y-95972286D01*
X104522437Y-95755527D01*
X104522433Y-95755521D01*
X104343981Y-95563195D01*
X104138857Y-95399614D01*
X104138852Y-95399611D01*
X104138853Y-95399611D01*
X103911647Y-95268433D01*
X103911639Y-95268430D01*
X103667419Y-95172581D01*
X103667417Y-95172580D01*
X103411632Y-95114198D01*
X103215497Y-95099500D01*
X103215494Y-95099500D01*
X103084506Y-95099500D01*
X103084503Y-95099500D01*
X102888367Y-95114198D01*
X102632582Y-95172580D01*
X102632580Y-95172581D01*
X102388360Y-95268430D01*
X102388352Y-95268433D01*
X102161146Y-95399611D01*
X101956018Y-95563195D01*
X101777566Y-95755522D01*
X101777562Y-95755527D01*
X101629777Y-95972286D01*
X101629773Y-95972293D01*
X101515938Y-96208672D01*
X101515933Y-96208685D01*
X101438604Y-96459380D01*
X101423968Y-96556485D01*
X101399500Y-96718818D01*
X101399500Y-96981182D01*
X100560000Y-96981182D01*
X100560000Y-92067752D01*
X100580002Y-91999631D01*
X100633658Y-91953138D01*
X100703932Y-91943034D01*
X100744553Y-91956184D01*
X100783635Y-91976696D01*
X100783636Y-91976696D01*
X100783638Y-91976697D01*
X100860325Y-91995598D01*
X100937015Y-92014500D01*
X100977206Y-92014500D01*
X101045327Y-92034502D01*
X101066301Y-92051405D01*
X101792594Y-92777698D01*
X101826620Y-92840010D01*
X101829499Y-92866793D01*
X101829499Y-93313254D01*
X101829500Y-93313261D01*
X101839427Y-93381394D01*
X101890801Y-93486482D01*
X101890803Y-93486485D01*
X101973514Y-93569196D01*
X101973517Y-93569198D01*
X102078607Y-93620573D01*
X102146740Y-93630500D01*
X102146745Y-93630500D01*
X105213255Y-93630500D01*
X105213260Y-93630500D01*
X105281393Y-93620573D01*
X105386483Y-93569198D01*
X105469198Y-93486483D01*
X105520573Y-93381393D01*
X105530500Y-93313261D01*
X106869500Y-93313261D01*
X106879427Y-93381394D01*
X106930801Y-93486482D01*
X106930803Y-93486485D01*
X107013514Y-93569196D01*
X107013517Y-93569198D01*
X107118607Y-93620573D01*
X107186740Y-93630500D01*
X107608414Y-93630500D01*
X107676535Y-93650502D01*
X107697509Y-93667405D01*
X107848599Y-93818495D01*
X107848603Y-93818498D01*
X107848607Y-93818501D01*
X108042167Y-93954033D01*
X108042166Y-93954033D01*
X108066858Y-93965547D01*
X108256337Y-94053903D01*
X108484592Y-94115063D01*
X108661034Y-94130500D01*
X128968415Y-94130500D01*
X129036536Y-94150502D01*
X129057505Y-94167400D01*
X130886747Y-95996643D01*
X131022426Y-96110491D01*
X131227074Y-96228644D01*
X131227074Y-96228645D01*
X131227080Y-96228648D01*
X131382252Y-96285125D01*
X131449129Y-96309466D01*
X131681847Y-96350500D01*
X131681848Y-96350500D01*
X131918152Y-96350500D01*
X131918153Y-96350500D01*
X132150870Y-96309466D01*
X132272136Y-96265328D01*
X132372919Y-96228648D01*
X132372920Y-96228646D01*
X132372926Y-96228645D01*
X132577573Y-96110491D01*
X132758596Y-95958596D01*
X132776977Y-95936689D01*
X132836085Y-95897362D01*
X132907073Y-95896234D01*
X132967402Y-95933664D01*
X132997917Y-95997768D01*
X132999500Y-96017679D01*
X132999500Y-96383261D01*
X133009427Y-96451394D01*
X133060801Y-96556482D01*
X133060803Y-96556485D01*
X133143514Y-96639196D01*
X133143517Y-96639198D01*
X133248607Y-96690573D01*
X133316740Y-96700500D01*
X133316745Y-96700500D01*
X134283255Y-96700500D01*
X134283260Y-96700500D01*
X134351393Y-96690573D01*
X134456483Y-96639198D01*
X134539198Y-96556483D01*
X134590573Y-96451393D01*
X134592673Y-96436982D01*
X134593759Y-96429532D01*
X134623374Y-96365007D01*
X134683173Y-96326737D01*
X134718442Y-96321700D01*
X134745580Y-96321700D01*
X134813701Y-96341702D01*
X134860194Y-96395358D01*
X134861977Y-96399456D01*
X134885083Y-96455237D01*
X134979333Y-96578067D01*
X135102163Y-96672317D01*
X135102166Y-96672319D01*
X135170203Y-96700500D01*
X135245201Y-96731565D01*
X135360160Y-96746700D01*
X135360167Y-96746700D01*
X135912233Y-96746700D01*
X135912240Y-96746700D01*
X136027199Y-96731565D01*
X136133690Y-96687455D01*
X136170233Y-96672319D01*
X136170233Y-96672318D01*
X136170237Y-96672317D01*
X136293067Y-96578067D01*
X136387317Y-96455237D01*
X136394879Y-96436980D01*
X136439427Y-96381701D01*
X136506790Y-96359280D01*
X136511287Y-96359200D01*
X136932457Y-96359200D01*
X136939511Y-96359595D01*
X136978335Y-96363970D01*
X136978335Y-96363969D01*
X136978336Y-96363970D01*
X136978336Y-96363969D01*
X137003697Y-96359170D01*
X137036778Y-96352912D01*
X137067936Y-96348215D01*
X137095587Y-96344048D01*
X137095595Y-96344043D01*
X137103772Y-96341521D01*
X137111772Y-96338723D01*
X137164373Y-96310922D01*
X137181784Y-96302536D01*
X137217942Y-96285125D01*
X137217946Y-96285121D01*
X137224989Y-96280319D01*
X137231833Y-96275268D01*
X137231838Y-96275266D01*
X137273898Y-96233204D01*
X137317494Y-96192755D01*
X137317497Y-96192749D01*
X137321331Y-96187943D01*
X137379441Y-96147154D01*
X137419844Y-96140500D01*
X137458983Y-96140500D01*
X137458985Y-96140500D01*
X137612365Y-96102696D01*
X137752240Y-96029283D01*
X137870483Y-95924530D01*
X137960220Y-95794523D01*
X138016237Y-95646818D01*
X138016237Y-95646817D01*
X138016238Y-95646815D01*
X138035278Y-95490003D01*
X138035278Y-95489996D01*
X138016238Y-95333184D01*
X137998544Y-95286530D01*
X137960220Y-95185477D01*
X137960216Y-95185472D01*
X137960216Y-95185470D01*
X137870483Y-95055470D01*
X137870481Y-95055468D01*
X137752240Y-94950717D01*
X137612365Y-94877304D01*
X137612361Y-94877302D01*
X137458987Y-94839500D01*
X137458985Y-94839500D01*
X137301015Y-94839500D01*
X137301012Y-94839500D01*
X137147638Y-94877302D01*
X137147634Y-94877304D01*
X137007759Y-94950717D01*
X136947962Y-95003692D01*
X136883709Y-95033891D01*
X136813328Y-95024559D01*
X136759166Y-94978657D01*
X136738418Y-94910760D01*
X136755291Y-94846378D01*
X136864843Y-94656630D01*
X136864848Y-94656619D01*
X136901528Y-94555837D01*
X136945666Y-94434571D01*
X136986700Y-94201853D01*
X136986700Y-93965547D01*
X136945666Y-93732829D01*
X136912188Y-93640848D01*
X136864848Y-93510780D01*
X136864842Y-93510769D01*
X136850820Y-93486483D01*
X136817164Y-93428189D01*
X136746692Y-93306127D01*
X136743535Y-93301619D01*
X136745320Y-93300369D01*
X136720635Y-93243937D01*
X136731865Y-93173834D01*
X136756526Y-93138915D01*
X137108038Y-92787404D01*
X137170351Y-92753379D01*
X137197134Y-92750500D01*
X142108965Y-92750500D01*
X142108966Y-92750500D01*
X142285408Y-92735063D01*
X142513663Y-92673903D01*
X142727829Y-92574035D01*
X142921401Y-92438495D01*
X143088495Y-92271401D01*
X143201028Y-92110687D01*
X143218720Y-92085421D01*
X143221029Y-92082409D01*
X143224536Y-92077841D01*
X143224541Y-92077828D01*
X143228517Y-92070943D01*
X143279895Y-92021945D01*
X143349608Y-92008502D01*
X143415521Y-92034883D01*
X143436685Y-92056045D01*
X143544455Y-92193085D01*
X143544460Y-92193091D01*
X143704374Y-92331656D01*
X143704375Y-92331657D01*
X143887622Y-92437454D01*
X143887631Y-92437458D01*
X144087584Y-92506662D01*
X144087590Y-92506664D01*
X144096000Y-92507873D01*
X144096000Y-91427503D01*
X144169052Y-91484363D01*
X144287424Y-91525000D01*
X144381073Y-91525000D01*
X144473446Y-91509586D01*
X144583514Y-91450019D01*
X144604000Y-91427765D01*
X144604000Y-92503519D01*
X144714038Y-92476824D01*
X144714045Y-92476822D01*
X144906515Y-92388922D01*
X144906519Y-92388920D01*
X145078887Y-92266178D01*
X145078888Y-92266177D01*
X145224909Y-92113035D01*
X145224910Y-92113034D01*
X145339308Y-91935024D01*
X145339311Y-91935019D01*
X145417952Y-91738585D01*
X145417953Y-91738579D01*
X145457999Y-91530805D01*
X145458000Y-91530796D01*
X145458000Y-91404000D01*
X144625878Y-91404000D01*
X144668278Y-91357941D01*
X144718551Y-91243330D01*
X144728886Y-91118605D01*
X144698163Y-90997281D01*
X144631992Y-90896000D01*
X145458000Y-90896000D01*
X145458000Y-90822220D01*
X145457998Y-90822199D01*
X145442927Y-90664366D01*
X145442924Y-90664351D01*
X145383310Y-90461322D01*
X145286349Y-90273245D01*
X145155544Y-90106914D01*
X145155539Y-90106908D01*
X144995625Y-89968343D01*
X144995624Y-89968342D01*
X144812377Y-89862545D01*
X144812368Y-89862541D01*
X144612413Y-89793336D01*
X144612405Y-89793334D01*
X144604000Y-89792124D01*
X144604000Y-90872496D01*
X144530948Y-90815637D01*
X144412576Y-90775000D01*
X144318927Y-90775000D01*
X144226554Y-90790414D01*
X144116486Y-90849981D01*
X144096000Y-90872234D01*
X144096000Y-89796479D01*
X143985961Y-89823175D01*
X143985952Y-89823178D01*
X143793484Y-89911077D01*
X143793480Y-89911079D01*
X143621112Y-90033821D01*
X143621111Y-90033822D01*
X143475091Y-90186963D01*
X143444097Y-90235192D01*
X143390441Y-90281685D01*
X143320167Y-90291789D01*
X143255587Y-90262295D01*
X143230873Y-90228032D01*
X143228663Y-90229309D01*
X143224538Y-90222164D01*
X143224536Y-90222159D01*
X143128282Y-90096718D01*
X143002841Y-90000464D01*
X143001719Y-89999999D01*
X142856760Y-89939955D01*
X142780332Y-89929893D01*
X142739361Y-89924500D01*
X142739358Y-89924500D01*
X141960640Y-89924500D01*
X141960631Y-89924501D01*
X141854978Y-89938410D01*
X141843238Y-89939956D01*
X141697160Y-90000463D01*
X141697152Y-90000468D01*
X141667185Y-90023463D01*
X141600964Y-90049063D01*
X141590482Y-90049500D01*
X136706300Y-90049500D01*
X136706276Y-90049499D01*
X136703702Y-90049499D01*
X136467395Y-90049499D01*
X136467393Y-90049499D01*
X136411800Y-90059300D01*
X136406352Y-90060018D01*
X136350147Y-90064935D01*
X136295630Y-90079542D01*
X136290265Y-90080731D01*
X136234677Y-90090534D01*
X136234676Y-90090534D01*
X136181647Y-90109834D01*
X136176406Y-90111487D01*
X136121887Y-90126096D01*
X136070740Y-90149945D01*
X136065663Y-90152048D01*
X136012621Y-90171355D01*
X135963737Y-90199577D01*
X135958864Y-90202114D01*
X135907715Y-90225966D01*
X135861487Y-90258336D01*
X135856851Y-90261289D01*
X135807974Y-90289509D01*
X135807972Y-90289511D01*
X135764746Y-90325781D01*
X135760386Y-90329126D01*
X135714151Y-90361501D01*
X135714147Y-90361504D01*
X135630600Y-90445051D01*
X135547053Y-90528599D01*
X135547050Y-90528602D01*
X134762176Y-91313476D01*
X134762173Y-91313479D01*
X134717711Y-91357941D01*
X134595080Y-91480571D01*
X134567644Y-91519753D01*
X134553528Y-91536575D01*
X133758448Y-92331656D01*
X133078602Y-93011502D01*
X133078599Y-93011505D01*
X132995052Y-93095051D01*
X132911506Y-93178597D01*
X132879129Y-93224834D01*
X132875783Y-93229195D01*
X132839512Y-93272421D01*
X132839508Y-93272427D01*
X132811289Y-93321302D01*
X132808336Y-93325938D01*
X132775967Y-93372166D01*
X132752115Y-93423314D01*
X132749578Y-93428189D01*
X132721355Y-93477074D01*
X132702048Y-93530115D01*
X132699945Y-93535192D01*
X132676095Y-93586340D01*
X132661490Y-93640848D01*
X132659837Y-93646090D01*
X132646401Y-93683007D01*
X132604307Y-93740179D01*
X132537986Y-93765518D01*
X132468494Y-93750978D01*
X132438904Y-93729009D01*
X131549905Y-92840010D01*
X130620674Y-91910779D01*
X130620655Y-91910758D01*
X130451406Y-91741509D01*
X130451398Y-91741503D01*
X130447222Y-91738579D01*
X130405170Y-91709134D01*
X130400810Y-91705789D01*
X130357574Y-91669509D01*
X130357572Y-91669508D01*
X130357570Y-91669506D01*
X130337758Y-91658068D01*
X130308677Y-91641278D01*
X130304064Y-91638339D01*
X130257829Y-91605965D01*
X130206681Y-91582114D01*
X130201804Y-91579575D01*
X130157861Y-91554204D01*
X130108868Y-91502821D01*
X130095432Y-91433108D01*
X130121819Y-91367197D01*
X130139862Y-91348570D01*
X130180830Y-91314193D01*
X130185146Y-91310881D01*
X130231401Y-91278495D01*
X130398495Y-91111401D01*
X130405668Y-91104228D01*
X130405679Y-91104214D01*
X133464214Y-88045679D01*
X133464228Y-88045668D01*
X133638492Y-87871404D01*
X133638495Y-87871401D01*
X133670884Y-87825143D01*
X133674205Y-87820815D01*
X133710491Y-87777573D01*
X133738718Y-87728680D01*
X133741652Y-87724074D01*
X133774035Y-87677829D01*
X133797891Y-87626667D01*
X133800421Y-87621810D01*
X133822722Y-87583184D01*
X133828645Y-87572926D01*
X133847953Y-87519874D01*
X133850051Y-87514811D01*
X133856437Y-87501117D01*
X133873903Y-87463663D01*
X133888512Y-87409135D01*
X133890161Y-87403909D01*
X133909464Y-87350877D01*
X133909467Y-87350866D01*
X133910864Y-87342940D01*
X133919269Y-87295269D01*
X133920453Y-87289932D01*
X133935063Y-87235408D01*
X133939981Y-87179185D01*
X133940699Y-87173734D01*
X133948886Y-87127304D01*
X133950500Y-87118153D01*
X133950500Y-86881847D01*
X133950500Y-86881846D01*
X133950500Y-82564584D01*
X133970502Y-82496464D01*
X134024158Y-82449971D01*
X134094432Y-82439867D01*
X134159012Y-82469361D01*
X134165594Y-82475489D01*
X135059826Y-83369721D01*
X135059855Y-83369752D01*
X135228598Y-83538495D01*
X135274835Y-83570870D01*
X135279197Y-83574217D01*
X135322427Y-83610491D01*
X135371303Y-83638709D01*
X135375941Y-83641664D01*
X135422171Y-83674035D01*
X135473325Y-83697889D01*
X135478193Y-83700423D01*
X135527074Y-83728645D01*
X135576690Y-83746703D01*
X135580113Y-83747949D01*
X135585188Y-83750051D01*
X135611070Y-83762120D01*
X135636332Y-83773901D01*
X135636333Y-83773901D01*
X135636337Y-83773903D01*
X135687615Y-83787642D01*
X135690843Y-83788507D01*
X135696089Y-83790161D01*
X135718053Y-83798155D01*
X135749129Y-83809466D01*
X135749131Y-83809466D01*
X135749133Y-83809467D01*
X135766545Y-83812536D01*
X135804722Y-83819268D01*
X135810078Y-83820456D01*
X135864584Y-83835061D01*
X135864592Y-83835063D01*
X135919082Y-83839829D01*
X135920811Y-83839981D01*
X135926264Y-83840699D01*
X135961474Y-83846907D01*
X135981847Y-83850500D01*
X135981848Y-83850500D01*
X139580651Y-83850500D01*
X139580653Y-83850500D01*
X139622103Y-83843190D01*
X139636234Y-83840699D01*
X139641685Y-83839981D01*
X139697908Y-83835063D01*
X139752432Y-83820453D01*
X139757769Y-83819269D01*
X139775361Y-83816167D01*
X139782474Y-83814914D01*
X139804350Y-83813000D01*
X140341034Y-83813000D01*
X141750914Y-83813000D01*
X141819035Y-83833002D01*
X141840010Y-83849905D01*
X142261504Y-84271400D01*
X142428596Y-84438492D01*
X142428604Y-84438499D01*
X142445848Y-84450573D01*
X142474833Y-84470868D01*
X142479184Y-84474207D01*
X142522426Y-84510491D01*
X142571311Y-84538714D01*
X142575928Y-84541655D01*
X142622171Y-84574035D01*
X142673312Y-84597882D01*
X142678185Y-84600419D01*
X142727070Y-84628643D01*
X142727071Y-84628643D01*
X142727074Y-84628645D01*
X142773694Y-84645612D01*
X142780111Y-84647948D01*
X142785186Y-84650050D01*
X142836337Y-84673903D01*
X142890871Y-84688514D01*
X142896098Y-84690163D01*
X142905847Y-84693711D01*
X142949129Y-84709465D01*
X143002649Y-84718902D01*
X143004702Y-84719264D01*
X143010070Y-84720454D01*
X143064584Y-84735061D01*
X143064592Y-84735063D01*
X143120837Y-84739982D01*
X143126243Y-84740694D01*
X143181847Y-84750500D01*
X143241034Y-84750500D01*
X143729165Y-84750500D01*
X143797286Y-84770502D01*
X143843779Y-84824158D01*
X143853883Y-84894432D01*
X143824389Y-84959012D01*
X143805097Y-84977050D01*
X143762764Y-85009017D01*
X143612875Y-85173438D01*
X143612874Y-85173439D01*
X143495759Y-85362587D01*
X143495751Y-85362603D01*
X143415383Y-85570053D01*
X143404795Y-85626695D01*
X143374500Y-85788757D01*
X143374500Y-86011243D01*
X143402711Y-86162158D01*
X143415383Y-86229946D01*
X143495751Y-86437396D01*
X143495759Y-86437412D01*
X143612874Y-86626560D01*
X143612875Y-86626561D01*
X143762764Y-86790982D01*
X143940310Y-86925057D01*
X143940315Y-86925061D01*
X144139462Y-87024225D01*
X144139468Y-87024227D01*
X144139472Y-87024229D01*
X144139478Y-87024230D01*
X144139479Y-87024231D01*
X144145840Y-87026041D01*
X144353464Y-87085115D01*
X144519497Y-87100500D01*
X144519504Y-87100500D01*
X144880496Y-87100500D01*
X144880503Y-87100500D01*
X145046536Y-87085115D01*
X145260528Y-87024229D01*
X145260533Y-87024226D01*
X145260537Y-87024225D01*
X145459684Y-86925061D01*
X145459685Y-86925059D01*
X145459689Y-86925058D01*
X145637236Y-86790981D01*
X145787124Y-86626562D01*
X145904247Y-86437401D01*
X145964002Y-86283155D01*
X145984616Y-86229946D01*
X145984616Y-86229944D01*
X145984618Y-86229940D01*
X146025500Y-86011243D01*
X146025500Y-85788757D01*
X145984618Y-85570060D01*
X145984616Y-85570056D01*
X145984616Y-85570053D01*
X145928351Y-85424818D01*
X145904247Y-85362599D01*
X145876956Y-85318523D01*
X145787125Y-85173439D01*
X145787124Y-85173438D01*
X145637235Y-85009017D01*
X145459689Y-84874942D01*
X145459684Y-84874938D01*
X145342031Y-84816354D01*
X145289967Y-84768085D01*
X145272265Y-84699331D01*
X145294545Y-84631921D01*
X145344945Y-84589369D01*
X145377829Y-84574035D01*
X145377832Y-84574033D01*
X145468577Y-84510493D01*
X145571401Y-84438495D01*
X145738495Y-84271401D01*
X145874035Y-84077830D01*
X145973903Y-83863663D01*
X146035063Y-83635408D01*
X146055659Y-83400000D01*
X146035063Y-83164592D01*
X145973903Y-82936337D01*
X145874035Y-82722171D01*
X145874034Y-82722170D01*
X145874033Y-82722167D01*
X145738501Y-82528607D01*
X145738498Y-82528603D01*
X145738495Y-82528599D01*
X145632108Y-82422212D01*
X145598082Y-82359900D01*
X145603147Y-82289085D01*
X145645694Y-82232249D01*
X145681571Y-82213512D01*
X145747524Y-82191657D01*
X145898339Y-82098634D01*
X145898345Y-82098629D01*
X146023629Y-81973345D01*
X146023634Y-81973339D01*
X146116657Y-81822525D01*
X146172393Y-81654321D01*
X146172394Y-81654318D01*
X146182999Y-81550516D01*
X146183000Y-81550516D01*
X146183000Y-81154000D01*
X145101398Y-81154000D01*
X145136519Y-81099351D01*
X145175000Y-80968295D01*
X145175000Y-80831705D01*
X145136519Y-80700649D01*
X145101398Y-80646000D01*
X146183000Y-80646000D01*
X146183000Y-80249483D01*
X146172394Y-80145681D01*
X146172393Y-80145678D01*
X146116657Y-79977474D01*
X146023634Y-79826660D01*
X146023629Y-79826654D01*
X145898345Y-79701370D01*
X145898339Y-79701365D01*
X145747525Y-79608342D01*
X145579321Y-79552606D01*
X145579318Y-79552605D01*
X145475516Y-79542000D01*
X144954000Y-79542000D01*
X144954000Y-80493808D01*
X144835199Y-80439554D01*
X144733975Y-80425000D01*
X144666025Y-80425000D01*
X144564801Y-80439554D01*
X144446000Y-80493808D01*
X144446000Y-79542000D01*
X143924483Y-79542000D01*
X143820681Y-79552605D01*
X143820678Y-79552606D01*
X143652474Y-79608342D01*
X143501660Y-79701365D01*
X143501654Y-79701370D01*
X143376370Y-79826654D01*
X143376365Y-79826660D01*
X143283342Y-79977474D01*
X143227606Y-80145678D01*
X143227605Y-80145681D01*
X143217000Y-80249483D01*
X143217000Y-80646000D01*
X144298602Y-80646000D01*
X144263481Y-80700649D01*
X144225000Y-80831705D01*
X144225000Y-80968295D01*
X144263481Y-81099351D01*
X144298602Y-81154000D01*
X143217000Y-81154000D01*
X143217000Y-81173067D01*
X143196998Y-81241188D01*
X143143342Y-81287681D01*
X143073068Y-81297785D01*
X143037750Y-81287262D01*
X142989181Y-81264614D01*
X142984315Y-81262081D01*
X142935426Y-81233855D01*
X142935425Y-81233854D01*
X142896506Y-81219689D01*
X142882391Y-81214552D01*
X142877315Y-81212450D01*
X142826170Y-81188600D01*
X142826166Y-81188598D01*
X142826163Y-81188597D01*
X142826161Y-81188596D01*
X142826155Y-81188594D01*
X142771640Y-81173987D01*
X142766397Y-81172334D01*
X142713377Y-81153035D01*
X142713371Y-81153034D01*
X142657783Y-81143231D01*
X142652418Y-81142041D01*
X142597916Y-81127438D01*
X142597903Y-81127436D01*
X142541691Y-81122518D01*
X142536242Y-81121800D01*
X142480655Y-81112000D01*
X142480653Y-81112000D01*
X142421466Y-81112000D01*
X140458966Y-81112000D01*
X137941034Y-81112000D01*
X137905745Y-81115087D01*
X137764588Y-81127437D01*
X137698273Y-81145207D01*
X137665662Y-81149500D01*
X136711585Y-81149500D01*
X136643464Y-81129498D01*
X136622490Y-81112595D01*
X136387405Y-80877510D01*
X136353379Y-80815198D01*
X136350500Y-80788415D01*
X136350500Y-80634000D01*
X136370502Y-80565879D01*
X136424158Y-80519386D01*
X136476500Y-80508000D01*
X136846000Y-80508000D01*
X136846000Y-79591500D01*
X137354000Y-79591500D01*
X137354000Y-80508000D01*
X137800517Y-80508000D01*
X137800516Y-80507999D01*
X137904318Y-80497394D01*
X137904321Y-80497393D01*
X138072525Y-80441657D01*
X138229585Y-80344782D01*
X138230528Y-80346311D01*
X138287686Y-80323251D01*
X138357435Y-80336500D01*
X138370388Y-80344824D01*
X138370415Y-80344782D01*
X138527474Y-80441657D01*
X138695678Y-80497393D01*
X138695681Y-80497394D01*
X138799483Y-80507999D01*
X138799483Y-80508000D01*
X139246000Y-80508000D01*
X139246000Y-79591500D01*
X139754000Y-79591500D01*
X139754000Y-80508000D01*
X140200517Y-80508000D01*
X140200516Y-80507999D01*
X140304318Y-80497394D01*
X140304321Y-80497393D01*
X140472525Y-80441657D01*
X140623339Y-80348634D01*
X140623345Y-80348629D01*
X140748629Y-80223345D01*
X140748634Y-80223339D01*
X140841657Y-80072525D01*
X140897393Y-79904321D01*
X140897394Y-79904318D01*
X140907999Y-79800516D01*
X140908000Y-79800516D01*
X140908000Y-79591500D01*
X139754000Y-79591500D01*
X139246000Y-79591500D01*
X137354000Y-79591500D01*
X136846000Y-79591500D01*
X136846000Y-78167000D01*
X137354000Y-78167000D01*
X137354000Y-79083500D01*
X139246000Y-79083500D01*
X139246000Y-78167000D01*
X139754000Y-78167000D01*
X139754000Y-79083500D01*
X140908000Y-79083500D01*
X140908000Y-78874483D01*
X140897394Y-78770681D01*
X140897393Y-78770678D01*
X140841657Y-78602474D01*
X140748634Y-78451660D01*
X140748629Y-78451654D01*
X140623345Y-78326370D01*
X140623339Y-78326365D01*
X140472525Y-78233342D01*
X140304321Y-78177606D01*
X140304318Y-78177605D01*
X140200516Y-78167000D01*
X139754000Y-78167000D01*
X139246000Y-78167000D01*
X138799483Y-78167000D01*
X138695681Y-78177605D01*
X138695678Y-78177606D01*
X138527474Y-78233342D01*
X138370415Y-78330218D01*
X138369472Y-78328690D01*
X138312296Y-78351750D01*
X138242549Y-78338491D01*
X138229610Y-78330176D01*
X138229585Y-78330218D01*
X138072525Y-78233342D01*
X137904321Y-78177606D01*
X137904318Y-78177605D01*
X137800516Y-78167000D01*
X137354000Y-78167000D01*
X136846000Y-78167000D01*
X136476500Y-78167000D01*
X136408379Y-78146998D01*
X136361886Y-78093342D01*
X136350500Y-78041000D01*
X136350500Y-74539000D01*
X136370502Y-74470879D01*
X136424158Y-74424386D01*
X136476500Y-74413000D01*
X141655651Y-74413000D01*
X141655653Y-74413000D01*
X141697103Y-74405690D01*
X141711234Y-74403199D01*
X141716685Y-74402481D01*
X141772908Y-74397563D01*
X141827432Y-74382953D01*
X141832769Y-74381769D01*
X141880440Y-74373364D01*
X141888366Y-74371967D01*
X141888367Y-74371966D01*
X141888371Y-74371966D01*
X141888374Y-74371964D01*
X141888377Y-74371964D01*
X141941409Y-74352661D01*
X141946635Y-74351012D01*
X142001163Y-74336403D01*
X142052312Y-74312550D01*
X142057374Y-74310453D01*
X142110426Y-74291145D01*
X142159322Y-74262913D01*
X142164158Y-74260395D01*
X142215329Y-74236535D01*
X142261572Y-74204153D01*
X142266167Y-74201226D01*
X142315074Y-74172991D01*
X142358326Y-74136696D01*
X142362646Y-74133381D01*
X142408901Y-74100995D01*
X142575995Y-73933901D01*
X142586361Y-73923535D01*
X142586368Y-73923525D01*
X142722490Y-73787404D01*
X142784804Y-73753379D01*
X142811586Y-73750500D01*
X143729165Y-73750500D01*
X143797286Y-73770502D01*
X143843779Y-73824158D01*
X143853883Y-73894432D01*
X143824389Y-73959012D01*
X143805097Y-73977050D01*
X143762764Y-74009017D01*
X143612875Y-74173438D01*
X143612874Y-74173439D01*
X143495759Y-74362587D01*
X143495751Y-74362603D01*
X143415383Y-74570053D01*
X143415382Y-74570060D01*
X143374500Y-74788757D01*
X143374500Y-75011243D01*
X143401713Y-75156818D01*
X143415383Y-75229946D01*
X143495751Y-75437396D01*
X143495759Y-75437412D01*
X143612874Y-75626560D01*
X143612875Y-75626561D01*
X143762764Y-75790982D01*
X143940310Y-75925057D01*
X143940315Y-75925061D01*
X144139462Y-76024225D01*
X144139468Y-76024227D01*
X144139472Y-76024229D01*
X144139478Y-76024230D01*
X144139479Y-76024231D01*
X144298772Y-76069554D01*
X144353464Y-76085115D01*
X144519497Y-76100500D01*
X144519504Y-76100500D01*
X144880496Y-76100500D01*
X144880503Y-76100500D01*
X145046536Y-76085115D01*
X145260528Y-76024229D01*
X145260533Y-76024226D01*
X145260537Y-76024225D01*
X145459684Y-75925061D01*
X145459685Y-75925059D01*
X145459689Y-75925058D01*
X145619296Y-75804529D01*
X145637235Y-75790982D01*
X145714267Y-75706482D01*
X145787124Y-75626562D01*
X145904247Y-75437401D01*
X145984618Y-75229940D01*
X146025500Y-75011243D01*
X146025500Y-74788757D01*
X145984618Y-74570060D01*
X145984616Y-74570056D01*
X145984616Y-74570053D01*
X145923018Y-74411052D01*
X145904247Y-74362599D01*
X145902328Y-74359500D01*
X145787125Y-74173439D01*
X145787124Y-74173438D01*
X145637235Y-74009017D01*
X145459689Y-73874942D01*
X145459684Y-73874938D01*
X145342031Y-73816354D01*
X145289967Y-73768085D01*
X145272265Y-73699331D01*
X145294545Y-73631921D01*
X145344945Y-73589369D01*
X145377829Y-73574035D01*
X145377832Y-73574033D01*
X145571392Y-73438501D01*
X145571401Y-73438495D01*
X145738495Y-73271401D01*
X145874035Y-73077830D01*
X145973903Y-72863663D01*
X146035063Y-72635408D01*
X146055659Y-72400000D01*
X146035063Y-72164592D01*
X145973903Y-71936337D01*
X145874035Y-71722171D01*
X145874034Y-71722170D01*
X145874033Y-71722167D01*
X145738501Y-71528607D01*
X145738498Y-71528603D01*
X145738495Y-71528599D01*
X145632108Y-71422212D01*
X145598082Y-71359900D01*
X145603147Y-71289085D01*
X145645694Y-71232249D01*
X145681571Y-71213512D01*
X145747524Y-71191657D01*
X145898339Y-71098634D01*
X145898345Y-71098629D01*
X146023629Y-70973345D01*
X146023634Y-70973339D01*
X146116657Y-70822525D01*
X146172393Y-70654321D01*
X146172394Y-70654318D01*
X146182999Y-70550516D01*
X146183000Y-70550516D01*
X146183000Y-70154000D01*
X145101398Y-70154000D01*
X145136519Y-70099351D01*
X145175000Y-69968295D01*
X145175000Y-69831705D01*
X145136519Y-69700649D01*
X145101398Y-69646000D01*
X146183000Y-69646000D01*
X146183000Y-69249483D01*
X146172394Y-69145681D01*
X146172393Y-69145678D01*
X146116657Y-68977474D01*
X146023634Y-68826660D01*
X146023629Y-68826654D01*
X145898345Y-68701370D01*
X145898339Y-68701365D01*
X145747525Y-68608342D01*
X145579321Y-68552606D01*
X145579318Y-68552605D01*
X145475516Y-68542000D01*
X144954000Y-68542000D01*
X144954000Y-69493808D01*
X144835199Y-69439554D01*
X144733975Y-69425000D01*
X144666025Y-69425000D01*
X144564801Y-69439554D01*
X144446000Y-69493808D01*
X144446000Y-68542000D01*
X143924483Y-68542000D01*
X143820681Y-68552605D01*
X143820678Y-68552606D01*
X143652474Y-68608342D01*
X143501660Y-68701365D01*
X143501654Y-68701370D01*
X143376370Y-68826654D01*
X143376365Y-68826660D01*
X143283342Y-68977474D01*
X143227606Y-69145678D01*
X143227605Y-69145681D01*
X143217000Y-69249483D01*
X143217000Y-69646000D01*
X144298602Y-69646000D01*
X144263481Y-69700649D01*
X144225000Y-69831705D01*
X144225000Y-69968295D01*
X144263481Y-70099351D01*
X144298602Y-70154000D01*
X143217000Y-70154000D01*
X143217000Y-70550516D01*
X143227605Y-70654318D01*
X143227606Y-70654321D01*
X143283343Y-70822528D01*
X143304824Y-70857353D01*
X143323562Y-70925832D01*
X143302303Y-70993571D01*
X143247796Y-71039063D01*
X143197584Y-71049500D01*
X142081844Y-71049500D01*
X142026258Y-71059300D01*
X142020808Y-71060018D01*
X141964591Y-71064936D01*
X141910065Y-71079546D01*
X141904698Y-71080736D01*
X141849130Y-71090534D01*
X141849128Y-71090535D01*
X141796102Y-71109834D01*
X141790860Y-71111487D01*
X141736335Y-71126097D01*
X141685183Y-71149950D01*
X141680103Y-71152054D01*
X141627077Y-71171353D01*
X141627070Y-71171357D01*
X141578199Y-71199572D01*
X141573325Y-71202110D01*
X141522173Y-71225963D01*
X141475936Y-71258338D01*
X141471301Y-71261291D01*
X141422425Y-71289510D01*
X141422423Y-71289512D01*
X141379192Y-71325786D01*
X141374832Y-71329131D01*
X141328601Y-71361502D01*
X141328599Y-71361504D01*
X141227223Y-71462878D01*
X141227215Y-71462889D01*
X141015007Y-71675096D01*
X140952698Y-71709120D01*
X140925914Y-71712000D01*
X136632065Y-71712000D01*
X136588971Y-71704401D01*
X136566986Y-71696399D01*
X136550877Y-71690536D01*
X136550876Y-71690535D01*
X136550871Y-71690534D01*
X136459938Y-71674500D01*
X136454619Y-71673562D01*
X136391007Y-71642034D01*
X136354538Y-71581119D01*
X136350500Y-71549476D01*
X136350500Y-71234000D01*
X136370502Y-71165879D01*
X136424158Y-71119386D01*
X136476500Y-71108000D01*
X136860000Y-71108000D01*
X136860000Y-70191500D01*
X137368000Y-70191500D01*
X137368000Y-71108000D01*
X137814517Y-71108000D01*
X137814516Y-71107999D01*
X137918318Y-71097394D01*
X137918321Y-71097393D01*
X138086525Y-71041657D01*
X138240853Y-70946467D01*
X138309333Y-70927730D01*
X138373147Y-70946467D01*
X138527474Y-71041657D01*
X138695678Y-71097393D01*
X138695681Y-71097394D01*
X138799483Y-71107999D01*
X138799483Y-71108000D01*
X139246000Y-71108000D01*
X139246000Y-70191500D01*
X139754000Y-70191500D01*
X139754000Y-71108000D01*
X140200517Y-71108000D01*
X140200516Y-71107999D01*
X140304318Y-71097394D01*
X140304321Y-71097393D01*
X140472525Y-71041657D01*
X140623339Y-70948634D01*
X140623345Y-70948629D01*
X140748629Y-70823345D01*
X140748634Y-70823339D01*
X140841657Y-70672525D01*
X140897393Y-70504321D01*
X140897394Y-70504318D01*
X140907999Y-70400516D01*
X140908000Y-70400516D01*
X140908000Y-70191500D01*
X139754000Y-70191500D01*
X139246000Y-70191500D01*
X137368000Y-70191500D01*
X136860000Y-70191500D01*
X136860000Y-68767000D01*
X137368000Y-68767000D01*
X137368000Y-69683500D01*
X139246000Y-69683500D01*
X139246000Y-68767000D01*
X139754000Y-68767000D01*
X139754000Y-69683500D01*
X140908000Y-69683500D01*
X140908000Y-69474483D01*
X140897394Y-69370681D01*
X140897393Y-69370678D01*
X140841657Y-69202474D01*
X140748634Y-69051660D01*
X140748629Y-69051654D01*
X140623345Y-68926370D01*
X140623339Y-68926365D01*
X140472525Y-68833342D01*
X140304321Y-68777606D01*
X140304318Y-68777605D01*
X140200516Y-68767000D01*
X139754000Y-68767000D01*
X139246000Y-68767000D01*
X138799483Y-68767000D01*
X138695681Y-68777605D01*
X138695678Y-68777606D01*
X138527472Y-68833343D01*
X138373146Y-68928532D01*
X138304667Y-68947269D01*
X138240854Y-68928532D01*
X138086527Y-68833343D01*
X137918321Y-68777606D01*
X137918318Y-68777605D01*
X137814516Y-68767000D01*
X137368000Y-68767000D01*
X136860000Y-68767000D01*
X136476500Y-68767000D01*
X136408379Y-68746998D01*
X136361886Y-68693342D01*
X136350500Y-68641000D01*
X136350500Y-68065584D01*
X136370502Y-67997463D01*
X136387405Y-67976489D01*
X137652490Y-66711405D01*
X137714802Y-66677379D01*
X137741585Y-66674500D01*
X137913255Y-66674500D01*
X137913260Y-66674500D01*
X137981393Y-66664573D01*
X138086483Y-66613198D01*
X138169198Y-66530483D01*
X138220573Y-66425393D01*
X138230500Y-66357260D01*
X138230500Y-65370192D01*
X143699500Y-65370192D01*
X143712901Y-65450499D01*
X143739065Y-65607294D01*
X143739067Y-65607301D01*
X143817116Y-65834653D01*
X143817117Y-65834655D01*
X143902601Y-65992614D01*
X143931528Y-66046067D01*
X144079175Y-66235764D01*
X144256031Y-66398571D01*
X144457272Y-66530049D01*
X144677409Y-66626610D01*
X144677410Y-66626610D01*
X144677412Y-66626611D01*
X144895170Y-66681754D01*
X144910437Y-66685620D01*
X145070204Y-66698858D01*
X145090008Y-66700500D01*
X145090010Y-66700500D01*
X146509992Y-66700500D01*
X146528760Y-66698944D01*
X146689563Y-66685620D01*
X146922591Y-66626610D01*
X147142728Y-66530049D01*
X147343969Y-66398571D01*
X147520825Y-66235764D01*
X147668472Y-66046067D01*
X147782882Y-65834656D01*
X147860934Y-65607297D01*
X147900500Y-65370192D01*
X147900500Y-65129808D01*
X147860934Y-64892703D01*
X147817780Y-64767000D01*
X147782883Y-64665346D01*
X147782882Y-64665344D01*
X147668472Y-64453933D01*
X147668471Y-64453932D01*
X147655696Y-64437519D01*
X147520825Y-64264236D01*
X147520821Y-64264232D01*
X147520819Y-64264229D01*
X147411506Y-64163600D01*
X147374935Y-64102748D01*
X147377068Y-64031783D01*
X147383644Y-64015566D01*
X147390573Y-64001393D01*
X147400500Y-63933260D01*
X147400500Y-62366740D01*
X147390573Y-62298607D01*
X147339198Y-62193517D01*
X147339196Y-62193514D01*
X147256485Y-62110803D01*
X147256482Y-62110801D01*
X147169814Y-62068432D01*
X147117399Y-62020545D01*
X147099196Y-61951921D01*
X147120982Y-61884350D01*
X147129928Y-61872722D01*
X147200515Y-61791261D01*
X147200515Y-61791259D01*
X147200519Y-61791256D01*
X147305604Y-61609244D01*
X147374344Y-61410633D01*
X147404254Y-61202602D01*
X147399243Y-61097396D01*
X147394255Y-60992680D01*
X147394254Y-60992675D01*
X147394254Y-60992670D01*
X147344704Y-60788424D01*
X147344701Y-60788419D01*
X147344701Y-60788416D01*
X147285454Y-60658685D01*
X147257396Y-60597247D01*
X147135486Y-60426048D01*
X147135482Y-60426044D01*
X147049578Y-60344135D01*
X147014080Y-60282650D01*
X147017458Y-60211734D01*
X147058640Y-60153901D01*
X147062468Y-60151007D01*
X147131035Y-60101191D01*
X147287518Y-59937522D01*
X147412265Y-59748539D01*
X147412266Y-59748536D01*
X147501265Y-59540310D01*
X147532377Y-59404000D01*
X146172968Y-59404000D01*
X146223625Y-59316260D01*
X146253810Y-59184008D01*
X146243673Y-59048735D01*
X146194113Y-58922459D01*
X146173013Y-58896000D01*
X147535082Y-58896000D01*
X147531415Y-58868933D01*
X147461441Y-58653576D01*
X147354140Y-58454175D01*
X147354136Y-58454168D01*
X147302999Y-58390045D01*
X147276165Y-58324315D01*
X147289127Y-58254511D01*
X147332597Y-58206001D01*
X147343964Y-58198574D01*
X147343963Y-58198574D01*
X147343969Y-58198571D01*
X147520825Y-58035764D01*
X147668472Y-57846067D01*
X147782882Y-57634656D01*
X147860934Y-57407297D01*
X147900500Y-57170192D01*
X147900500Y-56929808D01*
X147860934Y-56692703D01*
X147797596Y-56508205D01*
X147782883Y-56465346D01*
X147782882Y-56465344D01*
X147668472Y-56253933D01*
X147668471Y-56253932D01*
X147520825Y-56064236D01*
X147484184Y-56030506D01*
X147343971Y-55901431D01*
X147343969Y-55901429D01*
X147142728Y-55769951D01*
X147142725Y-55769949D01*
X147142724Y-55769949D01*
X146922594Y-55673391D01*
X146922587Y-55673388D01*
X146689570Y-55614381D01*
X146689565Y-55614380D01*
X146689563Y-55614380D01*
X146560805Y-55603710D01*
X146509992Y-55599500D01*
X146509990Y-55599500D01*
X145090010Y-55599500D01*
X145090008Y-55599500D01*
X145030819Y-55604404D01*
X144910437Y-55614380D01*
X144910435Y-55614380D01*
X144910429Y-55614381D01*
X144677412Y-55673388D01*
X144677405Y-55673391D01*
X144457275Y-55769949D01*
X144256028Y-55901431D01*
X144079177Y-56064233D01*
X143931528Y-56253932D01*
X143931527Y-56253933D01*
X143817117Y-56465344D01*
X143817116Y-56465346D01*
X143739067Y-56692698D01*
X143739065Y-56692705D01*
X143726923Y-56765470D01*
X143699500Y-56929808D01*
X143699500Y-57170192D01*
X143704475Y-57200003D01*
X143739065Y-57407294D01*
X143739067Y-57407301D01*
X143817116Y-57634653D01*
X143817117Y-57634655D01*
X143922344Y-57829096D01*
X143931528Y-57846067D01*
X144058496Y-58009196D01*
X144079177Y-58035766D01*
X144225476Y-58170443D01*
X144256031Y-58198571D01*
X144265079Y-58204482D01*
X144311169Y-58258483D01*
X144320747Y-58328830D01*
X144301324Y-58379379D01*
X144187733Y-58551463D01*
X144098734Y-58759689D01*
X144067622Y-58895999D01*
X144067623Y-58896000D01*
X145427032Y-58896000D01*
X145376375Y-58983740D01*
X145346190Y-59115992D01*
X145356327Y-59251265D01*
X145405887Y-59377541D01*
X145426987Y-59404000D01*
X144064918Y-59404000D01*
X144068584Y-59431066D01*
X144138558Y-59646423D01*
X144245859Y-59845826D01*
X144387050Y-60022872D01*
X144540692Y-60157105D01*
X144578832Y-60216987D01*
X144578542Y-60287983D01*
X144541224Y-60345532D01*
X144541453Y-60345772D01*
X144540447Y-60346730D01*
X144539915Y-60347552D01*
X144537514Y-60349527D01*
X144537107Y-60349914D01*
X144399485Y-60508738D01*
X144399479Y-60508746D01*
X144294396Y-60690755D01*
X144294393Y-60690760D01*
X144225658Y-60889359D01*
X144225654Y-60889374D01*
X144195745Y-61097396D01*
X144205744Y-61307319D01*
X144205746Y-61307332D01*
X144255295Y-61511572D01*
X144255298Y-61511583D01*
X144311368Y-61634356D01*
X144342604Y-61702753D01*
X144463638Y-61872722D01*
X144464515Y-61873953D01*
X144465419Y-61874996D01*
X144465706Y-61875626D01*
X144467996Y-61878841D01*
X144467376Y-61879282D01*
X144494912Y-61939577D01*
X144484809Y-62009851D01*
X144438316Y-62063507D01*
X144425534Y-62070706D01*
X144343516Y-62110802D01*
X144343514Y-62110803D01*
X144260803Y-62193514D01*
X144260801Y-62193517D01*
X144209427Y-62298605D01*
X144199500Y-62366738D01*
X144199500Y-63933261D01*
X144209427Y-64001393D01*
X144209427Y-64001394D01*
X144216352Y-64015558D01*
X144228302Y-64085542D01*
X144200519Y-64150877D01*
X144188494Y-64163600D01*
X144079178Y-64264232D01*
X143931528Y-64453932D01*
X143931527Y-64453933D01*
X143817117Y-64665344D01*
X143817116Y-64665346D01*
X143739067Y-64892698D01*
X143739065Y-64892705D01*
X143724164Y-64982007D01*
X143699500Y-65129808D01*
X143699500Y-65370192D01*
X138230500Y-65370192D01*
X138230500Y-64890740D01*
X138220573Y-64822607D01*
X138169198Y-64717517D01*
X138169196Y-64717514D01*
X138086485Y-64634803D01*
X138086482Y-64634801D01*
X137981394Y-64583427D01*
X137913261Y-64573500D01*
X137913260Y-64573500D01*
X137724929Y-64573500D01*
X137656808Y-64553498D01*
X137643938Y-64544022D01*
X137629428Y-64531847D01*
X137607574Y-64513509D01*
X137607573Y-64513508D01*
X137607571Y-64513506D01*
X137402930Y-64395357D01*
X137402919Y-64395351D01*
X137180877Y-64314535D01*
X137148019Y-64308741D01*
X136948153Y-64273499D01*
X136711847Y-64273499D01*
X136575733Y-64297500D01*
X136479123Y-64314535D01*
X136479122Y-64314535D01*
X136257080Y-64395351D01*
X136257075Y-64395354D01*
X136209533Y-64422802D01*
X136139499Y-64463237D01*
X136070506Y-64479975D01*
X136003414Y-64456755D01*
X135959526Y-64400948D01*
X135950500Y-64354118D01*
X135950500Y-63011586D01*
X135970502Y-62943465D01*
X135987405Y-62922490D01*
X136298492Y-62611404D01*
X136360804Y-62577379D01*
X136387587Y-62574500D01*
X136888965Y-62574500D01*
X136888966Y-62574500D01*
X137065408Y-62559063D01*
X137293663Y-62497903D01*
X137507829Y-62398035D01*
X137651713Y-62297286D01*
X137718986Y-62274599D01*
X137723983Y-62274500D01*
X137913255Y-62274500D01*
X137913260Y-62274500D01*
X137981393Y-62264573D01*
X138086483Y-62213198D01*
X138169198Y-62130483D01*
X138220573Y-62025393D01*
X138230500Y-61957260D01*
X138230500Y-60490740D01*
X138220573Y-60422607D01*
X138169198Y-60317517D01*
X138169196Y-60317514D01*
X138086485Y-60234803D01*
X138086482Y-60234801D01*
X137981394Y-60183427D01*
X137913261Y-60173500D01*
X137913260Y-60173500D01*
X137723983Y-60173500D01*
X137655862Y-60153498D01*
X137651727Y-60150723D01*
X137507829Y-60049965D01*
X137293663Y-59950097D01*
X137293661Y-59950096D01*
X137065411Y-59888937D01*
X136933076Y-59877359D01*
X136888966Y-59873500D01*
X136888965Y-59873500D01*
X136076500Y-59873500D01*
X136008379Y-59853498D01*
X135961886Y-59799842D01*
X135950500Y-59747500D01*
X135950500Y-56497090D01*
X135970502Y-56428969D01*
X136024158Y-56382476D01*
X136089307Y-56371743D01*
X136199484Y-56383000D01*
X136346000Y-56383000D01*
X136346000Y-55277503D01*
X136419052Y-55334363D01*
X136537424Y-55375000D01*
X136631073Y-55375000D01*
X136723446Y-55359586D01*
X136833514Y-55300019D01*
X136854000Y-55277765D01*
X136854000Y-56383000D01*
X137000517Y-56383000D01*
X137000516Y-56382999D01*
X137104318Y-56372394D01*
X137104321Y-56372393D01*
X137272525Y-56316657D01*
X137423339Y-56223634D01*
X137423345Y-56223629D01*
X137548629Y-56098345D01*
X137548634Y-56098339D01*
X137641657Y-55947525D01*
X137697393Y-55779321D01*
X137697394Y-55779318D01*
X137707999Y-55675516D01*
X137708000Y-55675516D01*
X137708000Y-55254000D01*
X136875878Y-55254000D01*
X136918278Y-55207941D01*
X136968551Y-55093330D01*
X136978886Y-54968605D01*
X136948163Y-54847281D01*
X136881992Y-54746000D01*
X137708000Y-54746000D01*
X137708000Y-54324483D01*
X137697394Y-54220681D01*
X137697393Y-54220678D01*
X137641657Y-54052474D01*
X137548634Y-53901660D01*
X137548629Y-53901654D01*
X137423345Y-53776370D01*
X137423339Y-53776365D01*
X137272525Y-53683342D01*
X137104321Y-53627606D01*
X137104318Y-53627605D01*
X137000516Y-53617000D01*
X136854000Y-53617000D01*
X136854000Y-54722496D01*
X136780948Y-54665637D01*
X136662576Y-54625000D01*
X136568927Y-54625000D01*
X136476554Y-54640414D01*
X136366486Y-54699981D01*
X136346000Y-54722234D01*
X136346000Y-53617000D01*
X136199483Y-53617000D01*
X136095681Y-53627605D01*
X136095677Y-53627606D01*
X135979193Y-53666205D01*
X135908238Y-53668645D01*
X135847228Y-53632337D01*
X135830441Y-53609600D01*
X135800419Y-53557601D01*
X135797880Y-53552724D01*
X135794422Y-53545308D01*
X135774035Y-53501587D01*
X135741655Y-53455344D01*
X135738710Y-53450720D01*
X135725058Y-53427074D01*
X135710491Y-53401842D01*
X135674207Y-53358600D01*
X135670868Y-53354249D01*
X135638495Y-53308015D01*
X135536810Y-53206330D01*
X141445710Y-53206330D01*
X141459484Y-53308012D01*
X141475925Y-53429390D01*
X141545484Y-53643467D01*
X141652144Y-53841675D01*
X141652148Y-53841682D01*
X141724833Y-53932825D01*
X141792492Y-54017666D01*
X141962004Y-54165765D01*
X142155236Y-54281215D01*
X142365976Y-54360307D01*
X142365978Y-54360307D01*
X142365980Y-54360308D01*
X142499229Y-54384489D01*
X142587453Y-54400500D01*
X142587454Y-54400500D01*
X142756149Y-54400500D01*
X142756155Y-54400500D01*
X142913759Y-54386315D01*
X142924189Y-54385377D01*
X142924189Y-54385376D01*
X143099507Y-54336991D01*
X143141167Y-54325494D01*
X143141167Y-54325493D01*
X143141170Y-54325493D01*
X143343973Y-54227829D01*
X143526078Y-54095522D01*
X143681632Y-53932825D01*
X143805635Y-53744968D01*
X143894103Y-53537988D01*
X143944191Y-53318537D01*
X143945869Y-53281182D01*
X145099500Y-53281182D01*
X145121224Y-53425311D01*
X145138604Y-53540619D01*
X145215933Y-53791314D01*
X145215938Y-53791327D01*
X145329773Y-54027706D01*
X145329777Y-54027713D01*
X145477562Y-54244472D01*
X145477567Y-54244479D01*
X145656019Y-54436805D01*
X145861143Y-54600386D01*
X145861146Y-54600388D01*
X146088352Y-54731566D01*
X146088356Y-54731567D01*
X146088357Y-54731568D01*
X146332584Y-54827420D01*
X146588370Y-54885802D01*
X146740409Y-54897195D01*
X146784503Y-54900500D01*
X146784506Y-54900500D01*
X146915497Y-54900500D01*
X146956516Y-54897425D01*
X147111630Y-54885802D01*
X147367416Y-54827420D01*
X147611643Y-54731568D01*
X147611645Y-54731566D01*
X147611647Y-54731566D01*
X147769526Y-54640414D01*
X147838857Y-54600386D01*
X148043981Y-54436805D01*
X148222433Y-54244479D01*
X148370228Y-54027704D01*
X148484063Y-53791323D01*
X148484066Y-53791314D01*
X148561395Y-53540619D01*
X148561792Y-53537986D01*
X148600500Y-53281182D01*
X148600500Y-53018818D01*
X148561396Y-52759385D01*
X148561395Y-52759383D01*
X148561395Y-52759380D01*
X148484066Y-52508685D01*
X148484061Y-52508672D01*
X148391630Y-52316738D01*
X148370228Y-52272296D01*
X148370226Y-52272293D01*
X148370222Y-52272286D01*
X148226034Y-52060803D01*
X148222433Y-52055521D01*
X148043981Y-51863195D01*
X147838857Y-51699614D01*
X147838852Y-51699611D01*
X147838853Y-51699611D01*
X147611647Y-51568433D01*
X147611639Y-51568430D01*
X147367419Y-51472581D01*
X147367417Y-51472580D01*
X147111632Y-51414198D01*
X146915497Y-51399500D01*
X146915494Y-51399500D01*
X146784506Y-51399500D01*
X146784503Y-51399500D01*
X146588367Y-51414198D01*
X146332582Y-51472580D01*
X146332580Y-51472581D01*
X146088360Y-51568430D01*
X146088352Y-51568433D01*
X145861146Y-51699611D01*
X145656018Y-51863195D01*
X145477566Y-52055522D01*
X145477562Y-52055527D01*
X145329777Y-52272286D01*
X145329773Y-52272293D01*
X145215938Y-52508672D01*
X145215933Y-52508685D01*
X145138604Y-52759380D01*
X145125362Y-52847235D01*
X145099500Y-53018818D01*
X145099500Y-53281182D01*
X143945869Y-53281182D01*
X143954290Y-53093670D01*
X143924075Y-52870613D01*
X143854517Y-52656536D01*
X143799897Y-52555035D01*
X143747855Y-52458324D01*
X143747851Y-52458317D01*
X143613830Y-52290262D01*
X143607508Y-52282334D01*
X143574341Y-52253357D01*
X143489389Y-52179136D01*
X143437996Y-52134235D01*
X143244764Y-52018785D01*
X143095046Y-51962595D01*
X143034019Y-51939691D01*
X142844091Y-51905224D01*
X142812547Y-51899500D01*
X142643845Y-51899500D01*
X142612558Y-51902315D01*
X142475810Y-51914622D01*
X142475810Y-51914623D01*
X142258832Y-51974505D01*
X142056031Y-52072168D01*
X142056023Y-52072173D01*
X141873921Y-52204478D01*
X141873920Y-52204479D01*
X141718369Y-52367172D01*
X141594367Y-52555027D01*
X141594363Y-52555035D01*
X141505897Y-52762011D01*
X141505896Y-52762013D01*
X141455809Y-52981461D01*
X141455809Y-52981463D01*
X141447880Y-53158022D01*
X141445710Y-53206330D01*
X135536810Y-53206330D01*
X135471401Y-53140921D01*
X135471400Y-53140920D01*
X134386258Y-52055779D01*
X134386239Y-52055758D01*
X134216990Y-51886509D01*
X134216982Y-51886503D01*
X134170750Y-51854131D01*
X134166394Y-51850789D01*
X134123158Y-51814509D01*
X134123155Y-51814507D01*
X134123154Y-51814506D01*
X134103342Y-51803068D01*
X134074261Y-51786278D01*
X134069648Y-51783339D01*
X134023413Y-51750965D01*
X133972265Y-51727114D01*
X133967387Y-51724574D01*
X133918509Y-51696354D01*
X133879590Y-51682189D01*
X133865475Y-51677052D01*
X133860399Y-51674950D01*
X133809254Y-51651100D01*
X133809250Y-51651098D01*
X133809247Y-51651097D01*
X133809245Y-51651096D01*
X133809239Y-51651094D01*
X133754724Y-51636487D01*
X133749481Y-51634834D01*
X133696461Y-51615535D01*
X133696455Y-51615534D01*
X133640867Y-51605731D01*
X133635502Y-51604541D01*
X133581000Y-51589938D01*
X133580987Y-51589936D01*
X133524775Y-51585018D01*
X133519326Y-51584300D01*
X133463739Y-51574500D01*
X133463737Y-51574500D01*
X133404550Y-51574500D01*
X126943153Y-51574500D01*
X126706846Y-51574500D01*
X126706844Y-51574500D01*
X126651258Y-51584300D01*
X126645808Y-51585018D01*
X126589591Y-51589936D01*
X126535065Y-51604546D01*
X126529698Y-51605736D01*
X126474130Y-51615534D01*
X126421095Y-51634836D01*
X126415854Y-51636488D01*
X126361339Y-51651096D01*
X126356605Y-51653303D01*
X126310175Y-51674953D01*
X126305110Y-51677051D01*
X126252076Y-51696355D01*
X126203203Y-51724570D01*
X126198329Y-51727108D01*
X126147167Y-51750966D01*
X126100932Y-51783341D01*
X126096296Y-51786294D01*
X126047429Y-51814507D01*
X126047423Y-51814512D01*
X126004191Y-51850786D01*
X125999832Y-51854131D01*
X125953600Y-51886503D01*
X125953591Y-51886511D01*
X125930805Y-51909299D01*
X125911747Y-51928357D01*
X125880269Y-51959835D01*
X125877509Y-51962595D01*
X125815197Y-51996621D01*
X125788414Y-51999500D01*
X125216738Y-51999500D01*
X125148605Y-52009427D01*
X125043517Y-52060801D01*
X125043514Y-52060803D01*
X124960803Y-52143514D01*
X124960801Y-52143517D01*
X124909427Y-52248605D01*
X124899500Y-52316738D01*
X124899500Y-54183261D01*
X124909427Y-54251394D01*
X124960801Y-54356482D01*
X124960803Y-54356485D01*
X125043514Y-54439196D01*
X125043517Y-54439198D01*
X125148607Y-54490573D01*
X125216740Y-54500500D01*
X125964904Y-54500500D01*
X126007997Y-54508098D01*
X126149129Y-54559466D01*
X126381847Y-54600500D01*
X126381848Y-54600500D01*
X126618152Y-54600500D01*
X126618153Y-54600500D01*
X126850871Y-54559466D01*
X126992002Y-54508098D01*
X127035096Y-54500500D01*
X127783255Y-54500500D01*
X127783260Y-54500500D01*
X127851393Y-54490573D01*
X127956483Y-54439198D01*
X128039198Y-54356483D01*
X128044244Y-54346160D01*
X128092131Y-54293748D01*
X128157441Y-54275500D01*
X129568118Y-54275500D01*
X129636239Y-54295502D01*
X129682732Y-54349158D01*
X129692836Y-54419432D01*
X129688603Y-54438061D01*
X129673346Y-54512305D01*
X129655246Y-54600386D01*
X129649500Y-54628345D01*
X129649500Y-55323205D01*
X129649501Y-55323224D01*
X129664154Y-55467316D01*
X129664155Y-55467321D01*
X129697625Y-55573997D01*
X129722025Y-55651766D01*
X129815842Y-55820794D01*
X129920358Y-55942538D01*
X129941760Y-55967468D01*
X130094627Y-56085796D01*
X130094630Y-56085797D01*
X130099681Y-56089707D01*
X130098025Y-56091845D01*
X130137378Y-56136011D01*
X130149500Y-56189934D01*
X130149499Y-56661207D01*
X130129497Y-56729328D01*
X130112594Y-56750301D01*
X130059820Y-56803076D01*
X129997511Y-56837100D01*
X129970727Y-56839980D01*
X113138364Y-56839980D01*
X113131307Y-56839584D01*
X113092485Y-56835210D01*
X113092484Y-56835210D01*
X113034031Y-56846269D01*
X112975233Y-56855131D01*
X112967073Y-56857648D01*
X112959050Y-56860455D01*
X112906446Y-56888257D01*
X112852876Y-56914055D01*
X112845845Y-56918848D01*
X112838983Y-56923913D01*
X112796933Y-56965963D01*
X112753328Y-57006422D01*
X112747439Y-57013807D01*
X112746764Y-57013269D01*
X112737299Y-57025596D01*
X111050300Y-58712596D01*
X110987990Y-58746620D01*
X110961207Y-58749500D01*
X110921012Y-58749500D01*
X110767638Y-58787302D01*
X110767634Y-58787304D01*
X110627757Y-58860718D01*
X110627756Y-58860719D01*
X110539236Y-58939140D01*
X110474983Y-58969340D01*
X110404603Y-58960008D01*
X110400346Y-58958024D01*
X110321394Y-58919427D01*
X110253261Y-58909500D01*
X110253260Y-58909500D01*
X107186740Y-58909500D01*
X107186738Y-58909500D01*
X107118605Y-58919427D01*
X107013517Y-58970801D01*
X107013514Y-58970803D01*
X106930803Y-59053514D01*
X106930801Y-59053517D01*
X106879427Y-59158605D01*
X106869500Y-59226738D01*
X106869500Y-60293261D01*
X106879427Y-60361394D01*
X106930801Y-60466482D01*
X106930803Y-60466485D01*
X107013514Y-60549196D01*
X107013517Y-60549198D01*
X107118607Y-60600573D01*
X107186740Y-60610500D01*
X107186745Y-60610500D01*
X110253255Y-60610500D01*
X110253260Y-60610500D01*
X110321393Y-60600573D01*
X110426483Y-60549198D01*
X110509198Y-60466483D01*
X110560573Y-60361393D01*
X110566775Y-60318825D01*
X110596388Y-60254302D01*
X110656185Y-60216030D01*
X110668033Y-60213189D01*
X110715479Y-60204211D01*
X110715478Y-60204211D01*
X110774287Y-60195348D01*
X110774294Y-60195344D01*
X110782472Y-60192821D01*
X110790472Y-60190023D01*
X110843073Y-60162222D01*
X110866361Y-60151007D01*
X110896642Y-60136425D01*
X110896646Y-60136421D01*
X110903685Y-60131622D01*
X110910531Y-60126569D01*
X110910538Y-60126566D01*
X110934403Y-60102699D01*
X110996715Y-60068674D01*
X111067531Y-60073738D01*
X111124367Y-60116283D01*
X111149179Y-60182803D01*
X111149500Y-60191794D01*
X111149500Y-61423500D01*
X111129498Y-61491621D01*
X111075842Y-61538114D01*
X111023500Y-61549500D01*
X110921012Y-61549500D01*
X110767638Y-61587302D01*
X110767636Y-61587303D01*
X110673685Y-61636613D01*
X110604071Y-61650559D01*
X110537969Y-61624655D01*
X110512585Y-61598261D01*
X110509194Y-61593512D01*
X110426485Y-61510803D01*
X110426482Y-61510801D01*
X110321394Y-61459427D01*
X110253261Y-61449500D01*
X110253260Y-61449500D01*
X107186740Y-61449500D01*
X107186738Y-61449500D01*
X107118605Y-61459427D01*
X107013517Y-61510801D01*
X107013514Y-61510803D01*
X106930803Y-61593514D01*
X106930801Y-61593517D01*
X106879427Y-61698605D01*
X106869500Y-61766738D01*
X106869500Y-62833261D01*
X106879427Y-62901394D01*
X106930801Y-63006482D01*
X106930803Y-63006485D01*
X107013514Y-63089196D01*
X107013517Y-63089198D01*
X107118607Y-63140573D01*
X107186740Y-63150500D01*
X107186745Y-63150500D01*
X110253255Y-63150500D01*
X110253260Y-63150500D01*
X110321393Y-63140573D01*
X110426483Y-63089198D01*
X110509198Y-63006483D01*
X110560573Y-62901393D01*
X110561628Y-62894150D01*
X110591240Y-62829625D01*
X110651037Y-62791351D01*
X110722034Y-62791483D01*
X110744862Y-62800744D01*
X110767635Y-62812696D01*
X110767637Y-62812696D01*
X110767638Y-62812697D01*
X110836320Y-62829625D01*
X110921015Y-62850500D01*
X110921017Y-62850500D01*
X111023500Y-62850500D01*
X111091621Y-62870502D01*
X111138114Y-62924158D01*
X111149500Y-62976500D01*
X111149500Y-64023500D01*
X111129498Y-64091621D01*
X111075842Y-64138114D01*
X111023500Y-64149500D01*
X110921012Y-64149500D01*
X110767638Y-64187302D01*
X110767636Y-64187303D01*
X110697700Y-64224009D01*
X110628086Y-64237955D01*
X110561984Y-64212051D01*
X110525948Y-64167780D01*
X110509198Y-64133517D01*
X110509196Y-64133515D01*
X110509196Y-64133514D01*
X110426485Y-64050803D01*
X110426482Y-64050801D01*
X110321394Y-63999427D01*
X110253261Y-63989500D01*
X110253260Y-63989500D01*
X107186740Y-63989500D01*
X107186738Y-63989500D01*
X107118605Y-63999427D01*
X107013517Y-64050801D01*
X107013514Y-64050803D01*
X106930803Y-64133514D01*
X106930801Y-64133517D01*
X106879427Y-64238605D01*
X106869500Y-64306738D01*
X106869500Y-65373261D01*
X106879427Y-65441394D01*
X106930801Y-65546482D01*
X106930803Y-65546485D01*
X107013514Y-65629196D01*
X107013517Y-65629198D01*
X107118607Y-65680573D01*
X107186740Y-65690500D01*
X107186745Y-65690500D01*
X110253255Y-65690500D01*
X110253260Y-65690500D01*
X110321393Y-65680573D01*
X110426483Y-65629198D01*
X110509198Y-65546483D01*
X110557072Y-65448553D01*
X110604957Y-65396141D01*
X110673580Y-65377937D01*
X110728823Y-65392325D01*
X110767635Y-65412696D01*
X110767636Y-65412696D01*
X110767638Y-65412697D01*
X110793593Y-65419094D01*
X110921015Y-65450500D01*
X110921017Y-65450500D01*
X111023500Y-65450500D01*
X111091621Y-65470502D01*
X111138114Y-65524158D01*
X111149500Y-65576500D01*
X111149500Y-66628693D01*
X111129498Y-66696814D01*
X111075842Y-66743307D01*
X111053654Y-66751032D01*
X110987636Y-66767303D01*
X110987634Y-66767304D01*
X110859860Y-66834366D01*
X110847760Y-66840717D01*
X110783310Y-66897813D01*
X110719058Y-66928013D01*
X110699759Y-66929500D01*
X110691530Y-66929500D01*
X110623409Y-66909498D01*
X110576916Y-66855842D01*
X110566847Y-66821668D01*
X110560573Y-66778607D01*
X110509198Y-66673517D01*
X110509196Y-66673514D01*
X110426485Y-66590803D01*
X110426482Y-66590801D01*
X110321394Y-66539427D01*
X110253261Y-66529500D01*
X110253260Y-66529500D01*
X107186740Y-66529500D01*
X107186738Y-66529500D01*
X107118605Y-66539427D01*
X107013517Y-66590801D01*
X107013514Y-66590803D01*
X106930803Y-66673514D01*
X106930801Y-66673517D01*
X106879427Y-66778605D01*
X106869500Y-66846738D01*
X106869500Y-67913261D01*
X106879427Y-67981394D01*
X106930801Y-68086482D01*
X106930803Y-68086485D01*
X107013514Y-68169196D01*
X107013517Y-68169198D01*
X107118607Y-68220573D01*
X107186740Y-68230500D01*
X107186745Y-68230500D01*
X110253255Y-68230500D01*
X110253260Y-68230500D01*
X110321393Y-68220573D01*
X110426483Y-68169198D01*
X110509198Y-68086483D01*
X110560573Y-67981393D01*
X110566846Y-67938333D01*
X110596460Y-67873809D01*
X110656258Y-67835538D01*
X110691530Y-67830500D01*
X110699759Y-67830500D01*
X110767880Y-67850502D01*
X110783308Y-67862184D01*
X110847760Y-67919283D01*
X110987635Y-67992696D01*
X110987636Y-67992696D01*
X110987638Y-67992697D01*
X111064324Y-68011598D01*
X111141015Y-68030500D01*
X111141017Y-68030500D01*
X111298983Y-68030500D01*
X111298985Y-68030500D01*
X111452365Y-67992696D01*
X111592240Y-67919283D01*
X111710483Y-67814530D01*
X111800220Y-67684523D01*
X111856237Y-67536818D01*
X111856237Y-67536815D01*
X111856238Y-67536814D01*
X111872198Y-67405364D01*
X111900264Y-67340150D01*
X111918713Y-67322045D01*
X111933970Y-67309879D01*
X111967480Y-67260728D01*
X112002793Y-67212882D01*
X112002793Y-67212879D01*
X112002795Y-67212878D01*
X112006781Y-67205336D01*
X112010471Y-67197674D01*
X112010470Y-67197674D01*
X112010472Y-67197673D01*
X112028007Y-67140822D01*
X112047646Y-67084699D01*
X112047646Y-67084692D01*
X112049230Y-67076322D01*
X112050500Y-67067899D01*
X112050500Y-67008426D01*
X112051656Y-66977519D01*
X112052724Y-66948990D01*
X112052722Y-66948984D01*
X112051667Y-66939608D01*
X112052528Y-66939510D01*
X112050500Y-66924102D01*
X112050500Y-59738792D01*
X112070502Y-59670671D01*
X112087400Y-59649702D01*
X113559698Y-58177405D01*
X113622010Y-58143379D01*
X113648793Y-58140500D01*
X130781157Y-58140500D01*
X130788211Y-58140895D01*
X130827035Y-58145270D01*
X130827035Y-58145269D01*
X130827036Y-58145270D01*
X130827036Y-58145269D01*
X130852397Y-58140470D01*
X130885478Y-58134212D01*
X130916636Y-58129515D01*
X130944287Y-58125348D01*
X130944295Y-58125343D01*
X130952472Y-58122821D01*
X130960472Y-58120023D01*
X131013073Y-58092222D01*
X131032422Y-58082904D01*
X131066642Y-58066425D01*
X131066646Y-58066421D01*
X131073685Y-58061622D01*
X131080531Y-58056569D01*
X131080538Y-58056566D01*
X131122599Y-58014504D01*
X131166194Y-57974055D01*
X131166197Y-57974048D01*
X131172081Y-57966672D01*
X131172762Y-57967215D01*
X131182219Y-57954883D01*
X132898170Y-56238931D01*
X132903414Y-56234245D01*
X132933970Y-56209879D01*
X132952344Y-56182927D01*
X133007241Y-56137912D01*
X133012646Y-56135766D01*
X133020753Y-56132764D01*
X133056851Y-56110263D01*
X133125237Y-56091205D01*
X133193075Y-56112145D01*
X133238824Y-56166437D01*
X133249499Y-56217193D01*
X133249500Y-62341034D01*
X133249500Y-64038413D01*
X133229498Y-64106534D01*
X133212595Y-64127508D01*
X131780594Y-65559509D01*
X131718282Y-65593535D01*
X131647467Y-65588470D01*
X131590631Y-65545923D01*
X131565820Y-65479403D01*
X131565500Y-65470441D01*
X131565500Y-65281898D01*
X131554877Y-65193436D01*
X131519930Y-65104818D01*
X131499361Y-65052658D01*
X131499358Y-65052654D01*
X131451283Y-64989258D01*
X131426061Y-64922897D01*
X131440721Y-64853431D01*
X131462587Y-64824031D01*
X131578890Y-64707728D01*
X131668847Y-64561884D01*
X131722742Y-64399241D01*
X131722744Y-64399229D01*
X131732999Y-64298852D01*
X131733000Y-64298852D01*
X131733000Y-64254000D01*
X130647000Y-64254000D01*
X130578879Y-64233998D01*
X130532386Y-64180342D01*
X130521000Y-64128000D01*
X130521000Y-63017000D01*
X131029000Y-63017000D01*
X131029000Y-63746000D01*
X131733000Y-63746000D01*
X131733000Y-63701147D01*
X131722744Y-63600770D01*
X131722742Y-63600758D01*
X131668847Y-63438115D01*
X131578890Y-63292271D01*
X131578885Y-63292265D01*
X131457734Y-63171114D01*
X131457728Y-63171109D01*
X131311884Y-63081152D01*
X131149241Y-63027257D01*
X131149229Y-63027255D01*
X131048852Y-63017000D01*
X131029000Y-63017000D01*
X130521000Y-63017000D01*
X130501147Y-63017000D01*
X130400770Y-63027255D01*
X130400758Y-63027257D01*
X130238115Y-63081152D01*
X130092271Y-63171109D01*
X129974447Y-63288933D01*
X129912135Y-63322958D01*
X129841319Y-63317892D01*
X129808650Y-63299801D01*
X129740233Y-63247302D01*
X129740229Y-63247300D01*
X129740227Y-63247299D01*
X129638791Y-63205282D01*
X129597915Y-63177969D01*
X128815591Y-62395645D01*
X128805460Y-62382999D01*
X128805256Y-62383169D01*
X128800203Y-62377061D01*
X128747755Y-62327809D01*
X128726043Y-62306097D01*
X128726035Y-62306089D01*
X128726029Y-62306084D01*
X128726021Y-62306077D01*
X128720278Y-62301622D01*
X128715763Y-62297766D01*
X128680397Y-62264555D01*
X128680392Y-62264551D01*
X128673910Y-62260988D01*
X128661930Y-62254401D01*
X128645407Y-62243548D01*
X128628765Y-62230639D01*
X128628764Y-62230638D01*
X128584222Y-62211362D01*
X128578900Y-62208755D01*
X128536372Y-62185374D01*
X128536361Y-62185370D01*
X128515954Y-62180130D01*
X128497257Y-62173729D01*
X128477923Y-62165363D01*
X128477924Y-62165363D01*
X128430001Y-62157773D01*
X128424187Y-62156569D01*
X128377181Y-62144501D01*
X128377180Y-62144500D01*
X128377177Y-62144500D01*
X128377174Y-62144500D01*
X128356116Y-62144500D01*
X128336405Y-62142949D01*
X128315594Y-62139652D01*
X128267279Y-62144220D01*
X128261346Y-62144500D01*
X114901456Y-62144500D01*
X114885350Y-62142722D01*
X114885326Y-62142986D01*
X114877434Y-62142240D01*
X114805527Y-62144500D01*
X114774805Y-62144500D01*
X114774799Y-62144500D01*
X114774793Y-62144501D01*
X114767573Y-62145413D01*
X114761661Y-62145878D01*
X114713164Y-62147402D01*
X114713159Y-62147403D01*
X114692929Y-62153280D01*
X114673577Y-62157287D01*
X114652676Y-62159927D01*
X114652674Y-62159928D01*
X114607545Y-62177794D01*
X114601931Y-62179716D01*
X114555332Y-62193255D01*
X114555326Y-62193258D01*
X114537194Y-62203981D01*
X114519447Y-62212676D01*
X114499857Y-62220432D01*
X114460602Y-62248952D01*
X114455641Y-62252211D01*
X114413864Y-62276918D01*
X114398969Y-62291814D01*
X114383942Y-62304648D01*
X114366896Y-62317033D01*
X114366893Y-62317036D01*
X114335951Y-62354437D01*
X114331955Y-62358828D01*
X112900641Y-63790141D01*
X112887996Y-63800275D01*
X112888164Y-63800478D01*
X112882060Y-63805527D01*
X112832809Y-63857974D01*
X112811086Y-63879697D01*
X112806620Y-63885454D01*
X112802772Y-63889959D01*
X112769551Y-63925337D01*
X112759405Y-63943794D01*
X112748553Y-63960314D01*
X112735642Y-63976959D01*
X112735637Y-63976968D01*
X112716367Y-64021496D01*
X112713755Y-64026827D01*
X112690373Y-64069360D01*
X112685130Y-64089779D01*
X112678729Y-64108474D01*
X112670364Y-64127804D01*
X112670362Y-64127811D01*
X112662773Y-64175730D01*
X112661569Y-64181544D01*
X112649500Y-64228552D01*
X112649500Y-64249614D01*
X112647949Y-64269324D01*
X112644653Y-64290134D01*
X112644653Y-64290135D01*
X112649220Y-64338450D01*
X112649500Y-64344382D01*
X112649499Y-68030512D01*
X112629497Y-68098633D01*
X112612594Y-68119607D01*
X111959312Y-68772889D01*
X111944283Y-68785727D01*
X111927238Y-68798112D01*
X111896296Y-68835512D01*
X111892300Y-68839903D01*
X111652897Y-69079305D01*
X111590585Y-69113331D01*
X111526819Y-69110660D01*
X111361217Y-69059813D01*
X111361212Y-69059812D01*
X111176838Y-69044798D01*
X111176835Y-69044798D01*
X110999771Y-69068923D01*
X110991256Y-69069500D01*
X107186738Y-69069500D01*
X107118605Y-69079427D01*
X107013517Y-69130801D01*
X107013514Y-69130803D01*
X106930803Y-69213514D01*
X106930801Y-69213517D01*
X106879427Y-69318605D01*
X106869500Y-69386738D01*
X106869500Y-70453261D01*
X106879427Y-70521394D01*
X106930801Y-70626482D01*
X106930803Y-70626485D01*
X107013514Y-70709196D01*
X107013517Y-70709198D01*
X107118607Y-70760573D01*
X107186740Y-70770500D01*
X108627503Y-70770500D01*
X111142877Y-70770500D01*
X111147985Y-70770707D01*
X111174108Y-70772834D01*
X111203163Y-70775201D01*
X111203164Y-70775200D01*
X111203167Y-70775201D01*
X111283392Y-70764270D01*
X111363910Y-70755514D01*
X111363911Y-70755513D01*
X111363916Y-70755513D01*
X111366351Y-70754976D01*
X111384028Y-70750834D01*
X111386463Y-70750227D01*
X111386468Y-70750227D01*
X111462486Y-70722299D01*
X111539221Y-70696444D01*
X111539224Y-70696441D01*
X111541482Y-70695397D01*
X111557922Y-70687519D01*
X111560108Y-70686434D01*
X111560116Y-70686432D01*
X111590091Y-70667272D01*
X111628353Y-70642816D01*
X111667450Y-70619292D01*
X111697736Y-70601070D01*
X111697745Y-70601060D01*
X111699713Y-70599566D01*
X111714056Y-70588353D01*
X111715985Y-70586802D01*
X111715989Y-70586800D01*
X111715991Y-70586797D01*
X111721316Y-70582518D01*
X111722110Y-70583506D01*
X111778186Y-70552879D01*
X111789178Y-70550992D01*
X111793070Y-70550500D01*
X111793075Y-70550500D01*
X111800309Y-70549585D01*
X111806202Y-70549121D01*
X111854719Y-70547597D01*
X111871842Y-70542622D01*
X111874944Y-70541721D01*
X111894300Y-70537711D01*
X111915208Y-70535071D01*
X111960337Y-70517202D01*
X111965938Y-70515284D01*
X111995339Y-70506743D01*
X112012546Y-70501745D01*
X112015258Y-70500141D01*
X112030679Y-70491020D01*
X112048435Y-70482321D01*
X112068021Y-70474568D01*
X112107278Y-70446045D01*
X112112239Y-70442787D01*
X112112906Y-70442392D01*
X112154015Y-70418081D01*
X112168912Y-70403183D01*
X112183946Y-70390342D01*
X112200987Y-70377963D01*
X112231925Y-70340563D01*
X112235915Y-70336180D01*
X112608617Y-69963479D01*
X112670929Y-69929454D01*
X112697712Y-69926575D01*
X114086000Y-69926575D01*
X114154121Y-69946577D01*
X114200614Y-70000233D01*
X114212000Y-70052575D01*
X114212000Y-70101774D01*
X114210222Y-70117879D01*
X114210486Y-70117904D01*
X114209740Y-70125795D01*
X114212000Y-70197703D01*
X114212000Y-70228418D01*
X114212001Y-70228438D01*
X114212912Y-70235655D01*
X114213378Y-70241568D01*
X114214902Y-70290067D01*
X114214903Y-70290070D01*
X114220780Y-70310302D01*
X114224787Y-70329653D01*
X114227427Y-70350551D01*
X114227431Y-70350564D01*
X114245292Y-70395677D01*
X114247215Y-70401293D01*
X114260755Y-70447897D01*
X114260756Y-70447899D01*
X114271479Y-70466031D01*
X114280176Y-70483784D01*
X114287928Y-70503364D01*
X114287932Y-70503371D01*
X114316448Y-70542622D01*
X114319707Y-70547582D01*
X114344418Y-70589364D01*
X114344421Y-70589368D01*
X114359312Y-70604259D01*
X114372152Y-70619292D01*
X114384534Y-70636333D01*
X114384536Y-70636336D01*
X114421931Y-70667272D01*
X114426312Y-70671258D01*
X114510030Y-70754976D01*
X114587594Y-70832540D01*
X114621620Y-70894852D01*
X114624499Y-70921634D01*
X114624499Y-71018098D01*
X114624500Y-71018105D01*
X114635122Y-71106564D01*
X114690638Y-71247341D01*
X114690641Y-71247345D01*
X114782077Y-71367922D01*
X114902654Y-71459358D01*
X114902658Y-71459361D01*
X114962057Y-71482785D01*
X115018090Y-71526384D01*
X115041657Y-71593355D01*
X115025275Y-71662435D01*
X114974146Y-71711693D01*
X114962058Y-71717214D01*
X114902658Y-71740639D01*
X114902657Y-71740639D01*
X114902656Y-71740640D01*
X114902654Y-71740641D01*
X114782077Y-71832077D01*
X114711890Y-71924634D01*
X114654792Y-71966827D01*
X114611493Y-71974500D01*
X113543843Y-71974500D01*
X113536788Y-71974104D01*
X113497965Y-71969730D01*
X113497964Y-71969730D01*
X113497963Y-71969730D01*
X113497962Y-71969730D01*
X113454131Y-71978023D01*
X113439520Y-71980788D01*
X113380713Y-71989652D01*
X113380710Y-71989653D01*
X113380711Y-71989653D01*
X113372525Y-71992177D01*
X113364528Y-71994976D01*
X113311926Y-72022777D01*
X113258362Y-72048572D01*
X113251293Y-72053391D01*
X113244462Y-72058433D01*
X113202400Y-72100495D01*
X113158808Y-72140941D01*
X113152923Y-72148322D01*
X113152247Y-72147783D01*
X113142782Y-72160112D01*
X110980300Y-74322596D01*
X110917990Y-74356620D01*
X110891207Y-74359500D01*
X110851012Y-74359500D01*
X110697630Y-74397305D01*
X110690506Y-74400007D01*
X110689460Y-74397250D01*
X110633221Y-74408506D01*
X110567124Y-74382589D01*
X110531107Y-74338333D01*
X110509198Y-74293517D01*
X110509196Y-74293515D01*
X110509196Y-74293514D01*
X110426485Y-74210803D01*
X110426482Y-74210801D01*
X110321394Y-74159427D01*
X110253261Y-74149500D01*
X110253260Y-74149500D01*
X107186740Y-74149500D01*
X107186738Y-74149500D01*
X107118605Y-74159427D01*
X107013517Y-74210801D01*
X107013514Y-74210803D01*
X106930803Y-74293514D01*
X106930801Y-74293517D01*
X106879427Y-74398605D01*
X106869500Y-74466738D01*
X106869500Y-75533261D01*
X106879427Y-75601394D01*
X106930801Y-75706482D01*
X106930803Y-75706485D01*
X107013514Y-75789196D01*
X107013517Y-75789198D01*
X107118607Y-75840573D01*
X107186740Y-75850500D01*
X107186745Y-75850500D01*
X110253255Y-75850500D01*
X110253260Y-75850500D01*
X110321393Y-75840573D01*
X110426483Y-75789198D01*
X110509198Y-75706483D01*
X110523325Y-75677584D01*
X110571212Y-75625169D01*
X110639835Y-75606965D01*
X110690453Y-75620149D01*
X110690512Y-75619994D01*
X110691950Y-75620539D01*
X110695078Y-75621354D01*
X110697633Y-75622695D01*
X110697635Y-75622696D01*
X110697638Y-75622697D01*
X110768016Y-75640043D01*
X110851015Y-75660500D01*
X110851017Y-75660500D01*
X111008983Y-75660500D01*
X111008985Y-75660500D01*
X111162365Y-75622696D01*
X111302240Y-75549283D01*
X111420483Y-75444530D01*
X111510220Y-75314523D01*
X111566237Y-75166818D01*
X111566237Y-75166817D01*
X111566238Y-75166815D01*
X111582549Y-75032475D01*
X111610615Y-74967262D01*
X111618524Y-74958578D01*
X113664698Y-72912404D01*
X113727010Y-72878379D01*
X113753793Y-72875500D01*
X114611493Y-72875500D01*
X114679614Y-72895502D01*
X114711890Y-72925366D01*
X114782077Y-73017922D01*
X114902654Y-73109358D01*
X114902658Y-73109361D01*
X115043435Y-73164877D01*
X115043434Y-73164877D01*
X115071394Y-73168234D01*
X115131898Y-73175500D01*
X115131901Y-73175500D01*
X115768099Y-73175500D01*
X115768102Y-73175500D01*
X115856564Y-73164877D01*
X115997342Y-73109361D01*
X116117922Y-73017922D01*
X116124602Y-73009112D01*
X116181700Y-72966920D01*
X116252546Y-72962294D01*
X116314646Y-72996705D01*
X116325397Y-73009112D01*
X116332077Y-73017922D01*
X116332078Y-73017922D01*
X116452654Y-73109358D01*
X116452658Y-73109361D01*
X116593435Y-73164877D01*
X116593434Y-73164877D01*
X116621394Y-73168234D01*
X116681898Y-73175500D01*
X116681901Y-73175500D01*
X117318099Y-73175500D01*
X117318102Y-73175500D01*
X117406564Y-73164877D01*
X117547342Y-73109361D01*
X117667922Y-73017922D01*
X117747183Y-72913399D01*
X117804280Y-72871209D01*
X117828800Y-72864942D01*
X117859287Y-72860348D01*
X117859295Y-72860343D01*
X117867472Y-72857821D01*
X117875472Y-72855023D01*
X117928073Y-72827222D01*
X117945484Y-72818836D01*
X117981642Y-72801425D01*
X117981646Y-72801421D01*
X117988685Y-72796622D01*
X117995531Y-72791569D01*
X117995538Y-72791566D01*
X118037599Y-72749504D01*
X118081194Y-72709055D01*
X118081197Y-72709048D01*
X118087081Y-72701672D01*
X118087761Y-72702214D01*
X118097217Y-72689885D01*
X118798166Y-71988935D01*
X118803418Y-71984241D01*
X118833970Y-71959879D01*
X118867480Y-71910728D01*
X118902793Y-71862882D01*
X118902793Y-71862879D01*
X118902795Y-71862878D01*
X118906781Y-71855336D01*
X118910471Y-71847674D01*
X118910470Y-71847674D01*
X118910472Y-71847673D01*
X118928007Y-71790822D01*
X118947646Y-71734699D01*
X118947646Y-71734696D01*
X118949229Y-71726330D01*
X118950500Y-71717901D01*
X118950500Y-71658441D01*
X118951198Y-71639792D01*
X118952725Y-71598990D01*
X118952723Y-71598985D01*
X118951668Y-71589605D01*
X118952527Y-71589508D01*
X118950500Y-71574096D01*
X118950500Y-69281499D01*
X118970502Y-69213378D01*
X119024158Y-69166885D01*
X119076495Y-69155499D01*
X120647872Y-69155499D01*
X120707483Y-69149091D01*
X120821646Y-69106510D01*
X120842326Y-69098798D01*
X120842326Y-69098797D01*
X120842331Y-69098796D01*
X120957546Y-69012546D01*
X121043796Y-68897331D01*
X121045115Y-68893796D01*
X121065215Y-68839903D01*
X121094091Y-68762483D01*
X121094465Y-68759000D01*
X125345007Y-68759000D01*
X125391318Y-68918401D01*
X125475948Y-69061501D01*
X125475949Y-69061503D01*
X125593496Y-69179050D01*
X125593498Y-69179051D01*
X125736598Y-69263681D01*
X125896251Y-69310065D01*
X125896249Y-69310065D01*
X125933539Y-69313000D01*
X125933540Y-69313000D01*
X126546000Y-69312999D01*
X126546000Y-68759000D01*
X125345007Y-68759000D01*
X121094465Y-68759000D01*
X121100500Y-68702873D01*
X121100499Y-68307128D01*
X121094091Y-68247517D01*
X121072800Y-68190435D01*
X121043798Y-68112673D01*
X121043796Y-68112670D01*
X121043796Y-68112669D01*
X120957546Y-67997454D01*
X120922028Y-67970865D01*
X120879485Y-67914033D01*
X120874419Y-67843217D01*
X120908444Y-67780905D01*
X120922017Y-67769142D01*
X120957546Y-67742546D01*
X121043796Y-67627331D01*
X121094091Y-67492483D01*
X121100500Y-67432873D01*
X121100499Y-67037128D01*
X121094091Y-66977517D01*
X121068722Y-66909498D01*
X121043798Y-66842673D01*
X121043796Y-66842670D01*
X121043796Y-66842669D01*
X120957546Y-66727454D01*
X120922028Y-66700865D01*
X120879485Y-66644033D01*
X120874419Y-66573217D01*
X120908444Y-66510905D01*
X120922017Y-66499142D01*
X120957546Y-66472546D01*
X121043796Y-66357331D01*
X121043823Y-66357260D01*
X121066170Y-66297342D01*
X121094091Y-66222483D01*
X121100500Y-66162873D01*
X121100499Y-65767128D01*
X121094091Y-65707517D01*
X121056713Y-65607301D01*
X121043798Y-65572673D01*
X121043796Y-65572670D01*
X121043796Y-65572669D01*
X120957546Y-65457454D01*
X120922028Y-65430865D01*
X120879485Y-65374033D01*
X120874419Y-65303217D01*
X120908444Y-65240905D01*
X120922017Y-65229142D01*
X120957546Y-65202546D01*
X121043796Y-65087331D01*
X121094091Y-64952483D01*
X121100500Y-64892873D01*
X121100499Y-64497128D01*
X121094091Y-64437517D01*
X121059158Y-64343857D01*
X121043798Y-64302673D01*
X121043796Y-64302670D01*
X121043796Y-64302669D01*
X120984911Y-64224009D01*
X120957546Y-64187453D01*
X120852042Y-64108474D01*
X120842331Y-64101204D01*
X120842329Y-64101203D01*
X120842326Y-64101201D01*
X120707483Y-64050909D01*
X120707486Y-64050909D01*
X120647873Y-64044500D01*
X118952135Y-64044500D01*
X118952114Y-64044502D01*
X118892519Y-64050908D01*
X118892518Y-64050908D01*
X118757673Y-64101201D01*
X118757670Y-64101203D01*
X118642453Y-64187453D01*
X118556203Y-64302670D01*
X118556202Y-64302671D01*
X118503906Y-64442885D01*
X118474946Y-64487948D01*
X118150782Y-64812115D01*
X118088470Y-64846140D01*
X118061686Y-64849020D01*
X118021492Y-64849020D01*
X117868118Y-64886822D01*
X117868114Y-64886824D01*
X117728239Y-64960237D01*
X117703666Y-64982007D01*
X117639412Y-65012206D01*
X117569032Y-65002874D01*
X117555002Y-64994594D01*
X117554852Y-64994862D01*
X117547341Y-64990638D01*
X117406564Y-64935122D01*
X117406565Y-64935122D01*
X117318105Y-64924500D01*
X117318102Y-64924500D01*
X116831898Y-64924500D01*
X116831894Y-64924500D01*
X116743435Y-64935122D01*
X116602658Y-64990638D01*
X116602654Y-64990641D01*
X116482079Y-65082076D01*
X116445527Y-65130277D01*
X116388427Y-65172469D01*
X116317582Y-65177094D01*
X116255482Y-65142682D01*
X116237301Y-65119326D01*
X116186421Y-65035159D01*
X116186413Y-65035149D01*
X116064850Y-64913586D01*
X116064840Y-64913578D01*
X115917706Y-64824633D01*
X115753552Y-64773481D01*
X115682223Y-64767000D01*
X115679000Y-64767000D01*
X115679000Y-65878000D01*
X115658998Y-65946121D01*
X115605342Y-65992614D01*
X115553000Y-66004000D01*
X114517001Y-66004000D01*
X114517001Y-66082221D01*
X114523481Y-66153553D01*
X114574633Y-66317706D01*
X114663578Y-66464840D01*
X114663586Y-66464850D01*
X114683141Y-66484405D01*
X114717167Y-66546717D01*
X114712102Y-66617532D01*
X114669555Y-66674368D01*
X114603035Y-66699179D01*
X114594046Y-66699500D01*
X114227135Y-66699500D01*
X114227114Y-66699502D01*
X114167519Y-66705908D01*
X114167517Y-66705908D01*
X114120531Y-66723433D01*
X114049715Y-66728497D01*
X113987403Y-66694471D01*
X113953379Y-66632158D01*
X113950500Y-66605377D01*
X113950500Y-65417777D01*
X114516999Y-65417777D01*
X114517000Y-65496000D01*
X115171000Y-65496000D01*
X115170999Y-64767000D01*
X115167768Y-64767001D01*
X115096446Y-64773481D01*
X114932293Y-64824633D01*
X114785159Y-64913578D01*
X114785149Y-64913586D01*
X114663586Y-65035149D01*
X114663578Y-65035159D01*
X114574633Y-65182293D01*
X114523481Y-65346446D01*
X114523481Y-65346447D01*
X114516999Y-65417777D01*
X113950500Y-65417777D01*
X113950500Y-64632366D01*
X113970502Y-64564245D01*
X113987405Y-64543271D01*
X115048271Y-63482405D01*
X115110583Y-63448379D01*
X115137366Y-63445500D01*
X115622823Y-63445500D01*
X127430362Y-63445500D01*
X127498483Y-63465502D01*
X127544976Y-63519158D01*
X127555080Y-63589432D01*
X127525586Y-63654012D01*
X127519458Y-63660595D01*
X127172459Y-64007595D01*
X127110146Y-64041620D01*
X127083363Y-64044500D01*
X125952135Y-64044500D01*
X125952114Y-64044502D01*
X125892519Y-64050908D01*
X125892518Y-64050908D01*
X125757673Y-64101201D01*
X125757670Y-64101203D01*
X125642453Y-64187453D01*
X125556203Y-64302670D01*
X125556201Y-64302673D01*
X125505909Y-64437515D01*
X125499500Y-64497121D01*
X125499500Y-64892864D01*
X125499502Y-64892885D01*
X125505908Y-64952480D01*
X125505908Y-64952481D01*
X125556201Y-65087326D01*
X125556203Y-65087329D01*
X125556204Y-65087331D01*
X125597640Y-65142682D01*
X125642452Y-65202544D01*
X125642454Y-65202546D01*
X125677968Y-65229132D01*
X125720514Y-65285966D01*
X125725580Y-65356781D01*
X125691555Y-65419094D01*
X125677970Y-65430866D01*
X125642453Y-65457454D01*
X125556203Y-65572670D01*
X125556201Y-65572673D01*
X125505909Y-65707515D01*
X125499500Y-65767121D01*
X125499500Y-66162864D01*
X125499502Y-66162885D01*
X125505908Y-66222480D01*
X125505908Y-66222481D01*
X125556201Y-66357326D01*
X125556203Y-66357329D01*
X125556204Y-66357331D01*
X125573679Y-66380674D01*
X125642452Y-66472544D01*
X125642453Y-66472544D01*
X125642454Y-66472546D01*
X125677969Y-66499133D01*
X125720515Y-66555968D01*
X125725579Y-66626784D01*
X125691554Y-66689096D01*
X125677973Y-66700863D01*
X125663893Y-66711405D01*
X125642452Y-66727455D01*
X125556203Y-66842670D01*
X125556201Y-66842673D01*
X125505909Y-66977515D01*
X125499500Y-67037121D01*
X125499500Y-67432864D01*
X125499502Y-67432885D01*
X125505908Y-67492480D01*
X125505908Y-67492481D01*
X125556201Y-67627326D01*
X125556203Y-67627329D01*
X125556204Y-67627331D01*
X125573779Y-67650808D01*
X125593912Y-67677702D01*
X125618723Y-67744222D01*
X125603632Y-67813596D01*
X125582140Y-67842306D01*
X125475947Y-67948499D01*
X125391318Y-68091598D01*
X125345007Y-68251000D01*
X126928000Y-68251000D01*
X126996121Y-68271002D01*
X127042614Y-68324658D01*
X127054000Y-68377000D01*
X127054000Y-69312999D01*
X127666458Y-69312999D01*
X127703750Y-69310065D01*
X127863400Y-69263681D01*
X128006499Y-69179052D01*
X128058968Y-69126584D01*
X128121280Y-69092559D01*
X128192095Y-69097623D01*
X128248932Y-69140169D01*
X128270859Y-69197276D01*
X128272180Y-69197014D01*
X128273480Y-69203550D01*
X128324633Y-69367706D01*
X128413578Y-69514840D01*
X128413586Y-69514850D01*
X128535149Y-69636413D01*
X128535159Y-69636421D01*
X128682294Y-69725366D01*
X128798937Y-69761714D01*
X128858023Y-69801077D01*
X128886448Y-69866135D01*
X128875188Y-69936233D01*
X128827817Y-69989115D01*
X128807677Y-69999224D01*
X128702656Y-70040639D01*
X128702654Y-70040641D01*
X128582077Y-70132077D01*
X128490641Y-70252654D01*
X128490638Y-70252658D01*
X128435122Y-70393435D01*
X128424500Y-70481894D01*
X128424500Y-71118105D01*
X128435122Y-71206564D01*
X128490638Y-71347341D01*
X128490641Y-71347345D01*
X128586585Y-71473866D01*
X128611809Y-71540231D01*
X128597148Y-71609697D01*
X128586585Y-71626134D01*
X128490641Y-71752654D01*
X128490638Y-71752658D01*
X128435122Y-71893435D01*
X128424500Y-71981894D01*
X128424500Y-72618105D01*
X128435122Y-72706564D01*
X128490638Y-72847341D01*
X128490641Y-72847345D01*
X128582077Y-72967922D01*
X128587131Y-72971754D01*
X128629326Y-73028851D01*
X128637000Y-73072153D01*
X128637000Y-73942671D01*
X128636604Y-73949727D01*
X128632230Y-73988550D01*
X128643288Y-74046994D01*
X128647679Y-74076128D01*
X128648093Y-74078873D01*
X128649500Y-74097650D01*
X128649500Y-76007355D01*
X128629498Y-76075476D01*
X128614138Y-76093401D01*
X128614569Y-76093783D01*
X128609515Y-76099487D01*
X128519783Y-76229485D01*
X128519782Y-76229488D01*
X128463761Y-76377199D01*
X128444722Y-76534011D01*
X128444722Y-76534018D01*
X128463761Y-76690830D01*
X128491771Y-76764685D01*
X128519780Y-76838538D01*
X128519781Y-76838540D01*
X128519782Y-76838541D01*
X128519783Y-76838544D01*
X128607655Y-76965848D01*
X128609517Y-76968545D01*
X128727760Y-77073298D01*
X128867635Y-77146711D01*
X128867636Y-77146711D01*
X128867638Y-77146712D01*
X128944325Y-77165613D01*
X129021015Y-77184515D01*
X129021017Y-77184515D01*
X129178983Y-77184515D01*
X129178985Y-77184515D01*
X129332365Y-77146711D01*
X129472240Y-77073298D01*
X129590483Y-76968545D01*
X129680220Y-76838538D01*
X129736237Y-76690833D01*
X129736237Y-76690832D01*
X129736238Y-76690830D01*
X129755278Y-76534018D01*
X129755278Y-76534011D01*
X129736238Y-76377199D01*
X129728392Y-76356513D01*
X129680220Y-76229492D01*
X129680216Y-76229487D01*
X129680216Y-76229485D01*
X129618649Y-76140290D01*
X129590483Y-76099485D01*
X129590479Y-76099481D01*
X129585431Y-76093783D01*
X129587080Y-76092321D01*
X129555217Y-76041508D01*
X129550500Y-76007355D01*
X129550500Y-74012857D01*
X129550896Y-74005797D01*
X129555270Y-73966980D01*
X129544210Y-73908526D01*
X129539406Y-73876657D01*
X129538000Y-73857879D01*
X129538000Y-73188235D01*
X129558002Y-73120114D01*
X129611658Y-73073621D01*
X129617764Y-73071024D01*
X129647342Y-73059361D01*
X129767922Y-72967922D01*
X129859361Y-72847342D01*
X129882785Y-72787942D01*
X129926383Y-72731910D01*
X129993354Y-72708342D01*
X130062435Y-72724723D01*
X130111693Y-72775852D01*
X130117215Y-72787943D01*
X130140638Y-72847341D01*
X130140641Y-72847345D01*
X130232077Y-72967922D01*
X130352654Y-73059358D01*
X130352658Y-73059361D01*
X130382223Y-73071020D01*
X130438256Y-73114618D01*
X130461824Y-73181589D01*
X130461999Y-73188235D01*
X130461999Y-75095047D01*
X130441997Y-75163168D01*
X130439697Y-75166620D01*
X130419782Y-75195473D01*
X130363761Y-75343184D01*
X130344722Y-75499996D01*
X130344722Y-75500003D01*
X130363761Y-75656815D01*
X130377279Y-75692458D01*
X130419780Y-75804523D01*
X130419781Y-75804525D01*
X130419782Y-75804526D01*
X130419783Y-75804529D01*
X130500398Y-75921319D01*
X130509517Y-75934530D01*
X130627760Y-76039283D01*
X130767635Y-76112696D01*
X130767636Y-76112696D01*
X130767638Y-76112697D01*
X130844324Y-76131598D01*
X130921015Y-76150500D01*
X130921017Y-76150500D01*
X131078983Y-76150500D01*
X131078985Y-76150500D01*
X131087582Y-76148381D01*
X131093345Y-76146961D01*
X131164274Y-76150079D01*
X131222256Y-76191048D01*
X131248885Y-76256862D01*
X131249500Y-76269299D01*
X131249500Y-86388414D01*
X131229498Y-86456535D01*
X131212595Y-86477509D01*
X128837510Y-88852595D01*
X128775198Y-88886620D01*
X128748415Y-88889500D01*
X108661034Y-88889500D01*
X108625745Y-88892587D01*
X108484588Y-88904937D01*
X108256338Y-88966096D01*
X108256334Y-88966098D01*
X108042167Y-89065966D01*
X107848607Y-89201498D01*
X107848596Y-89201507D01*
X107697509Y-89352595D01*
X107635197Y-89386621D01*
X107608414Y-89389500D01*
X107186738Y-89389500D01*
X107118605Y-89399427D01*
X107013517Y-89450801D01*
X107013514Y-89450803D01*
X106930803Y-89533514D01*
X106930801Y-89533517D01*
X106879427Y-89638605D01*
X106869500Y-89706738D01*
X106869500Y-90773261D01*
X106879427Y-90841394D01*
X106930801Y-90946482D01*
X106930803Y-90946485D01*
X107013514Y-91029196D01*
X107013517Y-91029198D01*
X107118607Y-91080573D01*
X107186740Y-91090500D01*
X107608414Y-91090500D01*
X107676535Y-91110502D01*
X107697509Y-91127405D01*
X107848599Y-91278495D01*
X107848602Y-91278497D01*
X108031819Y-91406787D01*
X108076147Y-91462244D01*
X108083456Y-91532863D01*
X108051425Y-91596224D01*
X108031819Y-91613213D01*
X107848602Y-91741502D01*
X107848596Y-91741507D01*
X107697509Y-91892595D01*
X107635197Y-91926621D01*
X107608414Y-91929500D01*
X107186738Y-91929500D01*
X107118605Y-91939427D01*
X107013517Y-91990801D01*
X107013514Y-91990803D01*
X106930803Y-92073514D01*
X106930801Y-92073517D01*
X106879427Y-92178605D01*
X106869500Y-92246738D01*
X106869500Y-93313261D01*
X105530500Y-93313261D01*
X105530500Y-93313260D01*
X105530500Y-92246740D01*
X105520573Y-92178607D01*
X105469198Y-92073517D01*
X105469196Y-92073514D01*
X105386485Y-91990803D01*
X105386482Y-91990801D01*
X105281394Y-91939427D01*
X105213261Y-91929500D01*
X105213260Y-91929500D01*
X102270793Y-91929500D01*
X102202672Y-91909498D01*
X102181698Y-91892595D01*
X101839103Y-91550000D01*
X105619534Y-91550000D01*
X105639312Y-91700234D01*
X105697301Y-91840231D01*
X105697306Y-91840239D01*
X105789548Y-91960451D01*
X105909760Y-92052693D01*
X105909767Y-92052698D01*
X106049764Y-92110687D01*
X106200000Y-92130466D01*
X106350236Y-92110687D01*
X106490233Y-92052698D01*
X106610451Y-91960451D01*
X106702698Y-91840233D01*
X106760687Y-91700236D01*
X106780466Y-91550000D01*
X106760687Y-91399764D01*
X106702698Y-91259767D01*
X106702693Y-91259760D01*
X106610451Y-91139548D01*
X106490239Y-91047306D01*
X106490231Y-91047301D01*
X106350234Y-90989312D01*
X106200000Y-90969534D01*
X106049765Y-90989312D01*
X105909768Y-91047301D01*
X105909760Y-91047306D01*
X105789548Y-91139548D01*
X105697306Y-91259760D01*
X105697301Y-91259768D01*
X105639312Y-91399765D01*
X105619534Y-91549999D01*
X105619534Y-91550000D01*
X101839103Y-91550000D01*
X101704535Y-91415432D01*
X101670509Y-91353120D01*
X101668549Y-91341524D01*
X101652238Y-91207184D01*
X101626587Y-91139548D01*
X101596220Y-91059477D01*
X101594282Y-91056670D01*
X101587816Y-91047302D01*
X101518116Y-90946324D01*
X101495882Y-90878903D01*
X101513629Y-90810160D01*
X101518097Y-90803206D01*
X101558328Y-90744921D01*
X101613487Y-90700223D01*
X101662023Y-90690500D01*
X101708470Y-90690500D01*
X101776591Y-90710502D01*
X101823084Y-90764158D01*
X101833152Y-90798331D01*
X101838139Y-90832559D01*
X101839427Y-90841394D01*
X101890801Y-90946482D01*
X101890803Y-90946485D01*
X101973514Y-91029196D01*
X101973517Y-91029198D01*
X102078607Y-91080573D01*
X102146740Y-91090500D01*
X102146745Y-91090500D01*
X105213255Y-91090500D01*
X105213260Y-91090500D01*
X105281393Y-91080573D01*
X105386483Y-91029198D01*
X105469198Y-90946483D01*
X105520573Y-90841393D01*
X105530500Y-90773260D01*
X105530500Y-89706740D01*
X105520573Y-89638607D01*
X105469198Y-89533517D01*
X105469196Y-89533514D01*
X105386485Y-89450803D01*
X105386482Y-89450801D01*
X105281394Y-89399427D01*
X105213261Y-89389500D01*
X105213260Y-89389500D01*
X102153793Y-89389500D01*
X102085672Y-89369498D01*
X102039179Y-89315842D01*
X102029075Y-89245568D01*
X102058569Y-89180988D01*
X102064698Y-89174405D01*
X102262703Y-88976400D01*
X105619534Y-88976400D01*
X105639312Y-89126634D01*
X105697301Y-89266631D01*
X105697306Y-89266639D01*
X105789548Y-89386851D01*
X105872892Y-89450803D01*
X105909767Y-89479098D01*
X106049764Y-89537087D01*
X106200000Y-89556866D01*
X106350236Y-89537087D01*
X106490233Y-89479098D01*
X106610451Y-89386851D01*
X106702698Y-89266633D01*
X106760687Y-89126636D01*
X106780466Y-88976400D01*
X106780058Y-88973304D01*
X106760687Y-88826165D01*
X106702698Y-88686168D01*
X106702698Y-88686167D01*
X106640817Y-88605522D01*
X106610451Y-88565948D01*
X106490239Y-88473706D01*
X106490231Y-88473701D01*
X106350234Y-88415712D01*
X106200000Y-88395934D01*
X106049765Y-88415712D01*
X105909768Y-88473701D01*
X105909760Y-88473706D01*
X105789548Y-88565948D01*
X105697306Y-88686160D01*
X105697301Y-88686168D01*
X105639312Y-88826165D01*
X105619534Y-88976399D01*
X105619534Y-88976400D01*
X102262703Y-88976400D01*
X102651698Y-88587405D01*
X102714010Y-88553379D01*
X102740793Y-88550500D01*
X105213255Y-88550500D01*
X105213260Y-88550500D01*
X105281393Y-88540573D01*
X105386483Y-88489198D01*
X105469198Y-88406483D01*
X105520573Y-88301393D01*
X105530500Y-88233261D01*
X106869500Y-88233261D01*
X106879427Y-88301394D01*
X106930801Y-88406482D01*
X106930803Y-88406485D01*
X107013514Y-88489196D01*
X107013517Y-88489198D01*
X107118607Y-88540573D01*
X107186740Y-88550500D01*
X107186745Y-88550500D01*
X110253255Y-88550500D01*
X110253260Y-88550500D01*
X110321393Y-88540573D01*
X110426483Y-88489198D01*
X110509198Y-88406483D01*
X110560573Y-88301393D01*
X110566846Y-88258333D01*
X110596460Y-88193809D01*
X110656258Y-88155538D01*
X110691530Y-88150500D01*
X110844607Y-88150500D01*
X110912728Y-88170502D01*
X110928160Y-88182187D01*
X111037760Y-88279283D01*
X111177635Y-88352696D01*
X111177636Y-88352696D01*
X111177638Y-88352697D01*
X111254324Y-88371598D01*
X111331015Y-88390500D01*
X111331017Y-88390500D01*
X111488983Y-88390500D01*
X111488985Y-88390500D01*
X111642365Y-88352696D01*
X111782240Y-88279283D01*
X111900483Y-88174530D01*
X111990220Y-88044523D01*
X112046237Y-87896818D01*
X112046237Y-87896817D01*
X112046238Y-87896815D01*
X112065278Y-87740003D01*
X112065278Y-87739996D01*
X112046238Y-87583184D01*
X112020307Y-87514811D01*
X111990220Y-87435477D01*
X111990216Y-87435472D01*
X111990216Y-87435470D01*
X111900483Y-87305470D01*
X111900481Y-87305468D01*
X111782240Y-87200717D01*
X111642365Y-87127304D01*
X111642361Y-87127302D01*
X111488987Y-87089500D01*
X111488985Y-87089500D01*
X111331015Y-87089500D01*
X111331012Y-87089500D01*
X111177638Y-87127302D01*
X111177634Y-87127304D01*
X111078781Y-87179187D01*
X111037760Y-87200717D01*
X111018460Y-87217814D01*
X110954208Y-87248013D01*
X110934910Y-87249500D01*
X110691530Y-87249500D01*
X110623409Y-87229498D01*
X110576916Y-87175842D01*
X110566847Y-87141668D01*
X110560573Y-87098607D01*
X110509198Y-86993517D01*
X110509196Y-86993514D01*
X110426485Y-86910803D01*
X110426482Y-86910801D01*
X110321394Y-86859427D01*
X110253261Y-86849500D01*
X110253260Y-86849500D01*
X107186740Y-86849500D01*
X107186738Y-86849500D01*
X107118605Y-86859427D01*
X107013517Y-86910801D01*
X107013514Y-86910803D01*
X106930803Y-86993514D01*
X106930801Y-86993517D01*
X106879427Y-87098605D01*
X106869500Y-87166738D01*
X106869500Y-88233261D01*
X105530500Y-88233261D01*
X105530500Y-88233260D01*
X105530500Y-87166740D01*
X105520573Y-87098607D01*
X105469198Y-86993517D01*
X105469196Y-86993514D01*
X105386485Y-86910803D01*
X105386482Y-86910801D01*
X105281394Y-86859427D01*
X105213261Y-86849500D01*
X105213260Y-86849500D01*
X102146740Y-86849500D01*
X102146738Y-86849500D01*
X102078605Y-86859427D01*
X101973517Y-86910801D01*
X101973514Y-86910803D01*
X101890803Y-86993514D01*
X101890801Y-86993517D01*
X101839427Y-87098605D01*
X101829500Y-87166738D01*
X101829500Y-88083206D01*
X101809498Y-88151327D01*
X101792596Y-88172300D01*
X101066300Y-88898596D01*
X101003990Y-88932620D01*
X100977207Y-88935500D01*
X100937012Y-88935500D01*
X100783638Y-88973302D01*
X100783633Y-88973305D01*
X100744554Y-88993815D01*
X100674941Y-89007761D01*
X100608839Y-88981857D01*
X100567235Y-88924328D01*
X100560000Y-88882247D01*
X100560000Y-85717752D01*
X100580002Y-85649631D01*
X100633658Y-85603138D01*
X100703932Y-85593034D01*
X100744553Y-85606184D01*
X100783635Y-85626696D01*
X100783636Y-85626696D01*
X100783638Y-85626697D01*
X100860324Y-85645598D01*
X100937015Y-85664500D01*
X100937017Y-85664500D01*
X101094983Y-85664500D01*
X101094985Y-85664500D01*
X101248365Y-85626696D01*
X101248367Y-85626695D01*
X101251727Y-85624932D01*
X101255414Y-85624023D01*
X101255494Y-85623993D01*
X101255497Y-85624002D01*
X101310281Y-85610500D01*
X101708470Y-85610500D01*
X101776591Y-85630502D01*
X101823084Y-85684158D01*
X101833152Y-85718331D01*
X101837879Y-85750767D01*
X101839427Y-85761394D01*
X101890801Y-85866482D01*
X101890803Y-85866485D01*
X101973514Y-85949196D01*
X101973517Y-85949198D01*
X102078607Y-86000573D01*
X102146740Y-86010500D01*
X102146745Y-86010500D01*
X105213255Y-86010500D01*
X105213260Y-86010500D01*
X105281393Y-86000573D01*
X105386483Y-85949198D01*
X105469198Y-85866483D01*
X105520573Y-85761393D01*
X105530500Y-85693261D01*
X106869500Y-85693261D01*
X106879427Y-85761394D01*
X106930801Y-85866482D01*
X106930803Y-85866485D01*
X107013514Y-85949196D01*
X107013517Y-85949198D01*
X107118607Y-86000573D01*
X107186740Y-86010500D01*
X107186745Y-86010500D01*
X110253255Y-86010500D01*
X110253260Y-86010500D01*
X110321393Y-86000573D01*
X110426483Y-85949198D01*
X110509198Y-85866483D01*
X110560573Y-85761393D01*
X110566846Y-85718333D01*
X110596460Y-85653809D01*
X110656258Y-85615538D01*
X110691530Y-85610500D01*
X110809864Y-85610500D01*
X110877985Y-85630502D01*
X110913559Y-85664923D01*
X110939517Y-85702530D01*
X111057760Y-85807283D01*
X111197635Y-85880696D01*
X111197636Y-85880696D01*
X111197638Y-85880697D01*
X111268937Y-85898270D01*
X111351015Y-85918500D01*
X111351017Y-85918500D01*
X111508983Y-85918500D01*
X111508985Y-85918500D01*
X111662365Y-85880696D01*
X111802240Y-85807283D01*
X111920483Y-85702530D01*
X112010220Y-85572523D01*
X112066237Y-85424818D01*
X112066237Y-85424817D01*
X112066238Y-85424815D01*
X112085278Y-85268003D01*
X112085278Y-85267996D01*
X112066238Y-85111184D01*
X112058392Y-85090498D01*
X112010220Y-84963477D01*
X112010216Y-84963472D01*
X112010216Y-84963470D01*
X111920483Y-84833470D01*
X111920481Y-84833468D01*
X111802240Y-84728717D01*
X111662365Y-84655304D01*
X111662361Y-84655302D01*
X111508987Y-84617500D01*
X111508985Y-84617500D01*
X111351015Y-84617500D01*
X111351012Y-84617500D01*
X111197638Y-84655302D01*
X111197634Y-84655304D01*
X111162198Y-84673903D01*
X111131218Y-84690163D01*
X111121874Y-84695067D01*
X111063318Y-84709500D01*
X110691530Y-84709500D01*
X110623409Y-84689498D01*
X110576916Y-84635842D01*
X110566847Y-84601668D01*
X110560573Y-84558607D01*
X110509198Y-84453517D01*
X110509196Y-84453514D01*
X110426485Y-84370803D01*
X110426482Y-84370801D01*
X110321394Y-84319427D01*
X110253261Y-84309500D01*
X110253260Y-84309500D01*
X107186740Y-84309500D01*
X107186738Y-84309500D01*
X107118605Y-84319427D01*
X107013517Y-84370801D01*
X107013514Y-84370803D01*
X106930803Y-84453514D01*
X106930801Y-84453517D01*
X106879427Y-84558605D01*
X106869500Y-84626738D01*
X106869500Y-85693261D01*
X105530500Y-85693261D01*
X105530500Y-85693260D01*
X105530500Y-84626740D01*
X105520573Y-84558607D01*
X105469198Y-84453517D01*
X105469196Y-84453514D01*
X105386485Y-84370803D01*
X105386482Y-84370801D01*
X105281394Y-84319427D01*
X105213261Y-84309500D01*
X105213260Y-84309500D01*
X102146740Y-84309500D01*
X102146738Y-84309500D01*
X102078605Y-84319427D01*
X101973517Y-84370801D01*
X101973514Y-84370803D01*
X101890803Y-84453514D01*
X101890801Y-84453517D01*
X101839427Y-84558605D01*
X101839426Y-84558607D01*
X101839427Y-84558607D01*
X101833153Y-84601666D01*
X101803540Y-84666191D01*
X101743742Y-84704462D01*
X101708470Y-84709500D01*
X101662366Y-84709500D01*
X101594245Y-84689498D01*
X101558670Y-84655076D01*
X101506483Y-84579470D01*
X101506481Y-84579468D01*
X101388240Y-84474717D01*
X101248365Y-84401304D01*
X101248361Y-84401302D01*
X101094987Y-84363500D01*
X101094985Y-84363500D01*
X100937015Y-84363500D01*
X100937012Y-84363500D01*
X100783638Y-84401302D01*
X100783633Y-84401305D01*
X100744554Y-84421815D01*
X100674941Y-84435761D01*
X100608839Y-84409857D01*
X100567235Y-84352328D01*
X100560000Y-84310247D01*
X100560000Y-83153261D01*
X101829500Y-83153261D01*
X101839427Y-83221394D01*
X101890801Y-83326482D01*
X101890803Y-83326485D01*
X101973514Y-83409196D01*
X101973517Y-83409198D01*
X102078607Y-83460573D01*
X102146740Y-83470500D01*
X102146745Y-83470500D01*
X105213255Y-83470500D01*
X105213260Y-83470500D01*
X105281393Y-83460573D01*
X105386483Y-83409198D01*
X105469198Y-83326483D01*
X105519440Y-83223708D01*
X105567326Y-83171298D01*
X105635949Y-83153094D01*
X105703520Y-83174880D01*
X105716188Y-83184737D01*
X105777756Y-83239280D01*
X105777757Y-83239281D01*
X105777758Y-83239281D01*
X105777760Y-83239283D01*
X105917635Y-83312696D01*
X105917636Y-83312696D01*
X105917638Y-83312697D01*
X105973568Y-83326482D01*
X106071015Y-83350500D01*
X106111205Y-83350500D01*
X106179326Y-83370502D01*
X106200300Y-83387405D01*
X106611050Y-83798155D01*
X106615760Y-83803425D01*
X106638031Y-83831350D01*
X106640121Y-83833970D01*
X106640124Y-83833972D01*
X106640125Y-83833973D01*
X106661641Y-83848642D01*
X106689271Y-83867480D01*
X106737118Y-83902793D01*
X106737121Y-83902794D01*
X106744660Y-83906779D01*
X106752324Y-83910470D01*
X106752327Y-83910472D01*
X106809177Y-83928007D01*
X106865301Y-83947646D01*
X106865309Y-83947646D01*
X106873682Y-83949231D01*
X106882096Y-83950499D01*
X106882098Y-83950500D01*
X106882100Y-83950500D01*
X106941559Y-83950500D01*
X107001010Y-83952725D01*
X107001014Y-83952723D01*
X107010395Y-83951668D01*
X107010492Y-83952529D01*
X107025903Y-83950500D01*
X111661206Y-83950500D01*
X111729327Y-83970502D01*
X111750301Y-83987405D01*
X113986519Y-86223623D01*
X114020545Y-86285935D01*
X114015906Y-86350792D01*
X114016772Y-86351025D01*
X114015568Y-86355517D01*
X114015480Y-86356750D01*
X114014720Y-86358681D01*
X114014635Y-86358999D01*
X113999500Y-86473958D01*
X113999500Y-87026041D01*
X114014635Y-87140999D01*
X114073880Y-87284033D01*
X114073882Y-87284036D01*
X114073883Y-87284037D01*
X114168133Y-87406867D01*
X114242152Y-87463663D01*
X114290966Y-87501119D01*
X114371618Y-87534525D01*
X114434001Y-87560365D01*
X114548960Y-87575500D01*
X114548967Y-87575500D01*
X115126033Y-87575500D01*
X115126040Y-87575500D01*
X115240999Y-87560365D01*
X115350977Y-87514811D01*
X115384033Y-87501119D01*
X115384033Y-87501118D01*
X115384037Y-87501117D01*
X115506867Y-87406867D01*
X115601117Y-87284037D01*
X115621260Y-87235409D01*
X115633591Y-87205638D01*
X115678139Y-87150357D01*
X115745502Y-87127935D01*
X115814293Y-87145493D01*
X115862672Y-87197454D01*
X115866409Y-87205638D01*
X115898880Y-87284033D01*
X115898882Y-87284036D01*
X115898883Y-87284037D01*
X115993133Y-87406867D01*
X116067152Y-87463663D01*
X116115966Y-87501119D01*
X116196618Y-87534525D01*
X116259001Y-87560365D01*
X116373960Y-87575500D01*
X116373967Y-87575500D01*
X116951033Y-87575500D01*
X116951040Y-87575500D01*
X117065999Y-87560365D01*
X117175977Y-87514811D01*
X117209033Y-87501119D01*
X117209033Y-87501118D01*
X117209037Y-87501117D01*
X117331867Y-87406867D01*
X117426117Y-87284037D01*
X117485365Y-87140999D01*
X117500500Y-87026040D01*
X117500500Y-86563793D01*
X117520502Y-86495672D01*
X117537400Y-86474702D01*
X117723886Y-86288215D01*
X117729138Y-86283521D01*
X117759690Y-86259159D01*
X117793200Y-86210008D01*
X117828513Y-86162162D01*
X117828513Y-86162159D01*
X117828515Y-86162158D01*
X117832501Y-86154616D01*
X117836191Y-86146954D01*
X117836190Y-86146954D01*
X117836192Y-86146953D01*
X117853727Y-86090102D01*
X117873366Y-86033979D01*
X117873366Y-86033972D01*
X117874950Y-86025602D01*
X117876220Y-86017179D01*
X117876220Y-85957707D01*
X117877565Y-85921755D01*
X117878444Y-85898270D01*
X117878442Y-85898263D01*
X117877386Y-85888886D01*
X117878247Y-85888788D01*
X117876219Y-85873376D01*
X117876219Y-85850037D01*
X117876219Y-85775904D01*
X117883289Y-85734297D01*
X117897166Y-85694640D01*
X117897166Y-85694632D01*
X117898749Y-85686265D01*
X117900020Y-85677841D01*
X117900020Y-85618366D01*
X117900802Y-85597454D01*
X117902244Y-85558930D01*
X117902242Y-85558924D01*
X117901187Y-85549548D01*
X117902048Y-85549450D01*
X117900020Y-85534042D01*
X117900020Y-84718902D01*
X117900416Y-84711843D01*
X117904790Y-84673023D01*
X117904789Y-84673022D01*
X117893732Y-84614581D01*
X117887620Y-84574035D01*
X117884868Y-84555773D01*
X117884864Y-84555765D01*
X117882340Y-84547580D01*
X117879544Y-84539590D01*
X117864165Y-84510493D01*
X117851746Y-84486996D01*
X117825945Y-84433418D01*
X117825943Y-84433416D01*
X117825942Y-84433413D01*
X117821153Y-84426389D01*
X117816083Y-84419519D01*
X117774036Y-84377473D01*
X117733574Y-84333864D01*
X117726194Y-84327979D01*
X117726733Y-84327302D01*
X117714400Y-84317837D01*
X117667960Y-84271397D01*
X117473882Y-84077319D01*
X117469179Y-84072056D01*
X117444820Y-84041511D01*
X117444821Y-84041511D01*
X117395668Y-84007999D01*
X117352266Y-83975967D01*
X117309334Y-83919422D01*
X117303788Y-83848642D01*
X117327123Y-83797886D01*
X117376117Y-83734037D01*
X117378351Y-83728645D01*
X117391255Y-83697490D01*
X117435365Y-83590999D01*
X117450500Y-83476040D01*
X117450500Y-83013793D01*
X117470502Y-82945672D01*
X117487400Y-82924702D01*
X118197206Y-82214895D01*
X118202457Y-82210202D01*
X118233010Y-82185839D01*
X118266517Y-82136693D01*
X118301833Y-82088843D01*
X118301833Y-82088840D01*
X118301835Y-82088839D01*
X118305814Y-82081311D01*
X118309508Y-82073637D01*
X118309512Y-82073633D01*
X118327044Y-82016791D01*
X118346686Y-81960660D01*
X118346686Y-81960657D01*
X118348267Y-81952299D01*
X118349537Y-81943870D01*
X118349540Y-81943862D01*
X118349539Y-81884386D01*
X118351764Y-81824950D01*
X118351762Y-81824944D01*
X118350706Y-81815565D01*
X118351567Y-81815467D01*
X118349539Y-81800056D01*
X118349539Y-79591500D01*
X118349539Y-77373765D01*
X118369541Y-77305648D01*
X118386439Y-77284678D01*
X118449700Y-77221418D01*
X118512014Y-77187394D01*
X118538795Y-77184515D01*
X118578983Y-77184515D01*
X118578985Y-77184515D01*
X118732365Y-77146711D01*
X118872240Y-77073298D01*
X118990483Y-76968545D01*
X119080220Y-76838538D01*
X119136237Y-76690833D01*
X119136237Y-76690832D01*
X119136238Y-76690830D01*
X119155278Y-76534018D01*
X119155278Y-76534011D01*
X119136238Y-76377199D01*
X119128392Y-76356513D01*
X119080220Y-76229492D01*
X119080216Y-76229487D01*
X119080216Y-76229485D01*
X118990483Y-76099485D01*
X118990481Y-76099483D01*
X118872240Y-75994732D01*
X118732365Y-75921319D01*
X118732361Y-75921317D01*
X118578987Y-75883515D01*
X118578985Y-75883515D01*
X118421015Y-75883515D01*
X118421012Y-75883515D01*
X118267638Y-75921317D01*
X118267634Y-75921319D01*
X118127757Y-75994733D01*
X118127756Y-75994734D01*
X118127741Y-75994748D01*
X118127727Y-75994754D01*
X118121485Y-75999063D01*
X118120768Y-75998024D01*
X118063485Y-76024942D01*
X117993105Y-76015603D01*
X117960644Y-75994740D01*
X117960637Y-75994734D01*
X117922240Y-75960717D01*
X117782365Y-75887304D01*
X117782361Y-75887302D01*
X117628987Y-75849500D01*
X117628985Y-75849500D01*
X117471015Y-75849500D01*
X117471012Y-75849500D01*
X117317638Y-75887302D01*
X117317634Y-75887304D01*
X117177759Y-75960717D01*
X117059518Y-76065468D01*
X117059516Y-76065470D01*
X116969783Y-76195470D01*
X116969782Y-76195473D01*
X116969781Y-76195475D01*
X116969780Y-76195477D01*
X116956881Y-76229488D01*
X116913761Y-76343184D01*
X116894722Y-76499996D01*
X116894722Y-76500003D01*
X116913761Y-76656815D01*
X116926663Y-76690833D01*
X116969780Y-76804523D01*
X117023544Y-76882415D01*
X117026715Y-76887008D01*
X117048951Y-76954433D01*
X117049019Y-76958584D01*
X117049019Y-77300306D01*
X117029017Y-77368427D01*
X116975361Y-77414920D01*
X116906582Y-77425229D01*
X116901049Y-77424501D01*
X116901046Y-77424500D01*
X116901040Y-77424500D01*
X116323960Y-77424500D01*
X116323958Y-77424500D01*
X116209000Y-77439635D01*
X116065966Y-77498880D01*
X115943133Y-77593133D01*
X115848881Y-77715965D01*
X115816409Y-77794362D01*
X115771861Y-77849643D01*
X115704498Y-77872064D01*
X115635706Y-77854506D01*
X115587328Y-77802544D01*
X115583591Y-77794362D01*
X115551118Y-77715965D01*
X115551117Y-77715964D01*
X115551117Y-77715963D01*
X115456867Y-77593133D01*
X115334037Y-77498883D01*
X115334036Y-77498882D01*
X115334033Y-77498880D01*
X115190999Y-77439635D01*
X115076041Y-77424500D01*
X115076040Y-77424500D01*
X114498960Y-77424500D01*
X114498958Y-77424500D01*
X114384000Y-77439635D01*
X114240966Y-77498880D01*
X114118133Y-77593133D01*
X114023880Y-77715966D01*
X113964635Y-77859000D01*
X113949500Y-77973958D01*
X113949500Y-78436206D01*
X113929498Y-78504327D01*
X113912595Y-78525301D01*
X112825302Y-79612595D01*
X112762990Y-79646620D01*
X112736207Y-79649500D01*
X112120241Y-79649500D01*
X112052120Y-79629498D01*
X112036691Y-79617815D01*
X111972240Y-79560717D01*
X111832365Y-79487304D01*
X111832361Y-79487302D01*
X111678987Y-79449500D01*
X111678985Y-79449500D01*
X111521015Y-79449500D01*
X111521012Y-79449500D01*
X111367638Y-79487302D01*
X111367634Y-79487304D01*
X111227759Y-79560717D01*
X111185887Y-79597813D01*
X111121634Y-79628013D01*
X111102334Y-79629500D01*
X110691530Y-79629500D01*
X110623409Y-79609498D01*
X110576916Y-79555842D01*
X110566847Y-79521668D01*
X110560573Y-79478607D01*
X110509198Y-79373517D01*
X110509196Y-79373514D01*
X110426485Y-79290803D01*
X110426482Y-79290801D01*
X110321394Y-79239427D01*
X110253261Y-79229500D01*
X110253260Y-79229500D01*
X107186740Y-79229500D01*
X107186738Y-79229500D01*
X107118605Y-79239427D01*
X107013517Y-79290801D01*
X107013514Y-79290803D01*
X106930803Y-79373514D01*
X106930801Y-79373517D01*
X106879427Y-79478605D01*
X106869500Y-79546738D01*
X106869500Y-79642910D01*
X106849498Y-79711031D01*
X106795842Y-79757524D01*
X106725568Y-79767628D01*
X106660988Y-79738134D01*
X106645678Y-79721045D01*
X106645535Y-79721173D01*
X106640481Y-79715468D01*
X106522240Y-79610717D01*
X106382365Y-79537304D01*
X106382361Y-79537302D01*
X106228987Y-79499500D01*
X106228985Y-79499500D01*
X106071015Y-79499500D01*
X106071012Y-79499500D01*
X105917638Y-79537302D01*
X105917634Y-79537304D01*
X105827738Y-79584485D01*
X105777760Y-79610717D01*
X105777759Y-79610717D01*
X105771012Y-79614259D01*
X105769601Y-79611572D01*
X105715416Y-79629432D01*
X105711285Y-79629500D01*
X105651530Y-79629500D01*
X105583409Y-79609498D01*
X105536916Y-79555842D01*
X105526847Y-79521668D01*
X105520573Y-79478607D01*
X105469198Y-79373517D01*
X105469196Y-79373514D01*
X105386485Y-79290803D01*
X105386482Y-79290801D01*
X105281394Y-79239427D01*
X105213261Y-79229500D01*
X105213260Y-79229500D01*
X102146740Y-79229500D01*
X102146738Y-79229500D01*
X102078605Y-79239427D01*
X101973517Y-79290801D01*
X101973514Y-79290803D01*
X101890803Y-79373514D01*
X101890801Y-79373517D01*
X101839427Y-79478605D01*
X101829500Y-79546738D01*
X101829500Y-80613261D01*
X101839427Y-80681394D01*
X101890801Y-80786482D01*
X101890803Y-80786485D01*
X101973514Y-80869196D01*
X101973517Y-80869198D01*
X102078607Y-80920573D01*
X102146740Y-80930500D01*
X102146745Y-80930500D01*
X105213255Y-80930500D01*
X105213260Y-80930500D01*
X105281393Y-80920573D01*
X105386483Y-80869198D01*
X105469198Y-80786483D01*
X105520573Y-80681393D01*
X105520573Y-80681388D01*
X105522849Y-80676734D01*
X105570737Y-80624320D01*
X105639360Y-80606116D01*
X105706931Y-80627902D01*
X105719599Y-80637759D01*
X105777756Y-80689280D01*
X105777757Y-80689281D01*
X105777758Y-80689281D01*
X105777760Y-80689283D01*
X105917635Y-80762696D01*
X105917636Y-80762696D01*
X105917638Y-80762697D01*
X105994325Y-80781598D01*
X106071015Y-80800500D01*
X106111205Y-80800500D01*
X106179326Y-80820502D01*
X106200300Y-80837405D01*
X107014511Y-81651616D01*
X107048537Y-81713928D01*
X107043472Y-81784743D01*
X107014512Y-81829806D01*
X106930800Y-81913517D01*
X106879427Y-82018605D01*
X106869500Y-82086738D01*
X106869500Y-82192910D01*
X106849498Y-82261031D01*
X106795842Y-82307524D01*
X106725568Y-82317628D01*
X106660988Y-82288134D01*
X106645678Y-82271045D01*
X106645535Y-82271173D01*
X106640481Y-82265468D01*
X106522240Y-82160717D01*
X106382365Y-82087304D01*
X106382361Y-82087302D01*
X106228987Y-82049500D01*
X106228985Y-82049500D01*
X106071015Y-82049500D01*
X106071012Y-82049500D01*
X105917638Y-82087302D01*
X105917634Y-82087304D01*
X105878452Y-82107869D01*
X105788524Y-82155067D01*
X105729970Y-82169500D01*
X105651530Y-82169500D01*
X105583409Y-82149498D01*
X105536916Y-82095842D01*
X105526847Y-82061668D01*
X105520573Y-82018607D01*
X105469198Y-81913517D01*
X105469196Y-81913514D01*
X105386485Y-81830803D01*
X105386482Y-81830801D01*
X105281394Y-81779427D01*
X105213261Y-81769500D01*
X105213260Y-81769500D01*
X102146740Y-81769500D01*
X102146738Y-81769500D01*
X102078605Y-81779427D01*
X101973517Y-81830801D01*
X101973514Y-81830803D01*
X101890803Y-81913514D01*
X101890801Y-81913517D01*
X101839427Y-82018605D01*
X101829500Y-82086738D01*
X101829500Y-83153261D01*
X100560000Y-83153261D01*
X100560000Y-78159665D01*
X100580002Y-78091544D01*
X100633658Y-78045051D01*
X100703932Y-78034947D01*
X100744554Y-78048097D01*
X100867635Y-78112696D01*
X100867636Y-78112696D01*
X100867638Y-78112697D01*
X100944325Y-78131598D01*
X101021015Y-78150500D01*
X101021017Y-78150500D01*
X101178983Y-78150500D01*
X101178985Y-78150500D01*
X101332365Y-78112696D01*
X101472240Y-78039283D01*
X101489022Y-78024414D01*
X101518402Y-77998388D01*
X101582655Y-77968187D01*
X101601955Y-77966700D01*
X101705002Y-77966700D01*
X101773123Y-77986702D01*
X101819616Y-78040358D01*
X101829685Y-78074531D01*
X101832164Y-78091544D01*
X101839427Y-78141394D01*
X101890801Y-78246482D01*
X101890803Y-78246485D01*
X101973514Y-78329196D01*
X101973517Y-78329198D01*
X102078607Y-78380573D01*
X102146740Y-78390500D01*
X102146745Y-78390500D01*
X105213255Y-78390500D01*
X105213260Y-78390500D01*
X105281393Y-78380573D01*
X105386483Y-78329198D01*
X105469198Y-78246483D01*
X105520573Y-78141393D01*
X105530500Y-78073261D01*
X106869500Y-78073261D01*
X106879427Y-78141394D01*
X106930801Y-78246482D01*
X106930803Y-78246485D01*
X107013514Y-78329196D01*
X107013517Y-78329198D01*
X107118607Y-78380573D01*
X107186740Y-78390500D01*
X107186745Y-78390500D01*
X110253255Y-78390500D01*
X110253260Y-78390500D01*
X110321393Y-78380573D01*
X110426483Y-78329198D01*
X110509198Y-78246483D01*
X110557072Y-78148553D01*
X110604957Y-78096141D01*
X110673580Y-78077937D01*
X110728823Y-78092325D01*
X110767635Y-78112696D01*
X110767636Y-78112696D01*
X110767638Y-78112697D01*
X110844325Y-78131598D01*
X110921015Y-78150500D01*
X110921017Y-78150500D01*
X111078983Y-78150500D01*
X111078985Y-78150500D01*
X111232365Y-78112696D01*
X111372240Y-78039283D01*
X111490483Y-77934530D01*
X111580220Y-77804523D01*
X111636237Y-77656818D01*
X111636237Y-77656817D01*
X111636238Y-77656815D01*
X111655278Y-77500003D01*
X111655278Y-77499996D01*
X111636238Y-77343184D01*
X111614047Y-77284672D01*
X111580220Y-77195477D01*
X111580216Y-77195472D01*
X111580216Y-77195470D01*
X111490483Y-77065470D01*
X111490481Y-77065468D01*
X111372240Y-76960717D01*
X111232365Y-76887304D01*
X111232361Y-76887302D01*
X111078987Y-76849500D01*
X111078985Y-76849500D01*
X110921015Y-76849500D01*
X110921012Y-76849500D01*
X110767638Y-76887302D01*
X110767636Y-76887303D01*
X110697700Y-76924009D01*
X110628086Y-76937955D01*
X110561984Y-76912051D01*
X110525948Y-76867780D01*
X110509198Y-76833517D01*
X110509196Y-76833515D01*
X110509196Y-76833514D01*
X110426485Y-76750803D01*
X110426482Y-76750801D01*
X110321394Y-76699427D01*
X110253261Y-76689500D01*
X110253260Y-76689500D01*
X107186740Y-76689500D01*
X107186738Y-76689500D01*
X107118605Y-76699427D01*
X107013517Y-76750801D01*
X107013514Y-76750803D01*
X106930803Y-76833514D01*
X106930801Y-76833517D01*
X106879427Y-76938605D01*
X106869500Y-77006738D01*
X106869500Y-78073261D01*
X105530500Y-78073261D01*
X105530500Y-78073260D01*
X105530500Y-77006740D01*
X105520573Y-76938607D01*
X105469198Y-76833517D01*
X105469196Y-76833514D01*
X105386485Y-76750803D01*
X105386482Y-76750801D01*
X105281394Y-76699427D01*
X105213261Y-76689500D01*
X105213260Y-76689500D01*
X102146740Y-76689500D01*
X102146738Y-76689500D01*
X102078605Y-76699427D01*
X101973517Y-76750801D01*
X101973514Y-76750803D01*
X101890803Y-76833514D01*
X101890801Y-76833517D01*
X101839427Y-76938605D01*
X101829686Y-77005466D01*
X101800071Y-77069991D01*
X101740273Y-77108263D01*
X101705002Y-77113300D01*
X101689565Y-77113300D01*
X101621444Y-77093298D01*
X101595253Y-77070853D01*
X101590487Y-77065473D01*
X101472240Y-76960717D01*
X101332365Y-76887304D01*
X101332361Y-76887302D01*
X101178987Y-76849500D01*
X101178985Y-76849500D01*
X101021015Y-76849500D01*
X101021012Y-76849500D01*
X100867638Y-76887302D01*
X100867630Y-76887306D01*
X100744555Y-76951901D01*
X100674942Y-76965848D01*
X100608839Y-76939944D01*
X100567235Y-76882415D01*
X100560000Y-76840334D01*
X100560000Y-75533261D01*
X101829500Y-75533261D01*
X101839427Y-75601394D01*
X101890801Y-75706482D01*
X101890803Y-75706485D01*
X101973514Y-75789196D01*
X101973517Y-75789198D01*
X102078607Y-75840573D01*
X102146740Y-75850500D01*
X102146745Y-75850500D01*
X105213255Y-75850500D01*
X105213260Y-75850500D01*
X105281393Y-75840573D01*
X105386483Y-75789198D01*
X105469198Y-75706483D01*
X105476054Y-75692457D01*
X105523941Y-75640043D01*
X105592564Y-75621839D01*
X105619405Y-75625456D01*
X105648087Y-75632525D01*
X105721015Y-75650500D01*
X105721017Y-75650500D01*
X105878983Y-75650500D01*
X105878985Y-75650500D01*
X106032365Y-75612696D01*
X106172240Y-75539283D01*
X106290483Y-75434530D01*
X106373313Y-75314529D01*
X106380216Y-75304529D01*
X106380216Y-75304528D01*
X106380220Y-75304523D01*
X106436237Y-75156818D01*
X106436237Y-75156817D01*
X106436238Y-75156815D01*
X106455278Y-75000003D01*
X106455278Y-74999996D01*
X106436238Y-74843184D01*
X106428392Y-74822498D01*
X106380220Y-74695477D01*
X106380216Y-74695472D01*
X106380216Y-74695470D01*
X106290483Y-74565470D01*
X106290481Y-74565468D01*
X106172240Y-74460717D01*
X106032365Y-74387304D01*
X106032361Y-74387302D01*
X105878987Y-74349500D01*
X105878985Y-74349500D01*
X105721015Y-74349500D01*
X105721012Y-74349500D01*
X105619405Y-74374544D01*
X105548477Y-74371425D01*
X105490495Y-74330455D01*
X105476054Y-74307542D01*
X105469198Y-74293517D01*
X105469196Y-74293515D01*
X105469196Y-74293514D01*
X105386485Y-74210803D01*
X105386482Y-74210801D01*
X105281394Y-74159427D01*
X105213261Y-74149500D01*
X105213260Y-74149500D01*
X102146740Y-74149500D01*
X102146738Y-74149500D01*
X102078605Y-74159427D01*
X101973517Y-74210801D01*
X101973514Y-74210803D01*
X101890803Y-74293514D01*
X101890801Y-74293517D01*
X101839427Y-74398605D01*
X101829500Y-74466738D01*
X101829500Y-75533261D01*
X100560000Y-75533261D01*
X100560000Y-73271752D01*
X100580002Y-73203631D01*
X100633658Y-73157138D01*
X100703932Y-73147034D01*
X100744553Y-73160184D01*
X100783635Y-73180696D01*
X100783636Y-73180696D01*
X100783638Y-73180697D01*
X100860324Y-73199598D01*
X100937015Y-73218500D01*
X100937017Y-73218500D01*
X101094983Y-73218500D01*
X101094985Y-73218500D01*
X101248365Y-73180696D01*
X101388240Y-73107283D01*
X101506483Y-73002530D01*
X101548868Y-72941124D01*
X101604026Y-72896424D01*
X101652564Y-72886700D01*
X101705002Y-72886700D01*
X101773123Y-72906702D01*
X101819616Y-72960358D01*
X101829685Y-72994531D01*
X101833093Y-73017922D01*
X101839427Y-73061394D01*
X101890801Y-73166482D01*
X101890803Y-73166485D01*
X101973514Y-73249196D01*
X101973517Y-73249198D01*
X102078607Y-73300573D01*
X102146740Y-73310500D01*
X102146745Y-73310500D01*
X105213255Y-73310500D01*
X105213260Y-73310500D01*
X105281393Y-73300573D01*
X105386483Y-73249198D01*
X105469198Y-73166483D01*
X105520573Y-73061393D01*
X105530500Y-72993261D01*
X106869500Y-72993261D01*
X106879427Y-73061394D01*
X106930801Y-73166482D01*
X106930803Y-73166485D01*
X107013514Y-73249196D01*
X107013517Y-73249198D01*
X107118607Y-73300573D01*
X107186740Y-73310500D01*
X107186745Y-73310500D01*
X110253255Y-73310500D01*
X110253260Y-73310500D01*
X110321393Y-73300573D01*
X110426483Y-73249198D01*
X110509198Y-73166483D01*
X110560573Y-73061393D01*
X110569028Y-73003362D01*
X110598641Y-72938840D01*
X110658439Y-72900569D01*
X110674933Y-72896938D01*
X110685487Y-72895348D01*
X110685497Y-72895342D01*
X110693672Y-72892821D01*
X110701668Y-72890024D01*
X110701668Y-72890023D01*
X110701672Y-72890023D01*
X110745796Y-72866701D01*
X110804673Y-72852100D01*
X110888583Y-72852100D01*
X110888585Y-72852100D01*
X111041965Y-72814296D01*
X111181840Y-72740883D01*
X111300083Y-72636130D01*
X111389820Y-72506123D01*
X111445837Y-72358418D01*
X111445837Y-72358417D01*
X111445838Y-72358415D01*
X111464878Y-72201603D01*
X111464878Y-72201596D01*
X111445838Y-72044784D01*
X111426342Y-71993379D01*
X111389820Y-71897077D01*
X111389816Y-71897072D01*
X111389816Y-71897070D01*
X111300083Y-71767070D01*
X111300081Y-71767068D01*
X111181840Y-71662317D01*
X111041965Y-71588904D01*
X111041961Y-71588902D01*
X110888587Y-71551100D01*
X110888585Y-71551100D01*
X110730615Y-71551100D01*
X110730612Y-71551100D01*
X110577238Y-71588902D01*
X110577236Y-71588903D01*
X110480277Y-71639792D01*
X110410664Y-71653738D01*
X110366385Y-71641422D01*
X110321393Y-71619427D01*
X110275971Y-71612809D01*
X110253261Y-71609500D01*
X110253260Y-71609500D01*
X107186740Y-71609500D01*
X107186738Y-71609500D01*
X107118605Y-71619427D01*
X107013517Y-71670801D01*
X107013514Y-71670803D01*
X106930803Y-71753514D01*
X106930801Y-71753517D01*
X106879427Y-71858605D01*
X106869500Y-71926738D01*
X106869500Y-72993261D01*
X105530500Y-72993261D01*
X105530500Y-72993260D01*
X105530500Y-71926740D01*
X105520573Y-71858607D01*
X105469198Y-71753517D01*
X105469196Y-71753514D01*
X105386485Y-71670803D01*
X105386482Y-71670801D01*
X105281394Y-71619427D01*
X105213261Y-71609500D01*
X105213260Y-71609500D01*
X102146740Y-71609500D01*
X102146738Y-71609500D01*
X102078605Y-71619427D01*
X101973517Y-71670801D01*
X101973514Y-71670803D01*
X101890803Y-71753514D01*
X101890801Y-71753517D01*
X101839427Y-71858605D01*
X101838804Y-71862882D01*
X101830847Y-71917500D01*
X101829686Y-71925466D01*
X101800071Y-71989991D01*
X101740273Y-72028263D01*
X101705002Y-72033300D01*
X101428028Y-72033300D01*
X101369473Y-72018867D01*
X101248365Y-71955304D01*
X101248361Y-71955302D01*
X101094987Y-71917500D01*
X101094985Y-71917500D01*
X100937015Y-71917500D01*
X100937012Y-71917500D01*
X100783638Y-71955302D01*
X100783633Y-71955305D01*
X100744554Y-71975815D01*
X100674941Y-71989761D01*
X100608839Y-71963857D01*
X100567235Y-71906328D01*
X100560000Y-71864247D01*
X100560000Y-70477752D01*
X100580002Y-70409631D01*
X100633658Y-70363138D01*
X100703932Y-70353034D01*
X100744553Y-70366184D01*
X100783635Y-70386696D01*
X100783636Y-70386696D01*
X100783638Y-70386697D01*
X100850559Y-70403191D01*
X100937015Y-70424500D01*
X100937017Y-70424500D01*
X101094983Y-70424500D01*
X101094985Y-70424500D01*
X101248365Y-70386696D01*
X101248367Y-70386695D01*
X101251727Y-70384932D01*
X101255414Y-70384023D01*
X101255494Y-70383993D01*
X101255497Y-70384002D01*
X101310281Y-70370500D01*
X101708470Y-70370500D01*
X101776591Y-70390502D01*
X101823084Y-70444158D01*
X101833152Y-70478331D01*
X101835002Y-70491023D01*
X101839427Y-70521394D01*
X101890801Y-70626482D01*
X101890803Y-70626485D01*
X101973514Y-70709196D01*
X101973517Y-70709198D01*
X102078607Y-70760573D01*
X102146740Y-70770500D01*
X102146745Y-70770500D01*
X105213255Y-70770500D01*
X105213260Y-70770500D01*
X105281393Y-70760573D01*
X105386483Y-70709198D01*
X105469198Y-70626483D01*
X105520573Y-70521393D01*
X105530500Y-70453260D01*
X105530500Y-69386740D01*
X105520573Y-69318607D01*
X105469198Y-69213517D01*
X105469196Y-69213514D01*
X105386485Y-69130803D01*
X105386482Y-69130801D01*
X105281394Y-69079427D01*
X105213261Y-69069500D01*
X105213260Y-69069500D01*
X102146740Y-69069500D01*
X102146738Y-69069500D01*
X102078605Y-69079427D01*
X101973517Y-69130801D01*
X101973514Y-69130803D01*
X101890803Y-69213514D01*
X101890801Y-69213517D01*
X101839427Y-69318605D01*
X101839426Y-69318607D01*
X101839427Y-69318607D01*
X101833153Y-69361666D01*
X101803540Y-69426191D01*
X101743742Y-69464462D01*
X101708470Y-69469500D01*
X101662366Y-69469500D01*
X101594245Y-69449498D01*
X101558670Y-69415076D01*
X101506483Y-69339470D01*
X101506481Y-69339468D01*
X101388240Y-69234717D01*
X101248365Y-69161304D01*
X101248361Y-69161302D01*
X101094987Y-69123500D01*
X101094985Y-69123500D01*
X100937015Y-69123500D01*
X100937012Y-69123500D01*
X100783638Y-69161302D01*
X100783633Y-69161305D01*
X100744554Y-69181815D01*
X100674941Y-69195761D01*
X100608839Y-69169857D01*
X100567235Y-69112328D01*
X100560000Y-69070247D01*
X100560000Y-68191752D01*
X100580002Y-68123631D01*
X100633658Y-68077138D01*
X100703932Y-68067034D01*
X100744553Y-68080184D01*
X100783635Y-68100696D01*
X100783636Y-68100696D01*
X100783638Y-68100697D01*
X100860324Y-68119598D01*
X100937015Y-68138500D01*
X100937017Y-68138500D01*
X101094983Y-68138500D01*
X101094985Y-68138500D01*
X101248365Y-68100696D01*
X101388240Y-68027283D01*
X101506483Y-67922530D01*
X101532440Y-67884923D01*
X101587597Y-67840225D01*
X101636136Y-67830500D01*
X101708470Y-67830500D01*
X101776591Y-67850502D01*
X101823084Y-67904158D01*
X101833152Y-67938331D01*
X101837753Y-67969904D01*
X101839427Y-67981394D01*
X101890801Y-68086482D01*
X101890803Y-68086485D01*
X101973514Y-68169196D01*
X101973517Y-68169198D01*
X102078607Y-68220573D01*
X102146740Y-68230500D01*
X102146745Y-68230500D01*
X105213255Y-68230500D01*
X105213260Y-68230500D01*
X105281393Y-68220573D01*
X105386483Y-68169198D01*
X105469198Y-68086483D01*
X105520573Y-67981393D01*
X105530500Y-67913260D01*
X105530500Y-66846740D01*
X105520573Y-66778607D01*
X105469198Y-66673517D01*
X105469196Y-66673514D01*
X105386485Y-66590803D01*
X105386482Y-66590801D01*
X105281394Y-66539427D01*
X105213261Y-66529500D01*
X105213260Y-66529500D01*
X102146740Y-66529500D01*
X102146738Y-66529500D01*
X102078605Y-66539427D01*
X101973517Y-66590801D01*
X101973514Y-66590803D01*
X101890803Y-66673514D01*
X101890801Y-66673517D01*
X101839427Y-66778605D01*
X101839426Y-66778607D01*
X101839427Y-66778607D01*
X101833153Y-66821666D01*
X101803540Y-66886191D01*
X101743742Y-66924462D01*
X101708470Y-66929500D01*
X101382682Y-66929500D01*
X101324126Y-66915067D01*
X101314016Y-66909761D01*
X101248365Y-66875304D01*
X101248361Y-66875302D01*
X101094987Y-66837500D01*
X101094985Y-66837500D01*
X100937015Y-66837500D01*
X100937012Y-66837500D01*
X100783638Y-66875302D01*
X100783633Y-66875305D01*
X100744554Y-66895815D01*
X100674941Y-66909761D01*
X100608839Y-66883857D01*
X100567235Y-66826328D01*
X100560000Y-66784247D01*
X100560000Y-65651752D01*
X100580002Y-65583631D01*
X100633658Y-65537138D01*
X100703932Y-65527034D01*
X100744553Y-65540184D01*
X100783635Y-65560696D01*
X100783636Y-65560696D01*
X100783638Y-65560697D01*
X100860324Y-65579598D01*
X100937015Y-65598500D01*
X100937017Y-65598500D01*
X101094983Y-65598500D01*
X101094985Y-65598500D01*
X101248365Y-65560696D01*
X101388240Y-65487283D01*
X101506483Y-65382530D01*
X101532440Y-65344923D01*
X101587597Y-65300225D01*
X101636136Y-65290500D01*
X101708470Y-65290500D01*
X101776591Y-65310502D01*
X101823084Y-65364158D01*
X101833152Y-65398331D01*
X101835246Y-65412695D01*
X101839427Y-65441394D01*
X101890801Y-65546482D01*
X101890803Y-65546485D01*
X101973514Y-65629196D01*
X101973517Y-65629198D01*
X102078607Y-65680573D01*
X102146740Y-65690500D01*
X102146745Y-65690500D01*
X105213255Y-65690500D01*
X105213260Y-65690500D01*
X105281393Y-65680573D01*
X105386483Y-65629198D01*
X105469198Y-65546483D01*
X105520573Y-65441393D01*
X105530500Y-65373260D01*
X105530500Y-64306740D01*
X105520573Y-64238607D01*
X105469198Y-64133517D01*
X105469196Y-64133514D01*
X105386485Y-64050803D01*
X105386482Y-64050801D01*
X105281394Y-63999427D01*
X105213261Y-63989500D01*
X105213260Y-63989500D01*
X102146740Y-63989500D01*
X102146738Y-63989500D01*
X102078605Y-63999427D01*
X101973517Y-64050801D01*
X101973514Y-64050803D01*
X101890803Y-64133514D01*
X101890801Y-64133517D01*
X101839427Y-64238605D01*
X101839426Y-64238607D01*
X101839427Y-64238607D01*
X101833153Y-64281666D01*
X101803540Y-64346191D01*
X101743742Y-64384462D01*
X101708470Y-64389500D01*
X101382682Y-64389500D01*
X101324126Y-64375067D01*
X101314016Y-64369761D01*
X101248365Y-64335304D01*
X101248361Y-64335302D01*
X101094987Y-64297500D01*
X101094985Y-64297500D01*
X100937015Y-64297500D01*
X100937012Y-64297500D01*
X100783638Y-64335302D01*
X100783633Y-64335305D01*
X100744554Y-64355815D01*
X100674941Y-64369761D01*
X100608839Y-64343857D01*
X100567235Y-64286328D01*
X100560000Y-64244247D01*
X100560000Y-62554000D01*
X101672000Y-62554000D01*
X101672000Y-62848597D01*
X101678505Y-62909093D01*
X101729555Y-63045964D01*
X101729555Y-63045965D01*
X101817095Y-63162904D01*
X101934034Y-63250444D01*
X102070906Y-63301494D01*
X102131402Y-63307999D01*
X102131415Y-63308000D01*
X103426000Y-63308000D01*
X103426000Y-62554000D01*
X103934000Y-62554000D01*
X103934000Y-63308000D01*
X105228585Y-63308000D01*
X105228597Y-63307999D01*
X105289093Y-63301494D01*
X105425964Y-63250444D01*
X105425965Y-63250444D01*
X105542904Y-63162904D01*
X105630444Y-63045965D01*
X105630444Y-63045964D01*
X105681494Y-62909093D01*
X105687999Y-62848597D01*
X105688000Y-62848585D01*
X105688000Y-62554000D01*
X103934000Y-62554000D01*
X103426000Y-62554000D01*
X101672000Y-62554000D01*
X100560000Y-62554000D01*
X100560000Y-62046000D01*
X101672000Y-62046000D01*
X103426000Y-62046000D01*
X103426000Y-61292000D01*
X102131402Y-61292000D01*
X102070906Y-61298505D01*
X101934035Y-61349555D01*
X101934034Y-61349555D01*
X101817095Y-61437095D01*
X101729555Y-61554034D01*
X101729555Y-61554035D01*
X101678505Y-61690906D01*
X101672000Y-61751402D01*
X101672000Y-62046000D01*
X100560000Y-62046000D01*
X100560000Y-60014000D01*
X101672000Y-60014000D01*
X101672000Y-60308597D01*
X101678505Y-60369093D01*
X101729555Y-60505964D01*
X101729555Y-60505965D01*
X101817095Y-60622904D01*
X101934034Y-60710444D01*
X102070906Y-60761494D01*
X102131402Y-60767999D01*
X102131415Y-60768000D01*
X103426000Y-60768000D01*
X103426000Y-60014000D01*
X103934000Y-60014000D01*
X103934000Y-60768000D01*
X105228585Y-60768000D01*
X105228597Y-60767999D01*
X105289093Y-60761494D01*
X105425963Y-60710444D01*
X105468910Y-60678294D01*
X105535430Y-60653482D01*
X105604804Y-60668572D01*
X105655007Y-60718773D01*
X105670100Y-60788147D01*
X105660831Y-60827377D01*
X105639312Y-60879328D01*
X105619534Y-61029562D01*
X105619534Y-61029563D01*
X105639312Y-61179797D01*
X105661355Y-61233012D01*
X105668944Y-61303602D01*
X105637165Y-61367089D01*
X105576107Y-61403316D01*
X105505155Y-61400782D01*
X105469437Y-61382098D01*
X105425965Y-61349556D01*
X105425964Y-61349555D01*
X105289093Y-61298505D01*
X105228597Y-61292000D01*
X103934000Y-61292000D01*
X103934000Y-62046000D01*
X105688000Y-62046000D01*
X105688000Y-61751414D01*
X105687999Y-61751402D01*
X105681494Y-61690907D01*
X105660402Y-61634356D01*
X105655337Y-61563540D01*
X105689362Y-61501228D01*
X105751675Y-61467203D01*
X105822490Y-61472267D01*
X105855159Y-61490359D01*
X105909767Y-61532261D01*
X106049764Y-61590250D01*
X106200000Y-61610029D01*
X106350236Y-61590250D01*
X106490233Y-61532261D01*
X106610451Y-61440014D01*
X106702698Y-61319796D01*
X106760687Y-61179799D01*
X106780466Y-61029563D01*
X106760687Y-60879327D01*
X106702698Y-60739330D01*
X106665425Y-60690755D01*
X106610451Y-60619111D01*
X106490239Y-60526869D01*
X106490231Y-60526864D01*
X106350234Y-60468875D01*
X106200000Y-60449097D01*
X106049765Y-60468875D01*
X105909768Y-60526864D01*
X105909760Y-60526869D01*
X105855618Y-60568414D01*
X105789398Y-60594014D01*
X105719849Y-60579749D01*
X105669053Y-60530147D01*
X105653138Y-60460957D01*
X105660860Y-60424418D01*
X105681494Y-60369096D01*
X105687999Y-60308597D01*
X105688000Y-60308585D01*
X105688000Y-60014000D01*
X103934000Y-60014000D01*
X103426000Y-60014000D01*
X101672000Y-60014000D01*
X100560000Y-60014000D01*
X100560000Y-59506000D01*
X101672000Y-59506000D01*
X103426000Y-59506000D01*
X103426000Y-58752000D01*
X102131402Y-58752000D01*
X102070906Y-58758505D01*
X101934035Y-58809555D01*
X101934034Y-58809555D01*
X101817095Y-58897095D01*
X101729555Y-59014034D01*
X101729555Y-59014035D01*
X101678505Y-59150906D01*
X101672000Y-59211402D01*
X101672000Y-59506000D01*
X100560000Y-59506000D01*
X100560000Y-57474000D01*
X101672000Y-57474000D01*
X101672000Y-57768597D01*
X101678505Y-57829093D01*
X101729555Y-57965964D01*
X101729555Y-57965965D01*
X101817095Y-58082904D01*
X101934034Y-58170444D01*
X102070906Y-58221494D01*
X102131402Y-58227999D01*
X102131415Y-58228000D01*
X103426000Y-58228000D01*
X103426000Y-57474000D01*
X103934000Y-57474000D01*
X103934000Y-58228000D01*
X105228585Y-58228000D01*
X105228597Y-58227999D01*
X105289093Y-58221494D01*
X105425964Y-58170444D01*
X105425965Y-58170443D01*
X105475178Y-58133603D01*
X105541697Y-58108791D01*
X105611072Y-58123882D01*
X105661275Y-58174083D01*
X105676367Y-58243457D01*
X105667097Y-58282688D01*
X105639312Y-58349765D01*
X105619534Y-58499999D01*
X105619534Y-58500000D01*
X105639312Y-58650234D01*
X105655089Y-58688322D01*
X105662678Y-58758912D01*
X105630898Y-58822399D01*
X105569840Y-58858626D01*
X105498889Y-58856092D01*
X105463170Y-58837408D01*
X105425963Y-58809554D01*
X105289093Y-58758505D01*
X105228597Y-58752000D01*
X103934000Y-58752000D01*
X103934000Y-59506000D01*
X105688000Y-59506000D01*
X105688000Y-59211414D01*
X105687999Y-59211402D01*
X105681494Y-59150905D01*
X105665856Y-59108979D01*
X105660790Y-59038164D01*
X105694814Y-58975851D01*
X105757126Y-58941825D01*
X105827942Y-58946889D01*
X105860614Y-58964981D01*
X105909767Y-59002698D01*
X106049764Y-59060687D01*
X106200000Y-59080466D01*
X106350236Y-59060687D01*
X106490233Y-59002698D01*
X106610451Y-58910451D01*
X106702698Y-58790233D01*
X106760687Y-58650236D01*
X106780466Y-58500000D01*
X106760687Y-58349764D01*
X106702698Y-58209767D01*
X106702693Y-58209760D01*
X106610451Y-58089548D01*
X106490239Y-57997306D01*
X106490231Y-57997301D01*
X106350234Y-57939312D01*
X106200000Y-57919534D01*
X106049765Y-57939312D01*
X105909768Y-57997301D01*
X105909760Y-57997306D01*
X105850164Y-58043036D01*
X105783944Y-58068636D01*
X105714395Y-58054371D01*
X105663599Y-58004769D01*
X105647684Y-57935580D01*
X105655406Y-57899040D01*
X105681494Y-57829096D01*
X105687999Y-57768597D01*
X105688000Y-57768585D01*
X105688000Y-57753261D01*
X106869500Y-57753261D01*
X106879427Y-57821394D01*
X106930801Y-57926482D01*
X106930803Y-57926485D01*
X107013514Y-58009196D01*
X107013517Y-58009198D01*
X107118607Y-58060573D01*
X107186740Y-58070500D01*
X107186745Y-58070500D01*
X110253255Y-58070500D01*
X110253260Y-58070500D01*
X110321393Y-58060573D01*
X110426483Y-58009198D01*
X110509198Y-57926483D01*
X110560573Y-57821393D01*
X110566846Y-57778333D01*
X110596460Y-57713809D01*
X110656258Y-57675538D01*
X110691530Y-57670500D01*
X110702334Y-57670500D01*
X110770455Y-57690502D01*
X110785885Y-57702185D01*
X110827760Y-57739283D01*
X110967635Y-57812696D01*
X110967636Y-57812696D01*
X110967638Y-57812697D01*
X111034174Y-57829096D01*
X111121015Y-57850500D01*
X111121017Y-57850500D01*
X111278983Y-57850500D01*
X111278985Y-57850500D01*
X111432365Y-57812696D01*
X111572240Y-57739283D01*
X111690483Y-57634530D01*
X111780220Y-57504523D01*
X111836237Y-57356818D01*
X111836237Y-57356817D01*
X111836238Y-57356815D01*
X111855278Y-57200003D01*
X111855278Y-57199996D01*
X111836238Y-57043184D01*
X111825120Y-57013868D01*
X111780220Y-56895477D01*
X111780216Y-56895472D01*
X111780216Y-56895470D01*
X111690483Y-56765470D01*
X111690481Y-56765468D01*
X111572240Y-56660717D01*
X111432365Y-56587304D01*
X111432361Y-56587302D01*
X111278987Y-56549500D01*
X111278985Y-56549500D01*
X111121015Y-56549500D01*
X111121012Y-56549500D01*
X110967638Y-56587302D01*
X110967634Y-56587304D01*
X110827759Y-56660717D01*
X110771155Y-56710863D01*
X110706901Y-56741062D01*
X110636521Y-56731730D01*
X110582358Y-56685828D01*
X110562919Y-56634714D01*
X110560573Y-56618607D01*
X110509198Y-56513517D01*
X110509196Y-56513514D01*
X110426485Y-56430803D01*
X110426482Y-56430801D01*
X110321394Y-56379427D01*
X110253261Y-56369500D01*
X110253260Y-56369500D01*
X107186740Y-56369500D01*
X107186738Y-56369500D01*
X107118605Y-56379427D01*
X107013517Y-56430801D01*
X107013514Y-56430803D01*
X106930803Y-56513514D01*
X106930801Y-56513517D01*
X106879427Y-56618605D01*
X106869500Y-56686738D01*
X106869500Y-57753261D01*
X105688000Y-57753261D01*
X105688000Y-57474000D01*
X103934000Y-57474000D01*
X103426000Y-57474000D01*
X101672000Y-57474000D01*
X100560000Y-57474000D01*
X100560000Y-56966000D01*
X101672000Y-56966000D01*
X103426000Y-56966000D01*
X103426000Y-56212000D01*
X103934000Y-56212000D01*
X103934000Y-56966000D01*
X105688000Y-56966000D01*
X105688000Y-56671414D01*
X105687999Y-56671402D01*
X105681494Y-56610906D01*
X105630444Y-56474035D01*
X105630444Y-56474034D01*
X105542904Y-56357095D01*
X105425965Y-56269555D01*
X105289093Y-56218505D01*
X105228597Y-56212000D01*
X103934000Y-56212000D01*
X103426000Y-56212000D01*
X102131402Y-56212000D01*
X102070906Y-56218505D01*
X101934035Y-56269555D01*
X101934034Y-56269555D01*
X101817095Y-56357095D01*
X101729555Y-56474034D01*
X101729555Y-56474035D01*
X101678505Y-56610906D01*
X101672000Y-56671402D01*
X101672000Y-56966000D01*
X100560000Y-56966000D01*
X100560000Y-53281182D01*
X101399500Y-53281182D01*
X101421224Y-53425311D01*
X101438604Y-53540619D01*
X101515933Y-53791314D01*
X101515938Y-53791327D01*
X101629773Y-54027706D01*
X101629777Y-54027713D01*
X101777562Y-54244472D01*
X101777567Y-54244479D01*
X101956019Y-54436805D01*
X102161143Y-54600386D01*
X102161146Y-54600388D01*
X102388352Y-54731566D01*
X102388356Y-54731567D01*
X102388357Y-54731568D01*
X102632584Y-54827420D01*
X102888370Y-54885802D01*
X103040409Y-54897195D01*
X103084503Y-54900500D01*
X103084506Y-54900500D01*
X103215497Y-54900500D01*
X103256516Y-54897425D01*
X103411630Y-54885802D01*
X103667416Y-54827420D01*
X103911643Y-54731568D01*
X103911645Y-54731566D01*
X103911647Y-54731566D01*
X104069526Y-54640414D01*
X104138857Y-54600386D01*
X104343981Y-54436805D01*
X104522433Y-54244479D01*
X104670228Y-54027704D01*
X104784063Y-53791323D01*
X104784066Y-53791314D01*
X104861395Y-53540619D01*
X104861792Y-53537986D01*
X104900500Y-53281182D01*
X104900500Y-53206330D01*
X106045710Y-53206330D01*
X106059484Y-53308012D01*
X106075925Y-53429390D01*
X106145484Y-53643467D01*
X106252144Y-53841675D01*
X106252148Y-53841682D01*
X106324833Y-53932825D01*
X106392492Y-54017666D01*
X106562004Y-54165765D01*
X106755236Y-54281215D01*
X106965976Y-54360307D01*
X106965978Y-54360307D01*
X106965980Y-54360308D01*
X107099229Y-54384489D01*
X107187453Y-54400500D01*
X107187454Y-54400500D01*
X107356149Y-54400500D01*
X107356155Y-54400500D01*
X107513759Y-54386315D01*
X107524189Y-54385377D01*
X107524189Y-54385376D01*
X107699507Y-54336991D01*
X107741167Y-54325494D01*
X107741167Y-54325493D01*
X107741170Y-54325493D01*
X107854327Y-54271000D01*
X114142000Y-54271000D01*
X115068884Y-54271000D01*
X115040507Y-54315156D01*
X115000000Y-54453111D01*
X115000000Y-54596889D01*
X115040507Y-54734844D01*
X115068884Y-54779000D01*
X114145942Y-54779000D01*
X114156693Y-54905331D01*
X114156695Y-54905338D01*
X114214940Y-55129033D01*
X114310157Y-55339678D01*
X114310160Y-55339684D01*
X114439606Y-55531205D01*
X114439612Y-55531213D01*
X114599556Y-55698096D01*
X114599564Y-55698102D01*
X114785413Y-55835556D01*
X114991834Y-55939630D01*
X114991833Y-55939630D01*
X115212863Y-56007319D01*
X115245999Y-56011562D01*
X115245999Y-54958674D01*
X115357685Y-55009680D01*
X115464237Y-55025000D01*
X115535763Y-55025000D01*
X115642315Y-55009680D01*
X115753999Y-54958674D01*
X115754000Y-56009437D01*
X115899093Y-55978167D01*
X116113587Y-55891977D01*
X116310435Y-55770772D01*
X116483961Y-55618048D01*
X116483962Y-55618047D01*
X116620465Y-55448991D01*
X116678822Y-55408556D01*
X116749776Y-55406090D01*
X116810799Y-55442376D01*
X116834905Y-55479925D01*
X116875464Y-55577841D01*
X116971718Y-55703282D01*
X117097159Y-55799536D01*
X117243238Y-55860044D01*
X117360639Y-55875500D01*
X117938280Y-55875499D01*
X117943767Y-55875738D01*
X117972419Y-55878245D01*
X117999997Y-55880659D01*
X118000000Y-55880659D01*
X118000003Y-55880659D01*
X118027580Y-55878245D01*
X118056232Y-55875738D01*
X118061720Y-55875499D01*
X118639360Y-55875499D01*
X118639368Y-55875498D01*
X118644106Y-55874874D01*
X118756762Y-55860044D01*
X118902841Y-55799536D01*
X119028282Y-55703282D01*
X119124536Y-55577841D01*
X119185044Y-55431762D01*
X119200500Y-55314361D01*
X119200499Y-55174008D01*
X119212305Y-55120757D01*
X119264102Y-55009680D01*
X119273903Y-54988663D01*
X119335063Y-54760408D01*
X119337586Y-54731568D01*
X119338991Y-54715518D01*
X119364854Y-54649400D01*
X119422358Y-54607760D01*
X119464511Y-54600500D01*
X122558965Y-54600500D01*
X122558966Y-54600500D01*
X122735408Y-54585063D01*
X122963663Y-54523903D01*
X122988535Y-54512304D01*
X123041785Y-54500500D01*
X123783255Y-54500500D01*
X123783260Y-54500500D01*
X123851393Y-54490573D01*
X123956483Y-54439198D01*
X124039198Y-54356483D01*
X124090573Y-54251393D01*
X124100500Y-54183260D01*
X124100500Y-52316740D01*
X124090573Y-52248607D01*
X124039198Y-52143517D01*
X124039196Y-52143514D01*
X123956485Y-52060803D01*
X123956482Y-52060801D01*
X123851394Y-52009427D01*
X123783261Y-51999500D01*
X123783260Y-51999500D01*
X123041785Y-51999500D01*
X122988535Y-51987695D01*
X122963666Y-51976098D01*
X122963661Y-51976096D01*
X122735411Y-51914937D01*
X122603076Y-51903359D01*
X122558966Y-51899500D01*
X118868153Y-51899500D01*
X118631847Y-51899500D01*
X118576270Y-51909299D01*
X118570820Y-51910017D01*
X118514591Y-51914936D01*
X118460069Y-51929545D01*
X118454702Y-51930735D01*
X118399128Y-51940534D01*
X118399127Y-51940535D01*
X118346099Y-51959835D01*
X118340856Y-51961488D01*
X118286346Y-51976093D01*
X118286329Y-51976100D01*
X118235180Y-51999951D01*
X118230100Y-52002055D01*
X118177072Y-52021355D01*
X118177072Y-52021356D01*
X118128186Y-52049580D01*
X118123310Y-52052118D01*
X118072174Y-52075962D01*
X118025943Y-52108333D01*
X118021307Y-52111286D01*
X117972425Y-52139509D01*
X117972423Y-52139511D01*
X117929183Y-52175791D01*
X117924824Y-52179136D01*
X117878598Y-52211505D01*
X117799845Y-52290255D01*
X117799842Y-52290262D01*
X117128601Y-52961503D01*
X117128599Y-52961505D01*
X117071286Y-53018818D01*
X116961507Y-53128596D01*
X116961503Y-53128600D01*
X116929133Y-53174829D01*
X116925787Y-53179190D01*
X116889512Y-53222421D01*
X116889508Y-53222427D01*
X116861286Y-53271307D01*
X116858333Y-53275943D01*
X116825962Y-53322174D01*
X116802118Y-53373310D01*
X116799580Y-53378186D01*
X116771356Y-53427072D01*
X116771355Y-53427072D01*
X116758351Y-53462801D01*
X116716255Y-53519971D01*
X116649933Y-53545308D01*
X116580442Y-53530766D01*
X116548984Y-53506888D01*
X116400443Y-53351903D01*
X116400435Y-53351897D01*
X116214586Y-53214443D01*
X116008165Y-53110369D01*
X115787137Y-53042680D01*
X115754000Y-53038435D01*
X115753999Y-54091325D01*
X115642315Y-54040320D01*
X115535763Y-54025000D01*
X115464237Y-54025000D01*
X115357685Y-54040320D01*
X115246000Y-54091325D01*
X115246000Y-53040561D01*
X115100906Y-53071831D01*
X114886412Y-53158022D01*
X114689564Y-53279227D01*
X114516038Y-53431951D01*
X114516035Y-53431954D01*
X114370819Y-53611800D01*
X114258077Y-53813617D01*
X114181068Y-54031570D01*
X114142000Y-54259419D01*
X114142000Y-54271000D01*
X107854327Y-54271000D01*
X107943973Y-54227829D01*
X108126078Y-54095522D01*
X108281632Y-53932825D01*
X108405635Y-53744968D01*
X108494103Y-53537988D01*
X108544191Y-53318537D01*
X108554290Y-53093670D01*
X108524075Y-52870613D01*
X108454517Y-52656536D01*
X108399897Y-52555035D01*
X108347855Y-52458324D01*
X108347851Y-52458317D01*
X108213830Y-52290262D01*
X108207508Y-52282334D01*
X108174341Y-52253357D01*
X108089389Y-52179136D01*
X108037996Y-52134235D01*
X107844764Y-52018785D01*
X107695046Y-51962595D01*
X107634019Y-51939691D01*
X107444091Y-51905224D01*
X107412547Y-51899500D01*
X107243845Y-51899500D01*
X107212558Y-51902315D01*
X107075810Y-51914622D01*
X107075810Y-51914623D01*
X106858832Y-51974505D01*
X106656031Y-52072168D01*
X106656023Y-52072173D01*
X106473921Y-52204478D01*
X106473920Y-52204479D01*
X106318369Y-52367172D01*
X106194367Y-52555027D01*
X106194363Y-52555035D01*
X106105897Y-52762011D01*
X106105896Y-52762013D01*
X106055809Y-52981461D01*
X106055809Y-52981463D01*
X106047880Y-53158022D01*
X106045710Y-53206330D01*
X104900500Y-53206330D01*
X104900500Y-53018818D01*
X104861396Y-52759385D01*
X104861395Y-52759383D01*
X104861395Y-52759380D01*
X104784066Y-52508685D01*
X104784061Y-52508672D01*
X104691630Y-52316738D01*
X104670228Y-52272296D01*
X104670226Y-52272293D01*
X104670222Y-52272286D01*
X104526034Y-52060803D01*
X104522433Y-52055521D01*
X104343981Y-51863195D01*
X104138857Y-51699614D01*
X104138852Y-51699611D01*
X104138853Y-51699611D01*
X103911647Y-51568433D01*
X103911639Y-51568430D01*
X103667419Y-51472581D01*
X103667417Y-51472580D01*
X103411632Y-51414198D01*
X103215497Y-51399500D01*
X103215494Y-51399500D01*
X103084506Y-51399500D01*
X103084503Y-51399500D01*
X102888367Y-51414198D01*
X102632582Y-51472580D01*
X102632580Y-51472581D01*
X102388360Y-51568430D01*
X102388352Y-51568433D01*
X102161146Y-51699611D01*
X101956018Y-51863195D01*
X101777566Y-52055522D01*
X101777562Y-52055527D01*
X101629777Y-52272286D01*
X101629773Y-52272293D01*
X101515938Y-52508672D01*
X101515933Y-52508685D01*
X101438604Y-52759380D01*
X101425362Y-52847235D01*
X101399500Y-53018818D01*
X101399500Y-53281182D01*
X100560000Y-53281182D01*
X100560000Y-52623371D01*
X100562064Y-52600660D01*
X100572459Y-52543934D01*
X100596719Y-52411546D01*
X100598532Y-52404192D01*
X100685171Y-52126157D01*
X100687861Y-52119063D01*
X100807377Y-51853513D01*
X100810910Y-51846783D01*
X100868833Y-51750966D01*
X100961558Y-51597578D01*
X100965867Y-51591335D01*
X101145469Y-51362090D01*
X101150494Y-51356418D01*
X101356418Y-51150494D01*
X101362090Y-51145469D01*
X101591335Y-50965867D01*
X101597578Y-50961558D01*
X101846783Y-50810910D01*
X101853513Y-50807377D01*
X102119063Y-50687861D01*
X102126157Y-50685171D01*
X102404180Y-50598535D01*
X102411546Y-50596719D01*
X102697989Y-50544227D01*
X102705527Y-50543312D01*
X102998099Y-50525614D01*
X103001903Y-50525500D01*
X103008285Y-50525500D01*
X109969863Y-50525500D01*
X109980425Y-50527601D01*
X110000000Y-50527601D01*
X110019517Y-50519517D01*
X110025500Y-50505072D01*
X110027601Y-50500000D01*
X110027600Y-50499997D01*
X110027601Y-50480435D01*
X110025500Y-50469867D01*
X110025500Y-50151500D01*
X110045502Y-50083379D01*
X110099158Y-50036886D01*
X110151500Y-50025500D01*
X139848500Y-50025500D01*
X139916621Y-50045502D01*
G37*
%TD.AperFunction*%
%TD*%
M02*
