M48
; DRILL file {KiCad (5.1.5)-3} date 2021/12/22 1:00:54
; FORMAT={3:3/ absolute / metric / suppress leading zeros}
; #@! TF.CreationDate,2021-12-22T01:00:54+09:00
; #@! TF.GenerationSoftware,Kicad,Pcbnew,(5.1.5)-3
FMAT,2
METRIC,TZ
T1C0.300
T2C0.750
T3C0.800
T4C0.900
T5C1.000
T6C1.200
T7C2.000
T8C3.000
%
G90
G05
T1
X1000Y39000
X1000Y34000
X1000Y29000
X1000Y24000
X1000Y19000
X1000Y14000
X1000Y11000
X1500Y45000
X1500Y5000
X4623Y11024
X6248Y24435
X7772Y38938
X7823Y10998
X8000Y48500
X8000Y1500
X9000Y5400
X9144Y33909
X9200Y21400
X9600Y23700
X10800Y29200
X10888Y26415
X10922Y35687
X11000Y1000
X11024Y33274
X11300Y30100
X11300Y15900
X11328Y11024
X11500Y25800
X12000Y7500
X12065Y39243
X12548Y31191
X13335Y37998
X13900Y29200
X14000Y49000
X14834Y41275
X15300Y23700
X15600Y7500
X16000Y1000
X16100Y34800
X16201Y19151
X16400Y27800
X17272Y37440
X18085Y36627
X18339Y28702
X18388Y23522
X19000Y49000
X19101Y41097
X19101Y38735
X19380Y36551
X20400Y8300
X20777Y25095
X20800Y4000
X21000Y1000
X21209Y19050
X21234Y21641
X23495Y24765
X24000Y49000
X24100Y3000
X24200Y8300
X25019Y33782
X25400Y22225
X25900Y17100
X26000Y1000
X26500Y6400
X26670Y20279
X27051Y41148
X27051Y38735
X27500Y18415
X27584Y23495
X27600Y27000
X27635Y35001
X27635Y20900
X27686Y31242
X27788Y12090
X29000Y49000
X29200Y1800
X30000Y43750
X30000Y18900
X30277Y36373
X30277Y23266
X30378Y15291
X30429Y28677
X30750Y5500
X31000Y1000
X32766Y12769
X34000Y49000
X34176Y21276
X34315Y8687
X35800Y11024
X35900Y15200
X36000Y23800
X36000Y1000
X36500Y41500
X37000Y33750
X38500Y38750
X39000Y49000
X39000Y45000
X39250Y31750
X42000Y48500
X42000Y1500
X42012Y35458
X42700Y22800
X45669Y31598
X45669Y28727
X45700Y23100
X45700Y16700
X45872Y11989
X48500Y44500
X48500Y5500
X49000Y37000
X49000Y32000
X49000Y26000
X49000Y21000
X49000Y16000
X49000Y11000
T2
X27000Y45000
X29000Y45000
X31000Y45000
X33000Y45000
X14000Y45000
X16000Y45000
X18000Y45000
X20000Y45000
X40060Y10600
X42060Y10600
T3
X26416Y15469
X26416Y12969
T4
X38500Y41200
X38500Y37200
X38500Y33200
T5
X37846Y26924
X37846Y24384
X40386Y26924
X40386Y24384
X42926Y26924
X42926Y24384
X13700Y7800
X13700Y5300
X37846Y19304
X37846Y16764
X40386Y19304
X40386Y16764
X42926Y19304
X42926Y16764
T6
X36750Y43200
X36750Y31200
X42750Y43200
X42750Y31200
T7
X42700Y46850
X7300Y46850
X7300Y3150
X42700Y3150
T8
X46850Y3150
X46850Y46850
X3150Y46850
X3150Y3150
T0
M30
