G04 #@! TF.GenerationSoftware,KiCad,Pcbnew,5.1.5+dfsg1-2build2*
G04 #@! TF.CreationDate,2021-06-08T03:42:44+09:00*
G04 #@! TF.ProjectId,m5-pantilt,6d352d70-616e-4746-996c-742e6b696361,1*
G04 #@! TF.SameCoordinates,Original*
G04 #@! TF.FileFunction,Legend,Bot*
G04 #@! TF.FilePolarity,Positive*
%FSLAX46Y46*%
G04 Gerber Fmt 4.6, Leading zero omitted, Abs format (unit mm)*
G04 Created by KiCad (PCBNEW 5.1.5+dfsg1-2build2) date 2021-06-08 03:42:44*
%MOMM*%
%LPD*%
G04 APERTURE LIST*
%ADD10C,0.120000*%
%ADD11C,0.150000*%
G04 APERTURE END LIST*
D10*
X108800000Y-59000000D02*
X108800000Y-57980000D01*
X103600000Y-59000000D02*
X103600000Y-57980000D01*
X108800000Y-61540000D02*
X108800000Y-60520000D01*
X103600000Y-61540000D02*
X103600000Y-60520000D01*
X108800000Y-64080000D02*
X108800000Y-63060000D01*
X103600000Y-64080000D02*
X103600000Y-63060000D01*
X108800000Y-66620000D02*
X108800000Y-65600000D01*
X103600000Y-66620000D02*
X103600000Y-65600000D01*
X108800000Y-69160000D02*
X108800000Y-68140000D01*
X103600000Y-69160000D02*
X103600000Y-68140000D01*
X108800000Y-71700000D02*
X108800000Y-70680000D01*
X103600000Y-71700000D02*
X103600000Y-70680000D01*
X108800000Y-74240000D02*
X108800000Y-73220000D01*
X103600000Y-74240000D02*
X103600000Y-73220000D01*
X108800000Y-76780000D02*
X108800000Y-75760000D01*
X103600000Y-76780000D02*
X103600000Y-75760000D01*
X108800000Y-79320000D02*
X108800000Y-78300000D01*
X103600000Y-79320000D02*
X103600000Y-78300000D01*
X108800000Y-81860000D02*
X108800000Y-80840000D01*
X103600000Y-81860000D02*
X103600000Y-80840000D01*
X108800000Y-84400000D02*
X108800000Y-83380000D01*
X103600000Y-84400000D02*
X103600000Y-83380000D01*
X108800000Y-86940000D02*
X108800000Y-85920000D01*
X103600000Y-86940000D02*
X103600000Y-85920000D01*
X108800000Y-89480000D02*
X108800000Y-88460000D01*
X103600000Y-89480000D02*
X103600000Y-88460000D01*
X108800000Y-92020000D02*
X108800000Y-91000000D01*
X103600000Y-92020000D02*
X103600000Y-91000000D01*
X108800000Y-56460000D02*
X108800000Y-55890000D01*
X103600000Y-56460000D02*
X103600000Y-55890000D01*
X108800000Y-94110000D02*
X108800000Y-93540000D01*
X103600000Y-94110000D02*
X103600000Y-93540000D01*
X102160000Y-93540000D02*
X103600000Y-93540000D01*
X103600000Y-55890000D02*
X108800000Y-55890000D01*
X103600000Y-94110000D02*
X108800000Y-94110000D01*
D11*
X107803333Y-76782380D02*
X107803333Y-77496666D01*
X107850952Y-77639523D01*
X107946190Y-77734761D01*
X108089047Y-77782380D01*
X108184285Y-77782380D01*
X106803333Y-77782380D02*
X107374761Y-77782380D01*
X107089047Y-77782380D02*
X107089047Y-76782380D01*
X107184285Y-76925238D01*
X107279523Y-77020476D01*
X107374761Y-77068095D01*
M02*
