G04 #@! TF.GenerationSoftware,KiCad,Pcbnew,5.1.5+dfsg1-2build2*
G04 #@! TF.CreationDate,2021-06-08T03:42:44+09:00*
G04 #@! TF.ProjectId,m5-pantilt,6d352d70-616e-4746-996c-742e6b696361,1*
G04 #@! TF.SameCoordinates,Original*
G04 #@! TF.FileFunction,Copper,L1,Top*
G04 #@! TF.FilePolarity,Positive*
%FSLAX46Y46*%
G04 Gerber Fmt 4.6, Leading zero omitted, Abs format (unit mm)*
G04 Created by KiCad (PCBNEW 5.1.5+dfsg1-2build2) date 2021-06-08 03:42:44*
%MOMM*%
%LPD*%
G04 APERTURE LIST*
%ADD10C,0.100000*%
%ADD11O,1.750000X1.200000*%
%ADD12R,1.700000X1.700000*%
%ADD13O,1.700000X1.700000*%
%ADD14C,1.600000*%
%ADD15C,1.700000*%
%ADD16C,2.000000*%
%ADD17R,0.254000X0.800100*%
%ADD18C,2.200000*%
%ADD19C,3.200000*%
G04 APERTURE END LIST*
G04 #@! TA.AperFunction,ComponentPad*
D10*
G36*
X145549505Y-91601204D02*
G01*
X145573773Y-91604804D01*
X145597572Y-91610765D01*
X145620671Y-91619030D01*
X145642850Y-91629520D01*
X145663893Y-91642132D01*
X145683599Y-91656747D01*
X145701777Y-91673223D01*
X145718253Y-91691401D01*
X145732868Y-91711107D01*
X145745480Y-91732150D01*
X145755970Y-91754329D01*
X145764235Y-91777428D01*
X145770196Y-91801227D01*
X145773796Y-91825495D01*
X145775000Y-91849999D01*
X145775000Y-92550001D01*
X145773796Y-92574505D01*
X145770196Y-92598773D01*
X145764235Y-92622572D01*
X145755970Y-92645671D01*
X145745480Y-92667850D01*
X145732868Y-92688893D01*
X145718253Y-92708599D01*
X145701777Y-92726777D01*
X145683599Y-92743253D01*
X145663893Y-92757868D01*
X145642850Y-92770480D01*
X145620671Y-92780970D01*
X145597572Y-92789235D01*
X145573773Y-92795196D01*
X145549505Y-92798796D01*
X145525001Y-92800000D01*
X144274999Y-92800000D01*
X144250495Y-92798796D01*
X144226227Y-92795196D01*
X144202428Y-92789235D01*
X144179329Y-92780970D01*
X144157150Y-92770480D01*
X144136107Y-92757868D01*
X144116401Y-92743253D01*
X144098223Y-92726777D01*
X144081747Y-92708599D01*
X144067132Y-92688893D01*
X144054520Y-92667850D01*
X144044030Y-92645671D01*
X144035765Y-92622572D01*
X144029804Y-92598773D01*
X144026204Y-92574505D01*
X144025000Y-92550001D01*
X144025000Y-91849999D01*
X144026204Y-91825495D01*
X144029804Y-91801227D01*
X144035765Y-91777428D01*
X144044030Y-91754329D01*
X144054520Y-91732150D01*
X144067132Y-91711107D01*
X144081747Y-91691401D01*
X144098223Y-91673223D01*
X144116401Y-91656747D01*
X144136107Y-91642132D01*
X144157150Y-91629520D01*
X144179329Y-91619030D01*
X144202428Y-91610765D01*
X144226227Y-91604804D01*
X144250495Y-91601204D01*
X144274999Y-91600000D01*
X145525001Y-91600000D01*
X145549505Y-91601204D01*
G37*
G04 #@! TD.AperFunction*
D11*
X144900000Y-90200000D03*
X144900000Y-88200000D03*
X144900000Y-86200000D03*
D12*
X115000000Y-80000000D03*
D13*
X115000000Y-77460000D03*
X117540000Y-80000000D03*
X117540000Y-77460000D03*
X120080000Y-80000000D03*
X120080000Y-77460000D03*
G04 #@! TA.AperFunction,SMDPad,CuDef*
D10*
G36*
X116185779Y-65526144D02*
G01*
X116208834Y-65529563D01*
X116231443Y-65535227D01*
X116253387Y-65543079D01*
X116274457Y-65553044D01*
X116294448Y-65565026D01*
X116313168Y-65578910D01*
X116330438Y-65594562D01*
X116346090Y-65611832D01*
X116359974Y-65630552D01*
X116371956Y-65650543D01*
X116381921Y-65671613D01*
X116389773Y-65693557D01*
X116395437Y-65716166D01*
X116398856Y-65739221D01*
X116400000Y-65762500D01*
X116400000Y-66237500D01*
X116398856Y-66260779D01*
X116395437Y-66283834D01*
X116389773Y-66306443D01*
X116381921Y-66328387D01*
X116371956Y-66349457D01*
X116359974Y-66369448D01*
X116346090Y-66388168D01*
X116330438Y-66405438D01*
X116313168Y-66421090D01*
X116294448Y-66434974D01*
X116274457Y-66446956D01*
X116253387Y-66456921D01*
X116231443Y-66464773D01*
X116208834Y-66470437D01*
X116185779Y-66473856D01*
X116162500Y-66475000D01*
X115587500Y-66475000D01*
X115564221Y-66473856D01*
X115541166Y-66470437D01*
X115518557Y-66464773D01*
X115496613Y-66456921D01*
X115475543Y-66446956D01*
X115455552Y-66434974D01*
X115436832Y-66421090D01*
X115419562Y-66405438D01*
X115403910Y-66388168D01*
X115390026Y-66369448D01*
X115378044Y-66349457D01*
X115368079Y-66328387D01*
X115360227Y-66306443D01*
X115354563Y-66283834D01*
X115351144Y-66260779D01*
X115350000Y-66237500D01*
X115350000Y-65762500D01*
X115351144Y-65739221D01*
X115354563Y-65716166D01*
X115360227Y-65693557D01*
X115368079Y-65671613D01*
X115378044Y-65650543D01*
X115390026Y-65630552D01*
X115403910Y-65611832D01*
X115419562Y-65594562D01*
X115436832Y-65578910D01*
X115455552Y-65565026D01*
X115475543Y-65553044D01*
X115496613Y-65543079D01*
X115518557Y-65535227D01*
X115541166Y-65529563D01*
X115564221Y-65526144D01*
X115587500Y-65525000D01*
X116162500Y-65525000D01*
X116185779Y-65526144D01*
G37*
G04 #@! TD.AperFunction*
G04 #@! TA.AperFunction,SMDPad,CuDef*
G36*
X114435779Y-65526144D02*
G01*
X114458834Y-65529563D01*
X114481443Y-65535227D01*
X114503387Y-65543079D01*
X114524457Y-65553044D01*
X114544448Y-65565026D01*
X114563168Y-65578910D01*
X114580438Y-65594562D01*
X114596090Y-65611832D01*
X114609974Y-65630552D01*
X114621956Y-65650543D01*
X114631921Y-65671613D01*
X114639773Y-65693557D01*
X114645437Y-65716166D01*
X114648856Y-65739221D01*
X114650000Y-65762500D01*
X114650000Y-66237500D01*
X114648856Y-66260779D01*
X114645437Y-66283834D01*
X114639773Y-66306443D01*
X114631921Y-66328387D01*
X114621956Y-66349457D01*
X114609974Y-66369448D01*
X114596090Y-66388168D01*
X114580438Y-66405438D01*
X114563168Y-66421090D01*
X114544448Y-66434974D01*
X114524457Y-66446956D01*
X114503387Y-66456921D01*
X114481443Y-66464773D01*
X114458834Y-66470437D01*
X114435779Y-66473856D01*
X114412500Y-66475000D01*
X113837500Y-66475000D01*
X113814221Y-66473856D01*
X113791166Y-66470437D01*
X113768557Y-66464773D01*
X113746613Y-66456921D01*
X113725543Y-66446956D01*
X113705552Y-66434974D01*
X113686832Y-66421090D01*
X113669562Y-66405438D01*
X113653910Y-66388168D01*
X113640026Y-66369448D01*
X113628044Y-66349457D01*
X113618079Y-66328387D01*
X113610227Y-66306443D01*
X113604563Y-66283834D01*
X113601144Y-66260779D01*
X113600000Y-66237500D01*
X113600000Y-65762500D01*
X113601144Y-65739221D01*
X113604563Y-65716166D01*
X113610227Y-65693557D01*
X113618079Y-65671613D01*
X113628044Y-65650543D01*
X113640026Y-65630552D01*
X113653910Y-65611832D01*
X113669562Y-65594562D01*
X113686832Y-65578910D01*
X113705552Y-65565026D01*
X113725543Y-65553044D01*
X113746613Y-65543079D01*
X113768557Y-65535227D01*
X113791166Y-65529563D01*
X113814221Y-65526144D01*
X113837500Y-65525000D01*
X114412500Y-65525000D01*
X114435779Y-65526144D01*
G37*
G04 #@! TD.AperFunction*
G04 #@! TA.AperFunction,SMDPad,CuDef*
G36*
X114435779Y-63526144D02*
G01*
X114458834Y-63529563D01*
X114481443Y-63535227D01*
X114503387Y-63543079D01*
X114524457Y-63553044D01*
X114544448Y-63565026D01*
X114563168Y-63578910D01*
X114580438Y-63594562D01*
X114596090Y-63611832D01*
X114609974Y-63630552D01*
X114621956Y-63650543D01*
X114631921Y-63671613D01*
X114639773Y-63693557D01*
X114645437Y-63716166D01*
X114648856Y-63739221D01*
X114650000Y-63762500D01*
X114650000Y-64237500D01*
X114648856Y-64260779D01*
X114645437Y-64283834D01*
X114639773Y-64306443D01*
X114631921Y-64328387D01*
X114621956Y-64349457D01*
X114609974Y-64369448D01*
X114596090Y-64388168D01*
X114580438Y-64405438D01*
X114563168Y-64421090D01*
X114544448Y-64434974D01*
X114524457Y-64446956D01*
X114503387Y-64456921D01*
X114481443Y-64464773D01*
X114458834Y-64470437D01*
X114435779Y-64473856D01*
X114412500Y-64475000D01*
X113837500Y-64475000D01*
X113814221Y-64473856D01*
X113791166Y-64470437D01*
X113768557Y-64464773D01*
X113746613Y-64456921D01*
X113725543Y-64446956D01*
X113705552Y-64434974D01*
X113686832Y-64421090D01*
X113669562Y-64405438D01*
X113653910Y-64388168D01*
X113640026Y-64369448D01*
X113628044Y-64349457D01*
X113618079Y-64328387D01*
X113610227Y-64306443D01*
X113604563Y-64283834D01*
X113601144Y-64260779D01*
X113600000Y-64237500D01*
X113600000Y-63762500D01*
X113601144Y-63739221D01*
X113604563Y-63716166D01*
X113610227Y-63693557D01*
X113618079Y-63671613D01*
X113628044Y-63650543D01*
X113640026Y-63630552D01*
X113653910Y-63611832D01*
X113669562Y-63594562D01*
X113686832Y-63578910D01*
X113705552Y-63565026D01*
X113725543Y-63553044D01*
X113746613Y-63543079D01*
X113768557Y-63535227D01*
X113791166Y-63529563D01*
X113814221Y-63526144D01*
X113837500Y-63525000D01*
X114412500Y-63525000D01*
X114435779Y-63526144D01*
G37*
G04 #@! TD.AperFunction*
G04 #@! TA.AperFunction,SMDPad,CuDef*
G36*
X116185779Y-63526144D02*
G01*
X116208834Y-63529563D01*
X116231443Y-63535227D01*
X116253387Y-63543079D01*
X116274457Y-63553044D01*
X116294448Y-63565026D01*
X116313168Y-63578910D01*
X116330438Y-63594562D01*
X116346090Y-63611832D01*
X116359974Y-63630552D01*
X116371956Y-63650543D01*
X116381921Y-63671613D01*
X116389773Y-63693557D01*
X116395437Y-63716166D01*
X116398856Y-63739221D01*
X116400000Y-63762500D01*
X116400000Y-64237500D01*
X116398856Y-64260779D01*
X116395437Y-64283834D01*
X116389773Y-64306443D01*
X116381921Y-64328387D01*
X116371956Y-64349457D01*
X116359974Y-64369448D01*
X116346090Y-64388168D01*
X116330438Y-64405438D01*
X116313168Y-64421090D01*
X116294448Y-64434974D01*
X116274457Y-64446956D01*
X116253387Y-64456921D01*
X116231443Y-64464773D01*
X116208834Y-64470437D01*
X116185779Y-64473856D01*
X116162500Y-64475000D01*
X115587500Y-64475000D01*
X115564221Y-64473856D01*
X115541166Y-64470437D01*
X115518557Y-64464773D01*
X115496613Y-64456921D01*
X115475543Y-64446956D01*
X115455552Y-64434974D01*
X115436832Y-64421090D01*
X115419562Y-64405438D01*
X115403910Y-64388168D01*
X115390026Y-64369448D01*
X115378044Y-64349457D01*
X115368079Y-64328387D01*
X115360227Y-64306443D01*
X115354563Y-64283834D01*
X115351144Y-64260779D01*
X115350000Y-64237500D01*
X115350000Y-63762500D01*
X115351144Y-63739221D01*
X115354563Y-63716166D01*
X115360227Y-63693557D01*
X115368079Y-63671613D01*
X115378044Y-63650543D01*
X115390026Y-63630552D01*
X115403910Y-63611832D01*
X115419562Y-63594562D01*
X115436832Y-63578910D01*
X115455552Y-63565026D01*
X115475543Y-63553044D01*
X115496613Y-63543079D01*
X115518557Y-63535227D01*
X115541166Y-63529563D01*
X115564221Y-63526144D01*
X115587500Y-63525000D01*
X116162500Y-63525000D01*
X116185779Y-63526144D01*
G37*
G04 #@! TD.AperFunction*
D14*
X118000000Y-57000000D03*
X118000000Y-59500000D03*
D11*
X120000000Y-94000000D03*
G04 #@! TA.AperFunction,ComponentPad*
D10*
G36*
X120649505Y-91401204D02*
G01*
X120673773Y-91404804D01*
X120697572Y-91410765D01*
X120720671Y-91419030D01*
X120742850Y-91429520D01*
X120763893Y-91442132D01*
X120783599Y-91456747D01*
X120801777Y-91473223D01*
X120818253Y-91491401D01*
X120832868Y-91511107D01*
X120845480Y-91532150D01*
X120855970Y-91554329D01*
X120864235Y-91577428D01*
X120870196Y-91601227D01*
X120873796Y-91625495D01*
X120875000Y-91649999D01*
X120875000Y-92350001D01*
X120873796Y-92374505D01*
X120870196Y-92398773D01*
X120864235Y-92422572D01*
X120855970Y-92445671D01*
X120845480Y-92467850D01*
X120832868Y-92488893D01*
X120818253Y-92508599D01*
X120801777Y-92526777D01*
X120783599Y-92543253D01*
X120763893Y-92557868D01*
X120742850Y-92570480D01*
X120720671Y-92580970D01*
X120697572Y-92589235D01*
X120673773Y-92595196D01*
X120649505Y-92598796D01*
X120625001Y-92600000D01*
X119374999Y-92600000D01*
X119350495Y-92598796D01*
X119326227Y-92595196D01*
X119302428Y-92589235D01*
X119279329Y-92580970D01*
X119257150Y-92570480D01*
X119236107Y-92557868D01*
X119216401Y-92543253D01*
X119198223Y-92526777D01*
X119181747Y-92508599D01*
X119167132Y-92488893D01*
X119154520Y-92467850D01*
X119144030Y-92445671D01*
X119135765Y-92422572D01*
X119129804Y-92398773D01*
X119126204Y-92374505D01*
X119125000Y-92350001D01*
X119125000Y-91649999D01*
X119126204Y-91625495D01*
X119129804Y-91601227D01*
X119135765Y-91577428D01*
X119144030Y-91554329D01*
X119154520Y-91532150D01*
X119167132Y-91511107D01*
X119181747Y-91491401D01*
X119198223Y-91473223D01*
X119216401Y-91456747D01*
X119236107Y-91442132D01*
X119257150Y-91429520D01*
X119279329Y-91419030D01*
X119302428Y-91410765D01*
X119326227Y-91404804D01*
X119350495Y-91401204D01*
X119374999Y-91400000D01*
X120625001Y-91400000D01*
X120649505Y-91401204D01*
G37*
G04 #@! TD.AperFunction*
D12*
X115000000Y-73000000D03*
D13*
X115000000Y-70460000D03*
X117540000Y-73000000D03*
X117540000Y-70460000D03*
X120080000Y-73000000D03*
X120080000Y-70460000D03*
D15*
X138000000Y-58800000D03*
X138000000Y-62800000D03*
X138000000Y-66800000D03*
D16*
X142250000Y-68800000D03*
X142250000Y-56800000D03*
X136250000Y-56800000D03*
X136250000Y-68800000D03*
D13*
X120080000Y-84460000D03*
X120080000Y-87000000D03*
X117540000Y-84460000D03*
X117540000Y-87000000D03*
X115000000Y-84460000D03*
D12*
X115000000Y-87000000D03*
D17*
X120750001Y-63444250D03*
X120250000Y-63444250D03*
X119750000Y-63444250D03*
X119249999Y-63444250D03*
X119249999Y-66555750D03*
X119750000Y-66555750D03*
X120250000Y-66555750D03*
X120750001Y-66555750D03*
D18*
X106300000Y-53150000D03*
D19*
X103150000Y-53150000D03*
X146850000Y-96850000D03*
D18*
X143700000Y-96850000D03*
D19*
X146850000Y-53150000D03*
D18*
X143700000Y-53150000D03*
X106300000Y-96850000D03*
D19*
X103150000Y-96850000D03*
M02*
