G04 #@! TF.GenerationSoftware,KiCad,Pcbnew,5.1.5+dfsg1-2build2*
G04 #@! TF.CreationDate,2021-06-08T03:42:44+09:00*
G04 #@! TF.ProjectId,m5-pantilt,6d352d70-616e-4746-996c-742e6b696361,1*
G04 #@! TF.SameCoordinates,Original*
G04 #@! TF.FileFunction,Paste,Top*
G04 #@! TF.FilePolarity,Positive*
%FSLAX46Y46*%
G04 Gerber Fmt 4.6, Leading zero omitted, Abs format (unit mm)*
G04 Created by KiCad (PCBNEW 5.1.5+dfsg1-2build2) date 2021-06-08 03:42:44*
%MOMM*%
%LPD*%
G04 APERTURE LIST*
%ADD10C,0.100000*%
%ADD11R,0.254000X0.800100*%
G04 APERTURE END LIST*
D10*
G36*
X116185779Y-65526144D02*
G01*
X116208834Y-65529563D01*
X116231443Y-65535227D01*
X116253387Y-65543079D01*
X116274457Y-65553044D01*
X116294448Y-65565026D01*
X116313168Y-65578910D01*
X116330438Y-65594562D01*
X116346090Y-65611832D01*
X116359974Y-65630552D01*
X116371956Y-65650543D01*
X116381921Y-65671613D01*
X116389773Y-65693557D01*
X116395437Y-65716166D01*
X116398856Y-65739221D01*
X116400000Y-65762500D01*
X116400000Y-66237500D01*
X116398856Y-66260779D01*
X116395437Y-66283834D01*
X116389773Y-66306443D01*
X116381921Y-66328387D01*
X116371956Y-66349457D01*
X116359974Y-66369448D01*
X116346090Y-66388168D01*
X116330438Y-66405438D01*
X116313168Y-66421090D01*
X116294448Y-66434974D01*
X116274457Y-66446956D01*
X116253387Y-66456921D01*
X116231443Y-66464773D01*
X116208834Y-66470437D01*
X116185779Y-66473856D01*
X116162500Y-66475000D01*
X115587500Y-66475000D01*
X115564221Y-66473856D01*
X115541166Y-66470437D01*
X115518557Y-66464773D01*
X115496613Y-66456921D01*
X115475543Y-66446956D01*
X115455552Y-66434974D01*
X115436832Y-66421090D01*
X115419562Y-66405438D01*
X115403910Y-66388168D01*
X115390026Y-66369448D01*
X115378044Y-66349457D01*
X115368079Y-66328387D01*
X115360227Y-66306443D01*
X115354563Y-66283834D01*
X115351144Y-66260779D01*
X115350000Y-66237500D01*
X115350000Y-65762500D01*
X115351144Y-65739221D01*
X115354563Y-65716166D01*
X115360227Y-65693557D01*
X115368079Y-65671613D01*
X115378044Y-65650543D01*
X115390026Y-65630552D01*
X115403910Y-65611832D01*
X115419562Y-65594562D01*
X115436832Y-65578910D01*
X115455552Y-65565026D01*
X115475543Y-65553044D01*
X115496613Y-65543079D01*
X115518557Y-65535227D01*
X115541166Y-65529563D01*
X115564221Y-65526144D01*
X115587500Y-65525000D01*
X116162500Y-65525000D01*
X116185779Y-65526144D01*
G37*
G36*
X114435779Y-65526144D02*
G01*
X114458834Y-65529563D01*
X114481443Y-65535227D01*
X114503387Y-65543079D01*
X114524457Y-65553044D01*
X114544448Y-65565026D01*
X114563168Y-65578910D01*
X114580438Y-65594562D01*
X114596090Y-65611832D01*
X114609974Y-65630552D01*
X114621956Y-65650543D01*
X114631921Y-65671613D01*
X114639773Y-65693557D01*
X114645437Y-65716166D01*
X114648856Y-65739221D01*
X114650000Y-65762500D01*
X114650000Y-66237500D01*
X114648856Y-66260779D01*
X114645437Y-66283834D01*
X114639773Y-66306443D01*
X114631921Y-66328387D01*
X114621956Y-66349457D01*
X114609974Y-66369448D01*
X114596090Y-66388168D01*
X114580438Y-66405438D01*
X114563168Y-66421090D01*
X114544448Y-66434974D01*
X114524457Y-66446956D01*
X114503387Y-66456921D01*
X114481443Y-66464773D01*
X114458834Y-66470437D01*
X114435779Y-66473856D01*
X114412500Y-66475000D01*
X113837500Y-66475000D01*
X113814221Y-66473856D01*
X113791166Y-66470437D01*
X113768557Y-66464773D01*
X113746613Y-66456921D01*
X113725543Y-66446956D01*
X113705552Y-66434974D01*
X113686832Y-66421090D01*
X113669562Y-66405438D01*
X113653910Y-66388168D01*
X113640026Y-66369448D01*
X113628044Y-66349457D01*
X113618079Y-66328387D01*
X113610227Y-66306443D01*
X113604563Y-66283834D01*
X113601144Y-66260779D01*
X113600000Y-66237500D01*
X113600000Y-65762500D01*
X113601144Y-65739221D01*
X113604563Y-65716166D01*
X113610227Y-65693557D01*
X113618079Y-65671613D01*
X113628044Y-65650543D01*
X113640026Y-65630552D01*
X113653910Y-65611832D01*
X113669562Y-65594562D01*
X113686832Y-65578910D01*
X113705552Y-65565026D01*
X113725543Y-65553044D01*
X113746613Y-65543079D01*
X113768557Y-65535227D01*
X113791166Y-65529563D01*
X113814221Y-65526144D01*
X113837500Y-65525000D01*
X114412500Y-65525000D01*
X114435779Y-65526144D01*
G37*
G36*
X114435779Y-63526144D02*
G01*
X114458834Y-63529563D01*
X114481443Y-63535227D01*
X114503387Y-63543079D01*
X114524457Y-63553044D01*
X114544448Y-63565026D01*
X114563168Y-63578910D01*
X114580438Y-63594562D01*
X114596090Y-63611832D01*
X114609974Y-63630552D01*
X114621956Y-63650543D01*
X114631921Y-63671613D01*
X114639773Y-63693557D01*
X114645437Y-63716166D01*
X114648856Y-63739221D01*
X114650000Y-63762500D01*
X114650000Y-64237500D01*
X114648856Y-64260779D01*
X114645437Y-64283834D01*
X114639773Y-64306443D01*
X114631921Y-64328387D01*
X114621956Y-64349457D01*
X114609974Y-64369448D01*
X114596090Y-64388168D01*
X114580438Y-64405438D01*
X114563168Y-64421090D01*
X114544448Y-64434974D01*
X114524457Y-64446956D01*
X114503387Y-64456921D01*
X114481443Y-64464773D01*
X114458834Y-64470437D01*
X114435779Y-64473856D01*
X114412500Y-64475000D01*
X113837500Y-64475000D01*
X113814221Y-64473856D01*
X113791166Y-64470437D01*
X113768557Y-64464773D01*
X113746613Y-64456921D01*
X113725543Y-64446956D01*
X113705552Y-64434974D01*
X113686832Y-64421090D01*
X113669562Y-64405438D01*
X113653910Y-64388168D01*
X113640026Y-64369448D01*
X113628044Y-64349457D01*
X113618079Y-64328387D01*
X113610227Y-64306443D01*
X113604563Y-64283834D01*
X113601144Y-64260779D01*
X113600000Y-64237500D01*
X113600000Y-63762500D01*
X113601144Y-63739221D01*
X113604563Y-63716166D01*
X113610227Y-63693557D01*
X113618079Y-63671613D01*
X113628044Y-63650543D01*
X113640026Y-63630552D01*
X113653910Y-63611832D01*
X113669562Y-63594562D01*
X113686832Y-63578910D01*
X113705552Y-63565026D01*
X113725543Y-63553044D01*
X113746613Y-63543079D01*
X113768557Y-63535227D01*
X113791166Y-63529563D01*
X113814221Y-63526144D01*
X113837500Y-63525000D01*
X114412500Y-63525000D01*
X114435779Y-63526144D01*
G37*
G36*
X116185779Y-63526144D02*
G01*
X116208834Y-63529563D01*
X116231443Y-63535227D01*
X116253387Y-63543079D01*
X116274457Y-63553044D01*
X116294448Y-63565026D01*
X116313168Y-63578910D01*
X116330438Y-63594562D01*
X116346090Y-63611832D01*
X116359974Y-63630552D01*
X116371956Y-63650543D01*
X116381921Y-63671613D01*
X116389773Y-63693557D01*
X116395437Y-63716166D01*
X116398856Y-63739221D01*
X116400000Y-63762500D01*
X116400000Y-64237500D01*
X116398856Y-64260779D01*
X116395437Y-64283834D01*
X116389773Y-64306443D01*
X116381921Y-64328387D01*
X116371956Y-64349457D01*
X116359974Y-64369448D01*
X116346090Y-64388168D01*
X116330438Y-64405438D01*
X116313168Y-64421090D01*
X116294448Y-64434974D01*
X116274457Y-64446956D01*
X116253387Y-64456921D01*
X116231443Y-64464773D01*
X116208834Y-64470437D01*
X116185779Y-64473856D01*
X116162500Y-64475000D01*
X115587500Y-64475000D01*
X115564221Y-64473856D01*
X115541166Y-64470437D01*
X115518557Y-64464773D01*
X115496613Y-64456921D01*
X115475543Y-64446956D01*
X115455552Y-64434974D01*
X115436832Y-64421090D01*
X115419562Y-64405438D01*
X115403910Y-64388168D01*
X115390026Y-64369448D01*
X115378044Y-64349457D01*
X115368079Y-64328387D01*
X115360227Y-64306443D01*
X115354563Y-64283834D01*
X115351144Y-64260779D01*
X115350000Y-64237500D01*
X115350000Y-63762500D01*
X115351144Y-63739221D01*
X115354563Y-63716166D01*
X115360227Y-63693557D01*
X115368079Y-63671613D01*
X115378044Y-63650543D01*
X115390026Y-63630552D01*
X115403910Y-63611832D01*
X115419562Y-63594562D01*
X115436832Y-63578910D01*
X115455552Y-63565026D01*
X115475543Y-63553044D01*
X115496613Y-63543079D01*
X115518557Y-63535227D01*
X115541166Y-63529563D01*
X115564221Y-63526144D01*
X115587500Y-63525000D01*
X116162500Y-63525000D01*
X116185779Y-63526144D01*
G37*
D11*
X120750001Y-63444250D03*
X120250000Y-63444250D03*
X119750000Y-63444250D03*
X119249999Y-63444250D03*
X119249999Y-66555750D03*
X119750000Y-66555750D03*
X120250000Y-66555750D03*
X120750001Y-66555750D03*
M02*
