M48
; DRILL file {KiCad 5.1.5+dfsg1-2build2} date Sat 12 Jun 2021 13:05:20 JST
; FORMAT={3:3/ absolute / metric / suppress leading zeros}
; #@! TF.CreationDate,2021-06-12T13:05:20+09:00
; #@! TF.GenerationSoftware,Kicad,Pcbnew,5.1.5+dfsg1-2build2
FMAT,2
METRIC,TZ
T1C0.300
T2C0.750
T3C0.800
T4C0.900
T5C1.000
T6C1.200
T7C2.000
T8C3.000
%
G90
G05
T1
X101000Y-61000
X101000Y-66000
X101000Y-71000
X101000Y-76000
X101000Y-81000
X101000Y-86000
X101000Y-89000
X101500Y-55000
X101500Y-95000
X106147Y-79934
X106248Y-75565
X108000Y-51500
X108000Y-98500
X109144Y-66091
X109250Y-94500
X110922Y-64313
X111000Y-99000
X111024Y-66726
X111278Y-81966
X111328Y-88976
X112065Y-60757
X112421Y-69977
X112548Y-68809
X112700Y-72111
X113106Y-74194
X113335Y-62002
X113868Y-75006
X114000Y-51000
X114834Y-58725
X115342Y-76454
X115367Y-78004
X115392Y-64796
X116000Y-99000
X116488Y-79128
X117272Y-62560
X117526Y-91364
X118085Y-63373
X118339Y-71298
X118388Y-76478
X119000Y-51000
X119101Y-58903
X119101Y-61265
X119380Y-63449
X120777Y-74905
X121000Y-94500
X121000Y-99000
X121209Y-80061
X121209Y-80950
X121234Y-78359
X121238Y-76683
X124000Y-51000
X125019Y-66218
X125806Y-78258
X126000Y-99000
X126500Y-71000
X126500Y-83000
X126670Y-79721
X127051Y-58852
X127051Y-61265
X127584Y-77089
X127635Y-64999
X127635Y-79426
X127635Y-80544
X127686Y-68758
X127788Y-87910
X129000Y-51000
X130000Y-56250
X130277Y-63627
X130277Y-76734
X130378Y-80544
X130378Y-84709
X130429Y-71323
X130750Y-94500
X131000Y-99000
X134000Y-51000
X134290Y-84100
X134315Y-91313
X135306Y-80848
X135306Y-87173
X136000Y-99000
X136271Y-84100
X136500Y-58500
X137000Y-66250
X137465Y-80950
X138500Y-61250
X138659Y-76175
X139000Y-51000
X139000Y-55000
X139014Y-81560
X139250Y-68250
X140386Y-84912
X141097Y-88976
X142000Y-51500
X142000Y-98500
X142012Y-64542
X144145Y-76784
X144145Y-78664
X145669Y-68402
X145669Y-71273
X145872Y-88011
X148500Y-55500
X148500Y-94500
X149000Y-63000
X149000Y-68000
X149000Y-74000
X149000Y-79000
X149000Y-84000
X149000Y-89000
T2
X142600Y-89400
X144600Y-89400
X114000Y-55000
X116000Y-55000
X118000Y-55000
X120000Y-55000
X127000Y-55000
X129000Y-55000
X131000Y-55000
X133000Y-55000
T3
X126416Y-84531
X126416Y-87031
T4
X138500Y-58800
X138500Y-62800
X138500Y-66800
T5
X140386Y-73076
X140386Y-75616
X142926Y-73076
X142926Y-75616
X145466Y-73076
X145466Y-75616
X140386Y-80696
X140386Y-83236
X142926Y-80696
X142926Y-83236
X145466Y-80696
X145466Y-83236
T6
X136750Y-56800
X136750Y-68800
X142750Y-56800
X142750Y-68800
T7
X106300Y-53150
X143700Y-53150
X143700Y-96850
X106300Y-96850
T8
X103150Y-53150
X146850Y-53150
X146850Y-96850
X103150Y-96850
T0
M30
