G04 #@! TF.GenerationSoftware,KiCad,Pcbnew,5.1.5+dfsg1-2build2*
G04 #@! TF.CreationDate,2021-06-12T13:05:18+09:00*
G04 #@! TF.ProjectId,m5-pantilt,6d352d70-616e-4746-996c-742e6b696361,1*
G04 #@! TF.SameCoordinates,Original*
G04 #@! TF.FileFunction,Copper,L1,Top*
G04 #@! TF.FilePolarity,Positive*
%FSLAX46Y46*%
G04 Gerber Fmt 4.6, Leading zero omitted, Abs format (unit mm)*
G04 Created by KiCad (PCBNEW 5.1.5+dfsg1-2build2) date 2021-06-12 13:05:18*
%MOMM*%
%LPD*%
G04 APERTURE LIST*
%ADD10O,1.200000X1.750000*%
%ADD11C,0.152000*%
%ADD12R,1.700000X1.700000*%
%ADD13O,1.700000X1.700000*%
%ADD14C,1.600000*%
%ADD15C,1.700000*%
%ADD16C,2.000000*%
%ADD17R,0.800100X0.254000*%
%ADD18C,2.200000*%
%ADD19C,3.200000*%
%ADD20C,0.600000*%
%ADD21C,0.200000*%
%ADD22C,1.000000*%
%ADD23C,1.600000*%
%ADD24C,0.254000*%
G04 APERTURE END LIST*
D10*
X127000000Y-55000000D03*
X129000000Y-55000000D03*
X131000000Y-55000000D03*
G04 #@! TA.AperFunction,ComponentPad*
D11*
G36*
X133374505Y-54126204D02*
G01*
X133398773Y-54129804D01*
X133422572Y-54135765D01*
X133445671Y-54144030D01*
X133467850Y-54154520D01*
X133488893Y-54167132D01*
X133508599Y-54181747D01*
X133526777Y-54198223D01*
X133543253Y-54216401D01*
X133557868Y-54236107D01*
X133570480Y-54257150D01*
X133580970Y-54279329D01*
X133589235Y-54302428D01*
X133595196Y-54326227D01*
X133598796Y-54350495D01*
X133600000Y-54374999D01*
X133600000Y-55625001D01*
X133598796Y-55649505D01*
X133595196Y-55673773D01*
X133589235Y-55697572D01*
X133580970Y-55720671D01*
X133570480Y-55742850D01*
X133557868Y-55763893D01*
X133543253Y-55783599D01*
X133526777Y-55801777D01*
X133508599Y-55818253D01*
X133488893Y-55832868D01*
X133467850Y-55845480D01*
X133445671Y-55855970D01*
X133422572Y-55864235D01*
X133398773Y-55870196D01*
X133374505Y-55873796D01*
X133350001Y-55875000D01*
X132649999Y-55875000D01*
X132625495Y-55873796D01*
X132601227Y-55870196D01*
X132577428Y-55864235D01*
X132554329Y-55855970D01*
X132532150Y-55845480D01*
X132511107Y-55832868D01*
X132491401Y-55818253D01*
X132473223Y-55801777D01*
X132456747Y-55783599D01*
X132442132Y-55763893D01*
X132429520Y-55742850D01*
X132419030Y-55720671D01*
X132410765Y-55697572D01*
X132404804Y-55673773D01*
X132401204Y-55649505D01*
X132400000Y-55625001D01*
X132400000Y-54374999D01*
X132401204Y-54350495D01*
X132404804Y-54326227D01*
X132410765Y-54302428D01*
X132419030Y-54279329D01*
X132429520Y-54257150D01*
X132442132Y-54236107D01*
X132456747Y-54216401D01*
X132473223Y-54198223D01*
X132491401Y-54181747D01*
X132511107Y-54167132D01*
X132532150Y-54154520D01*
X132554329Y-54144030D01*
X132577428Y-54135765D01*
X132601227Y-54129804D01*
X132625495Y-54126204D01*
X132649999Y-54125000D01*
X133350001Y-54125000D01*
X133374505Y-54126204D01*
G37*
G04 #@! TD.AperFunction*
D12*
X140386000Y-83236000D03*
D13*
X140386000Y-80696000D03*
X142926000Y-83236000D03*
X142926000Y-80696000D03*
X145466000Y-83236000D03*
X145466000Y-80696000D03*
G04 #@! TA.AperFunction,SMDPad,CuDef*
D11*
G36*
X124591779Y-75345344D02*
G01*
X124614834Y-75348763D01*
X124637443Y-75354427D01*
X124659387Y-75362279D01*
X124680457Y-75372244D01*
X124700448Y-75384226D01*
X124719168Y-75398110D01*
X124736438Y-75413762D01*
X124752090Y-75431032D01*
X124765974Y-75449752D01*
X124777956Y-75469743D01*
X124787921Y-75490813D01*
X124795773Y-75512757D01*
X124801437Y-75535366D01*
X124804856Y-75558421D01*
X124806000Y-75581700D01*
X124806000Y-76056700D01*
X124804856Y-76079979D01*
X124801437Y-76103034D01*
X124795773Y-76125643D01*
X124787921Y-76147587D01*
X124777956Y-76168657D01*
X124765974Y-76188648D01*
X124752090Y-76207368D01*
X124736438Y-76224638D01*
X124719168Y-76240290D01*
X124700448Y-76254174D01*
X124680457Y-76266156D01*
X124659387Y-76276121D01*
X124637443Y-76283973D01*
X124614834Y-76289637D01*
X124591779Y-76293056D01*
X124568500Y-76294200D01*
X123993500Y-76294200D01*
X123970221Y-76293056D01*
X123947166Y-76289637D01*
X123924557Y-76283973D01*
X123902613Y-76276121D01*
X123881543Y-76266156D01*
X123861552Y-76254174D01*
X123842832Y-76240290D01*
X123825562Y-76224638D01*
X123809910Y-76207368D01*
X123796026Y-76188648D01*
X123784044Y-76168657D01*
X123774079Y-76147587D01*
X123766227Y-76125643D01*
X123760563Y-76103034D01*
X123757144Y-76079979D01*
X123756000Y-76056700D01*
X123756000Y-75581700D01*
X123757144Y-75558421D01*
X123760563Y-75535366D01*
X123766227Y-75512757D01*
X123774079Y-75490813D01*
X123784044Y-75469743D01*
X123796026Y-75449752D01*
X123809910Y-75431032D01*
X123825562Y-75413762D01*
X123842832Y-75398110D01*
X123861552Y-75384226D01*
X123881543Y-75372244D01*
X123902613Y-75362279D01*
X123924557Y-75354427D01*
X123947166Y-75348763D01*
X123970221Y-75345344D01*
X123993500Y-75344200D01*
X124568500Y-75344200D01*
X124591779Y-75345344D01*
G37*
G04 #@! TD.AperFunction*
G04 #@! TA.AperFunction,SMDPad,CuDef*
G36*
X122841779Y-75345344D02*
G01*
X122864834Y-75348763D01*
X122887443Y-75354427D01*
X122909387Y-75362279D01*
X122930457Y-75372244D01*
X122950448Y-75384226D01*
X122969168Y-75398110D01*
X122986438Y-75413762D01*
X123002090Y-75431032D01*
X123015974Y-75449752D01*
X123027956Y-75469743D01*
X123037921Y-75490813D01*
X123045773Y-75512757D01*
X123051437Y-75535366D01*
X123054856Y-75558421D01*
X123056000Y-75581700D01*
X123056000Y-76056700D01*
X123054856Y-76079979D01*
X123051437Y-76103034D01*
X123045773Y-76125643D01*
X123037921Y-76147587D01*
X123027956Y-76168657D01*
X123015974Y-76188648D01*
X123002090Y-76207368D01*
X122986438Y-76224638D01*
X122969168Y-76240290D01*
X122950448Y-76254174D01*
X122930457Y-76266156D01*
X122909387Y-76276121D01*
X122887443Y-76283973D01*
X122864834Y-76289637D01*
X122841779Y-76293056D01*
X122818500Y-76294200D01*
X122243500Y-76294200D01*
X122220221Y-76293056D01*
X122197166Y-76289637D01*
X122174557Y-76283973D01*
X122152613Y-76276121D01*
X122131543Y-76266156D01*
X122111552Y-76254174D01*
X122092832Y-76240290D01*
X122075562Y-76224638D01*
X122059910Y-76207368D01*
X122046026Y-76188648D01*
X122034044Y-76168657D01*
X122024079Y-76147587D01*
X122016227Y-76125643D01*
X122010563Y-76103034D01*
X122007144Y-76079979D01*
X122006000Y-76056700D01*
X122006000Y-75581700D01*
X122007144Y-75558421D01*
X122010563Y-75535366D01*
X122016227Y-75512757D01*
X122024079Y-75490813D01*
X122034044Y-75469743D01*
X122046026Y-75449752D01*
X122059910Y-75431032D01*
X122075562Y-75413762D01*
X122092832Y-75398110D01*
X122111552Y-75384226D01*
X122131543Y-75372244D01*
X122152613Y-75362279D01*
X122174557Y-75354427D01*
X122197166Y-75348763D01*
X122220221Y-75345344D01*
X122243500Y-75344200D01*
X122818500Y-75344200D01*
X122841779Y-75345344D01*
G37*
G04 #@! TD.AperFunction*
G04 #@! TA.AperFunction,SMDPad,CuDef*
G36*
X124591779Y-77021744D02*
G01*
X124614834Y-77025163D01*
X124637443Y-77030827D01*
X124659387Y-77038679D01*
X124680457Y-77048644D01*
X124700448Y-77060626D01*
X124719168Y-77074510D01*
X124736438Y-77090162D01*
X124752090Y-77107432D01*
X124765974Y-77126152D01*
X124777956Y-77146143D01*
X124787921Y-77167213D01*
X124795773Y-77189157D01*
X124801437Y-77211766D01*
X124804856Y-77234821D01*
X124806000Y-77258100D01*
X124806000Y-77733100D01*
X124804856Y-77756379D01*
X124801437Y-77779434D01*
X124795773Y-77802043D01*
X124787921Y-77823987D01*
X124777956Y-77845057D01*
X124765974Y-77865048D01*
X124752090Y-77883768D01*
X124736438Y-77901038D01*
X124719168Y-77916690D01*
X124700448Y-77930574D01*
X124680457Y-77942556D01*
X124659387Y-77952521D01*
X124637443Y-77960373D01*
X124614834Y-77966037D01*
X124591779Y-77969456D01*
X124568500Y-77970600D01*
X123993500Y-77970600D01*
X123970221Y-77969456D01*
X123947166Y-77966037D01*
X123924557Y-77960373D01*
X123902613Y-77952521D01*
X123881543Y-77942556D01*
X123861552Y-77930574D01*
X123842832Y-77916690D01*
X123825562Y-77901038D01*
X123809910Y-77883768D01*
X123796026Y-77865048D01*
X123784044Y-77845057D01*
X123774079Y-77823987D01*
X123766227Y-77802043D01*
X123760563Y-77779434D01*
X123757144Y-77756379D01*
X123756000Y-77733100D01*
X123756000Y-77258100D01*
X123757144Y-77234821D01*
X123760563Y-77211766D01*
X123766227Y-77189157D01*
X123774079Y-77167213D01*
X123784044Y-77146143D01*
X123796026Y-77126152D01*
X123809910Y-77107432D01*
X123825562Y-77090162D01*
X123842832Y-77074510D01*
X123861552Y-77060626D01*
X123881543Y-77048644D01*
X123902613Y-77038679D01*
X123924557Y-77030827D01*
X123947166Y-77025163D01*
X123970221Y-77021744D01*
X123993500Y-77020600D01*
X124568500Y-77020600D01*
X124591779Y-77021744D01*
G37*
G04 #@! TD.AperFunction*
G04 #@! TA.AperFunction,SMDPad,CuDef*
G36*
X122841779Y-77021744D02*
G01*
X122864834Y-77025163D01*
X122887443Y-77030827D01*
X122909387Y-77038679D01*
X122930457Y-77048644D01*
X122950448Y-77060626D01*
X122969168Y-77074510D01*
X122986438Y-77090162D01*
X123002090Y-77107432D01*
X123015974Y-77126152D01*
X123027956Y-77146143D01*
X123037921Y-77167213D01*
X123045773Y-77189157D01*
X123051437Y-77211766D01*
X123054856Y-77234821D01*
X123056000Y-77258100D01*
X123056000Y-77733100D01*
X123054856Y-77756379D01*
X123051437Y-77779434D01*
X123045773Y-77802043D01*
X123037921Y-77823987D01*
X123027956Y-77845057D01*
X123015974Y-77865048D01*
X123002090Y-77883768D01*
X122986438Y-77901038D01*
X122969168Y-77916690D01*
X122950448Y-77930574D01*
X122930457Y-77942556D01*
X122909387Y-77952521D01*
X122887443Y-77960373D01*
X122864834Y-77966037D01*
X122841779Y-77969456D01*
X122818500Y-77970600D01*
X122243500Y-77970600D01*
X122220221Y-77969456D01*
X122197166Y-77966037D01*
X122174557Y-77960373D01*
X122152613Y-77952521D01*
X122131543Y-77942556D01*
X122111552Y-77930574D01*
X122092832Y-77916690D01*
X122075562Y-77901038D01*
X122059910Y-77883768D01*
X122046026Y-77865048D01*
X122034044Y-77845057D01*
X122024079Y-77823987D01*
X122016227Y-77802043D01*
X122010563Y-77779434D01*
X122007144Y-77756379D01*
X122006000Y-77733100D01*
X122006000Y-77258100D01*
X122007144Y-77234821D01*
X122010563Y-77211766D01*
X122016227Y-77189157D01*
X122024079Y-77167213D01*
X122034044Y-77146143D01*
X122046026Y-77126152D01*
X122059910Y-77107432D01*
X122075562Y-77090162D01*
X122092832Y-77074510D01*
X122111552Y-77060626D01*
X122131543Y-77048644D01*
X122152613Y-77038679D01*
X122174557Y-77030827D01*
X122197166Y-77025163D01*
X122220221Y-77021744D01*
X122243500Y-77020600D01*
X122818500Y-77020600D01*
X122841779Y-77021744D01*
G37*
G04 #@! TD.AperFunction*
D14*
X126416000Y-84531400D03*
X126416000Y-87031400D03*
D12*
X140386000Y-75616000D03*
D13*
X140386000Y-73076000D03*
X142926000Y-75616000D03*
X142926000Y-73076000D03*
X145466000Y-75616000D03*
X145466000Y-73076000D03*
D15*
X138500000Y-58800000D03*
X138500000Y-62800000D03*
X138500000Y-66800000D03*
D16*
X142750000Y-68800000D03*
X142750000Y-56800000D03*
X136750000Y-56800000D03*
X136750000Y-68800000D03*
D17*
X120059750Y-75978199D03*
X120059750Y-76478200D03*
X120059750Y-76978200D03*
X120059750Y-77478201D03*
X116948250Y-77478201D03*
X116948250Y-76978200D03*
X116948250Y-76478200D03*
X116948250Y-75978199D03*
D18*
X106300000Y-53150000D03*
D19*
X103150000Y-53150000D03*
X146850000Y-96850000D03*
D18*
X143700000Y-96850000D03*
D19*
X146850000Y-53150000D03*
D18*
X143700000Y-53150000D03*
X106300000Y-96850000D03*
D19*
X103150000Y-96850000D03*
G04 #@! TA.AperFunction,ComponentPad*
D11*
G36*
X142974505Y-88526204D02*
G01*
X142998773Y-88529804D01*
X143022572Y-88535765D01*
X143045671Y-88544030D01*
X143067850Y-88554520D01*
X143088893Y-88567132D01*
X143108599Y-88581747D01*
X143126777Y-88598223D01*
X143143253Y-88616401D01*
X143157868Y-88636107D01*
X143170480Y-88657150D01*
X143180970Y-88679329D01*
X143189235Y-88702428D01*
X143195196Y-88726227D01*
X143198796Y-88750495D01*
X143200000Y-88774999D01*
X143200000Y-90025001D01*
X143198796Y-90049505D01*
X143195196Y-90073773D01*
X143189235Y-90097572D01*
X143180970Y-90120671D01*
X143170480Y-90142850D01*
X143157868Y-90163893D01*
X143143253Y-90183599D01*
X143126777Y-90201777D01*
X143108599Y-90218253D01*
X143088893Y-90232868D01*
X143067850Y-90245480D01*
X143045671Y-90255970D01*
X143022572Y-90264235D01*
X142998773Y-90270196D01*
X142974505Y-90273796D01*
X142950001Y-90275000D01*
X142249999Y-90275000D01*
X142225495Y-90273796D01*
X142201227Y-90270196D01*
X142177428Y-90264235D01*
X142154329Y-90255970D01*
X142132150Y-90245480D01*
X142111107Y-90232868D01*
X142091401Y-90218253D01*
X142073223Y-90201777D01*
X142056747Y-90183599D01*
X142042132Y-90163893D01*
X142029520Y-90142850D01*
X142019030Y-90120671D01*
X142010765Y-90097572D01*
X142004804Y-90073773D01*
X142001204Y-90049505D01*
X142000000Y-90025001D01*
X142000000Y-88774999D01*
X142001204Y-88750495D01*
X142004804Y-88726227D01*
X142010765Y-88702428D01*
X142019030Y-88679329D01*
X142029520Y-88657150D01*
X142042132Y-88636107D01*
X142056747Y-88616401D01*
X142073223Y-88598223D01*
X142091401Y-88581747D01*
X142111107Y-88567132D01*
X142132150Y-88554520D01*
X142154329Y-88544030D01*
X142177428Y-88535765D01*
X142201227Y-88529804D01*
X142225495Y-88526204D01*
X142249999Y-88525000D01*
X142950001Y-88525000D01*
X142974505Y-88526204D01*
G37*
G04 #@! TD.AperFunction*
D10*
X144600000Y-89400000D03*
G04 #@! TA.AperFunction,ComponentPad*
D11*
G36*
X120374505Y-54126204D02*
G01*
X120398773Y-54129804D01*
X120422572Y-54135765D01*
X120445671Y-54144030D01*
X120467850Y-54154520D01*
X120488893Y-54167132D01*
X120508599Y-54181747D01*
X120526777Y-54198223D01*
X120543253Y-54216401D01*
X120557868Y-54236107D01*
X120570480Y-54257150D01*
X120580970Y-54279329D01*
X120589235Y-54302428D01*
X120595196Y-54326227D01*
X120598796Y-54350495D01*
X120600000Y-54374999D01*
X120600000Y-55625001D01*
X120598796Y-55649505D01*
X120595196Y-55673773D01*
X120589235Y-55697572D01*
X120580970Y-55720671D01*
X120570480Y-55742850D01*
X120557868Y-55763893D01*
X120543253Y-55783599D01*
X120526777Y-55801777D01*
X120508599Y-55818253D01*
X120488893Y-55832868D01*
X120467850Y-55845480D01*
X120445671Y-55855970D01*
X120422572Y-55864235D01*
X120398773Y-55870196D01*
X120374505Y-55873796D01*
X120350001Y-55875000D01*
X119649999Y-55875000D01*
X119625495Y-55873796D01*
X119601227Y-55870196D01*
X119577428Y-55864235D01*
X119554329Y-55855970D01*
X119532150Y-55845480D01*
X119511107Y-55832868D01*
X119491401Y-55818253D01*
X119473223Y-55801777D01*
X119456747Y-55783599D01*
X119442132Y-55763893D01*
X119429520Y-55742850D01*
X119419030Y-55720671D01*
X119410765Y-55697572D01*
X119404804Y-55673773D01*
X119401204Y-55649505D01*
X119400000Y-55625001D01*
X119400000Y-54374999D01*
X119401204Y-54350495D01*
X119404804Y-54326227D01*
X119410765Y-54302428D01*
X119419030Y-54279329D01*
X119429520Y-54257150D01*
X119442132Y-54236107D01*
X119456747Y-54216401D01*
X119473223Y-54198223D01*
X119491401Y-54181747D01*
X119511107Y-54167132D01*
X119532150Y-54154520D01*
X119554329Y-54144030D01*
X119577428Y-54135765D01*
X119601227Y-54129804D01*
X119625495Y-54126204D01*
X119649999Y-54125000D01*
X120350001Y-54125000D01*
X120374505Y-54126204D01*
G37*
G04 #@! TD.AperFunction*
D10*
X118000000Y-55000000D03*
X116000000Y-55000000D03*
X114000000Y-55000000D03*
G04 #@! TA.AperFunction,SMDPad,CuDef*
D11*
G36*
X124579179Y-78647344D02*
G01*
X124602234Y-78650763D01*
X124624843Y-78656427D01*
X124646787Y-78664279D01*
X124667857Y-78674244D01*
X124687848Y-78686226D01*
X124706568Y-78700110D01*
X124723838Y-78715762D01*
X124739490Y-78733032D01*
X124753374Y-78751752D01*
X124765356Y-78771743D01*
X124775321Y-78792813D01*
X124783173Y-78814757D01*
X124788837Y-78837366D01*
X124792256Y-78860421D01*
X124793400Y-78883700D01*
X124793400Y-79358700D01*
X124792256Y-79381979D01*
X124788837Y-79405034D01*
X124783173Y-79427643D01*
X124775321Y-79449587D01*
X124765356Y-79470657D01*
X124753374Y-79490648D01*
X124739490Y-79509368D01*
X124723838Y-79526638D01*
X124706568Y-79542290D01*
X124687848Y-79556174D01*
X124667857Y-79568156D01*
X124646787Y-79578121D01*
X124624843Y-79585973D01*
X124602234Y-79591637D01*
X124579179Y-79595056D01*
X124555900Y-79596200D01*
X123980900Y-79596200D01*
X123957621Y-79595056D01*
X123934566Y-79591637D01*
X123911957Y-79585973D01*
X123890013Y-79578121D01*
X123868943Y-79568156D01*
X123848952Y-79556174D01*
X123830232Y-79542290D01*
X123812962Y-79526638D01*
X123797310Y-79509368D01*
X123783426Y-79490648D01*
X123771444Y-79470657D01*
X123761479Y-79449587D01*
X123753627Y-79427643D01*
X123747963Y-79405034D01*
X123744544Y-79381979D01*
X123743400Y-79358700D01*
X123743400Y-78883700D01*
X123744544Y-78860421D01*
X123747963Y-78837366D01*
X123753627Y-78814757D01*
X123761479Y-78792813D01*
X123771444Y-78771743D01*
X123783426Y-78751752D01*
X123797310Y-78733032D01*
X123812962Y-78715762D01*
X123830232Y-78700110D01*
X123848952Y-78686226D01*
X123868943Y-78674244D01*
X123890013Y-78664279D01*
X123911957Y-78656427D01*
X123934566Y-78650763D01*
X123957621Y-78647344D01*
X123980900Y-78646200D01*
X124555900Y-78646200D01*
X124579179Y-78647344D01*
G37*
G04 #@! TD.AperFunction*
G04 #@! TA.AperFunction,SMDPad,CuDef*
G36*
X122829179Y-78647344D02*
G01*
X122852234Y-78650763D01*
X122874843Y-78656427D01*
X122896787Y-78664279D01*
X122917857Y-78674244D01*
X122937848Y-78686226D01*
X122956568Y-78700110D01*
X122973838Y-78715762D01*
X122989490Y-78733032D01*
X123003374Y-78751752D01*
X123015356Y-78771743D01*
X123025321Y-78792813D01*
X123033173Y-78814757D01*
X123038837Y-78837366D01*
X123042256Y-78860421D01*
X123043400Y-78883700D01*
X123043400Y-79358700D01*
X123042256Y-79381979D01*
X123038837Y-79405034D01*
X123033173Y-79427643D01*
X123025321Y-79449587D01*
X123015356Y-79470657D01*
X123003374Y-79490648D01*
X122989490Y-79509368D01*
X122973838Y-79526638D01*
X122956568Y-79542290D01*
X122937848Y-79556174D01*
X122917857Y-79568156D01*
X122896787Y-79578121D01*
X122874843Y-79585973D01*
X122852234Y-79591637D01*
X122829179Y-79595056D01*
X122805900Y-79596200D01*
X122230900Y-79596200D01*
X122207621Y-79595056D01*
X122184566Y-79591637D01*
X122161957Y-79585973D01*
X122140013Y-79578121D01*
X122118943Y-79568156D01*
X122098952Y-79556174D01*
X122080232Y-79542290D01*
X122062962Y-79526638D01*
X122047310Y-79509368D01*
X122033426Y-79490648D01*
X122021444Y-79470657D01*
X122011479Y-79449587D01*
X122003627Y-79427643D01*
X121997963Y-79405034D01*
X121994544Y-79381979D01*
X121993400Y-79358700D01*
X121993400Y-78883700D01*
X121994544Y-78860421D01*
X121997963Y-78837366D01*
X122003627Y-78814757D01*
X122011479Y-78792813D01*
X122021444Y-78771743D01*
X122033426Y-78751752D01*
X122047310Y-78733032D01*
X122062962Y-78715762D01*
X122080232Y-78700110D01*
X122098952Y-78686226D01*
X122118943Y-78674244D01*
X122140013Y-78664279D01*
X122161957Y-78656427D01*
X122184566Y-78650763D01*
X122207621Y-78647344D01*
X122230900Y-78646200D01*
X122805900Y-78646200D01*
X122829179Y-78647344D01*
G37*
G04 #@! TD.AperFunction*
G04 #@! TA.AperFunction,SMDPad,CuDef*
G36*
X122829179Y-80171344D02*
G01*
X122852234Y-80174763D01*
X122874843Y-80180427D01*
X122896787Y-80188279D01*
X122917857Y-80198244D01*
X122937848Y-80210226D01*
X122956568Y-80224110D01*
X122973838Y-80239762D01*
X122989490Y-80257032D01*
X123003374Y-80275752D01*
X123015356Y-80295743D01*
X123025321Y-80316813D01*
X123033173Y-80338757D01*
X123038837Y-80361366D01*
X123042256Y-80384421D01*
X123043400Y-80407700D01*
X123043400Y-80882700D01*
X123042256Y-80905979D01*
X123038837Y-80929034D01*
X123033173Y-80951643D01*
X123025321Y-80973587D01*
X123015356Y-80994657D01*
X123003374Y-81014648D01*
X122989490Y-81033368D01*
X122973838Y-81050638D01*
X122956568Y-81066290D01*
X122937848Y-81080174D01*
X122917857Y-81092156D01*
X122896787Y-81102121D01*
X122874843Y-81109973D01*
X122852234Y-81115637D01*
X122829179Y-81119056D01*
X122805900Y-81120200D01*
X122230900Y-81120200D01*
X122207621Y-81119056D01*
X122184566Y-81115637D01*
X122161957Y-81109973D01*
X122140013Y-81102121D01*
X122118943Y-81092156D01*
X122098952Y-81080174D01*
X122080232Y-81066290D01*
X122062962Y-81050638D01*
X122047310Y-81033368D01*
X122033426Y-81014648D01*
X122021444Y-80994657D01*
X122011479Y-80973587D01*
X122003627Y-80951643D01*
X121997963Y-80929034D01*
X121994544Y-80905979D01*
X121993400Y-80882700D01*
X121993400Y-80407700D01*
X121994544Y-80384421D01*
X121997963Y-80361366D01*
X122003627Y-80338757D01*
X122011479Y-80316813D01*
X122021444Y-80295743D01*
X122033426Y-80275752D01*
X122047310Y-80257032D01*
X122062962Y-80239762D01*
X122080232Y-80224110D01*
X122098952Y-80210226D01*
X122118943Y-80198244D01*
X122140013Y-80188279D01*
X122161957Y-80180427D01*
X122184566Y-80174763D01*
X122207621Y-80171344D01*
X122230900Y-80170200D01*
X122805900Y-80170200D01*
X122829179Y-80171344D01*
G37*
G04 #@! TD.AperFunction*
G04 #@! TA.AperFunction,SMDPad,CuDef*
G36*
X124579179Y-80171344D02*
G01*
X124602234Y-80174763D01*
X124624843Y-80180427D01*
X124646787Y-80188279D01*
X124667857Y-80198244D01*
X124687848Y-80210226D01*
X124706568Y-80224110D01*
X124723838Y-80239762D01*
X124739490Y-80257032D01*
X124753374Y-80275752D01*
X124765356Y-80295743D01*
X124775321Y-80316813D01*
X124783173Y-80338757D01*
X124788837Y-80361366D01*
X124792256Y-80384421D01*
X124793400Y-80407700D01*
X124793400Y-80882700D01*
X124792256Y-80905979D01*
X124788837Y-80929034D01*
X124783173Y-80951643D01*
X124775321Y-80973587D01*
X124765356Y-80994657D01*
X124753374Y-81014648D01*
X124739490Y-81033368D01*
X124723838Y-81050638D01*
X124706568Y-81066290D01*
X124687848Y-81080174D01*
X124667857Y-81092156D01*
X124646787Y-81102121D01*
X124624843Y-81109973D01*
X124602234Y-81115637D01*
X124579179Y-81119056D01*
X124555900Y-81120200D01*
X123980900Y-81120200D01*
X123957621Y-81119056D01*
X123934566Y-81115637D01*
X123911957Y-81109973D01*
X123890013Y-81102121D01*
X123868943Y-81092156D01*
X123848952Y-81080174D01*
X123830232Y-81066290D01*
X123812962Y-81050638D01*
X123797310Y-81033368D01*
X123783426Y-81014648D01*
X123771444Y-80994657D01*
X123761479Y-80973587D01*
X123753627Y-80951643D01*
X123747963Y-80929034D01*
X123744544Y-80905979D01*
X123743400Y-80882700D01*
X123743400Y-80407700D01*
X123744544Y-80384421D01*
X123747963Y-80361366D01*
X123753627Y-80338757D01*
X123761479Y-80316813D01*
X123771444Y-80295743D01*
X123783426Y-80275752D01*
X123797310Y-80257032D01*
X123812962Y-80239762D01*
X123830232Y-80224110D01*
X123848952Y-80210226D01*
X123868943Y-80198244D01*
X123890013Y-80188279D01*
X123911957Y-80180427D01*
X123934566Y-80174763D01*
X123957621Y-80171344D01*
X123980900Y-80170200D01*
X124555900Y-80170200D01*
X124579179Y-80171344D01*
G37*
G04 #@! TD.AperFunction*
D20*
X139000000Y-51000000D03*
X134000000Y-51000000D03*
X129000000Y-51000000D03*
X124000000Y-51000000D03*
X119000000Y-51000000D03*
X114000000Y-51000000D03*
X108000000Y-51500000D03*
X101500000Y-55000000D03*
X148500000Y-55500000D03*
X142000000Y-51500000D03*
X101000000Y-61000000D03*
X101000000Y-66000000D03*
X101000000Y-71000000D03*
X101000000Y-76000000D03*
X101000000Y-81000000D03*
X101000000Y-86000000D03*
X101000000Y-89000000D03*
X101500000Y-95000000D03*
X108000000Y-98500000D03*
X111000000Y-99000000D03*
X116000000Y-99000000D03*
X121000000Y-99000000D03*
X126000000Y-99000000D03*
X131000000Y-99000000D03*
X136000000Y-99000000D03*
X142000000Y-98500000D03*
X148500000Y-94500000D03*
X149000000Y-89000000D03*
X149000000Y-84000000D03*
X149000000Y-79000000D03*
X149000000Y-74000000D03*
X149000000Y-68000000D03*
X149000000Y-63000000D03*
X139000000Y-55000000D03*
X130000000Y-56250000D03*
X111023600Y-66726000D03*
X118387800Y-76478200D03*
X121238000Y-76682800D03*
X116488000Y-79128000D03*
X126500000Y-83000000D03*
X126500000Y-71000000D03*
X130429200Y-71323400D03*
X141097200Y-88976400D03*
X130750000Y-94500000D03*
X121000000Y-94500000D03*
X109250000Y-94500000D03*
X138500000Y-61250000D03*
X136500000Y-58500000D03*
X139250000Y-68250000D03*
X137000000Y-66250000D03*
X127635200Y-64998800D03*
X119100800Y-61265000D03*
X127051000Y-61265000D03*
X127051000Y-58852000D03*
X119100800Y-58902800D03*
X114833600Y-58725000D03*
X115392400Y-64795600D03*
X113335000Y-62001600D03*
X121234400Y-78359200D03*
X119380200Y-63449400D03*
X125019000Y-66218000D03*
X127686000Y-68758000D03*
X112065000Y-60757000D03*
X109144000Y-66091000D03*
X110922000Y-64313000D03*
X130378400Y-84709200D03*
X137465000Y-80950000D03*
X139014400Y-81559600D03*
X134315400Y-91313200D03*
X145669200Y-71272600D03*
X115367000Y-78003600D03*
X115341600Y-76454200D03*
X144145200Y-76784400D03*
X144145200Y-78664000D03*
X130378400Y-80543600D03*
X127635200Y-80543600D03*
X140386000Y-84912400D03*
X145872400Y-88011200D03*
X130276800Y-76733600D03*
X138658800Y-76174800D03*
X145669200Y-68402400D03*
X142011600Y-64541600D03*
X130276800Y-63627200D03*
X127584400Y-77089200D03*
X120777200Y-74904800D03*
X112700000Y-72110800D03*
X112547600Y-68808800D03*
X106248400Y-75565200D03*
X106146800Y-79934000D03*
X111277600Y-81966000D03*
X111328400Y-88976400D03*
X127787600Y-87909600D03*
X117526000Y-91364000D03*
X118338800Y-71298000D03*
X136271200Y-84099600D03*
X134290000Y-84099600D03*
X112420600Y-69977200D03*
X118084800Y-63373202D03*
X113868400Y-75006400D03*
X117272000Y-62560400D03*
X113106400Y-74193600D03*
X135306006Y-87173000D03*
X121209000Y-80061000D03*
X135306006Y-80848400D03*
X127635200Y-79426000D03*
X125806400Y-78257600D03*
X126670000Y-79721200D03*
X121209000Y-80950000D03*
D21*
X119988400Y-76478200D02*
X118387800Y-76478200D01*
X120059750Y-76478200D02*
X119988400Y-76478200D01*
X119459700Y-76478200D02*
X120059750Y-76478200D01*
X117548300Y-77478201D02*
X118548301Y-76478200D01*
X118548301Y-76478200D02*
X119459700Y-76478200D01*
X116948250Y-77478201D02*
X117548300Y-77478201D01*
X116948250Y-77478201D02*
X116348200Y-77478201D01*
X118387800Y-76478200D02*
X116948250Y-76478200D01*
X116948250Y-76478200D02*
X115393800Y-76478200D01*
X115791264Y-77749600D02*
X115367000Y-77749600D01*
X116060799Y-77749600D02*
X115791264Y-77749600D01*
X116340199Y-77470200D02*
X116060799Y-77749600D01*
X115365600Y-76478200D02*
X115341600Y-76454200D01*
X115393800Y-76478200D02*
X115365600Y-76478200D01*
X121033400Y-76478200D02*
X121238000Y-76682800D01*
X120059750Y-76478200D02*
X121033400Y-76478200D01*
D22*
X128956000Y-54984400D02*
X129000000Y-54940400D01*
X128956000Y-63957400D02*
X128956000Y-54984400D01*
X128956000Y-69266000D02*
X128956000Y-63957400D01*
X125654000Y-64948000D02*
X128956000Y-68250000D01*
X117780000Y-64948000D02*
X125654000Y-64948000D01*
X116256000Y-63424000D02*
X117780000Y-64948000D01*
X128956000Y-68250000D02*
X128956000Y-69266000D01*
X116256000Y-55256000D02*
X116256000Y-63424000D01*
X116000000Y-55000000D02*
X116256000Y-55256000D01*
X142926000Y-84226600D02*
X142926000Y-82728000D01*
X129032200Y-86157000D02*
X140995600Y-86157000D01*
X140995600Y-86157000D02*
X142926000Y-84226600D01*
X127215999Y-86231401D02*
X128903401Y-86231401D01*
X126416000Y-87031400D02*
X127215999Y-86231401D01*
X128930600Y-84516800D02*
X127215999Y-86231401D01*
X128930600Y-82372400D02*
X128930600Y-84516800D01*
X128956000Y-82347000D02*
X128930600Y-82372400D01*
X128956000Y-74251202D02*
X128956000Y-69266000D01*
X128956000Y-82347000D02*
X128956000Y-74251202D01*
X142926000Y-76022400D02*
X142926000Y-75616000D01*
X141351200Y-77597200D02*
X142926000Y-76022400D01*
X131292800Y-77597200D02*
X141351200Y-77597200D01*
X128956000Y-79934000D02*
X131292800Y-77597200D01*
X128956000Y-82347000D02*
X128956000Y-79934000D01*
D21*
X122280999Y-75978199D02*
X122531000Y-76228200D01*
X120059750Y-75978199D02*
X122280999Y-75978199D01*
X118491200Y-69977200D02*
X112420600Y-69977200D01*
X119592751Y-71078751D02*
X118491200Y-69977200D01*
X119592751Y-75184200D02*
X119592751Y-71078751D01*
X120059750Y-75651199D02*
X119592751Y-75184200D01*
X120059750Y-75978199D02*
X120059750Y-75651199D01*
X117907000Y-63195402D02*
X118084800Y-63373202D01*
X117907000Y-57093000D02*
X117907000Y-63195402D01*
X120000000Y-55000000D02*
X117907000Y-57093000D01*
X114122400Y-75793800D02*
X113995400Y-75666800D01*
X116002000Y-75793800D02*
X114122400Y-75793800D01*
X116186399Y-75978199D02*
X116002000Y-75793800D01*
X116948250Y-75978199D02*
X116186399Y-75978199D01*
X113868400Y-75539800D02*
X114122400Y-75793800D01*
X113868400Y-75006400D02*
X113868400Y-75539800D01*
X117272000Y-62136136D02*
X117272000Y-62560400D01*
X117272000Y-56803000D02*
X117272000Y-62136136D01*
X118000000Y-56075000D02*
X117272000Y-56803000D01*
X118000000Y-55000000D02*
X118000000Y-56075000D01*
X113106400Y-74617864D02*
X113106400Y-74193600D01*
X113106400Y-75379864D02*
X113106400Y-74617864D01*
X114810935Y-77084399D02*
X113106400Y-75379864D01*
X116160302Y-77084399D02*
X114810935Y-77084399D01*
X116266501Y-76978200D02*
X116160302Y-77084399D01*
X116948250Y-76978200D02*
X116266501Y-76978200D01*
X145466000Y-83236000D02*
X141529000Y-87173000D01*
X141529000Y-87173000D02*
X135306006Y-87173000D01*
D23*
X142600000Y-89381155D02*
X142545000Y-89326155D01*
X145171647Y-85086001D02*
X142600000Y-87657648D01*
X146354001Y-85086001D02*
X145171647Y-85086001D01*
X147316001Y-84124001D02*
X146354001Y-85086001D01*
X142600000Y-87657648D02*
X142600000Y-89381155D01*
X147400000Y-82622800D02*
X147316001Y-82706799D01*
X147316001Y-82706799D02*
X147316001Y-84124001D01*
X147400000Y-67694800D02*
X147400000Y-82622800D01*
X142505200Y-62800000D02*
X147400000Y-67694800D01*
X138500000Y-62800000D02*
X142505200Y-62800000D01*
D21*
X124031000Y-76228200D02*
X122531000Y-77728200D01*
X120059750Y-76978200D02*
X120059750Y-77478201D01*
X122281001Y-77478201D02*
X120059750Y-77478201D01*
X122531000Y-77728200D02*
X122281001Y-77478201D01*
X121209000Y-79981800D02*
X121209000Y-80061000D01*
X122518400Y-79197400D02*
X121993400Y-79197400D01*
X121993400Y-79197400D02*
X121209000Y-79981800D01*
X145466000Y-75616000D02*
X145466000Y-78562400D01*
X136622005Y-79532401D02*
X135606005Y-80548401D01*
X145466000Y-78562400D02*
X144495999Y-79532401D01*
X135606005Y-80548401D02*
X135306006Y-80848400D01*
X144495999Y-79532401D02*
X136622005Y-79532401D01*
X127330400Y-79121200D02*
X127635200Y-79426000D01*
X124268400Y-79121200D02*
X127330400Y-79121200D01*
X125277000Y-77728200D02*
X125806400Y-78257600D01*
X124281000Y-77728200D02*
X125277000Y-77728200D01*
X125746000Y-80645200D02*
X126670000Y-79721200D01*
X124268400Y-80645200D02*
X125746000Y-80645200D01*
X122213600Y-80950000D02*
X122518400Y-80645200D01*
X121209000Y-80950000D02*
X122213600Y-80950000D01*
D24*
G36*
X139505264Y-50598409D02*
G01*
X139533969Y-50693036D01*
X139580583Y-50780245D01*
X139643316Y-50856684D01*
X139719755Y-50919417D01*
X139806964Y-50966031D01*
X139901591Y-50994736D01*
X139975347Y-51002000D01*
X140000000Y-51004428D01*
X140024653Y-51002000D01*
X146975450Y-51002000D01*
X147387613Y-51042413D01*
X147760459Y-51154982D01*
X148104347Y-51337830D01*
X148406165Y-51583987D01*
X148654423Y-51884081D01*
X148839663Y-52226677D01*
X148954833Y-52598731D01*
X148998000Y-53009436D01*
X148998001Y-59975337D01*
X148995572Y-60000000D01*
X149005264Y-60098409D01*
X149033969Y-60193036D01*
X149080583Y-60280245D01*
X149143316Y-60356684D01*
X149219755Y-60419417D01*
X149306964Y-60466031D01*
X149401591Y-60494736D01*
X149475347Y-60502000D01*
X149498000Y-60504231D01*
X149498001Y-89495769D01*
X149475347Y-89498000D01*
X149401591Y-89505264D01*
X149306964Y-89533969D01*
X149219755Y-89580583D01*
X149143316Y-89643316D01*
X149080583Y-89719755D01*
X149033969Y-89806964D01*
X149005264Y-89901591D01*
X148995572Y-90000000D01*
X148998001Y-90024663D01*
X148998000Y-96975449D01*
X148957587Y-97387614D01*
X148845018Y-97760462D01*
X148662170Y-98104346D01*
X148416015Y-98406163D01*
X148115922Y-98654421D01*
X147773326Y-98839662D01*
X147401269Y-98954833D01*
X146990564Y-98998000D01*
X140024653Y-98998000D01*
X140000000Y-98995572D01*
X139975347Y-98998000D01*
X139901591Y-99005264D01*
X139806964Y-99033969D01*
X139719755Y-99080583D01*
X139643316Y-99143316D01*
X139580583Y-99219755D01*
X139533969Y-99306964D01*
X139505264Y-99401591D01*
X139495769Y-99498000D01*
X110504231Y-99498000D01*
X110494736Y-99401591D01*
X110466031Y-99306964D01*
X110419417Y-99219755D01*
X110356684Y-99143316D01*
X110280245Y-99080583D01*
X110193036Y-99033969D01*
X110098409Y-99005264D01*
X110024653Y-98998000D01*
X110000000Y-98995572D01*
X109975347Y-98998000D01*
X103024551Y-98998000D01*
X102612386Y-98957587D01*
X102239538Y-98845018D01*
X101895654Y-98662170D01*
X101593837Y-98416015D01*
X101345579Y-98115922D01*
X101160338Y-97773326D01*
X101045167Y-97401269D01*
X101002000Y-96990564D01*
X101002000Y-96645433D01*
X101073000Y-96645433D01*
X101073000Y-97054567D01*
X101152818Y-97455839D01*
X101309386Y-97833829D01*
X101536689Y-98174011D01*
X101825989Y-98463311D01*
X102166171Y-98690614D01*
X102544161Y-98847182D01*
X102945433Y-98927000D01*
X103354567Y-98927000D01*
X103755839Y-98847182D01*
X104133829Y-98690614D01*
X104474011Y-98463311D01*
X104763311Y-98174011D01*
X104990614Y-97833829D01*
X105017447Y-97769048D01*
X105075064Y-97855279D01*
X105294721Y-98074936D01*
X105553011Y-98247519D01*
X105840006Y-98366396D01*
X106144679Y-98427000D01*
X106455321Y-98427000D01*
X106759994Y-98366396D01*
X107046989Y-98247519D01*
X107305279Y-98074936D01*
X107524936Y-97855279D01*
X107697519Y-97596989D01*
X107816396Y-97309994D01*
X107877000Y-97005321D01*
X107877000Y-96694679D01*
X142123000Y-96694679D01*
X142123000Y-97005321D01*
X142183604Y-97309994D01*
X142302481Y-97596989D01*
X142475064Y-97855279D01*
X142694721Y-98074936D01*
X142953011Y-98247519D01*
X143240006Y-98366396D01*
X143544679Y-98427000D01*
X143855321Y-98427000D01*
X144159994Y-98366396D01*
X144446989Y-98247519D01*
X144705279Y-98074936D01*
X144924936Y-97855279D01*
X144982553Y-97769048D01*
X145009386Y-97833829D01*
X145236689Y-98174011D01*
X145525989Y-98463311D01*
X145866171Y-98690614D01*
X146244161Y-98847182D01*
X146645433Y-98927000D01*
X147054567Y-98927000D01*
X147455839Y-98847182D01*
X147833829Y-98690614D01*
X148174011Y-98463311D01*
X148463311Y-98174011D01*
X148690614Y-97833829D01*
X148847182Y-97455839D01*
X148927000Y-97054567D01*
X148927000Y-96645433D01*
X148847182Y-96244161D01*
X148690614Y-95866171D01*
X148463311Y-95525989D01*
X148174011Y-95236689D01*
X147833829Y-95009386D01*
X147455839Y-94852818D01*
X147054567Y-94773000D01*
X146645433Y-94773000D01*
X146244161Y-94852818D01*
X145866171Y-95009386D01*
X145525989Y-95236689D01*
X145236689Y-95525989D01*
X145009386Y-95866171D01*
X144982553Y-95930952D01*
X144924936Y-95844721D01*
X144705279Y-95625064D01*
X144446989Y-95452481D01*
X144159994Y-95333604D01*
X143855321Y-95273000D01*
X143544679Y-95273000D01*
X143240006Y-95333604D01*
X142953011Y-95452481D01*
X142694721Y-95625064D01*
X142475064Y-95844721D01*
X142302481Y-96103011D01*
X142183604Y-96390006D01*
X142123000Y-96694679D01*
X107877000Y-96694679D01*
X107816396Y-96390006D01*
X107697519Y-96103011D01*
X107524936Y-95844721D01*
X107305279Y-95625064D01*
X107046989Y-95452481D01*
X106759994Y-95333604D01*
X106455321Y-95273000D01*
X106144679Y-95273000D01*
X105840006Y-95333604D01*
X105553011Y-95452481D01*
X105294721Y-95625064D01*
X105075064Y-95844721D01*
X105017447Y-95930952D01*
X104990614Y-95866171D01*
X104763311Y-95525989D01*
X104474011Y-95236689D01*
X104133829Y-95009386D01*
X103755839Y-94852818D01*
X103354567Y-94773000D01*
X102945433Y-94773000D01*
X102544161Y-94852818D01*
X102166171Y-95009386D01*
X101825989Y-95236689D01*
X101536689Y-95525989D01*
X101309386Y-95866171D01*
X101152818Y-96244161D01*
X101073000Y-96645433D01*
X101002000Y-96645433D01*
X101002000Y-90024652D01*
X101004428Y-90000000D01*
X100994736Y-89901591D01*
X100966031Y-89806964D01*
X100919417Y-89719755D01*
X100856684Y-89643316D01*
X100780245Y-89580583D01*
X100693036Y-89533969D01*
X100598409Y-89505264D01*
X100524653Y-89498000D01*
X100502000Y-89495769D01*
X100502000Y-74117072D01*
X112329400Y-74117072D01*
X112329400Y-74270128D01*
X112359259Y-74420243D01*
X112417831Y-74561648D01*
X112502864Y-74688909D01*
X112529400Y-74715445D01*
X112529400Y-75351533D01*
X112526610Y-75379864D01*
X112537749Y-75492975D01*
X112543605Y-75512278D01*
X112570743Y-75601739D01*
X112624321Y-75701978D01*
X112696426Y-75789838D01*
X112718438Y-75807903D01*
X114382896Y-77472361D01*
X114400961Y-77494373D01*
X114488820Y-77566478D01*
X114546298Y-77597200D01*
X114589058Y-77620056D01*
X114697823Y-77653050D01*
X114810935Y-77664190D01*
X114839274Y-77661399D01*
X115915975Y-77661399D01*
X115925295Y-77743494D01*
X115964243Y-77862360D01*
X116025633Y-77971343D01*
X116107105Y-78066255D01*
X116205528Y-78143450D01*
X116317119Y-78199959D01*
X116437591Y-78233613D01*
X116562313Y-78243117D01*
X116662500Y-78240201D01*
X116821250Y-78081451D01*
X116821250Y-77584507D01*
X117075250Y-77584507D01*
X117075250Y-78081451D01*
X117234000Y-78240201D01*
X117334187Y-78243117D01*
X117458909Y-78233613D01*
X117579381Y-78199959D01*
X117690972Y-78143450D01*
X117789395Y-78066255D01*
X117870867Y-77971343D01*
X117932257Y-77862360D01*
X117971205Y-77743494D01*
X117983300Y-77636951D01*
X117824550Y-77478201D01*
X117983300Y-77319451D01*
X117971205Y-77212908D01*
X117932257Y-77094042D01*
X117870867Y-76985059D01*
X117864980Y-76978200D01*
X117870867Y-76971342D01*
X117932257Y-76862359D01*
X117971205Y-76743493D01*
X117983300Y-76636950D01*
X117824550Y-76478200D01*
X117983300Y-76319450D01*
X117971205Y-76212907D01*
X117932257Y-76094041D01*
X117870867Y-75985058D01*
X117827607Y-75934662D01*
X117827607Y-75851199D01*
X117818397Y-75757691D01*
X117791122Y-75667776D01*
X117746829Y-75584910D01*
X117687221Y-75512278D01*
X117614589Y-75452670D01*
X117531723Y-75408377D01*
X117441808Y-75381102D01*
X117348300Y-75371892D01*
X116548200Y-75371892D01*
X116454692Y-75381102D01*
X116418699Y-75392020D01*
X116411974Y-75383826D01*
X116324115Y-75311721D01*
X116223876Y-75258143D01*
X116159770Y-75238697D01*
X116115111Y-75225149D01*
X116060045Y-75219726D01*
X116030336Y-75216800D01*
X116030331Y-75216800D01*
X116002000Y-75214010D01*
X115973669Y-75216800D01*
X114618772Y-75216800D01*
X114645400Y-75082928D01*
X114645400Y-74929872D01*
X114615541Y-74779757D01*
X114556969Y-74638352D01*
X114471936Y-74511091D01*
X114363709Y-74402864D01*
X114236448Y-74317831D01*
X114095043Y-74259259D01*
X113944928Y-74229400D01*
X113883400Y-74229400D01*
X113883400Y-74117072D01*
X113853541Y-73966957D01*
X113794969Y-73825552D01*
X113709936Y-73698291D01*
X113601709Y-73590064D01*
X113474448Y-73505031D01*
X113333043Y-73446459D01*
X113182928Y-73416600D01*
X113029872Y-73416600D01*
X112879757Y-73446459D01*
X112738352Y-73505031D01*
X112611091Y-73590064D01*
X112502864Y-73698291D01*
X112417831Y-73825552D01*
X112359259Y-73966957D01*
X112329400Y-74117072D01*
X100502000Y-74117072D01*
X100502000Y-69900672D01*
X111643600Y-69900672D01*
X111643600Y-70053728D01*
X111673459Y-70203843D01*
X111732031Y-70345248D01*
X111817064Y-70472509D01*
X111925291Y-70580736D01*
X112052552Y-70665769D01*
X112193957Y-70724341D01*
X112344072Y-70754200D01*
X112497128Y-70754200D01*
X112647243Y-70724341D01*
X112788648Y-70665769D01*
X112915909Y-70580736D01*
X112942445Y-70554200D01*
X118252199Y-70554200D01*
X119015752Y-71317753D01*
X119015751Y-75155869D01*
X119012961Y-75184200D01*
X119015751Y-75212531D01*
X119015751Y-75212535D01*
X119016994Y-75225150D01*
X119024100Y-75297311D01*
X119038472Y-75344686D01*
X119057094Y-75406075D01*
X119110672Y-75506314D01*
X119182777Y-75594174D01*
X119204789Y-75612239D01*
X119232012Y-75639462D01*
X119216878Y-75667776D01*
X119189603Y-75757691D01*
X119180393Y-75851199D01*
X119180393Y-75934662D01*
X119137133Y-75985058D01*
X119075743Y-76094041D01*
X119036795Y-76212907D01*
X119024700Y-76319450D01*
X119183450Y-76478200D01*
X119024700Y-76636950D01*
X119036795Y-76743493D01*
X119075743Y-76862359D01*
X119137133Y-76971342D01*
X119180393Y-77021738D01*
X119180393Y-77105200D01*
X119189603Y-77198708D01*
X119198549Y-77228200D01*
X119189603Y-77257693D01*
X119180393Y-77351201D01*
X119180393Y-77605201D01*
X119189603Y-77698709D01*
X119216878Y-77788624D01*
X119261171Y-77871490D01*
X119320779Y-77944122D01*
X119393411Y-78003730D01*
X119476277Y-78048023D01*
X119566192Y-78075298D01*
X119659700Y-78084508D01*
X120459800Y-78084508D01*
X120553308Y-78075298D01*
X120619560Y-78055201D01*
X121606802Y-78055201D01*
X121647497Y-78131337D01*
X121736641Y-78239959D01*
X121813736Y-78303230D01*
X121724041Y-78376841D01*
X121634897Y-78485463D01*
X121568657Y-78609390D01*
X121527866Y-78743858D01*
X121516605Y-78858193D01*
X121080451Y-79294347D01*
X120982357Y-79313859D01*
X120840952Y-79372431D01*
X120713691Y-79457464D01*
X120605464Y-79565691D01*
X120520431Y-79692952D01*
X120461859Y-79834357D01*
X120432000Y-79984472D01*
X120432000Y-80137528D01*
X120461859Y-80287643D01*
X120520431Y-80429048D01*
X120571515Y-80505500D01*
X120520431Y-80581952D01*
X120461859Y-80723357D01*
X120432000Y-80873472D01*
X120432000Y-81026528D01*
X120461859Y-81176643D01*
X120501192Y-81271600D01*
X112178253Y-81271600D01*
X112153600Y-81269172D01*
X112128947Y-81271600D01*
X112055191Y-81278864D01*
X111960564Y-81307569D01*
X111873355Y-81354183D01*
X111796916Y-81416916D01*
X111734183Y-81493355D01*
X111687569Y-81580564D01*
X111658864Y-81675191D01*
X111649172Y-81773600D01*
X111651600Y-81798253D01*
X111651601Y-89248937D01*
X111649172Y-89273600D01*
X111658864Y-89372009D01*
X111687569Y-89466636D01*
X111734183Y-89553845D01*
X111796916Y-89630284D01*
X111873355Y-89693017D01*
X111960564Y-89739631D01*
X112055191Y-89768336D01*
X112128947Y-89775600D01*
X112153600Y-89778028D01*
X112178253Y-89775600D01*
X124963947Y-89775600D01*
X124988600Y-89778028D01*
X125013253Y-89775600D01*
X125087009Y-89768336D01*
X125181636Y-89739631D01*
X125268845Y-89693017D01*
X125345284Y-89630284D01*
X125408017Y-89553845D01*
X125454631Y-89466636D01*
X125483336Y-89372009D01*
X125493028Y-89273600D01*
X125490600Y-89248947D01*
X125490600Y-87911951D01*
X125601960Y-88023311D01*
X125811114Y-88163063D01*
X126043513Y-88259326D01*
X126290226Y-88308400D01*
X126541774Y-88308400D01*
X126788487Y-88259326D01*
X127020886Y-88163063D01*
X127230040Y-88023311D01*
X127407911Y-87845440D01*
X127547663Y-87636286D01*
X127643926Y-87403887D01*
X127682810Y-87208401D01*
X128951394Y-87208401D01*
X129094926Y-87194264D01*
X129279092Y-87138398D01*
X129287320Y-87134000D01*
X134529006Y-87134000D01*
X134529006Y-87249528D01*
X134558865Y-87399643D01*
X134617437Y-87541048D01*
X134702470Y-87668309D01*
X134810697Y-87776536D01*
X134937958Y-87861569D01*
X135079363Y-87920141D01*
X135229478Y-87950000D01*
X135382534Y-87950000D01*
X135532649Y-87920141D01*
X135674054Y-87861569D01*
X135801315Y-87776536D01*
X135827851Y-87750000D01*
X141323000Y-87750000D01*
X141323000Y-88955424D01*
X141286478Y-89075820D01*
X141261822Y-89326155D01*
X141286478Y-89576490D01*
X141359499Y-89817206D01*
X141478077Y-90039050D01*
X141528077Y-90099975D01*
X141534706Y-90167282D01*
X141576208Y-90304094D01*
X141643603Y-90430182D01*
X141734302Y-90540698D01*
X141844818Y-90631397D01*
X141970906Y-90698792D01*
X142107718Y-90740294D01*
X142249999Y-90754307D01*
X142950001Y-90754307D01*
X143092282Y-90740294D01*
X143229094Y-90698792D01*
X143355182Y-90631397D01*
X143465698Y-90540698D01*
X143556397Y-90430182D01*
X143584097Y-90378358D01*
X143643693Y-90466725D01*
X143816526Y-90638078D01*
X144019467Y-90772421D01*
X144244718Y-90864591D01*
X144282391Y-90868462D01*
X144473000Y-90743731D01*
X144473000Y-89527000D01*
X144727000Y-89527000D01*
X144727000Y-90743731D01*
X144917609Y-90868462D01*
X144955282Y-90864591D01*
X145180533Y-90772421D01*
X145383474Y-90638078D01*
X145556307Y-90466725D01*
X145692390Y-90264946D01*
X145786493Y-90040496D01*
X145835000Y-89802000D01*
X145835000Y-89527000D01*
X144727000Y-89527000D01*
X144473000Y-89527000D01*
X144453000Y-89527000D01*
X144453000Y-89273000D01*
X144473000Y-89273000D01*
X144473000Y-88056269D01*
X144727000Y-88056269D01*
X144727000Y-89273000D01*
X145835000Y-89273000D01*
X145835000Y-88998000D01*
X145786493Y-88759504D01*
X145692390Y-88535054D01*
X145556307Y-88333275D01*
X145383474Y-88161922D01*
X145180533Y-88027579D01*
X144955282Y-87935409D01*
X144917609Y-87931538D01*
X144727000Y-88056269D01*
X144473000Y-88056269D01*
X144282391Y-87931538D01*
X144244718Y-87935409D01*
X144047483Y-88016115D01*
X145700598Y-86363001D01*
X146291275Y-86363001D01*
X146354001Y-86369179D01*
X146416727Y-86363001D01*
X146604337Y-86344523D01*
X146845052Y-86271503D01*
X147066897Y-86152925D01*
X147261345Y-85993345D01*
X147301336Y-85944616D01*
X148174621Y-85071332D01*
X148223345Y-85031345D01*
X148382925Y-84836897D01*
X148501503Y-84615052D01*
X148574523Y-84374337D01*
X148593001Y-84186727D01*
X148593001Y-84186720D01*
X148599178Y-84124002D01*
X148593001Y-84061283D01*
X148593001Y-83089130D01*
X148652673Y-82892418D01*
X148658523Y-82873135D01*
X148683178Y-82622800D01*
X148677000Y-82560072D01*
X148677000Y-67757528D01*
X148683178Y-67694800D01*
X148658523Y-67444464D01*
X148585502Y-67203749D01*
X148576588Y-67187072D01*
X148466924Y-66981904D01*
X148307344Y-66787456D01*
X148258622Y-66747471D01*
X143452535Y-61941385D01*
X143412544Y-61892656D01*
X143218096Y-61733076D01*
X142996251Y-61614498D01*
X142755536Y-61541478D01*
X142567926Y-61523000D01*
X142505200Y-61516822D01*
X142442474Y-61523000D01*
X138882065Y-61523000D01*
X138630698Y-61473000D01*
X138369302Y-61473000D01*
X138112928Y-61523996D01*
X137871430Y-61624028D01*
X137654087Y-61769252D01*
X137469252Y-61954087D01*
X137324028Y-62171430D01*
X137223996Y-62412928D01*
X137173000Y-62669302D01*
X137173000Y-62930698D01*
X137223996Y-63187072D01*
X137324028Y-63428570D01*
X137469252Y-63645913D01*
X137654087Y-63830748D01*
X137871430Y-63975972D01*
X138112928Y-64076004D01*
X138369302Y-64127000D01*
X138630698Y-64127000D01*
X138882065Y-64077000D01*
X141976250Y-64077000D01*
X146123000Y-68223751D01*
X146123000Y-71919025D01*
X146094570Y-71900028D01*
X145853072Y-71799996D01*
X145596698Y-71749000D01*
X145335302Y-71749000D01*
X145078928Y-71799996D01*
X144837430Y-71900028D01*
X144620087Y-72045252D01*
X144435252Y-72230087D01*
X144290028Y-72447430D01*
X144196000Y-72674433D01*
X144101972Y-72447430D01*
X143956748Y-72230087D01*
X143771913Y-72045252D01*
X143554570Y-71900028D01*
X143313072Y-71799996D01*
X143056698Y-71749000D01*
X142795302Y-71749000D01*
X142538928Y-71799996D01*
X142297430Y-71900028D01*
X142080087Y-72045252D01*
X141895252Y-72230087D01*
X141750028Y-72447430D01*
X141656000Y-72674433D01*
X141561972Y-72447430D01*
X141416748Y-72230087D01*
X141231913Y-72045252D01*
X141014570Y-71900028D01*
X140773072Y-71799996D01*
X140516698Y-71749000D01*
X140255302Y-71749000D01*
X139998928Y-71799996D01*
X139757430Y-71900028D01*
X139540087Y-72045252D01*
X139355252Y-72230087D01*
X139210028Y-72447430D01*
X139109996Y-72688928D01*
X139059000Y-72945302D01*
X139059000Y-73206698D01*
X139109996Y-73463072D01*
X139210028Y-73704570D01*
X139355252Y-73921913D01*
X139540087Y-74106748D01*
X139572079Y-74128124D01*
X139536000Y-74127928D01*
X139411518Y-74140188D01*
X139291820Y-74176498D01*
X139181506Y-74235463D01*
X139084815Y-74314815D01*
X139005463Y-74411506D01*
X138946498Y-74521820D01*
X138910188Y-74641518D01*
X138897928Y-74766000D01*
X138901000Y-75330250D01*
X139059750Y-75489000D01*
X140259000Y-75489000D01*
X140259000Y-75469000D01*
X140513000Y-75469000D01*
X140513000Y-75489000D01*
X140533000Y-75489000D01*
X140533000Y-75743000D01*
X140513000Y-75743000D01*
X140513000Y-75763000D01*
X140259000Y-75763000D01*
X140259000Y-75743000D01*
X139059750Y-75743000D01*
X138901000Y-75901750D01*
X138897928Y-76466000D01*
X138910188Y-76590482D01*
X138919203Y-76620200D01*
X131340790Y-76620200D01*
X131292799Y-76615473D01*
X131244809Y-76620200D01*
X131244807Y-76620200D01*
X131101275Y-76634337D01*
X130917109Y-76690203D01*
X130747382Y-76780924D01*
X130598614Y-76903014D01*
X130568020Y-76940293D01*
X129933000Y-77575313D01*
X129933000Y-68654528D01*
X135273000Y-68654528D01*
X135273000Y-68945472D01*
X135329760Y-69230825D01*
X135441099Y-69499622D01*
X135602739Y-69741533D01*
X135808467Y-69947261D01*
X136050378Y-70108901D01*
X136319175Y-70220240D01*
X136604528Y-70277000D01*
X136895472Y-70277000D01*
X137180825Y-70220240D01*
X137449622Y-70108901D01*
X137691533Y-69947261D01*
X137897261Y-69741533D01*
X138058901Y-69499622D01*
X138170240Y-69230825D01*
X138227000Y-68945472D01*
X138227000Y-68654528D01*
X141273000Y-68654528D01*
X141273000Y-68945472D01*
X141329760Y-69230825D01*
X141441099Y-69499622D01*
X141602739Y-69741533D01*
X141808467Y-69947261D01*
X142050378Y-70108901D01*
X142319175Y-70220240D01*
X142604528Y-70277000D01*
X142895472Y-70277000D01*
X143180825Y-70220240D01*
X143449622Y-70108901D01*
X143691533Y-69947261D01*
X143897261Y-69741533D01*
X144058901Y-69499622D01*
X144170240Y-69230825D01*
X144227000Y-68945472D01*
X144227000Y-68654528D01*
X144170240Y-68369175D01*
X144058901Y-68100378D01*
X143897261Y-67858467D01*
X143691533Y-67652739D01*
X143449622Y-67491099D01*
X143180825Y-67379760D01*
X142895472Y-67323000D01*
X142604528Y-67323000D01*
X142319175Y-67379760D01*
X142050378Y-67491099D01*
X141808467Y-67652739D01*
X141602739Y-67858467D01*
X141441099Y-68100378D01*
X141329760Y-68369175D01*
X141273000Y-68654528D01*
X138227000Y-68654528D01*
X138170240Y-68369175D01*
X138058901Y-68100378D01*
X138015707Y-68035734D01*
X138112928Y-68076004D01*
X138369302Y-68127000D01*
X138630698Y-68127000D01*
X138887072Y-68076004D01*
X139128570Y-67975972D01*
X139345913Y-67830748D01*
X139530748Y-67645913D01*
X139675972Y-67428570D01*
X139776004Y-67187072D01*
X139827000Y-66930698D01*
X139827000Y-66669302D01*
X139776004Y-66412928D01*
X139675972Y-66171430D01*
X139530748Y-65954087D01*
X139345913Y-65769252D01*
X139128570Y-65624028D01*
X138887072Y-65523996D01*
X138630698Y-65473000D01*
X138369302Y-65473000D01*
X138112928Y-65523996D01*
X137871430Y-65624028D01*
X137654087Y-65769252D01*
X137469252Y-65954087D01*
X137324028Y-66171430D01*
X137223996Y-66412928D01*
X137173000Y-66669302D01*
X137173000Y-66930698D01*
X137223996Y-67187072D01*
X137324028Y-67428570D01*
X137333735Y-67443097D01*
X137180825Y-67379760D01*
X136895472Y-67323000D01*
X136604528Y-67323000D01*
X136319175Y-67379760D01*
X136050378Y-67491099D01*
X135808467Y-67652739D01*
X135602739Y-67858467D01*
X135441099Y-68100378D01*
X135329760Y-68369175D01*
X135273000Y-68654528D01*
X129933000Y-68654528D01*
X129933000Y-68297990D01*
X129937727Y-68249999D01*
X129933000Y-68202007D01*
X129933000Y-56654528D01*
X135273000Y-56654528D01*
X135273000Y-56945472D01*
X135329760Y-57230825D01*
X135441099Y-57499622D01*
X135602739Y-57741533D01*
X135808467Y-57947261D01*
X136050378Y-58108901D01*
X136319175Y-58220240D01*
X136604528Y-58277000D01*
X136895472Y-58277000D01*
X137180825Y-58220240D01*
X137333735Y-58156903D01*
X137324028Y-58171430D01*
X137223996Y-58412928D01*
X137173000Y-58669302D01*
X137173000Y-58930698D01*
X137223996Y-59187072D01*
X137324028Y-59428570D01*
X137469252Y-59645913D01*
X137654087Y-59830748D01*
X137871430Y-59975972D01*
X138112928Y-60076004D01*
X138369302Y-60127000D01*
X138630698Y-60127000D01*
X138887072Y-60076004D01*
X139128570Y-59975972D01*
X139345913Y-59830748D01*
X139530748Y-59645913D01*
X139675972Y-59428570D01*
X139776004Y-59187072D01*
X139827000Y-58930698D01*
X139827000Y-58669302D01*
X139776004Y-58412928D01*
X139675972Y-58171430D01*
X139530748Y-57954087D01*
X139345913Y-57769252D01*
X139128570Y-57624028D01*
X138887072Y-57523996D01*
X138630698Y-57473000D01*
X138369302Y-57473000D01*
X138112928Y-57523996D01*
X138015707Y-57564266D01*
X138058901Y-57499622D01*
X138170240Y-57230825D01*
X138227000Y-56945472D01*
X138227000Y-56654528D01*
X141273000Y-56654528D01*
X141273000Y-56945472D01*
X141329760Y-57230825D01*
X141441099Y-57499622D01*
X141602739Y-57741533D01*
X141808467Y-57947261D01*
X142050378Y-58108901D01*
X142319175Y-58220240D01*
X142604528Y-58277000D01*
X142895472Y-58277000D01*
X143180825Y-58220240D01*
X143449622Y-58108901D01*
X143691533Y-57947261D01*
X143897261Y-57741533D01*
X144058901Y-57499622D01*
X144170240Y-57230825D01*
X144227000Y-56945472D01*
X144227000Y-56654528D01*
X144170240Y-56369175D01*
X144058901Y-56100378D01*
X143897261Y-55858467D01*
X143691533Y-55652739D01*
X143449622Y-55491099D01*
X143180825Y-55379760D01*
X142895472Y-55323000D01*
X142604528Y-55323000D01*
X142319175Y-55379760D01*
X142050378Y-55491099D01*
X141808467Y-55652739D01*
X141602739Y-55858467D01*
X141441099Y-56100378D01*
X141329760Y-56369175D01*
X141273000Y-56654528D01*
X138227000Y-56654528D01*
X138170240Y-56369175D01*
X138058901Y-56100378D01*
X137897261Y-55858467D01*
X137691533Y-55652739D01*
X137449622Y-55491099D01*
X137180825Y-55379760D01*
X136895472Y-55323000D01*
X136604528Y-55323000D01*
X136319175Y-55379760D01*
X136050378Y-55491099D01*
X135808467Y-55652739D01*
X135602739Y-55858467D01*
X135441099Y-56100378D01*
X135329760Y-56369175D01*
X135273000Y-56654528D01*
X129933000Y-56654528D01*
X129933000Y-55814180D01*
X129999833Y-55689144D01*
X130000000Y-55688593D01*
X130000167Y-55689143D01*
X130100174Y-55876244D01*
X130234761Y-56040239D01*
X130398756Y-56174826D01*
X130585856Y-56274833D01*
X130788871Y-56336417D01*
X131000000Y-56357211D01*
X131211128Y-56336417D01*
X131414143Y-56274833D01*
X131601244Y-56174826D01*
X131765239Y-56040239D01*
X131899826Y-55876244D01*
X131943164Y-55795164D01*
X131976208Y-55904094D01*
X132043603Y-56030182D01*
X132134302Y-56140698D01*
X132244818Y-56231397D01*
X132370906Y-56298792D01*
X132507718Y-56340294D01*
X132649999Y-56354307D01*
X133350001Y-56354307D01*
X133492282Y-56340294D01*
X133629094Y-56298792D01*
X133755182Y-56231397D01*
X133865698Y-56140698D01*
X133956397Y-56030182D01*
X134023792Y-55904094D01*
X134065294Y-55767282D01*
X134079307Y-55625001D01*
X134079307Y-54374999D01*
X134065294Y-54232718D01*
X134023792Y-54095906D01*
X133956397Y-53969818D01*
X133865698Y-53859302D01*
X133755182Y-53768603D01*
X133629094Y-53701208D01*
X133492282Y-53659706D01*
X133350001Y-53645693D01*
X132649999Y-53645693D01*
X132507718Y-53659706D01*
X132370906Y-53701208D01*
X132244818Y-53768603D01*
X132134302Y-53859302D01*
X132043603Y-53969818D01*
X131976208Y-54095906D01*
X131943164Y-54204836D01*
X131899826Y-54123756D01*
X131765239Y-53959761D01*
X131601244Y-53825174D01*
X131414144Y-53725167D01*
X131211129Y-53663583D01*
X131000000Y-53642789D01*
X130788872Y-53663583D01*
X130585857Y-53725167D01*
X130398757Y-53825174D01*
X130234762Y-53959761D01*
X130100175Y-54123756D01*
X130000168Y-54310856D01*
X130000000Y-54311409D01*
X129999833Y-54310857D01*
X129899826Y-54123756D01*
X129765239Y-53959761D01*
X129601244Y-53825174D01*
X129414144Y-53725167D01*
X129211129Y-53663583D01*
X129000000Y-53642789D01*
X128788872Y-53663583D01*
X128585857Y-53725167D01*
X128398757Y-53825174D01*
X128234762Y-53959761D01*
X128100175Y-54123756D01*
X128093158Y-54136885D01*
X128092390Y-54135054D01*
X127956307Y-53933275D01*
X127783474Y-53761922D01*
X127580533Y-53627579D01*
X127355282Y-53535409D01*
X127317609Y-53531538D01*
X127127000Y-53656269D01*
X127127000Y-54873000D01*
X127147000Y-54873000D01*
X127147000Y-55127000D01*
X127127000Y-55127000D01*
X127127000Y-56343731D01*
X127317609Y-56468462D01*
X127355282Y-56464591D01*
X127580533Y-56372421D01*
X127783474Y-56238078D01*
X127956307Y-56066725D01*
X127979001Y-56033075D01*
X127979000Y-64005392D01*
X127979001Y-64005402D01*
X127979001Y-65891314D01*
X126378784Y-64291098D01*
X126348186Y-64253814D01*
X126199418Y-64131724D01*
X126029691Y-64041003D01*
X125845525Y-63985137D01*
X125701993Y-63971000D01*
X125654000Y-63966273D01*
X125606007Y-63971000D01*
X118585847Y-63971000D01*
X118688336Y-63868511D01*
X118773369Y-63741250D01*
X118831941Y-63599845D01*
X118861800Y-63449730D01*
X118861800Y-63296674D01*
X118831941Y-63146559D01*
X118773369Y-63005154D01*
X118688336Y-62877893D01*
X118580109Y-62769666D01*
X118484000Y-62705448D01*
X118484000Y-57332001D01*
X119483158Y-56332844D01*
X119507718Y-56340294D01*
X119649999Y-56354307D01*
X120350001Y-56354307D01*
X120492282Y-56340294D01*
X120629094Y-56298792D01*
X120755182Y-56231397D01*
X120865698Y-56140698D01*
X120956397Y-56030182D01*
X121023792Y-55904094D01*
X121065294Y-55767282D01*
X121079307Y-55625001D01*
X121079307Y-55127000D01*
X125765000Y-55127000D01*
X125765000Y-55402000D01*
X125813507Y-55640496D01*
X125907610Y-55864946D01*
X126043693Y-56066725D01*
X126216526Y-56238078D01*
X126419467Y-56372421D01*
X126644718Y-56464591D01*
X126682391Y-56468462D01*
X126873000Y-56343731D01*
X126873000Y-55127000D01*
X125765000Y-55127000D01*
X121079307Y-55127000D01*
X121079307Y-54598000D01*
X125765000Y-54598000D01*
X125765000Y-54873000D01*
X126873000Y-54873000D01*
X126873000Y-53656269D01*
X126682391Y-53531538D01*
X126644718Y-53535409D01*
X126419467Y-53627579D01*
X126216526Y-53761922D01*
X126043693Y-53933275D01*
X125907610Y-54135054D01*
X125813507Y-54359504D01*
X125765000Y-54598000D01*
X121079307Y-54598000D01*
X121079307Y-54374999D01*
X121065294Y-54232718D01*
X121023792Y-54095906D01*
X120956397Y-53969818D01*
X120865698Y-53859302D01*
X120755182Y-53768603D01*
X120629094Y-53701208D01*
X120492282Y-53659706D01*
X120350001Y-53645693D01*
X119649999Y-53645693D01*
X119507718Y-53659706D01*
X119370906Y-53701208D01*
X119244818Y-53768603D01*
X119134302Y-53859302D01*
X119043603Y-53969818D01*
X118976208Y-54095906D01*
X118943164Y-54204836D01*
X118899826Y-54123756D01*
X118765239Y-53959761D01*
X118601244Y-53825174D01*
X118414144Y-53725167D01*
X118211129Y-53663583D01*
X118000000Y-53642789D01*
X117788872Y-53663583D01*
X117585857Y-53725167D01*
X117398757Y-53825174D01*
X117234762Y-53959761D01*
X117100175Y-54123756D01*
X117000168Y-54310856D01*
X117000000Y-54311409D01*
X116999833Y-54310857D01*
X116899826Y-54123756D01*
X116765239Y-53959761D01*
X116601244Y-53825174D01*
X116414144Y-53725167D01*
X116211129Y-53663583D01*
X116000000Y-53642789D01*
X115788872Y-53663583D01*
X115585857Y-53725167D01*
X115398757Y-53825174D01*
X115234762Y-53959761D01*
X115100175Y-54123756D01*
X115093158Y-54136885D01*
X115092390Y-54135054D01*
X114956307Y-53933275D01*
X114783474Y-53761922D01*
X114580533Y-53627579D01*
X114355282Y-53535409D01*
X114317609Y-53531538D01*
X114127000Y-53656269D01*
X114127000Y-54873000D01*
X114147000Y-54873000D01*
X114147000Y-55127000D01*
X114127000Y-55127000D01*
X114127000Y-56343731D01*
X114317609Y-56468462D01*
X114355282Y-56464591D01*
X114580533Y-56372421D01*
X114783474Y-56238078D01*
X114956307Y-56066725D01*
X115092390Y-55864946D01*
X115093157Y-55863116D01*
X115100174Y-55876244D01*
X115234761Y-56040239D01*
X115279000Y-56076545D01*
X115279001Y-63375997D01*
X115274273Y-63424000D01*
X115293137Y-63615525D01*
X115349003Y-63799690D01*
X115349004Y-63799691D01*
X115439725Y-63969418D01*
X115561815Y-64118186D01*
X115599093Y-64148779D01*
X117055220Y-65604907D01*
X117085814Y-65642186D01*
X117234582Y-65764276D01*
X117404309Y-65854997D01*
X117588475Y-65910863D01*
X117732007Y-65925000D01*
X117732016Y-65925000D01*
X117779999Y-65929726D01*
X117827982Y-65925000D01*
X125249314Y-65925000D01*
X127979000Y-68654687D01*
X127979000Y-69313992D01*
X127979001Y-69314002D01*
X127979000Y-74299194D01*
X127979001Y-74299204D01*
X127979000Y-78727387D01*
X127861843Y-78678859D01*
X127711728Y-78649000D01*
X127664552Y-78649000D01*
X127652515Y-78639121D01*
X127552276Y-78585543D01*
X127488170Y-78566097D01*
X127443511Y-78552549D01*
X127388445Y-78547126D01*
X127358736Y-78544200D01*
X127358731Y-78544200D01*
X127330400Y-78541410D01*
X127302069Y-78544200D01*
X126528706Y-78544200D01*
X126553541Y-78484243D01*
X126583400Y-78334128D01*
X126583400Y-78181072D01*
X126553541Y-78030957D01*
X126494969Y-77889552D01*
X126409936Y-77762291D01*
X126301709Y-77654064D01*
X126174448Y-77569031D01*
X126033043Y-77510459D01*
X125882928Y-77480600D01*
X125845401Y-77480600D01*
X125705037Y-77340236D01*
X125686974Y-77318226D01*
X125599115Y-77246121D01*
X125498876Y-77192543D01*
X125434770Y-77173097D01*
X125390111Y-77159549D01*
X125335045Y-77154126D01*
X125305336Y-77151200D01*
X125305331Y-77151200D01*
X125277000Y-77148410D01*
X125274528Y-77148653D01*
X125271534Y-77118258D01*
X125230743Y-76983790D01*
X125164503Y-76859863D01*
X125075359Y-76751241D01*
X124966737Y-76662097D01*
X124957949Y-76657400D01*
X124966737Y-76652703D01*
X125075359Y-76563559D01*
X125164503Y-76454937D01*
X125230743Y-76331010D01*
X125271534Y-76196542D01*
X125285307Y-76056700D01*
X125285307Y-75581700D01*
X125271534Y-75441858D01*
X125230743Y-75307390D01*
X125164503Y-75183463D01*
X125075359Y-75074841D01*
X124966737Y-74985697D01*
X124842810Y-74919457D01*
X124708342Y-74878666D01*
X124568500Y-74864893D01*
X123993500Y-74864893D01*
X123853658Y-74878666D01*
X123719190Y-74919457D01*
X123595263Y-74985697D01*
X123486641Y-75074841D01*
X123406000Y-75173102D01*
X123325359Y-75074841D01*
X123216737Y-74985697D01*
X123092810Y-74919457D01*
X122958342Y-74878666D01*
X122818500Y-74864893D01*
X122243500Y-74864893D01*
X122103658Y-74878666D01*
X121969190Y-74919457D01*
X121845263Y-74985697D01*
X121736641Y-75074841D01*
X121647497Y-75183463D01*
X121581257Y-75307390D01*
X121552800Y-75401199D01*
X120619560Y-75401199D01*
X120572792Y-75387012D01*
X120541829Y-75329084D01*
X120469724Y-75241225D01*
X120447712Y-75223160D01*
X120169751Y-74945199D01*
X120169751Y-71107079D01*
X120172541Y-71078750D01*
X120169751Y-71050421D01*
X120169751Y-71050415D01*
X120161401Y-70965639D01*
X120128408Y-70856875D01*
X120074830Y-70756636D01*
X120002725Y-70668777D01*
X119980713Y-70650712D01*
X118919239Y-69589238D01*
X118901174Y-69567226D01*
X118813315Y-69495121D01*
X118713076Y-69441543D01*
X118648970Y-69422097D01*
X118604311Y-69408549D01*
X118549245Y-69403126D01*
X118519536Y-69400200D01*
X118519531Y-69400200D01*
X118491200Y-69397410D01*
X118462869Y-69400200D01*
X112942445Y-69400200D01*
X112915909Y-69373664D01*
X112788648Y-69288631D01*
X112647243Y-69230059D01*
X112497128Y-69200200D01*
X112344072Y-69200200D01*
X112193957Y-69230059D01*
X112052552Y-69288631D01*
X111925291Y-69373664D01*
X111817064Y-69481891D01*
X111732031Y-69609152D01*
X111673459Y-69750557D01*
X111643600Y-69900672D01*
X100502000Y-69900672D01*
X100502000Y-60504231D01*
X100524653Y-60502000D01*
X100598409Y-60494736D01*
X100693036Y-60466031D01*
X100780245Y-60419417D01*
X100856684Y-60356684D01*
X100919417Y-60280245D01*
X100966031Y-60193036D01*
X100994736Y-60098409D01*
X101004428Y-60000000D01*
X101002000Y-59975347D01*
X101002000Y-53024550D01*
X101009757Y-52945433D01*
X101073000Y-52945433D01*
X101073000Y-53354567D01*
X101152818Y-53755839D01*
X101309386Y-54133829D01*
X101536689Y-54474011D01*
X101825989Y-54763311D01*
X102166171Y-54990614D01*
X102544161Y-55147182D01*
X102945433Y-55227000D01*
X103354567Y-55227000D01*
X103755839Y-55147182D01*
X103804562Y-55127000D01*
X112765000Y-55127000D01*
X112765000Y-55402000D01*
X112813507Y-55640496D01*
X112907610Y-55864946D01*
X113043693Y-56066725D01*
X113216526Y-56238078D01*
X113419467Y-56372421D01*
X113644718Y-56464591D01*
X113682391Y-56468462D01*
X113873000Y-56343731D01*
X113873000Y-55127000D01*
X112765000Y-55127000D01*
X103804562Y-55127000D01*
X104133829Y-54990614D01*
X104474011Y-54763311D01*
X104763311Y-54474011D01*
X104990614Y-54133829D01*
X105017447Y-54069048D01*
X105075064Y-54155279D01*
X105294721Y-54374936D01*
X105553011Y-54547519D01*
X105840006Y-54666396D01*
X106144679Y-54727000D01*
X106455321Y-54727000D01*
X106759994Y-54666396D01*
X106925116Y-54598000D01*
X112765000Y-54598000D01*
X112765000Y-54873000D01*
X113873000Y-54873000D01*
X113873000Y-53656269D01*
X113682391Y-53531538D01*
X113644718Y-53535409D01*
X113419467Y-53627579D01*
X113216526Y-53761922D01*
X113043693Y-53933275D01*
X112907610Y-54135054D01*
X112813507Y-54359504D01*
X112765000Y-54598000D01*
X106925116Y-54598000D01*
X107046989Y-54547519D01*
X107305279Y-54374936D01*
X107524936Y-54155279D01*
X107697519Y-53896989D01*
X107816396Y-53609994D01*
X107877000Y-53305321D01*
X107877000Y-52994679D01*
X142123000Y-52994679D01*
X142123000Y-53305321D01*
X142183604Y-53609994D01*
X142302481Y-53896989D01*
X142475064Y-54155279D01*
X142694721Y-54374936D01*
X142953011Y-54547519D01*
X143240006Y-54666396D01*
X143544679Y-54727000D01*
X143855321Y-54727000D01*
X144159994Y-54666396D01*
X144446989Y-54547519D01*
X144705279Y-54374936D01*
X144924936Y-54155279D01*
X144982553Y-54069048D01*
X145009386Y-54133829D01*
X145236689Y-54474011D01*
X145525989Y-54763311D01*
X145866171Y-54990614D01*
X146244161Y-55147182D01*
X146645433Y-55227000D01*
X147054567Y-55227000D01*
X147455839Y-55147182D01*
X147833829Y-54990614D01*
X148174011Y-54763311D01*
X148463311Y-54474011D01*
X148690614Y-54133829D01*
X148847182Y-53755839D01*
X148927000Y-53354567D01*
X148927000Y-52945433D01*
X148847182Y-52544161D01*
X148690614Y-52166171D01*
X148463311Y-51825989D01*
X148174011Y-51536689D01*
X147833829Y-51309386D01*
X147455839Y-51152818D01*
X147054567Y-51073000D01*
X146645433Y-51073000D01*
X146244161Y-51152818D01*
X145866171Y-51309386D01*
X145525989Y-51536689D01*
X145236689Y-51825989D01*
X145009386Y-52166171D01*
X144982553Y-52230952D01*
X144924936Y-52144721D01*
X144705279Y-51925064D01*
X144446989Y-51752481D01*
X144159994Y-51633604D01*
X143855321Y-51573000D01*
X143544679Y-51573000D01*
X143240006Y-51633604D01*
X142953011Y-51752481D01*
X142694721Y-51925064D01*
X142475064Y-52144721D01*
X142302481Y-52403011D01*
X142183604Y-52690006D01*
X142123000Y-52994679D01*
X107877000Y-52994679D01*
X107816396Y-52690006D01*
X107697519Y-52403011D01*
X107524936Y-52144721D01*
X107305279Y-51925064D01*
X107046989Y-51752481D01*
X106759994Y-51633604D01*
X106455321Y-51573000D01*
X106144679Y-51573000D01*
X105840006Y-51633604D01*
X105553011Y-51752481D01*
X105294721Y-51925064D01*
X105075064Y-52144721D01*
X105017447Y-52230952D01*
X104990614Y-52166171D01*
X104763311Y-51825989D01*
X104474011Y-51536689D01*
X104133829Y-51309386D01*
X103755839Y-51152818D01*
X103354567Y-51073000D01*
X102945433Y-51073000D01*
X102544161Y-51152818D01*
X102166171Y-51309386D01*
X101825989Y-51536689D01*
X101536689Y-51825989D01*
X101309386Y-52166171D01*
X101152818Y-52544161D01*
X101073000Y-52945433D01*
X101009757Y-52945433D01*
X101042413Y-52612387D01*
X101154982Y-52239541D01*
X101337830Y-51895653D01*
X101583987Y-51593835D01*
X101884081Y-51345577D01*
X102226677Y-51160337D01*
X102598731Y-51045167D01*
X103009436Y-51002000D01*
X109975347Y-51002000D01*
X110000000Y-51004428D01*
X110024653Y-51002000D01*
X110098409Y-50994736D01*
X110193036Y-50966031D01*
X110280245Y-50919417D01*
X110356684Y-50856684D01*
X110419417Y-50780245D01*
X110466031Y-50693036D01*
X110494736Y-50598409D01*
X110504231Y-50502000D01*
X139495769Y-50502000D01*
X139505264Y-50598409D01*
G37*
X139505264Y-50598409D02*
X139533969Y-50693036D01*
X139580583Y-50780245D01*
X139643316Y-50856684D01*
X139719755Y-50919417D01*
X139806964Y-50966031D01*
X139901591Y-50994736D01*
X139975347Y-51002000D01*
X140000000Y-51004428D01*
X140024653Y-51002000D01*
X146975450Y-51002000D01*
X147387613Y-51042413D01*
X147760459Y-51154982D01*
X148104347Y-51337830D01*
X148406165Y-51583987D01*
X148654423Y-51884081D01*
X148839663Y-52226677D01*
X148954833Y-52598731D01*
X148998000Y-53009436D01*
X148998001Y-59975337D01*
X148995572Y-60000000D01*
X149005264Y-60098409D01*
X149033969Y-60193036D01*
X149080583Y-60280245D01*
X149143316Y-60356684D01*
X149219755Y-60419417D01*
X149306964Y-60466031D01*
X149401591Y-60494736D01*
X149475347Y-60502000D01*
X149498000Y-60504231D01*
X149498001Y-89495769D01*
X149475347Y-89498000D01*
X149401591Y-89505264D01*
X149306964Y-89533969D01*
X149219755Y-89580583D01*
X149143316Y-89643316D01*
X149080583Y-89719755D01*
X149033969Y-89806964D01*
X149005264Y-89901591D01*
X148995572Y-90000000D01*
X148998001Y-90024663D01*
X148998000Y-96975449D01*
X148957587Y-97387614D01*
X148845018Y-97760462D01*
X148662170Y-98104346D01*
X148416015Y-98406163D01*
X148115922Y-98654421D01*
X147773326Y-98839662D01*
X147401269Y-98954833D01*
X146990564Y-98998000D01*
X140024653Y-98998000D01*
X140000000Y-98995572D01*
X139975347Y-98998000D01*
X139901591Y-99005264D01*
X139806964Y-99033969D01*
X139719755Y-99080583D01*
X139643316Y-99143316D01*
X139580583Y-99219755D01*
X139533969Y-99306964D01*
X139505264Y-99401591D01*
X139495769Y-99498000D01*
X110504231Y-99498000D01*
X110494736Y-99401591D01*
X110466031Y-99306964D01*
X110419417Y-99219755D01*
X110356684Y-99143316D01*
X110280245Y-99080583D01*
X110193036Y-99033969D01*
X110098409Y-99005264D01*
X110024653Y-98998000D01*
X110000000Y-98995572D01*
X109975347Y-98998000D01*
X103024551Y-98998000D01*
X102612386Y-98957587D01*
X102239538Y-98845018D01*
X101895654Y-98662170D01*
X101593837Y-98416015D01*
X101345579Y-98115922D01*
X101160338Y-97773326D01*
X101045167Y-97401269D01*
X101002000Y-96990564D01*
X101002000Y-96645433D01*
X101073000Y-96645433D01*
X101073000Y-97054567D01*
X101152818Y-97455839D01*
X101309386Y-97833829D01*
X101536689Y-98174011D01*
X101825989Y-98463311D01*
X102166171Y-98690614D01*
X102544161Y-98847182D01*
X102945433Y-98927000D01*
X103354567Y-98927000D01*
X103755839Y-98847182D01*
X104133829Y-98690614D01*
X104474011Y-98463311D01*
X104763311Y-98174011D01*
X104990614Y-97833829D01*
X105017447Y-97769048D01*
X105075064Y-97855279D01*
X105294721Y-98074936D01*
X105553011Y-98247519D01*
X105840006Y-98366396D01*
X106144679Y-98427000D01*
X106455321Y-98427000D01*
X106759994Y-98366396D01*
X107046989Y-98247519D01*
X107305279Y-98074936D01*
X107524936Y-97855279D01*
X107697519Y-97596989D01*
X107816396Y-97309994D01*
X107877000Y-97005321D01*
X107877000Y-96694679D01*
X142123000Y-96694679D01*
X142123000Y-97005321D01*
X142183604Y-97309994D01*
X142302481Y-97596989D01*
X142475064Y-97855279D01*
X142694721Y-98074936D01*
X142953011Y-98247519D01*
X143240006Y-98366396D01*
X143544679Y-98427000D01*
X143855321Y-98427000D01*
X144159994Y-98366396D01*
X144446989Y-98247519D01*
X144705279Y-98074936D01*
X144924936Y-97855279D01*
X144982553Y-97769048D01*
X145009386Y-97833829D01*
X145236689Y-98174011D01*
X145525989Y-98463311D01*
X145866171Y-98690614D01*
X146244161Y-98847182D01*
X146645433Y-98927000D01*
X147054567Y-98927000D01*
X147455839Y-98847182D01*
X147833829Y-98690614D01*
X148174011Y-98463311D01*
X148463311Y-98174011D01*
X148690614Y-97833829D01*
X148847182Y-97455839D01*
X148927000Y-97054567D01*
X148927000Y-96645433D01*
X148847182Y-96244161D01*
X148690614Y-95866171D01*
X148463311Y-95525989D01*
X148174011Y-95236689D01*
X147833829Y-95009386D01*
X147455839Y-94852818D01*
X147054567Y-94773000D01*
X146645433Y-94773000D01*
X146244161Y-94852818D01*
X145866171Y-95009386D01*
X145525989Y-95236689D01*
X145236689Y-95525989D01*
X145009386Y-95866171D01*
X144982553Y-95930952D01*
X144924936Y-95844721D01*
X144705279Y-95625064D01*
X144446989Y-95452481D01*
X144159994Y-95333604D01*
X143855321Y-95273000D01*
X143544679Y-95273000D01*
X143240006Y-95333604D01*
X142953011Y-95452481D01*
X142694721Y-95625064D01*
X142475064Y-95844721D01*
X142302481Y-96103011D01*
X142183604Y-96390006D01*
X142123000Y-96694679D01*
X107877000Y-96694679D01*
X107816396Y-96390006D01*
X107697519Y-96103011D01*
X107524936Y-95844721D01*
X107305279Y-95625064D01*
X107046989Y-95452481D01*
X106759994Y-95333604D01*
X106455321Y-95273000D01*
X106144679Y-95273000D01*
X105840006Y-95333604D01*
X105553011Y-95452481D01*
X105294721Y-95625064D01*
X105075064Y-95844721D01*
X105017447Y-95930952D01*
X104990614Y-95866171D01*
X104763311Y-95525989D01*
X104474011Y-95236689D01*
X104133829Y-95009386D01*
X103755839Y-94852818D01*
X103354567Y-94773000D01*
X102945433Y-94773000D01*
X102544161Y-94852818D01*
X102166171Y-95009386D01*
X101825989Y-95236689D01*
X101536689Y-95525989D01*
X101309386Y-95866171D01*
X101152818Y-96244161D01*
X101073000Y-96645433D01*
X101002000Y-96645433D01*
X101002000Y-90024652D01*
X101004428Y-90000000D01*
X100994736Y-89901591D01*
X100966031Y-89806964D01*
X100919417Y-89719755D01*
X100856684Y-89643316D01*
X100780245Y-89580583D01*
X100693036Y-89533969D01*
X100598409Y-89505264D01*
X100524653Y-89498000D01*
X100502000Y-89495769D01*
X100502000Y-74117072D01*
X112329400Y-74117072D01*
X112329400Y-74270128D01*
X112359259Y-74420243D01*
X112417831Y-74561648D01*
X112502864Y-74688909D01*
X112529400Y-74715445D01*
X112529400Y-75351533D01*
X112526610Y-75379864D01*
X112537749Y-75492975D01*
X112543605Y-75512278D01*
X112570743Y-75601739D01*
X112624321Y-75701978D01*
X112696426Y-75789838D01*
X112718438Y-75807903D01*
X114382896Y-77472361D01*
X114400961Y-77494373D01*
X114488820Y-77566478D01*
X114546298Y-77597200D01*
X114589058Y-77620056D01*
X114697823Y-77653050D01*
X114810935Y-77664190D01*
X114839274Y-77661399D01*
X115915975Y-77661399D01*
X115925295Y-77743494D01*
X115964243Y-77862360D01*
X116025633Y-77971343D01*
X116107105Y-78066255D01*
X116205528Y-78143450D01*
X116317119Y-78199959D01*
X116437591Y-78233613D01*
X116562313Y-78243117D01*
X116662500Y-78240201D01*
X116821250Y-78081451D01*
X116821250Y-77584507D01*
X117075250Y-77584507D01*
X117075250Y-78081451D01*
X117234000Y-78240201D01*
X117334187Y-78243117D01*
X117458909Y-78233613D01*
X117579381Y-78199959D01*
X117690972Y-78143450D01*
X117789395Y-78066255D01*
X117870867Y-77971343D01*
X117932257Y-77862360D01*
X117971205Y-77743494D01*
X117983300Y-77636951D01*
X117824550Y-77478201D01*
X117983300Y-77319451D01*
X117971205Y-77212908D01*
X117932257Y-77094042D01*
X117870867Y-76985059D01*
X117864980Y-76978200D01*
X117870867Y-76971342D01*
X117932257Y-76862359D01*
X117971205Y-76743493D01*
X117983300Y-76636950D01*
X117824550Y-76478200D01*
X117983300Y-76319450D01*
X117971205Y-76212907D01*
X117932257Y-76094041D01*
X117870867Y-75985058D01*
X117827607Y-75934662D01*
X117827607Y-75851199D01*
X117818397Y-75757691D01*
X117791122Y-75667776D01*
X117746829Y-75584910D01*
X117687221Y-75512278D01*
X117614589Y-75452670D01*
X117531723Y-75408377D01*
X117441808Y-75381102D01*
X117348300Y-75371892D01*
X116548200Y-75371892D01*
X116454692Y-75381102D01*
X116418699Y-75392020D01*
X116411974Y-75383826D01*
X116324115Y-75311721D01*
X116223876Y-75258143D01*
X116159770Y-75238697D01*
X116115111Y-75225149D01*
X116060045Y-75219726D01*
X116030336Y-75216800D01*
X116030331Y-75216800D01*
X116002000Y-75214010D01*
X115973669Y-75216800D01*
X114618772Y-75216800D01*
X114645400Y-75082928D01*
X114645400Y-74929872D01*
X114615541Y-74779757D01*
X114556969Y-74638352D01*
X114471936Y-74511091D01*
X114363709Y-74402864D01*
X114236448Y-74317831D01*
X114095043Y-74259259D01*
X113944928Y-74229400D01*
X113883400Y-74229400D01*
X113883400Y-74117072D01*
X113853541Y-73966957D01*
X113794969Y-73825552D01*
X113709936Y-73698291D01*
X113601709Y-73590064D01*
X113474448Y-73505031D01*
X113333043Y-73446459D01*
X113182928Y-73416600D01*
X113029872Y-73416600D01*
X112879757Y-73446459D01*
X112738352Y-73505031D01*
X112611091Y-73590064D01*
X112502864Y-73698291D01*
X112417831Y-73825552D01*
X112359259Y-73966957D01*
X112329400Y-74117072D01*
X100502000Y-74117072D01*
X100502000Y-69900672D01*
X111643600Y-69900672D01*
X111643600Y-70053728D01*
X111673459Y-70203843D01*
X111732031Y-70345248D01*
X111817064Y-70472509D01*
X111925291Y-70580736D01*
X112052552Y-70665769D01*
X112193957Y-70724341D01*
X112344072Y-70754200D01*
X112497128Y-70754200D01*
X112647243Y-70724341D01*
X112788648Y-70665769D01*
X112915909Y-70580736D01*
X112942445Y-70554200D01*
X118252199Y-70554200D01*
X119015752Y-71317753D01*
X119015751Y-75155869D01*
X119012961Y-75184200D01*
X119015751Y-75212531D01*
X119015751Y-75212535D01*
X119016994Y-75225150D01*
X119024100Y-75297311D01*
X119038472Y-75344686D01*
X119057094Y-75406075D01*
X119110672Y-75506314D01*
X119182777Y-75594174D01*
X119204789Y-75612239D01*
X119232012Y-75639462D01*
X119216878Y-75667776D01*
X119189603Y-75757691D01*
X119180393Y-75851199D01*
X119180393Y-75934662D01*
X119137133Y-75985058D01*
X119075743Y-76094041D01*
X119036795Y-76212907D01*
X119024700Y-76319450D01*
X119183450Y-76478200D01*
X119024700Y-76636950D01*
X119036795Y-76743493D01*
X119075743Y-76862359D01*
X119137133Y-76971342D01*
X119180393Y-77021738D01*
X119180393Y-77105200D01*
X119189603Y-77198708D01*
X119198549Y-77228200D01*
X119189603Y-77257693D01*
X119180393Y-77351201D01*
X119180393Y-77605201D01*
X119189603Y-77698709D01*
X119216878Y-77788624D01*
X119261171Y-77871490D01*
X119320779Y-77944122D01*
X119393411Y-78003730D01*
X119476277Y-78048023D01*
X119566192Y-78075298D01*
X119659700Y-78084508D01*
X120459800Y-78084508D01*
X120553308Y-78075298D01*
X120619560Y-78055201D01*
X121606802Y-78055201D01*
X121647497Y-78131337D01*
X121736641Y-78239959D01*
X121813736Y-78303230D01*
X121724041Y-78376841D01*
X121634897Y-78485463D01*
X121568657Y-78609390D01*
X121527866Y-78743858D01*
X121516605Y-78858193D01*
X121080451Y-79294347D01*
X120982357Y-79313859D01*
X120840952Y-79372431D01*
X120713691Y-79457464D01*
X120605464Y-79565691D01*
X120520431Y-79692952D01*
X120461859Y-79834357D01*
X120432000Y-79984472D01*
X120432000Y-80137528D01*
X120461859Y-80287643D01*
X120520431Y-80429048D01*
X120571515Y-80505500D01*
X120520431Y-80581952D01*
X120461859Y-80723357D01*
X120432000Y-80873472D01*
X120432000Y-81026528D01*
X120461859Y-81176643D01*
X120501192Y-81271600D01*
X112178253Y-81271600D01*
X112153600Y-81269172D01*
X112128947Y-81271600D01*
X112055191Y-81278864D01*
X111960564Y-81307569D01*
X111873355Y-81354183D01*
X111796916Y-81416916D01*
X111734183Y-81493355D01*
X111687569Y-81580564D01*
X111658864Y-81675191D01*
X111649172Y-81773600D01*
X111651600Y-81798253D01*
X111651601Y-89248937D01*
X111649172Y-89273600D01*
X111658864Y-89372009D01*
X111687569Y-89466636D01*
X111734183Y-89553845D01*
X111796916Y-89630284D01*
X111873355Y-89693017D01*
X111960564Y-89739631D01*
X112055191Y-89768336D01*
X112128947Y-89775600D01*
X112153600Y-89778028D01*
X112178253Y-89775600D01*
X124963947Y-89775600D01*
X124988600Y-89778028D01*
X125013253Y-89775600D01*
X125087009Y-89768336D01*
X125181636Y-89739631D01*
X125268845Y-89693017D01*
X125345284Y-89630284D01*
X125408017Y-89553845D01*
X125454631Y-89466636D01*
X125483336Y-89372009D01*
X125493028Y-89273600D01*
X125490600Y-89248947D01*
X125490600Y-87911951D01*
X125601960Y-88023311D01*
X125811114Y-88163063D01*
X126043513Y-88259326D01*
X126290226Y-88308400D01*
X126541774Y-88308400D01*
X126788487Y-88259326D01*
X127020886Y-88163063D01*
X127230040Y-88023311D01*
X127407911Y-87845440D01*
X127547663Y-87636286D01*
X127643926Y-87403887D01*
X127682810Y-87208401D01*
X128951394Y-87208401D01*
X129094926Y-87194264D01*
X129279092Y-87138398D01*
X129287320Y-87134000D01*
X134529006Y-87134000D01*
X134529006Y-87249528D01*
X134558865Y-87399643D01*
X134617437Y-87541048D01*
X134702470Y-87668309D01*
X134810697Y-87776536D01*
X134937958Y-87861569D01*
X135079363Y-87920141D01*
X135229478Y-87950000D01*
X135382534Y-87950000D01*
X135532649Y-87920141D01*
X135674054Y-87861569D01*
X135801315Y-87776536D01*
X135827851Y-87750000D01*
X141323000Y-87750000D01*
X141323000Y-88955424D01*
X141286478Y-89075820D01*
X141261822Y-89326155D01*
X141286478Y-89576490D01*
X141359499Y-89817206D01*
X141478077Y-90039050D01*
X141528077Y-90099975D01*
X141534706Y-90167282D01*
X141576208Y-90304094D01*
X141643603Y-90430182D01*
X141734302Y-90540698D01*
X141844818Y-90631397D01*
X141970906Y-90698792D01*
X142107718Y-90740294D01*
X142249999Y-90754307D01*
X142950001Y-90754307D01*
X143092282Y-90740294D01*
X143229094Y-90698792D01*
X143355182Y-90631397D01*
X143465698Y-90540698D01*
X143556397Y-90430182D01*
X143584097Y-90378358D01*
X143643693Y-90466725D01*
X143816526Y-90638078D01*
X144019467Y-90772421D01*
X144244718Y-90864591D01*
X144282391Y-90868462D01*
X144473000Y-90743731D01*
X144473000Y-89527000D01*
X144727000Y-89527000D01*
X144727000Y-90743731D01*
X144917609Y-90868462D01*
X144955282Y-90864591D01*
X145180533Y-90772421D01*
X145383474Y-90638078D01*
X145556307Y-90466725D01*
X145692390Y-90264946D01*
X145786493Y-90040496D01*
X145835000Y-89802000D01*
X145835000Y-89527000D01*
X144727000Y-89527000D01*
X144473000Y-89527000D01*
X144453000Y-89527000D01*
X144453000Y-89273000D01*
X144473000Y-89273000D01*
X144473000Y-88056269D01*
X144727000Y-88056269D01*
X144727000Y-89273000D01*
X145835000Y-89273000D01*
X145835000Y-88998000D01*
X145786493Y-88759504D01*
X145692390Y-88535054D01*
X145556307Y-88333275D01*
X145383474Y-88161922D01*
X145180533Y-88027579D01*
X144955282Y-87935409D01*
X144917609Y-87931538D01*
X144727000Y-88056269D01*
X144473000Y-88056269D01*
X144282391Y-87931538D01*
X144244718Y-87935409D01*
X144047483Y-88016115D01*
X145700598Y-86363001D01*
X146291275Y-86363001D01*
X146354001Y-86369179D01*
X146416727Y-86363001D01*
X146604337Y-86344523D01*
X146845052Y-86271503D01*
X147066897Y-86152925D01*
X147261345Y-85993345D01*
X147301336Y-85944616D01*
X148174621Y-85071332D01*
X148223345Y-85031345D01*
X148382925Y-84836897D01*
X148501503Y-84615052D01*
X148574523Y-84374337D01*
X148593001Y-84186727D01*
X148593001Y-84186720D01*
X148599178Y-84124002D01*
X148593001Y-84061283D01*
X148593001Y-83089130D01*
X148652673Y-82892418D01*
X148658523Y-82873135D01*
X148683178Y-82622800D01*
X148677000Y-82560072D01*
X148677000Y-67757528D01*
X148683178Y-67694800D01*
X148658523Y-67444464D01*
X148585502Y-67203749D01*
X148576588Y-67187072D01*
X148466924Y-66981904D01*
X148307344Y-66787456D01*
X148258622Y-66747471D01*
X143452535Y-61941385D01*
X143412544Y-61892656D01*
X143218096Y-61733076D01*
X142996251Y-61614498D01*
X142755536Y-61541478D01*
X142567926Y-61523000D01*
X142505200Y-61516822D01*
X142442474Y-61523000D01*
X138882065Y-61523000D01*
X138630698Y-61473000D01*
X138369302Y-61473000D01*
X138112928Y-61523996D01*
X137871430Y-61624028D01*
X137654087Y-61769252D01*
X137469252Y-61954087D01*
X137324028Y-62171430D01*
X137223996Y-62412928D01*
X137173000Y-62669302D01*
X137173000Y-62930698D01*
X137223996Y-63187072D01*
X137324028Y-63428570D01*
X137469252Y-63645913D01*
X137654087Y-63830748D01*
X137871430Y-63975972D01*
X138112928Y-64076004D01*
X138369302Y-64127000D01*
X138630698Y-64127000D01*
X138882065Y-64077000D01*
X141976250Y-64077000D01*
X146123000Y-68223751D01*
X146123000Y-71919025D01*
X146094570Y-71900028D01*
X145853072Y-71799996D01*
X145596698Y-71749000D01*
X145335302Y-71749000D01*
X145078928Y-71799996D01*
X144837430Y-71900028D01*
X144620087Y-72045252D01*
X144435252Y-72230087D01*
X144290028Y-72447430D01*
X144196000Y-72674433D01*
X144101972Y-72447430D01*
X143956748Y-72230087D01*
X143771913Y-72045252D01*
X143554570Y-71900028D01*
X143313072Y-71799996D01*
X143056698Y-71749000D01*
X142795302Y-71749000D01*
X142538928Y-71799996D01*
X142297430Y-71900028D01*
X142080087Y-72045252D01*
X141895252Y-72230087D01*
X141750028Y-72447430D01*
X141656000Y-72674433D01*
X141561972Y-72447430D01*
X141416748Y-72230087D01*
X141231913Y-72045252D01*
X141014570Y-71900028D01*
X140773072Y-71799996D01*
X140516698Y-71749000D01*
X140255302Y-71749000D01*
X139998928Y-71799996D01*
X139757430Y-71900028D01*
X139540087Y-72045252D01*
X139355252Y-72230087D01*
X139210028Y-72447430D01*
X139109996Y-72688928D01*
X139059000Y-72945302D01*
X139059000Y-73206698D01*
X139109996Y-73463072D01*
X139210028Y-73704570D01*
X139355252Y-73921913D01*
X139540087Y-74106748D01*
X139572079Y-74128124D01*
X139536000Y-74127928D01*
X139411518Y-74140188D01*
X139291820Y-74176498D01*
X139181506Y-74235463D01*
X139084815Y-74314815D01*
X139005463Y-74411506D01*
X138946498Y-74521820D01*
X138910188Y-74641518D01*
X138897928Y-74766000D01*
X138901000Y-75330250D01*
X139059750Y-75489000D01*
X140259000Y-75489000D01*
X140259000Y-75469000D01*
X140513000Y-75469000D01*
X140513000Y-75489000D01*
X140533000Y-75489000D01*
X140533000Y-75743000D01*
X140513000Y-75743000D01*
X140513000Y-75763000D01*
X140259000Y-75763000D01*
X140259000Y-75743000D01*
X139059750Y-75743000D01*
X138901000Y-75901750D01*
X138897928Y-76466000D01*
X138910188Y-76590482D01*
X138919203Y-76620200D01*
X131340790Y-76620200D01*
X131292799Y-76615473D01*
X131244809Y-76620200D01*
X131244807Y-76620200D01*
X131101275Y-76634337D01*
X130917109Y-76690203D01*
X130747382Y-76780924D01*
X130598614Y-76903014D01*
X130568020Y-76940293D01*
X129933000Y-77575313D01*
X129933000Y-68654528D01*
X135273000Y-68654528D01*
X135273000Y-68945472D01*
X135329760Y-69230825D01*
X135441099Y-69499622D01*
X135602739Y-69741533D01*
X135808467Y-69947261D01*
X136050378Y-70108901D01*
X136319175Y-70220240D01*
X136604528Y-70277000D01*
X136895472Y-70277000D01*
X137180825Y-70220240D01*
X137449622Y-70108901D01*
X137691533Y-69947261D01*
X137897261Y-69741533D01*
X138058901Y-69499622D01*
X138170240Y-69230825D01*
X138227000Y-68945472D01*
X138227000Y-68654528D01*
X141273000Y-68654528D01*
X141273000Y-68945472D01*
X141329760Y-69230825D01*
X141441099Y-69499622D01*
X141602739Y-69741533D01*
X141808467Y-69947261D01*
X142050378Y-70108901D01*
X142319175Y-70220240D01*
X142604528Y-70277000D01*
X142895472Y-70277000D01*
X143180825Y-70220240D01*
X143449622Y-70108901D01*
X143691533Y-69947261D01*
X143897261Y-69741533D01*
X144058901Y-69499622D01*
X144170240Y-69230825D01*
X144227000Y-68945472D01*
X144227000Y-68654528D01*
X144170240Y-68369175D01*
X144058901Y-68100378D01*
X143897261Y-67858467D01*
X143691533Y-67652739D01*
X143449622Y-67491099D01*
X143180825Y-67379760D01*
X142895472Y-67323000D01*
X142604528Y-67323000D01*
X142319175Y-67379760D01*
X142050378Y-67491099D01*
X141808467Y-67652739D01*
X141602739Y-67858467D01*
X141441099Y-68100378D01*
X141329760Y-68369175D01*
X141273000Y-68654528D01*
X138227000Y-68654528D01*
X138170240Y-68369175D01*
X138058901Y-68100378D01*
X138015707Y-68035734D01*
X138112928Y-68076004D01*
X138369302Y-68127000D01*
X138630698Y-68127000D01*
X138887072Y-68076004D01*
X139128570Y-67975972D01*
X139345913Y-67830748D01*
X139530748Y-67645913D01*
X139675972Y-67428570D01*
X139776004Y-67187072D01*
X139827000Y-66930698D01*
X139827000Y-66669302D01*
X139776004Y-66412928D01*
X139675972Y-66171430D01*
X139530748Y-65954087D01*
X139345913Y-65769252D01*
X139128570Y-65624028D01*
X138887072Y-65523996D01*
X138630698Y-65473000D01*
X138369302Y-65473000D01*
X138112928Y-65523996D01*
X137871430Y-65624028D01*
X137654087Y-65769252D01*
X137469252Y-65954087D01*
X137324028Y-66171430D01*
X137223996Y-66412928D01*
X137173000Y-66669302D01*
X137173000Y-66930698D01*
X137223996Y-67187072D01*
X137324028Y-67428570D01*
X137333735Y-67443097D01*
X137180825Y-67379760D01*
X136895472Y-67323000D01*
X136604528Y-67323000D01*
X136319175Y-67379760D01*
X136050378Y-67491099D01*
X135808467Y-67652739D01*
X135602739Y-67858467D01*
X135441099Y-68100378D01*
X135329760Y-68369175D01*
X135273000Y-68654528D01*
X129933000Y-68654528D01*
X129933000Y-68297990D01*
X129937727Y-68249999D01*
X129933000Y-68202007D01*
X129933000Y-56654528D01*
X135273000Y-56654528D01*
X135273000Y-56945472D01*
X135329760Y-57230825D01*
X135441099Y-57499622D01*
X135602739Y-57741533D01*
X135808467Y-57947261D01*
X136050378Y-58108901D01*
X136319175Y-58220240D01*
X136604528Y-58277000D01*
X136895472Y-58277000D01*
X137180825Y-58220240D01*
X137333735Y-58156903D01*
X137324028Y-58171430D01*
X137223996Y-58412928D01*
X137173000Y-58669302D01*
X137173000Y-58930698D01*
X137223996Y-59187072D01*
X137324028Y-59428570D01*
X137469252Y-59645913D01*
X137654087Y-59830748D01*
X137871430Y-59975972D01*
X138112928Y-60076004D01*
X138369302Y-60127000D01*
X138630698Y-60127000D01*
X138887072Y-60076004D01*
X139128570Y-59975972D01*
X139345913Y-59830748D01*
X139530748Y-59645913D01*
X139675972Y-59428570D01*
X139776004Y-59187072D01*
X139827000Y-58930698D01*
X139827000Y-58669302D01*
X139776004Y-58412928D01*
X139675972Y-58171430D01*
X139530748Y-57954087D01*
X139345913Y-57769252D01*
X139128570Y-57624028D01*
X138887072Y-57523996D01*
X138630698Y-57473000D01*
X138369302Y-57473000D01*
X138112928Y-57523996D01*
X138015707Y-57564266D01*
X138058901Y-57499622D01*
X138170240Y-57230825D01*
X138227000Y-56945472D01*
X138227000Y-56654528D01*
X141273000Y-56654528D01*
X141273000Y-56945472D01*
X141329760Y-57230825D01*
X141441099Y-57499622D01*
X141602739Y-57741533D01*
X141808467Y-57947261D01*
X142050378Y-58108901D01*
X142319175Y-58220240D01*
X142604528Y-58277000D01*
X142895472Y-58277000D01*
X143180825Y-58220240D01*
X143449622Y-58108901D01*
X143691533Y-57947261D01*
X143897261Y-57741533D01*
X144058901Y-57499622D01*
X144170240Y-57230825D01*
X144227000Y-56945472D01*
X144227000Y-56654528D01*
X144170240Y-56369175D01*
X144058901Y-56100378D01*
X143897261Y-55858467D01*
X143691533Y-55652739D01*
X143449622Y-55491099D01*
X143180825Y-55379760D01*
X142895472Y-55323000D01*
X142604528Y-55323000D01*
X142319175Y-55379760D01*
X142050378Y-55491099D01*
X141808467Y-55652739D01*
X141602739Y-55858467D01*
X141441099Y-56100378D01*
X141329760Y-56369175D01*
X141273000Y-56654528D01*
X138227000Y-56654528D01*
X138170240Y-56369175D01*
X138058901Y-56100378D01*
X137897261Y-55858467D01*
X137691533Y-55652739D01*
X137449622Y-55491099D01*
X137180825Y-55379760D01*
X136895472Y-55323000D01*
X136604528Y-55323000D01*
X136319175Y-55379760D01*
X136050378Y-55491099D01*
X135808467Y-55652739D01*
X135602739Y-55858467D01*
X135441099Y-56100378D01*
X135329760Y-56369175D01*
X135273000Y-56654528D01*
X129933000Y-56654528D01*
X129933000Y-55814180D01*
X129999833Y-55689144D01*
X130000000Y-55688593D01*
X130000167Y-55689143D01*
X130100174Y-55876244D01*
X130234761Y-56040239D01*
X130398756Y-56174826D01*
X130585856Y-56274833D01*
X130788871Y-56336417D01*
X131000000Y-56357211D01*
X131211128Y-56336417D01*
X131414143Y-56274833D01*
X131601244Y-56174826D01*
X131765239Y-56040239D01*
X131899826Y-55876244D01*
X131943164Y-55795164D01*
X131976208Y-55904094D01*
X132043603Y-56030182D01*
X132134302Y-56140698D01*
X132244818Y-56231397D01*
X132370906Y-56298792D01*
X132507718Y-56340294D01*
X132649999Y-56354307D01*
X133350001Y-56354307D01*
X133492282Y-56340294D01*
X133629094Y-56298792D01*
X133755182Y-56231397D01*
X133865698Y-56140698D01*
X133956397Y-56030182D01*
X134023792Y-55904094D01*
X134065294Y-55767282D01*
X134079307Y-55625001D01*
X134079307Y-54374999D01*
X134065294Y-54232718D01*
X134023792Y-54095906D01*
X133956397Y-53969818D01*
X133865698Y-53859302D01*
X133755182Y-53768603D01*
X133629094Y-53701208D01*
X133492282Y-53659706D01*
X133350001Y-53645693D01*
X132649999Y-53645693D01*
X132507718Y-53659706D01*
X132370906Y-53701208D01*
X132244818Y-53768603D01*
X132134302Y-53859302D01*
X132043603Y-53969818D01*
X131976208Y-54095906D01*
X131943164Y-54204836D01*
X131899826Y-54123756D01*
X131765239Y-53959761D01*
X131601244Y-53825174D01*
X131414144Y-53725167D01*
X131211129Y-53663583D01*
X131000000Y-53642789D01*
X130788872Y-53663583D01*
X130585857Y-53725167D01*
X130398757Y-53825174D01*
X130234762Y-53959761D01*
X130100175Y-54123756D01*
X130000168Y-54310856D01*
X130000000Y-54311409D01*
X129999833Y-54310857D01*
X129899826Y-54123756D01*
X129765239Y-53959761D01*
X129601244Y-53825174D01*
X129414144Y-53725167D01*
X129211129Y-53663583D01*
X129000000Y-53642789D01*
X128788872Y-53663583D01*
X128585857Y-53725167D01*
X128398757Y-53825174D01*
X128234762Y-53959761D01*
X128100175Y-54123756D01*
X128093158Y-54136885D01*
X128092390Y-54135054D01*
X127956307Y-53933275D01*
X127783474Y-53761922D01*
X127580533Y-53627579D01*
X127355282Y-53535409D01*
X127317609Y-53531538D01*
X127127000Y-53656269D01*
X127127000Y-54873000D01*
X127147000Y-54873000D01*
X127147000Y-55127000D01*
X127127000Y-55127000D01*
X127127000Y-56343731D01*
X127317609Y-56468462D01*
X127355282Y-56464591D01*
X127580533Y-56372421D01*
X127783474Y-56238078D01*
X127956307Y-56066725D01*
X127979001Y-56033075D01*
X127979000Y-64005392D01*
X127979001Y-64005402D01*
X127979001Y-65891314D01*
X126378784Y-64291098D01*
X126348186Y-64253814D01*
X126199418Y-64131724D01*
X126029691Y-64041003D01*
X125845525Y-63985137D01*
X125701993Y-63971000D01*
X125654000Y-63966273D01*
X125606007Y-63971000D01*
X118585847Y-63971000D01*
X118688336Y-63868511D01*
X118773369Y-63741250D01*
X118831941Y-63599845D01*
X118861800Y-63449730D01*
X118861800Y-63296674D01*
X118831941Y-63146559D01*
X118773369Y-63005154D01*
X118688336Y-62877893D01*
X118580109Y-62769666D01*
X118484000Y-62705448D01*
X118484000Y-57332001D01*
X119483158Y-56332844D01*
X119507718Y-56340294D01*
X119649999Y-56354307D01*
X120350001Y-56354307D01*
X120492282Y-56340294D01*
X120629094Y-56298792D01*
X120755182Y-56231397D01*
X120865698Y-56140698D01*
X120956397Y-56030182D01*
X121023792Y-55904094D01*
X121065294Y-55767282D01*
X121079307Y-55625001D01*
X121079307Y-55127000D01*
X125765000Y-55127000D01*
X125765000Y-55402000D01*
X125813507Y-55640496D01*
X125907610Y-55864946D01*
X126043693Y-56066725D01*
X126216526Y-56238078D01*
X126419467Y-56372421D01*
X126644718Y-56464591D01*
X126682391Y-56468462D01*
X126873000Y-56343731D01*
X126873000Y-55127000D01*
X125765000Y-55127000D01*
X121079307Y-55127000D01*
X121079307Y-54598000D01*
X125765000Y-54598000D01*
X125765000Y-54873000D01*
X126873000Y-54873000D01*
X126873000Y-53656269D01*
X126682391Y-53531538D01*
X126644718Y-53535409D01*
X126419467Y-53627579D01*
X126216526Y-53761922D01*
X126043693Y-53933275D01*
X125907610Y-54135054D01*
X125813507Y-54359504D01*
X125765000Y-54598000D01*
X121079307Y-54598000D01*
X121079307Y-54374999D01*
X121065294Y-54232718D01*
X121023792Y-54095906D01*
X120956397Y-53969818D01*
X120865698Y-53859302D01*
X120755182Y-53768603D01*
X120629094Y-53701208D01*
X120492282Y-53659706D01*
X120350001Y-53645693D01*
X119649999Y-53645693D01*
X119507718Y-53659706D01*
X119370906Y-53701208D01*
X119244818Y-53768603D01*
X119134302Y-53859302D01*
X119043603Y-53969818D01*
X118976208Y-54095906D01*
X118943164Y-54204836D01*
X118899826Y-54123756D01*
X118765239Y-53959761D01*
X118601244Y-53825174D01*
X118414144Y-53725167D01*
X118211129Y-53663583D01*
X118000000Y-53642789D01*
X117788872Y-53663583D01*
X117585857Y-53725167D01*
X117398757Y-53825174D01*
X117234762Y-53959761D01*
X117100175Y-54123756D01*
X117000168Y-54310856D01*
X117000000Y-54311409D01*
X116999833Y-54310857D01*
X116899826Y-54123756D01*
X116765239Y-53959761D01*
X116601244Y-53825174D01*
X116414144Y-53725167D01*
X116211129Y-53663583D01*
X116000000Y-53642789D01*
X115788872Y-53663583D01*
X115585857Y-53725167D01*
X115398757Y-53825174D01*
X115234762Y-53959761D01*
X115100175Y-54123756D01*
X115093158Y-54136885D01*
X115092390Y-54135054D01*
X114956307Y-53933275D01*
X114783474Y-53761922D01*
X114580533Y-53627579D01*
X114355282Y-53535409D01*
X114317609Y-53531538D01*
X114127000Y-53656269D01*
X114127000Y-54873000D01*
X114147000Y-54873000D01*
X114147000Y-55127000D01*
X114127000Y-55127000D01*
X114127000Y-56343731D01*
X114317609Y-56468462D01*
X114355282Y-56464591D01*
X114580533Y-56372421D01*
X114783474Y-56238078D01*
X114956307Y-56066725D01*
X115092390Y-55864946D01*
X115093157Y-55863116D01*
X115100174Y-55876244D01*
X115234761Y-56040239D01*
X115279000Y-56076545D01*
X115279001Y-63375997D01*
X115274273Y-63424000D01*
X115293137Y-63615525D01*
X115349003Y-63799690D01*
X115349004Y-63799691D01*
X115439725Y-63969418D01*
X115561815Y-64118186D01*
X115599093Y-64148779D01*
X117055220Y-65604907D01*
X117085814Y-65642186D01*
X117234582Y-65764276D01*
X117404309Y-65854997D01*
X117588475Y-65910863D01*
X117732007Y-65925000D01*
X117732016Y-65925000D01*
X117779999Y-65929726D01*
X117827982Y-65925000D01*
X125249314Y-65925000D01*
X127979000Y-68654687D01*
X127979000Y-69313992D01*
X127979001Y-69314002D01*
X127979000Y-74299194D01*
X127979001Y-74299204D01*
X127979000Y-78727387D01*
X127861843Y-78678859D01*
X127711728Y-78649000D01*
X127664552Y-78649000D01*
X127652515Y-78639121D01*
X127552276Y-78585543D01*
X127488170Y-78566097D01*
X127443511Y-78552549D01*
X127388445Y-78547126D01*
X127358736Y-78544200D01*
X127358731Y-78544200D01*
X127330400Y-78541410D01*
X127302069Y-78544200D01*
X126528706Y-78544200D01*
X126553541Y-78484243D01*
X126583400Y-78334128D01*
X126583400Y-78181072D01*
X126553541Y-78030957D01*
X126494969Y-77889552D01*
X126409936Y-77762291D01*
X126301709Y-77654064D01*
X126174448Y-77569031D01*
X126033043Y-77510459D01*
X125882928Y-77480600D01*
X125845401Y-77480600D01*
X125705037Y-77340236D01*
X125686974Y-77318226D01*
X125599115Y-77246121D01*
X125498876Y-77192543D01*
X125434770Y-77173097D01*
X125390111Y-77159549D01*
X125335045Y-77154126D01*
X125305336Y-77151200D01*
X125305331Y-77151200D01*
X125277000Y-77148410D01*
X125274528Y-77148653D01*
X125271534Y-77118258D01*
X125230743Y-76983790D01*
X125164503Y-76859863D01*
X125075359Y-76751241D01*
X124966737Y-76662097D01*
X124957949Y-76657400D01*
X124966737Y-76652703D01*
X125075359Y-76563559D01*
X125164503Y-76454937D01*
X125230743Y-76331010D01*
X125271534Y-76196542D01*
X125285307Y-76056700D01*
X125285307Y-75581700D01*
X125271534Y-75441858D01*
X125230743Y-75307390D01*
X125164503Y-75183463D01*
X125075359Y-75074841D01*
X124966737Y-74985697D01*
X124842810Y-74919457D01*
X124708342Y-74878666D01*
X124568500Y-74864893D01*
X123993500Y-74864893D01*
X123853658Y-74878666D01*
X123719190Y-74919457D01*
X123595263Y-74985697D01*
X123486641Y-75074841D01*
X123406000Y-75173102D01*
X123325359Y-75074841D01*
X123216737Y-74985697D01*
X123092810Y-74919457D01*
X122958342Y-74878666D01*
X122818500Y-74864893D01*
X122243500Y-74864893D01*
X122103658Y-74878666D01*
X121969190Y-74919457D01*
X121845263Y-74985697D01*
X121736641Y-75074841D01*
X121647497Y-75183463D01*
X121581257Y-75307390D01*
X121552800Y-75401199D01*
X120619560Y-75401199D01*
X120572792Y-75387012D01*
X120541829Y-75329084D01*
X120469724Y-75241225D01*
X120447712Y-75223160D01*
X120169751Y-74945199D01*
X120169751Y-71107079D01*
X120172541Y-71078750D01*
X120169751Y-71050421D01*
X120169751Y-71050415D01*
X120161401Y-70965639D01*
X120128408Y-70856875D01*
X120074830Y-70756636D01*
X120002725Y-70668777D01*
X119980713Y-70650712D01*
X118919239Y-69589238D01*
X118901174Y-69567226D01*
X118813315Y-69495121D01*
X118713076Y-69441543D01*
X118648970Y-69422097D01*
X118604311Y-69408549D01*
X118549245Y-69403126D01*
X118519536Y-69400200D01*
X118519531Y-69400200D01*
X118491200Y-69397410D01*
X118462869Y-69400200D01*
X112942445Y-69400200D01*
X112915909Y-69373664D01*
X112788648Y-69288631D01*
X112647243Y-69230059D01*
X112497128Y-69200200D01*
X112344072Y-69200200D01*
X112193957Y-69230059D01*
X112052552Y-69288631D01*
X111925291Y-69373664D01*
X111817064Y-69481891D01*
X111732031Y-69609152D01*
X111673459Y-69750557D01*
X111643600Y-69900672D01*
X100502000Y-69900672D01*
X100502000Y-60504231D01*
X100524653Y-60502000D01*
X100598409Y-60494736D01*
X100693036Y-60466031D01*
X100780245Y-60419417D01*
X100856684Y-60356684D01*
X100919417Y-60280245D01*
X100966031Y-60193036D01*
X100994736Y-60098409D01*
X101004428Y-60000000D01*
X101002000Y-59975347D01*
X101002000Y-53024550D01*
X101009757Y-52945433D01*
X101073000Y-52945433D01*
X101073000Y-53354567D01*
X101152818Y-53755839D01*
X101309386Y-54133829D01*
X101536689Y-54474011D01*
X101825989Y-54763311D01*
X102166171Y-54990614D01*
X102544161Y-55147182D01*
X102945433Y-55227000D01*
X103354567Y-55227000D01*
X103755839Y-55147182D01*
X103804562Y-55127000D01*
X112765000Y-55127000D01*
X112765000Y-55402000D01*
X112813507Y-55640496D01*
X112907610Y-55864946D01*
X113043693Y-56066725D01*
X113216526Y-56238078D01*
X113419467Y-56372421D01*
X113644718Y-56464591D01*
X113682391Y-56468462D01*
X113873000Y-56343731D01*
X113873000Y-55127000D01*
X112765000Y-55127000D01*
X103804562Y-55127000D01*
X104133829Y-54990614D01*
X104474011Y-54763311D01*
X104763311Y-54474011D01*
X104990614Y-54133829D01*
X105017447Y-54069048D01*
X105075064Y-54155279D01*
X105294721Y-54374936D01*
X105553011Y-54547519D01*
X105840006Y-54666396D01*
X106144679Y-54727000D01*
X106455321Y-54727000D01*
X106759994Y-54666396D01*
X106925116Y-54598000D01*
X112765000Y-54598000D01*
X112765000Y-54873000D01*
X113873000Y-54873000D01*
X113873000Y-53656269D01*
X113682391Y-53531538D01*
X113644718Y-53535409D01*
X113419467Y-53627579D01*
X113216526Y-53761922D01*
X113043693Y-53933275D01*
X112907610Y-54135054D01*
X112813507Y-54359504D01*
X112765000Y-54598000D01*
X106925116Y-54598000D01*
X107046989Y-54547519D01*
X107305279Y-54374936D01*
X107524936Y-54155279D01*
X107697519Y-53896989D01*
X107816396Y-53609994D01*
X107877000Y-53305321D01*
X107877000Y-52994679D01*
X142123000Y-52994679D01*
X142123000Y-53305321D01*
X142183604Y-53609994D01*
X142302481Y-53896989D01*
X142475064Y-54155279D01*
X142694721Y-54374936D01*
X142953011Y-54547519D01*
X143240006Y-54666396D01*
X143544679Y-54727000D01*
X143855321Y-54727000D01*
X144159994Y-54666396D01*
X144446989Y-54547519D01*
X144705279Y-54374936D01*
X144924936Y-54155279D01*
X144982553Y-54069048D01*
X145009386Y-54133829D01*
X145236689Y-54474011D01*
X145525989Y-54763311D01*
X145866171Y-54990614D01*
X146244161Y-55147182D01*
X146645433Y-55227000D01*
X147054567Y-55227000D01*
X147455839Y-55147182D01*
X147833829Y-54990614D01*
X148174011Y-54763311D01*
X148463311Y-54474011D01*
X148690614Y-54133829D01*
X148847182Y-53755839D01*
X148927000Y-53354567D01*
X148927000Y-52945433D01*
X148847182Y-52544161D01*
X148690614Y-52166171D01*
X148463311Y-51825989D01*
X148174011Y-51536689D01*
X147833829Y-51309386D01*
X147455839Y-51152818D01*
X147054567Y-51073000D01*
X146645433Y-51073000D01*
X146244161Y-51152818D01*
X145866171Y-51309386D01*
X145525989Y-51536689D01*
X145236689Y-51825989D01*
X145009386Y-52166171D01*
X144982553Y-52230952D01*
X144924936Y-52144721D01*
X144705279Y-51925064D01*
X144446989Y-51752481D01*
X144159994Y-51633604D01*
X143855321Y-51573000D01*
X143544679Y-51573000D01*
X143240006Y-51633604D01*
X142953011Y-51752481D01*
X142694721Y-51925064D01*
X142475064Y-52144721D01*
X142302481Y-52403011D01*
X142183604Y-52690006D01*
X142123000Y-52994679D01*
X107877000Y-52994679D01*
X107816396Y-52690006D01*
X107697519Y-52403011D01*
X107524936Y-52144721D01*
X107305279Y-51925064D01*
X107046989Y-51752481D01*
X106759994Y-51633604D01*
X106455321Y-51573000D01*
X106144679Y-51573000D01*
X105840006Y-51633604D01*
X105553011Y-51752481D01*
X105294721Y-51925064D01*
X105075064Y-52144721D01*
X105017447Y-52230952D01*
X104990614Y-52166171D01*
X104763311Y-51825989D01*
X104474011Y-51536689D01*
X104133829Y-51309386D01*
X103755839Y-51152818D01*
X103354567Y-51073000D01*
X102945433Y-51073000D01*
X102544161Y-51152818D01*
X102166171Y-51309386D01*
X101825989Y-51536689D01*
X101536689Y-51825989D01*
X101309386Y-52166171D01*
X101152818Y-52544161D01*
X101073000Y-52945433D01*
X101009757Y-52945433D01*
X101042413Y-52612387D01*
X101154982Y-52239541D01*
X101337830Y-51895653D01*
X101583987Y-51593835D01*
X101884081Y-51345577D01*
X102226677Y-51160337D01*
X102598731Y-51045167D01*
X103009436Y-51002000D01*
X109975347Y-51002000D01*
X110000000Y-51004428D01*
X110024653Y-51002000D01*
X110098409Y-50994736D01*
X110193036Y-50966031D01*
X110280245Y-50919417D01*
X110356684Y-50856684D01*
X110419417Y-50780245D01*
X110466031Y-50693036D01*
X110494736Y-50598409D01*
X110504231Y-50502000D01*
X139495769Y-50502000D01*
X139505264Y-50598409D01*
G36*
X144290028Y-76244570D02*
G01*
X144435252Y-76461913D01*
X144620087Y-76646748D01*
X144837430Y-76791972D01*
X144889000Y-76813333D01*
X144889001Y-78323398D01*
X144256998Y-78955401D01*
X136650336Y-78955401D01*
X136622005Y-78952611D01*
X136593674Y-78955401D01*
X136593669Y-78955401D01*
X136566891Y-78958038D01*
X136508893Y-78963750D01*
X136444787Y-78983197D01*
X136400129Y-78996744D01*
X136299890Y-79050322D01*
X136258503Y-79084288D01*
X136234040Y-79104364D01*
X136234038Y-79104366D01*
X136212031Y-79122427D01*
X136193970Y-79144434D01*
X135267005Y-80071400D01*
X135229478Y-80071400D01*
X135079363Y-80101259D01*
X134937958Y-80159831D01*
X134810697Y-80244864D01*
X134702470Y-80353091D01*
X134617437Y-80480352D01*
X134558865Y-80621757D01*
X134529006Y-80771872D01*
X134529006Y-80924928D01*
X134558865Y-81075043D01*
X134617437Y-81216448D01*
X134702470Y-81343709D01*
X134810697Y-81451936D01*
X134937958Y-81536969D01*
X135079363Y-81595541D01*
X135229478Y-81625400D01*
X135382534Y-81625400D01*
X135532649Y-81595541D01*
X135674054Y-81536969D01*
X135801315Y-81451936D01*
X135909542Y-81343709D01*
X135994575Y-81216448D01*
X136053147Y-81075043D01*
X136083006Y-80924928D01*
X136083006Y-80887401D01*
X136861007Y-80109401D01*
X139192643Y-80109401D01*
X139109996Y-80308928D01*
X139059000Y-80565302D01*
X139059000Y-80826698D01*
X139109996Y-81083072D01*
X139210028Y-81324570D01*
X139355252Y-81541913D01*
X139540087Y-81726748D01*
X139572079Y-81748124D01*
X139536000Y-81747928D01*
X139411518Y-81760188D01*
X139291820Y-81796498D01*
X139181506Y-81855463D01*
X139084815Y-81934815D01*
X139005463Y-82031506D01*
X138946498Y-82141820D01*
X138910188Y-82261518D01*
X138897928Y-82386000D01*
X138901000Y-82950250D01*
X139059750Y-83109000D01*
X140259000Y-83109000D01*
X140259000Y-83089000D01*
X140513000Y-83089000D01*
X140513000Y-83109000D01*
X140533000Y-83109000D01*
X140533000Y-83363000D01*
X140513000Y-83363000D01*
X140513000Y-84562250D01*
X140671750Y-84721000D01*
X141047866Y-84723048D01*
X140590914Y-85180000D01*
X129650215Y-85180000D01*
X129746876Y-85062218D01*
X129837597Y-84892491D01*
X129889618Y-84721000D01*
X129893463Y-84708326D01*
X129912327Y-84516800D01*
X129907600Y-84468807D01*
X129907600Y-84086000D01*
X138897928Y-84086000D01*
X138910188Y-84210482D01*
X138946498Y-84330180D01*
X139005463Y-84440494D01*
X139084815Y-84537185D01*
X139181506Y-84616537D01*
X139291820Y-84675502D01*
X139411518Y-84711812D01*
X139536000Y-84724072D01*
X140100250Y-84721000D01*
X140259000Y-84562250D01*
X140259000Y-83363000D01*
X139059750Y-83363000D01*
X138901000Y-83521750D01*
X138897928Y-84086000D01*
X129907600Y-84086000D01*
X129907600Y-82575654D01*
X129918863Y-82538525D01*
X129919065Y-82536475D01*
X129937727Y-82347001D01*
X129933000Y-82299008D01*
X129933000Y-80338686D01*
X131697487Y-78574200D01*
X141303207Y-78574200D01*
X141351200Y-78578927D01*
X141542725Y-78560063D01*
X141604216Y-78541410D01*
X141726891Y-78504197D01*
X141896618Y-78413476D01*
X142045386Y-78291386D01*
X142075984Y-78254102D01*
X143526478Y-76803608D01*
X143554570Y-76791972D01*
X143771913Y-76646748D01*
X143956748Y-76461913D01*
X144101972Y-76244570D01*
X144196000Y-76017567D01*
X144290028Y-76244570D01*
G37*
X144290028Y-76244570D02*
X144435252Y-76461913D01*
X144620087Y-76646748D01*
X144837430Y-76791972D01*
X144889000Y-76813333D01*
X144889001Y-78323398D01*
X144256998Y-78955401D01*
X136650336Y-78955401D01*
X136622005Y-78952611D01*
X136593674Y-78955401D01*
X136593669Y-78955401D01*
X136566891Y-78958038D01*
X136508893Y-78963750D01*
X136444787Y-78983197D01*
X136400129Y-78996744D01*
X136299890Y-79050322D01*
X136258503Y-79084288D01*
X136234040Y-79104364D01*
X136234038Y-79104366D01*
X136212031Y-79122427D01*
X136193970Y-79144434D01*
X135267005Y-80071400D01*
X135229478Y-80071400D01*
X135079363Y-80101259D01*
X134937958Y-80159831D01*
X134810697Y-80244864D01*
X134702470Y-80353091D01*
X134617437Y-80480352D01*
X134558865Y-80621757D01*
X134529006Y-80771872D01*
X134529006Y-80924928D01*
X134558865Y-81075043D01*
X134617437Y-81216448D01*
X134702470Y-81343709D01*
X134810697Y-81451936D01*
X134937958Y-81536969D01*
X135079363Y-81595541D01*
X135229478Y-81625400D01*
X135382534Y-81625400D01*
X135532649Y-81595541D01*
X135674054Y-81536969D01*
X135801315Y-81451936D01*
X135909542Y-81343709D01*
X135994575Y-81216448D01*
X136053147Y-81075043D01*
X136083006Y-80924928D01*
X136083006Y-80887401D01*
X136861007Y-80109401D01*
X139192643Y-80109401D01*
X139109996Y-80308928D01*
X139059000Y-80565302D01*
X139059000Y-80826698D01*
X139109996Y-81083072D01*
X139210028Y-81324570D01*
X139355252Y-81541913D01*
X139540087Y-81726748D01*
X139572079Y-81748124D01*
X139536000Y-81747928D01*
X139411518Y-81760188D01*
X139291820Y-81796498D01*
X139181506Y-81855463D01*
X139084815Y-81934815D01*
X139005463Y-82031506D01*
X138946498Y-82141820D01*
X138910188Y-82261518D01*
X138897928Y-82386000D01*
X138901000Y-82950250D01*
X139059750Y-83109000D01*
X140259000Y-83109000D01*
X140259000Y-83089000D01*
X140513000Y-83089000D01*
X140513000Y-83109000D01*
X140533000Y-83109000D01*
X140533000Y-83363000D01*
X140513000Y-83363000D01*
X140513000Y-84562250D01*
X140671750Y-84721000D01*
X141047866Y-84723048D01*
X140590914Y-85180000D01*
X129650215Y-85180000D01*
X129746876Y-85062218D01*
X129837597Y-84892491D01*
X129889618Y-84721000D01*
X129893463Y-84708326D01*
X129912327Y-84516800D01*
X129907600Y-84468807D01*
X129907600Y-84086000D01*
X138897928Y-84086000D01*
X138910188Y-84210482D01*
X138946498Y-84330180D01*
X139005463Y-84440494D01*
X139084815Y-84537185D01*
X139181506Y-84616537D01*
X139291820Y-84675502D01*
X139411518Y-84711812D01*
X139536000Y-84724072D01*
X140100250Y-84721000D01*
X140259000Y-84562250D01*
X140259000Y-83363000D01*
X139059750Y-83363000D01*
X138901000Y-83521750D01*
X138897928Y-84086000D01*
X129907600Y-84086000D01*
X129907600Y-82575654D01*
X129918863Y-82538525D01*
X129919065Y-82536475D01*
X129937727Y-82347001D01*
X129933000Y-82299008D01*
X129933000Y-80338686D01*
X131697487Y-78574200D01*
X141303207Y-78574200D01*
X141351200Y-78578927D01*
X141542725Y-78560063D01*
X141604216Y-78541410D01*
X141726891Y-78504197D01*
X141896618Y-78413476D01*
X142045386Y-78291386D01*
X142075984Y-78254102D01*
X143526478Y-76803608D01*
X143554570Y-76791972D01*
X143771913Y-76646748D01*
X143956748Y-76461913D01*
X144101972Y-76244570D01*
X144196000Y-76017567D01*
X144290028Y-76244570D01*
G36*
X127979000Y-82143746D02*
G01*
X127967737Y-82180875D01*
X127948873Y-82372400D01*
X127953600Y-82420393D01*
X127953601Y-84112112D01*
X127823776Y-84241937D01*
X127814787Y-84181270D01*
X127719603Y-83915108D01*
X127652671Y-83789886D01*
X127408702Y-83718303D01*
X126595605Y-84531400D01*
X126609748Y-84545543D01*
X126430143Y-84725148D01*
X126416000Y-84711005D01*
X126401858Y-84725148D01*
X126222253Y-84545543D01*
X126236395Y-84531400D01*
X126222253Y-84517258D01*
X126401858Y-84337653D01*
X126416000Y-84351795D01*
X127229097Y-83538698D01*
X127157514Y-83294729D01*
X126902004Y-83173829D01*
X126627816Y-83105100D01*
X126345488Y-83091183D01*
X126065870Y-83132613D01*
X125799708Y-83227797D01*
X125674486Y-83294729D01*
X125602903Y-83538696D01*
X125490600Y-83426393D01*
X125490600Y-81798253D01*
X125493028Y-81773600D01*
X125483336Y-81675191D01*
X125454631Y-81580564D01*
X125408017Y-81493355D01*
X125345284Y-81416916D01*
X125268845Y-81354183D01*
X125181636Y-81307569D01*
X125140330Y-81295039D01*
X125151903Y-81280937D01*
X125183298Y-81222200D01*
X125717669Y-81222200D01*
X125746000Y-81224990D01*
X125774331Y-81222200D01*
X125774336Y-81222200D01*
X125804045Y-81219274D01*
X125859111Y-81213851D01*
X125903770Y-81200303D01*
X125967876Y-81180857D01*
X126068115Y-81127279D01*
X126155974Y-81055174D01*
X126174039Y-81033162D01*
X126709001Y-80498200D01*
X126746528Y-80498200D01*
X126896643Y-80468341D01*
X127038048Y-80409769D01*
X127165309Y-80324736D01*
X127273536Y-80216509D01*
X127325501Y-80138738D01*
X127408557Y-80173141D01*
X127558672Y-80203000D01*
X127711728Y-80203000D01*
X127861843Y-80173141D01*
X127979000Y-80124613D01*
X127979000Y-82143746D01*
G37*
X127979000Y-82143746D02*
X127967737Y-82180875D01*
X127948873Y-82372400D01*
X127953600Y-82420393D01*
X127953601Y-84112112D01*
X127823776Y-84241937D01*
X127814787Y-84181270D01*
X127719603Y-83915108D01*
X127652671Y-83789886D01*
X127408702Y-83718303D01*
X126595605Y-84531400D01*
X126609748Y-84545543D01*
X126430143Y-84725148D01*
X126416000Y-84711005D01*
X126401858Y-84725148D01*
X126222253Y-84545543D01*
X126236395Y-84531400D01*
X126222253Y-84517258D01*
X126401858Y-84337653D01*
X126416000Y-84351795D01*
X127229097Y-83538698D01*
X127157514Y-83294729D01*
X126902004Y-83173829D01*
X126627816Y-83105100D01*
X126345488Y-83091183D01*
X126065870Y-83132613D01*
X125799708Y-83227797D01*
X125674486Y-83294729D01*
X125602903Y-83538696D01*
X125490600Y-83426393D01*
X125490600Y-81798253D01*
X125493028Y-81773600D01*
X125483336Y-81675191D01*
X125454631Y-81580564D01*
X125408017Y-81493355D01*
X125345284Y-81416916D01*
X125268845Y-81354183D01*
X125181636Y-81307569D01*
X125140330Y-81295039D01*
X125151903Y-81280937D01*
X125183298Y-81222200D01*
X125717669Y-81222200D01*
X125746000Y-81224990D01*
X125774331Y-81222200D01*
X125774336Y-81222200D01*
X125804045Y-81219274D01*
X125859111Y-81213851D01*
X125903770Y-81200303D01*
X125967876Y-81180857D01*
X126068115Y-81127279D01*
X126155974Y-81055174D01*
X126174039Y-81033162D01*
X126709001Y-80498200D01*
X126746528Y-80498200D01*
X126896643Y-80468341D01*
X127038048Y-80409769D01*
X127165309Y-80324736D01*
X127273536Y-80216509D01*
X127325501Y-80138738D01*
X127408557Y-80173141D01*
X127558672Y-80203000D01*
X127711728Y-80203000D01*
X127861843Y-80173141D01*
X127979000Y-80124613D01*
X127979000Y-82143746D01*
G36*
X121736641Y-76563559D02*
G01*
X121845263Y-76652703D01*
X121854051Y-76657400D01*
X121845263Y-76662097D01*
X121736641Y-76751241D01*
X121647497Y-76859863D01*
X121625401Y-76901201D01*
X121021877Y-76901201D01*
X121043757Y-76862359D01*
X121082705Y-76743493D01*
X121094800Y-76636950D01*
X121063052Y-76605202D01*
X121094800Y-76605202D01*
X121094800Y-76555199D01*
X121729780Y-76555199D01*
X121736641Y-76563559D01*
G37*
X121736641Y-76563559D02*
X121845263Y-76652703D01*
X121854051Y-76657400D01*
X121845263Y-76662097D01*
X121736641Y-76751241D01*
X121647497Y-76859863D01*
X121625401Y-76901201D01*
X121021877Y-76901201D01*
X121043757Y-76862359D01*
X121082705Y-76743493D01*
X121094800Y-76636950D01*
X121063052Y-76605202D01*
X121094800Y-76605202D01*
X121094800Y-76555199D01*
X121729780Y-76555199D01*
X121736641Y-76563559D01*
G36*
X115776425Y-76388173D02*
G01*
X115864284Y-76460278D01*
X115913200Y-76486424D01*
X115913200Y-76507399D01*
X115049936Y-76507399D01*
X114913337Y-76370800D01*
X115762167Y-76370800D01*
X115776425Y-76388173D01*
G37*
X115776425Y-76388173D02*
X115864284Y-76460278D01*
X115913200Y-76486424D01*
X115913200Y-76507399D01*
X115049936Y-76507399D01*
X114913337Y-76370800D01*
X115762167Y-76370800D01*
X115776425Y-76388173D01*
M02*
