G04 #@! TF.GenerationSoftware,KiCad,Pcbnew,6.0.2+dfsg-1*
G04 #@! TF.CreationDate,2023-08-08T18:28:00+09:00*
G04 #@! TF.ProjectId,m5-pantilt,6d352d70-616e-4746-996c-742e6b696361,1*
G04 #@! TF.SameCoordinates,Original*
G04 #@! TF.FileFunction,Soldermask,Top*
G04 #@! TF.FilePolarity,Negative*
%FSLAX46Y46*%
G04 Gerber Fmt 4.6, Leading zero omitted, Abs format (unit mm)*
G04 Created by KiCad (PCBNEW 6.0.2+dfsg-1) date 2023-08-08 18:28:00*
%MOMM*%
%LPD*%
G01*
G04 APERTURE LIST*
G04 Aperture macros list*
%AMRoundRect*
0 Rectangle with rounded corners*
0 $1 Rounding radius*
0 $2 $3 $4 $5 $6 $7 $8 $9 X,Y pos of 4 corners*
0 Add a 4 corners polygon primitive as box body*
4,1,4,$2,$3,$4,$5,$6,$7,$8,$9,$2,$3,0*
0 Add four circle primitives for the rounded corners*
1,1,$1+$1,$2,$3*
1,1,$1+$1,$4,$5*
1,1,$1+$1,$6,$7*
1,1,$1+$1,$8,$9*
0 Add four rect primitives between the rounded corners*
20,1,$1+$1,$2,$3,$4,$5,0*
20,1,$1+$1,$4,$5,$6,$7,0*
20,1,$1+$1,$6,$7,$8,$9,0*
20,1,$1+$1,$8,$9,$2,$3,0*%
G04 Aperture macros list end*
%ADD10C,3.102000*%
%ADD11C,2.102000*%
%ADD12RoundRect,0.301000X0.350000X0.625000X-0.350000X0.625000X-0.350000X-0.625000X0.350000X-0.625000X0*%
%ADD13O,1.302000X1.852000*%
%ADD14RoundRect,0.301000X-0.350000X-0.625000X0.350000X-0.625000X0.350000X0.625000X-0.350000X0.625000X0*%
%ADD15RoundRect,0.288500X0.250000X0.237500X-0.250000X0.237500X-0.250000X-0.237500X0.250000X-0.237500X0*%
%ADD16RoundRect,0.301000X-0.750000X0.600000X-0.750000X-0.600000X0.750000X-0.600000X0.750000X0.600000X0*%
%ADD17O,2.102000X1.802000*%
%ADD18RoundRect,0.301000X0.650000X-0.412500X0.650000X0.412500X-0.650000X0.412500X-0.650000X-0.412500X0*%
%ADD19RoundRect,0.301000X-0.650000X0.412500X-0.650000X-0.412500X0.650000X-0.412500X0.650000X0.412500X0*%
%ADD20RoundRect,0.051000X0.450000X0.400000X-0.450000X0.400000X-0.450000X-0.400000X0.450000X-0.400000X0*%
%ADD21RoundRect,0.288500X0.237500X-0.250000X0.237500X0.250000X-0.237500X0.250000X-0.237500X-0.250000X0*%
%ADD22RoundRect,0.251000X-0.200000X-0.275000X0.200000X-0.275000X0.200000X0.275000X-0.200000X0.275000X0*%
%ADD23RoundRect,0.251000X0.200000X0.275000X-0.200000X0.275000X-0.200000X-0.275000X0.200000X-0.275000X0*%
%ADD24RoundRect,0.301000X-0.725000X0.600000X-0.725000X-0.600000X0.725000X-0.600000X0.725000X0.600000X0*%
%ADD25O,2.052000X1.802000*%
%ADD26RoundRect,0.276000X-0.225000X-0.250000X0.225000X-0.250000X0.225000X0.250000X-0.225000X0.250000X0*%
%ADD27RoundRect,0.051000X-1.500000X-0.500000X1.500000X-0.500000X1.500000X0.500000X-1.500000X0.500000X0*%
%ADD28RoundRect,0.051000X-0.900000X1.250000X-0.900000X-1.250000X0.900000X-1.250000X0.900000X1.250000X0*%
%ADD29RoundRect,0.201000X-0.587500X-0.150000X0.587500X-0.150000X0.587500X0.150000X-0.587500X0.150000X0*%
%ADD30RoundRect,0.201000X-0.800000X-0.150000X0.800000X-0.150000X0.800000X0.150000X-0.800000X0.150000X0*%
%ADD31RoundRect,0.251000X0.275000X-0.200000X0.275000X0.200000X-0.275000X0.200000X-0.275000X-0.200000X0*%
%ADD32RoundRect,0.251000X-0.275000X0.200000X-0.275000X-0.200000X0.275000X-0.200000X0.275000X0.200000X0*%
%ADD33O,3.602000X2.302000*%
%ADD34RoundRect,0.051000X-1.250000X0.750000X-1.250000X-0.750000X1.250000X-0.750000X1.250000X0.750000X0*%
%ADD35O,2.602000X1.602000*%
G04 APERTURE END LIST*
D10*
X103150000Y-96850000D03*
D11*
X107300000Y-96850000D03*
X142700000Y-96850000D03*
D10*
X146850000Y-96850000D03*
X146850000Y-53150000D03*
D11*
X142700000Y-53150000D03*
X107300000Y-53150000D03*
D10*
X103150000Y-53150000D03*
D12*
X136600000Y-55000000D03*
D13*
X134600000Y-55000000D03*
X132600000Y-55000000D03*
X130600000Y-55000000D03*
D14*
X142350000Y-91150000D03*
D13*
X144350000Y-91150000D03*
D12*
X119400000Y-55000000D03*
D13*
X117400000Y-55000000D03*
X115400000Y-55000000D03*
X113400000Y-55000000D03*
D15*
X116612500Y-81500000D03*
X114787500Y-81500000D03*
X116612500Y-83200000D03*
X114787500Y-83200000D03*
D16*
X114600000Y-92200000D03*
D17*
X114600000Y-94700000D03*
D18*
X139500000Y-73062500D03*
X139500000Y-69937500D03*
D19*
X137114000Y-69937500D03*
X137114000Y-73062500D03*
X137100000Y-79337500D03*
X137100000Y-82462500D03*
D20*
X133800000Y-95950000D03*
X133800000Y-94050000D03*
X131800000Y-95000000D03*
D21*
X135636200Y-95908700D03*
X135636200Y-94083700D03*
D15*
X116612500Y-78250000D03*
X114787500Y-78250000D03*
X116662500Y-85150000D03*
X114837500Y-85150000D03*
X116612500Y-79850000D03*
X114787500Y-79850000D03*
X116662500Y-86750000D03*
X114837500Y-86750000D03*
D22*
X129175000Y-72300000D03*
X130825000Y-72300000D03*
D23*
X130825000Y-70800000D03*
X129175000Y-70800000D03*
D19*
X139500000Y-79337500D03*
X139500000Y-82462500D03*
D24*
X144700000Y-69900000D03*
D25*
X144700000Y-72400000D03*
X144700000Y-74900000D03*
D23*
X117075000Y-65750000D03*
X115425000Y-65750000D03*
D24*
X144700000Y-80900000D03*
D25*
X144700000Y-83400000D03*
X144700000Y-85900000D03*
D23*
X130815000Y-65600000D03*
X129165000Y-65600000D03*
D26*
X129225000Y-64000000D03*
X130775000Y-64000000D03*
D27*
X108720000Y-57220000D03*
X103680000Y-57220000D03*
X108720000Y-59760000D03*
X103680000Y-59760000D03*
X108720000Y-62300000D03*
X103680000Y-62300000D03*
X108720000Y-64840000D03*
X103680000Y-64840000D03*
X108720000Y-67380000D03*
X103680000Y-67380000D03*
X108720000Y-69920000D03*
X103680000Y-69920000D03*
X108720000Y-72460000D03*
X103680000Y-72460000D03*
X108720000Y-75000000D03*
X103680000Y-75000000D03*
X108720000Y-77540000D03*
X103680000Y-77540000D03*
X108720000Y-80080000D03*
X103680000Y-80080000D03*
X108720000Y-82620000D03*
X103680000Y-82620000D03*
X108720000Y-85160000D03*
X103680000Y-85160000D03*
X108720000Y-87700000D03*
X103680000Y-87700000D03*
X108720000Y-90240000D03*
X103680000Y-90240000D03*
X108720000Y-92780000D03*
X103680000Y-92780000D03*
D28*
X119300000Y-90850000D03*
X119300000Y-94850000D03*
D29*
X114862500Y-67350000D03*
X114862500Y-69250000D03*
X116737500Y-68300000D03*
D23*
X130825000Y-68800000D03*
X129175000Y-68800000D03*
D30*
X119800000Y-64695000D03*
X119800000Y-65965000D03*
X119800000Y-67235000D03*
X119800000Y-68505000D03*
X126800000Y-68505000D03*
X126800000Y-67235000D03*
X126800000Y-65965000D03*
X126800000Y-64695000D03*
D31*
X117000000Y-72425000D03*
X117000000Y-70775000D03*
D23*
X130825000Y-67140000D03*
X129175000Y-67140000D03*
D32*
X115450000Y-70775000D03*
X115450000Y-72425000D03*
D33*
X145800000Y-57000000D03*
X145800000Y-65200000D03*
D34*
X145800000Y-59100000D03*
D35*
X145800000Y-61100000D03*
X145800000Y-63100000D03*
G36*
X145112123Y-63876585D02*
G01*
X145288947Y-63898923D01*
X145300014Y-63899000D01*
X146299884Y-63899000D01*
X146477015Y-63879132D01*
X146631776Y-63825238D01*
X146633741Y-63825613D01*
X146634399Y-63827502D01*
X146633434Y-63828859D01*
X146616871Y-63838422D01*
X146617368Y-63839284D01*
X146617368Y-63841284D01*
X146616765Y-63841935D01*
X146575695Y-63870021D01*
X146548739Y-63933816D01*
X146560553Y-64002062D01*
X146607469Y-64053174D01*
X146641640Y-64066562D01*
X146642887Y-64068125D01*
X146642158Y-64069987D01*
X146640675Y-64070410D01*
X146480002Y-64051393D01*
X146449974Y-64051000D01*
X145150096Y-64051000D01*
X144946221Y-64069734D01*
X144944405Y-64068896D01*
X144944222Y-64066905D01*
X144945510Y-64065813D01*
X144953673Y-64063580D01*
X145012876Y-64027067D01*
X145042811Y-63964612D01*
X145034229Y-63895887D01*
X144989684Y-63842509D01*
X144982961Y-63838325D01*
X144961742Y-63826074D01*
X144960742Y-63824342D01*
X144961742Y-63822610D01*
X144963426Y-63822463D01*
X145112123Y-63876585D01*
G37*
G36*
X146884988Y-58062337D02*
G01*
X146885873Y-58064131D01*
X146885212Y-58065489D01*
X146836344Y-58109281D01*
X146817941Y-58176050D01*
X146838558Y-58242167D01*
X146891713Y-58286697D01*
X146941248Y-58297042D01*
X146942739Y-58298375D01*
X146942330Y-58300333D01*
X146940839Y-58301000D01*
X144662948Y-58301000D01*
X144661216Y-58300000D01*
X144661216Y-58298000D01*
X144662385Y-58297081D01*
X144729397Y-58277405D01*
X144774752Y-58225062D01*
X144784609Y-58156509D01*
X144755816Y-58093462D01*
X144721750Y-58069168D01*
X144720920Y-58067349D01*
X144722081Y-58065720D01*
X144723504Y-58065630D01*
X144911112Y-58123884D01*
X145119998Y-58148607D01*
X145150026Y-58149000D01*
X146449904Y-58149000D01*
X146659388Y-58129751D01*
X146861761Y-58072676D01*
X146882992Y-58062206D01*
X146884988Y-58062337D01*
G37*
M02*
