G04 #@! TF.GenerationSoftware,KiCad,Pcbnew,(5.1.4)-1*
G04 #@! TF.CreationDate,2021-07-31T01:35:56+09:00*
G04 #@! TF.ProjectId,m5-pantilt,6d352d70-616e-4746-996c-742e6b696361,1*
G04 #@! TF.SameCoordinates,PX5f5e100PY5f5e100*
G04 #@! TF.FileFunction,Legend,Top*
G04 #@! TF.FilePolarity,Positive*
%FSLAX46Y46*%
G04 Gerber Fmt 4.6, Leading zero omitted, Abs format (unit mm)*
G04 Created by KiCad (PCBNEW (5.1.4)-1) date 2021-07-31 01:35:56*
%MOMM*%
%LPD*%
G04 APERTURE LIST*
%ADD10C,0.150000*%
%ADD11C,0.300000*%
%ADD12C,0.120000*%
G04 APERTURE END LIST*
D10*
X42958066Y15132000D02*
X42881876Y15170096D01*
X42767590Y15170096D01*
X42653304Y15132000D01*
X42577114Y15055810D01*
X42539019Y14979620D01*
X42500923Y14827239D01*
X42500923Y14712953D01*
X42539019Y14560572D01*
X42577114Y14484381D01*
X42653304Y14408191D01*
X42767590Y14370096D01*
X42843780Y14370096D01*
X42958066Y14408191D01*
X42996161Y14446286D01*
X42996161Y14712953D01*
X42843780Y14712953D01*
X43339019Y14370096D02*
X43339019Y15170096D01*
X43643780Y15170096D01*
X43719971Y15132000D01*
X43758066Y15093905D01*
X43796161Y15017715D01*
X43796161Y14903429D01*
X43758066Y14827239D01*
X43719971Y14789143D01*
X43643780Y14751048D01*
X43339019Y14751048D01*
X44139019Y14370096D02*
X44139019Y15170096D01*
X44672352Y15170096D02*
X44824733Y15170096D01*
X44900923Y15132000D01*
X44977114Y15055810D01*
X45015209Y14903429D01*
X45015209Y14636762D01*
X44977114Y14484381D01*
X44900923Y14408191D01*
X44824733Y14370096D01*
X44672352Y14370096D01*
X44596161Y14408191D01*
X44519971Y14484381D01*
X44481876Y14636762D01*
X44481876Y14903429D01*
X44519971Y15055810D01*
X44596161Y15132000D01*
X44672352Y15170096D01*
X45739019Y15170096D02*
X45358066Y15170096D01*
X45319971Y14789143D01*
X45358066Y14827239D01*
X45434257Y14865334D01*
X45624733Y14865334D01*
X45700923Y14827239D01*
X45739019Y14789143D01*
X45777114Y14712953D01*
X45777114Y14522477D01*
X45739019Y14446286D01*
X45700923Y14408191D01*
X45624733Y14370096D01*
X45434257Y14370096D01*
X45358066Y14408191D01*
X45319971Y14446286D01*
X46691400Y15208191D02*
X46005685Y14179620D01*
X46843780Y15170096D02*
X47300923Y15170096D01*
X47072352Y14370096D02*
X47072352Y15170096D01*
X47453304Y15170096D02*
X47910447Y15170096D01*
X47681876Y14370096D02*
X47681876Y15170096D01*
X48558066Y14370096D02*
X48177114Y14370096D01*
X48177114Y15170096D01*
X42958066Y22701200D02*
X42881876Y22739296D01*
X42767590Y22739296D01*
X42653304Y22701200D01*
X42577114Y22625010D01*
X42539019Y22548820D01*
X42500923Y22396439D01*
X42500923Y22282153D01*
X42539019Y22129772D01*
X42577114Y22053581D01*
X42653304Y21977391D01*
X42767590Y21939296D01*
X42843780Y21939296D01*
X42958066Y21977391D01*
X42996161Y22015486D01*
X42996161Y22282153D01*
X42843780Y22282153D01*
X43339019Y21939296D02*
X43339019Y22739296D01*
X43643780Y22739296D01*
X43719971Y22701200D01*
X43758066Y22663105D01*
X43796161Y22586915D01*
X43796161Y22472629D01*
X43758066Y22396439D01*
X43719971Y22358343D01*
X43643780Y22320248D01*
X43339019Y22320248D01*
X44139019Y21939296D02*
X44139019Y22739296D01*
X44672352Y22739296D02*
X44824733Y22739296D01*
X44900923Y22701200D01*
X44977114Y22625010D01*
X45015209Y22472629D01*
X45015209Y22205962D01*
X44977114Y22053581D01*
X44900923Y21977391D01*
X44824733Y21939296D01*
X44672352Y21939296D01*
X44596161Y21977391D01*
X44519971Y22053581D01*
X44481876Y22205962D01*
X44481876Y22472629D01*
X44519971Y22625010D01*
X44596161Y22701200D01*
X44672352Y22739296D01*
X45319971Y22663105D02*
X45358066Y22701200D01*
X45434257Y22739296D01*
X45624733Y22739296D01*
X45700923Y22701200D01*
X45739019Y22663105D01*
X45777114Y22586915D01*
X45777114Y22510724D01*
X45739019Y22396439D01*
X45281876Y21939296D01*
X45777114Y21939296D01*
X46691400Y22777391D02*
X46005685Y21748820D01*
X46843780Y22739296D02*
X47300923Y22739296D01*
X47072352Y21939296D02*
X47072352Y22739296D01*
X47453304Y22739296D02*
X47910447Y22739296D01*
X47681876Y21939296D02*
X47681876Y22739296D01*
X48558066Y21939296D02*
X48177114Y21939296D01*
X48177114Y22739296D01*
D11*
X45840742Y43786343D02*
X46069314Y43786343D01*
X46183600Y43729200D01*
X46297885Y43614915D01*
X46355028Y43386343D01*
X46355028Y42986343D01*
X46297885Y42757772D01*
X46183600Y42643486D01*
X46069314Y42586343D01*
X45840742Y42586343D01*
X45726457Y42643486D01*
X45612171Y42757772D01*
X45555028Y42986343D01*
X45555028Y43386343D01*
X45612171Y43614915D01*
X45726457Y43729200D01*
X45840742Y43786343D01*
X46869314Y42586343D02*
X46869314Y43786343D01*
X47555028Y42586343D01*
X47555028Y43786343D01*
D12*
X36516000Y15434000D02*
X36516000Y16764000D01*
X37846000Y15434000D02*
X36516000Y15434000D01*
X36516000Y18034000D02*
X36516000Y20634000D01*
X39116000Y18034000D02*
X36516000Y18034000D01*
X39116000Y15434000D02*
X39116000Y18034000D01*
X36516000Y20634000D02*
X44256000Y20634000D01*
X39116000Y15434000D02*
X44256000Y15434000D01*
X44256000Y15434000D02*
X44256000Y20634000D01*
X33860000Y45140000D02*
X33860000Y43925000D01*
X33800000Y49100000D02*
X33800000Y51360000D01*
X33300000Y49100000D02*
X33300000Y51360000D01*
X26700000Y47500000D02*
X25700000Y47500000D01*
X26700000Y49100000D02*
X26700000Y47500000D01*
X25700000Y49100000D02*
X26700000Y49100000D01*
X25700000Y47500000D02*
X25700000Y49100000D01*
X33300000Y47500000D02*
X34300000Y47500000D01*
X33300000Y49100000D02*
X33300000Y47500000D01*
X34300000Y49100000D02*
X33300000Y49100000D01*
X34300000Y47500000D02*
X34300000Y49100000D01*
X24940000Y45140000D02*
X25860000Y45140000D01*
X35060000Y45140000D02*
X34140000Y45140000D01*
X27500000Y47000000D02*
X27500000Y51360000D01*
X32500000Y47000000D02*
X27500000Y47000000D01*
X32500000Y51360000D02*
X32500000Y47000000D01*
X25860000Y45140000D02*
X26140000Y45140000D01*
X25860000Y43540000D02*
X25860000Y45140000D01*
X24940000Y43540000D02*
X25860000Y43540000D01*
X24940000Y51360000D02*
X24940000Y43540000D01*
X35060000Y51360000D02*
X24940000Y51360000D01*
X35060000Y43540000D02*
X35060000Y51360000D01*
X34140000Y43540000D02*
X35060000Y43540000D01*
X34140000Y45140000D02*
X34140000Y43540000D01*
X33860000Y45140000D02*
X34140000Y45140000D01*
X23234733Y23670800D02*
X23577267Y23670800D01*
X23234733Y24690800D02*
X23577267Y24690800D01*
X23577267Y21994400D02*
X23234733Y21994400D01*
X23577267Y23014400D02*
X23234733Y23014400D01*
X29686000Y14218600D02*
G75*
G03X29686000Y14218600I-3270000J0D01*
G01*
X44256000Y23054000D02*
X44256000Y28254000D01*
X39116000Y23054000D02*
X44256000Y23054000D01*
X36516000Y28254000D02*
X44256000Y28254000D01*
X39116000Y23054000D02*
X39116000Y25654000D01*
X39116000Y25654000D02*
X36516000Y25654000D01*
X36516000Y25654000D02*
X36516000Y28254000D01*
X37846000Y23054000D02*
X36516000Y23054000D01*
X36516000Y23054000D02*
X36516000Y24384000D01*
X37150000Y44200000D02*
X42350000Y44200000D01*
X42350000Y30200000D02*
X37150000Y30200000D01*
X36400000Y32250000D02*
X36400000Y42150000D01*
X43100000Y42150000D02*
X43100000Y32250000D01*
X36750000Y29900000D02*
X35450000Y29900000D01*
X35450000Y29900000D02*
X35450000Y31200000D01*
X19443933Y24402100D02*
X17564067Y24402100D01*
X17564067Y22141500D02*
X19443933Y22141500D01*
X38000000Y12410000D02*
X38000000Y7690000D01*
X38000000Y7690000D02*
X44120000Y7690000D01*
X44120000Y7690000D02*
X44120000Y12410000D01*
X44120000Y12410000D02*
X38000000Y12410000D01*
X39760000Y12410000D02*
X39760000Y12610000D01*
X39760000Y12610000D02*
X39460000Y12610000D01*
X39460000Y12610000D02*
X39460000Y12410000D01*
X39760000Y12510000D02*
X39460000Y12510000D01*
X40560000Y12410000D02*
X40560000Y11800000D01*
X40560000Y11800000D02*
X38610000Y11800000D01*
X38610000Y11800000D02*
X38610000Y8300000D01*
X38610000Y8300000D02*
X43510000Y8300000D01*
X43510000Y8300000D02*
X43510000Y11800000D01*
X43510000Y11800000D02*
X41560000Y11800000D01*
X41560000Y11800000D02*
X41560000Y12410000D01*
X38000000Y11100000D02*
X38610000Y11100000D01*
X38000000Y9800000D02*
X38610000Y9800000D01*
X44120000Y11100000D02*
X43510000Y11100000D01*
X44120000Y9800000D02*
X43510000Y9800000D01*
X40960000Y8300000D02*
X40960000Y8800000D01*
X40960000Y8800000D02*
X41160000Y8800000D01*
X41160000Y8800000D02*
X41160000Y8300000D01*
X41060000Y8300000D02*
X41060000Y8800000D01*
X38950000Y12710000D02*
X37700000Y12710000D01*
X37700000Y12710000D02*
X37700000Y11460000D01*
X20860000Y45140000D02*
X21140000Y45140000D01*
X21140000Y45140000D02*
X21140000Y43540000D01*
X21140000Y43540000D02*
X22060000Y43540000D01*
X22060000Y43540000D02*
X22060000Y51360000D01*
X22060000Y51360000D02*
X11940000Y51360000D01*
X11940000Y51360000D02*
X11940000Y43540000D01*
X11940000Y43540000D02*
X12860000Y43540000D01*
X12860000Y43540000D02*
X12860000Y45140000D01*
X12860000Y45140000D02*
X13140000Y45140000D01*
X19500000Y51360000D02*
X19500000Y47000000D01*
X19500000Y47000000D02*
X14500000Y47000000D01*
X14500000Y47000000D02*
X14500000Y51360000D01*
X22060000Y45140000D02*
X21140000Y45140000D01*
X11940000Y45140000D02*
X12860000Y45140000D01*
X21300000Y47500000D02*
X21300000Y49100000D01*
X21300000Y49100000D02*
X20300000Y49100000D01*
X20300000Y49100000D02*
X20300000Y47500000D01*
X20300000Y47500000D02*
X21300000Y47500000D01*
X12700000Y47500000D02*
X12700000Y49100000D01*
X12700000Y49100000D02*
X13700000Y49100000D01*
X13700000Y49100000D02*
X13700000Y47500000D01*
X13700000Y47500000D02*
X12700000Y47500000D01*
X20300000Y49100000D02*
X20300000Y51360000D01*
X20800000Y49100000D02*
X20800000Y51360000D01*
X20860000Y45140000D02*
X20860000Y43925000D01*
X23564667Y20368800D02*
X23222133Y20368800D01*
X23564667Y21388800D02*
X23222133Y21388800D01*
X23564667Y19864800D02*
X23222133Y19864800D01*
X23564667Y18844800D02*
X23222133Y18844800D01*
X16160000Y10360000D02*
X10190000Y10360000D01*
X10190000Y10360000D02*
X10190000Y2740000D01*
X10190000Y2740000D02*
X16160000Y2740000D01*
X16160000Y2740000D02*
X16160000Y10360000D01*
X16150000Y7050000D02*
X15400000Y7050000D01*
X15400000Y7050000D02*
X15400000Y6050000D01*
X15400000Y6050000D02*
X16150000Y6050000D01*
X16150000Y6050000D02*
X16150000Y7050000D01*
X16150000Y10350000D02*
X15400000Y10350000D01*
X15400000Y10350000D02*
X15400000Y8550000D01*
X15400000Y8550000D02*
X16150000Y8550000D01*
X16150000Y8550000D02*
X16150000Y10350000D01*
X16150000Y4550000D02*
X15400000Y4550000D01*
X15400000Y4550000D02*
X15400000Y2750000D01*
X15400000Y2750000D02*
X16150000Y2750000D01*
X16150000Y2750000D02*
X16150000Y4550000D01*
X13900000Y10350000D02*
X13900000Y9600000D01*
X13900000Y9600000D02*
X10950000Y9600000D01*
X10950000Y9600000D02*
X10950000Y6550000D01*
X13900000Y2750000D02*
X13900000Y3500000D01*
X13900000Y3500000D02*
X10950000Y3500000D01*
X10950000Y3500000D02*
X10950000Y6550000D01*
X16450000Y9400000D02*
X16450000Y10650000D01*
X16450000Y10650000D02*
X15200000Y10650000D01*
D10*
X34566266Y15482820D02*
X34566266Y14768534D01*
X34518647Y14625677D01*
X34423409Y14530439D01*
X34280552Y14482820D01*
X34185314Y14482820D01*
X34994838Y15387581D02*
X35042457Y15435200D01*
X35137695Y15482820D01*
X35375790Y15482820D01*
X35471028Y15435200D01*
X35518647Y15387581D01*
X35566266Y15292343D01*
X35566266Y15197105D01*
X35518647Y15054248D01*
X34947219Y14482820D01*
X35566266Y14482820D01*
X29819066Y42642020D02*
X29819066Y41927734D01*
X29771447Y41784877D01*
X29676209Y41689639D01*
X29533352Y41642020D01*
X29438114Y41642020D01*
X30723828Y42642020D02*
X30533352Y42642020D01*
X30438114Y42594400D01*
X30390495Y42546781D01*
X30295257Y42403924D01*
X30247638Y42213448D01*
X30247638Y41832496D01*
X30295257Y41737258D01*
X30342876Y41689639D01*
X30438114Y41642020D01*
X30628590Y41642020D01*
X30723828Y41689639D01*
X30771447Y41737258D01*
X30819066Y41832496D01*
X30819066Y42070591D01*
X30771447Y42165829D01*
X30723828Y42213448D01*
X30628590Y42261067D01*
X30438114Y42261067D01*
X30342876Y42213448D01*
X30295257Y42165829D01*
X30247638Y42070591D01*
X25995333Y23578620D02*
X25662000Y24054810D01*
X25423904Y23578620D02*
X25423904Y24578620D01*
X25804857Y24578620D01*
X25900095Y24531000D01*
X25947714Y24483381D01*
X25995333Y24388143D01*
X25995333Y24245286D01*
X25947714Y24150048D01*
X25900095Y24102429D01*
X25804857Y24054810D01*
X25423904Y24054810D01*
X26947714Y23578620D02*
X26376285Y23578620D01*
X26662000Y23578620D02*
X26662000Y24578620D01*
X26566761Y24435762D01*
X26471523Y24340524D01*
X26376285Y24292905D01*
X25995333Y21827420D02*
X25662000Y22303610D01*
X25423904Y21827420D02*
X25423904Y22827420D01*
X25804857Y22827420D01*
X25900095Y22779800D01*
X25947714Y22732181D01*
X25995333Y22636943D01*
X25995333Y22494086D01*
X25947714Y22398848D01*
X25900095Y22351229D01*
X25804857Y22303610D01*
X25423904Y22303610D01*
X26376285Y22732181D02*
X26423904Y22779800D01*
X26519142Y22827420D01*
X26757238Y22827420D01*
X26852476Y22779800D01*
X26900095Y22732181D01*
X26947714Y22636943D01*
X26947714Y22541705D01*
X26900095Y22398848D01*
X26328666Y21827420D01*
X26947714Y21827420D01*
X29703733Y10463258D02*
X29656114Y10415639D01*
X29513257Y10368020D01*
X29418019Y10368020D01*
X29275161Y10415639D01*
X29179923Y10510877D01*
X29132304Y10606115D01*
X29084685Y10796591D01*
X29084685Y10939448D01*
X29132304Y11129924D01*
X29179923Y11225162D01*
X29275161Y11320400D01*
X29418019Y11368020D01*
X29513257Y11368020D01*
X29656114Y11320400D01*
X29703733Y11272781D01*
X30656114Y10368020D02*
X30084685Y10368020D01*
X30370400Y10368020D02*
X30370400Y11368020D01*
X30275161Y11225162D01*
X30179923Y11129924D01*
X30084685Y11082305D01*
X34388466Y26150820D02*
X34388466Y25436534D01*
X34340847Y25293677D01*
X34245609Y25198439D01*
X34102752Y25150820D01*
X34007514Y25150820D01*
X34769419Y26150820D02*
X35388466Y26150820D01*
X35055133Y25769867D01*
X35197990Y25769867D01*
X35293228Y25722248D01*
X35340847Y25674629D01*
X35388466Y25579391D01*
X35388466Y25341296D01*
X35340847Y25246058D01*
X35293228Y25198439D01*
X35197990Y25150820D01*
X34912276Y25150820D01*
X34817038Y25198439D01*
X34769419Y25246058D01*
X32448666Y36730039D02*
X32591523Y36682420D01*
X32829619Y36682420D01*
X32924857Y36730039D01*
X32972476Y36777658D01*
X33020095Y36872896D01*
X33020095Y36968134D01*
X32972476Y37063372D01*
X32924857Y37110991D01*
X32829619Y37158610D01*
X32639142Y37206229D01*
X32543904Y37253848D01*
X32496285Y37301467D01*
X32448666Y37396705D01*
X32448666Y37491943D01*
X32496285Y37587181D01*
X32543904Y37634800D01*
X32639142Y37682420D01*
X32877238Y37682420D01*
X33020095Y37634800D01*
X33353428Y37682420D02*
X33591523Y36682420D01*
X33782000Y37396705D01*
X33972476Y36682420D01*
X34210571Y37682420D01*
X35115333Y36682420D02*
X34543904Y36682420D01*
X34829619Y36682420D02*
X34829619Y37682420D01*
X34734380Y37539562D01*
X34639142Y37444324D01*
X34543904Y37396705D01*
X17830895Y27928820D02*
X17830895Y27119296D01*
X17878514Y27024058D01*
X17926133Y26976439D01*
X18021371Y26928820D01*
X18211847Y26928820D01*
X18307085Y26976439D01*
X18354704Y27024058D01*
X18402323Y27119296D01*
X18402323Y27928820D01*
X19402323Y26928820D02*
X18830895Y26928820D01*
X19116609Y26928820D02*
X19116609Y27928820D01*
X19021371Y27785962D01*
X18926133Y27690724D01*
X18830895Y27643105D01*
X14372152Y25303220D02*
X14372152Y26303220D01*
X14943580Y25303220D01*
X14943580Y26303220D01*
X15895961Y25303220D02*
X15419771Y25303220D01*
X15419771Y26303220D01*
X16181676Y26207981D02*
X16229295Y26255600D01*
X16324533Y26303220D01*
X16562628Y26303220D01*
X16657866Y26255600D01*
X16705485Y26207981D01*
X16753104Y26112743D01*
X16753104Y26017505D01*
X16705485Y25874648D01*
X16134057Y25303220D01*
X16753104Y25303220D01*
X17086438Y26303220D02*
X17753104Y26303220D01*
X17324533Y25303220D01*
X18038819Y26303220D02*
X18276914Y25303220D01*
X18467390Y26017505D01*
X18657866Y25303220D01*
X18895961Y26303220D01*
X19181676Y26303220D02*
X19848342Y26303220D01*
X19181676Y25303220D01*
X19848342Y25303220D01*
X20753104Y25303220D02*
X20181676Y25303220D01*
X20467390Y25303220D02*
X20467390Y26303220D01*
X20372152Y26160362D01*
X20276914Y26065124D01*
X20181676Y26017505D01*
X21134057Y26207981D02*
X21181676Y26255600D01*
X21276914Y26303220D01*
X21515009Y26303220D01*
X21610247Y26255600D01*
X21657866Y26207981D01*
X21705485Y26112743D01*
X21705485Y26017505D01*
X21657866Y25874648D01*
X21086438Y25303220D01*
X21705485Y25303220D01*
X22610247Y26303220D02*
X22134057Y26303220D01*
X22086438Y25827029D01*
X22134057Y25874648D01*
X22229295Y25922267D01*
X22467390Y25922267D01*
X22562628Y25874648D01*
X22610247Y25827029D01*
X22657866Y25731791D01*
X22657866Y25493696D01*
X22610247Y25398458D01*
X22562628Y25350839D01*
X22467390Y25303220D01*
X22229295Y25303220D01*
X22134057Y25350839D01*
X22086438Y25398458D01*
X18491200Y23458420D02*
X18491200Y23220324D01*
X18253104Y23315562D02*
X18491200Y23220324D01*
X18729295Y23315562D01*
X18348342Y23029848D02*
X18491200Y23220324D01*
X18634057Y23029848D01*
X18491200Y23458420D02*
X18491200Y23220324D01*
X18253104Y23315562D02*
X18491200Y23220324D01*
X18729295Y23315562D01*
X18348342Y23029848D02*
X18491200Y23220324D01*
X18634057Y23029848D01*
X34617066Y10656820D02*
X34617066Y9942534D01*
X34569447Y9799677D01*
X34474209Y9704439D01*
X34331352Y9656820D01*
X34236114Y9656820D01*
X35569447Y10656820D02*
X35093257Y10656820D01*
X35045638Y10180629D01*
X35093257Y10228248D01*
X35188495Y10275867D01*
X35426590Y10275867D01*
X35521828Y10228248D01*
X35569447Y10180629D01*
X35617066Y10085391D01*
X35617066Y9847296D01*
X35569447Y9752058D01*
X35521828Y9704439D01*
X35426590Y9656820D01*
X35188495Y9656820D01*
X35093257Y9704439D01*
X35045638Y9752058D01*
X16666666Y42457620D02*
X16666666Y41743334D01*
X16619047Y41600477D01*
X16523809Y41505239D01*
X16380952Y41457620D01*
X16285714Y41457620D01*
X17571428Y42124286D02*
X17571428Y41457620D01*
X17333333Y42505239D02*
X17095238Y41790953D01*
X17714285Y41790953D01*
X26147733Y20553420D02*
X25814400Y21029610D01*
X25576304Y20553420D02*
X25576304Y21553420D01*
X25957257Y21553420D01*
X26052495Y21505800D01*
X26100114Y21458181D01*
X26147733Y21362943D01*
X26147733Y21220086D01*
X26100114Y21124848D01*
X26052495Y21077229D01*
X25957257Y21029610D01*
X25576304Y21029610D01*
X26481066Y21553420D02*
X27100114Y21553420D01*
X26766780Y21172467D01*
X26909638Y21172467D01*
X27004876Y21124848D01*
X27052495Y21077229D01*
X27100114Y20981991D01*
X27100114Y20743896D01*
X27052495Y20648658D01*
X27004876Y20601039D01*
X26909638Y20553420D01*
X26623923Y20553420D01*
X26528685Y20601039D01*
X26481066Y20648658D01*
X26147733Y19029420D02*
X25814400Y19505610D01*
X25576304Y19029420D02*
X25576304Y20029420D01*
X25957257Y20029420D01*
X26052495Y19981800D01*
X26100114Y19934181D01*
X26147733Y19838943D01*
X26147733Y19696086D01*
X26100114Y19600848D01*
X26052495Y19553229D01*
X25957257Y19505610D01*
X25576304Y19505610D01*
X27004876Y19696086D02*
X27004876Y19029420D01*
X26766780Y20077039D02*
X26528685Y19362753D01*
X27147733Y19362753D01*
X17266666Y6247620D02*
X17266666Y5533334D01*
X17219047Y5390477D01*
X17123809Y5295239D01*
X16980952Y5247620D01*
X16885714Y5247620D01*
X17647619Y6247620D02*
X18314285Y6247620D01*
X17885714Y5247620D01*
M02*
