G04 #@! TF.GenerationSoftware,KiCad,Pcbnew,(5.1.5)-3*
G04 #@! TF.CreationDate,2021-12-22T01:00:50+09:00*
G04 #@! TF.ProjectId,m5-pantilt,6d352d70-616e-4746-996c-742e6b696361,1*
G04 #@! TF.SameCoordinates,PX5f5e100PY5f5e100*
G04 #@! TF.FileFunction,Legend,Top*
G04 #@! TF.FilePolarity,Positive*
%FSLAX46Y46*%
G04 Gerber Fmt 4.6, Leading zero omitted, Abs format (unit mm)*
G04 Created by KiCad (PCBNEW (5.1.5)-3) date 2021-12-22 01:00:50*
%MOMM*%
%LPD*%
G04 APERTURE LIST*
%ADD10C,0.120000*%
%ADD11C,0.150000*%
%ADD12C,0.300000*%
G04 APERTURE END LIST*
D10*
X29750000Y21000000D02*
X29750000Y18500000D01*
X32750000Y21000000D02*
X32750000Y18500000D01*
X26750000Y20000000D02*
X35250000Y20000000D01*
X26750000Y21000000D02*
X26750000Y18500000D01*
X35250000Y21000000D02*
X26750000Y21000000D01*
X35250000Y18500000D02*
X35250000Y21000000D01*
X26750000Y18500000D02*
X35250000Y18500000D01*
D11*
X27590476Y19400000D02*
X27514285Y19438096D01*
X27400000Y19438096D01*
X27285714Y19400000D01*
X27209523Y19323810D01*
X27171428Y19247620D01*
X27133333Y19095239D01*
X27133333Y18980953D01*
X27171428Y18828572D01*
X27209523Y18752381D01*
X27285714Y18676191D01*
X27400000Y18638096D01*
X27476190Y18638096D01*
X27590476Y18676191D01*
X27628571Y18714286D01*
X27628571Y18980953D01*
X27476190Y18980953D01*
X27971428Y18638096D02*
X27971428Y19438096D01*
X28428571Y18638096D01*
X28428571Y19438096D01*
X28809523Y18638096D02*
X28809523Y19438096D01*
X29000000Y19438096D01*
X29114285Y19400000D01*
X29190476Y19323810D01*
X29228571Y19247620D01*
X29266666Y19095239D01*
X29266666Y18980953D01*
X29228571Y18828572D01*
X29190476Y18752381D01*
X29114285Y18676191D01*
X29000000Y18638096D01*
X28809523Y18638096D01*
X30219047Y18942858D02*
X30828571Y18942858D01*
X30523809Y18638096D02*
X30523809Y19247620D01*
X31590476Y19438096D02*
X31209523Y19438096D01*
X31171428Y19057143D01*
X31209523Y19095239D01*
X31285714Y19133334D01*
X31476190Y19133334D01*
X31552380Y19095239D01*
X31590476Y19057143D01*
X31628571Y18980953D01*
X31628571Y18790477D01*
X31590476Y18714286D01*
X31552380Y18676191D01*
X31476190Y18638096D01*
X31285714Y18638096D01*
X31209523Y18676191D01*
X31171428Y18714286D01*
X31857142Y19438096D02*
X32123809Y18638096D01*
X32390476Y19438096D01*
X33228571Y18676191D02*
X33342857Y18638096D01*
X33533333Y18638096D01*
X33609523Y18676191D01*
X33647619Y18714286D01*
X33685714Y18790477D01*
X33685714Y18866667D01*
X33647619Y18942858D01*
X33609523Y18980953D01*
X33533333Y19019048D01*
X33380952Y19057143D01*
X33304761Y19095239D01*
X33266666Y19133334D01*
X33228571Y19209524D01*
X33228571Y19285715D01*
X33266666Y19361905D01*
X33304761Y19400000D01*
X33380952Y19438096D01*
X33571428Y19438096D01*
X33685714Y19400000D01*
X34028571Y18638096D02*
X34028571Y19438096D01*
X34828571Y19400000D02*
X34752380Y19438096D01*
X34638095Y19438096D01*
X34523809Y19400000D01*
X34447619Y19323810D01*
X34409523Y19247620D01*
X34371428Y19095239D01*
X34371428Y18980953D01*
X34409523Y18828572D01*
X34447619Y18752381D01*
X34523809Y18676191D01*
X34638095Y18638096D01*
X34714285Y18638096D01*
X34828571Y18676191D01*
X34866666Y18714286D01*
X34866666Y18980953D01*
X34714285Y18980953D01*
X27500000Y42640596D02*
X27547619Y42735834D01*
X27547619Y42878691D01*
X27500000Y43021548D01*
X27404761Y43116786D01*
X27309523Y43164405D01*
X27119047Y43212024D01*
X26976190Y43212024D01*
X26785714Y43164405D01*
X26690476Y43116786D01*
X26595238Y43021548D01*
X26547619Y42878691D01*
X26547619Y42783453D01*
X26595238Y42640596D01*
X26642857Y42592977D01*
X26976190Y42592977D01*
X26976190Y42783453D01*
X26547619Y42164405D02*
X27547619Y42164405D01*
X26547619Y41592977D01*
X27547619Y41592977D01*
X26547619Y41116786D02*
X27547619Y41116786D01*
X27547619Y40878691D01*
X27500000Y40735834D01*
X27404761Y40640596D01*
X27309523Y40592977D01*
X27119047Y40545358D01*
X26976190Y40545358D01*
X26785714Y40592977D01*
X26690476Y40640596D01*
X26595238Y40735834D01*
X26547619Y40878691D01*
X26547619Y41116786D01*
X28928571Y43164405D02*
X28928571Y42402500D01*
X28547619Y42783453D02*
X29309523Y42783453D01*
X29547619Y41450120D02*
X29547619Y41926310D01*
X29071428Y41973929D01*
X29119047Y41926310D01*
X29166666Y41831072D01*
X29166666Y41592977D01*
X29119047Y41497739D01*
X29071428Y41450120D01*
X28976190Y41402500D01*
X28738095Y41402500D01*
X28642857Y41450120D01*
X28595238Y41497739D01*
X28547619Y41592977D01*
X28547619Y41831072D01*
X28595238Y41926310D01*
X28642857Y41973929D01*
X29547619Y41116786D02*
X28547619Y40783453D01*
X29547619Y40450120D01*
X31500000Y42640596D02*
X31547619Y42735834D01*
X31547619Y42878691D01*
X31500000Y43021548D01*
X31404761Y43116786D01*
X31309523Y43164405D01*
X31119047Y43212024D01*
X30976190Y43212024D01*
X30785714Y43164405D01*
X30690476Y43116786D01*
X30595238Y43021548D01*
X30547619Y42878691D01*
X30547619Y42783453D01*
X30595238Y42640596D01*
X30642857Y42592977D01*
X30976190Y42592977D01*
X30976190Y42783453D01*
X31547619Y42259643D02*
X31547619Y41640596D01*
X31166666Y41973929D01*
X31166666Y41831072D01*
X31119047Y41735834D01*
X31071428Y41688215D01*
X30976190Y41640596D01*
X30738095Y41640596D01*
X30642857Y41688215D01*
X30595238Y41735834D01*
X30547619Y41831072D01*
X30547619Y42116786D01*
X30595238Y42212024D01*
X30642857Y42259643D01*
X31547619Y40783453D02*
X31547619Y40973929D01*
X31500000Y41069167D01*
X31452380Y41116786D01*
X31309523Y41212024D01*
X31119047Y41259643D01*
X30738095Y41259643D01*
X30642857Y41212024D01*
X30595238Y41164405D01*
X30547619Y41069167D01*
X30547619Y40878691D01*
X30595238Y40783453D01*
X30642857Y40735834D01*
X30738095Y40688215D01*
X30976190Y40688215D01*
X31071428Y40735834D01*
X31119047Y40783453D01*
X31166666Y40878691D01*
X31166666Y41069167D01*
X31119047Y41164405D01*
X31071428Y41212024D01*
X30976190Y41259643D01*
X33500000Y42640596D02*
X33547619Y42735834D01*
X33547619Y42878691D01*
X33500000Y43021548D01*
X33404761Y43116786D01*
X33309523Y43164405D01*
X33119047Y43212024D01*
X32976190Y43212024D01*
X32785714Y43164405D01*
X32690476Y43116786D01*
X32595238Y43021548D01*
X32547619Y42878691D01*
X32547619Y42783453D01*
X32595238Y42640596D01*
X32642857Y42592977D01*
X32976190Y42592977D01*
X32976190Y42783453D01*
X33452380Y42212024D02*
X33500000Y42164405D01*
X33547619Y42069167D01*
X33547619Y41831072D01*
X33500000Y41735834D01*
X33452380Y41688215D01*
X33357142Y41640596D01*
X33261904Y41640596D01*
X33119047Y41688215D01*
X32547619Y42259643D01*
X32547619Y41640596D01*
X33547619Y40783453D02*
X33547619Y40973929D01*
X33500000Y41069167D01*
X33452380Y41116786D01*
X33309523Y41212024D01*
X33119047Y41259643D01*
X32738095Y41259643D01*
X32642857Y41212024D01*
X32595238Y41164405D01*
X32547619Y41069167D01*
X32547619Y40878691D01*
X32595238Y40783453D01*
X32642857Y40735834D01*
X32738095Y40688215D01*
X32976190Y40688215D01*
X33071428Y40735834D01*
X33119047Y40783453D01*
X33166666Y40878691D01*
X33166666Y41069167D01*
X33119047Y41164405D01*
X33071428Y41212024D01*
X32976190Y41259643D01*
X14500000Y42640596D02*
X14547619Y42735834D01*
X14547619Y42878691D01*
X14500000Y43021548D01*
X14404761Y43116786D01*
X14309523Y43164405D01*
X14119047Y43212024D01*
X13976190Y43212024D01*
X13785714Y43164405D01*
X13690476Y43116786D01*
X13595238Y43021548D01*
X13547619Y42878691D01*
X13547619Y42783453D01*
X13595238Y42640596D01*
X13642857Y42592977D01*
X13976190Y42592977D01*
X13976190Y42783453D01*
X13547619Y42164405D02*
X14547619Y42164405D01*
X13547619Y41592977D01*
X14547619Y41592977D01*
X13547619Y41116786D02*
X14547619Y41116786D01*
X14547619Y40878691D01*
X14500000Y40735834D01*
X14404761Y40640596D01*
X14309523Y40592977D01*
X14119047Y40545358D01*
X13976190Y40545358D01*
X13785714Y40592977D01*
X13690476Y40640596D01*
X13595238Y40735834D01*
X13547619Y40878691D01*
X13547619Y41116786D01*
X15928571Y43479405D02*
X15928571Y42717500D01*
X15547619Y43098453D02*
X16309523Y43098453D01*
X16547619Y41765120D02*
X16547619Y42241310D01*
X16071428Y42288929D01*
X16119047Y42241310D01*
X16166666Y42146072D01*
X16166666Y41907977D01*
X16119047Y41812739D01*
X16071428Y41765120D01*
X15976190Y41717500D01*
X15738095Y41717500D01*
X15642857Y41765120D01*
X15595238Y41812739D01*
X15547619Y41907977D01*
X15547619Y42146072D01*
X15595238Y42241310D01*
X15642857Y42288929D01*
X16547619Y41431786D02*
X15547619Y41098453D01*
X16547619Y40765120D01*
X17547619Y42907977D02*
X18023809Y43241310D01*
X17547619Y43479405D02*
X18547619Y43479405D01*
X18547619Y43098453D01*
X18500000Y43003215D01*
X18452380Y42955596D01*
X18357142Y42907977D01*
X18214285Y42907977D01*
X18119047Y42955596D01*
X18071428Y43003215D01*
X18023809Y43098453D01*
X18023809Y43479405D01*
X18547619Y42574643D02*
X17547619Y41907977D01*
X18547619Y41907977D02*
X17547619Y42574643D01*
X20547619Y43622262D02*
X20547619Y43050834D01*
X19547619Y43336548D02*
X20547619Y43336548D01*
X20547619Y42812739D02*
X19547619Y42146072D01*
X20547619Y42146072D02*
X19547619Y42812739D01*
X8716190Y25947620D02*
X9335238Y25947620D01*
X9001904Y25566667D01*
X9144761Y25566667D01*
X9240000Y25519048D01*
X9287619Y25471429D01*
X9335238Y25376191D01*
X9335238Y25138096D01*
X9287619Y25042858D01*
X9240000Y24995239D01*
X9144761Y24947620D01*
X8859047Y24947620D01*
X8763809Y24995239D01*
X8716190Y25042858D01*
X9763809Y25328572D02*
X10525714Y25328572D01*
X10954285Y24995239D02*
X11049523Y24947620D01*
X11240000Y24947620D01*
X11335238Y24995239D01*
X11382857Y25090477D01*
X11382857Y25138096D01*
X11335238Y25233334D01*
X11240000Y25280953D01*
X11097142Y25280953D01*
X11001904Y25328572D01*
X10954285Y25423810D01*
X10954285Y25471429D01*
X11001904Y25566667D01*
X11097142Y25614286D01*
X11240000Y25614286D01*
X11335238Y25566667D01*
X11668571Y25614286D02*
X12049523Y25614286D01*
X11811428Y25947620D02*
X11811428Y25090477D01*
X11859047Y24995239D01*
X11954285Y24947620D01*
X12049523Y24947620D01*
X12811428Y24947620D02*
X12811428Y25471429D01*
X12763809Y25566667D01*
X12668571Y25614286D01*
X12478095Y25614286D01*
X12382857Y25566667D01*
X12811428Y24995239D02*
X12716190Y24947620D01*
X12478095Y24947620D01*
X12382857Y24995239D01*
X12335238Y25090477D01*
X12335238Y25185715D01*
X12382857Y25280953D01*
X12478095Y25328572D01*
X12716190Y25328572D01*
X12811428Y25376191D01*
X13144761Y25614286D02*
X13525714Y25614286D01*
X13287619Y25947620D02*
X13287619Y25090477D01*
X13335238Y24995239D01*
X13430476Y24947620D01*
X13525714Y24947620D01*
X14240000Y24995239D02*
X14144761Y24947620D01*
X13954285Y24947620D01*
X13859047Y24995239D01*
X13811428Y25090477D01*
X13811428Y25471429D01*
X13859047Y25566667D01*
X13954285Y25614286D01*
X14144761Y25614286D01*
X14240000Y25566667D01*
X14287619Y25471429D01*
X14287619Y25376191D01*
X13811428Y25280953D01*
X15478095Y24947620D02*
X15478095Y25947620D01*
X15478095Y25566667D02*
X15573333Y25614286D01*
X15763809Y25614286D01*
X15859047Y25566667D01*
X15906666Y25519048D01*
X15954285Y25423810D01*
X15954285Y25138096D01*
X15906666Y25042858D01*
X15859047Y24995239D01*
X15763809Y24947620D01*
X15573333Y24947620D01*
X15478095Y24995239D01*
X16811428Y25614286D02*
X16811428Y24947620D01*
X16382857Y25614286D02*
X16382857Y25090477D01*
X16430476Y24995239D01*
X16525714Y24947620D01*
X16668571Y24947620D01*
X16763809Y24995239D01*
X16811428Y25042858D01*
X17144761Y25614286D02*
X17525714Y25614286D01*
X17287619Y24947620D02*
X17287619Y25804762D01*
X17335238Y25900000D01*
X17430476Y25947620D01*
X17525714Y25947620D01*
X17716190Y25614286D02*
X18097142Y25614286D01*
X17859047Y24947620D02*
X17859047Y25804762D01*
X17906666Y25900000D01*
X18001904Y25947620D01*
X18097142Y25947620D01*
X18811428Y24995239D02*
X18716190Y24947620D01*
X18525714Y24947620D01*
X18430476Y24995239D01*
X18382857Y25090477D01*
X18382857Y25471429D01*
X18430476Y25566667D01*
X18525714Y25614286D01*
X18716190Y25614286D01*
X18811428Y25566667D01*
X18859047Y25471429D01*
X18859047Y25376191D01*
X18382857Y25280953D01*
X19287619Y24947620D02*
X19287619Y25614286D01*
X19287619Y25423810D02*
X19335238Y25519048D01*
X19382857Y25566667D01*
X19478095Y25614286D01*
X19573333Y25614286D01*
X20668571Y24947620D02*
X20668571Y25947620D01*
X21716190Y25042858D02*
X21668571Y24995239D01*
X21525714Y24947620D01*
X21430476Y24947620D01*
X21287619Y24995239D01*
X21192380Y25090477D01*
X21144761Y25185715D01*
X21097142Y25376191D01*
X21097142Y25519048D01*
X21144761Y25709524D01*
X21192380Y25804762D01*
X21287619Y25900000D01*
X21430476Y25947620D01*
X21525714Y25947620D01*
X21668571Y25900000D01*
X21716190Y25852381D01*
X40655952Y39282620D02*
X40846428Y39282620D01*
X40941666Y39235000D01*
X41036904Y39139762D01*
X41084523Y38949286D01*
X41084523Y38615953D01*
X41036904Y38425477D01*
X40941666Y38330239D01*
X40846428Y38282620D01*
X40655952Y38282620D01*
X40560714Y38330239D01*
X40465476Y38425477D01*
X40417857Y38615953D01*
X40417857Y38949286D01*
X40465476Y39139762D01*
X40560714Y39235000D01*
X40655952Y39282620D01*
X41513095Y38282620D02*
X41513095Y39282620D01*
X42084523Y38282620D01*
X42084523Y39282620D01*
D10*
X40005000Y36195000D02*
X39370000Y36195000D01*
X40005000Y41910000D02*
X40005000Y36195000D01*
X39370000Y41910000D02*
X40005000Y41910000D01*
D11*
X42500000Y6640596D02*
X42547619Y6735834D01*
X42547619Y6878691D01*
X42500000Y7021548D01*
X42404761Y7116786D01*
X42309523Y7164405D01*
X42119047Y7212024D01*
X41976190Y7212024D01*
X41785714Y7164405D01*
X41690476Y7116786D01*
X41595238Y7021548D01*
X41547619Y6878691D01*
X41547619Y6783453D01*
X41595238Y6640596D01*
X41642857Y6592977D01*
X41976190Y6592977D01*
X41976190Y6783453D01*
X41547619Y6164405D02*
X42547619Y6164405D01*
X41547619Y5592977D01*
X42547619Y5592977D01*
X41547619Y5116786D02*
X42547619Y5116786D01*
X42547619Y4878691D01*
X42500000Y4735834D01*
X42404761Y4640596D01*
X42309523Y4592977D01*
X42119047Y4545358D01*
X41976190Y4545358D01*
X41785714Y4592977D01*
X41690476Y4640596D01*
X41595238Y4735834D01*
X41547619Y4878691D01*
X41547619Y5116786D01*
X39928571Y7164405D02*
X39928571Y6402500D01*
X39547619Y6783453D02*
X40309523Y6783453D01*
X40547619Y6069167D02*
X39547619Y5735834D01*
X40547619Y5402500D01*
X40071428Y4735834D02*
X40023809Y4592977D01*
X39976190Y4545358D01*
X39880952Y4497739D01*
X39738095Y4497739D01*
X39642857Y4545358D01*
X39595238Y4592977D01*
X39547619Y4688215D01*
X39547619Y5069167D01*
X40547619Y5069167D01*
X40547619Y4735834D01*
X40500000Y4640596D01*
X40452380Y4592977D01*
X40357142Y4545358D01*
X40261904Y4545358D01*
X40166666Y4592977D01*
X40119047Y4640596D01*
X40071428Y4735834D01*
X40071428Y5069167D01*
X39833333Y4116786D02*
X39833333Y3640596D01*
X39547619Y4212024D02*
X40547619Y3878691D01*
X39547619Y3545358D01*
X40547619Y3354881D02*
X40547619Y2783453D01*
X39547619Y3069167D02*
X40547619Y3069167D01*
X17170476Y5480000D02*
X17094285Y5518096D01*
X16980000Y5518096D01*
X16865714Y5480000D01*
X16789523Y5403810D01*
X16751428Y5327620D01*
X16713333Y5175239D01*
X16713333Y5060953D01*
X16751428Y4908572D01*
X16789523Y4832381D01*
X16865714Y4756191D01*
X16980000Y4718096D01*
X17056190Y4718096D01*
X17170476Y4756191D01*
X17208571Y4794286D01*
X17208571Y5060953D01*
X17056190Y5060953D01*
X17551428Y4718096D02*
X17551428Y5518096D01*
X18008571Y4718096D01*
X18008571Y5518096D01*
X18389523Y4718096D02*
X18389523Y5518096D01*
X18580000Y5518096D01*
X18694285Y5480000D01*
X18770476Y5403810D01*
X18808571Y5327620D01*
X18846666Y5175239D01*
X18846666Y5060953D01*
X18808571Y4908572D01*
X18770476Y4832381D01*
X18694285Y4756191D01*
X18580000Y4718096D01*
X18389523Y4718096D01*
X16751428Y7562858D02*
X17360952Y7562858D01*
X17056190Y7258096D02*
X17056190Y7867620D01*
X18122857Y8058096D02*
X17741904Y8058096D01*
X17703809Y7677143D01*
X17741904Y7715239D01*
X17818095Y7753334D01*
X18008571Y7753334D01*
X18084761Y7715239D01*
X18122857Y7677143D01*
X18160952Y7600953D01*
X18160952Y7410477D01*
X18122857Y7334286D01*
X18084761Y7296191D01*
X18008571Y7258096D01*
X17818095Y7258096D01*
X17741904Y7296191D01*
X17703809Y7334286D01*
X18389523Y8058096D02*
X18656190Y7258096D01*
X18922857Y8058096D01*
X15904761Y39547620D02*
X15904761Y38738096D01*
X15952380Y38642858D01*
X16000000Y38595239D01*
X16095238Y38547620D01*
X16285714Y38547620D01*
X16380952Y38595239D01*
X16428571Y38642858D01*
X16476190Y38738096D01*
X16476190Y39547620D01*
X16904761Y38833334D02*
X17380952Y38833334D01*
X16809523Y38547620D02*
X17142857Y39547620D01*
X17476190Y38547620D01*
X18380952Y38547620D02*
X18047619Y39023810D01*
X17809523Y38547620D02*
X17809523Y39547620D01*
X18190476Y39547620D01*
X18285714Y39500000D01*
X18333333Y39452381D01*
X18380952Y39357143D01*
X18380952Y39214286D01*
X18333333Y39119048D01*
X18285714Y39071429D01*
X18190476Y39023810D01*
X17809523Y39023810D01*
X18666666Y39547620D02*
X19238095Y39547620D01*
X18952380Y38547620D02*
X18952380Y39547620D01*
X29297619Y38547620D02*
X29297619Y39547620D01*
X29630952Y38833334D01*
X29964285Y39547620D01*
X29964285Y38547620D01*
X30440476Y38928572D02*
X31202380Y38928572D01*
X32011904Y39071429D02*
X32154761Y39023810D01*
X32202380Y38976191D01*
X32250000Y38880953D01*
X32250000Y38738096D01*
X32202380Y38642858D01*
X32154761Y38595239D01*
X32059523Y38547620D01*
X31678571Y38547620D01*
X31678571Y39547620D01*
X32011904Y39547620D01*
X32107142Y39500000D01*
X32154761Y39452381D01*
X32202380Y39357143D01*
X32202380Y39261905D01*
X32154761Y39166667D01*
X32107142Y39119048D01*
X32011904Y39071429D01*
X31678571Y39071429D01*
X32678571Y39547620D02*
X32678571Y38738096D01*
X32726190Y38642858D01*
X32773809Y38595239D01*
X32869047Y38547620D01*
X33059523Y38547620D01*
X33154761Y38595239D01*
X33202380Y38642858D01*
X33250000Y38738096D01*
X33250000Y39547620D01*
X33678571Y38595239D02*
X33821428Y38547620D01*
X34059523Y38547620D01*
X34154761Y38595239D01*
X34202380Y38642858D01*
X34250000Y38738096D01*
X34250000Y38833334D01*
X34202380Y38928572D01*
X34154761Y38976191D01*
X34059523Y39023810D01*
X33869047Y39071429D01*
X33773809Y39119048D01*
X33726190Y39166667D01*
X33678571Y39261905D01*
X33678571Y39357143D01*
X33726190Y39452381D01*
X33773809Y39500000D01*
X33869047Y39547620D01*
X34107142Y39547620D01*
X34250000Y39500000D01*
X9476190Y33697620D02*
X9476190Y32888096D01*
X9523809Y32792858D01*
X9571428Y32745239D01*
X9666666Y32697620D01*
X9857142Y32697620D01*
X9952380Y32745239D01*
X10000000Y32792858D01*
X10047619Y32888096D01*
X10047619Y33697620D01*
X11047619Y32697620D02*
X10476190Y32697620D01*
X10761904Y32697620D02*
X10761904Y33697620D01*
X10666666Y33554762D01*
X10571428Y33459524D01*
X10476190Y33411905D01*
X11523809Y33697620D02*
X11428571Y33507143D01*
X11904761Y32745239D02*
X12000000Y32697620D01*
X12190476Y32697620D01*
X12285714Y32745239D01*
X12333333Y32840477D01*
X12333333Y32888096D01*
X12285714Y32983334D01*
X12190476Y33030953D01*
X12047619Y33030953D01*
X11952380Y33078572D01*
X11904761Y33173810D01*
X11904761Y33221429D01*
X11952380Y33316667D01*
X12047619Y33364286D01*
X12190476Y33364286D01*
X12285714Y33316667D01*
X13428571Y33697620D02*
X14095238Y33697620D01*
X13666666Y32697620D01*
X14333333Y33364286D02*
X14714285Y33364286D01*
X14476190Y33697620D02*
X14476190Y32840477D01*
X14523809Y32745239D01*
X14619047Y32697620D01*
X14714285Y32697620D01*
X15047619Y32697620D02*
X15047619Y33697620D01*
X15476190Y32697620D02*
X15476190Y33221429D01*
X15428571Y33316667D01*
X15333333Y33364286D01*
X15190476Y33364286D01*
X15095238Y33316667D01*
X15047619Y33269048D01*
X16714285Y33364286D02*
X16714285Y32364286D01*
X16714285Y33316667D02*
X16809523Y33364286D01*
X17000000Y33364286D01*
X17095238Y33316667D01*
X17142857Y33269048D01*
X17190476Y33173810D01*
X17190476Y32888096D01*
X17142857Y32792858D01*
X17095238Y32745239D01*
X17000000Y32697620D01*
X16809523Y32697620D01*
X16714285Y32745239D01*
X17619047Y32697620D02*
X17619047Y33364286D01*
X17619047Y33697620D02*
X17571428Y33650000D01*
X17619047Y33602381D01*
X17666666Y33650000D01*
X17619047Y33697620D01*
X17619047Y33602381D01*
X18095238Y33364286D02*
X18095238Y32697620D01*
X18095238Y33269048D02*
X18142857Y33316667D01*
X18238095Y33364286D01*
X18380952Y33364286D01*
X18476190Y33316667D01*
X18523809Y33221429D01*
X18523809Y32697620D01*
X8833333Y31714286D02*
X8833333Y30714286D01*
X8833333Y31666667D02*
X8928571Y31714286D01*
X9119047Y31714286D01*
X9214285Y31666667D01*
X9261904Y31619048D01*
X9309523Y31523810D01*
X9309523Y31238096D01*
X9261904Y31142858D01*
X9214285Y31095239D01*
X9119047Y31047620D01*
X8928571Y31047620D01*
X8833333Y31095239D01*
X10166666Y31714286D02*
X10166666Y31047620D01*
X9738095Y31714286D02*
X9738095Y31190477D01*
X9785714Y31095239D01*
X9880952Y31047620D01*
X10023809Y31047620D01*
X10119047Y31095239D01*
X10166666Y31142858D01*
X10785714Y31047620D02*
X10690476Y31095239D01*
X10642857Y31190477D01*
X10642857Y32047620D01*
X11309523Y31047620D02*
X11214285Y31095239D01*
X11166666Y31190477D01*
X11166666Y32047620D01*
X11690476Y31428572D02*
X12452380Y31428572D01*
X13357142Y31714286D02*
X13357142Y31047620D01*
X12928571Y31714286D02*
X12928571Y31190477D01*
X12976190Y31095239D01*
X13071428Y31047620D01*
X13214285Y31047620D01*
X13309523Y31095239D01*
X13357142Y31142858D01*
X13833333Y31714286D02*
X13833333Y30714286D01*
X13833333Y31666667D02*
X13928571Y31714286D01*
X14119047Y31714286D01*
X14214285Y31666667D01*
X14261904Y31619048D01*
X14309523Y31523810D01*
X14309523Y31238096D01*
X14261904Y31142858D01*
X14214285Y31095239D01*
X14119047Y31047620D01*
X13928571Y31047620D01*
X13833333Y31095239D01*
X14738095Y31142858D02*
X14785714Y31095239D01*
X14738095Y31047620D01*
X14690476Y31095239D01*
X14738095Y31142858D01*
X14738095Y31047620D01*
X14738095Y31666667D02*
X14785714Y31619048D01*
X14738095Y31571429D01*
X14690476Y31619048D01*
X14738095Y31666667D01*
X14738095Y31571429D01*
X16261904Y32047620D02*
X16261904Y31333334D01*
X16214285Y31190477D01*
X16119047Y31095239D01*
X15976190Y31047620D01*
X15880952Y31047620D01*
X16738095Y31047620D02*
X16738095Y32047620D01*
X17119047Y32047620D01*
X17214285Y32000000D01*
X17261904Y31952381D01*
X17309523Y31857143D01*
X17309523Y31714286D01*
X17261904Y31619048D01*
X17214285Y31571429D01*
X17119047Y31523810D01*
X16738095Y31523810D01*
X18261904Y31047620D02*
X17690476Y31047620D01*
X17976190Y31047620D02*
X17976190Y32047620D01*
X17880952Y31904762D01*
X17785714Y31809524D01*
X17690476Y31761905D01*
X18880952Y32047620D02*
X18976190Y32047620D01*
X19071428Y32000000D01*
X19119047Y31952381D01*
X19166666Y31857143D01*
X19214285Y31666667D01*
X19214285Y31428572D01*
X19166666Y31238096D01*
X19119047Y31142858D01*
X19071428Y31095239D01*
X18976190Y31047620D01*
X18880952Y31047620D01*
X18785714Y31095239D01*
X18738095Y31142858D01*
X18690476Y31238096D01*
X18642857Y31428572D01*
X18642857Y31666667D01*
X18690476Y31857143D01*
X18738095Y31952381D01*
X18785714Y32000000D01*
X18880952Y32047620D01*
X8333333Y30064286D02*
X8333333Y29064286D01*
X8333333Y30016667D02*
X8428571Y30064286D01*
X8619047Y30064286D01*
X8714285Y30016667D01*
X8761904Y29969048D01*
X8809523Y29873810D01*
X8809523Y29588096D01*
X8761904Y29492858D01*
X8714285Y29445239D01*
X8619047Y29397620D01*
X8428571Y29397620D01*
X8333333Y29445239D01*
X9666666Y30064286D02*
X9666666Y29397620D01*
X9238095Y30064286D02*
X9238095Y29540477D01*
X9285714Y29445239D01*
X9380952Y29397620D01*
X9523809Y29397620D01*
X9619047Y29445239D01*
X9666666Y29492858D01*
X10285714Y29397620D02*
X10190476Y29445239D01*
X10142857Y29540477D01*
X10142857Y30397620D01*
X10809523Y29397620D02*
X10714285Y29445239D01*
X10666666Y29540477D01*
X10666666Y30397620D01*
X11190476Y29778572D02*
X11952380Y29778572D01*
X12857142Y29397620D02*
X12857142Y30397620D01*
X12857142Y29445239D02*
X12761904Y29397620D01*
X12571428Y29397620D01*
X12476190Y29445239D01*
X12428571Y29492858D01*
X12380952Y29588096D01*
X12380952Y29873810D01*
X12428571Y29969048D01*
X12476190Y30016667D01*
X12571428Y30064286D01*
X12761904Y30064286D01*
X12857142Y30016667D01*
X13476190Y29397620D02*
X13380952Y29445239D01*
X13333333Y29492858D01*
X13285714Y29588096D01*
X13285714Y29873810D01*
X13333333Y29969048D01*
X13380952Y30016667D01*
X13476190Y30064286D01*
X13619047Y30064286D01*
X13714285Y30016667D01*
X13761904Y29969048D01*
X13809523Y29873810D01*
X13809523Y29588096D01*
X13761904Y29492858D01*
X13714285Y29445239D01*
X13619047Y29397620D01*
X13476190Y29397620D01*
X14142857Y30064286D02*
X14333333Y29397620D01*
X14523809Y29873810D01*
X14714285Y29397620D01*
X14904761Y30064286D01*
X15285714Y30064286D02*
X15285714Y29397620D01*
X15285714Y29969048D02*
X15333333Y30016667D01*
X15428571Y30064286D01*
X15571428Y30064286D01*
X15666666Y30016667D01*
X15714285Y29921429D01*
X15714285Y29397620D01*
X16190476Y29492858D02*
X16238095Y29445239D01*
X16190476Y29397620D01*
X16142857Y29445239D01*
X16190476Y29492858D01*
X16190476Y29397620D01*
X16190476Y30016667D02*
X16238095Y29969048D01*
X16190476Y29921429D01*
X16142857Y29969048D01*
X16190476Y30016667D01*
X16190476Y29921429D01*
X17714285Y30397620D02*
X17714285Y29683334D01*
X17666666Y29540477D01*
X17571428Y29445239D01*
X17428571Y29397620D01*
X17333333Y29397620D01*
X18190476Y29397620D02*
X18190476Y30397620D01*
X18571428Y30397620D01*
X18666666Y30350000D01*
X18714285Y30302381D01*
X18761904Y30207143D01*
X18761904Y30064286D01*
X18714285Y29969048D01*
X18666666Y29921429D01*
X18571428Y29873810D01*
X18190476Y29873810D01*
X19238095Y29397620D02*
X19428571Y29397620D01*
X19523809Y29445239D01*
X19571428Y29492858D01*
X19666666Y29635715D01*
X19714285Y29826191D01*
X19714285Y30207143D01*
X19666666Y30302381D01*
X19619047Y30350000D01*
X19523809Y30397620D01*
X19333333Y30397620D01*
X19238095Y30350000D01*
X19190476Y30302381D01*
X19142857Y30207143D01*
X19142857Y29969048D01*
X19190476Y29873810D01*
X19238095Y29826191D01*
X19333333Y29778572D01*
X19523809Y29778572D01*
X19619047Y29826191D01*
X19666666Y29873810D01*
X19714285Y29969048D01*
D10*
X27305000Y10795000D02*
X27305000Y9525000D01*
X26670000Y10160000D02*
X27940000Y10160000D01*
D11*
X42958066Y15132000D02*
X42881876Y15170096D01*
X42767590Y15170096D01*
X42653304Y15132000D01*
X42577114Y15055810D01*
X42539019Y14979620D01*
X42500923Y14827239D01*
X42500923Y14712953D01*
X42539019Y14560572D01*
X42577114Y14484381D01*
X42653304Y14408191D01*
X42767590Y14370096D01*
X42843780Y14370096D01*
X42958066Y14408191D01*
X42996161Y14446286D01*
X42996161Y14712953D01*
X42843780Y14712953D01*
X43339019Y14370096D02*
X43339019Y15170096D01*
X43643780Y15170096D01*
X43719971Y15132000D01*
X43758066Y15093905D01*
X43796161Y15017715D01*
X43796161Y14903429D01*
X43758066Y14827239D01*
X43719971Y14789143D01*
X43643780Y14751048D01*
X43339019Y14751048D01*
X44139019Y14370096D02*
X44139019Y15170096D01*
X44672352Y15170096D02*
X44824733Y15170096D01*
X44900923Y15132000D01*
X44977114Y15055810D01*
X45015209Y14903429D01*
X45015209Y14636762D01*
X44977114Y14484381D01*
X44900923Y14408191D01*
X44824733Y14370096D01*
X44672352Y14370096D01*
X44596161Y14408191D01*
X44519971Y14484381D01*
X44481876Y14636762D01*
X44481876Y14903429D01*
X44519971Y15055810D01*
X44596161Y15132000D01*
X44672352Y15170096D01*
X45739019Y15170096D02*
X45358066Y15170096D01*
X45319971Y14789143D01*
X45358066Y14827239D01*
X45434257Y14865334D01*
X45624733Y14865334D01*
X45700923Y14827239D01*
X45739019Y14789143D01*
X45777114Y14712953D01*
X45777114Y14522477D01*
X45739019Y14446286D01*
X45700923Y14408191D01*
X45624733Y14370096D01*
X45434257Y14370096D01*
X45358066Y14408191D01*
X45319971Y14446286D01*
X46691400Y15208191D02*
X46005685Y14179620D01*
X46843780Y15170096D02*
X47300923Y15170096D01*
X47072352Y14370096D02*
X47072352Y15170096D01*
X47453304Y15170096D02*
X47910447Y15170096D01*
X47681876Y14370096D02*
X47681876Y15170096D01*
X48558066Y14370096D02*
X48177114Y14370096D01*
X48177114Y15170096D01*
X42958066Y22701200D02*
X42881876Y22739296D01*
X42767590Y22739296D01*
X42653304Y22701200D01*
X42577114Y22625010D01*
X42539019Y22548820D01*
X42500923Y22396439D01*
X42500923Y22282153D01*
X42539019Y22129772D01*
X42577114Y22053581D01*
X42653304Y21977391D01*
X42767590Y21939296D01*
X42843780Y21939296D01*
X42958066Y21977391D01*
X42996161Y22015486D01*
X42996161Y22282153D01*
X42843780Y22282153D01*
X43339019Y21939296D02*
X43339019Y22739296D01*
X43643780Y22739296D01*
X43719971Y22701200D01*
X43758066Y22663105D01*
X43796161Y22586915D01*
X43796161Y22472629D01*
X43758066Y22396439D01*
X43719971Y22358343D01*
X43643780Y22320248D01*
X43339019Y22320248D01*
X44139019Y21939296D02*
X44139019Y22739296D01*
X44672352Y22739296D02*
X44824733Y22739296D01*
X44900923Y22701200D01*
X44977114Y22625010D01*
X45015209Y22472629D01*
X45015209Y22205962D01*
X44977114Y22053581D01*
X44900923Y21977391D01*
X44824733Y21939296D01*
X44672352Y21939296D01*
X44596161Y21977391D01*
X44519971Y22053581D01*
X44481876Y22205962D01*
X44481876Y22472629D01*
X44519971Y22625010D01*
X44596161Y22701200D01*
X44672352Y22739296D01*
X45319971Y22663105D02*
X45358066Y22701200D01*
X45434257Y22739296D01*
X45624733Y22739296D01*
X45700923Y22701200D01*
X45739019Y22663105D01*
X45777114Y22586915D01*
X45777114Y22510724D01*
X45739019Y22396439D01*
X45281876Y21939296D01*
X45777114Y21939296D01*
X46691400Y22777391D02*
X46005685Y21748820D01*
X46843780Y22739296D02*
X47300923Y22739296D01*
X47072352Y21939296D02*
X47072352Y22739296D01*
X47453304Y22739296D02*
X47910447Y22739296D01*
X47681876Y21939296D02*
X47681876Y22739296D01*
X48558066Y21939296D02*
X48177114Y21939296D01*
X48177114Y22739296D01*
D12*
X45840742Y43786343D02*
X46069314Y43786343D01*
X46183600Y43729200D01*
X46297885Y43614915D01*
X46355028Y43386343D01*
X46355028Y42986343D01*
X46297885Y42757772D01*
X46183600Y42643486D01*
X46069314Y42586343D01*
X45840742Y42586343D01*
X45726457Y42643486D01*
X45612171Y42757772D01*
X45555028Y42986343D01*
X45555028Y43386343D01*
X45612171Y43614915D01*
X45726457Y43729200D01*
X45840742Y43786343D01*
X46869314Y42586343D02*
X46869314Y43786343D01*
X47555028Y42586343D01*
X47555028Y43786343D01*
D10*
X24895000Y30210000D02*
X24895000Y28210000D01*
X22095000Y30210000D02*
X24895000Y30210000D01*
X22095000Y28210000D02*
X22095000Y30210000D01*
X24895000Y28210000D02*
X22095000Y28210000D01*
X24880000Y25670000D02*
X22080000Y25670000D01*
X22080000Y25670000D02*
X22080000Y27670000D01*
X22080000Y27670000D02*
X24880000Y27670000D01*
X24880000Y27670000D02*
X24880000Y25670000D01*
X19443933Y24402100D02*
X16604000Y24402100D01*
X17564067Y22141500D02*
X19443933Y22141500D01*
X36516000Y15434000D02*
X36516000Y16764000D01*
X37846000Y15434000D02*
X36516000Y15434000D01*
X36516000Y18034000D02*
X36516000Y20634000D01*
X39116000Y18034000D02*
X36516000Y18034000D01*
X39116000Y15434000D02*
X39116000Y18034000D01*
X36516000Y20634000D02*
X44256000Y20634000D01*
X39116000Y15434000D02*
X44256000Y15434000D01*
X44256000Y15434000D02*
X44256000Y20634000D01*
X33860000Y45140000D02*
X33860000Y43925000D01*
X33800000Y49100000D02*
X33800000Y51360000D01*
X33300000Y49100000D02*
X33300000Y51360000D01*
X26700000Y47500000D02*
X25700000Y47500000D01*
X26700000Y49100000D02*
X26700000Y47500000D01*
X25700000Y49100000D02*
X26700000Y49100000D01*
X25700000Y47500000D02*
X25700000Y49100000D01*
X33300000Y47500000D02*
X34300000Y47500000D01*
X33300000Y49100000D02*
X33300000Y47500000D01*
X34300000Y49100000D02*
X33300000Y49100000D01*
X34300000Y47500000D02*
X34300000Y49100000D01*
X24940000Y45140000D02*
X25860000Y45140000D01*
X35060000Y45140000D02*
X34140000Y45140000D01*
X27500000Y47000000D02*
X27500000Y51360000D01*
X32500000Y47000000D02*
X27500000Y47000000D01*
X32500000Y51360000D02*
X32500000Y47000000D01*
X25860000Y45140000D02*
X26140000Y45140000D01*
X25860000Y43540000D02*
X25860000Y45140000D01*
X24940000Y43540000D02*
X25860000Y43540000D01*
X24940000Y51360000D02*
X24940000Y43540000D01*
X35060000Y51360000D02*
X24940000Y51360000D01*
X35060000Y43540000D02*
X35060000Y51360000D01*
X34140000Y43540000D02*
X35060000Y43540000D01*
X34140000Y45140000D02*
X34140000Y43540000D01*
X33860000Y45140000D02*
X34140000Y45140000D01*
X23234733Y31240000D02*
X23577267Y31240000D01*
X23234733Y32260000D02*
X23577267Y32260000D01*
X23577267Y21994400D02*
X23234733Y21994400D01*
X23577267Y23014400D02*
X23234733Y23014400D01*
X29686000Y14218600D02*
G75*
G03X29686000Y14218600I-3270000J0D01*
G01*
X44256000Y23054000D02*
X44256000Y28254000D01*
X39116000Y23054000D02*
X44256000Y23054000D01*
X36516000Y28254000D02*
X44256000Y28254000D01*
X39116000Y23054000D02*
X39116000Y25654000D01*
X39116000Y25654000D02*
X36516000Y25654000D01*
X36516000Y25654000D02*
X36516000Y28254000D01*
X37846000Y23054000D02*
X36516000Y23054000D01*
X36516000Y23054000D02*
X36516000Y24384000D01*
X37150000Y44200000D02*
X42350000Y44200000D01*
X42350000Y30200000D02*
X37150000Y30200000D01*
X36400000Y32250000D02*
X36400000Y42150000D01*
X43100000Y42150000D02*
X43100000Y32250000D01*
X36750000Y29900000D02*
X35450000Y29900000D01*
X35450000Y29900000D02*
X35450000Y31200000D01*
X38000000Y12410000D02*
X38000000Y7690000D01*
X38000000Y7690000D02*
X44120000Y7690000D01*
X44120000Y7690000D02*
X44120000Y12410000D01*
X44120000Y12410000D02*
X38000000Y12410000D01*
X39760000Y12410000D02*
X39760000Y12610000D01*
X39760000Y12610000D02*
X39460000Y12610000D01*
X39460000Y12610000D02*
X39460000Y12410000D01*
X39760000Y12510000D02*
X39460000Y12510000D01*
X40560000Y12410000D02*
X40560000Y11800000D01*
X40560000Y11800000D02*
X38610000Y11800000D01*
X38610000Y11800000D02*
X38610000Y8300000D01*
X38610000Y8300000D02*
X43510000Y8300000D01*
X43510000Y8300000D02*
X43510000Y11800000D01*
X43510000Y11800000D02*
X41560000Y11800000D01*
X41560000Y11800000D02*
X41560000Y12410000D01*
X38000000Y11100000D02*
X38610000Y11100000D01*
X38000000Y9800000D02*
X38610000Y9800000D01*
X44120000Y11100000D02*
X43510000Y11100000D01*
X44120000Y9800000D02*
X43510000Y9800000D01*
X40960000Y8300000D02*
X40960000Y8800000D01*
X40960000Y8800000D02*
X41160000Y8800000D01*
X41160000Y8800000D02*
X41160000Y8300000D01*
X41060000Y8300000D02*
X41060000Y8800000D01*
X38950000Y12710000D02*
X37700000Y12710000D01*
X37700000Y12710000D02*
X37700000Y11460000D01*
X20860000Y45140000D02*
X21140000Y45140000D01*
X21140000Y45140000D02*
X21140000Y43540000D01*
X21140000Y43540000D02*
X22060000Y43540000D01*
X22060000Y43540000D02*
X22060000Y51360000D01*
X22060000Y51360000D02*
X11940000Y51360000D01*
X11940000Y51360000D02*
X11940000Y43540000D01*
X11940000Y43540000D02*
X12860000Y43540000D01*
X12860000Y43540000D02*
X12860000Y45140000D01*
X12860000Y45140000D02*
X13140000Y45140000D01*
X19500000Y51360000D02*
X19500000Y47000000D01*
X19500000Y47000000D02*
X14500000Y47000000D01*
X14500000Y47000000D02*
X14500000Y51360000D01*
X22060000Y45140000D02*
X21140000Y45140000D01*
X11940000Y45140000D02*
X12860000Y45140000D01*
X21300000Y47500000D02*
X21300000Y49100000D01*
X21300000Y49100000D02*
X20300000Y49100000D01*
X20300000Y49100000D02*
X20300000Y47500000D01*
X20300000Y47500000D02*
X21300000Y47500000D01*
X12700000Y47500000D02*
X12700000Y49100000D01*
X12700000Y49100000D02*
X13700000Y49100000D01*
X13700000Y49100000D02*
X13700000Y47500000D01*
X13700000Y47500000D02*
X12700000Y47500000D01*
X20300000Y49100000D02*
X20300000Y51360000D01*
X20800000Y49100000D02*
X20800000Y51360000D01*
X20860000Y45140000D02*
X20860000Y43925000D01*
X23564667Y20368800D02*
X23222133Y20368800D01*
X23564667Y21388800D02*
X23222133Y21388800D01*
X23564667Y19864800D02*
X23222133Y19864800D01*
X23564667Y18844800D02*
X23222133Y18844800D01*
X16160000Y10360000D02*
X10190000Y10360000D01*
X10190000Y10360000D02*
X10190000Y2740000D01*
X10190000Y2740000D02*
X16160000Y2740000D01*
X16160000Y2740000D02*
X16160000Y10360000D01*
X16150000Y7050000D02*
X15400000Y7050000D01*
X15400000Y7050000D02*
X15400000Y6050000D01*
X15400000Y6050000D02*
X16150000Y6050000D01*
X16150000Y6050000D02*
X16150000Y7050000D01*
X16150000Y10350000D02*
X15400000Y10350000D01*
X15400000Y10350000D02*
X15400000Y8550000D01*
X15400000Y8550000D02*
X16150000Y8550000D01*
X16150000Y8550000D02*
X16150000Y10350000D01*
X16150000Y4550000D02*
X15400000Y4550000D01*
X15400000Y4550000D02*
X15400000Y2750000D01*
X15400000Y2750000D02*
X16150000Y2750000D01*
X16150000Y2750000D02*
X16150000Y4550000D01*
X13900000Y10350000D02*
X13900000Y9600000D01*
X13900000Y9600000D02*
X10950000Y9600000D01*
X10950000Y9600000D02*
X10950000Y6550000D01*
X13900000Y2750000D02*
X13900000Y3500000D01*
X13900000Y3500000D02*
X10950000Y3500000D01*
X10950000Y3500000D02*
X10950000Y6550000D01*
X16450000Y9400000D02*
X16450000Y10650000D01*
X16450000Y10650000D02*
X15200000Y10650000D01*
D11*
X25995476Y29122620D02*
X25995476Y28408334D01*
X25947857Y28265477D01*
X25852619Y28170239D01*
X25709761Y28122620D01*
X25614523Y28122620D01*
X26471666Y28122620D02*
X26471666Y29122620D01*
X26852619Y29122620D01*
X26947857Y29075000D01*
X26995476Y29027381D01*
X27043095Y28932143D01*
X27043095Y28789286D01*
X26995476Y28694048D01*
X26947857Y28646429D01*
X26852619Y28598810D01*
X26471666Y28598810D01*
X27995476Y28122620D02*
X27424047Y28122620D01*
X27709761Y28122620D02*
X27709761Y29122620D01*
X27614523Y28979762D01*
X27519285Y28884524D01*
X27424047Y28836905D01*
X28614523Y29122620D02*
X28709761Y29122620D01*
X28805000Y29075000D01*
X28852619Y29027381D01*
X28900238Y28932143D01*
X28947857Y28741667D01*
X28947857Y28503572D01*
X28900238Y28313096D01*
X28852619Y28217858D01*
X28805000Y28170239D01*
X28709761Y28122620D01*
X28614523Y28122620D01*
X28519285Y28170239D01*
X28471666Y28217858D01*
X28424047Y28313096D01*
X28376428Y28503572D01*
X28376428Y28741667D01*
X28424047Y28932143D01*
X28471666Y29027381D01*
X28519285Y29075000D01*
X28614523Y29122620D01*
X25836666Y26582620D02*
X25836666Y25868334D01*
X25789047Y25725477D01*
X25693809Y25630239D01*
X25550952Y25582620D01*
X25455714Y25582620D01*
X26312857Y25582620D02*
X26312857Y26582620D01*
X26693809Y26582620D01*
X26789047Y26535000D01*
X26836666Y26487381D01*
X26884285Y26392143D01*
X26884285Y26249286D01*
X26836666Y26154048D01*
X26789047Y26106429D01*
X26693809Y26058810D01*
X26312857Y26058810D01*
X27360476Y25582620D02*
X27550952Y25582620D01*
X27646190Y25630239D01*
X27693809Y25677858D01*
X27789047Y25820715D01*
X27836666Y26011191D01*
X27836666Y26392143D01*
X27789047Y26487381D01*
X27741428Y26535000D01*
X27646190Y26582620D01*
X27455714Y26582620D01*
X27360476Y26535000D01*
X27312857Y26487381D01*
X27265238Y26392143D01*
X27265238Y26154048D01*
X27312857Y26058810D01*
X27360476Y26011191D01*
X27455714Y25963572D01*
X27646190Y25963572D01*
X27741428Y26011191D01*
X27789047Y26058810D01*
X27836666Y26154048D01*
X17830895Y27928820D02*
X17830895Y27119296D01*
X17878514Y27024058D01*
X17926133Y26976439D01*
X18021371Y26928820D01*
X18211847Y26928820D01*
X18307085Y26976439D01*
X18354704Y27024058D01*
X18402323Y27119296D01*
X18402323Y27928820D01*
X19402323Y26928820D02*
X18830895Y26928820D01*
X19116609Y26928820D02*
X19116609Y27928820D01*
X19021371Y27785962D01*
X18926133Y27690724D01*
X18830895Y27643105D01*
X34566266Y15482820D02*
X34566266Y14768534D01*
X34518647Y14625677D01*
X34423409Y14530439D01*
X34280552Y14482820D01*
X34185314Y14482820D01*
X34994838Y15387581D02*
X35042457Y15435200D01*
X35137695Y15482820D01*
X35375790Y15482820D01*
X35471028Y15435200D01*
X35518647Y15387581D01*
X35566266Y15292343D01*
X35566266Y15197105D01*
X35518647Y15054248D01*
X34947219Y14482820D01*
X35566266Y14482820D01*
X26666666Y39547620D02*
X26666666Y38833334D01*
X26619047Y38690477D01*
X26523809Y38595239D01*
X26380952Y38547620D01*
X26285714Y38547620D01*
X27571428Y39547620D02*
X27380952Y39547620D01*
X27285714Y39500000D01*
X27238095Y39452381D01*
X27142857Y39309524D01*
X27095238Y39119048D01*
X27095238Y38738096D01*
X27142857Y38642858D01*
X27190476Y38595239D01*
X27285714Y38547620D01*
X27476190Y38547620D01*
X27571428Y38595239D01*
X27619047Y38642858D01*
X27666666Y38738096D01*
X27666666Y38976191D01*
X27619047Y39071429D01*
X27571428Y39119048D01*
X27476190Y39166667D01*
X27285714Y39166667D01*
X27190476Y39119048D01*
X27142857Y39071429D01*
X27095238Y38976191D01*
X26147733Y31147820D02*
X25814400Y31624010D01*
X25576304Y31147820D02*
X25576304Y32147820D01*
X25957257Y32147820D01*
X26052495Y32100200D01*
X26100114Y32052581D01*
X26147733Y31957343D01*
X26147733Y31814486D01*
X26100114Y31719248D01*
X26052495Y31671629D01*
X25957257Y31624010D01*
X25576304Y31624010D01*
X27100114Y31147820D02*
X26528685Y31147820D01*
X26814400Y31147820D02*
X26814400Y32147820D01*
X26719161Y32004962D01*
X26623923Y31909724D01*
X26528685Y31862105D01*
X26503333Y22407620D02*
X26170000Y22883810D01*
X25931904Y22407620D02*
X25931904Y23407620D01*
X26312857Y23407620D01*
X26408095Y23360000D01*
X26455714Y23312381D01*
X26503333Y23217143D01*
X26503333Y23074286D01*
X26455714Y22979048D01*
X26408095Y22931429D01*
X26312857Y22883810D01*
X25931904Y22883810D01*
X26884285Y23312381D02*
X26931904Y23360000D01*
X27027142Y23407620D01*
X27265238Y23407620D01*
X27360476Y23360000D01*
X27408095Y23312381D01*
X27455714Y23217143D01*
X27455714Y23121905D01*
X27408095Y22979048D01*
X26836666Y22407620D01*
X27455714Y22407620D01*
X29703733Y10463258D02*
X29656114Y10415639D01*
X29513257Y10368020D01*
X29418019Y10368020D01*
X29275161Y10415639D01*
X29179923Y10510877D01*
X29132304Y10606115D01*
X29084685Y10796591D01*
X29084685Y10939448D01*
X29132304Y11129924D01*
X29179923Y11225162D01*
X29275161Y11320400D01*
X29418019Y11368020D01*
X29513257Y11368020D01*
X29656114Y11320400D01*
X29703733Y11272781D01*
X30656114Y10368020D02*
X30084685Y10368020D01*
X30370400Y10368020D02*
X30370400Y11368020D01*
X30275161Y11225162D01*
X30179923Y11129924D01*
X30084685Y11082305D01*
X34388466Y26150820D02*
X34388466Y25436534D01*
X34340847Y25293677D01*
X34245609Y25198439D01*
X34102752Y25150820D01*
X34007514Y25150820D01*
X34769419Y26150820D02*
X35388466Y26150820D01*
X35055133Y25769867D01*
X35197990Y25769867D01*
X35293228Y25722248D01*
X35340847Y25674629D01*
X35388466Y25579391D01*
X35388466Y25341296D01*
X35340847Y25246058D01*
X35293228Y25198439D01*
X35197990Y25150820D01*
X34912276Y25150820D01*
X34817038Y25198439D01*
X34769419Y25246058D01*
X32448666Y32595239D02*
X32591523Y32547620D01*
X32829619Y32547620D01*
X32924857Y32595239D01*
X32972476Y32642858D01*
X33020095Y32738096D01*
X33020095Y32833334D01*
X32972476Y32928572D01*
X32924857Y32976191D01*
X32829619Y33023810D01*
X32639142Y33071429D01*
X32543904Y33119048D01*
X32496285Y33166667D01*
X32448666Y33261905D01*
X32448666Y33357143D01*
X32496285Y33452381D01*
X32543904Y33500000D01*
X32639142Y33547620D01*
X32877238Y33547620D01*
X33020095Y33500000D01*
X33353428Y33547620D02*
X33591523Y32547620D01*
X33782000Y33261905D01*
X33972476Y32547620D01*
X34210571Y33547620D01*
X35115333Y32547620D02*
X34543904Y32547620D01*
X34829619Y32547620D02*
X34829619Y33547620D01*
X34734380Y33404762D01*
X34639142Y33309524D01*
X34543904Y33261905D01*
X34617066Y10656820D02*
X34617066Y9942534D01*
X34569447Y9799677D01*
X34474209Y9704439D01*
X34331352Y9656820D01*
X34236114Y9656820D01*
X35569447Y10656820D02*
X35093257Y10656820D01*
X35045638Y10180629D01*
X35093257Y10228248D01*
X35188495Y10275867D01*
X35426590Y10275867D01*
X35521828Y10228248D01*
X35569447Y10180629D01*
X35617066Y10085391D01*
X35617066Y9847296D01*
X35569447Y9752058D01*
X35521828Y9704439D01*
X35426590Y9656820D01*
X35188495Y9656820D01*
X35093257Y9704439D01*
X35045638Y9752058D01*
X13666666Y39547620D02*
X13666666Y38833334D01*
X13619047Y38690477D01*
X13523809Y38595239D01*
X13380952Y38547620D01*
X13285714Y38547620D01*
X14571428Y39214286D02*
X14571428Y38547620D01*
X14333333Y39595239D02*
X14095238Y38880953D01*
X14714285Y38880953D01*
X20333333Y20547620D02*
X20000000Y21023810D01*
X19761904Y20547620D02*
X19761904Y21547620D01*
X20142857Y21547620D01*
X20238095Y21500000D01*
X20285714Y21452381D01*
X20333333Y21357143D01*
X20333333Y21214286D01*
X20285714Y21119048D01*
X20238095Y21071429D01*
X20142857Y21023810D01*
X19761904Y21023810D01*
X20666666Y21547620D02*
X21285714Y21547620D01*
X20952380Y21166667D01*
X21095238Y21166667D01*
X21190476Y21119048D01*
X21238095Y21071429D01*
X21285714Y20976191D01*
X21285714Y20738096D01*
X21238095Y20642858D01*
X21190476Y20595239D01*
X21095238Y20547620D01*
X20809523Y20547620D01*
X20714285Y20595239D01*
X20666666Y20642858D01*
X20333333Y19047620D02*
X20000000Y19523810D01*
X19761904Y19047620D02*
X19761904Y20047620D01*
X20142857Y20047620D01*
X20238095Y20000000D01*
X20285714Y19952381D01*
X20333333Y19857143D01*
X20333333Y19714286D01*
X20285714Y19619048D01*
X20238095Y19571429D01*
X20142857Y19523810D01*
X19761904Y19523810D01*
X21190476Y19714286D02*
X21190476Y19047620D01*
X20952380Y20095239D02*
X20714285Y19380953D01*
X21333333Y19380953D01*
X17446666Y3087620D02*
X17446666Y2373334D01*
X17399047Y2230477D01*
X17303809Y2135239D01*
X17160952Y2087620D01*
X17065714Y2087620D01*
X17827619Y3087620D02*
X18494285Y3087620D01*
X18065714Y2087620D01*
M02*
