G04 #@! TF.GenerationSoftware,KiCad,Pcbnew,(5.1.4)-1*
G04 #@! TF.CreationDate,2021-07-31T01:35:56+09:00*
G04 #@! TF.ProjectId,m5-pantilt,6d352d70-616e-4746-996c-742e6b696361,1*
G04 #@! TF.SameCoordinates,PX5f5e100PY5f5e100*
G04 #@! TF.FileFunction,Legend,Bot*
G04 #@! TF.FilePolarity,Positive*
%FSLAX46Y46*%
G04 Gerber Fmt 4.6, Leading zero omitted, Abs format (unit mm)*
G04 Created by KiCad (PCBNEW (5.1.4)-1) date 2021-07-31 01:35:56*
%MOMM*%
%LPD*%
G04 APERTURE LIST*
%ADD10C,0.150000*%
%ADD11C,0.125000*%
%ADD12C,1.000000*%
%ADD13C,0.300000*%
%ADD14C,0.010000*%
%ADD15C,0.120000*%
G04 APERTURE END LIST*
D10*
X19923809Y2533334D02*
X19447619Y2533334D01*
X20019047Y2247620D02*
X19685714Y3247620D01*
X19352380Y2247620D01*
X19019047Y2914286D02*
X19019047Y2247620D01*
X19019047Y2819048D02*
X18971428Y2866667D01*
X18876190Y2914286D01*
X18733333Y2914286D01*
X18638095Y2866667D01*
X18590476Y2771429D01*
X18590476Y2247620D01*
X17971428Y2247620D02*
X18066666Y2295239D01*
X18114285Y2342858D01*
X18161904Y2438096D01*
X18161904Y2723810D01*
X18114285Y2819048D01*
X18066666Y2866667D01*
X17971428Y2914286D01*
X17828571Y2914286D01*
X17733333Y2866667D01*
X17685714Y2819048D01*
X17638095Y2723810D01*
X17638095Y2438096D01*
X17685714Y2342858D01*
X17733333Y2295239D01*
X17828571Y2247620D01*
X17971428Y2247620D01*
X16780952Y2247620D02*
X16780952Y3247620D01*
X16780952Y2295239D02*
X16876190Y2247620D01*
X17066666Y2247620D01*
X17161904Y2295239D01*
X17209523Y2342858D01*
X17257142Y2438096D01*
X17257142Y2723810D01*
X17209523Y2819048D01*
X17161904Y2866667D01*
X17066666Y2914286D01*
X16876190Y2914286D01*
X16780952Y2866667D01*
X15923809Y2295239D02*
X16019047Y2247620D01*
X16209523Y2247620D01*
X16304761Y2295239D01*
X16352380Y2390477D01*
X16352380Y2771429D01*
X16304761Y2866667D01*
X16209523Y2914286D01*
X16019047Y2914286D01*
X15923809Y2866667D01*
X15876190Y2771429D01*
X15876190Y2676191D01*
X16352380Y2580953D01*
X19514285Y8142858D02*
X19561904Y8095239D01*
X19704761Y8047620D01*
X19800000Y8047620D01*
X19942857Y8095239D01*
X20038095Y8190477D01*
X20085714Y8285715D01*
X20133333Y8476191D01*
X20133333Y8619048D01*
X20085714Y8809524D01*
X20038095Y8904762D01*
X19942857Y9000000D01*
X19800000Y9047620D01*
X19704761Y9047620D01*
X19561904Y9000000D01*
X19514285Y8952381D01*
X18657142Y8047620D02*
X18657142Y8571429D01*
X18704761Y8666667D01*
X18800000Y8714286D01*
X18990476Y8714286D01*
X19085714Y8666667D01*
X18657142Y8095239D02*
X18752380Y8047620D01*
X18990476Y8047620D01*
X19085714Y8095239D01*
X19133333Y8190477D01*
X19133333Y8285715D01*
X19085714Y8380953D01*
X18990476Y8428572D01*
X18752380Y8428572D01*
X18657142Y8476191D01*
X18323809Y8714286D02*
X17942857Y8714286D01*
X18180952Y9047620D02*
X18180952Y8190477D01*
X18133333Y8095239D01*
X18038095Y8047620D01*
X17942857Y8047620D01*
X17609523Y8047620D02*
X17609523Y9047620D01*
X17180952Y8047620D02*
X17180952Y8571429D01*
X17228571Y8666667D01*
X17323809Y8714286D01*
X17466666Y8714286D01*
X17561904Y8666667D01*
X17609523Y8619048D01*
X16561904Y8047620D02*
X16657142Y8095239D01*
X16704761Y8142858D01*
X16752380Y8238096D01*
X16752380Y8523810D01*
X16704761Y8619048D01*
X16657142Y8666667D01*
X16561904Y8714286D01*
X16419047Y8714286D01*
X16323809Y8666667D01*
X16276190Y8619048D01*
X16228571Y8523810D01*
X16228571Y8238096D01*
X16276190Y8142858D01*
X16323809Y8095239D01*
X16419047Y8047620D01*
X16561904Y8047620D01*
X15371428Y8047620D02*
X15371428Y9047620D01*
X15371428Y8095239D02*
X15466666Y8047620D01*
X15657142Y8047620D01*
X15752380Y8095239D01*
X15800000Y8142858D01*
X15847619Y8238096D01*
X15847619Y8523810D01*
X15800000Y8619048D01*
X15752380Y8666667D01*
X15657142Y8714286D01*
X15466666Y8714286D01*
X15371428Y8666667D01*
X14514285Y8095239D02*
X14609523Y8047620D01*
X14800000Y8047620D01*
X14895238Y8095239D01*
X14942857Y8190477D01*
X14942857Y8571429D01*
X14895238Y8666667D01*
X14800000Y8714286D01*
X14609523Y8714286D01*
X14514285Y8666667D01*
X14466666Y8571429D01*
X14466666Y8476191D01*
X14942857Y8380953D01*
D11*
X15357142Y29642858D02*
X15404761Y29595239D01*
X15547619Y29547620D01*
X15642857Y29547620D01*
X15785714Y29595239D01*
X15880952Y29690477D01*
X15928571Y29785715D01*
X15976190Y29976191D01*
X15976190Y30119048D01*
X15928571Y30309524D01*
X15880952Y30404762D01*
X15785714Y30500000D01*
X15642857Y30547620D01*
X15547619Y30547620D01*
X15404761Y30500000D01*
X15357142Y30452381D01*
X14785714Y29547620D02*
X14880952Y29595239D01*
X14928571Y29642858D01*
X14976190Y29738096D01*
X14976190Y30023810D01*
X14928571Y30119048D01*
X14880952Y30166667D01*
X14785714Y30214286D01*
X14642857Y30214286D01*
X14547619Y30166667D01*
X14500000Y30119048D01*
X14452380Y30023810D01*
X14452380Y29738096D01*
X14500000Y29642858D01*
X14547619Y29595239D01*
X14642857Y29547620D01*
X14785714Y29547620D01*
X14023809Y29547620D02*
X14023809Y30214286D01*
X14023809Y30023810D02*
X13976190Y30119048D01*
X13928571Y30166667D01*
X13833333Y30214286D01*
X13738095Y30214286D01*
X13023809Y29595239D02*
X13119047Y29547620D01*
X13309523Y29547620D01*
X13404761Y29595239D01*
X13452380Y29690477D01*
X13452380Y30071429D01*
X13404761Y30166667D01*
X13309523Y30214286D01*
X13119047Y30214286D01*
X13023809Y30166667D01*
X12976190Y30071429D01*
X12976190Y29976191D01*
X13452380Y29880953D01*
X12023809Y29547620D02*
X12595238Y29547620D01*
X12309523Y29547620D02*
X12309523Y30547620D01*
X12404761Y30404762D01*
X12500000Y30309524D01*
X12595238Y30261905D01*
X19257142Y18742858D02*
X19304761Y18695239D01*
X19447619Y18647620D01*
X19542857Y18647620D01*
X19685714Y18695239D01*
X19780952Y18790477D01*
X19828571Y18885715D01*
X19876190Y19076191D01*
X19876190Y19219048D01*
X19828571Y19409524D01*
X19780952Y19504762D01*
X19685714Y19600000D01*
X19542857Y19647620D01*
X19447619Y19647620D01*
X19304761Y19600000D01*
X19257142Y19552381D01*
X18685714Y18647620D02*
X18780952Y18695239D01*
X18828571Y18742858D01*
X18876190Y18838096D01*
X18876190Y19123810D01*
X18828571Y19219048D01*
X18780952Y19266667D01*
X18685714Y19314286D01*
X18542857Y19314286D01*
X18447619Y19266667D01*
X18400000Y19219048D01*
X18352380Y19123810D01*
X18352380Y18838096D01*
X18400000Y18742858D01*
X18447619Y18695239D01*
X18542857Y18647620D01*
X18685714Y18647620D01*
X17923809Y18647620D02*
X17923809Y19314286D01*
X17923809Y19123810D02*
X17876190Y19219048D01*
X17828571Y19266667D01*
X17733333Y19314286D01*
X17638095Y19314286D01*
X16923809Y18695239D02*
X17019047Y18647620D01*
X17209523Y18647620D01*
X17304761Y18695239D01*
X17352380Y18790477D01*
X17352380Y19171429D01*
X17304761Y19266667D01*
X17209523Y19314286D01*
X17019047Y19314286D01*
X16923809Y19266667D01*
X16876190Y19171429D01*
X16876190Y19076191D01*
X17352380Y18980953D01*
X16495238Y19552381D02*
X16447619Y19600000D01*
X16352380Y19647620D01*
X16114285Y19647620D01*
X16019047Y19600000D01*
X15971428Y19552381D01*
X15923809Y19457143D01*
X15923809Y19361905D01*
X15971428Y19219048D01*
X16542857Y18647620D01*
X15923809Y18647620D01*
X34104761Y25247620D02*
X34104761Y26247620D01*
X33723809Y26247620D01*
X33628571Y26200000D01*
X33580952Y26152381D01*
X33533333Y26057143D01*
X33533333Y25914286D01*
X33580952Y25819048D01*
X33628571Y25771429D01*
X33723809Y25723810D01*
X34104761Y25723810D01*
X33200000Y26247620D02*
X32961904Y25247620D01*
X32771428Y25961905D01*
X32580952Y25247620D01*
X32342857Y26247620D01*
X31961904Y25247620D02*
X31961904Y26247620D01*
X31628571Y25533334D01*
X31295238Y26247620D01*
X31295238Y25247620D01*
D10*
X1476190Y23938096D02*
X1742857Y24319048D01*
X1933333Y23938096D02*
X1933333Y24738096D01*
X1628571Y24738096D01*
X1552380Y24700000D01*
X1514285Y24661905D01*
X1476190Y24585715D01*
X1476190Y24471429D01*
X1514285Y24395239D01*
X1552380Y24357143D01*
X1628571Y24319048D01*
X1933333Y24319048D01*
X1209523Y23938096D02*
X790476Y24471429D01*
X1209523Y24471429D02*
X790476Y23938096D01*
X11152380Y24638096D02*
X10695238Y24638096D01*
X10923809Y23838096D02*
X10923809Y24638096D01*
X10504761Y23838096D02*
X10085714Y24371429D01*
X10504761Y24371429D02*
X10085714Y23838096D01*
D12*
X7670800Y10058400D02*
X7620000Y39776400D01*
X42773600Y9956800D02*
X7670800Y10058400D01*
X42672000Y39827200D02*
X42773600Y9956800D01*
X7620000Y39776400D02*
X42672000Y39827200D01*
D11*
X33771428Y14447620D02*
X33200000Y14447620D01*
X33485714Y13447620D02*
X33485714Y14447620D01*
X33009523Y14447620D02*
X32438095Y14447620D01*
X32723809Y13447620D02*
X32723809Y14447620D01*
X31628571Y13447620D02*
X32104761Y13447620D01*
X32104761Y14447620D01*
D13*
X46842857Y7507143D02*
X46842857Y8307143D01*
X46842857Y8192858D02*
X46785714Y8250000D01*
X46671428Y8307143D01*
X46500000Y8307143D01*
X46385714Y8250000D01*
X46328571Y8135715D01*
X46328571Y7507143D01*
X46328571Y8135715D02*
X46271428Y8250000D01*
X46157142Y8307143D01*
X45985714Y8307143D01*
X45871428Y8250000D01*
X45814285Y8135715D01*
X45814285Y7507143D01*
X44671428Y8707143D02*
X45242857Y8707143D01*
X45300000Y8135715D01*
X45242857Y8192858D01*
X45128571Y8250000D01*
X44842857Y8250000D01*
X44728571Y8192858D01*
X44671428Y8135715D01*
X44614285Y8021429D01*
X44614285Y7735715D01*
X44671428Y7621429D01*
X44728571Y7564286D01*
X44842857Y7507143D01*
X45128571Y7507143D01*
X45242857Y7564286D01*
X45300000Y7621429D01*
X44100000Y7964286D02*
X43185714Y7964286D01*
X42614285Y8307143D02*
X42614285Y7107143D01*
X42614285Y8250000D02*
X42500000Y8307143D01*
X42271428Y8307143D01*
X42157142Y8250000D01*
X42100000Y8192858D01*
X42042857Y8078572D01*
X42042857Y7735715D01*
X42100000Y7621429D01*
X42157142Y7564286D01*
X42271428Y7507143D01*
X42500000Y7507143D01*
X42614285Y7564286D01*
X41014285Y7507143D02*
X41014285Y8135715D01*
X41071428Y8250000D01*
X41185714Y8307143D01*
X41414285Y8307143D01*
X41528571Y8250000D01*
X41014285Y7564286D02*
X41128571Y7507143D01*
X41414285Y7507143D01*
X41528571Y7564286D01*
X41585714Y7678572D01*
X41585714Y7792858D01*
X41528571Y7907143D01*
X41414285Y7964286D01*
X41128571Y7964286D01*
X41014285Y8021429D01*
X40442857Y8307143D02*
X40442857Y7507143D01*
X40442857Y8192858D02*
X40385714Y8250000D01*
X40271428Y8307143D01*
X40100000Y8307143D01*
X39985714Y8250000D01*
X39928571Y8135715D01*
X39928571Y7507143D01*
X39528571Y8307143D02*
X39071428Y8307143D01*
X39357142Y8707143D02*
X39357142Y7678572D01*
X39300000Y7564286D01*
X39185714Y7507143D01*
X39071428Y7507143D01*
X38671428Y7507143D02*
X38671428Y8307143D01*
X38671428Y8707143D02*
X38728571Y8650000D01*
X38671428Y8592858D01*
X38614285Y8650000D01*
X38671428Y8707143D01*
X38671428Y8592858D01*
X37928571Y7507143D02*
X38042857Y7564286D01*
X38100000Y7678572D01*
X38100000Y8707143D01*
X37642857Y8307143D02*
X37185714Y8307143D01*
X37471428Y8707143D02*
X37471428Y7678572D01*
X37414285Y7564286D01*
X37300000Y7507143D01*
X37185714Y7507143D01*
X35871428Y7507143D02*
X35871428Y8707143D01*
X35871428Y8250000D02*
X35757142Y8307143D01*
X35528571Y8307143D01*
X35414285Y8250000D01*
X35357142Y8192858D01*
X35300000Y8078572D01*
X35300000Y7735715D01*
X35357142Y7621429D01*
X35414285Y7564286D01*
X35528571Y7507143D01*
X35757142Y7507143D01*
X35871428Y7564286D01*
X34614285Y7507143D02*
X34728571Y7564286D01*
X34785714Y7621429D01*
X34842857Y7735715D01*
X34842857Y8078572D01*
X34785714Y8192858D01*
X34728571Y8250000D01*
X34614285Y8307143D01*
X34442857Y8307143D01*
X34328571Y8250000D01*
X34271428Y8192858D01*
X34214285Y8078572D01*
X34214285Y7735715D01*
X34271428Y7621429D01*
X34328571Y7564286D01*
X34442857Y7507143D01*
X34614285Y7507143D01*
X33185714Y7507143D02*
X33185714Y8135715D01*
X33242857Y8250000D01*
X33357142Y8307143D01*
X33585714Y8307143D01*
X33700000Y8250000D01*
X33185714Y7564286D02*
X33300000Y7507143D01*
X33585714Y7507143D01*
X33700000Y7564286D01*
X33757142Y7678572D01*
X33757142Y7792858D01*
X33700000Y7907143D01*
X33585714Y7964286D01*
X33300000Y7964286D01*
X33185714Y8021429D01*
X32614285Y7507143D02*
X32614285Y8307143D01*
X32614285Y8078572D02*
X32557142Y8192858D01*
X32500000Y8250000D01*
X32385714Y8307143D01*
X32271428Y8307143D01*
X31357142Y7507143D02*
X31357142Y8707143D01*
X31357142Y7564286D02*
X31471428Y7507143D01*
X31700000Y7507143D01*
X31814285Y7564286D01*
X31871428Y7621429D01*
X31928571Y7735715D01*
X31928571Y8078572D01*
X31871428Y8192858D01*
X31814285Y8250000D01*
X31700000Y8307143D01*
X31471428Y8307143D01*
X31357142Y8250000D01*
X29985714Y8307143D02*
X29700000Y7507143D01*
X29414285Y8307143D01*
X28728571Y8707143D02*
X28614285Y8707143D01*
X28500000Y8650000D01*
X28442857Y8592858D01*
X28385714Y8478572D01*
X28328571Y8250000D01*
X28328571Y7964286D01*
X28385714Y7735715D01*
X28442857Y7621429D01*
X28500000Y7564286D01*
X28614285Y7507143D01*
X28728571Y7507143D01*
X28842857Y7564286D01*
X28900000Y7621429D01*
X28957142Y7735715D01*
X29014285Y7964286D01*
X29014285Y8250000D01*
X28957142Y8478572D01*
X28900000Y8592858D01*
X28842857Y8650000D01*
X28728571Y8707143D01*
X27814285Y7621429D02*
X27757142Y7564286D01*
X27814285Y7507143D01*
X27871428Y7564286D01*
X27814285Y7621429D01*
X27814285Y7507143D01*
X26614285Y7507143D02*
X27300000Y7507143D01*
X26957142Y7507143D02*
X26957142Y8707143D01*
X27071428Y8535715D01*
X27185714Y8421429D01*
X27300000Y8364286D01*
X26100000Y7621429D02*
X26042857Y7564286D01*
X26100000Y7507143D01*
X26157142Y7564286D01*
X26100000Y7621429D01*
X26100000Y7507143D01*
X24900000Y7507143D02*
X25585714Y7507143D01*
X25242857Y7507143D02*
X25242857Y8707143D01*
X25357142Y8535715D01*
X25471428Y8421429D01*
X25585714Y8364286D01*
X41614285Y5978572D02*
X41671428Y6035715D01*
X41785714Y6092858D01*
X41900000Y6092858D01*
X42014285Y6035715D01*
X42071428Y5978572D01*
X42128571Y5864286D01*
X42128571Y5750000D01*
X42071428Y5635715D01*
X42014285Y5578572D01*
X41900000Y5521429D01*
X41785714Y5521429D01*
X41671428Y5578572D01*
X41614285Y5635715D01*
X41614285Y6092858D02*
X41614285Y5635715D01*
X41557142Y5578572D01*
X41500000Y5578572D01*
X41385714Y5635715D01*
X41328571Y5750000D01*
X41328571Y6035715D01*
X41442857Y6207143D01*
X41614285Y6321429D01*
X41842857Y6378572D01*
X42071428Y6321429D01*
X42242857Y6207143D01*
X42357142Y6035715D01*
X42414285Y5807143D01*
X42357142Y5578572D01*
X42242857Y5407143D01*
X42071428Y5292858D01*
X41842857Y5235715D01*
X41614285Y5292858D01*
X41442857Y5407143D01*
X40814285Y5407143D02*
X40814285Y6207143D01*
X40814285Y6092858D02*
X40757142Y6150000D01*
X40642857Y6207143D01*
X40471428Y6207143D01*
X40357142Y6150000D01*
X40300000Y6035715D01*
X40300000Y5407143D01*
X40300000Y6035715D02*
X40242857Y6150000D01*
X40128571Y6207143D01*
X39957142Y6207143D01*
X39842857Y6150000D01*
X39785714Y6035715D01*
X39785714Y5407143D01*
X38757142Y5464286D02*
X38871428Y5407143D01*
X39100000Y5407143D01*
X39214285Y5464286D01*
X39271428Y5578572D01*
X39271428Y6035715D01*
X39214285Y6150000D01*
X39100000Y6207143D01*
X38871428Y6207143D01*
X38757142Y6150000D01*
X38700000Y6035715D01*
X38700000Y5921429D01*
X39271428Y5807143D01*
X37671428Y6207143D02*
X37671428Y5235715D01*
X37728571Y5121429D01*
X37785714Y5064286D01*
X37900000Y5007143D01*
X38071428Y5007143D01*
X38185714Y5064286D01*
X37671428Y5464286D02*
X37785714Y5407143D01*
X38014285Y5407143D01*
X38128571Y5464286D01*
X38185714Y5521429D01*
X38242857Y5635715D01*
X38242857Y5978572D01*
X38185714Y6092858D01*
X38128571Y6150000D01*
X38014285Y6207143D01*
X37785714Y6207143D01*
X37671428Y6150000D01*
X36585714Y5407143D02*
X36585714Y6035715D01*
X36642857Y6150000D01*
X36757142Y6207143D01*
X36985714Y6207143D01*
X37100000Y6150000D01*
X36585714Y5464286D02*
X36700000Y5407143D01*
X36985714Y5407143D01*
X37100000Y5464286D01*
X37157142Y5578572D01*
X37157142Y5692858D01*
X37100000Y5807143D01*
X36985714Y5864286D01*
X36700000Y5864286D01*
X36585714Y5921429D01*
X36014285Y6207143D02*
X36014285Y5407143D01*
X36014285Y6092858D02*
X35957142Y6150000D01*
X35842857Y6207143D01*
X35671428Y6207143D01*
X35557142Y6150000D01*
X35500000Y6035715D01*
X35500000Y5407143D01*
X34471428Y5464286D02*
X34585714Y5407143D01*
X34814285Y5407143D01*
X34928571Y5464286D01*
X34985714Y5578572D01*
X34985714Y6035715D01*
X34928571Y6150000D01*
X34814285Y6207143D01*
X34585714Y6207143D01*
X34471428Y6150000D01*
X34414285Y6035715D01*
X34414285Y5921429D01*
X34985714Y5807143D01*
X34071428Y6207143D02*
X33614285Y6207143D01*
X33900000Y6607143D02*
X33900000Y5578572D01*
X33842857Y5464286D01*
X33728571Y5407143D01*
X33614285Y5407143D01*
X32700000Y5407143D02*
X32700000Y6035715D01*
X32757142Y6150000D01*
X32871428Y6207143D01*
X33100000Y6207143D01*
X33214285Y6150000D01*
X32700000Y5464286D02*
X32814285Y5407143D01*
X33100000Y5407143D01*
X33214285Y5464286D01*
X33271428Y5578572D01*
X33271428Y5692858D01*
X33214285Y5807143D01*
X33100000Y5864286D01*
X32814285Y5864286D01*
X32700000Y5921429D01*
X31614285Y5407143D02*
X31614285Y6035715D01*
X31671428Y6150000D01*
X31785714Y6207143D01*
X32014285Y6207143D01*
X32128571Y6150000D01*
X31614285Y5464286D02*
X31728571Y5407143D01*
X32014285Y5407143D01*
X32128571Y5464286D01*
X32185714Y5578572D01*
X32185714Y5692858D01*
X32128571Y5807143D01*
X32014285Y5864286D01*
X31728571Y5864286D01*
X31614285Y5921429D01*
X30528571Y5407143D02*
X30528571Y6035715D01*
X30585714Y6150000D01*
X30700000Y6207143D01*
X30928571Y6207143D01*
X31042857Y6150000D01*
X30528571Y5464286D02*
X30642857Y5407143D01*
X30928571Y5407143D01*
X31042857Y5464286D01*
X31100000Y5578572D01*
X31100000Y5692858D01*
X31042857Y5807143D01*
X30928571Y5864286D01*
X30642857Y5864286D01*
X30528571Y5921429D01*
X29957142Y6207143D02*
X29957142Y5407143D01*
X29957142Y6092858D02*
X29900000Y6150000D01*
X29785714Y6207143D01*
X29614285Y6207143D01*
X29500000Y6150000D01*
X29442857Y6035715D01*
X29442857Y5407143D01*
D14*
G36*
X25464797Y22987314D02*
G01*
X25373890Y22985403D01*
X23923781Y22947597D01*
X22923717Y22897547D01*
X22289007Y22822592D01*
X21934958Y22710073D01*
X21776879Y22547328D01*
X21744812Y22442906D01*
X21750636Y22254833D01*
X21906180Y22124926D01*
X22291558Y22042594D01*
X22986885Y21997246D01*
X24072278Y21978290D01*
X25284143Y21975011D01*
X26738653Y21979036D01*
X27741948Y21999435D01*
X28377533Y22048689D01*
X28728916Y22139283D01*
X28879603Y22283699D01*
X28913101Y22494421D01*
X28913221Y22517508D01*
X28887922Y22736588D01*
X28755633Y22884446D01*
X28431764Y22972265D01*
X27831728Y23011227D01*
X26870936Y23012516D01*
X25464797Y22987314D01*
X25464797Y22987314D01*
G37*
X25464797Y22987314D02*
X25373890Y22985403D01*
X23923781Y22947597D01*
X22923717Y22897547D01*
X22289007Y22822592D01*
X21934958Y22710073D01*
X21776879Y22547328D01*
X21744812Y22442906D01*
X21750636Y22254833D01*
X21906180Y22124926D01*
X22291558Y22042594D01*
X22986885Y21997246D01*
X24072278Y21978290D01*
X25284143Y21975011D01*
X26738653Y21979036D01*
X27741948Y21999435D01*
X28377533Y22048689D01*
X28728916Y22139283D01*
X28879603Y22283699D01*
X28913101Y22494421D01*
X28913221Y22517508D01*
X28887922Y22736588D01*
X28755633Y22884446D01*
X28431764Y22972265D01*
X27831728Y23011227D01*
X26870936Y23012516D01*
X25464797Y22987314D01*
G36*
X32277738Y28410453D02*
G01*
X31914605Y27867896D01*
X31933362Y27305427D01*
X32239118Y26862564D01*
X32736981Y26678828D01*
X33316939Y26882517D01*
X33661645Y27407045D01*
X33574801Y28019307D01*
X33146685Y28481375D01*
X32620489Y28603363D01*
X32277738Y28410453D01*
X32277738Y28410453D01*
G37*
X32277738Y28410453D02*
X31914605Y27867896D01*
X31933362Y27305427D01*
X32239118Y26862564D01*
X32736981Y26678828D01*
X33316939Y26882517D01*
X33661645Y27407045D01*
X33574801Y28019307D01*
X33146685Y28481375D01*
X32620489Y28603363D01*
X32277738Y28410453D01*
G36*
X18130009Y28366836D02*
G01*
X17870862Y28093984D01*
X17710943Y27461630D01*
X17997754Y26975095D01*
X18619537Y26787643D01*
X19211704Y26944524D01*
X19472584Y27225037D01*
X19497827Y27838642D01*
X19173307Y28292703D01*
X18662782Y28498381D01*
X18130009Y28366836D01*
X18130009Y28366836D01*
G37*
X18130009Y28366836D02*
X17870862Y28093984D01*
X17710943Y27461630D01*
X17997754Y26975095D01*
X18619537Y26787643D01*
X19211704Y26944524D01*
X19472584Y27225037D01*
X19497827Y27838642D01*
X19173307Y28292703D01*
X18662782Y28498381D01*
X18130009Y28366836D01*
D15*
X3600000Y9000000D02*
X3600000Y7980000D01*
X8800000Y9000000D02*
X8800000Y7980000D01*
X3600000Y11540000D02*
X3600000Y10520000D01*
X8800000Y11540000D02*
X8800000Y10520000D01*
X3600000Y14080000D02*
X3600000Y13060000D01*
X8800000Y14080000D02*
X8800000Y13060000D01*
X3600000Y16620000D02*
X3600000Y15600000D01*
X8800000Y16620000D02*
X8800000Y15600000D01*
X3600000Y19160000D02*
X3600000Y18140000D01*
X8800000Y19160000D02*
X8800000Y18140000D01*
X3600000Y21700000D02*
X3600000Y20680000D01*
X8800000Y21700000D02*
X8800000Y20680000D01*
X3600000Y24240000D02*
X3600000Y23220000D01*
X8800000Y24240000D02*
X8800000Y23220000D01*
X3600000Y26780000D02*
X3600000Y25760000D01*
X8800000Y26780000D02*
X8800000Y25760000D01*
X3600000Y29320000D02*
X3600000Y28300000D01*
X8800000Y29320000D02*
X8800000Y28300000D01*
X3600000Y31860000D02*
X3600000Y30840000D01*
X8800000Y31860000D02*
X8800000Y30840000D01*
X3600000Y34400000D02*
X3600000Y33380000D01*
X8800000Y34400000D02*
X8800000Y33380000D01*
X3600000Y36940000D02*
X3600000Y35920000D01*
X8800000Y36940000D02*
X8800000Y35920000D01*
X3600000Y39480000D02*
X3600000Y38460000D01*
X8800000Y39480000D02*
X8800000Y38460000D01*
X3600000Y42020000D02*
X3600000Y41000000D01*
X8800000Y42020000D02*
X8800000Y41000000D01*
X3600000Y6460000D02*
X3600000Y5890000D01*
X8800000Y6460000D02*
X8800000Y5890000D01*
X3600000Y44110000D02*
X3600000Y43540000D01*
X8800000Y44110000D02*
X8800000Y43540000D01*
X10240000Y43540000D02*
X8800000Y43540000D01*
X8800000Y5890000D02*
X3600000Y5890000D01*
X8800000Y44110000D02*
X3600000Y44110000D01*
X20750000Y10600000D02*
X24050000Y10600000D01*
X24050000Y10600000D02*
X24050000Y3700000D01*
X20750000Y10600000D02*
X20750000Y3700000D01*
X31300000Y22800000D02*
X34100000Y22800000D01*
X34100000Y22800000D02*
X34100000Y24800000D01*
X34100000Y24800000D02*
X31300000Y24800000D01*
X31300000Y24800000D02*
X31300000Y22800000D01*
X31300000Y22200000D02*
X31300000Y20200000D01*
X34100000Y22200000D02*
X31300000Y22200000D01*
X34100000Y20200000D02*
X34100000Y22200000D01*
X31300000Y20200000D02*
X34100000Y20200000D01*
X34100000Y17600000D02*
X34100000Y19600000D01*
X31300000Y17600000D02*
X34100000Y17600000D01*
X31300000Y19600000D02*
X31300000Y17600000D01*
X34100000Y19600000D02*
X31300000Y19600000D01*
X34100000Y17000000D02*
X31300000Y17000000D01*
X31300000Y17000000D02*
X31300000Y15000000D01*
X31300000Y15000000D02*
X34100000Y15000000D01*
X34100000Y15000000D02*
X34100000Y17000000D01*
X12400000Y26100000D02*
X12400000Y24100000D01*
X15200000Y26100000D02*
X12400000Y26100000D01*
X15200000Y24100000D02*
X15200000Y26100000D01*
X12400000Y24100000D02*
X15200000Y24100000D01*
X12400000Y21500000D02*
X15200000Y21500000D01*
X15200000Y21500000D02*
X15200000Y23500000D01*
X15200000Y23500000D02*
X12400000Y23500000D01*
X12400000Y23500000D02*
X12400000Y21500000D01*
X12400000Y26800000D02*
X15200000Y26800000D01*
X15200000Y26800000D02*
X15200000Y28800000D01*
X15200000Y28800000D02*
X12400000Y28800000D01*
X12400000Y28800000D02*
X12400000Y26800000D01*
X12400000Y20900000D02*
X12400000Y18900000D01*
X15200000Y20900000D02*
X12400000Y20900000D01*
X15200000Y18900000D02*
X15200000Y20900000D01*
X12400000Y18900000D02*
X15200000Y18900000D01*
D10*
X5263333Y27877620D02*
X5263333Y27163334D01*
X5310952Y27020477D01*
X5406190Y26925239D01*
X5549047Y26877620D01*
X5644285Y26877620D01*
X4263333Y26877620D02*
X4834761Y26877620D01*
X4549047Y26877620D02*
X4549047Y27877620D01*
X4644285Y27734762D01*
X4739523Y27639524D01*
X4834761Y27591905D01*
X19938095Y5547620D02*
X19938095Y6547620D01*
X19700000Y6547620D01*
X19557142Y6500000D01*
X19461904Y6404762D01*
X19414285Y6309524D01*
X19366666Y6119048D01*
X19366666Y5976191D01*
X19414285Y5785715D01*
X19461904Y5690477D01*
X19557142Y5595239D01*
X19700000Y5547620D01*
X19938095Y5547620D01*
X18414285Y5547620D02*
X18985714Y5547620D01*
X18700000Y5547620D02*
X18700000Y6547620D01*
X18795238Y6404762D01*
X18890476Y6309524D01*
X18985714Y6261905D01*
X36366666Y23538096D02*
X36366666Y22966667D01*
X36404761Y22852381D01*
X36480952Y22776191D01*
X36595238Y22738096D01*
X36671428Y22738096D01*
X35985714Y22738096D02*
X35985714Y23538096D01*
X35680952Y23538096D01*
X35604761Y23500000D01*
X35566666Y23461905D01*
X35528571Y23385715D01*
X35528571Y23271429D01*
X35566666Y23195239D01*
X35604761Y23157143D01*
X35680952Y23119048D01*
X35985714Y23119048D01*
X34766666Y22738096D02*
X35223809Y22738096D01*
X34995238Y22738096D02*
X34995238Y23538096D01*
X35071428Y23423810D01*
X35147619Y23347620D01*
X35223809Y23309524D01*
X36466666Y22038096D02*
X36466666Y21466667D01*
X36504761Y21352381D01*
X36580952Y21276191D01*
X36695238Y21238096D01*
X36771428Y21238096D01*
X36085714Y21238096D02*
X36085714Y22038096D01*
X35780952Y22038096D01*
X35704761Y22000000D01*
X35666666Y21961905D01*
X35628571Y21885715D01*
X35628571Y21771429D01*
X35666666Y21695239D01*
X35704761Y21657143D01*
X35780952Y21619048D01*
X36085714Y21619048D01*
X35323809Y21961905D02*
X35285714Y22000000D01*
X35209523Y22038096D01*
X35019047Y22038096D01*
X34942857Y22000000D01*
X34904761Y21961905D01*
X34866666Y21885715D01*
X34866666Y21809524D01*
X34904761Y21695239D01*
X35361904Y21238096D01*
X34866666Y21238096D01*
X36266666Y18438096D02*
X36266666Y17866667D01*
X36304761Y17752381D01*
X36380952Y17676191D01*
X36495238Y17638096D01*
X36571428Y17638096D01*
X35885714Y17638096D02*
X35885714Y18438096D01*
X35580952Y18438096D01*
X35504761Y18400000D01*
X35466666Y18361905D01*
X35428571Y18285715D01*
X35428571Y18171429D01*
X35466666Y18095239D01*
X35504761Y18057143D01*
X35580952Y18019048D01*
X35885714Y18019048D01*
X35161904Y18438096D02*
X34666666Y18438096D01*
X34933333Y18133334D01*
X34819047Y18133334D01*
X34742857Y18095239D01*
X34704761Y18057143D01*
X34666666Y17980953D01*
X34666666Y17790477D01*
X34704761Y17714286D01*
X34742857Y17676191D01*
X34819047Y17638096D01*
X35047619Y17638096D01*
X35123809Y17676191D01*
X35161904Y17714286D01*
X36266666Y17038096D02*
X36266666Y16466667D01*
X36304761Y16352381D01*
X36380952Y16276191D01*
X36495238Y16238096D01*
X36571428Y16238096D01*
X35885714Y16238096D02*
X35885714Y17038096D01*
X35580952Y17038096D01*
X35504761Y17000000D01*
X35466666Y16961905D01*
X35428571Y16885715D01*
X35428571Y16771429D01*
X35466666Y16695239D01*
X35504761Y16657143D01*
X35580952Y16619048D01*
X35885714Y16619048D01*
X34742857Y16771429D02*
X34742857Y16238096D01*
X34933333Y17076191D02*
X35123809Y16504762D01*
X34628571Y16504762D01*
X17366666Y26038096D02*
X17366666Y25466667D01*
X17404761Y25352381D01*
X17480952Y25276191D01*
X17595238Y25238096D01*
X17671428Y25238096D01*
X16985714Y25238096D02*
X16985714Y26038096D01*
X16680952Y26038096D01*
X16604761Y26000000D01*
X16566666Y25961905D01*
X16528571Y25885715D01*
X16528571Y25771429D01*
X16566666Y25695239D01*
X16604761Y25657143D01*
X16680952Y25619048D01*
X16985714Y25619048D01*
X15804761Y26038096D02*
X16185714Y26038096D01*
X16223809Y25657143D01*
X16185714Y25695239D01*
X16109523Y25733334D01*
X15919047Y25733334D01*
X15842857Y25695239D01*
X15804761Y25657143D01*
X15766666Y25580953D01*
X15766666Y25390477D01*
X15804761Y25314286D01*
X15842857Y25276191D01*
X15919047Y25238096D01*
X16109523Y25238096D01*
X16185714Y25276191D01*
X16223809Y25314286D01*
X17366666Y22338096D02*
X17366666Y21766667D01*
X17404761Y21652381D01*
X17480952Y21576191D01*
X17595238Y21538096D01*
X17671428Y21538096D01*
X16985714Y21538096D02*
X16985714Y22338096D01*
X16680952Y22338096D01*
X16604761Y22300000D01*
X16566666Y22261905D01*
X16528571Y22185715D01*
X16528571Y22071429D01*
X16566666Y21995239D01*
X16604761Y21957143D01*
X16680952Y21919048D01*
X16985714Y21919048D01*
X15842857Y22338096D02*
X15995238Y22338096D01*
X16071428Y22300000D01*
X16109523Y22261905D01*
X16185714Y22147620D01*
X16223809Y21995239D01*
X16223809Y21690477D01*
X16185714Y21614286D01*
X16147619Y21576191D01*
X16071428Y21538096D01*
X15919047Y21538096D01*
X15842857Y21576191D01*
X15804761Y21614286D01*
X15766666Y21690477D01*
X15766666Y21880953D01*
X15804761Y21957143D01*
X15842857Y21995239D01*
X15919047Y22033334D01*
X16071428Y22033334D01*
X16147619Y21995239D01*
X16185714Y21957143D01*
X16223809Y21880953D01*
X17366666Y27638096D02*
X17366666Y27066667D01*
X17404761Y26952381D01*
X17480952Y26876191D01*
X17595238Y26838096D01*
X17671428Y26838096D01*
X16985714Y26838096D02*
X16985714Y27638096D01*
X16680952Y27638096D01*
X16604761Y27600000D01*
X16566666Y27561905D01*
X16528571Y27485715D01*
X16528571Y27371429D01*
X16566666Y27295239D01*
X16604761Y27257143D01*
X16680952Y27219048D01*
X16985714Y27219048D01*
X16261904Y27638096D02*
X15728571Y27638096D01*
X16071428Y26838096D01*
X17366666Y20838096D02*
X17366666Y20266667D01*
X17404761Y20152381D01*
X17480952Y20076191D01*
X17595238Y20038096D01*
X17671428Y20038096D01*
X16985714Y20038096D02*
X16985714Y20838096D01*
X16680952Y20838096D01*
X16604761Y20800000D01*
X16566666Y20761905D01*
X16528571Y20685715D01*
X16528571Y20571429D01*
X16566666Y20495239D01*
X16604761Y20457143D01*
X16680952Y20419048D01*
X16985714Y20419048D01*
X16071428Y20495239D02*
X16147619Y20533334D01*
X16185714Y20571429D01*
X16223809Y20647620D01*
X16223809Y20685715D01*
X16185714Y20761905D01*
X16147619Y20800000D01*
X16071428Y20838096D01*
X15919047Y20838096D01*
X15842857Y20800000D01*
X15804761Y20761905D01*
X15766666Y20685715D01*
X15766666Y20647620D01*
X15804761Y20571429D01*
X15842857Y20533334D01*
X15919047Y20495239D01*
X16071428Y20495239D01*
X16147619Y20457143D01*
X16185714Y20419048D01*
X16223809Y20342858D01*
X16223809Y20190477D01*
X16185714Y20114286D01*
X16147619Y20076191D01*
X16071428Y20038096D01*
X15919047Y20038096D01*
X15842857Y20076191D01*
X15804761Y20114286D01*
X15766666Y20190477D01*
X15766666Y20342858D01*
X15804761Y20419048D01*
X15842857Y20457143D01*
X15919047Y20495239D01*
M02*
