G04 #@! TF.GenerationSoftware,KiCad,Pcbnew,(5.1.4)-1*
G04 #@! TF.CreationDate,2021-07-31T01:35:56+09:00*
G04 #@! TF.ProjectId,m5-pantilt,6d352d70-616e-4746-996c-742e6b696361,1*
G04 #@! TF.SameCoordinates,PX5f5e100PY5f5e100*
G04 #@! TF.FileFunction,Profile,NP*
%FSLAX46Y46*%
G04 Gerber Fmt 4.6, Leading zero omitted, Abs format (unit mm)*
G04 Created by KiCad (PCBNEW (5.1.4)-1) date 2021-07-31 01:35:56*
%MOMM*%
%LPD*%
G04 APERTURE LIST*
%ADD10C,0.050000*%
G04 APERTURE END LIST*
D10*
X6927364Y11023600D02*
G75*
G03X6927364Y11023600I-704364J0D01*
G01*
X6901964Y38970437D02*
G75*
G03X6901964Y38970437I-704364J0D01*
G01*
X24988600Y10726400D02*
X24988600Y18226400D01*
X12153600Y10726400D02*
X24988600Y10726400D01*
X12153600Y18226400D02*
X12153600Y10726400D01*
X24988600Y18226400D02*
X12153600Y18226400D01*
X0Y10000000D02*
X0Y40000000D01*
X40000000Y0D02*
X10000000Y0D01*
X500000Y3000000D02*
X500000Y10000000D01*
X40000000Y50000000D02*
X40000000Y49500000D01*
X47000000Y49500000D02*
G75*
G02X49500000Y47000000I0J-2500000D01*
G01*
X500000Y47000000D02*
X500000Y40000000D01*
X500000Y47000000D02*
G75*
G02X3000000Y49500000I2500000J0D01*
G01*
X49500000Y40000000D02*
X50000000Y40000000D01*
X49500000Y10000000D02*
X50000000Y10000000D01*
X10000000Y50000000D02*
X40000000Y50000000D01*
X47000000Y49500000D02*
X40000000Y49500000D01*
X3000000Y49500000D02*
X10000000Y49500000D01*
X3000000Y500000D02*
X10000000Y500000D01*
X3000000Y500000D02*
G75*
G02X500000Y3000000I0J2500000D01*
G01*
X40000000Y500000D02*
X40000000Y0D01*
X50000000Y40000000D02*
X50000000Y10000000D01*
X49500000Y3000000D02*
G75*
G02X47000000Y500000I-2500000J0D01*
G01*
X49500000Y3000000D02*
X49500000Y10000000D01*
X10000000Y50000000D02*
X10000000Y49500000D01*
X500000Y10000000D02*
X0Y10000000D01*
X49500000Y47000000D02*
X49500000Y40000000D01*
X10000000Y500000D02*
X10000000Y0D01*
X47000000Y500000D02*
X40000000Y500000D01*
X0Y40000000D02*
X500000Y40000000D01*
M02*
