G04 #@! TF.GenerationSoftware,KiCad,Pcbnew,(5.1.5)-3*
G04 #@! TF.CreationDate,2021-12-22T01:00:50+09:00*
G04 #@! TF.ProjectId,m5-pantilt,6d352d70-616e-4746-996c-742e6b696361,1*
G04 #@! TF.SameCoordinates,PX5f5e100PY5f5e100*
G04 #@! TF.FileFunction,Copper,L1,Top*
G04 #@! TF.FilePolarity,Positive*
%FSLAX46Y46*%
G04 Gerber Fmt 4.6, Leading zero omitted, Abs format (unit mm)*
G04 Created by KiCad (PCBNEW (5.1.5)-3) date 2021-12-22 01:00:50*
%MOMM*%
%LPD*%
G04 APERTURE LIST*
%ADD10R,1.000000X1.500000*%
%ADD11R,0.800100X0.254000*%
%ADD12O,1.700000X1.700000*%
%ADD13R,1.700000X1.700000*%
%ADD14O,1.200000X1.750000*%
%ADD15C,0.152000*%
%ADD16C,1.600000*%
%ADD17C,1.700000*%
%ADD18C,2.000000*%
%ADD19O,2.000000X1.700000*%
%ADD20C,0.600000*%
%ADD21C,0.200000*%
%ADD22C,1.000000*%
%ADD23C,1.600000*%
%ADD24C,1.200000*%
%ADD25C,0.254000*%
G04 APERTURE END LIST*
D10*
X22845000Y29210000D03*
X24145000Y29210000D03*
X24130000Y26670000D03*
X22830000Y26670000D03*
D11*
X20059750Y24021801D03*
X20059750Y23521800D03*
X20059750Y23021800D03*
X20059750Y22521799D03*
X16948250Y22521799D03*
X16948250Y23021800D03*
X16948250Y23521800D03*
X16948250Y24021801D03*
D12*
X42926000Y19304000D03*
X42926000Y16764000D03*
X40386000Y19304000D03*
X40386000Y16764000D03*
X37846000Y19304000D03*
D13*
X37846000Y16764000D03*
D14*
X27000000Y45000000D03*
X29000000Y45000000D03*
X31000000Y45000000D03*
G04 #@! TA.AperFunction,ComponentPad*
D15*
G36*
X33374505Y45873796D02*
G01*
X33398773Y45870196D01*
X33422572Y45864235D01*
X33445671Y45855970D01*
X33467850Y45845480D01*
X33488893Y45832868D01*
X33508599Y45818253D01*
X33526777Y45801777D01*
X33543253Y45783599D01*
X33557868Y45763893D01*
X33570480Y45742850D01*
X33580970Y45720671D01*
X33589235Y45697572D01*
X33595196Y45673773D01*
X33598796Y45649505D01*
X33600000Y45625001D01*
X33600000Y44374999D01*
X33598796Y44350495D01*
X33595196Y44326227D01*
X33589235Y44302428D01*
X33580970Y44279329D01*
X33570480Y44257150D01*
X33557868Y44236107D01*
X33543253Y44216401D01*
X33526777Y44198223D01*
X33508599Y44181747D01*
X33488893Y44167132D01*
X33467850Y44154520D01*
X33445671Y44144030D01*
X33422572Y44135765D01*
X33398773Y44129804D01*
X33374505Y44126204D01*
X33350001Y44125000D01*
X32649999Y44125000D01*
X32625495Y44126204D01*
X32601227Y44129804D01*
X32577428Y44135765D01*
X32554329Y44144030D01*
X32532150Y44154520D01*
X32511107Y44167132D01*
X32491401Y44181747D01*
X32473223Y44198223D01*
X32456747Y44216401D01*
X32442132Y44236107D01*
X32429520Y44257150D01*
X32419030Y44279329D01*
X32410765Y44302428D01*
X32404804Y44326227D01*
X32401204Y44350495D01*
X32400000Y44374999D01*
X32400000Y45625001D01*
X32401204Y45649505D01*
X32404804Y45673773D01*
X32410765Y45697572D01*
X32419030Y45720671D01*
X32429520Y45742850D01*
X32442132Y45763893D01*
X32456747Y45783599D01*
X32473223Y45801777D01*
X32491401Y45818253D01*
X32511107Y45832868D01*
X32532150Y45845480D01*
X32554329Y45855970D01*
X32577428Y45864235D01*
X32601227Y45870196D01*
X32625495Y45873796D01*
X32649999Y45875000D01*
X33350001Y45875000D01*
X33374505Y45873796D01*
G37*
G04 #@! TD.AperFunction*
G04 #@! TA.AperFunction,SMDPad,CuDef*
G36*
X24591779Y32223856D02*
G01*
X24614834Y32220437D01*
X24637443Y32214773D01*
X24659387Y32206921D01*
X24680457Y32196956D01*
X24700448Y32184974D01*
X24719168Y32171090D01*
X24736438Y32155438D01*
X24752090Y32138168D01*
X24765974Y32119448D01*
X24777956Y32099457D01*
X24787921Y32078387D01*
X24795773Y32056443D01*
X24801437Y32033834D01*
X24804856Y32010779D01*
X24806000Y31987500D01*
X24806000Y31512500D01*
X24804856Y31489221D01*
X24801437Y31466166D01*
X24795773Y31443557D01*
X24787921Y31421613D01*
X24777956Y31400543D01*
X24765974Y31380552D01*
X24752090Y31361832D01*
X24736438Y31344562D01*
X24719168Y31328910D01*
X24700448Y31315026D01*
X24680457Y31303044D01*
X24659387Y31293079D01*
X24637443Y31285227D01*
X24614834Y31279563D01*
X24591779Y31276144D01*
X24568500Y31275000D01*
X23993500Y31275000D01*
X23970221Y31276144D01*
X23947166Y31279563D01*
X23924557Y31285227D01*
X23902613Y31293079D01*
X23881543Y31303044D01*
X23861552Y31315026D01*
X23842832Y31328910D01*
X23825562Y31344562D01*
X23809910Y31361832D01*
X23796026Y31380552D01*
X23784044Y31400543D01*
X23774079Y31421613D01*
X23766227Y31443557D01*
X23760563Y31466166D01*
X23757144Y31489221D01*
X23756000Y31512500D01*
X23756000Y31987500D01*
X23757144Y32010779D01*
X23760563Y32033834D01*
X23766227Y32056443D01*
X23774079Y32078387D01*
X23784044Y32099457D01*
X23796026Y32119448D01*
X23809910Y32138168D01*
X23825562Y32155438D01*
X23842832Y32171090D01*
X23861552Y32184974D01*
X23881543Y32196956D01*
X23902613Y32206921D01*
X23924557Y32214773D01*
X23947166Y32220437D01*
X23970221Y32223856D01*
X23993500Y32225000D01*
X24568500Y32225000D01*
X24591779Y32223856D01*
G37*
G04 #@! TD.AperFunction*
G04 #@! TA.AperFunction,SMDPad,CuDef*
G36*
X22841779Y32223856D02*
G01*
X22864834Y32220437D01*
X22887443Y32214773D01*
X22909387Y32206921D01*
X22930457Y32196956D01*
X22950448Y32184974D01*
X22969168Y32171090D01*
X22986438Y32155438D01*
X23002090Y32138168D01*
X23015974Y32119448D01*
X23027956Y32099457D01*
X23037921Y32078387D01*
X23045773Y32056443D01*
X23051437Y32033834D01*
X23054856Y32010779D01*
X23056000Y31987500D01*
X23056000Y31512500D01*
X23054856Y31489221D01*
X23051437Y31466166D01*
X23045773Y31443557D01*
X23037921Y31421613D01*
X23027956Y31400543D01*
X23015974Y31380552D01*
X23002090Y31361832D01*
X22986438Y31344562D01*
X22969168Y31328910D01*
X22950448Y31315026D01*
X22930457Y31303044D01*
X22909387Y31293079D01*
X22887443Y31285227D01*
X22864834Y31279563D01*
X22841779Y31276144D01*
X22818500Y31275000D01*
X22243500Y31275000D01*
X22220221Y31276144D01*
X22197166Y31279563D01*
X22174557Y31285227D01*
X22152613Y31293079D01*
X22131543Y31303044D01*
X22111552Y31315026D01*
X22092832Y31328910D01*
X22075562Y31344562D01*
X22059910Y31361832D01*
X22046026Y31380552D01*
X22034044Y31400543D01*
X22024079Y31421613D01*
X22016227Y31443557D01*
X22010563Y31466166D01*
X22007144Y31489221D01*
X22006000Y31512500D01*
X22006000Y31987500D01*
X22007144Y32010779D01*
X22010563Y32033834D01*
X22016227Y32056443D01*
X22024079Y32078387D01*
X22034044Y32099457D01*
X22046026Y32119448D01*
X22059910Y32138168D01*
X22075562Y32155438D01*
X22092832Y32171090D01*
X22111552Y32184974D01*
X22131543Y32196956D01*
X22152613Y32206921D01*
X22174557Y32214773D01*
X22197166Y32220437D01*
X22220221Y32223856D01*
X22243500Y32225000D01*
X22818500Y32225000D01*
X22841779Y32223856D01*
G37*
G04 #@! TD.AperFunction*
G04 #@! TA.AperFunction,SMDPad,CuDef*
G36*
X24591779Y22978256D02*
G01*
X24614834Y22974837D01*
X24637443Y22969173D01*
X24659387Y22961321D01*
X24680457Y22951356D01*
X24700448Y22939374D01*
X24719168Y22925490D01*
X24736438Y22909838D01*
X24752090Y22892568D01*
X24765974Y22873848D01*
X24777956Y22853857D01*
X24787921Y22832787D01*
X24795773Y22810843D01*
X24801437Y22788234D01*
X24804856Y22765179D01*
X24806000Y22741900D01*
X24806000Y22266900D01*
X24804856Y22243621D01*
X24801437Y22220566D01*
X24795773Y22197957D01*
X24787921Y22176013D01*
X24777956Y22154943D01*
X24765974Y22134952D01*
X24752090Y22116232D01*
X24736438Y22098962D01*
X24719168Y22083310D01*
X24700448Y22069426D01*
X24680457Y22057444D01*
X24659387Y22047479D01*
X24637443Y22039627D01*
X24614834Y22033963D01*
X24591779Y22030544D01*
X24568500Y22029400D01*
X23993500Y22029400D01*
X23970221Y22030544D01*
X23947166Y22033963D01*
X23924557Y22039627D01*
X23902613Y22047479D01*
X23881543Y22057444D01*
X23861552Y22069426D01*
X23842832Y22083310D01*
X23825562Y22098962D01*
X23809910Y22116232D01*
X23796026Y22134952D01*
X23784044Y22154943D01*
X23774079Y22176013D01*
X23766227Y22197957D01*
X23760563Y22220566D01*
X23757144Y22243621D01*
X23756000Y22266900D01*
X23756000Y22741900D01*
X23757144Y22765179D01*
X23760563Y22788234D01*
X23766227Y22810843D01*
X23774079Y22832787D01*
X23784044Y22853857D01*
X23796026Y22873848D01*
X23809910Y22892568D01*
X23825562Y22909838D01*
X23842832Y22925490D01*
X23861552Y22939374D01*
X23881543Y22951356D01*
X23902613Y22961321D01*
X23924557Y22969173D01*
X23947166Y22974837D01*
X23970221Y22978256D01*
X23993500Y22979400D01*
X24568500Y22979400D01*
X24591779Y22978256D01*
G37*
G04 #@! TD.AperFunction*
G04 #@! TA.AperFunction,SMDPad,CuDef*
G36*
X22841779Y22978256D02*
G01*
X22864834Y22974837D01*
X22887443Y22969173D01*
X22909387Y22961321D01*
X22930457Y22951356D01*
X22950448Y22939374D01*
X22969168Y22925490D01*
X22986438Y22909838D01*
X23002090Y22892568D01*
X23015974Y22873848D01*
X23027956Y22853857D01*
X23037921Y22832787D01*
X23045773Y22810843D01*
X23051437Y22788234D01*
X23054856Y22765179D01*
X23056000Y22741900D01*
X23056000Y22266900D01*
X23054856Y22243621D01*
X23051437Y22220566D01*
X23045773Y22197957D01*
X23037921Y22176013D01*
X23027956Y22154943D01*
X23015974Y22134952D01*
X23002090Y22116232D01*
X22986438Y22098962D01*
X22969168Y22083310D01*
X22950448Y22069426D01*
X22930457Y22057444D01*
X22909387Y22047479D01*
X22887443Y22039627D01*
X22864834Y22033963D01*
X22841779Y22030544D01*
X22818500Y22029400D01*
X22243500Y22029400D01*
X22220221Y22030544D01*
X22197166Y22033963D01*
X22174557Y22039627D01*
X22152613Y22047479D01*
X22131543Y22057444D01*
X22111552Y22069426D01*
X22092832Y22083310D01*
X22075562Y22098962D01*
X22059910Y22116232D01*
X22046026Y22134952D01*
X22034044Y22154943D01*
X22024079Y22176013D01*
X22016227Y22197957D01*
X22010563Y22220566D01*
X22007144Y22243621D01*
X22006000Y22266900D01*
X22006000Y22741900D01*
X22007144Y22765179D01*
X22010563Y22788234D01*
X22016227Y22810843D01*
X22024079Y22832787D01*
X22034044Y22853857D01*
X22046026Y22873848D01*
X22059910Y22892568D01*
X22075562Y22909838D01*
X22092832Y22925490D01*
X22111552Y22939374D01*
X22131543Y22951356D01*
X22152613Y22961321D01*
X22174557Y22969173D01*
X22197166Y22974837D01*
X22220221Y22978256D01*
X22243500Y22979400D01*
X22818500Y22979400D01*
X22841779Y22978256D01*
G37*
G04 #@! TD.AperFunction*
D16*
X26416000Y15468600D03*
X26416000Y12968600D03*
D13*
X37846000Y24384000D03*
D12*
X37846000Y26924000D03*
X40386000Y24384000D03*
X40386000Y26924000D03*
X42926000Y24384000D03*
X42926000Y26924000D03*
D17*
X38500000Y41200000D03*
X38500000Y37200000D03*
X38500000Y33200000D03*
D18*
X42750000Y31200000D03*
X42750000Y43200000D03*
X36750000Y43200000D03*
X36750000Y31200000D03*
G04 #@! TA.AperFunction,ComponentPad*
D15*
G36*
X40434505Y11473796D02*
G01*
X40458773Y11470196D01*
X40482572Y11464235D01*
X40505671Y11455970D01*
X40527850Y11445480D01*
X40548893Y11432868D01*
X40568599Y11418253D01*
X40586777Y11401777D01*
X40603253Y11383599D01*
X40617868Y11363893D01*
X40630480Y11342850D01*
X40640970Y11320671D01*
X40649235Y11297572D01*
X40655196Y11273773D01*
X40658796Y11249505D01*
X40660000Y11225001D01*
X40660000Y9974999D01*
X40658796Y9950495D01*
X40655196Y9926227D01*
X40649235Y9902428D01*
X40640970Y9879329D01*
X40630480Y9857150D01*
X40617868Y9836107D01*
X40603253Y9816401D01*
X40586777Y9798223D01*
X40568599Y9781747D01*
X40548893Y9767132D01*
X40527850Y9754520D01*
X40505671Y9744030D01*
X40482572Y9735765D01*
X40458773Y9729804D01*
X40434505Y9726204D01*
X40410001Y9725000D01*
X39709999Y9725000D01*
X39685495Y9726204D01*
X39661227Y9729804D01*
X39637428Y9735765D01*
X39614329Y9744030D01*
X39592150Y9754520D01*
X39571107Y9767132D01*
X39551401Y9781747D01*
X39533223Y9798223D01*
X39516747Y9816401D01*
X39502132Y9836107D01*
X39489520Y9857150D01*
X39479030Y9879329D01*
X39470765Y9902428D01*
X39464804Y9926227D01*
X39461204Y9950495D01*
X39460000Y9974999D01*
X39460000Y11225001D01*
X39461204Y11249505D01*
X39464804Y11273773D01*
X39470765Y11297572D01*
X39479030Y11320671D01*
X39489520Y11342850D01*
X39502132Y11363893D01*
X39516747Y11383599D01*
X39533223Y11401777D01*
X39551401Y11418253D01*
X39571107Y11432868D01*
X39592150Y11445480D01*
X39614329Y11455970D01*
X39637428Y11464235D01*
X39661227Y11470196D01*
X39685495Y11473796D01*
X39709999Y11475000D01*
X40410001Y11475000D01*
X40434505Y11473796D01*
G37*
G04 #@! TD.AperFunction*
D14*
X42060000Y10600000D03*
G04 #@! TA.AperFunction,ComponentPad*
D15*
G36*
X20374505Y45873796D02*
G01*
X20398773Y45870196D01*
X20422572Y45864235D01*
X20445671Y45855970D01*
X20467850Y45845480D01*
X20488893Y45832868D01*
X20508599Y45818253D01*
X20526777Y45801777D01*
X20543253Y45783599D01*
X20557868Y45763893D01*
X20570480Y45742850D01*
X20580970Y45720671D01*
X20589235Y45697572D01*
X20595196Y45673773D01*
X20598796Y45649505D01*
X20600000Y45625001D01*
X20600000Y44374999D01*
X20598796Y44350495D01*
X20595196Y44326227D01*
X20589235Y44302428D01*
X20580970Y44279329D01*
X20570480Y44257150D01*
X20557868Y44236107D01*
X20543253Y44216401D01*
X20526777Y44198223D01*
X20508599Y44181747D01*
X20488893Y44167132D01*
X20467850Y44154520D01*
X20445671Y44144030D01*
X20422572Y44135765D01*
X20398773Y44129804D01*
X20374505Y44126204D01*
X20350001Y44125000D01*
X19649999Y44125000D01*
X19625495Y44126204D01*
X19601227Y44129804D01*
X19577428Y44135765D01*
X19554329Y44144030D01*
X19532150Y44154520D01*
X19511107Y44167132D01*
X19491401Y44181747D01*
X19473223Y44198223D01*
X19456747Y44216401D01*
X19442132Y44236107D01*
X19429520Y44257150D01*
X19419030Y44279329D01*
X19410765Y44302428D01*
X19404804Y44326227D01*
X19401204Y44350495D01*
X19400000Y44374999D01*
X19400000Y45625001D01*
X19401204Y45649505D01*
X19404804Y45673773D01*
X19410765Y45697572D01*
X19419030Y45720671D01*
X19429520Y45742850D01*
X19442132Y45763893D01*
X19456747Y45783599D01*
X19473223Y45801777D01*
X19491401Y45818253D01*
X19511107Y45832868D01*
X19532150Y45845480D01*
X19554329Y45855970D01*
X19577428Y45864235D01*
X19601227Y45870196D01*
X19625495Y45873796D01*
X19649999Y45875000D01*
X20350001Y45875000D01*
X20374505Y45873796D01*
G37*
G04 #@! TD.AperFunction*
D14*
X18000000Y45000000D03*
X16000000Y45000000D03*
X14000000Y45000000D03*
G04 #@! TA.AperFunction,SMDPad,CuDef*
D15*
G36*
X24579179Y21352656D02*
G01*
X24602234Y21349237D01*
X24624843Y21343573D01*
X24646787Y21335721D01*
X24667857Y21325756D01*
X24687848Y21313774D01*
X24706568Y21299890D01*
X24723838Y21284238D01*
X24739490Y21266968D01*
X24753374Y21248248D01*
X24765356Y21228257D01*
X24775321Y21207187D01*
X24783173Y21185243D01*
X24788837Y21162634D01*
X24792256Y21139579D01*
X24793400Y21116300D01*
X24793400Y20641300D01*
X24792256Y20618021D01*
X24788837Y20594966D01*
X24783173Y20572357D01*
X24775321Y20550413D01*
X24765356Y20529343D01*
X24753374Y20509352D01*
X24739490Y20490632D01*
X24723838Y20473362D01*
X24706568Y20457710D01*
X24687848Y20443826D01*
X24667857Y20431844D01*
X24646787Y20421879D01*
X24624843Y20414027D01*
X24602234Y20408363D01*
X24579179Y20404944D01*
X24555900Y20403800D01*
X23980900Y20403800D01*
X23957621Y20404944D01*
X23934566Y20408363D01*
X23911957Y20414027D01*
X23890013Y20421879D01*
X23868943Y20431844D01*
X23848952Y20443826D01*
X23830232Y20457710D01*
X23812962Y20473362D01*
X23797310Y20490632D01*
X23783426Y20509352D01*
X23771444Y20529343D01*
X23761479Y20550413D01*
X23753627Y20572357D01*
X23747963Y20594966D01*
X23744544Y20618021D01*
X23743400Y20641300D01*
X23743400Y21116300D01*
X23744544Y21139579D01*
X23747963Y21162634D01*
X23753627Y21185243D01*
X23761479Y21207187D01*
X23771444Y21228257D01*
X23783426Y21248248D01*
X23797310Y21266968D01*
X23812962Y21284238D01*
X23830232Y21299890D01*
X23848952Y21313774D01*
X23868943Y21325756D01*
X23890013Y21335721D01*
X23911957Y21343573D01*
X23934566Y21349237D01*
X23957621Y21352656D01*
X23980900Y21353800D01*
X24555900Y21353800D01*
X24579179Y21352656D01*
G37*
G04 #@! TD.AperFunction*
G04 #@! TA.AperFunction,SMDPad,CuDef*
G36*
X22829179Y21352656D02*
G01*
X22852234Y21349237D01*
X22874843Y21343573D01*
X22896787Y21335721D01*
X22917857Y21325756D01*
X22937848Y21313774D01*
X22956568Y21299890D01*
X22973838Y21284238D01*
X22989490Y21266968D01*
X23003374Y21248248D01*
X23015356Y21228257D01*
X23025321Y21207187D01*
X23033173Y21185243D01*
X23038837Y21162634D01*
X23042256Y21139579D01*
X23043400Y21116300D01*
X23043400Y20641300D01*
X23042256Y20618021D01*
X23038837Y20594966D01*
X23033173Y20572357D01*
X23025321Y20550413D01*
X23015356Y20529343D01*
X23003374Y20509352D01*
X22989490Y20490632D01*
X22973838Y20473362D01*
X22956568Y20457710D01*
X22937848Y20443826D01*
X22917857Y20431844D01*
X22896787Y20421879D01*
X22874843Y20414027D01*
X22852234Y20408363D01*
X22829179Y20404944D01*
X22805900Y20403800D01*
X22230900Y20403800D01*
X22207621Y20404944D01*
X22184566Y20408363D01*
X22161957Y20414027D01*
X22140013Y20421879D01*
X22118943Y20431844D01*
X22098952Y20443826D01*
X22080232Y20457710D01*
X22062962Y20473362D01*
X22047310Y20490632D01*
X22033426Y20509352D01*
X22021444Y20529343D01*
X22011479Y20550413D01*
X22003627Y20572357D01*
X21997963Y20594966D01*
X21994544Y20618021D01*
X21993400Y20641300D01*
X21993400Y21116300D01*
X21994544Y21139579D01*
X21997963Y21162634D01*
X22003627Y21185243D01*
X22011479Y21207187D01*
X22021444Y21228257D01*
X22033426Y21248248D01*
X22047310Y21266968D01*
X22062962Y21284238D01*
X22080232Y21299890D01*
X22098952Y21313774D01*
X22118943Y21325756D01*
X22140013Y21335721D01*
X22161957Y21343573D01*
X22184566Y21349237D01*
X22207621Y21352656D01*
X22230900Y21353800D01*
X22805900Y21353800D01*
X22829179Y21352656D01*
G37*
G04 #@! TD.AperFunction*
G04 #@! TA.AperFunction,SMDPad,CuDef*
G36*
X22829179Y19828656D02*
G01*
X22852234Y19825237D01*
X22874843Y19819573D01*
X22896787Y19811721D01*
X22917857Y19801756D01*
X22937848Y19789774D01*
X22956568Y19775890D01*
X22973838Y19760238D01*
X22989490Y19742968D01*
X23003374Y19724248D01*
X23015356Y19704257D01*
X23025321Y19683187D01*
X23033173Y19661243D01*
X23038837Y19638634D01*
X23042256Y19615579D01*
X23043400Y19592300D01*
X23043400Y19117300D01*
X23042256Y19094021D01*
X23038837Y19070966D01*
X23033173Y19048357D01*
X23025321Y19026413D01*
X23015356Y19005343D01*
X23003374Y18985352D01*
X22989490Y18966632D01*
X22973838Y18949362D01*
X22956568Y18933710D01*
X22937848Y18919826D01*
X22917857Y18907844D01*
X22896787Y18897879D01*
X22874843Y18890027D01*
X22852234Y18884363D01*
X22829179Y18880944D01*
X22805900Y18879800D01*
X22230900Y18879800D01*
X22207621Y18880944D01*
X22184566Y18884363D01*
X22161957Y18890027D01*
X22140013Y18897879D01*
X22118943Y18907844D01*
X22098952Y18919826D01*
X22080232Y18933710D01*
X22062962Y18949362D01*
X22047310Y18966632D01*
X22033426Y18985352D01*
X22021444Y19005343D01*
X22011479Y19026413D01*
X22003627Y19048357D01*
X21997963Y19070966D01*
X21994544Y19094021D01*
X21993400Y19117300D01*
X21993400Y19592300D01*
X21994544Y19615579D01*
X21997963Y19638634D01*
X22003627Y19661243D01*
X22011479Y19683187D01*
X22021444Y19704257D01*
X22033426Y19724248D01*
X22047310Y19742968D01*
X22062962Y19760238D01*
X22080232Y19775890D01*
X22098952Y19789774D01*
X22118943Y19801756D01*
X22140013Y19811721D01*
X22161957Y19819573D01*
X22184566Y19825237D01*
X22207621Y19828656D01*
X22230900Y19829800D01*
X22805900Y19829800D01*
X22829179Y19828656D01*
G37*
G04 #@! TD.AperFunction*
G04 #@! TA.AperFunction,SMDPad,CuDef*
G36*
X24579179Y19828656D02*
G01*
X24602234Y19825237D01*
X24624843Y19819573D01*
X24646787Y19811721D01*
X24667857Y19801756D01*
X24687848Y19789774D01*
X24706568Y19775890D01*
X24723838Y19760238D01*
X24739490Y19742968D01*
X24753374Y19724248D01*
X24765356Y19704257D01*
X24775321Y19683187D01*
X24783173Y19661243D01*
X24788837Y19638634D01*
X24792256Y19615579D01*
X24793400Y19592300D01*
X24793400Y19117300D01*
X24792256Y19094021D01*
X24788837Y19070966D01*
X24783173Y19048357D01*
X24775321Y19026413D01*
X24765356Y19005343D01*
X24753374Y18985352D01*
X24739490Y18966632D01*
X24723838Y18949362D01*
X24706568Y18933710D01*
X24687848Y18919826D01*
X24667857Y18907844D01*
X24646787Y18897879D01*
X24624843Y18890027D01*
X24602234Y18884363D01*
X24579179Y18880944D01*
X24555900Y18879800D01*
X23980900Y18879800D01*
X23957621Y18880944D01*
X23934566Y18884363D01*
X23911957Y18890027D01*
X23890013Y18897879D01*
X23868943Y18907844D01*
X23848952Y18919826D01*
X23830232Y18933710D01*
X23812962Y18949362D01*
X23797310Y18966632D01*
X23783426Y18985352D01*
X23771444Y19005343D01*
X23761479Y19026413D01*
X23753627Y19048357D01*
X23747963Y19070966D01*
X23744544Y19094021D01*
X23743400Y19117300D01*
X23743400Y19592300D01*
X23744544Y19615579D01*
X23747963Y19638634D01*
X23753627Y19661243D01*
X23761479Y19683187D01*
X23771444Y19704257D01*
X23783426Y19724248D01*
X23797310Y19742968D01*
X23812962Y19760238D01*
X23830232Y19775890D01*
X23848952Y19789774D01*
X23868943Y19801756D01*
X23890013Y19811721D01*
X23911957Y19819573D01*
X23934566Y19825237D01*
X23957621Y19828656D01*
X23980900Y19829800D01*
X24555900Y19829800D01*
X24579179Y19828656D01*
G37*
G04 #@! TD.AperFunction*
G04 #@! TA.AperFunction,ComponentPad*
G36*
X14474504Y8648796D02*
G01*
X14498773Y8645196D01*
X14522571Y8639235D01*
X14545671Y8630970D01*
X14567849Y8620480D01*
X14588893Y8607867D01*
X14608598Y8593253D01*
X14626777Y8576777D01*
X14643253Y8558598D01*
X14657867Y8538893D01*
X14670480Y8517849D01*
X14680970Y8495671D01*
X14689235Y8472571D01*
X14695196Y8448773D01*
X14698796Y8424504D01*
X14700000Y8400000D01*
X14700000Y7200000D01*
X14698796Y7175496D01*
X14695196Y7151227D01*
X14689235Y7127429D01*
X14680970Y7104329D01*
X14670480Y7082151D01*
X14657867Y7061107D01*
X14643253Y7041402D01*
X14626777Y7023223D01*
X14608598Y7006747D01*
X14588893Y6992133D01*
X14567849Y6979520D01*
X14545671Y6969030D01*
X14522571Y6960765D01*
X14498773Y6954804D01*
X14474504Y6951204D01*
X14450000Y6950000D01*
X12950000Y6950000D01*
X12925496Y6951204D01*
X12901227Y6954804D01*
X12877429Y6960765D01*
X12854329Y6969030D01*
X12832151Y6979520D01*
X12811107Y6992133D01*
X12791402Y7006747D01*
X12773223Y7023223D01*
X12756747Y7041402D01*
X12742133Y7061107D01*
X12729520Y7082151D01*
X12719030Y7104329D01*
X12710765Y7127429D01*
X12704804Y7151227D01*
X12701204Y7175496D01*
X12700000Y7200000D01*
X12700000Y8400000D01*
X12701204Y8424504D01*
X12704804Y8448773D01*
X12710765Y8472571D01*
X12719030Y8495671D01*
X12729520Y8517849D01*
X12742133Y8538893D01*
X12756747Y8558598D01*
X12773223Y8576777D01*
X12791402Y8593253D01*
X12811107Y8607867D01*
X12832151Y8620480D01*
X12854329Y8630970D01*
X12877429Y8639235D01*
X12901227Y8645196D01*
X12925496Y8648796D01*
X12950000Y8650000D01*
X14450000Y8650000D01*
X14474504Y8648796D01*
G37*
G04 #@! TD.AperFunction*
D19*
X13700000Y5300000D03*
D20*
X23495000Y24765000D03*
X39000000Y49000000D03*
X34000000Y49000000D03*
X29000000Y49000000D03*
X24000000Y49000000D03*
X19000000Y49000000D03*
X14000000Y49000000D03*
X8000000Y48500000D03*
X1500000Y45000000D03*
X48500000Y44500000D03*
X42000000Y48500000D03*
X1000000Y39000000D03*
X1000000Y34000000D03*
X1000000Y29000000D03*
X1000000Y24000000D03*
X1000000Y19000000D03*
X1000000Y14000000D03*
X1000000Y11000000D03*
X1500000Y5000000D03*
X8000000Y1500000D03*
X11000000Y1000000D03*
X16000000Y1000000D03*
X21000000Y1000000D03*
X26000000Y1000000D03*
X31000000Y1000000D03*
X36000000Y1000000D03*
X42000000Y1500000D03*
X48500000Y5500000D03*
X49000000Y11000000D03*
X49000000Y16000000D03*
X49000000Y21000000D03*
X49000000Y26000000D03*
X49000000Y32000000D03*
X49000000Y37000000D03*
X39000000Y45000000D03*
X30000000Y43750000D03*
X11023600Y33274000D03*
X25900000Y17100000D03*
X27600000Y27000000D03*
X30429200Y28676600D03*
X35800000Y11023600D03*
X30750000Y5500000D03*
X9000000Y5400000D03*
X38500000Y38750000D03*
X36500000Y41500000D03*
X39250000Y31750000D03*
X37000000Y33750000D03*
X27635200Y35001200D03*
X19100800Y38735000D03*
X27051000Y38735000D03*
X27051000Y41148000D03*
X19100800Y41097200D03*
X14833600Y41275000D03*
X16100000Y34800000D03*
X13335000Y37998400D03*
X21234400Y21640800D03*
X19380200Y36550600D03*
X25019000Y33782000D03*
X27686000Y31242000D03*
X12065000Y39243000D03*
X9144000Y33909000D03*
X10922000Y35687000D03*
X30378400Y15290800D03*
X34315400Y8686800D03*
X45669200Y28727400D03*
X42700000Y22800000D03*
X45700000Y23100000D03*
X45872400Y11988800D03*
X30276800Y23266400D03*
X45669200Y31597600D03*
X42011600Y35458400D03*
X30276800Y36372800D03*
X27584400Y23495000D03*
X20777200Y25095200D03*
X16400000Y27800000D03*
X12547600Y31191200D03*
X6248400Y24434800D03*
X11328400Y11023600D03*
X27787600Y12090400D03*
X20400000Y8300000D03*
X18338800Y28702000D03*
X7772400Y38938200D03*
X7823200Y10998200D03*
X4622800Y11023600D03*
X35900000Y15200000D03*
X45700000Y16700000D03*
X36000000Y23800000D03*
X26500000Y6400000D03*
X24100000Y3000000D03*
X20800000Y4000000D03*
X24200000Y8300000D03*
X29200000Y1800000D03*
X27500000Y18415000D03*
X30000000Y18900000D03*
X15300000Y23699997D03*
X9600000Y23700000D03*
X11300000Y15900000D03*
X9200000Y21400000D03*
X10800000Y29200000D03*
X13900000Y29200000D03*
X15600000Y7500000D03*
X12000000Y7500000D03*
X18387800Y23521800D03*
X11300000Y30100000D03*
X18084800Y36626798D03*
X11499998Y25800000D03*
X17272000Y37439600D03*
X10887845Y26414586D03*
X32766006Y12768589D03*
X16200777Y19151420D03*
X34175724Y21275733D03*
X26670000Y20278800D03*
X21209000Y19050000D03*
X27635200Y20900004D03*
X25400036Y22225000D03*
D21*
X17548300Y22521799D02*
X18548301Y23521800D01*
X16948250Y22521799D02*
X17548300Y22521799D01*
X16948250Y22521799D02*
X16348200Y22521799D01*
X16340199Y22529800D02*
X16100000Y22289601D01*
X16100000Y22289601D02*
X16100000Y21700000D01*
X15478197Y23521800D02*
X15300000Y23699997D01*
X16948250Y23521800D02*
X15478197Y23521800D01*
X18387800Y23521800D02*
X16948250Y23521800D01*
D22*
X28956000Y45015600D02*
X29000000Y45059600D01*
X28956000Y36042600D02*
X28956000Y45015600D01*
X28956000Y30734000D02*
X28956000Y36042600D01*
X25654000Y35052000D02*
X28956000Y31750000D01*
X17780000Y35052000D02*
X25654000Y35052000D01*
X16256000Y36576000D02*
X17780000Y35052000D01*
X28956000Y31750000D02*
X28956000Y30734000D01*
X16256000Y44744000D02*
X16256000Y36576000D01*
X16000000Y45000000D02*
X16256000Y44744000D01*
X26416000Y12968600D02*
X27215999Y13768599D01*
X28930600Y15483200D02*
X27215999Y13768599D01*
X28930600Y17627600D02*
X28930600Y15483200D01*
X28956000Y17653000D02*
X28930600Y17627600D01*
X28956000Y25748798D02*
X28956000Y30734000D01*
X28956000Y17653000D02*
X28956000Y25748798D01*
X39344600Y22402800D02*
X40386000Y23444200D01*
X31292800Y22402800D02*
X39344600Y22402800D01*
X28956000Y17653000D02*
X28956000Y20066000D01*
X28956000Y20066000D02*
X31292800Y22402800D01*
X40386000Y23444200D02*
X40386000Y24384000D01*
X40386000Y15586000D02*
X40386000Y16764000D01*
X27215999Y13768599D02*
X38568599Y13768599D01*
X38568599Y13768599D02*
X40386000Y15586000D01*
D21*
X18414000Y30100000D02*
X11724264Y30100000D01*
X11724264Y30100000D02*
X11300000Y30100000D01*
X20059750Y28454250D02*
X18414000Y30100000D01*
X20059750Y24021801D02*
X20059750Y28454250D01*
X18414000Y30100000D02*
X19940000Y30100000D01*
X19940000Y30100000D02*
X21590000Y31750000D01*
X21590000Y31750000D02*
X22860000Y31750000D01*
X22531000Y31275000D02*
X23326000Y30480000D01*
X22531000Y31750000D02*
X22531000Y31275000D01*
X23825000Y30480000D02*
X23326000Y30480000D01*
X24145000Y30160000D02*
X23825000Y30480000D01*
X24145000Y29210000D02*
X24145000Y30160000D01*
X17907000Y36804598D02*
X18084800Y36626798D01*
X17907000Y42907000D02*
X17907000Y36804598D01*
X20000000Y45000000D02*
X17907000Y42907000D01*
X11924262Y25800000D02*
X11499998Y25800000D01*
X11924262Y25675738D02*
X11924262Y25800000D01*
X13100000Y24500000D02*
X11924262Y25675738D01*
X16197001Y24500000D02*
X13100000Y24500000D01*
X16948250Y24021801D02*
X16675200Y24021801D01*
X16675200Y24021801D02*
X16197001Y24500000D01*
X17272000Y37863864D02*
X17272000Y37439600D01*
X17272000Y43197000D02*
X17272000Y37863864D01*
X18000000Y43925000D02*
X17272000Y43197000D01*
X18000000Y45000000D02*
X18000000Y43925000D01*
X11675737Y25199999D02*
X11111999Y25199999D01*
X10887845Y25990322D02*
X10887845Y26414586D01*
X16309820Y23021800D02*
X16188005Y22899985D01*
X11111999Y25199999D02*
X10887845Y25424153D01*
X16188005Y22899985D02*
X13975751Y22899985D01*
X16948250Y23021800D02*
X16309820Y23021800D01*
X13975751Y22899985D02*
X11675737Y25199999D01*
X10887845Y25424153D02*
X10887845Y25990322D01*
X38930589Y12768589D02*
X33190270Y12768589D01*
X33190270Y12768589D02*
X32766006Y12768589D01*
X42926000Y16764000D02*
X38930589Y12768589D01*
D23*
X47316001Y32389199D02*
X47316001Y15875999D01*
X42505200Y37200000D02*
X47316001Y32389199D01*
X38500000Y37200000D02*
X42505200Y37200000D01*
X47316001Y15875999D02*
X46354001Y14913999D01*
X46354001Y14913999D02*
X45171647Y14913999D01*
D24*
X45171647Y14913999D02*
X42413999Y14913999D01*
X39997199Y12497199D02*
X39997199Y10662801D01*
X42413999Y14913999D02*
X39997199Y12497199D01*
X39997199Y10662801D02*
X40060000Y10600000D01*
D21*
X20059750Y23021800D02*
X20059750Y22521799D01*
X24281000Y31750000D02*
X25400000Y31750000D01*
X26035000Y31115000D02*
X26035000Y25775800D01*
X25400000Y31750000D02*
X26035000Y31115000D01*
X26035000Y25775800D02*
X22531000Y22271800D01*
X22281001Y22521799D02*
X20059750Y22521799D01*
X22531000Y22271800D02*
X22281001Y22521799D01*
X16252197Y19100000D02*
X16200777Y19151420D01*
X20300000Y19100000D02*
X16252197Y19100000D01*
X22518400Y20802600D02*
X22002600Y20802600D01*
X22002600Y20802600D02*
X20300000Y19100000D01*
X42926000Y24384000D02*
X42584000Y24384000D01*
X34599988Y21275733D02*
X34175724Y21275733D01*
X39817733Y21275733D02*
X34599988Y21275733D01*
X42926000Y24384000D02*
X39817733Y21275733D01*
X25746000Y19354800D02*
X26670000Y20278800D01*
X24268400Y19354800D02*
X25746000Y19354800D01*
X21209000Y19050000D02*
X22213600Y19050000D01*
X22213600Y19050000D02*
X22518400Y19354800D01*
X27613996Y20878800D02*
X27635200Y20900004D01*
X24268400Y20878800D02*
X27613996Y20878800D01*
X24281000Y22504400D02*
X25120636Y22504400D01*
X25120636Y22504400D02*
X25400036Y22225000D01*
X20059750Y23521800D02*
X19988400Y23521800D01*
X22830000Y26670000D02*
X22830000Y29180000D01*
X22830000Y29180000D02*
X22860000Y29210000D01*
X20659800Y23521800D02*
X22860000Y25722000D01*
X20059750Y23521800D02*
X20659800Y23521800D01*
X22860000Y25722000D02*
X22860000Y27305000D01*
D25*
G36*
X39505264Y49401591D02*
G01*
X39533969Y49306964D01*
X39580583Y49219755D01*
X39643316Y49143316D01*
X39719755Y49080583D01*
X39806964Y49033969D01*
X39901591Y49005264D01*
X39975347Y48998000D01*
X40000000Y48995572D01*
X40024653Y48998000D01*
X46975450Y48998000D01*
X47387613Y48957587D01*
X47760459Y48845018D01*
X48104347Y48662170D01*
X48406165Y48416013D01*
X48654423Y48115919D01*
X48839663Y47773323D01*
X48954833Y47401269D01*
X48998000Y46990564D01*
X48998001Y40024663D01*
X48995572Y40000000D01*
X49005264Y39901591D01*
X49033969Y39806964D01*
X49080583Y39719755D01*
X49143316Y39643316D01*
X49219755Y39580583D01*
X49306964Y39533969D01*
X49401591Y39505264D01*
X49475347Y39498000D01*
X49498000Y39495769D01*
X49498001Y10504231D01*
X49475347Y10502000D01*
X49401591Y10494736D01*
X49306964Y10466031D01*
X49219755Y10419417D01*
X49143316Y10356684D01*
X49080583Y10280245D01*
X49033969Y10193036D01*
X49005264Y10098409D01*
X48995572Y10000000D01*
X48998001Y9975337D01*
X48998000Y3024551D01*
X48957587Y2612386D01*
X48845018Y2239538D01*
X48662170Y1895654D01*
X48416015Y1593837D01*
X48115922Y1345579D01*
X47773326Y1160338D01*
X47401269Y1045167D01*
X46990564Y1002000D01*
X40024653Y1002000D01*
X40000000Y1004428D01*
X39975347Y1002000D01*
X39901591Y994736D01*
X39806964Y966031D01*
X39719755Y919417D01*
X39643316Y856684D01*
X39580583Y780245D01*
X39533969Y693036D01*
X39505264Y598409D01*
X39495769Y502000D01*
X10504231Y502000D01*
X10494736Y598409D01*
X10466031Y693036D01*
X10419417Y780245D01*
X10356684Y856684D01*
X10280245Y919417D01*
X10193036Y966031D01*
X10098409Y994736D01*
X10024653Y1002000D01*
X10000000Y1004428D01*
X9975347Y1002000D01*
X3024551Y1002000D01*
X2612386Y1042413D01*
X2239538Y1154982D01*
X1895654Y1337830D01*
X1593837Y1583985D01*
X1345579Y1884078D01*
X1160338Y2226674D01*
X1045167Y2598731D01*
X1002000Y3009436D01*
X1002000Y3344718D01*
X1173000Y3344718D01*
X1173000Y2955282D01*
X1248975Y2573330D01*
X1398005Y2213539D01*
X1614364Y1889736D01*
X1889736Y1614364D01*
X2213539Y1398005D01*
X2573330Y1248975D01*
X2955282Y1173000D01*
X3344718Y1173000D01*
X3726670Y1248975D01*
X4086461Y1398005D01*
X4410264Y1614364D01*
X4685636Y1889736D01*
X4901995Y2213539D01*
X5051025Y2573330D01*
X5127000Y2955282D01*
X5127000Y3295472D01*
X5823000Y3295472D01*
X5823000Y3004528D01*
X5879760Y2719175D01*
X5991099Y2450378D01*
X6152739Y2208467D01*
X6358467Y2002739D01*
X6600378Y1841099D01*
X6869175Y1729760D01*
X7154528Y1673000D01*
X7445472Y1673000D01*
X7730825Y1729760D01*
X7999622Y1841099D01*
X8241533Y2002739D01*
X8447261Y2208467D01*
X8608901Y2450378D01*
X8720240Y2719175D01*
X8777000Y3004528D01*
X8777000Y3295472D01*
X41223000Y3295472D01*
X41223000Y3004528D01*
X41279760Y2719175D01*
X41391099Y2450378D01*
X41552739Y2208467D01*
X41758467Y2002739D01*
X42000378Y1841099D01*
X42269175Y1729760D01*
X42554528Y1673000D01*
X42845472Y1673000D01*
X43130825Y1729760D01*
X43399622Y1841099D01*
X43641533Y2002739D01*
X43847261Y2208467D01*
X44008901Y2450378D01*
X44120240Y2719175D01*
X44177000Y3004528D01*
X44177000Y3295472D01*
X44167205Y3344718D01*
X44873000Y3344718D01*
X44873000Y2955282D01*
X44948975Y2573330D01*
X45098005Y2213539D01*
X45314364Y1889736D01*
X45589736Y1614364D01*
X45913539Y1398005D01*
X46273330Y1248975D01*
X46655282Y1173000D01*
X47044718Y1173000D01*
X47426670Y1248975D01*
X47786461Y1398005D01*
X48110264Y1614364D01*
X48385636Y1889736D01*
X48601995Y2213539D01*
X48751025Y2573330D01*
X48827000Y2955282D01*
X48827000Y3344718D01*
X48751025Y3726670D01*
X48601995Y4086461D01*
X48385636Y4410264D01*
X48110264Y4685636D01*
X47786461Y4901995D01*
X47426670Y5051025D01*
X47044718Y5127000D01*
X46655282Y5127000D01*
X46273330Y5051025D01*
X45913539Y4901995D01*
X45589736Y4685636D01*
X45314364Y4410264D01*
X45098005Y4086461D01*
X44948975Y3726670D01*
X44873000Y3344718D01*
X44167205Y3344718D01*
X44120240Y3580825D01*
X44008901Y3849622D01*
X43847261Y4091533D01*
X43641533Y4297261D01*
X43399622Y4458901D01*
X43130825Y4570240D01*
X42845472Y4627000D01*
X42554528Y4627000D01*
X42269175Y4570240D01*
X42000378Y4458901D01*
X41758467Y4297261D01*
X41552739Y4091533D01*
X41391099Y3849622D01*
X41279760Y3580825D01*
X41223000Y3295472D01*
X8777000Y3295472D01*
X8720240Y3580825D01*
X8608901Y3849622D01*
X8447261Y4091533D01*
X8241533Y4297261D01*
X7999622Y4458901D01*
X7730825Y4570240D01*
X7445472Y4627000D01*
X7154528Y4627000D01*
X6869175Y4570240D01*
X6600378Y4458901D01*
X6358467Y4297261D01*
X6152739Y4091533D01*
X5991099Y3849622D01*
X5879760Y3580825D01*
X5823000Y3295472D01*
X5127000Y3295472D01*
X5127000Y3344718D01*
X5051025Y3726670D01*
X4901995Y4086461D01*
X4685636Y4410264D01*
X4410264Y4685636D01*
X4086461Y4901995D01*
X3987201Y4943110D01*
X12108524Y4943110D01*
X12110446Y4930739D01*
X12210146Y4656991D01*
X12361336Y4407954D01*
X12558205Y4193198D01*
X12793188Y4020975D01*
X13057255Y3897904D01*
X13340258Y3828715D01*
X13573000Y3972768D01*
X13573000Y5173000D01*
X13827000Y5173000D01*
X13827000Y3972768D01*
X14059742Y3828715D01*
X14342745Y3897904D01*
X14606812Y4020975D01*
X14841795Y4193198D01*
X15038664Y4407954D01*
X15189854Y4656991D01*
X15289554Y4930739D01*
X15291476Y4943110D01*
X15170155Y5173000D01*
X13827000Y5173000D01*
X13573000Y5173000D01*
X12229845Y5173000D01*
X12108524Y4943110D01*
X3987201Y4943110D01*
X3726670Y5051025D01*
X3344718Y5127000D01*
X2955282Y5127000D01*
X2573330Y5051025D01*
X2213539Y4901995D01*
X1889736Y4685636D01*
X1614364Y4410264D01*
X1398005Y4086461D01*
X1248975Y3726670D01*
X1173000Y3344718D01*
X1002000Y3344718D01*
X1002000Y5656890D01*
X12108524Y5656890D01*
X12229845Y5427000D01*
X13573000Y5427000D01*
X13573000Y5447000D01*
X13827000Y5447000D01*
X13827000Y5427000D01*
X15170155Y5427000D01*
X15291476Y5656890D01*
X15289554Y5669261D01*
X15189854Y5943009D01*
X15038664Y6192046D01*
X14841795Y6406802D01*
X14693577Y6515434D01*
X14729094Y6526208D01*
X14855181Y6593603D01*
X14965698Y6684302D01*
X15056397Y6794819D01*
X15123792Y6920906D01*
X15165294Y7057719D01*
X15179307Y7200000D01*
X15179307Y8400000D01*
X15165294Y8542281D01*
X15123792Y8679094D01*
X15056397Y8805181D01*
X14965698Y8915698D01*
X14855181Y9006397D01*
X14729094Y9073792D01*
X14592281Y9115294D01*
X14450000Y9129307D01*
X12950000Y9129307D01*
X12807719Y9115294D01*
X12670906Y9073792D01*
X12544819Y9006397D01*
X12434302Y8915698D01*
X12343603Y8805181D01*
X12276208Y8679094D01*
X12234706Y8542281D01*
X12220693Y8400000D01*
X12220693Y7200000D01*
X12234706Y7057719D01*
X12276208Y6920906D01*
X12343603Y6794819D01*
X12434302Y6684302D01*
X12544819Y6593603D01*
X12670906Y6526208D01*
X12706423Y6515434D01*
X12558205Y6406802D01*
X12361336Y6192046D01*
X12210146Y5943009D01*
X12110446Y5669261D01*
X12108524Y5656890D01*
X1002000Y5656890D01*
X1002000Y9975348D01*
X1004428Y10000000D01*
X994736Y10098409D01*
X966031Y10193036D01*
X919417Y10280245D01*
X856684Y10356684D01*
X780245Y10419417D01*
X693036Y10466031D01*
X598409Y10494736D01*
X524653Y10502000D01*
X502000Y10504231D01*
X502000Y11143805D01*
X5002541Y11143805D01*
X5002541Y10903395D01*
X5049443Y10667605D01*
X5141444Y10445496D01*
X5275008Y10245603D01*
X5445003Y10075608D01*
X5644896Y9942044D01*
X5867005Y9850043D01*
X6102795Y9803141D01*
X6343205Y9803141D01*
X6578995Y9850043D01*
X6801104Y9942044D01*
X7000997Y10075608D01*
X7170992Y10245603D01*
X7304556Y10445496D01*
X7396557Y10667605D01*
X7443459Y10903395D01*
X7443459Y11143805D01*
X7396557Y11379595D01*
X7304556Y11601704D01*
X7170992Y11801597D01*
X7000997Y11971592D01*
X6801104Y12105156D01*
X6578995Y12197157D01*
X6343205Y12244059D01*
X6102795Y12244059D01*
X5867005Y12197157D01*
X5644896Y12105156D01*
X5445003Y11971592D01*
X5275008Y11801597D01*
X5141444Y11601704D01*
X5049443Y11379595D01*
X5002541Y11143805D01*
X502000Y11143805D01*
X502000Y26491114D01*
X10110845Y26491114D01*
X10110845Y26338058D01*
X10140704Y26187943D01*
X10199276Y26046538D01*
X10284309Y25919277D01*
X10310845Y25892741D01*
X10310845Y25452484D01*
X10308055Y25424153D01*
X10310845Y25395822D01*
X10310845Y25395818D01*
X10313082Y25373108D01*
X10319194Y25311042D01*
X10332930Y25265764D01*
X10352188Y25202278D01*
X10405766Y25102039D01*
X10477871Y25014179D01*
X10499884Y24996113D01*
X10683956Y24812042D01*
X10702025Y24790025D01*
X10789884Y24717920D01*
X10890123Y24664342D01*
X10934781Y24650795D01*
X10998887Y24631348D01*
X11111999Y24620208D01*
X11140338Y24622999D01*
X11436736Y24622999D01*
X13547716Y22512018D01*
X13565777Y22490011D01*
X13587784Y22471950D01*
X13587786Y22471948D01*
X13607731Y22455580D01*
X13653636Y22417906D01*
X13753875Y22364328D01*
X13798533Y22350781D01*
X13862639Y22331334D01*
X13920637Y22325622D01*
X13947415Y22322985D01*
X13947420Y22322985D01*
X13975751Y22320195D01*
X14004082Y22322985D01*
X15917748Y22322985D01*
X15925295Y22256506D01*
X15964243Y22137640D01*
X16025633Y22028657D01*
X16107105Y21933745D01*
X16205528Y21856550D01*
X16317119Y21800041D01*
X16437591Y21766387D01*
X16562313Y21756883D01*
X16662500Y21759799D01*
X16821250Y21918549D01*
X16821250Y22415493D01*
X17075250Y22415493D01*
X17075250Y21918549D01*
X17234000Y21759799D01*
X17334187Y21756883D01*
X17458909Y21766387D01*
X17579381Y21800041D01*
X17690972Y21856550D01*
X17789395Y21933745D01*
X17870867Y22028657D01*
X17932257Y22137640D01*
X17971205Y22256506D01*
X17983300Y22363049D01*
X17824550Y22521799D01*
X17983300Y22680549D01*
X17971205Y22787092D01*
X17932257Y22905958D01*
X17870867Y23014941D01*
X17864980Y23021800D01*
X17870867Y23028658D01*
X17932257Y23137641D01*
X17971205Y23256507D01*
X17983300Y23363050D01*
X17824550Y23521800D01*
X17983300Y23680550D01*
X17971205Y23787093D01*
X17932257Y23905959D01*
X17870867Y24014942D01*
X17827607Y24065338D01*
X17827607Y24148801D01*
X17818397Y24242309D01*
X17791122Y24332224D01*
X17746829Y24415090D01*
X17687221Y24487722D01*
X17614589Y24547330D01*
X17531723Y24591623D01*
X17441808Y24618898D01*
X17348300Y24628108D01*
X16884894Y24628108D01*
X16625038Y24887964D01*
X16606975Y24909974D01*
X16519116Y24982079D01*
X16418877Y25035657D01*
X16354771Y25055103D01*
X16310112Y25068651D01*
X16255046Y25074074D01*
X16225337Y25077000D01*
X16225332Y25077000D01*
X16197001Y25079790D01*
X16168670Y25077000D01*
X13339001Y25077000D01*
X12488568Y25927433D01*
X12459919Y26021876D01*
X12406341Y26122115D01*
X12334236Y26209974D01*
X12246377Y26282079D01*
X12146138Y26335657D01*
X12037374Y26368650D01*
X12029408Y26369435D01*
X11995307Y26403536D01*
X11868046Y26488569D01*
X11726641Y26547141D01*
X11650696Y26562247D01*
X11634986Y26641229D01*
X11576414Y26782634D01*
X11491381Y26909895D01*
X11383154Y27018122D01*
X11255893Y27103155D01*
X11114488Y27161727D01*
X10964373Y27191586D01*
X10811317Y27191586D01*
X10661202Y27161727D01*
X10519797Y27103155D01*
X10392536Y27018122D01*
X10284309Y26909895D01*
X10199276Y26782634D01*
X10140704Y26641229D01*
X10110845Y26491114D01*
X502000Y26491114D01*
X502000Y30176528D01*
X10523000Y30176528D01*
X10523000Y30023472D01*
X10552859Y29873357D01*
X10611431Y29731952D01*
X10696464Y29604691D01*
X10804691Y29496464D01*
X10931952Y29411431D01*
X11073357Y29352859D01*
X11223472Y29323000D01*
X11376528Y29323000D01*
X11526643Y29352859D01*
X11668048Y29411431D01*
X11795309Y29496464D01*
X11821845Y29523000D01*
X18174999Y29523000D01*
X19482751Y28215247D01*
X19482750Y24593587D01*
X19476277Y24591623D01*
X19393411Y24547330D01*
X19320779Y24487722D01*
X19261171Y24415090D01*
X19216878Y24332224D01*
X19189603Y24242309D01*
X19180393Y24148801D01*
X19180393Y23894801D01*
X19189603Y23801293D01*
X19198549Y23771800D01*
X19189603Y23742308D01*
X19180393Y23648800D01*
X19180393Y23394800D01*
X19189603Y23301292D01*
X19198549Y23271800D01*
X19189603Y23242308D01*
X19180393Y23148800D01*
X19180393Y22894800D01*
X19189603Y22801292D01*
X19198549Y22771800D01*
X19189603Y22742307D01*
X19180393Y22648799D01*
X19180393Y22394799D01*
X19189603Y22301291D01*
X19216878Y22211376D01*
X19261171Y22128510D01*
X19320779Y22055878D01*
X19393411Y21996270D01*
X19476277Y21951977D01*
X19566192Y21924702D01*
X19659700Y21915492D01*
X20459800Y21915492D01*
X20553308Y21924702D01*
X20619560Y21944799D01*
X21606802Y21944799D01*
X21647497Y21868663D01*
X21736641Y21760041D01*
X21813736Y21696770D01*
X21724041Y21623159D01*
X21634897Y21514537D01*
X21568657Y21390610D01*
X21527866Y21256142D01*
X21515600Y21131602D01*
X20060999Y19677000D01*
X16774042Y19677000D01*
X16696086Y19754956D01*
X16568825Y19839989D01*
X16427420Y19898561D01*
X16277305Y19928420D01*
X16124249Y19928420D01*
X15974134Y19898561D01*
X15832729Y19839989D01*
X15705468Y19754956D01*
X15597241Y19646729D01*
X15512208Y19519468D01*
X15453636Y19378063D01*
X15423777Y19227948D01*
X15423777Y19074892D01*
X15453636Y18924777D01*
X15512208Y18783372D01*
X15548939Y18728400D01*
X12178253Y18728400D01*
X12153600Y18730828D01*
X12128947Y18728400D01*
X12055191Y18721136D01*
X11960564Y18692431D01*
X11873355Y18645817D01*
X11796916Y18583084D01*
X11734183Y18506645D01*
X11687569Y18419436D01*
X11658864Y18324809D01*
X11649172Y18226400D01*
X11651600Y18201747D01*
X11651601Y10751063D01*
X11649172Y10726400D01*
X11658864Y10627991D01*
X11687569Y10533364D01*
X11734183Y10446155D01*
X11796916Y10369716D01*
X11873355Y10306983D01*
X11960564Y10260369D01*
X12055191Y10231664D01*
X12128947Y10224400D01*
X12153600Y10221972D01*
X12178253Y10224400D01*
X24963947Y10224400D01*
X24988600Y10221972D01*
X25013253Y10224400D01*
X25087009Y10231664D01*
X25181636Y10260369D01*
X25268845Y10306983D01*
X25345284Y10369716D01*
X25408017Y10446155D01*
X25454631Y10533364D01*
X25483336Y10627991D01*
X25493028Y10726400D01*
X25490600Y10751053D01*
X25490600Y12088049D01*
X25601960Y11976689D01*
X25811114Y11836937D01*
X26043513Y11740674D01*
X26290226Y11691600D01*
X26541774Y11691600D01*
X26788487Y11740674D01*
X27020886Y11836937D01*
X27230040Y11976689D01*
X27407911Y12154560D01*
X27547663Y12363714D01*
X27643926Y12596113D01*
X27682810Y12791599D01*
X31989006Y12791599D01*
X31989006Y12692061D01*
X32018865Y12541946D01*
X32077437Y12400541D01*
X32162470Y12273280D01*
X32270697Y12165053D01*
X32397958Y12080020D01*
X32539363Y12021448D01*
X32689478Y11991589D01*
X32842534Y11991589D01*
X32992649Y12021448D01*
X33134054Y12080020D01*
X33261315Y12165053D01*
X33287851Y12191589D01*
X38902258Y12191589D01*
X38920199Y12189822D01*
X38920199Y10715708D01*
X38914988Y10662801D01*
X38920199Y10609894D01*
X38920199Y10609892D01*
X38935783Y10451672D01*
X38980693Y10303624D01*
X38980693Y9974999D01*
X38994706Y9832718D01*
X39036208Y9695906D01*
X39103603Y9569818D01*
X39194302Y9459302D01*
X39304818Y9368603D01*
X39430906Y9301208D01*
X39567718Y9259706D01*
X39709999Y9245693D01*
X40410001Y9245693D01*
X40552282Y9259706D01*
X40689094Y9301208D01*
X40815182Y9368603D01*
X40925698Y9459302D01*
X41016397Y9569818D01*
X41044097Y9621642D01*
X41103693Y9533275D01*
X41276526Y9361922D01*
X41479467Y9227579D01*
X41704718Y9135409D01*
X41742391Y9131538D01*
X41933000Y9256269D01*
X41933000Y10473000D01*
X42187000Y10473000D01*
X42187000Y9256269D01*
X42377609Y9131538D01*
X42415282Y9135409D01*
X42640533Y9227579D01*
X42843474Y9361922D01*
X43016307Y9533275D01*
X43152390Y9735054D01*
X43246493Y9959504D01*
X43295000Y10198000D01*
X43295000Y10473000D01*
X42187000Y10473000D01*
X41933000Y10473000D01*
X41913000Y10473000D01*
X41913000Y10727000D01*
X41933000Y10727000D01*
X41933000Y11943731D01*
X42187000Y11943731D01*
X42187000Y10727000D01*
X43295000Y10727000D01*
X43295000Y11002000D01*
X43246493Y11240496D01*
X43152390Y11464946D01*
X43016307Y11666725D01*
X42843474Y11838078D01*
X42640533Y11972421D01*
X42415282Y12064591D01*
X42377609Y12068462D01*
X42187000Y11943731D01*
X41933000Y11943731D01*
X41742391Y12068462D01*
X41704718Y12064591D01*
X41479467Y11972421D01*
X41276526Y11838078D01*
X41103693Y11666725D01*
X41074199Y11622992D01*
X41074199Y12051092D01*
X42860107Y13836999D01*
X44477602Y13836999D01*
X44680596Y13728497D01*
X44921311Y13655477D01*
X45108921Y13636999D01*
X46291275Y13636999D01*
X46354001Y13630821D01*
X46416727Y13636999D01*
X46604337Y13655477D01*
X46845052Y13728497D01*
X47066897Y13847075D01*
X47261345Y14006655D01*
X47301336Y14055384D01*
X48174621Y14928668D01*
X48223345Y14968655D01*
X48382925Y15163103D01*
X48501503Y15384948D01*
X48574523Y15625663D01*
X48593001Y15813273D01*
X48593001Y15813280D01*
X48599178Y15875998D01*
X48593001Y15938717D01*
X48593001Y32326474D01*
X48599179Y32389200D01*
X48574523Y32639535D01*
X48563158Y32677000D01*
X48501503Y32880250D01*
X48382925Y33102095D01*
X48223345Y33296543D01*
X48174623Y33336528D01*
X43452535Y38058615D01*
X43412544Y38107344D01*
X43218096Y38266924D01*
X42996251Y38385502D01*
X42755536Y38458522D01*
X42567926Y38477000D01*
X42505200Y38483178D01*
X42442474Y38477000D01*
X38882065Y38477000D01*
X38630698Y38527000D01*
X38369302Y38527000D01*
X38112928Y38476004D01*
X37871430Y38375972D01*
X37654087Y38230748D01*
X37469252Y38045913D01*
X37324028Y37828570D01*
X37223996Y37587072D01*
X37173000Y37330698D01*
X37173000Y37069302D01*
X37223996Y36812928D01*
X37324028Y36571430D01*
X37469252Y36354087D01*
X37654087Y36169252D01*
X37871430Y36024028D01*
X38112928Y35923996D01*
X38369302Y35873000D01*
X38630698Y35873000D01*
X38882065Y35923000D01*
X41976250Y35923000D01*
X46039001Y31860248D01*
X46039002Y16404951D01*
X45825051Y16190999D01*
X45108921Y16190999D01*
X44921311Y16172521D01*
X44680596Y16099501D01*
X44477602Y15990999D01*
X44005466Y15990999D01*
X44101972Y16135430D01*
X44202004Y16376928D01*
X44253000Y16633302D01*
X44253000Y16894698D01*
X44202004Y17151072D01*
X44101972Y17392570D01*
X43956748Y17609913D01*
X43771913Y17794748D01*
X43554570Y17939972D01*
X43327567Y18034000D01*
X43554570Y18128028D01*
X43771913Y18273252D01*
X43956748Y18458087D01*
X44101972Y18675430D01*
X44202004Y18916928D01*
X44253000Y19173302D01*
X44253000Y19434698D01*
X44202004Y19691072D01*
X44101972Y19932570D01*
X43956748Y20149913D01*
X43771913Y20334748D01*
X43554570Y20479972D01*
X43313072Y20580004D01*
X43056698Y20631000D01*
X42795302Y20631000D01*
X42538928Y20580004D01*
X42297430Y20479972D01*
X42080087Y20334748D01*
X41895252Y20149913D01*
X41750028Y19932570D01*
X41656000Y19705567D01*
X41561972Y19932570D01*
X41416748Y20149913D01*
X41231913Y20334748D01*
X41014570Y20479972D01*
X40773072Y20580004D01*
X40516698Y20631000D01*
X40255302Y20631000D01*
X39998928Y20580004D01*
X39757430Y20479972D01*
X39540087Y20334748D01*
X39355252Y20149913D01*
X39210028Y19932570D01*
X39116000Y19705567D01*
X39021972Y19932570D01*
X38876748Y20149913D01*
X38691913Y20334748D01*
X38474570Y20479972D01*
X38233072Y20580004D01*
X37976698Y20631000D01*
X37715302Y20631000D01*
X37458928Y20580004D01*
X37217430Y20479972D01*
X37000087Y20334748D01*
X36815252Y20149913D01*
X36670028Y19932570D01*
X36569996Y19691072D01*
X36519000Y19434698D01*
X36519000Y19173302D01*
X36569996Y18916928D01*
X36670028Y18675430D01*
X36815252Y18458087D01*
X37000087Y18273252D01*
X37032079Y18251876D01*
X36996000Y18252072D01*
X36871518Y18239812D01*
X36751820Y18203502D01*
X36641506Y18144537D01*
X36544815Y18065185D01*
X36465463Y17968494D01*
X36406498Y17858180D01*
X36370188Y17738482D01*
X36357928Y17614000D01*
X36361000Y17049750D01*
X36519750Y16891000D01*
X37719000Y16891000D01*
X37719000Y16911000D01*
X37973000Y16911000D01*
X37973000Y16891000D01*
X37993000Y16891000D01*
X37993000Y16637000D01*
X37973000Y16637000D01*
X37973000Y15437750D01*
X38131750Y15279000D01*
X38694251Y15275938D01*
X38163913Y14745599D01*
X29574686Y14745599D01*
X29587507Y14758420D01*
X29624786Y14789014D01*
X29746876Y14937782D01*
X29837597Y15107509D01*
X29889618Y15279000D01*
X29893463Y15291674D01*
X29912327Y15483200D01*
X29907600Y15531193D01*
X29907600Y15914000D01*
X36357928Y15914000D01*
X36370188Y15789518D01*
X36406498Y15669820D01*
X36465463Y15559506D01*
X36544815Y15462815D01*
X36641506Y15383463D01*
X36751820Y15324498D01*
X36871518Y15288188D01*
X36996000Y15275928D01*
X37560250Y15279000D01*
X37719000Y15437750D01*
X37719000Y16637000D01*
X36519750Y16637000D01*
X36361000Y16478250D01*
X36357928Y15914000D01*
X29907600Y15914000D01*
X29907600Y17424346D01*
X29918863Y17461475D01*
X29933000Y17605007D01*
X29933000Y17605008D01*
X29937727Y17652999D01*
X29933000Y17700992D01*
X29933000Y19661314D01*
X31697487Y21425800D01*
X33413351Y21425800D01*
X33398724Y21352261D01*
X33398724Y21199205D01*
X33428583Y21049090D01*
X33487155Y20907685D01*
X33572188Y20780424D01*
X33680415Y20672197D01*
X33807676Y20587164D01*
X33949081Y20528592D01*
X34099196Y20498733D01*
X34252252Y20498733D01*
X34402367Y20528592D01*
X34543772Y20587164D01*
X34671033Y20672197D01*
X34697569Y20698733D01*
X39789402Y20698733D01*
X39817733Y20695943D01*
X39846064Y20698733D01*
X39846069Y20698733D01*
X39875778Y20701659D01*
X39930844Y20707082D01*
X39983010Y20722907D01*
X40039609Y20740076D01*
X40139848Y20793654D01*
X40227707Y20865759D01*
X40245772Y20887771D01*
X42487358Y23129357D01*
X42538928Y23107996D01*
X42795302Y23057000D01*
X43056698Y23057000D01*
X43313072Y23107996D01*
X43554570Y23208028D01*
X43771913Y23353252D01*
X43956748Y23538087D01*
X44101972Y23755430D01*
X44202004Y23996928D01*
X44253000Y24253302D01*
X44253000Y24514698D01*
X44202004Y24771072D01*
X44101972Y25012570D01*
X43956748Y25229913D01*
X43771913Y25414748D01*
X43554570Y25559972D01*
X43327567Y25654000D01*
X43554570Y25748028D01*
X43771913Y25893252D01*
X43956748Y26078087D01*
X44101972Y26295430D01*
X44202004Y26536928D01*
X44253000Y26793302D01*
X44253000Y27054698D01*
X44202004Y27311072D01*
X44101972Y27552570D01*
X43956748Y27769913D01*
X43771913Y27954748D01*
X43554570Y28099972D01*
X43313072Y28200004D01*
X43056698Y28251000D01*
X42795302Y28251000D01*
X42538928Y28200004D01*
X42297430Y28099972D01*
X42080087Y27954748D01*
X41895252Y27769913D01*
X41750028Y27552570D01*
X41656000Y27325567D01*
X41561972Y27552570D01*
X41416748Y27769913D01*
X41231913Y27954748D01*
X41014570Y28099972D01*
X40773072Y28200004D01*
X40516698Y28251000D01*
X40255302Y28251000D01*
X39998928Y28200004D01*
X39757430Y28099972D01*
X39540087Y27954748D01*
X39355252Y27769913D01*
X39210028Y27552570D01*
X39116000Y27325567D01*
X39021972Y27552570D01*
X38876748Y27769913D01*
X38691913Y27954748D01*
X38474570Y28099972D01*
X38233072Y28200004D01*
X37976698Y28251000D01*
X37715302Y28251000D01*
X37458928Y28200004D01*
X37217430Y28099972D01*
X37000087Y27954748D01*
X36815252Y27769913D01*
X36670028Y27552570D01*
X36569996Y27311072D01*
X36519000Y27054698D01*
X36519000Y26793302D01*
X36569996Y26536928D01*
X36670028Y26295430D01*
X36815252Y26078087D01*
X37000087Y25893252D01*
X37032079Y25871876D01*
X36996000Y25872072D01*
X36871518Y25859812D01*
X36751820Y25823502D01*
X36641506Y25764537D01*
X36544815Y25685185D01*
X36465463Y25588494D01*
X36406498Y25478180D01*
X36370188Y25358482D01*
X36357928Y25234000D01*
X36361000Y24669750D01*
X36519750Y24511000D01*
X37719000Y24511000D01*
X37719000Y24531000D01*
X37973000Y24531000D01*
X37973000Y24511000D01*
X37993000Y24511000D01*
X37993000Y24257000D01*
X37973000Y24257000D01*
X37973000Y24237000D01*
X37719000Y24237000D01*
X37719000Y24257000D01*
X36519750Y24257000D01*
X36361000Y24098250D01*
X36357928Y23534000D01*
X36370188Y23409518D01*
X36379203Y23379800D01*
X31340790Y23379800D01*
X31292799Y23384527D01*
X31244809Y23379800D01*
X31244807Y23379800D01*
X31101275Y23365663D01*
X30917109Y23309797D01*
X30747382Y23219076D01*
X30598614Y23096986D01*
X30568020Y23059707D01*
X29933000Y22424687D01*
X29933000Y31345472D01*
X35273000Y31345472D01*
X35273000Y31054528D01*
X35329760Y30769175D01*
X35441099Y30500378D01*
X35602739Y30258467D01*
X35808467Y30052739D01*
X36050378Y29891099D01*
X36319175Y29779760D01*
X36604528Y29723000D01*
X36895472Y29723000D01*
X37180825Y29779760D01*
X37449622Y29891099D01*
X37691533Y30052739D01*
X37897261Y30258467D01*
X38058901Y30500378D01*
X38170240Y30769175D01*
X38227000Y31054528D01*
X38227000Y31345472D01*
X41273000Y31345472D01*
X41273000Y31054528D01*
X41329760Y30769175D01*
X41441099Y30500378D01*
X41602739Y30258467D01*
X41808467Y30052739D01*
X42050378Y29891099D01*
X42319175Y29779760D01*
X42604528Y29723000D01*
X42895472Y29723000D01*
X43180825Y29779760D01*
X43449622Y29891099D01*
X43691533Y30052739D01*
X43897261Y30258467D01*
X44058901Y30500378D01*
X44170240Y30769175D01*
X44227000Y31054528D01*
X44227000Y31345472D01*
X44170240Y31630825D01*
X44058901Y31899622D01*
X43897261Y32141533D01*
X43691533Y32347261D01*
X43449622Y32508901D01*
X43180825Y32620240D01*
X42895472Y32677000D01*
X42604528Y32677000D01*
X42319175Y32620240D01*
X42050378Y32508901D01*
X41808467Y32347261D01*
X41602739Y32141533D01*
X41441099Y31899622D01*
X41329760Y31630825D01*
X41273000Y31345472D01*
X38227000Y31345472D01*
X38170240Y31630825D01*
X38058901Y31899622D01*
X38015707Y31964266D01*
X38112928Y31923996D01*
X38369302Y31873000D01*
X38630698Y31873000D01*
X38887072Y31923996D01*
X39128570Y32024028D01*
X39345913Y32169252D01*
X39530748Y32354087D01*
X39675972Y32571430D01*
X39776004Y32812928D01*
X39827000Y33069302D01*
X39827000Y33330698D01*
X39776004Y33587072D01*
X39675972Y33828570D01*
X39530748Y34045913D01*
X39345913Y34230748D01*
X39128570Y34375972D01*
X38887072Y34476004D01*
X38630698Y34527000D01*
X38369302Y34527000D01*
X38112928Y34476004D01*
X37871430Y34375972D01*
X37654087Y34230748D01*
X37469252Y34045913D01*
X37324028Y33828570D01*
X37223996Y33587072D01*
X37173000Y33330698D01*
X37173000Y33069302D01*
X37223996Y32812928D01*
X37324028Y32571430D01*
X37333735Y32556903D01*
X37180825Y32620240D01*
X36895472Y32677000D01*
X36604528Y32677000D01*
X36319175Y32620240D01*
X36050378Y32508901D01*
X35808467Y32347261D01*
X35602739Y32141533D01*
X35441099Y31899622D01*
X35329760Y31630825D01*
X35273000Y31345472D01*
X29933000Y31345472D01*
X29933000Y31702010D01*
X29937727Y31750001D01*
X29933000Y31797993D01*
X29933000Y43345472D01*
X35273000Y43345472D01*
X35273000Y43054528D01*
X35329760Y42769175D01*
X35441099Y42500378D01*
X35602739Y42258467D01*
X35808467Y42052739D01*
X36050378Y41891099D01*
X36319175Y41779760D01*
X36604528Y41723000D01*
X36895472Y41723000D01*
X37180825Y41779760D01*
X37333735Y41843097D01*
X37324028Y41828570D01*
X37223996Y41587072D01*
X37173000Y41330698D01*
X37173000Y41069302D01*
X37223996Y40812928D01*
X37324028Y40571430D01*
X37469252Y40354087D01*
X37654087Y40169252D01*
X37871430Y40024028D01*
X38112928Y39923996D01*
X38369302Y39873000D01*
X38630698Y39873000D01*
X38887072Y39923996D01*
X39128570Y40024028D01*
X39345913Y40169252D01*
X39530748Y40354087D01*
X39675972Y40571430D01*
X39776004Y40812928D01*
X39827000Y41069302D01*
X39827000Y41330698D01*
X39776004Y41587072D01*
X39675972Y41828570D01*
X39530748Y42045913D01*
X39345913Y42230748D01*
X39128570Y42375972D01*
X38887072Y42476004D01*
X38630698Y42527000D01*
X38369302Y42527000D01*
X38112928Y42476004D01*
X38015707Y42435734D01*
X38058901Y42500378D01*
X38170240Y42769175D01*
X38227000Y43054528D01*
X38227000Y43345472D01*
X41273000Y43345472D01*
X41273000Y43054528D01*
X41329760Y42769175D01*
X41441099Y42500378D01*
X41602739Y42258467D01*
X41808467Y42052739D01*
X42050378Y41891099D01*
X42319175Y41779760D01*
X42604528Y41723000D01*
X42895472Y41723000D01*
X43180825Y41779760D01*
X43449622Y41891099D01*
X43691533Y42052739D01*
X43897261Y42258467D01*
X44058901Y42500378D01*
X44170240Y42769175D01*
X44227000Y43054528D01*
X44227000Y43345472D01*
X44170240Y43630825D01*
X44058901Y43899622D01*
X43897261Y44141533D01*
X43691533Y44347261D01*
X43449622Y44508901D01*
X43180825Y44620240D01*
X42895472Y44677000D01*
X42604528Y44677000D01*
X42319175Y44620240D01*
X42050378Y44508901D01*
X41808467Y44347261D01*
X41602739Y44141533D01*
X41441099Y43899622D01*
X41329760Y43630825D01*
X41273000Y43345472D01*
X38227000Y43345472D01*
X38170240Y43630825D01*
X38058901Y43899622D01*
X37897261Y44141533D01*
X37691533Y44347261D01*
X37449622Y44508901D01*
X37180825Y44620240D01*
X36895472Y44677000D01*
X36604528Y44677000D01*
X36319175Y44620240D01*
X36050378Y44508901D01*
X35808467Y44347261D01*
X35602739Y44141533D01*
X35441099Y43899622D01*
X35329760Y43630825D01*
X35273000Y43345472D01*
X29933000Y43345472D01*
X29933000Y44185820D01*
X29999833Y44310856D01*
X30000000Y44311407D01*
X30000167Y44310857D01*
X30100174Y44123756D01*
X30234761Y43959761D01*
X30398756Y43825174D01*
X30585856Y43725167D01*
X30788871Y43663583D01*
X31000000Y43642789D01*
X31211128Y43663583D01*
X31414143Y43725167D01*
X31601244Y43825174D01*
X31765239Y43959761D01*
X31899826Y44123756D01*
X31943164Y44204836D01*
X31976208Y44095906D01*
X32043603Y43969818D01*
X32134302Y43859302D01*
X32244818Y43768603D01*
X32370906Y43701208D01*
X32507718Y43659706D01*
X32649999Y43645693D01*
X33350001Y43645693D01*
X33492282Y43659706D01*
X33629094Y43701208D01*
X33755182Y43768603D01*
X33865698Y43859302D01*
X33956397Y43969818D01*
X34023792Y44095906D01*
X34065294Y44232718D01*
X34079307Y44374999D01*
X34079307Y45625001D01*
X34065294Y45767282D01*
X34023792Y45904094D01*
X33956397Y46030182D01*
X33865698Y46140698D01*
X33755182Y46231397D01*
X33629094Y46298792D01*
X33492282Y46340294D01*
X33350001Y46354307D01*
X32649999Y46354307D01*
X32507718Y46340294D01*
X32370906Y46298792D01*
X32244818Y46231397D01*
X32134302Y46140698D01*
X32043603Y46030182D01*
X31976208Y45904094D01*
X31943164Y45795164D01*
X31899826Y45876244D01*
X31765239Y46040239D01*
X31601244Y46174826D01*
X31414144Y46274833D01*
X31211129Y46336417D01*
X31000000Y46357211D01*
X30788872Y46336417D01*
X30585857Y46274833D01*
X30398757Y46174826D01*
X30234762Y46040239D01*
X30100175Y45876244D01*
X30000168Y45689144D01*
X30000000Y45688591D01*
X29999833Y45689143D01*
X29899826Y45876244D01*
X29765239Y46040239D01*
X29601244Y46174826D01*
X29414144Y46274833D01*
X29211129Y46336417D01*
X29000000Y46357211D01*
X28788872Y46336417D01*
X28585857Y46274833D01*
X28398757Y46174826D01*
X28234762Y46040239D01*
X28100175Y45876244D01*
X28093158Y45863115D01*
X28092390Y45864946D01*
X27956307Y46066725D01*
X27783474Y46238078D01*
X27580533Y46372421D01*
X27355282Y46464591D01*
X27317609Y46468462D01*
X27127000Y46343731D01*
X27127000Y45127000D01*
X27147000Y45127000D01*
X27147000Y44873000D01*
X27127000Y44873000D01*
X27127000Y43656269D01*
X27317609Y43531538D01*
X27355282Y43535409D01*
X27580533Y43627579D01*
X27783474Y43761922D01*
X27956307Y43933275D01*
X27979001Y43966925D01*
X27979000Y35994608D01*
X27979001Y35994598D01*
X27979001Y34108686D01*
X26378784Y35708902D01*
X26348186Y35746186D01*
X26199418Y35868276D01*
X26029691Y35958997D01*
X25845525Y36014863D01*
X25701993Y36029000D01*
X25654000Y36033727D01*
X25606007Y36029000D01*
X18585847Y36029000D01*
X18688336Y36131489D01*
X18773369Y36258750D01*
X18831941Y36400155D01*
X18861800Y36550270D01*
X18861800Y36703326D01*
X18831941Y36853441D01*
X18773369Y36994846D01*
X18688336Y37122107D01*
X18580109Y37230334D01*
X18484000Y37294552D01*
X18484000Y42667999D01*
X19483158Y43667156D01*
X19507718Y43659706D01*
X19649999Y43645693D01*
X20350001Y43645693D01*
X20492282Y43659706D01*
X20629094Y43701208D01*
X20755182Y43768603D01*
X20865698Y43859302D01*
X20956397Y43969818D01*
X21023792Y44095906D01*
X21065294Y44232718D01*
X21079307Y44374999D01*
X21079307Y44873000D01*
X25765000Y44873000D01*
X25765000Y44598000D01*
X25813507Y44359504D01*
X25907610Y44135054D01*
X26043693Y43933275D01*
X26216526Y43761922D01*
X26419467Y43627579D01*
X26644718Y43535409D01*
X26682391Y43531538D01*
X26873000Y43656269D01*
X26873000Y44873000D01*
X25765000Y44873000D01*
X21079307Y44873000D01*
X21079307Y45402000D01*
X25765000Y45402000D01*
X25765000Y45127000D01*
X26873000Y45127000D01*
X26873000Y46343731D01*
X26682391Y46468462D01*
X26644718Y46464591D01*
X26419467Y46372421D01*
X26216526Y46238078D01*
X26043693Y46066725D01*
X25907610Y45864946D01*
X25813507Y45640496D01*
X25765000Y45402000D01*
X21079307Y45402000D01*
X21079307Y45625001D01*
X21065294Y45767282D01*
X21023792Y45904094D01*
X20956397Y46030182D01*
X20865698Y46140698D01*
X20755182Y46231397D01*
X20629094Y46298792D01*
X20492282Y46340294D01*
X20350001Y46354307D01*
X19649999Y46354307D01*
X19507718Y46340294D01*
X19370906Y46298792D01*
X19244818Y46231397D01*
X19134302Y46140698D01*
X19043603Y46030182D01*
X18976208Y45904094D01*
X18943164Y45795164D01*
X18899826Y45876244D01*
X18765239Y46040239D01*
X18601244Y46174826D01*
X18414144Y46274833D01*
X18211129Y46336417D01*
X18000000Y46357211D01*
X17788872Y46336417D01*
X17585857Y46274833D01*
X17398757Y46174826D01*
X17234762Y46040239D01*
X17100175Y45876244D01*
X17000168Y45689144D01*
X17000000Y45688591D01*
X16999833Y45689143D01*
X16899826Y45876244D01*
X16765239Y46040239D01*
X16601244Y46174826D01*
X16414144Y46274833D01*
X16211129Y46336417D01*
X16000000Y46357211D01*
X15788872Y46336417D01*
X15585857Y46274833D01*
X15398757Y46174826D01*
X15234762Y46040239D01*
X15100175Y45876244D01*
X15093158Y45863115D01*
X15092390Y45864946D01*
X14956307Y46066725D01*
X14783474Y46238078D01*
X14580533Y46372421D01*
X14355282Y46464591D01*
X14317609Y46468462D01*
X14127000Y46343731D01*
X14127000Y45127000D01*
X14147000Y45127000D01*
X14147000Y44873000D01*
X14127000Y44873000D01*
X14127000Y43656269D01*
X14317609Y43531538D01*
X14355282Y43535409D01*
X14580533Y43627579D01*
X14783474Y43761922D01*
X14956307Y43933275D01*
X15092390Y44135054D01*
X15093157Y44136884D01*
X15100174Y44123756D01*
X15234761Y43959761D01*
X15279000Y43923455D01*
X15279001Y36624003D01*
X15274273Y36576000D01*
X15293137Y36384475D01*
X15349003Y36200310D01*
X15349004Y36200309D01*
X15439725Y36030582D01*
X15561815Y35881814D01*
X15599093Y35851221D01*
X17055220Y34395093D01*
X17085814Y34357814D01*
X17234582Y34235724D01*
X17404309Y34145003D01*
X17588475Y34089137D01*
X17732007Y34075000D01*
X17732016Y34075000D01*
X17779999Y34070274D01*
X17827982Y34075000D01*
X25249314Y34075000D01*
X27979000Y31345313D01*
X27979000Y30686008D01*
X27979001Y30685998D01*
X27979000Y25700806D01*
X27979001Y25700796D01*
X27979000Y21598617D01*
X27861843Y21647145D01*
X27711728Y21677004D01*
X27558672Y21677004D01*
X27408557Y21647145D01*
X27267152Y21588573D01*
X27139891Y21503540D01*
X27092151Y21455800D01*
X25515778Y21455800D01*
X25626679Y21477859D01*
X25768084Y21536431D01*
X25895345Y21621464D01*
X26003572Y21729691D01*
X26088605Y21856952D01*
X26147177Y21998357D01*
X26177036Y22148472D01*
X26177036Y22301528D01*
X26147177Y22451643D01*
X26088605Y22593048D01*
X26003572Y22720309D01*
X25895345Y22828536D01*
X25768084Y22913569D01*
X25626679Y22972141D01*
X25476564Y23002000D01*
X25413713Y23002000D01*
X25342512Y23040057D01*
X25277734Y23059707D01*
X25233747Y23073051D01*
X25198506Y23076521D01*
X25164503Y23140137D01*
X25075359Y23248759D01*
X24966737Y23337903D01*
X24842810Y23404143D01*
X24708342Y23444934D01*
X24568500Y23458707D01*
X24533908Y23458707D01*
X26422962Y25347761D01*
X26444974Y25365826D01*
X26517079Y25453685D01*
X26570657Y25553924D01*
X26603650Y25662688D01*
X26612000Y25747464D01*
X26612000Y25747470D01*
X26614790Y25775799D01*
X26612000Y25804128D01*
X26612000Y31086661D01*
X26614791Y31115000D01*
X26603651Y31228112D01*
X26584204Y31292218D01*
X26570657Y31336876D01*
X26517079Y31437115D01*
X26444974Y31524974D01*
X26422963Y31543038D01*
X25828039Y32137962D01*
X25809974Y32159974D01*
X25722115Y32232079D01*
X25621876Y32285657D01*
X25557770Y32305103D01*
X25513111Y32318651D01*
X25458045Y32324074D01*
X25428336Y32327000D01*
X25428331Y32327000D01*
X25400000Y32329790D01*
X25371669Y32327000D01*
X25195898Y32327000D01*
X25164503Y32385737D01*
X25075359Y32494359D01*
X24966737Y32583503D01*
X24842810Y32649743D01*
X24708342Y32690534D01*
X24568500Y32704307D01*
X23993500Y32704307D01*
X23853658Y32690534D01*
X23719190Y32649743D01*
X23595263Y32583503D01*
X23486641Y32494359D01*
X23406000Y32396098D01*
X23325359Y32494359D01*
X23216737Y32583503D01*
X23092810Y32649743D01*
X22958342Y32690534D01*
X22818500Y32704307D01*
X22243500Y32704307D01*
X22103658Y32690534D01*
X21969190Y32649743D01*
X21845263Y32583503D01*
X21736641Y32494359D01*
X21647497Y32385737D01*
X21616213Y32327208D01*
X21589999Y32329790D01*
X21561670Y32327000D01*
X21561664Y32327000D01*
X21476888Y32318650D01*
X21368124Y32285657D01*
X21267885Y32232079D01*
X21180026Y32159974D01*
X21161961Y32137962D01*
X19700999Y30677000D01*
X18442331Y30677000D01*
X18414000Y30679790D01*
X18385669Y30677000D01*
X11821845Y30677000D01*
X11795309Y30703536D01*
X11668048Y30788569D01*
X11526643Y30847141D01*
X11376528Y30877000D01*
X11223472Y30877000D01*
X11073357Y30847141D01*
X10931952Y30788569D01*
X10804691Y30703536D01*
X10696464Y30595309D01*
X10611431Y30468048D01*
X10552859Y30326643D01*
X10523000Y30176528D01*
X502000Y30176528D01*
X502000Y39090642D01*
X4977141Y39090642D01*
X4977141Y38850232D01*
X5024043Y38614442D01*
X5116044Y38392333D01*
X5249608Y38192440D01*
X5419603Y38022445D01*
X5619496Y37888881D01*
X5841605Y37796880D01*
X6077395Y37749978D01*
X6317805Y37749978D01*
X6553595Y37796880D01*
X6775704Y37888881D01*
X6975597Y38022445D01*
X7145592Y38192440D01*
X7279156Y38392333D01*
X7371157Y38614442D01*
X7418059Y38850232D01*
X7418059Y39090642D01*
X7371157Y39326432D01*
X7279156Y39548541D01*
X7145592Y39748434D01*
X6975597Y39918429D01*
X6775704Y40051993D01*
X6553595Y40143994D01*
X6317805Y40190896D01*
X6077395Y40190896D01*
X5841605Y40143994D01*
X5619496Y40051993D01*
X5419603Y39918429D01*
X5249608Y39748434D01*
X5116044Y39548541D01*
X5024043Y39326432D01*
X4977141Y39090642D01*
X502000Y39090642D01*
X502000Y39495769D01*
X524653Y39498000D01*
X598409Y39505264D01*
X693036Y39533969D01*
X780245Y39580583D01*
X856684Y39643316D01*
X919417Y39719755D01*
X966031Y39806964D01*
X994736Y39901591D01*
X1004428Y40000000D01*
X1002000Y40024653D01*
X1002000Y46975450D01*
X1008791Y47044718D01*
X1173000Y47044718D01*
X1173000Y46655282D01*
X1248975Y46273330D01*
X1398005Y45913539D01*
X1614364Y45589736D01*
X1889736Y45314364D01*
X2213539Y45098005D01*
X2573330Y44948975D01*
X2955282Y44873000D01*
X3344718Y44873000D01*
X12765000Y44873000D01*
X12765000Y44598000D01*
X12813507Y44359504D01*
X12907610Y44135054D01*
X13043693Y43933275D01*
X13216526Y43761922D01*
X13419467Y43627579D01*
X13644718Y43535409D01*
X13682391Y43531538D01*
X13873000Y43656269D01*
X13873000Y44873000D01*
X12765000Y44873000D01*
X3344718Y44873000D01*
X3726670Y44948975D01*
X4086461Y45098005D01*
X4410264Y45314364D01*
X4685636Y45589736D01*
X4901995Y45913539D01*
X5051025Y46273330D01*
X5127000Y46655282D01*
X5127000Y46995472D01*
X5823000Y46995472D01*
X5823000Y46704528D01*
X5879760Y46419175D01*
X5991099Y46150378D01*
X6152739Y45908467D01*
X6358467Y45702739D01*
X6600378Y45541099D01*
X6869175Y45429760D01*
X7154528Y45373000D01*
X7445472Y45373000D01*
X7591265Y45402000D01*
X12765000Y45402000D01*
X12765000Y45127000D01*
X13873000Y45127000D01*
X13873000Y46343731D01*
X13682391Y46468462D01*
X13644718Y46464591D01*
X13419467Y46372421D01*
X13216526Y46238078D01*
X13043693Y46066725D01*
X12907610Y45864946D01*
X12813507Y45640496D01*
X12765000Y45402000D01*
X7591265Y45402000D01*
X7730825Y45429760D01*
X7999622Y45541099D01*
X8241533Y45702739D01*
X8447261Y45908467D01*
X8608901Y46150378D01*
X8720240Y46419175D01*
X8777000Y46704528D01*
X8777000Y46995472D01*
X41223000Y46995472D01*
X41223000Y46704528D01*
X41279760Y46419175D01*
X41391099Y46150378D01*
X41552739Y45908467D01*
X41758467Y45702739D01*
X42000378Y45541099D01*
X42269175Y45429760D01*
X42554528Y45373000D01*
X42845472Y45373000D01*
X43130825Y45429760D01*
X43399622Y45541099D01*
X43641533Y45702739D01*
X43847261Y45908467D01*
X44008901Y46150378D01*
X44120240Y46419175D01*
X44177000Y46704528D01*
X44177000Y46995472D01*
X44167205Y47044718D01*
X44873000Y47044718D01*
X44873000Y46655282D01*
X44948975Y46273330D01*
X45098005Y45913539D01*
X45314364Y45589736D01*
X45589736Y45314364D01*
X45913539Y45098005D01*
X46273330Y44948975D01*
X46655282Y44873000D01*
X47044718Y44873000D01*
X47426670Y44948975D01*
X47786461Y45098005D01*
X48110264Y45314364D01*
X48385636Y45589736D01*
X48601995Y45913539D01*
X48751025Y46273330D01*
X48827000Y46655282D01*
X48827000Y47044718D01*
X48751025Y47426670D01*
X48601995Y47786461D01*
X48385636Y48110264D01*
X48110264Y48385636D01*
X47786461Y48601995D01*
X47426670Y48751025D01*
X47044718Y48827000D01*
X46655282Y48827000D01*
X46273330Y48751025D01*
X45913539Y48601995D01*
X45589736Y48385636D01*
X45314364Y48110264D01*
X45098005Y47786461D01*
X44948975Y47426670D01*
X44873000Y47044718D01*
X44167205Y47044718D01*
X44120240Y47280825D01*
X44008901Y47549622D01*
X43847261Y47791533D01*
X43641533Y47997261D01*
X43399622Y48158901D01*
X43130825Y48270240D01*
X42845472Y48327000D01*
X42554528Y48327000D01*
X42269175Y48270240D01*
X42000378Y48158901D01*
X41758467Y47997261D01*
X41552739Y47791533D01*
X41391099Y47549622D01*
X41279760Y47280825D01*
X41223000Y46995472D01*
X8777000Y46995472D01*
X8720240Y47280825D01*
X8608901Y47549622D01*
X8447261Y47791533D01*
X8241533Y47997261D01*
X7999622Y48158901D01*
X7730825Y48270240D01*
X7445472Y48327000D01*
X7154528Y48327000D01*
X6869175Y48270240D01*
X6600378Y48158901D01*
X6358467Y47997261D01*
X6152739Y47791533D01*
X5991099Y47549622D01*
X5879760Y47280825D01*
X5823000Y46995472D01*
X5127000Y46995472D01*
X5127000Y47044718D01*
X5051025Y47426670D01*
X4901995Y47786461D01*
X4685636Y48110264D01*
X4410264Y48385636D01*
X4086461Y48601995D01*
X3726670Y48751025D01*
X3344718Y48827000D01*
X2955282Y48827000D01*
X2573330Y48751025D01*
X2213539Y48601995D01*
X1889736Y48385636D01*
X1614364Y48110264D01*
X1398005Y47786461D01*
X1248975Y47426670D01*
X1173000Y47044718D01*
X1008791Y47044718D01*
X1042413Y47387613D01*
X1154982Y47760459D01*
X1337830Y48104347D01*
X1583987Y48406165D01*
X1884081Y48654423D01*
X2226677Y48839663D01*
X2598731Y48954833D01*
X3009436Y48998000D01*
X9975347Y48998000D01*
X10000000Y48995572D01*
X10024653Y48998000D01*
X10098409Y49005264D01*
X10193036Y49033969D01*
X10280245Y49080583D01*
X10356684Y49143316D01*
X10419417Y49219755D01*
X10466031Y49306964D01*
X10494736Y49401591D01*
X10504231Y49498000D01*
X39495769Y49498000D01*
X39505264Y49401591D01*
G37*
X39505264Y49401591D02*
X39533969Y49306964D01*
X39580583Y49219755D01*
X39643316Y49143316D01*
X39719755Y49080583D01*
X39806964Y49033969D01*
X39901591Y49005264D01*
X39975347Y48998000D01*
X40000000Y48995572D01*
X40024653Y48998000D01*
X46975450Y48998000D01*
X47387613Y48957587D01*
X47760459Y48845018D01*
X48104347Y48662170D01*
X48406165Y48416013D01*
X48654423Y48115919D01*
X48839663Y47773323D01*
X48954833Y47401269D01*
X48998000Y46990564D01*
X48998001Y40024663D01*
X48995572Y40000000D01*
X49005264Y39901591D01*
X49033969Y39806964D01*
X49080583Y39719755D01*
X49143316Y39643316D01*
X49219755Y39580583D01*
X49306964Y39533969D01*
X49401591Y39505264D01*
X49475347Y39498000D01*
X49498000Y39495769D01*
X49498001Y10504231D01*
X49475347Y10502000D01*
X49401591Y10494736D01*
X49306964Y10466031D01*
X49219755Y10419417D01*
X49143316Y10356684D01*
X49080583Y10280245D01*
X49033969Y10193036D01*
X49005264Y10098409D01*
X48995572Y10000000D01*
X48998001Y9975337D01*
X48998000Y3024551D01*
X48957587Y2612386D01*
X48845018Y2239538D01*
X48662170Y1895654D01*
X48416015Y1593837D01*
X48115922Y1345579D01*
X47773326Y1160338D01*
X47401269Y1045167D01*
X46990564Y1002000D01*
X40024653Y1002000D01*
X40000000Y1004428D01*
X39975347Y1002000D01*
X39901591Y994736D01*
X39806964Y966031D01*
X39719755Y919417D01*
X39643316Y856684D01*
X39580583Y780245D01*
X39533969Y693036D01*
X39505264Y598409D01*
X39495769Y502000D01*
X10504231Y502000D01*
X10494736Y598409D01*
X10466031Y693036D01*
X10419417Y780245D01*
X10356684Y856684D01*
X10280245Y919417D01*
X10193036Y966031D01*
X10098409Y994736D01*
X10024653Y1002000D01*
X10000000Y1004428D01*
X9975347Y1002000D01*
X3024551Y1002000D01*
X2612386Y1042413D01*
X2239538Y1154982D01*
X1895654Y1337830D01*
X1593837Y1583985D01*
X1345579Y1884078D01*
X1160338Y2226674D01*
X1045167Y2598731D01*
X1002000Y3009436D01*
X1002000Y3344718D01*
X1173000Y3344718D01*
X1173000Y2955282D01*
X1248975Y2573330D01*
X1398005Y2213539D01*
X1614364Y1889736D01*
X1889736Y1614364D01*
X2213539Y1398005D01*
X2573330Y1248975D01*
X2955282Y1173000D01*
X3344718Y1173000D01*
X3726670Y1248975D01*
X4086461Y1398005D01*
X4410264Y1614364D01*
X4685636Y1889736D01*
X4901995Y2213539D01*
X5051025Y2573330D01*
X5127000Y2955282D01*
X5127000Y3295472D01*
X5823000Y3295472D01*
X5823000Y3004528D01*
X5879760Y2719175D01*
X5991099Y2450378D01*
X6152739Y2208467D01*
X6358467Y2002739D01*
X6600378Y1841099D01*
X6869175Y1729760D01*
X7154528Y1673000D01*
X7445472Y1673000D01*
X7730825Y1729760D01*
X7999622Y1841099D01*
X8241533Y2002739D01*
X8447261Y2208467D01*
X8608901Y2450378D01*
X8720240Y2719175D01*
X8777000Y3004528D01*
X8777000Y3295472D01*
X41223000Y3295472D01*
X41223000Y3004528D01*
X41279760Y2719175D01*
X41391099Y2450378D01*
X41552739Y2208467D01*
X41758467Y2002739D01*
X42000378Y1841099D01*
X42269175Y1729760D01*
X42554528Y1673000D01*
X42845472Y1673000D01*
X43130825Y1729760D01*
X43399622Y1841099D01*
X43641533Y2002739D01*
X43847261Y2208467D01*
X44008901Y2450378D01*
X44120240Y2719175D01*
X44177000Y3004528D01*
X44177000Y3295472D01*
X44167205Y3344718D01*
X44873000Y3344718D01*
X44873000Y2955282D01*
X44948975Y2573330D01*
X45098005Y2213539D01*
X45314364Y1889736D01*
X45589736Y1614364D01*
X45913539Y1398005D01*
X46273330Y1248975D01*
X46655282Y1173000D01*
X47044718Y1173000D01*
X47426670Y1248975D01*
X47786461Y1398005D01*
X48110264Y1614364D01*
X48385636Y1889736D01*
X48601995Y2213539D01*
X48751025Y2573330D01*
X48827000Y2955282D01*
X48827000Y3344718D01*
X48751025Y3726670D01*
X48601995Y4086461D01*
X48385636Y4410264D01*
X48110264Y4685636D01*
X47786461Y4901995D01*
X47426670Y5051025D01*
X47044718Y5127000D01*
X46655282Y5127000D01*
X46273330Y5051025D01*
X45913539Y4901995D01*
X45589736Y4685636D01*
X45314364Y4410264D01*
X45098005Y4086461D01*
X44948975Y3726670D01*
X44873000Y3344718D01*
X44167205Y3344718D01*
X44120240Y3580825D01*
X44008901Y3849622D01*
X43847261Y4091533D01*
X43641533Y4297261D01*
X43399622Y4458901D01*
X43130825Y4570240D01*
X42845472Y4627000D01*
X42554528Y4627000D01*
X42269175Y4570240D01*
X42000378Y4458901D01*
X41758467Y4297261D01*
X41552739Y4091533D01*
X41391099Y3849622D01*
X41279760Y3580825D01*
X41223000Y3295472D01*
X8777000Y3295472D01*
X8720240Y3580825D01*
X8608901Y3849622D01*
X8447261Y4091533D01*
X8241533Y4297261D01*
X7999622Y4458901D01*
X7730825Y4570240D01*
X7445472Y4627000D01*
X7154528Y4627000D01*
X6869175Y4570240D01*
X6600378Y4458901D01*
X6358467Y4297261D01*
X6152739Y4091533D01*
X5991099Y3849622D01*
X5879760Y3580825D01*
X5823000Y3295472D01*
X5127000Y3295472D01*
X5127000Y3344718D01*
X5051025Y3726670D01*
X4901995Y4086461D01*
X4685636Y4410264D01*
X4410264Y4685636D01*
X4086461Y4901995D01*
X3987201Y4943110D01*
X12108524Y4943110D01*
X12110446Y4930739D01*
X12210146Y4656991D01*
X12361336Y4407954D01*
X12558205Y4193198D01*
X12793188Y4020975D01*
X13057255Y3897904D01*
X13340258Y3828715D01*
X13573000Y3972768D01*
X13573000Y5173000D01*
X13827000Y5173000D01*
X13827000Y3972768D01*
X14059742Y3828715D01*
X14342745Y3897904D01*
X14606812Y4020975D01*
X14841795Y4193198D01*
X15038664Y4407954D01*
X15189854Y4656991D01*
X15289554Y4930739D01*
X15291476Y4943110D01*
X15170155Y5173000D01*
X13827000Y5173000D01*
X13573000Y5173000D01*
X12229845Y5173000D01*
X12108524Y4943110D01*
X3987201Y4943110D01*
X3726670Y5051025D01*
X3344718Y5127000D01*
X2955282Y5127000D01*
X2573330Y5051025D01*
X2213539Y4901995D01*
X1889736Y4685636D01*
X1614364Y4410264D01*
X1398005Y4086461D01*
X1248975Y3726670D01*
X1173000Y3344718D01*
X1002000Y3344718D01*
X1002000Y5656890D01*
X12108524Y5656890D01*
X12229845Y5427000D01*
X13573000Y5427000D01*
X13573000Y5447000D01*
X13827000Y5447000D01*
X13827000Y5427000D01*
X15170155Y5427000D01*
X15291476Y5656890D01*
X15289554Y5669261D01*
X15189854Y5943009D01*
X15038664Y6192046D01*
X14841795Y6406802D01*
X14693577Y6515434D01*
X14729094Y6526208D01*
X14855181Y6593603D01*
X14965698Y6684302D01*
X15056397Y6794819D01*
X15123792Y6920906D01*
X15165294Y7057719D01*
X15179307Y7200000D01*
X15179307Y8400000D01*
X15165294Y8542281D01*
X15123792Y8679094D01*
X15056397Y8805181D01*
X14965698Y8915698D01*
X14855181Y9006397D01*
X14729094Y9073792D01*
X14592281Y9115294D01*
X14450000Y9129307D01*
X12950000Y9129307D01*
X12807719Y9115294D01*
X12670906Y9073792D01*
X12544819Y9006397D01*
X12434302Y8915698D01*
X12343603Y8805181D01*
X12276208Y8679094D01*
X12234706Y8542281D01*
X12220693Y8400000D01*
X12220693Y7200000D01*
X12234706Y7057719D01*
X12276208Y6920906D01*
X12343603Y6794819D01*
X12434302Y6684302D01*
X12544819Y6593603D01*
X12670906Y6526208D01*
X12706423Y6515434D01*
X12558205Y6406802D01*
X12361336Y6192046D01*
X12210146Y5943009D01*
X12110446Y5669261D01*
X12108524Y5656890D01*
X1002000Y5656890D01*
X1002000Y9975348D01*
X1004428Y10000000D01*
X994736Y10098409D01*
X966031Y10193036D01*
X919417Y10280245D01*
X856684Y10356684D01*
X780245Y10419417D01*
X693036Y10466031D01*
X598409Y10494736D01*
X524653Y10502000D01*
X502000Y10504231D01*
X502000Y11143805D01*
X5002541Y11143805D01*
X5002541Y10903395D01*
X5049443Y10667605D01*
X5141444Y10445496D01*
X5275008Y10245603D01*
X5445003Y10075608D01*
X5644896Y9942044D01*
X5867005Y9850043D01*
X6102795Y9803141D01*
X6343205Y9803141D01*
X6578995Y9850043D01*
X6801104Y9942044D01*
X7000997Y10075608D01*
X7170992Y10245603D01*
X7304556Y10445496D01*
X7396557Y10667605D01*
X7443459Y10903395D01*
X7443459Y11143805D01*
X7396557Y11379595D01*
X7304556Y11601704D01*
X7170992Y11801597D01*
X7000997Y11971592D01*
X6801104Y12105156D01*
X6578995Y12197157D01*
X6343205Y12244059D01*
X6102795Y12244059D01*
X5867005Y12197157D01*
X5644896Y12105156D01*
X5445003Y11971592D01*
X5275008Y11801597D01*
X5141444Y11601704D01*
X5049443Y11379595D01*
X5002541Y11143805D01*
X502000Y11143805D01*
X502000Y26491114D01*
X10110845Y26491114D01*
X10110845Y26338058D01*
X10140704Y26187943D01*
X10199276Y26046538D01*
X10284309Y25919277D01*
X10310845Y25892741D01*
X10310845Y25452484D01*
X10308055Y25424153D01*
X10310845Y25395822D01*
X10310845Y25395818D01*
X10313082Y25373108D01*
X10319194Y25311042D01*
X10332930Y25265764D01*
X10352188Y25202278D01*
X10405766Y25102039D01*
X10477871Y25014179D01*
X10499884Y24996113D01*
X10683956Y24812042D01*
X10702025Y24790025D01*
X10789884Y24717920D01*
X10890123Y24664342D01*
X10934781Y24650795D01*
X10998887Y24631348D01*
X11111999Y24620208D01*
X11140338Y24622999D01*
X11436736Y24622999D01*
X13547716Y22512018D01*
X13565777Y22490011D01*
X13587784Y22471950D01*
X13587786Y22471948D01*
X13607731Y22455580D01*
X13653636Y22417906D01*
X13753875Y22364328D01*
X13798533Y22350781D01*
X13862639Y22331334D01*
X13920637Y22325622D01*
X13947415Y22322985D01*
X13947420Y22322985D01*
X13975751Y22320195D01*
X14004082Y22322985D01*
X15917748Y22322985D01*
X15925295Y22256506D01*
X15964243Y22137640D01*
X16025633Y22028657D01*
X16107105Y21933745D01*
X16205528Y21856550D01*
X16317119Y21800041D01*
X16437591Y21766387D01*
X16562313Y21756883D01*
X16662500Y21759799D01*
X16821250Y21918549D01*
X16821250Y22415493D01*
X17075250Y22415493D01*
X17075250Y21918549D01*
X17234000Y21759799D01*
X17334187Y21756883D01*
X17458909Y21766387D01*
X17579381Y21800041D01*
X17690972Y21856550D01*
X17789395Y21933745D01*
X17870867Y22028657D01*
X17932257Y22137640D01*
X17971205Y22256506D01*
X17983300Y22363049D01*
X17824550Y22521799D01*
X17983300Y22680549D01*
X17971205Y22787092D01*
X17932257Y22905958D01*
X17870867Y23014941D01*
X17864980Y23021800D01*
X17870867Y23028658D01*
X17932257Y23137641D01*
X17971205Y23256507D01*
X17983300Y23363050D01*
X17824550Y23521800D01*
X17983300Y23680550D01*
X17971205Y23787093D01*
X17932257Y23905959D01*
X17870867Y24014942D01*
X17827607Y24065338D01*
X17827607Y24148801D01*
X17818397Y24242309D01*
X17791122Y24332224D01*
X17746829Y24415090D01*
X17687221Y24487722D01*
X17614589Y24547330D01*
X17531723Y24591623D01*
X17441808Y24618898D01*
X17348300Y24628108D01*
X16884894Y24628108D01*
X16625038Y24887964D01*
X16606975Y24909974D01*
X16519116Y24982079D01*
X16418877Y25035657D01*
X16354771Y25055103D01*
X16310112Y25068651D01*
X16255046Y25074074D01*
X16225337Y25077000D01*
X16225332Y25077000D01*
X16197001Y25079790D01*
X16168670Y25077000D01*
X13339001Y25077000D01*
X12488568Y25927433D01*
X12459919Y26021876D01*
X12406341Y26122115D01*
X12334236Y26209974D01*
X12246377Y26282079D01*
X12146138Y26335657D01*
X12037374Y26368650D01*
X12029408Y26369435D01*
X11995307Y26403536D01*
X11868046Y26488569D01*
X11726641Y26547141D01*
X11650696Y26562247D01*
X11634986Y26641229D01*
X11576414Y26782634D01*
X11491381Y26909895D01*
X11383154Y27018122D01*
X11255893Y27103155D01*
X11114488Y27161727D01*
X10964373Y27191586D01*
X10811317Y27191586D01*
X10661202Y27161727D01*
X10519797Y27103155D01*
X10392536Y27018122D01*
X10284309Y26909895D01*
X10199276Y26782634D01*
X10140704Y26641229D01*
X10110845Y26491114D01*
X502000Y26491114D01*
X502000Y30176528D01*
X10523000Y30176528D01*
X10523000Y30023472D01*
X10552859Y29873357D01*
X10611431Y29731952D01*
X10696464Y29604691D01*
X10804691Y29496464D01*
X10931952Y29411431D01*
X11073357Y29352859D01*
X11223472Y29323000D01*
X11376528Y29323000D01*
X11526643Y29352859D01*
X11668048Y29411431D01*
X11795309Y29496464D01*
X11821845Y29523000D01*
X18174999Y29523000D01*
X19482751Y28215247D01*
X19482750Y24593587D01*
X19476277Y24591623D01*
X19393411Y24547330D01*
X19320779Y24487722D01*
X19261171Y24415090D01*
X19216878Y24332224D01*
X19189603Y24242309D01*
X19180393Y24148801D01*
X19180393Y23894801D01*
X19189603Y23801293D01*
X19198549Y23771800D01*
X19189603Y23742308D01*
X19180393Y23648800D01*
X19180393Y23394800D01*
X19189603Y23301292D01*
X19198549Y23271800D01*
X19189603Y23242308D01*
X19180393Y23148800D01*
X19180393Y22894800D01*
X19189603Y22801292D01*
X19198549Y22771800D01*
X19189603Y22742307D01*
X19180393Y22648799D01*
X19180393Y22394799D01*
X19189603Y22301291D01*
X19216878Y22211376D01*
X19261171Y22128510D01*
X19320779Y22055878D01*
X19393411Y21996270D01*
X19476277Y21951977D01*
X19566192Y21924702D01*
X19659700Y21915492D01*
X20459800Y21915492D01*
X20553308Y21924702D01*
X20619560Y21944799D01*
X21606802Y21944799D01*
X21647497Y21868663D01*
X21736641Y21760041D01*
X21813736Y21696770D01*
X21724041Y21623159D01*
X21634897Y21514537D01*
X21568657Y21390610D01*
X21527866Y21256142D01*
X21515600Y21131602D01*
X20060999Y19677000D01*
X16774042Y19677000D01*
X16696086Y19754956D01*
X16568825Y19839989D01*
X16427420Y19898561D01*
X16277305Y19928420D01*
X16124249Y19928420D01*
X15974134Y19898561D01*
X15832729Y19839989D01*
X15705468Y19754956D01*
X15597241Y19646729D01*
X15512208Y19519468D01*
X15453636Y19378063D01*
X15423777Y19227948D01*
X15423777Y19074892D01*
X15453636Y18924777D01*
X15512208Y18783372D01*
X15548939Y18728400D01*
X12178253Y18728400D01*
X12153600Y18730828D01*
X12128947Y18728400D01*
X12055191Y18721136D01*
X11960564Y18692431D01*
X11873355Y18645817D01*
X11796916Y18583084D01*
X11734183Y18506645D01*
X11687569Y18419436D01*
X11658864Y18324809D01*
X11649172Y18226400D01*
X11651600Y18201747D01*
X11651601Y10751063D01*
X11649172Y10726400D01*
X11658864Y10627991D01*
X11687569Y10533364D01*
X11734183Y10446155D01*
X11796916Y10369716D01*
X11873355Y10306983D01*
X11960564Y10260369D01*
X12055191Y10231664D01*
X12128947Y10224400D01*
X12153600Y10221972D01*
X12178253Y10224400D01*
X24963947Y10224400D01*
X24988600Y10221972D01*
X25013253Y10224400D01*
X25087009Y10231664D01*
X25181636Y10260369D01*
X25268845Y10306983D01*
X25345284Y10369716D01*
X25408017Y10446155D01*
X25454631Y10533364D01*
X25483336Y10627991D01*
X25493028Y10726400D01*
X25490600Y10751053D01*
X25490600Y12088049D01*
X25601960Y11976689D01*
X25811114Y11836937D01*
X26043513Y11740674D01*
X26290226Y11691600D01*
X26541774Y11691600D01*
X26788487Y11740674D01*
X27020886Y11836937D01*
X27230040Y11976689D01*
X27407911Y12154560D01*
X27547663Y12363714D01*
X27643926Y12596113D01*
X27682810Y12791599D01*
X31989006Y12791599D01*
X31989006Y12692061D01*
X32018865Y12541946D01*
X32077437Y12400541D01*
X32162470Y12273280D01*
X32270697Y12165053D01*
X32397958Y12080020D01*
X32539363Y12021448D01*
X32689478Y11991589D01*
X32842534Y11991589D01*
X32992649Y12021448D01*
X33134054Y12080020D01*
X33261315Y12165053D01*
X33287851Y12191589D01*
X38902258Y12191589D01*
X38920199Y12189822D01*
X38920199Y10715708D01*
X38914988Y10662801D01*
X38920199Y10609894D01*
X38920199Y10609892D01*
X38935783Y10451672D01*
X38980693Y10303624D01*
X38980693Y9974999D01*
X38994706Y9832718D01*
X39036208Y9695906D01*
X39103603Y9569818D01*
X39194302Y9459302D01*
X39304818Y9368603D01*
X39430906Y9301208D01*
X39567718Y9259706D01*
X39709999Y9245693D01*
X40410001Y9245693D01*
X40552282Y9259706D01*
X40689094Y9301208D01*
X40815182Y9368603D01*
X40925698Y9459302D01*
X41016397Y9569818D01*
X41044097Y9621642D01*
X41103693Y9533275D01*
X41276526Y9361922D01*
X41479467Y9227579D01*
X41704718Y9135409D01*
X41742391Y9131538D01*
X41933000Y9256269D01*
X41933000Y10473000D01*
X42187000Y10473000D01*
X42187000Y9256269D01*
X42377609Y9131538D01*
X42415282Y9135409D01*
X42640533Y9227579D01*
X42843474Y9361922D01*
X43016307Y9533275D01*
X43152390Y9735054D01*
X43246493Y9959504D01*
X43295000Y10198000D01*
X43295000Y10473000D01*
X42187000Y10473000D01*
X41933000Y10473000D01*
X41913000Y10473000D01*
X41913000Y10727000D01*
X41933000Y10727000D01*
X41933000Y11943731D01*
X42187000Y11943731D01*
X42187000Y10727000D01*
X43295000Y10727000D01*
X43295000Y11002000D01*
X43246493Y11240496D01*
X43152390Y11464946D01*
X43016307Y11666725D01*
X42843474Y11838078D01*
X42640533Y11972421D01*
X42415282Y12064591D01*
X42377609Y12068462D01*
X42187000Y11943731D01*
X41933000Y11943731D01*
X41742391Y12068462D01*
X41704718Y12064591D01*
X41479467Y11972421D01*
X41276526Y11838078D01*
X41103693Y11666725D01*
X41074199Y11622992D01*
X41074199Y12051092D01*
X42860107Y13836999D01*
X44477602Y13836999D01*
X44680596Y13728497D01*
X44921311Y13655477D01*
X45108921Y13636999D01*
X46291275Y13636999D01*
X46354001Y13630821D01*
X46416727Y13636999D01*
X46604337Y13655477D01*
X46845052Y13728497D01*
X47066897Y13847075D01*
X47261345Y14006655D01*
X47301336Y14055384D01*
X48174621Y14928668D01*
X48223345Y14968655D01*
X48382925Y15163103D01*
X48501503Y15384948D01*
X48574523Y15625663D01*
X48593001Y15813273D01*
X48593001Y15813280D01*
X48599178Y15875998D01*
X48593001Y15938717D01*
X48593001Y32326474D01*
X48599179Y32389200D01*
X48574523Y32639535D01*
X48563158Y32677000D01*
X48501503Y32880250D01*
X48382925Y33102095D01*
X48223345Y33296543D01*
X48174623Y33336528D01*
X43452535Y38058615D01*
X43412544Y38107344D01*
X43218096Y38266924D01*
X42996251Y38385502D01*
X42755536Y38458522D01*
X42567926Y38477000D01*
X42505200Y38483178D01*
X42442474Y38477000D01*
X38882065Y38477000D01*
X38630698Y38527000D01*
X38369302Y38527000D01*
X38112928Y38476004D01*
X37871430Y38375972D01*
X37654087Y38230748D01*
X37469252Y38045913D01*
X37324028Y37828570D01*
X37223996Y37587072D01*
X37173000Y37330698D01*
X37173000Y37069302D01*
X37223996Y36812928D01*
X37324028Y36571430D01*
X37469252Y36354087D01*
X37654087Y36169252D01*
X37871430Y36024028D01*
X38112928Y35923996D01*
X38369302Y35873000D01*
X38630698Y35873000D01*
X38882065Y35923000D01*
X41976250Y35923000D01*
X46039001Y31860248D01*
X46039002Y16404951D01*
X45825051Y16190999D01*
X45108921Y16190999D01*
X44921311Y16172521D01*
X44680596Y16099501D01*
X44477602Y15990999D01*
X44005466Y15990999D01*
X44101972Y16135430D01*
X44202004Y16376928D01*
X44253000Y16633302D01*
X44253000Y16894698D01*
X44202004Y17151072D01*
X44101972Y17392570D01*
X43956748Y17609913D01*
X43771913Y17794748D01*
X43554570Y17939972D01*
X43327567Y18034000D01*
X43554570Y18128028D01*
X43771913Y18273252D01*
X43956748Y18458087D01*
X44101972Y18675430D01*
X44202004Y18916928D01*
X44253000Y19173302D01*
X44253000Y19434698D01*
X44202004Y19691072D01*
X44101972Y19932570D01*
X43956748Y20149913D01*
X43771913Y20334748D01*
X43554570Y20479972D01*
X43313072Y20580004D01*
X43056698Y20631000D01*
X42795302Y20631000D01*
X42538928Y20580004D01*
X42297430Y20479972D01*
X42080087Y20334748D01*
X41895252Y20149913D01*
X41750028Y19932570D01*
X41656000Y19705567D01*
X41561972Y19932570D01*
X41416748Y20149913D01*
X41231913Y20334748D01*
X41014570Y20479972D01*
X40773072Y20580004D01*
X40516698Y20631000D01*
X40255302Y20631000D01*
X39998928Y20580004D01*
X39757430Y20479972D01*
X39540087Y20334748D01*
X39355252Y20149913D01*
X39210028Y19932570D01*
X39116000Y19705567D01*
X39021972Y19932570D01*
X38876748Y20149913D01*
X38691913Y20334748D01*
X38474570Y20479972D01*
X38233072Y20580004D01*
X37976698Y20631000D01*
X37715302Y20631000D01*
X37458928Y20580004D01*
X37217430Y20479972D01*
X37000087Y20334748D01*
X36815252Y20149913D01*
X36670028Y19932570D01*
X36569996Y19691072D01*
X36519000Y19434698D01*
X36519000Y19173302D01*
X36569996Y18916928D01*
X36670028Y18675430D01*
X36815252Y18458087D01*
X37000087Y18273252D01*
X37032079Y18251876D01*
X36996000Y18252072D01*
X36871518Y18239812D01*
X36751820Y18203502D01*
X36641506Y18144537D01*
X36544815Y18065185D01*
X36465463Y17968494D01*
X36406498Y17858180D01*
X36370188Y17738482D01*
X36357928Y17614000D01*
X36361000Y17049750D01*
X36519750Y16891000D01*
X37719000Y16891000D01*
X37719000Y16911000D01*
X37973000Y16911000D01*
X37973000Y16891000D01*
X37993000Y16891000D01*
X37993000Y16637000D01*
X37973000Y16637000D01*
X37973000Y15437750D01*
X38131750Y15279000D01*
X38694251Y15275938D01*
X38163913Y14745599D01*
X29574686Y14745599D01*
X29587507Y14758420D01*
X29624786Y14789014D01*
X29746876Y14937782D01*
X29837597Y15107509D01*
X29889618Y15279000D01*
X29893463Y15291674D01*
X29912327Y15483200D01*
X29907600Y15531193D01*
X29907600Y15914000D01*
X36357928Y15914000D01*
X36370188Y15789518D01*
X36406498Y15669820D01*
X36465463Y15559506D01*
X36544815Y15462815D01*
X36641506Y15383463D01*
X36751820Y15324498D01*
X36871518Y15288188D01*
X36996000Y15275928D01*
X37560250Y15279000D01*
X37719000Y15437750D01*
X37719000Y16637000D01*
X36519750Y16637000D01*
X36361000Y16478250D01*
X36357928Y15914000D01*
X29907600Y15914000D01*
X29907600Y17424346D01*
X29918863Y17461475D01*
X29933000Y17605007D01*
X29933000Y17605008D01*
X29937727Y17652999D01*
X29933000Y17700992D01*
X29933000Y19661314D01*
X31697487Y21425800D01*
X33413351Y21425800D01*
X33398724Y21352261D01*
X33398724Y21199205D01*
X33428583Y21049090D01*
X33487155Y20907685D01*
X33572188Y20780424D01*
X33680415Y20672197D01*
X33807676Y20587164D01*
X33949081Y20528592D01*
X34099196Y20498733D01*
X34252252Y20498733D01*
X34402367Y20528592D01*
X34543772Y20587164D01*
X34671033Y20672197D01*
X34697569Y20698733D01*
X39789402Y20698733D01*
X39817733Y20695943D01*
X39846064Y20698733D01*
X39846069Y20698733D01*
X39875778Y20701659D01*
X39930844Y20707082D01*
X39983010Y20722907D01*
X40039609Y20740076D01*
X40139848Y20793654D01*
X40227707Y20865759D01*
X40245772Y20887771D01*
X42487358Y23129357D01*
X42538928Y23107996D01*
X42795302Y23057000D01*
X43056698Y23057000D01*
X43313072Y23107996D01*
X43554570Y23208028D01*
X43771913Y23353252D01*
X43956748Y23538087D01*
X44101972Y23755430D01*
X44202004Y23996928D01*
X44253000Y24253302D01*
X44253000Y24514698D01*
X44202004Y24771072D01*
X44101972Y25012570D01*
X43956748Y25229913D01*
X43771913Y25414748D01*
X43554570Y25559972D01*
X43327567Y25654000D01*
X43554570Y25748028D01*
X43771913Y25893252D01*
X43956748Y26078087D01*
X44101972Y26295430D01*
X44202004Y26536928D01*
X44253000Y26793302D01*
X44253000Y27054698D01*
X44202004Y27311072D01*
X44101972Y27552570D01*
X43956748Y27769913D01*
X43771913Y27954748D01*
X43554570Y28099972D01*
X43313072Y28200004D01*
X43056698Y28251000D01*
X42795302Y28251000D01*
X42538928Y28200004D01*
X42297430Y28099972D01*
X42080087Y27954748D01*
X41895252Y27769913D01*
X41750028Y27552570D01*
X41656000Y27325567D01*
X41561972Y27552570D01*
X41416748Y27769913D01*
X41231913Y27954748D01*
X41014570Y28099972D01*
X40773072Y28200004D01*
X40516698Y28251000D01*
X40255302Y28251000D01*
X39998928Y28200004D01*
X39757430Y28099972D01*
X39540087Y27954748D01*
X39355252Y27769913D01*
X39210028Y27552570D01*
X39116000Y27325567D01*
X39021972Y27552570D01*
X38876748Y27769913D01*
X38691913Y27954748D01*
X38474570Y28099972D01*
X38233072Y28200004D01*
X37976698Y28251000D01*
X37715302Y28251000D01*
X37458928Y28200004D01*
X37217430Y28099972D01*
X37000087Y27954748D01*
X36815252Y27769913D01*
X36670028Y27552570D01*
X36569996Y27311072D01*
X36519000Y27054698D01*
X36519000Y26793302D01*
X36569996Y26536928D01*
X36670028Y26295430D01*
X36815252Y26078087D01*
X37000087Y25893252D01*
X37032079Y25871876D01*
X36996000Y25872072D01*
X36871518Y25859812D01*
X36751820Y25823502D01*
X36641506Y25764537D01*
X36544815Y25685185D01*
X36465463Y25588494D01*
X36406498Y25478180D01*
X36370188Y25358482D01*
X36357928Y25234000D01*
X36361000Y24669750D01*
X36519750Y24511000D01*
X37719000Y24511000D01*
X37719000Y24531000D01*
X37973000Y24531000D01*
X37973000Y24511000D01*
X37993000Y24511000D01*
X37993000Y24257000D01*
X37973000Y24257000D01*
X37973000Y24237000D01*
X37719000Y24237000D01*
X37719000Y24257000D01*
X36519750Y24257000D01*
X36361000Y24098250D01*
X36357928Y23534000D01*
X36370188Y23409518D01*
X36379203Y23379800D01*
X31340790Y23379800D01*
X31292799Y23384527D01*
X31244809Y23379800D01*
X31244807Y23379800D01*
X31101275Y23365663D01*
X30917109Y23309797D01*
X30747382Y23219076D01*
X30598614Y23096986D01*
X30568020Y23059707D01*
X29933000Y22424687D01*
X29933000Y31345472D01*
X35273000Y31345472D01*
X35273000Y31054528D01*
X35329760Y30769175D01*
X35441099Y30500378D01*
X35602739Y30258467D01*
X35808467Y30052739D01*
X36050378Y29891099D01*
X36319175Y29779760D01*
X36604528Y29723000D01*
X36895472Y29723000D01*
X37180825Y29779760D01*
X37449622Y29891099D01*
X37691533Y30052739D01*
X37897261Y30258467D01*
X38058901Y30500378D01*
X38170240Y30769175D01*
X38227000Y31054528D01*
X38227000Y31345472D01*
X41273000Y31345472D01*
X41273000Y31054528D01*
X41329760Y30769175D01*
X41441099Y30500378D01*
X41602739Y30258467D01*
X41808467Y30052739D01*
X42050378Y29891099D01*
X42319175Y29779760D01*
X42604528Y29723000D01*
X42895472Y29723000D01*
X43180825Y29779760D01*
X43449622Y29891099D01*
X43691533Y30052739D01*
X43897261Y30258467D01*
X44058901Y30500378D01*
X44170240Y30769175D01*
X44227000Y31054528D01*
X44227000Y31345472D01*
X44170240Y31630825D01*
X44058901Y31899622D01*
X43897261Y32141533D01*
X43691533Y32347261D01*
X43449622Y32508901D01*
X43180825Y32620240D01*
X42895472Y32677000D01*
X42604528Y32677000D01*
X42319175Y32620240D01*
X42050378Y32508901D01*
X41808467Y32347261D01*
X41602739Y32141533D01*
X41441099Y31899622D01*
X41329760Y31630825D01*
X41273000Y31345472D01*
X38227000Y31345472D01*
X38170240Y31630825D01*
X38058901Y31899622D01*
X38015707Y31964266D01*
X38112928Y31923996D01*
X38369302Y31873000D01*
X38630698Y31873000D01*
X38887072Y31923996D01*
X39128570Y32024028D01*
X39345913Y32169252D01*
X39530748Y32354087D01*
X39675972Y32571430D01*
X39776004Y32812928D01*
X39827000Y33069302D01*
X39827000Y33330698D01*
X39776004Y33587072D01*
X39675972Y33828570D01*
X39530748Y34045913D01*
X39345913Y34230748D01*
X39128570Y34375972D01*
X38887072Y34476004D01*
X38630698Y34527000D01*
X38369302Y34527000D01*
X38112928Y34476004D01*
X37871430Y34375972D01*
X37654087Y34230748D01*
X37469252Y34045913D01*
X37324028Y33828570D01*
X37223996Y33587072D01*
X37173000Y33330698D01*
X37173000Y33069302D01*
X37223996Y32812928D01*
X37324028Y32571430D01*
X37333735Y32556903D01*
X37180825Y32620240D01*
X36895472Y32677000D01*
X36604528Y32677000D01*
X36319175Y32620240D01*
X36050378Y32508901D01*
X35808467Y32347261D01*
X35602739Y32141533D01*
X35441099Y31899622D01*
X35329760Y31630825D01*
X35273000Y31345472D01*
X29933000Y31345472D01*
X29933000Y31702010D01*
X29937727Y31750001D01*
X29933000Y31797993D01*
X29933000Y43345472D01*
X35273000Y43345472D01*
X35273000Y43054528D01*
X35329760Y42769175D01*
X35441099Y42500378D01*
X35602739Y42258467D01*
X35808467Y42052739D01*
X36050378Y41891099D01*
X36319175Y41779760D01*
X36604528Y41723000D01*
X36895472Y41723000D01*
X37180825Y41779760D01*
X37333735Y41843097D01*
X37324028Y41828570D01*
X37223996Y41587072D01*
X37173000Y41330698D01*
X37173000Y41069302D01*
X37223996Y40812928D01*
X37324028Y40571430D01*
X37469252Y40354087D01*
X37654087Y40169252D01*
X37871430Y40024028D01*
X38112928Y39923996D01*
X38369302Y39873000D01*
X38630698Y39873000D01*
X38887072Y39923996D01*
X39128570Y40024028D01*
X39345913Y40169252D01*
X39530748Y40354087D01*
X39675972Y40571430D01*
X39776004Y40812928D01*
X39827000Y41069302D01*
X39827000Y41330698D01*
X39776004Y41587072D01*
X39675972Y41828570D01*
X39530748Y42045913D01*
X39345913Y42230748D01*
X39128570Y42375972D01*
X38887072Y42476004D01*
X38630698Y42527000D01*
X38369302Y42527000D01*
X38112928Y42476004D01*
X38015707Y42435734D01*
X38058901Y42500378D01*
X38170240Y42769175D01*
X38227000Y43054528D01*
X38227000Y43345472D01*
X41273000Y43345472D01*
X41273000Y43054528D01*
X41329760Y42769175D01*
X41441099Y42500378D01*
X41602739Y42258467D01*
X41808467Y42052739D01*
X42050378Y41891099D01*
X42319175Y41779760D01*
X42604528Y41723000D01*
X42895472Y41723000D01*
X43180825Y41779760D01*
X43449622Y41891099D01*
X43691533Y42052739D01*
X43897261Y42258467D01*
X44058901Y42500378D01*
X44170240Y42769175D01*
X44227000Y43054528D01*
X44227000Y43345472D01*
X44170240Y43630825D01*
X44058901Y43899622D01*
X43897261Y44141533D01*
X43691533Y44347261D01*
X43449622Y44508901D01*
X43180825Y44620240D01*
X42895472Y44677000D01*
X42604528Y44677000D01*
X42319175Y44620240D01*
X42050378Y44508901D01*
X41808467Y44347261D01*
X41602739Y44141533D01*
X41441099Y43899622D01*
X41329760Y43630825D01*
X41273000Y43345472D01*
X38227000Y43345472D01*
X38170240Y43630825D01*
X38058901Y43899622D01*
X37897261Y44141533D01*
X37691533Y44347261D01*
X37449622Y44508901D01*
X37180825Y44620240D01*
X36895472Y44677000D01*
X36604528Y44677000D01*
X36319175Y44620240D01*
X36050378Y44508901D01*
X35808467Y44347261D01*
X35602739Y44141533D01*
X35441099Y43899622D01*
X35329760Y43630825D01*
X35273000Y43345472D01*
X29933000Y43345472D01*
X29933000Y44185820D01*
X29999833Y44310856D01*
X30000000Y44311407D01*
X30000167Y44310857D01*
X30100174Y44123756D01*
X30234761Y43959761D01*
X30398756Y43825174D01*
X30585856Y43725167D01*
X30788871Y43663583D01*
X31000000Y43642789D01*
X31211128Y43663583D01*
X31414143Y43725167D01*
X31601244Y43825174D01*
X31765239Y43959761D01*
X31899826Y44123756D01*
X31943164Y44204836D01*
X31976208Y44095906D01*
X32043603Y43969818D01*
X32134302Y43859302D01*
X32244818Y43768603D01*
X32370906Y43701208D01*
X32507718Y43659706D01*
X32649999Y43645693D01*
X33350001Y43645693D01*
X33492282Y43659706D01*
X33629094Y43701208D01*
X33755182Y43768603D01*
X33865698Y43859302D01*
X33956397Y43969818D01*
X34023792Y44095906D01*
X34065294Y44232718D01*
X34079307Y44374999D01*
X34079307Y45625001D01*
X34065294Y45767282D01*
X34023792Y45904094D01*
X33956397Y46030182D01*
X33865698Y46140698D01*
X33755182Y46231397D01*
X33629094Y46298792D01*
X33492282Y46340294D01*
X33350001Y46354307D01*
X32649999Y46354307D01*
X32507718Y46340294D01*
X32370906Y46298792D01*
X32244818Y46231397D01*
X32134302Y46140698D01*
X32043603Y46030182D01*
X31976208Y45904094D01*
X31943164Y45795164D01*
X31899826Y45876244D01*
X31765239Y46040239D01*
X31601244Y46174826D01*
X31414144Y46274833D01*
X31211129Y46336417D01*
X31000000Y46357211D01*
X30788872Y46336417D01*
X30585857Y46274833D01*
X30398757Y46174826D01*
X30234762Y46040239D01*
X30100175Y45876244D01*
X30000168Y45689144D01*
X30000000Y45688591D01*
X29999833Y45689143D01*
X29899826Y45876244D01*
X29765239Y46040239D01*
X29601244Y46174826D01*
X29414144Y46274833D01*
X29211129Y46336417D01*
X29000000Y46357211D01*
X28788872Y46336417D01*
X28585857Y46274833D01*
X28398757Y46174826D01*
X28234762Y46040239D01*
X28100175Y45876244D01*
X28093158Y45863115D01*
X28092390Y45864946D01*
X27956307Y46066725D01*
X27783474Y46238078D01*
X27580533Y46372421D01*
X27355282Y46464591D01*
X27317609Y46468462D01*
X27127000Y46343731D01*
X27127000Y45127000D01*
X27147000Y45127000D01*
X27147000Y44873000D01*
X27127000Y44873000D01*
X27127000Y43656269D01*
X27317609Y43531538D01*
X27355282Y43535409D01*
X27580533Y43627579D01*
X27783474Y43761922D01*
X27956307Y43933275D01*
X27979001Y43966925D01*
X27979000Y35994608D01*
X27979001Y35994598D01*
X27979001Y34108686D01*
X26378784Y35708902D01*
X26348186Y35746186D01*
X26199418Y35868276D01*
X26029691Y35958997D01*
X25845525Y36014863D01*
X25701993Y36029000D01*
X25654000Y36033727D01*
X25606007Y36029000D01*
X18585847Y36029000D01*
X18688336Y36131489D01*
X18773369Y36258750D01*
X18831941Y36400155D01*
X18861800Y36550270D01*
X18861800Y36703326D01*
X18831941Y36853441D01*
X18773369Y36994846D01*
X18688336Y37122107D01*
X18580109Y37230334D01*
X18484000Y37294552D01*
X18484000Y42667999D01*
X19483158Y43667156D01*
X19507718Y43659706D01*
X19649999Y43645693D01*
X20350001Y43645693D01*
X20492282Y43659706D01*
X20629094Y43701208D01*
X20755182Y43768603D01*
X20865698Y43859302D01*
X20956397Y43969818D01*
X21023792Y44095906D01*
X21065294Y44232718D01*
X21079307Y44374999D01*
X21079307Y44873000D01*
X25765000Y44873000D01*
X25765000Y44598000D01*
X25813507Y44359504D01*
X25907610Y44135054D01*
X26043693Y43933275D01*
X26216526Y43761922D01*
X26419467Y43627579D01*
X26644718Y43535409D01*
X26682391Y43531538D01*
X26873000Y43656269D01*
X26873000Y44873000D01*
X25765000Y44873000D01*
X21079307Y44873000D01*
X21079307Y45402000D01*
X25765000Y45402000D01*
X25765000Y45127000D01*
X26873000Y45127000D01*
X26873000Y46343731D01*
X26682391Y46468462D01*
X26644718Y46464591D01*
X26419467Y46372421D01*
X26216526Y46238078D01*
X26043693Y46066725D01*
X25907610Y45864946D01*
X25813507Y45640496D01*
X25765000Y45402000D01*
X21079307Y45402000D01*
X21079307Y45625001D01*
X21065294Y45767282D01*
X21023792Y45904094D01*
X20956397Y46030182D01*
X20865698Y46140698D01*
X20755182Y46231397D01*
X20629094Y46298792D01*
X20492282Y46340294D01*
X20350001Y46354307D01*
X19649999Y46354307D01*
X19507718Y46340294D01*
X19370906Y46298792D01*
X19244818Y46231397D01*
X19134302Y46140698D01*
X19043603Y46030182D01*
X18976208Y45904094D01*
X18943164Y45795164D01*
X18899826Y45876244D01*
X18765239Y46040239D01*
X18601244Y46174826D01*
X18414144Y46274833D01*
X18211129Y46336417D01*
X18000000Y46357211D01*
X17788872Y46336417D01*
X17585857Y46274833D01*
X17398757Y46174826D01*
X17234762Y46040239D01*
X17100175Y45876244D01*
X17000168Y45689144D01*
X17000000Y45688591D01*
X16999833Y45689143D01*
X16899826Y45876244D01*
X16765239Y46040239D01*
X16601244Y46174826D01*
X16414144Y46274833D01*
X16211129Y46336417D01*
X16000000Y46357211D01*
X15788872Y46336417D01*
X15585857Y46274833D01*
X15398757Y46174826D01*
X15234762Y46040239D01*
X15100175Y45876244D01*
X15093158Y45863115D01*
X15092390Y45864946D01*
X14956307Y46066725D01*
X14783474Y46238078D01*
X14580533Y46372421D01*
X14355282Y46464591D01*
X14317609Y46468462D01*
X14127000Y46343731D01*
X14127000Y45127000D01*
X14147000Y45127000D01*
X14147000Y44873000D01*
X14127000Y44873000D01*
X14127000Y43656269D01*
X14317609Y43531538D01*
X14355282Y43535409D01*
X14580533Y43627579D01*
X14783474Y43761922D01*
X14956307Y43933275D01*
X15092390Y44135054D01*
X15093157Y44136884D01*
X15100174Y44123756D01*
X15234761Y43959761D01*
X15279000Y43923455D01*
X15279001Y36624003D01*
X15274273Y36576000D01*
X15293137Y36384475D01*
X15349003Y36200310D01*
X15349004Y36200309D01*
X15439725Y36030582D01*
X15561815Y35881814D01*
X15599093Y35851221D01*
X17055220Y34395093D01*
X17085814Y34357814D01*
X17234582Y34235724D01*
X17404309Y34145003D01*
X17588475Y34089137D01*
X17732007Y34075000D01*
X17732016Y34075000D01*
X17779999Y34070274D01*
X17827982Y34075000D01*
X25249314Y34075000D01*
X27979000Y31345313D01*
X27979000Y30686008D01*
X27979001Y30685998D01*
X27979000Y25700806D01*
X27979001Y25700796D01*
X27979000Y21598617D01*
X27861843Y21647145D01*
X27711728Y21677004D01*
X27558672Y21677004D01*
X27408557Y21647145D01*
X27267152Y21588573D01*
X27139891Y21503540D01*
X27092151Y21455800D01*
X25515778Y21455800D01*
X25626679Y21477859D01*
X25768084Y21536431D01*
X25895345Y21621464D01*
X26003572Y21729691D01*
X26088605Y21856952D01*
X26147177Y21998357D01*
X26177036Y22148472D01*
X26177036Y22301528D01*
X26147177Y22451643D01*
X26088605Y22593048D01*
X26003572Y22720309D01*
X25895345Y22828536D01*
X25768084Y22913569D01*
X25626679Y22972141D01*
X25476564Y23002000D01*
X25413713Y23002000D01*
X25342512Y23040057D01*
X25277734Y23059707D01*
X25233747Y23073051D01*
X25198506Y23076521D01*
X25164503Y23140137D01*
X25075359Y23248759D01*
X24966737Y23337903D01*
X24842810Y23404143D01*
X24708342Y23444934D01*
X24568500Y23458707D01*
X24533908Y23458707D01*
X26422962Y25347761D01*
X26444974Y25365826D01*
X26517079Y25453685D01*
X26570657Y25553924D01*
X26603650Y25662688D01*
X26612000Y25747464D01*
X26612000Y25747470D01*
X26614790Y25775799D01*
X26612000Y25804128D01*
X26612000Y31086661D01*
X26614791Y31115000D01*
X26603651Y31228112D01*
X26584204Y31292218D01*
X26570657Y31336876D01*
X26517079Y31437115D01*
X26444974Y31524974D01*
X26422963Y31543038D01*
X25828039Y32137962D01*
X25809974Y32159974D01*
X25722115Y32232079D01*
X25621876Y32285657D01*
X25557770Y32305103D01*
X25513111Y32318651D01*
X25458045Y32324074D01*
X25428336Y32327000D01*
X25428331Y32327000D01*
X25400000Y32329790D01*
X25371669Y32327000D01*
X25195898Y32327000D01*
X25164503Y32385737D01*
X25075359Y32494359D01*
X24966737Y32583503D01*
X24842810Y32649743D01*
X24708342Y32690534D01*
X24568500Y32704307D01*
X23993500Y32704307D01*
X23853658Y32690534D01*
X23719190Y32649743D01*
X23595263Y32583503D01*
X23486641Y32494359D01*
X23406000Y32396098D01*
X23325359Y32494359D01*
X23216737Y32583503D01*
X23092810Y32649743D01*
X22958342Y32690534D01*
X22818500Y32704307D01*
X22243500Y32704307D01*
X22103658Y32690534D01*
X21969190Y32649743D01*
X21845263Y32583503D01*
X21736641Y32494359D01*
X21647497Y32385737D01*
X21616213Y32327208D01*
X21589999Y32329790D01*
X21561670Y32327000D01*
X21561664Y32327000D01*
X21476888Y32318650D01*
X21368124Y32285657D01*
X21267885Y32232079D01*
X21180026Y32159974D01*
X21161961Y32137962D01*
X19700999Y30677000D01*
X18442331Y30677000D01*
X18414000Y30679790D01*
X18385669Y30677000D01*
X11821845Y30677000D01*
X11795309Y30703536D01*
X11668048Y30788569D01*
X11526643Y30847141D01*
X11376528Y30877000D01*
X11223472Y30877000D01*
X11073357Y30847141D01*
X10931952Y30788569D01*
X10804691Y30703536D01*
X10696464Y30595309D01*
X10611431Y30468048D01*
X10552859Y30326643D01*
X10523000Y30176528D01*
X502000Y30176528D01*
X502000Y39090642D01*
X4977141Y39090642D01*
X4977141Y38850232D01*
X5024043Y38614442D01*
X5116044Y38392333D01*
X5249608Y38192440D01*
X5419603Y38022445D01*
X5619496Y37888881D01*
X5841605Y37796880D01*
X6077395Y37749978D01*
X6317805Y37749978D01*
X6553595Y37796880D01*
X6775704Y37888881D01*
X6975597Y38022445D01*
X7145592Y38192440D01*
X7279156Y38392333D01*
X7371157Y38614442D01*
X7418059Y38850232D01*
X7418059Y39090642D01*
X7371157Y39326432D01*
X7279156Y39548541D01*
X7145592Y39748434D01*
X6975597Y39918429D01*
X6775704Y40051993D01*
X6553595Y40143994D01*
X6317805Y40190896D01*
X6077395Y40190896D01*
X5841605Y40143994D01*
X5619496Y40051993D01*
X5419603Y39918429D01*
X5249608Y39748434D01*
X5116044Y39548541D01*
X5024043Y39326432D01*
X4977141Y39090642D01*
X502000Y39090642D01*
X502000Y39495769D01*
X524653Y39498000D01*
X598409Y39505264D01*
X693036Y39533969D01*
X780245Y39580583D01*
X856684Y39643316D01*
X919417Y39719755D01*
X966031Y39806964D01*
X994736Y39901591D01*
X1004428Y40000000D01*
X1002000Y40024653D01*
X1002000Y46975450D01*
X1008791Y47044718D01*
X1173000Y47044718D01*
X1173000Y46655282D01*
X1248975Y46273330D01*
X1398005Y45913539D01*
X1614364Y45589736D01*
X1889736Y45314364D01*
X2213539Y45098005D01*
X2573330Y44948975D01*
X2955282Y44873000D01*
X3344718Y44873000D01*
X12765000Y44873000D01*
X12765000Y44598000D01*
X12813507Y44359504D01*
X12907610Y44135054D01*
X13043693Y43933275D01*
X13216526Y43761922D01*
X13419467Y43627579D01*
X13644718Y43535409D01*
X13682391Y43531538D01*
X13873000Y43656269D01*
X13873000Y44873000D01*
X12765000Y44873000D01*
X3344718Y44873000D01*
X3726670Y44948975D01*
X4086461Y45098005D01*
X4410264Y45314364D01*
X4685636Y45589736D01*
X4901995Y45913539D01*
X5051025Y46273330D01*
X5127000Y46655282D01*
X5127000Y46995472D01*
X5823000Y46995472D01*
X5823000Y46704528D01*
X5879760Y46419175D01*
X5991099Y46150378D01*
X6152739Y45908467D01*
X6358467Y45702739D01*
X6600378Y45541099D01*
X6869175Y45429760D01*
X7154528Y45373000D01*
X7445472Y45373000D01*
X7591265Y45402000D01*
X12765000Y45402000D01*
X12765000Y45127000D01*
X13873000Y45127000D01*
X13873000Y46343731D01*
X13682391Y46468462D01*
X13644718Y46464591D01*
X13419467Y46372421D01*
X13216526Y46238078D01*
X13043693Y46066725D01*
X12907610Y45864946D01*
X12813507Y45640496D01*
X12765000Y45402000D01*
X7591265Y45402000D01*
X7730825Y45429760D01*
X7999622Y45541099D01*
X8241533Y45702739D01*
X8447261Y45908467D01*
X8608901Y46150378D01*
X8720240Y46419175D01*
X8777000Y46704528D01*
X8777000Y46995472D01*
X41223000Y46995472D01*
X41223000Y46704528D01*
X41279760Y46419175D01*
X41391099Y46150378D01*
X41552739Y45908467D01*
X41758467Y45702739D01*
X42000378Y45541099D01*
X42269175Y45429760D01*
X42554528Y45373000D01*
X42845472Y45373000D01*
X43130825Y45429760D01*
X43399622Y45541099D01*
X43641533Y45702739D01*
X43847261Y45908467D01*
X44008901Y46150378D01*
X44120240Y46419175D01*
X44177000Y46704528D01*
X44177000Y46995472D01*
X44167205Y47044718D01*
X44873000Y47044718D01*
X44873000Y46655282D01*
X44948975Y46273330D01*
X45098005Y45913539D01*
X45314364Y45589736D01*
X45589736Y45314364D01*
X45913539Y45098005D01*
X46273330Y44948975D01*
X46655282Y44873000D01*
X47044718Y44873000D01*
X47426670Y44948975D01*
X47786461Y45098005D01*
X48110264Y45314364D01*
X48385636Y45589736D01*
X48601995Y45913539D01*
X48751025Y46273330D01*
X48827000Y46655282D01*
X48827000Y47044718D01*
X48751025Y47426670D01*
X48601995Y47786461D01*
X48385636Y48110264D01*
X48110264Y48385636D01*
X47786461Y48601995D01*
X47426670Y48751025D01*
X47044718Y48827000D01*
X46655282Y48827000D01*
X46273330Y48751025D01*
X45913539Y48601995D01*
X45589736Y48385636D01*
X45314364Y48110264D01*
X45098005Y47786461D01*
X44948975Y47426670D01*
X44873000Y47044718D01*
X44167205Y47044718D01*
X44120240Y47280825D01*
X44008901Y47549622D01*
X43847261Y47791533D01*
X43641533Y47997261D01*
X43399622Y48158901D01*
X43130825Y48270240D01*
X42845472Y48327000D01*
X42554528Y48327000D01*
X42269175Y48270240D01*
X42000378Y48158901D01*
X41758467Y47997261D01*
X41552739Y47791533D01*
X41391099Y47549622D01*
X41279760Y47280825D01*
X41223000Y46995472D01*
X8777000Y46995472D01*
X8720240Y47280825D01*
X8608901Y47549622D01*
X8447261Y47791533D01*
X8241533Y47997261D01*
X7999622Y48158901D01*
X7730825Y48270240D01*
X7445472Y48327000D01*
X7154528Y48327000D01*
X6869175Y48270240D01*
X6600378Y48158901D01*
X6358467Y47997261D01*
X6152739Y47791533D01*
X5991099Y47549622D01*
X5879760Y47280825D01*
X5823000Y46995472D01*
X5127000Y46995472D01*
X5127000Y47044718D01*
X5051025Y47426670D01*
X4901995Y47786461D01*
X4685636Y48110264D01*
X4410264Y48385636D01*
X4086461Y48601995D01*
X3726670Y48751025D01*
X3344718Y48827000D01*
X2955282Y48827000D01*
X2573330Y48751025D01*
X2213539Y48601995D01*
X1889736Y48385636D01*
X1614364Y48110264D01*
X1398005Y47786461D01*
X1248975Y47426670D01*
X1173000Y47044718D01*
X1008791Y47044718D01*
X1042413Y47387613D01*
X1154982Y47760459D01*
X1337830Y48104347D01*
X1583987Y48406165D01*
X1884081Y48654423D01*
X2226677Y48839663D01*
X2598731Y48954833D01*
X3009436Y48998000D01*
X9975347Y48998000D01*
X10000000Y48995572D01*
X10024653Y48998000D01*
X10098409Y49005264D01*
X10193036Y49033969D01*
X10280245Y49080583D01*
X10356684Y49143316D01*
X10419417Y49219755D01*
X10466031Y49306964D01*
X10494736Y49401591D01*
X10504231Y49498000D01*
X39495769Y49498000D01*
X39505264Y49401591D01*
G36*
X27979000Y20113996D02*
G01*
X27974273Y20066000D01*
X27979000Y20018004D01*
X27979000Y17856254D01*
X27967737Y17819125D01*
X27948873Y17627600D01*
X27953600Y17579607D01*
X27953601Y15887888D01*
X27823776Y15758063D01*
X27814787Y15818730D01*
X27719603Y16084892D01*
X27652671Y16210114D01*
X27408702Y16281697D01*
X26595605Y15468600D01*
X26609748Y15454457D01*
X26430143Y15274852D01*
X26416000Y15288995D01*
X26401858Y15274852D01*
X26222253Y15454457D01*
X26236395Y15468600D01*
X26222253Y15482742D01*
X26401858Y15662347D01*
X26416000Y15648205D01*
X27229097Y16461302D01*
X27157514Y16705271D01*
X26902004Y16826171D01*
X26627816Y16894900D01*
X26345488Y16908817D01*
X26065870Y16867387D01*
X25799708Y16772203D01*
X25674486Y16705271D01*
X25602903Y16461304D01*
X25490600Y16573607D01*
X25490600Y18201747D01*
X25493028Y18226400D01*
X25483336Y18324809D01*
X25454631Y18419436D01*
X25408017Y18506645D01*
X25345284Y18583084D01*
X25268845Y18645817D01*
X25181636Y18692431D01*
X25140330Y18704961D01*
X25151903Y18719063D01*
X25183298Y18777800D01*
X25717669Y18777800D01*
X25746000Y18775010D01*
X25774331Y18777800D01*
X25774336Y18777800D01*
X25804045Y18780726D01*
X25859111Y18786149D01*
X25903770Y18799697D01*
X25967876Y18819143D01*
X26068115Y18872721D01*
X26155974Y18944826D01*
X26174039Y18966838D01*
X26709001Y19501800D01*
X26746528Y19501800D01*
X26896643Y19531659D01*
X27038048Y19590231D01*
X27165309Y19675264D01*
X27273536Y19783491D01*
X27358569Y19910752D01*
X27417141Y20052157D01*
X27436083Y20147388D01*
X27558672Y20123004D01*
X27711728Y20123004D01*
X27861843Y20152863D01*
X27979000Y20201391D01*
X27979000Y20113996D01*
G37*
X27979000Y20113996D02*
X27974273Y20066000D01*
X27979000Y20018004D01*
X27979000Y17856254D01*
X27967737Y17819125D01*
X27948873Y17627600D01*
X27953600Y17579607D01*
X27953601Y15887888D01*
X27823776Y15758063D01*
X27814787Y15818730D01*
X27719603Y16084892D01*
X27652671Y16210114D01*
X27408702Y16281697D01*
X26595605Y15468600D01*
X26609748Y15454457D01*
X26430143Y15274852D01*
X26416000Y15288995D01*
X26401858Y15274852D01*
X26222253Y15454457D01*
X26236395Y15468600D01*
X26222253Y15482742D01*
X26401858Y15662347D01*
X26416000Y15648205D01*
X27229097Y16461302D01*
X27157514Y16705271D01*
X26902004Y16826171D01*
X26627816Y16894900D01*
X26345488Y16908817D01*
X26065870Y16867387D01*
X25799708Y16772203D01*
X25674486Y16705271D01*
X25602903Y16461304D01*
X25490600Y16573607D01*
X25490600Y18201747D01*
X25493028Y18226400D01*
X25483336Y18324809D01*
X25454631Y18419436D01*
X25408017Y18506645D01*
X25345284Y18583084D01*
X25268845Y18645817D01*
X25181636Y18692431D01*
X25140330Y18704961D01*
X25151903Y18719063D01*
X25183298Y18777800D01*
X25717669Y18777800D01*
X25746000Y18775010D01*
X25774331Y18777800D01*
X25774336Y18777800D01*
X25804045Y18780726D01*
X25859111Y18786149D01*
X25903770Y18799697D01*
X25967876Y18819143D01*
X26068115Y18872721D01*
X26155974Y18944826D01*
X26174039Y18966838D01*
X26709001Y19501800D01*
X26746528Y19501800D01*
X26896643Y19531659D01*
X27038048Y19590231D01*
X27165309Y19675264D01*
X27273536Y19783491D01*
X27358569Y19910752D01*
X27417141Y20052157D01*
X27436083Y20147388D01*
X27558672Y20123004D01*
X27711728Y20123004D01*
X27861843Y20152863D01*
X27979000Y20201391D01*
X27979000Y20113996D01*
G36*
X24257000Y26797000D02*
G01*
X24277000Y26797000D01*
X24277000Y26543000D01*
X24257000Y26543000D01*
X24257000Y25443750D01*
X24415750Y25285000D01*
X24630000Y25281928D01*
X24735519Y25292320D01*
X22894428Y23451229D01*
X22818500Y23458707D01*
X22243500Y23458707D01*
X22103658Y23444934D01*
X21969190Y23404143D01*
X21845263Y23337903D01*
X21736641Y23248759D01*
X21647497Y23140137D01*
X21625401Y23098799D01*
X21053901Y23098799D01*
X21069774Y23111826D01*
X21087839Y23133838D01*
X23247963Y25293962D01*
X23269974Y25312026D01*
X23315835Y25367907D01*
X23385820Y25330498D01*
X23505518Y25294188D01*
X23630000Y25281928D01*
X23844250Y25285000D01*
X24003000Y25443750D01*
X24003000Y26543000D01*
X23983000Y26543000D01*
X23983000Y26797000D01*
X24003000Y26797000D01*
X24003000Y26817000D01*
X24257000Y26817000D01*
X24257000Y26797000D01*
G37*
X24257000Y26797000D02*
X24277000Y26797000D01*
X24277000Y26543000D01*
X24257000Y26543000D01*
X24257000Y25443750D01*
X24415750Y25285000D01*
X24630000Y25281928D01*
X24735519Y25292320D01*
X22894428Y23451229D01*
X22818500Y23458707D01*
X22243500Y23458707D01*
X22103658Y23444934D01*
X21969190Y23404143D01*
X21845263Y23337903D01*
X21736641Y23248759D01*
X21647497Y23140137D01*
X21625401Y23098799D01*
X21053901Y23098799D01*
X21069774Y23111826D01*
X21087839Y23133838D01*
X23247963Y25293962D01*
X23269974Y25312026D01*
X23315835Y25367907D01*
X23385820Y25330498D01*
X23505518Y25294188D01*
X23630000Y25281928D01*
X23844250Y25285000D01*
X24003000Y25443750D01*
X24003000Y26543000D01*
X23983000Y26543000D01*
X23983000Y26797000D01*
X24003000Y26797000D01*
X24003000Y26817000D01*
X24257000Y26817000D01*
X24257000Y26797000D01*
G36*
X21736641Y31005641D02*
G01*
X21845263Y30916497D01*
X21969190Y30850257D01*
X22103658Y30809466D01*
X22188932Y30801067D01*
X22550692Y30439307D01*
X22345000Y30439307D01*
X22251492Y30430097D01*
X22161577Y30402822D01*
X22078711Y30358529D01*
X22006079Y30298921D01*
X21946471Y30226289D01*
X21902178Y30143423D01*
X21874903Y30053508D01*
X21865693Y29960000D01*
X21865693Y28460000D01*
X21874903Y28366492D01*
X21902178Y28276577D01*
X21946471Y28193711D01*
X22006079Y28121079D01*
X22078711Y28061471D01*
X22161577Y28017178D01*
X22251492Y27989903D01*
X22253001Y27989754D01*
X22253000Y27891723D01*
X22236492Y27890097D01*
X22146577Y27862822D01*
X22063711Y27818529D01*
X21991079Y27758921D01*
X21931471Y27686289D01*
X21887178Y27603423D01*
X21859903Y27513508D01*
X21850693Y27420000D01*
X21850693Y25920000D01*
X21859903Y25826492D01*
X21887178Y25736577D01*
X21931471Y25653711D01*
X21951412Y25629413D01*
X20803679Y24481680D01*
X20798721Y24487722D01*
X20726089Y24547330D01*
X20643223Y24591623D01*
X20636750Y24593587D01*
X20636750Y28425919D01*
X20639540Y28454250D01*
X20628401Y28567362D01*
X20605048Y28644344D01*
X20595407Y28676126D01*
X20541829Y28776365D01*
X20469724Y28864224D01*
X20447717Y28882285D01*
X19807002Y29523000D01*
X19911669Y29523000D01*
X19940000Y29520210D01*
X19968331Y29523000D01*
X19968336Y29523000D01*
X19998045Y29525926D01*
X20053111Y29531349D01*
X20097770Y29544897D01*
X20161876Y29564343D01*
X20262115Y29617921D01*
X20349974Y29690026D01*
X20368039Y29712038D01*
X21702835Y31046834D01*
X21736641Y31005641D01*
G37*
X21736641Y31005641D02*
X21845263Y30916497D01*
X21969190Y30850257D01*
X22103658Y30809466D01*
X22188932Y30801067D01*
X22550692Y30439307D01*
X22345000Y30439307D01*
X22251492Y30430097D01*
X22161577Y30402822D01*
X22078711Y30358529D01*
X22006079Y30298921D01*
X21946471Y30226289D01*
X21902178Y30143423D01*
X21874903Y30053508D01*
X21865693Y29960000D01*
X21865693Y28460000D01*
X21874903Y28366492D01*
X21902178Y28276577D01*
X21946471Y28193711D01*
X22006079Y28121079D01*
X22078711Y28061471D01*
X22161577Y28017178D01*
X22251492Y27989903D01*
X22253001Y27989754D01*
X22253000Y27891723D01*
X22236492Y27890097D01*
X22146577Y27862822D01*
X22063711Y27818529D01*
X21991079Y27758921D01*
X21931471Y27686289D01*
X21887178Y27603423D01*
X21859903Y27513508D01*
X21850693Y27420000D01*
X21850693Y25920000D01*
X21859903Y25826492D01*
X21887178Y25736577D01*
X21931471Y25653711D01*
X21951412Y25629413D01*
X20803679Y24481680D01*
X20798721Y24487722D01*
X20726089Y24547330D01*
X20643223Y24591623D01*
X20636750Y24593587D01*
X20636750Y28425919D01*
X20639540Y28454250D01*
X20628401Y28567362D01*
X20605048Y28644344D01*
X20595407Y28676126D01*
X20541829Y28776365D01*
X20469724Y28864224D01*
X20447717Y28882285D01*
X19807002Y29523000D01*
X19911669Y29523000D01*
X19940000Y29520210D01*
X19968331Y29523000D01*
X19968336Y29523000D01*
X19998045Y29525926D01*
X20053111Y29531349D01*
X20097770Y29544897D01*
X20161876Y29564343D01*
X20262115Y29617921D01*
X20349974Y29690026D01*
X20368039Y29712038D01*
X21702835Y31046834D01*
X21736641Y31005641D01*
G36*
X15968134Y23912866D02*
G01*
X15964243Y23905959D01*
X15925295Y23787093D01*
X15913200Y23680550D01*
X16054284Y23539466D01*
X15987705Y23503879D01*
X15954935Y23476985D01*
X14214753Y23476985D01*
X13768738Y23923000D01*
X15958000Y23923000D01*
X15968134Y23912866D01*
G37*
X15968134Y23912866D02*
X15964243Y23905959D01*
X15925295Y23787093D01*
X15913200Y23680550D01*
X16054284Y23539466D01*
X15987705Y23503879D01*
X15954935Y23476985D01*
X14214753Y23476985D01*
X13768738Y23923000D01*
X15958000Y23923000D01*
X15968134Y23912866D01*
M02*
