M48
; DRILL file {KiCad 5.1.5+dfsg1-2build2} date Wed 17 Aug 2022 11:11:46 JST
; FORMAT={3:3/ absolute / metric / suppress leading zeros}
; #@! TF.CreationDate,2022-08-17T11:11:46+09:00
; #@! TF.GenerationSoftware,Kicad,Pcbnew,5.1.5+dfsg1-2build2
FMAT,2
METRIC,TZ
T1C0.300
T2C0.750
T3C0.900
T4C1.000
T5C1.500
T6C2.000
T7C3.000
%
G90
G05
T1
X1000Y39000
X1000Y34000
X1000Y29000
X1000Y24000
X1000Y18550
X1000Y14000
X1000Y11000
X1500Y45000
X1500Y5000
X4623Y11024
X6150Y19850
X6150Y18600
X6150Y17300
X6248Y24435
X6250Y12450
X7772Y38938
X7823Y10998
X8000Y48500
X8000Y1500
X9000Y5400
X9144Y33909
X9200Y21400
X9400Y28750
X9600Y23700
X10150Y5800
X10888Y26415
X10900Y33650
X10900Y6300
X10922Y35687
X11000Y1000
X11100Y27700
X11150Y38050
X11300Y30100
X11300Y15900
X11328Y11024
X11500Y25800
X11600Y19900
X12000Y7500
X12065Y39243
X12100Y41500
X12550Y16478
X12852Y20066
X13100Y33200
X13400Y14100
X13600Y27050
X14000Y38650
X14000Y49000
X14897Y38970
X15600Y7200
X16000Y1000
X16350Y43300
X17250Y28600
X17500Y34400
X18339Y28702
X18388Y23522
X19000Y49000
X19200Y41300
X19200Y38750
X19650Y36700
X21000Y25095
X21000Y1000
X21234Y21641
X21600Y30400
X22150Y23800
X23950Y9400
X24000Y49000
X24700Y25600
X24900Y38800
X25019Y33782
X25231Y15419
X25250Y41950
X25400Y23650
X25550Y21500
X25750Y12500
X25950Y19200
X26000Y1000
X26750Y20400
X27500Y18415
X27584Y4115
X27600Y25950
X27600Y16200
X27635Y35001
X27650Y40500
X27686Y31242
X29000Y49000
X29800Y43600
X29921Y6299
X30000Y11850
X30277Y36373
X30277Y23266
X30378Y15291
X30400Y19400
X30429Y28677
X31000Y1000
X32100Y43250
X33700Y21200
X34000Y49000
X35900Y15200
X36000Y1000
X36050Y23850
X36678Y12294
X37795Y6934
X39000Y49000
X39345Y8915
X39726Y12243
X42000Y48500
X42000Y1500
X42700Y22800
X43332Y37846
X43840Y29921
X45872Y11989
X46228Y22860
X46228Y16764
X48500Y44500
X48500Y5500
X49000Y37000
X49000Y32000
X49000Y26000
X49000Y21000
X49000Y16000
X49000Y11000
T2
X27000Y45000
X29000Y45000
X31000Y45000
X33000Y45000
X14000Y45000
X16000Y45000
X18000Y45000
X20000Y45000
X40060Y10600
X42060Y10600
T3
X45800Y39000
X45800Y37000
X45800Y35000
T4
X13700Y7800
X13700Y5300
X37846Y26924
X37846Y24384
X40386Y26924
X40386Y24384
X42926Y26924
X42926Y24384
X37846Y19304
X37846Y16764
X40386Y19304
X40386Y16764
X42926Y19304
X42926Y16764
T5
X45800Y41100
X45800Y32900
T6
X42700Y3150
X7300Y46850
X42700Y46850
X7300Y3150
T7
X3150Y3150
X46850Y3150
X3150Y46850
X46850Y46850
T0
M30
