G04 #@! TF.GenerationSoftware,KiCad,Pcbnew,6.0.2+dfsg-1*
G04 #@! TF.CreationDate,2023-08-08T18:30:04+09:00*
G04 #@! TF.ProjectId,m5-pantilt,6d352d70-616e-4746-996c-742e6b696361,1*
G04 #@! TF.SameCoordinates,Original*
G04 #@! TF.FileFunction,Legend,Bot*
G04 #@! TF.FilePolarity,Positive*
%FSLAX46Y46*%
G04 Gerber Fmt 4.6, Leading zero omitted, Abs format (unit mm)*
G04 Created by KiCad (PCBNEW 6.0.2+dfsg-1) date 2023-08-08 18:30:04*
%MOMM*%
%LPD*%
G01*
G04 APERTURE LIST*
%ADD10C,1.000000*%
%ADD11C,0.150000*%
%ADD12C,0.300000*%
%ADD13C,0.120000*%
%ADD14C,0.010000*%
G04 APERTURE END LIST*
D10*
X107670800Y-89941600D02*
X107620000Y-60223600D01*
X142773600Y-90043200D02*
X107670800Y-89941600D01*
X142672000Y-60172800D02*
X142773600Y-90043200D01*
X107620000Y-60223600D02*
X142672000Y-60172800D01*
D11*
X101476190Y-76061904D02*
X101742857Y-75680952D01*
X101933333Y-76061904D02*
X101933333Y-75261904D01*
X101628571Y-75261904D01*
X101552380Y-75300000D01*
X101514285Y-75338095D01*
X101476190Y-75414285D01*
X101476190Y-75528571D01*
X101514285Y-75604761D01*
X101552380Y-75642857D01*
X101628571Y-75680952D01*
X101933333Y-75680952D01*
X101209523Y-76061904D02*
X100790476Y-75528571D01*
X101209523Y-75528571D02*
X100790476Y-76061904D01*
X117195238Y-51452380D02*
X117195238Y-52261904D01*
X117147619Y-52357142D01*
X117100000Y-52404761D01*
X117004761Y-52452380D01*
X116814285Y-52452380D01*
X116719047Y-52404761D01*
X116671428Y-52357142D01*
X116623809Y-52261904D01*
X116623809Y-51452380D01*
X116195238Y-52166666D02*
X115719047Y-52166666D01*
X116290476Y-52452380D02*
X115957142Y-51452380D01*
X115623809Y-52452380D01*
X114719047Y-52452380D02*
X115052380Y-51976190D01*
X115290476Y-52452380D02*
X115290476Y-51452380D01*
X114909523Y-51452380D01*
X114814285Y-51500000D01*
X114766666Y-51547619D01*
X114719047Y-51642857D01*
X114719047Y-51785714D01*
X114766666Y-51880952D01*
X114814285Y-51928571D01*
X114909523Y-51976190D01*
X115290476Y-51976190D01*
X114433333Y-51452380D02*
X113861904Y-51452380D01*
X114147619Y-52452380D02*
X114147619Y-51452380D01*
X135378571Y-59114404D02*
X135378571Y-58352500D01*
X134997619Y-58733452D02*
X135759523Y-58733452D01*
X135997619Y-57400119D02*
X135997619Y-57876309D01*
X135521428Y-57923928D01*
X135569047Y-57876309D01*
X135616666Y-57781071D01*
X135616666Y-57542976D01*
X135569047Y-57447738D01*
X135521428Y-57400119D01*
X135426190Y-57352500D01*
X135188095Y-57352500D01*
X135092857Y-57400119D01*
X135045238Y-57447738D01*
X134997619Y-57542976D01*
X134997619Y-57781071D01*
X135045238Y-57876309D01*
X135092857Y-57923928D01*
X135997619Y-57066785D02*
X134997619Y-56733452D01*
X135997619Y-56400119D01*
X116378571Y-58914404D02*
X116378571Y-58152500D01*
X115997619Y-58533452D02*
X116759523Y-58533452D01*
X116997619Y-57200119D02*
X116997619Y-57676309D01*
X116521428Y-57723928D01*
X116569047Y-57676309D01*
X116616666Y-57581071D01*
X116616666Y-57342976D01*
X116569047Y-57247738D01*
X116521428Y-57200119D01*
X116426190Y-57152500D01*
X116188095Y-57152500D01*
X116092857Y-57200119D01*
X116045238Y-57247738D01*
X115997619Y-57342976D01*
X115997619Y-57581071D01*
X116045238Y-57676309D01*
X116092857Y-57723928D01*
X116997619Y-56866785D02*
X115997619Y-56533452D01*
X116997619Y-56200119D01*
X137950000Y-58490595D02*
X137997619Y-58585833D01*
X137997619Y-58728690D01*
X137950000Y-58871547D01*
X137854761Y-58966785D01*
X137759523Y-59014404D01*
X137569047Y-59062023D01*
X137426190Y-59062023D01*
X137235714Y-59014404D01*
X137140476Y-58966785D01*
X137045238Y-58871547D01*
X136997619Y-58728690D01*
X136997619Y-58633452D01*
X137045238Y-58490595D01*
X137092857Y-58442976D01*
X137426190Y-58442976D01*
X137426190Y-58633452D01*
X136997619Y-58014404D02*
X137997619Y-58014404D01*
X136997619Y-57442976D01*
X137997619Y-57442976D01*
X136997619Y-56966785D02*
X137997619Y-56966785D01*
X137997619Y-56728690D01*
X137950000Y-56585833D01*
X137854761Y-56490595D01*
X137759523Y-56442976D01*
X137569047Y-56395357D01*
X137426190Y-56395357D01*
X137235714Y-56442976D01*
X137140476Y-56490595D01*
X137045238Y-56585833D01*
X136997619Y-56728690D01*
X136997619Y-56966785D01*
X112047619Y-58292976D02*
X112523809Y-58626309D01*
X112047619Y-58864404D02*
X113047619Y-58864404D01*
X113047619Y-58483452D01*
X113000000Y-58388214D01*
X112952380Y-58340595D01*
X112857142Y-58292976D01*
X112714285Y-58292976D01*
X112619047Y-58340595D01*
X112571428Y-58388214D01*
X112523809Y-58483452D01*
X112523809Y-58864404D01*
X113047619Y-57959642D02*
X112047619Y-57292976D01*
X113047619Y-57292976D02*
X112047619Y-57959642D01*
X133950000Y-58340595D02*
X133997619Y-58435833D01*
X133997619Y-58578690D01*
X133950000Y-58721547D01*
X133854761Y-58816785D01*
X133759523Y-58864404D01*
X133569047Y-58912023D01*
X133426190Y-58912023D01*
X133235714Y-58864404D01*
X133140476Y-58816785D01*
X133045238Y-58721547D01*
X132997619Y-58578690D01*
X132997619Y-58483452D01*
X133045238Y-58340595D01*
X133092857Y-58292976D01*
X133426190Y-58292976D01*
X133426190Y-58483452D01*
X133902380Y-57912023D02*
X133950000Y-57864404D01*
X133997619Y-57769166D01*
X133997619Y-57531071D01*
X133950000Y-57435833D01*
X133902380Y-57388214D01*
X133807142Y-57340595D01*
X133711904Y-57340595D01*
X133569047Y-57388214D01*
X132997619Y-57959642D01*
X132997619Y-57340595D01*
X133997619Y-56483452D02*
X133997619Y-56673928D01*
X133950000Y-56769166D01*
X133902380Y-56816785D01*
X133759523Y-56912023D01*
X133569047Y-56959642D01*
X133188095Y-56959642D01*
X133092857Y-56912023D01*
X133045238Y-56864404D01*
X132997619Y-56769166D01*
X132997619Y-56578690D01*
X133045238Y-56483452D01*
X133092857Y-56435833D01*
X133188095Y-56388214D01*
X133426190Y-56388214D01*
X133521428Y-56435833D01*
X133569047Y-56483452D01*
X133616666Y-56578690D01*
X133616666Y-56769166D01*
X133569047Y-56864404D01*
X133521428Y-56912023D01*
X133426190Y-56959642D01*
X135600000Y-51500000D02*
X135695238Y-51452380D01*
X135838095Y-51452380D01*
X135980952Y-51500000D01*
X136076190Y-51595238D01*
X136123809Y-51690476D01*
X136171428Y-51880952D01*
X136171428Y-52023809D01*
X136123809Y-52214285D01*
X136076190Y-52309523D01*
X135980952Y-52404761D01*
X135838095Y-52452380D01*
X135742857Y-52452380D01*
X135600000Y-52404761D01*
X135552380Y-52357142D01*
X135552380Y-52023809D01*
X135742857Y-52023809D01*
X135123809Y-52452380D02*
X135123809Y-51452380D01*
X134742857Y-51452380D01*
X134647619Y-51500000D01*
X134600000Y-51547619D01*
X134552380Y-51642857D01*
X134552380Y-51785714D01*
X134600000Y-51880952D01*
X134647619Y-51928571D01*
X134742857Y-51976190D01*
X135123809Y-51976190D01*
X134123809Y-52452380D02*
X134123809Y-51452380D01*
X133457142Y-51452380D02*
X133266666Y-51452380D01*
X133171428Y-51500000D01*
X133076190Y-51595238D01*
X133028571Y-51785714D01*
X133028571Y-52119047D01*
X133076190Y-52309523D01*
X133171428Y-52404761D01*
X133266666Y-52452380D01*
X133457142Y-52452380D01*
X133552380Y-52404761D01*
X133647619Y-52309523D01*
X133695238Y-52119047D01*
X133695238Y-51785714D01*
X133647619Y-51595238D01*
X133552380Y-51500000D01*
X133457142Y-51452380D01*
X119050000Y-58240595D02*
X119097619Y-58335833D01*
X119097619Y-58478690D01*
X119050000Y-58621547D01*
X118954761Y-58716785D01*
X118859523Y-58764404D01*
X118669047Y-58812023D01*
X118526190Y-58812023D01*
X118335714Y-58764404D01*
X118240476Y-58716785D01*
X118145238Y-58621547D01*
X118097619Y-58478690D01*
X118097619Y-58383452D01*
X118145238Y-58240595D01*
X118192857Y-58192976D01*
X118526190Y-58192976D01*
X118526190Y-58383452D01*
X118097619Y-57764404D02*
X119097619Y-57764404D01*
X118097619Y-57192976D01*
X119097619Y-57192976D01*
X118097619Y-56716785D02*
X119097619Y-56716785D01*
X119097619Y-56478690D01*
X119050000Y-56335833D01*
X118954761Y-56240595D01*
X118859523Y-56192976D01*
X118669047Y-56145357D01*
X118526190Y-56145357D01*
X118335714Y-56192976D01*
X118240476Y-56240595D01*
X118145238Y-56335833D01*
X118097619Y-56478690D01*
X118097619Y-56716785D01*
X114997619Y-58807261D02*
X114997619Y-58235833D01*
X113997619Y-58521547D02*
X114997619Y-58521547D01*
X114997619Y-57997738D02*
X113997619Y-57331071D01*
X114997619Y-57331071D02*
X113997619Y-57997738D01*
D12*
X144642857Y-94776857D02*
X144642857Y-93976857D01*
X144642857Y-94091142D02*
X144585714Y-94034000D01*
X144471428Y-93976857D01*
X144300000Y-93976857D01*
X144185714Y-94034000D01*
X144128571Y-94148285D01*
X144128571Y-94776857D01*
X144128571Y-94148285D02*
X144071428Y-94034000D01*
X143957142Y-93976857D01*
X143785714Y-93976857D01*
X143671428Y-94034000D01*
X143614285Y-94148285D01*
X143614285Y-94776857D01*
X142471428Y-93576857D02*
X143042857Y-93576857D01*
X143100000Y-94148285D01*
X143042857Y-94091142D01*
X142928571Y-94034000D01*
X142642857Y-94034000D01*
X142528571Y-94091142D01*
X142471428Y-94148285D01*
X142414285Y-94262571D01*
X142414285Y-94548285D01*
X142471428Y-94662571D01*
X142528571Y-94719714D01*
X142642857Y-94776857D01*
X142928571Y-94776857D01*
X143042857Y-94719714D01*
X143100000Y-94662571D01*
X141900000Y-94319714D02*
X140985714Y-94319714D01*
X140414285Y-93976857D02*
X140414285Y-95176857D01*
X140414285Y-94034000D02*
X140300000Y-93976857D01*
X140071428Y-93976857D01*
X139957142Y-94034000D01*
X139900000Y-94091142D01*
X139842857Y-94205428D01*
X139842857Y-94548285D01*
X139900000Y-94662571D01*
X139957142Y-94719714D01*
X140071428Y-94776857D01*
X140300000Y-94776857D01*
X140414285Y-94719714D01*
X138814285Y-94776857D02*
X138814285Y-94148285D01*
X138871428Y-94034000D01*
X138985714Y-93976857D01*
X139214285Y-93976857D01*
X139328571Y-94034000D01*
X138814285Y-94719714D02*
X138928571Y-94776857D01*
X139214285Y-94776857D01*
X139328571Y-94719714D01*
X139385714Y-94605428D01*
X139385714Y-94491142D01*
X139328571Y-94376857D01*
X139214285Y-94319714D01*
X138928571Y-94319714D01*
X138814285Y-94262571D01*
X138242857Y-93976857D02*
X138242857Y-94776857D01*
X138242857Y-94091142D02*
X138185714Y-94034000D01*
X138071428Y-93976857D01*
X137900000Y-93976857D01*
X137785714Y-94034000D01*
X137728571Y-94148285D01*
X137728571Y-94776857D01*
X137328571Y-93976857D02*
X136871428Y-93976857D01*
X137157142Y-93576857D02*
X137157142Y-94605428D01*
X137100000Y-94719714D01*
X136985714Y-94776857D01*
X136871428Y-94776857D01*
X136471428Y-94776857D02*
X136471428Y-93976857D01*
X136471428Y-93576857D02*
X136528571Y-93634000D01*
X136471428Y-93691142D01*
X136414285Y-93634000D01*
X136471428Y-93576857D01*
X136471428Y-93691142D01*
X135728571Y-94776857D02*
X135842857Y-94719714D01*
X135900000Y-94605428D01*
X135900000Y-93576857D01*
X135442857Y-93976857D02*
X134985714Y-93976857D01*
X135271428Y-93576857D02*
X135271428Y-94605428D01*
X135214285Y-94719714D01*
X135100000Y-94776857D01*
X134985714Y-94776857D01*
X133671428Y-94776857D02*
X133671428Y-93576857D01*
X133671428Y-94034000D02*
X133557142Y-93976857D01*
X133328571Y-93976857D01*
X133214285Y-94034000D01*
X133157142Y-94091142D01*
X133100000Y-94205428D01*
X133100000Y-94548285D01*
X133157142Y-94662571D01*
X133214285Y-94719714D01*
X133328571Y-94776857D01*
X133557142Y-94776857D01*
X133671428Y-94719714D01*
X132414285Y-94776857D02*
X132528571Y-94719714D01*
X132585714Y-94662571D01*
X132642857Y-94548285D01*
X132642857Y-94205428D01*
X132585714Y-94091142D01*
X132528571Y-94034000D01*
X132414285Y-93976857D01*
X132242857Y-93976857D01*
X132128571Y-94034000D01*
X132071428Y-94091142D01*
X132014285Y-94205428D01*
X132014285Y-94548285D01*
X132071428Y-94662571D01*
X132128571Y-94719714D01*
X132242857Y-94776857D01*
X132414285Y-94776857D01*
X130985714Y-94776857D02*
X130985714Y-94148285D01*
X131042857Y-94034000D01*
X131157142Y-93976857D01*
X131385714Y-93976857D01*
X131500000Y-94034000D01*
X130985714Y-94719714D02*
X131100000Y-94776857D01*
X131385714Y-94776857D01*
X131500000Y-94719714D01*
X131557142Y-94605428D01*
X131557142Y-94491142D01*
X131500000Y-94376857D01*
X131385714Y-94319714D01*
X131100000Y-94319714D01*
X130985714Y-94262571D01*
X130414285Y-94776857D02*
X130414285Y-93976857D01*
X130414285Y-94205428D02*
X130357142Y-94091142D01*
X130300000Y-94034000D01*
X130185714Y-93976857D01*
X130071428Y-93976857D01*
X129157142Y-94776857D02*
X129157142Y-93576857D01*
X129157142Y-94719714D02*
X129271428Y-94776857D01*
X129500000Y-94776857D01*
X129614285Y-94719714D01*
X129671428Y-94662571D01*
X129728571Y-94548285D01*
X129728571Y-94205428D01*
X129671428Y-94091142D01*
X129614285Y-94034000D01*
X129500000Y-93976857D01*
X129271428Y-93976857D01*
X129157142Y-94034000D01*
X127785714Y-93976857D02*
X127500000Y-94776857D01*
X127214285Y-93976857D01*
X126528571Y-93576857D02*
X126414285Y-93576857D01*
X126300000Y-93634000D01*
X126242857Y-93691142D01*
X126185714Y-93805428D01*
X126128571Y-94034000D01*
X126128571Y-94319714D01*
X126185714Y-94548285D01*
X126242857Y-94662571D01*
X126300000Y-94719714D01*
X126414285Y-94776857D01*
X126528571Y-94776857D01*
X126642857Y-94719714D01*
X126700000Y-94662571D01*
X126757142Y-94548285D01*
X126814285Y-94319714D01*
X126814285Y-94034000D01*
X126757142Y-93805428D01*
X126700000Y-93691142D01*
X126642857Y-93634000D01*
X126528571Y-93576857D01*
X125614285Y-94662571D02*
X125557142Y-94719714D01*
X125614285Y-94776857D01*
X125671428Y-94719714D01*
X125614285Y-94662571D01*
X125614285Y-94776857D01*
X125100000Y-93691142D02*
X125042857Y-93634000D01*
X124928571Y-93576857D01*
X124642857Y-93576857D01*
X124528571Y-93634000D01*
X124471428Y-93691142D01*
X124414285Y-93805428D01*
X124414285Y-93919714D01*
X124471428Y-94091142D01*
X125157142Y-94776857D01*
X124414285Y-94776857D01*
X123900000Y-94662571D02*
X123842857Y-94719714D01*
X123900000Y-94776857D01*
X123957142Y-94719714D01*
X123900000Y-94662571D01*
X123900000Y-94776857D01*
X122700000Y-94776857D02*
X123385714Y-94776857D01*
X123042857Y-94776857D02*
X123042857Y-93576857D01*
X123157142Y-93748285D01*
X123271428Y-93862571D01*
X123385714Y-93919714D01*
X139414285Y-96137428D02*
X139471428Y-96080285D01*
X139585714Y-96023142D01*
X139700000Y-96023142D01*
X139814285Y-96080285D01*
X139871428Y-96137428D01*
X139928571Y-96251714D01*
X139928571Y-96366000D01*
X139871428Y-96480285D01*
X139814285Y-96537428D01*
X139700000Y-96594571D01*
X139585714Y-96594571D01*
X139471428Y-96537428D01*
X139414285Y-96480285D01*
X139414285Y-96023142D02*
X139414285Y-96480285D01*
X139357142Y-96537428D01*
X139300000Y-96537428D01*
X139185714Y-96480285D01*
X139128571Y-96366000D01*
X139128571Y-96080285D01*
X139242857Y-95908857D01*
X139414285Y-95794571D01*
X139642857Y-95737428D01*
X139871428Y-95794571D01*
X140042857Y-95908857D01*
X140157142Y-96080285D01*
X140214285Y-96308857D01*
X140157142Y-96537428D01*
X140042857Y-96708857D01*
X139871428Y-96823142D01*
X139642857Y-96880285D01*
X139414285Y-96823142D01*
X139242857Y-96708857D01*
X138614285Y-96708857D02*
X138614285Y-95908857D01*
X138614285Y-96023142D02*
X138557142Y-95966000D01*
X138442857Y-95908857D01*
X138271428Y-95908857D01*
X138157142Y-95966000D01*
X138100000Y-96080285D01*
X138100000Y-96708857D01*
X138100000Y-96080285D02*
X138042857Y-95966000D01*
X137928571Y-95908857D01*
X137757142Y-95908857D01*
X137642857Y-95966000D01*
X137585714Y-96080285D01*
X137585714Y-96708857D01*
X136557142Y-96651714D02*
X136671428Y-96708857D01*
X136900000Y-96708857D01*
X137014285Y-96651714D01*
X137071428Y-96537428D01*
X137071428Y-96080285D01*
X137014285Y-95966000D01*
X136900000Y-95908857D01*
X136671428Y-95908857D01*
X136557142Y-95966000D01*
X136500000Y-96080285D01*
X136500000Y-96194571D01*
X137071428Y-96308857D01*
X135471428Y-95908857D02*
X135471428Y-96880285D01*
X135528571Y-96994571D01*
X135585714Y-97051714D01*
X135700000Y-97108857D01*
X135871428Y-97108857D01*
X135985714Y-97051714D01*
X135471428Y-96651714D02*
X135585714Y-96708857D01*
X135814285Y-96708857D01*
X135928571Y-96651714D01*
X135985714Y-96594571D01*
X136042857Y-96480285D01*
X136042857Y-96137428D01*
X135985714Y-96023142D01*
X135928571Y-95966000D01*
X135814285Y-95908857D01*
X135585714Y-95908857D01*
X135471428Y-95966000D01*
X134385714Y-96708857D02*
X134385714Y-96080285D01*
X134442857Y-95966000D01*
X134557142Y-95908857D01*
X134785714Y-95908857D01*
X134900000Y-95966000D01*
X134385714Y-96651714D02*
X134500000Y-96708857D01*
X134785714Y-96708857D01*
X134900000Y-96651714D01*
X134957142Y-96537428D01*
X134957142Y-96423142D01*
X134900000Y-96308857D01*
X134785714Y-96251714D01*
X134500000Y-96251714D01*
X134385714Y-96194571D01*
X133814285Y-95908857D02*
X133814285Y-96708857D01*
X133814285Y-96023142D02*
X133757142Y-95966000D01*
X133642857Y-95908857D01*
X133471428Y-95908857D01*
X133357142Y-95966000D01*
X133300000Y-96080285D01*
X133300000Y-96708857D01*
X132271428Y-96651714D02*
X132385714Y-96708857D01*
X132614285Y-96708857D01*
X132728571Y-96651714D01*
X132785714Y-96537428D01*
X132785714Y-96080285D01*
X132728571Y-95966000D01*
X132614285Y-95908857D01*
X132385714Y-95908857D01*
X132271428Y-95966000D01*
X132214285Y-96080285D01*
X132214285Y-96194571D01*
X132785714Y-96308857D01*
X131871428Y-95908857D02*
X131414285Y-95908857D01*
X131700000Y-95508857D02*
X131700000Y-96537428D01*
X131642857Y-96651714D01*
X131528571Y-96708857D01*
X131414285Y-96708857D01*
X130500000Y-96708857D02*
X130500000Y-96080285D01*
X130557142Y-95966000D01*
X130671428Y-95908857D01*
X130900000Y-95908857D01*
X131014285Y-95966000D01*
X130500000Y-96651714D02*
X130614285Y-96708857D01*
X130900000Y-96708857D01*
X131014285Y-96651714D01*
X131071428Y-96537428D01*
X131071428Y-96423142D01*
X131014285Y-96308857D01*
X130900000Y-96251714D01*
X130614285Y-96251714D01*
X130500000Y-96194571D01*
X129414285Y-96708857D02*
X129414285Y-96080285D01*
X129471428Y-95966000D01*
X129585714Y-95908857D01*
X129814285Y-95908857D01*
X129928571Y-95966000D01*
X129414285Y-96651714D02*
X129528571Y-96708857D01*
X129814285Y-96708857D01*
X129928571Y-96651714D01*
X129985714Y-96537428D01*
X129985714Y-96423142D01*
X129928571Y-96308857D01*
X129814285Y-96251714D01*
X129528571Y-96251714D01*
X129414285Y-96194571D01*
X128328571Y-96708857D02*
X128328571Y-96080285D01*
X128385714Y-95966000D01*
X128500000Y-95908857D01*
X128728571Y-95908857D01*
X128842857Y-95966000D01*
X128328571Y-96651714D02*
X128442857Y-96708857D01*
X128728571Y-96708857D01*
X128842857Y-96651714D01*
X128900000Y-96537428D01*
X128900000Y-96423142D01*
X128842857Y-96308857D01*
X128728571Y-96251714D01*
X128442857Y-96251714D01*
X128328571Y-96194571D01*
X127757142Y-95908857D02*
X127757142Y-96708857D01*
X127757142Y-96023142D02*
X127700000Y-95966000D01*
X127585714Y-95908857D01*
X127414285Y-95908857D01*
X127300000Y-95966000D01*
X127242857Y-96080285D01*
X127242857Y-96708857D01*
D11*
X132000000Y-58340595D02*
X132047619Y-58435833D01*
X132047619Y-58578690D01*
X132000000Y-58721547D01*
X131904761Y-58816785D01*
X131809523Y-58864404D01*
X131619047Y-58912023D01*
X131476190Y-58912023D01*
X131285714Y-58864404D01*
X131190476Y-58816785D01*
X131095238Y-58721547D01*
X131047619Y-58578690D01*
X131047619Y-58483452D01*
X131095238Y-58340595D01*
X131142857Y-58292976D01*
X131476190Y-58292976D01*
X131476190Y-58483452D01*
X132047619Y-57959642D02*
X132047619Y-57340595D01*
X131666666Y-57673928D01*
X131666666Y-57531071D01*
X131619047Y-57435833D01*
X131571428Y-57388214D01*
X131476190Y-57340595D01*
X131238095Y-57340595D01*
X131142857Y-57388214D01*
X131095238Y-57435833D01*
X131047619Y-57531071D01*
X131047619Y-57816785D01*
X131095238Y-57912023D01*
X131142857Y-57959642D01*
X132047619Y-56483452D02*
X132047619Y-56673928D01*
X132000000Y-56769166D01*
X131952380Y-56816785D01*
X131809523Y-56912023D01*
X131619047Y-56959642D01*
X131238095Y-56959642D01*
X131142857Y-56912023D01*
X131095238Y-56864404D01*
X131047619Y-56769166D01*
X131047619Y-56578690D01*
X131095238Y-56483452D01*
X131142857Y-56435833D01*
X131238095Y-56388214D01*
X131476190Y-56388214D01*
X131571428Y-56435833D01*
X131619047Y-56483452D01*
X131666666Y-56578690D01*
X131666666Y-56769166D01*
X131619047Y-56864404D01*
X131571428Y-56912023D01*
X131476190Y-56959642D01*
X111152380Y-75361904D02*
X110695238Y-75361904D01*
X110923809Y-76161904D02*
X110923809Y-75361904D01*
X110504761Y-76161904D02*
X110085714Y-75628571D01*
X110504761Y-75628571D02*
X110085714Y-76161904D01*
X110493333Y-54951580D02*
X110493333Y-55665866D01*
X110540952Y-55808723D01*
X110636190Y-55903961D01*
X110779047Y-55951580D01*
X110874285Y-55951580D01*
X109493333Y-55951580D02*
X110064761Y-55951580D01*
X109779047Y-55951580D02*
X109779047Y-54951580D01*
X109874285Y-55094438D01*
X109969523Y-55189676D01*
X110064761Y-55237295D01*
D13*
X103600000Y-57980000D02*
X103600000Y-59000000D01*
X108800000Y-55890000D02*
X108800000Y-56460000D01*
X108800000Y-55890000D02*
X103600000Y-55890000D01*
X108800000Y-75760000D02*
X108800000Y-76780000D01*
X103600000Y-93540000D02*
X103600000Y-94110000D01*
X108800000Y-80840000D02*
X108800000Y-81860000D01*
X103600000Y-83380000D02*
X103600000Y-84400000D01*
X108800000Y-65600000D02*
X108800000Y-66620000D01*
X103600000Y-78300000D02*
X103600000Y-79320000D01*
X103600000Y-85920000D02*
X103600000Y-86940000D01*
X103600000Y-91000000D02*
X103600000Y-92020000D01*
X108800000Y-68140000D02*
X108800000Y-69160000D01*
X103600000Y-75760000D02*
X103600000Y-76780000D01*
X110240000Y-56460000D02*
X108800000Y-56460000D01*
X103600000Y-63060000D02*
X103600000Y-64080000D01*
X108800000Y-78300000D02*
X108800000Y-79320000D01*
X108800000Y-88460000D02*
X108800000Y-89480000D01*
X103600000Y-88460000D02*
X103600000Y-89480000D01*
X108800000Y-60520000D02*
X108800000Y-61540000D01*
X108800000Y-91000000D02*
X108800000Y-92020000D01*
X103600000Y-65600000D02*
X103600000Y-66620000D01*
X103600000Y-70680000D02*
X103600000Y-71700000D01*
X108800000Y-83380000D02*
X108800000Y-84400000D01*
X103600000Y-55890000D02*
X103600000Y-56460000D01*
X108800000Y-94110000D02*
X103600000Y-94110000D01*
X103600000Y-73220000D02*
X103600000Y-74240000D01*
X108800000Y-73220000D02*
X108800000Y-74240000D01*
X108800000Y-85920000D02*
X108800000Y-86940000D01*
X103600000Y-68140000D02*
X103600000Y-69160000D01*
X108800000Y-93540000D02*
X108800000Y-94110000D01*
X103600000Y-80840000D02*
X103600000Y-81860000D01*
X108800000Y-57980000D02*
X108800000Y-59000000D01*
X103600000Y-60520000D02*
X103600000Y-61540000D01*
X108800000Y-63060000D02*
X108800000Y-64080000D01*
X108800000Y-70680000D02*
X108800000Y-71700000D01*
D14*
X125464797Y-77012686D02*
X125373890Y-77014597D01*
X125373890Y-77014597D02*
X123923781Y-77052403D01*
X123923781Y-77052403D02*
X122923717Y-77102453D01*
X122923717Y-77102453D02*
X122289007Y-77177408D01*
X122289007Y-77177408D02*
X121934958Y-77289927D01*
X121934958Y-77289927D02*
X121776879Y-77452672D01*
X121776879Y-77452672D02*
X121744812Y-77557094D01*
X121744812Y-77557094D02*
X121750636Y-77745167D01*
X121750636Y-77745167D02*
X121906180Y-77875074D01*
X121906180Y-77875074D02*
X122291558Y-77957406D01*
X122291558Y-77957406D02*
X122986885Y-78002754D01*
X122986885Y-78002754D02*
X124072278Y-78021710D01*
X124072278Y-78021710D02*
X125284143Y-78024989D01*
X125284143Y-78024989D02*
X126738653Y-78020964D01*
X126738653Y-78020964D02*
X127741948Y-78000565D01*
X127741948Y-78000565D02*
X128377533Y-77951311D01*
X128377533Y-77951311D02*
X128728916Y-77860717D01*
X128728916Y-77860717D02*
X128879603Y-77716301D01*
X128879603Y-77716301D02*
X128913101Y-77505579D01*
X128913101Y-77505579D02*
X128913221Y-77482492D01*
X128913221Y-77482492D02*
X128887922Y-77263412D01*
X128887922Y-77263412D02*
X128755633Y-77115554D01*
X128755633Y-77115554D02*
X128431764Y-77027735D01*
X128431764Y-77027735D02*
X127831728Y-76988773D01*
X127831728Y-76988773D02*
X126870936Y-76987484D01*
X126870936Y-76987484D02*
X125464797Y-77012686D01*
X125464797Y-77012686D02*
X125464797Y-77012686D01*
G36*
X127831728Y-76988773D02*
G01*
X128431764Y-77027735D01*
X128755633Y-77115554D01*
X128887922Y-77263412D01*
X128913221Y-77482492D01*
X128913101Y-77505579D01*
X128879603Y-77716301D01*
X128728916Y-77860717D01*
X128377533Y-77951311D01*
X127741948Y-78000565D01*
X126738653Y-78020964D01*
X125284143Y-78024989D01*
X124072278Y-78021710D01*
X122986885Y-78002754D01*
X122291558Y-77957406D01*
X121906180Y-77875074D01*
X121750636Y-77745167D01*
X121744812Y-77557094D01*
X121776879Y-77452672D01*
X121934958Y-77289927D01*
X122289007Y-77177408D01*
X122923717Y-77102453D01*
X123923781Y-77052403D01*
X125373890Y-77014597D01*
X125464797Y-77012686D01*
X126870936Y-76987484D01*
X127831728Y-76988773D01*
G37*
X127831728Y-76988773D02*
X128431764Y-77027735D01*
X128755633Y-77115554D01*
X128887922Y-77263412D01*
X128913221Y-77482492D01*
X128913101Y-77505579D01*
X128879603Y-77716301D01*
X128728916Y-77860717D01*
X128377533Y-77951311D01*
X127741948Y-78000565D01*
X126738653Y-78020964D01*
X125284143Y-78024989D01*
X124072278Y-78021710D01*
X122986885Y-78002754D01*
X122291558Y-77957406D01*
X121906180Y-77875074D01*
X121750636Y-77745167D01*
X121744812Y-77557094D01*
X121776879Y-77452672D01*
X121934958Y-77289927D01*
X122289007Y-77177408D01*
X122923717Y-77102453D01*
X123923781Y-77052403D01*
X125373890Y-77014597D01*
X125464797Y-77012686D01*
X126870936Y-76987484D01*
X127831728Y-76988773D01*
X132277738Y-71589547D02*
X131914605Y-72132104D01*
X131914605Y-72132104D02*
X131933362Y-72694573D01*
X131933362Y-72694573D02*
X132239118Y-73137436D01*
X132239118Y-73137436D02*
X132736981Y-73321172D01*
X132736981Y-73321172D02*
X133316939Y-73117483D01*
X133316939Y-73117483D02*
X133661645Y-72592955D01*
X133661645Y-72592955D02*
X133574801Y-71980693D01*
X133574801Y-71980693D02*
X133146685Y-71518625D01*
X133146685Y-71518625D02*
X132620489Y-71396637D01*
X132620489Y-71396637D02*
X132277738Y-71589547D01*
X132277738Y-71589547D02*
X132277738Y-71589547D01*
G36*
X133146685Y-71518625D02*
G01*
X133574801Y-71980693D01*
X133661645Y-72592955D01*
X133316939Y-73117483D01*
X132736981Y-73321172D01*
X132239118Y-73137436D01*
X131933362Y-72694573D01*
X131914605Y-72132104D01*
X132277738Y-71589547D01*
X132620489Y-71396637D01*
X133146685Y-71518625D01*
G37*
X133146685Y-71518625D02*
X133574801Y-71980693D01*
X133661645Y-72592955D01*
X133316939Y-73117483D01*
X132736981Y-73321172D01*
X132239118Y-73137436D01*
X131933362Y-72694573D01*
X131914605Y-72132104D01*
X132277738Y-71589547D01*
X132620489Y-71396637D01*
X133146685Y-71518625D01*
X118130009Y-71633164D02*
X117870862Y-71906016D01*
X117870862Y-71906016D02*
X117710943Y-72538370D01*
X117710943Y-72538370D02*
X117997754Y-73024905D01*
X117997754Y-73024905D02*
X118619537Y-73212357D01*
X118619537Y-73212357D02*
X119211704Y-73055476D01*
X119211704Y-73055476D02*
X119472584Y-72774963D01*
X119472584Y-72774963D02*
X119497827Y-72161358D01*
X119497827Y-72161358D02*
X119173307Y-71707297D01*
X119173307Y-71707297D02*
X118662782Y-71501619D01*
X118662782Y-71501619D02*
X118130009Y-71633164D01*
X118130009Y-71633164D02*
X118130009Y-71633164D01*
G36*
X119173307Y-71707297D02*
G01*
X119497827Y-72161358D01*
X119472584Y-72774963D01*
X119211704Y-73055476D01*
X118619537Y-73212357D01*
X117997754Y-73024905D01*
X117710943Y-72538370D01*
X117870862Y-71906016D01*
X118130009Y-71633164D01*
X118662782Y-71501619D01*
X119173307Y-71707297D01*
G37*
X119173307Y-71707297D02*
X119497827Y-72161358D01*
X119472584Y-72774963D01*
X119211704Y-73055476D01*
X118619537Y-73212357D01*
X117997754Y-73024905D01*
X117710943Y-72538370D01*
X117870862Y-71906016D01*
X118130009Y-71633164D01*
X118662782Y-71501619D01*
X119173307Y-71707297D01*
D11*
X148100000Y-56800000D02*
X148100000Y-59000000D01*
X148100000Y-63100000D02*
X148100000Y-65400000D01*
X143500000Y-56800000D02*
X143500000Y-65400000D01*
M02*
