M48
; DRILL file {KiCad 5.1.5+dfsg1-2build2} date Sat 08 Jan 2022 16:32:42 JST
; FORMAT={3:3/ absolute / metric / suppress leading zeros}
; #@! TF.CreationDate,2022-01-08T16:32:42+09:00
; #@! TF.GenerationSoftware,Kicad,Pcbnew,5.1.5+dfsg1-2build2
FMAT,2
METRIC,TZ
T1C0.300
T2C0.750
T3C0.900
T4C1.000
T5C1.500
T6C2.000
T7C3.000
%
G90
G05
T1
X101000Y-61000
X101000Y-66000
X101000Y-71000
X101000Y-76000
X101000Y-81000
X101000Y-86000
X101000Y-89000
X101500Y-55000
X101500Y-95000
X104623Y-88976
X106198Y-82322
X106248Y-75565
X107772Y-61062
X107823Y-89002
X108000Y-51500
X108000Y-98500
X109000Y-94600
X109144Y-66091
X109200Y-78600
X109600Y-76300
X110600Y-93926
X110800Y-70800
X110888Y-73585
X110922Y-64313
X111000Y-99000
X111024Y-66726
X111300Y-69900
X111300Y-84100
X111328Y-88976
X111500Y-74200
X112000Y-92500
X112065Y-60757
X112548Y-68809
X112852Y-79934
X113335Y-62002
X113900Y-70800
X114000Y-51000
X114834Y-58725
X115600Y-92800
X116000Y-99000
X116100Y-65200
X116400Y-72200
X116500Y-80800
X117272Y-62560
X118085Y-63373
X118339Y-71298
X118388Y-76478
X119000Y-51000
X119101Y-58903
X119101Y-61265
X119380Y-63449
X121000Y-74905
X121000Y-99000
X121209Y-80950
X121234Y-78359
X121600Y-69600
X121600Y-89400
X123495Y-75235
X124000Y-51000
X125019Y-66218
X125400Y-77775
X126000Y-99000
X126670Y-79721
X126800Y-78000
X127051Y-58852
X127051Y-61265
X127400Y-83800
X127500Y-81585
X127584Y-95885
X127600Y-73000
X127635Y-64999
X127635Y-79100
X127686Y-68758
X127800Y-87600
X129000Y-51000
X130000Y-56250
X130277Y-63627
X130277Y-76734
X130378Y-84709
X130400Y-80600
X130429Y-71323
X130480Y-94768
X131000Y-99000
X134000Y-51000
X134176Y-78724
X135900Y-84800
X136000Y-99000
X136678Y-87706
X137440Y-92990
X139000Y-51000
X139726Y-87757
X142000Y-51500
X142000Y-98500
X142700Y-77200
X143332Y-62154
X143840Y-70079
X145872Y-88011
X146228Y-77140
X146228Y-83236
X148500Y-55500
X148500Y-94500
X149000Y-63000
X149000Y-68000
X149000Y-74000
X149000Y-79000
X149000Y-84000
X149000Y-89000
T2
X140060Y-89400
X142060Y-89400
X114000Y-55000
X116000Y-55000
X118000Y-55000
X120000Y-55000
X127000Y-55000
X129000Y-55000
X131000Y-55000
X133000Y-55000
T3
X145800Y-61000
X145800Y-63000
X145800Y-65000
T4
X113700Y-92200
X113700Y-94700
X137846Y-73076
X137846Y-75616
X140386Y-73076
X140386Y-75616
X142926Y-73076
X142926Y-75616
X137846Y-80696
X137846Y-83236
X140386Y-80696
X140386Y-83236
X142926Y-80696
X142926Y-83236
T5
X145800Y-58900
X145800Y-67100
T6
X142700Y-53150
X142700Y-96850
X107300Y-96850
X107300Y-53150
T7
X103150Y-96850
X146850Y-53150
X103150Y-53150
X146850Y-96850
T0
M30
