G04 #@! TF.GenerationSoftware,KiCad,Pcbnew,(5.1.5)-3*
G04 #@! TF.CreationDate,2021-12-22T01:00:50+09:00*
G04 #@! TF.ProjectId,m5-pantilt,6d352d70-616e-4746-996c-742e6b696361,1*
G04 #@! TF.SameCoordinates,PX5f5e100PY5f5e100*
G04 #@! TF.FileFunction,Copper,L2,Bot*
G04 #@! TF.FilePolarity,Positive*
%FSLAX46Y46*%
G04 Gerber Fmt 4.6, Leading zero omitted, Abs format (unit mm)*
G04 Created by KiCad (PCBNEW (5.1.5)-3) date 2021-12-22 01:00:50*
%MOMM*%
%LPD*%
G04 APERTURE LIST*
%ADD10O,1.700000X1.700000*%
%ADD11R,1.700000X1.700000*%
%ADD12O,1.200000X1.750000*%
%ADD13C,0.152000*%
%ADD14R,3.150000X1.000000*%
%ADD15C,1.600000*%
%ADD16C,1.700000*%
%ADD17C,2.000000*%
%ADD18R,1.800000X3.500000*%
%ADD19R,1.000000X1.500000*%
%ADD20O,2.000000X1.700000*%
%ADD21C,0.600000*%
%ADD22C,1.000000*%
%ADD23C,1.200000*%
%ADD24C,0.200000*%
%ADD25C,1.600000*%
%ADD26C,0.254000*%
G04 APERTURE END LIST*
D10*
X42926000Y19304000D03*
X42926000Y16764000D03*
X40386000Y19304000D03*
X40386000Y16764000D03*
X37846000Y19304000D03*
D11*
X37846000Y16764000D03*
D12*
X27000000Y45000000D03*
X29000000Y45000000D03*
X31000000Y45000000D03*
G04 #@! TA.AperFunction,ComponentPad*
D13*
G36*
X33374505Y45873796D02*
G01*
X33398773Y45870196D01*
X33422572Y45864235D01*
X33445671Y45855970D01*
X33467850Y45845480D01*
X33488893Y45832868D01*
X33508599Y45818253D01*
X33526777Y45801777D01*
X33543253Y45783599D01*
X33557868Y45763893D01*
X33570480Y45742850D01*
X33580970Y45720671D01*
X33589235Y45697572D01*
X33595196Y45673773D01*
X33598796Y45649505D01*
X33600000Y45625001D01*
X33600000Y44374999D01*
X33598796Y44350495D01*
X33595196Y44326227D01*
X33589235Y44302428D01*
X33580970Y44279329D01*
X33570480Y44257150D01*
X33557868Y44236107D01*
X33543253Y44216401D01*
X33526777Y44198223D01*
X33508599Y44181747D01*
X33488893Y44167132D01*
X33467850Y44154520D01*
X33445671Y44144030D01*
X33422572Y44135765D01*
X33398773Y44129804D01*
X33374505Y44126204D01*
X33350001Y44125000D01*
X32649999Y44125000D01*
X32625495Y44126204D01*
X32601227Y44129804D01*
X32577428Y44135765D01*
X32554329Y44144030D01*
X32532150Y44154520D01*
X32511107Y44167132D01*
X32491401Y44181747D01*
X32473223Y44198223D01*
X32456747Y44216401D01*
X32442132Y44236107D01*
X32429520Y44257150D01*
X32419030Y44279329D01*
X32410765Y44302428D01*
X32404804Y44326227D01*
X32401204Y44350495D01*
X32400000Y44374999D01*
X32400000Y45625001D01*
X32401204Y45649505D01*
X32404804Y45673773D01*
X32410765Y45697572D01*
X32419030Y45720671D01*
X32429520Y45742850D01*
X32442132Y45763893D01*
X32456747Y45783599D01*
X32473223Y45801777D01*
X32491401Y45818253D01*
X32511107Y45832868D01*
X32532150Y45845480D01*
X32554329Y45855970D01*
X32577428Y45864235D01*
X32601227Y45870196D01*
X32625495Y45873796D01*
X32649999Y45875000D01*
X33350001Y45875000D01*
X33374505Y45873796D01*
G37*
G04 #@! TD.AperFunction*
D14*
X3675000Y7220000D03*
X8725000Y7220000D03*
X3675000Y9760000D03*
X8725000Y9760000D03*
X3675000Y12300000D03*
X8725000Y12300000D03*
X3675000Y14840000D03*
X8725000Y14840000D03*
X3675000Y17380000D03*
X8725000Y17380000D03*
X3675000Y19920000D03*
X8725000Y19920000D03*
X3675000Y22460000D03*
X8725000Y22460000D03*
X3675000Y25000000D03*
X8725000Y25000000D03*
X3675000Y27540000D03*
X8725000Y27540000D03*
X3675000Y30080000D03*
X8725000Y30080000D03*
X3675000Y32620000D03*
X8725000Y32620000D03*
X3675000Y35160000D03*
X8725000Y35160000D03*
X3675000Y37700000D03*
X8725000Y37700000D03*
X3675000Y40240000D03*
X8725000Y40240000D03*
X3675000Y42780000D03*
X8725000Y42780000D03*
D15*
X26416000Y15468600D03*
X26416000Y12968600D03*
D11*
X37846000Y24384000D03*
D10*
X37846000Y26924000D03*
X40386000Y24384000D03*
X40386000Y26924000D03*
X42926000Y24384000D03*
X42926000Y26924000D03*
D16*
X38500000Y41200000D03*
X38500000Y37200000D03*
X38500000Y33200000D03*
D17*
X42750000Y31200000D03*
X42750000Y43200000D03*
X36750000Y43200000D03*
X36750000Y31200000D03*
G04 #@! TA.AperFunction,ComponentPad*
D13*
G36*
X40434505Y11473796D02*
G01*
X40458773Y11470196D01*
X40482572Y11464235D01*
X40505671Y11455970D01*
X40527850Y11445480D01*
X40548893Y11432868D01*
X40568599Y11418253D01*
X40586777Y11401777D01*
X40603253Y11383599D01*
X40617868Y11363893D01*
X40630480Y11342850D01*
X40640970Y11320671D01*
X40649235Y11297572D01*
X40655196Y11273773D01*
X40658796Y11249505D01*
X40660000Y11225001D01*
X40660000Y9974999D01*
X40658796Y9950495D01*
X40655196Y9926227D01*
X40649235Y9902428D01*
X40640970Y9879329D01*
X40630480Y9857150D01*
X40617868Y9836107D01*
X40603253Y9816401D01*
X40586777Y9798223D01*
X40568599Y9781747D01*
X40548893Y9767132D01*
X40527850Y9754520D01*
X40505671Y9744030D01*
X40482572Y9735765D01*
X40458773Y9729804D01*
X40434505Y9726204D01*
X40410001Y9725000D01*
X39709999Y9725000D01*
X39685495Y9726204D01*
X39661227Y9729804D01*
X39637428Y9735765D01*
X39614329Y9744030D01*
X39592150Y9754520D01*
X39571107Y9767132D01*
X39551401Y9781747D01*
X39533223Y9798223D01*
X39516747Y9816401D01*
X39502132Y9836107D01*
X39489520Y9857150D01*
X39479030Y9879329D01*
X39470765Y9902428D01*
X39464804Y9926227D01*
X39461204Y9950495D01*
X39460000Y9974999D01*
X39460000Y11225001D01*
X39461204Y11249505D01*
X39464804Y11273773D01*
X39470765Y11297572D01*
X39479030Y11320671D01*
X39489520Y11342850D01*
X39502132Y11363893D01*
X39516747Y11383599D01*
X39533223Y11401777D01*
X39551401Y11418253D01*
X39571107Y11432868D01*
X39592150Y11445480D01*
X39614329Y11455970D01*
X39637428Y11464235D01*
X39661227Y11470196D01*
X39685495Y11473796D01*
X39709999Y11475000D01*
X40410001Y11475000D01*
X40434505Y11473796D01*
G37*
G04 #@! TD.AperFunction*
D12*
X42060000Y10600000D03*
G04 #@! TA.AperFunction,ComponentPad*
D13*
G36*
X20374505Y45873796D02*
G01*
X20398773Y45870196D01*
X20422572Y45864235D01*
X20445671Y45855970D01*
X20467850Y45845480D01*
X20488893Y45832868D01*
X20508599Y45818253D01*
X20526777Y45801777D01*
X20543253Y45783599D01*
X20557868Y45763893D01*
X20570480Y45742850D01*
X20580970Y45720671D01*
X20589235Y45697572D01*
X20595196Y45673773D01*
X20598796Y45649505D01*
X20600000Y45625001D01*
X20600000Y44374999D01*
X20598796Y44350495D01*
X20595196Y44326227D01*
X20589235Y44302428D01*
X20580970Y44279329D01*
X20570480Y44257150D01*
X20557868Y44236107D01*
X20543253Y44216401D01*
X20526777Y44198223D01*
X20508599Y44181747D01*
X20488893Y44167132D01*
X20467850Y44154520D01*
X20445671Y44144030D01*
X20422572Y44135765D01*
X20398773Y44129804D01*
X20374505Y44126204D01*
X20350001Y44125000D01*
X19649999Y44125000D01*
X19625495Y44126204D01*
X19601227Y44129804D01*
X19577428Y44135765D01*
X19554329Y44144030D01*
X19532150Y44154520D01*
X19511107Y44167132D01*
X19491401Y44181747D01*
X19473223Y44198223D01*
X19456747Y44216401D01*
X19442132Y44236107D01*
X19429520Y44257150D01*
X19419030Y44279329D01*
X19410765Y44302428D01*
X19404804Y44326227D01*
X19401204Y44350495D01*
X19400000Y44374999D01*
X19400000Y45625001D01*
X19401204Y45649505D01*
X19404804Y45673773D01*
X19410765Y45697572D01*
X19419030Y45720671D01*
X19429520Y45742850D01*
X19442132Y45763893D01*
X19456747Y45783599D01*
X19473223Y45801777D01*
X19491401Y45818253D01*
X19511107Y45832868D01*
X19532150Y45845480D01*
X19554329Y45855970D01*
X19577428Y45864235D01*
X19601227Y45870196D01*
X19625495Y45873796D01*
X19649999Y45875000D01*
X20350001Y45875000D01*
X20374505Y45873796D01*
G37*
G04 #@! TD.AperFunction*
D12*
X18000000Y45000000D03*
X16000000Y45000000D03*
X14000000Y45000000D03*
D18*
X22400000Y8700000D03*
X22400000Y3700000D03*
D19*
X32050000Y23800000D03*
X33350000Y23800000D03*
X33350000Y21200000D03*
X32050000Y21200000D03*
X32050000Y18600000D03*
X33350000Y18600000D03*
X33350000Y16000000D03*
X32050000Y16000000D03*
X14450000Y25100000D03*
X13150000Y25100000D03*
X13150000Y22500000D03*
X14450000Y22500000D03*
X13150000Y27800000D03*
X14450000Y27800000D03*
X14450000Y19900000D03*
X13150000Y19900000D03*
G04 #@! TA.AperFunction,ComponentPad*
D13*
G36*
X14474504Y8648796D02*
G01*
X14498773Y8645196D01*
X14522571Y8639235D01*
X14545671Y8630970D01*
X14567849Y8620480D01*
X14588893Y8607867D01*
X14608598Y8593253D01*
X14626777Y8576777D01*
X14643253Y8558598D01*
X14657867Y8538893D01*
X14670480Y8517849D01*
X14680970Y8495671D01*
X14689235Y8472571D01*
X14695196Y8448773D01*
X14698796Y8424504D01*
X14700000Y8400000D01*
X14700000Y7200000D01*
X14698796Y7175496D01*
X14695196Y7151227D01*
X14689235Y7127429D01*
X14680970Y7104329D01*
X14670480Y7082151D01*
X14657867Y7061107D01*
X14643253Y7041402D01*
X14626777Y7023223D01*
X14608598Y7006747D01*
X14588893Y6992133D01*
X14567849Y6979520D01*
X14545671Y6969030D01*
X14522571Y6960765D01*
X14498773Y6954804D01*
X14474504Y6951204D01*
X14450000Y6950000D01*
X12950000Y6950000D01*
X12925496Y6951204D01*
X12901227Y6954804D01*
X12877429Y6960765D01*
X12854329Y6969030D01*
X12832151Y6979520D01*
X12811107Y6992133D01*
X12791402Y7006747D01*
X12773223Y7023223D01*
X12756747Y7041402D01*
X12742133Y7061107D01*
X12729520Y7082151D01*
X12719030Y7104329D01*
X12710765Y7127429D01*
X12704804Y7151227D01*
X12701204Y7175496D01*
X12700000Y7200000D01*
X12700000Y8400000D01*
X12701204Y8424504D01*
X12704804Y8448773D01*
X12710765Y8472571D01*
X12719030Y8495671D01*
X12729520Y8517849D01*
X12742133Y8538893D01*
X12756747Y8558598D01*
X12773223Y8576777D01*
X12791402Y8593253D01*
X12811107Y8607867D01*
X12832151Y8620480D01*
X12854329Y8630970D01*
X12877429Y8639235D01*
X12901227Y8645196D01*
X12925496Y8648796D01*
X12950000Y8650000D01*
X14450000Y8650000D01*
X14474504Y8648796D01*
G37*
G04 #@! TD.AperFunction*
D20*
X13700000Y5300000D03*
D21*
X23495000Y24765000D03*
X39000000Y49000000D03*
X34000000Y49000000D03*
X29000000Y49000000D03*
X24000000Y49000000D03*
X19000000Y49000000D03*
X14000000Y49000000D03*
X8000000Y48500000D03*
X1500000Y45000000D03*
X48500000Y44500000D03*
X42000000Y48500000D03*
X1000000Y39000000D03*
X1000000Y34000000D03*
X1000000Y29000000D03*
X1000000Y24000000D03*
X1000000Y19000000D03*
X1000000Y14000000D03*
X1000000Y11000000D03*
X1500000Y5000000D03*
X8000000Y1500000D03*
X11000000Y1000000D03*
X16000000Y1000000D03*
X21000000Y1000000D03*
X26000000Y1000000D03*
X31000000Y1000000D03*
X36000000Y1000000D03*
X42000000Y1500000D03*
X48500000Y5500000D03*
X49000000Y11000000D03*
X49000000Y16000000D03*
X49000000Y21000000D03*
X49000000Y26000000D03*
X49000000Y32000000D03*
X49000000Y37000000D03*
X39000000Y45000000D03*
X30000000Y43750000D03*
X11023600Y33274000D03*
X25900000Y17100000D03*
X27600000Y27000000D03*
X30429200Y28676600D03*
X35800000Y11023600D03*
X30750000Y5500000D03*
X9000000Y5400000D03*
X38500000Y38750000D03*
X36500000Y41500000D03*
X39250000Y31750000D03*
X37000000Y33750000D03*
X27635200Y35001200D03*
X19100800Y38735000D03*
X27051000Y38735000D03*
X27051000Y41148000D03*
X19100800Y41097200D03*
X14833600Y41275000D03*
X16100000Y34800000D03*
X13335000Y37998400D03*
X21234400Y21640800D03*
X19380200Y36550600D03*
X25019000Y33782000D03*
X27686000Y31242000D03*
X12065000Y39243000D03*
X9144000Y33909000D03*
X10922000Y35687000D03*
X30378400Y15290800D03*
X34315400Y8686800D03*
X45669200Y28727400D03*
X42700000Y22800000D03*
X45700000Y23100000D03*
X45872400Y11988800D03*
X30276800Y23266400D03*
X45669200Y31597600D03*
X42011600Y35458400D03*
X30276800Y36372800D03*
X27584400Y23495000D03*
X20777200Y25095200D03*
X16400000Y27800000D03*
X12547600Y31191200D03*
X6248400Y24434800D03*
X11328400Y11023600D03*
X27787600Y12090400D03*
X20400000Y8300000D03*
X18338800Y28702000D03*
X7772400Y38938200D03*
X7823200Y10998200D03*
X4622800Y11023600D03*
X35900000Y15200000D03*
X45700000Y16700000D03*
X36000000Y23800000D03*
X26500000Y6400000D03*
X24100000Y3000000D03*
X20800000Y4000000D03*
X24200000Y8300000D03*
X29200000Y1800000D03*
X27500000Y18415000D03*
X30000000Y18900000D03*
X15300000Y23699997D03*
X9600000Y23700000D03*
X11300000Y15900000D03*
X9200000Y21400000D03*
X10800000Y29200000D03*
X13900000Y29200000D03*
X15600000Y7500000D03*
X12000000Y7500000D03*
X18387800Y23521800D03*
X11300000Y30100000D03*
X18084800Y36626798D03*
X11499998Y25800000D03*
X17272000Y37439600D03*
X10887845Y26414586D03*
X32766006Y12768589D03*
X16200777Y19151420D03*
X34175724Y21275733D03*
X26670000Y20278800D03*
X21209000Y19050000D03*
X27635200Y20900004D03*
X25400036Y22225000D03*
D22*
X26416000Y11128482D02*
X26416000Y12968600D01*
X25047518Y9760000D02*
X26416000Y11128482D01*
D23*
X23660000Y9760000D02*
X25047518Y9760000D01*
X11640000Y9760000D02*
X13700000Y7700000D01*
X8725000Y9760000D02*
X11640000Y9760000D01*
X13700000Y7700000D02*
X15760000Y9760000D01*
X15760000Y9760000D02*
X21340000Y9760000D01*
X21340000Y9760000D02*
X22500000Y8600000D01*
X22500000Y8600000D02*
X23660000Y9760000D01*
D24*
X10608000Y40132000D02*
X10500000Y40240000D01*
X27699788Y40132000D02*
X10608000Y40132000D01*
X31000000Y43432212D02*
X27699788Y40132000D01*
X10500000Y40240000D02*
X8725000Y40240000D01*
X31000000Y45000000D02*
X31000000Y43432212D01*
X9150400Y32620000D02*
X8725000Y32620000D01*
X11734800Y35204400D02*
X9150400Y32620000D01*
X11734800Y37719000D02*
X11734800Y35204400D01*
X13747789Y39731989D02*
X11734800Y37719000D01*
X28073489Y39731989D02*
X13747789Y39731989D01*
X33000000Y44658500D02*
X28073489Y39731989D01*
X33000000Y45000000D02*
X33000000Y44658500D01*
X11280000Y30080000D02*
X11300000Y30100000D01*
X8725000Y30080000D02*
X11280000Y30080000D01*
X18084800Y36626798D02*
X18084800Y34863101D01*
X11199999Y25500001D02*
X11499998Y25800000D01*
X11499998Y28278299D02*
X11499998Y26224264D01*
X18084800Y34863101D02*
X11499998Y28278299D01*
X11499998Y26224264D02*
X11499998Y25800000D01*
X10699998Y25000000D02*
X11199999Y25500001D01*
X8725000Y25000000D02*
X10699998Y25000000D01*
X3675000Y25000000D02*
X5450000Y25000000D01*
X5450000Y25000000D02*
X6864586Y26414586D01*
X10887845Y26838850D02*
X10887845Y26414586D01*
X10463581Y26414586D02*
X10887845Y26414586D01*
X6864586Y26414586D02*
X10463581Y26414586D01*
X17272000Y34616001D02*
X10887845Y28231846D01*
X10887845Y28231846D02*
X10887845Y26838850D01*
X17272000Y37439600D02*
X17272000Y34616001D01*
X42076001Y17613999D02*
X42926000Y16764000D01*
X38996001Y18153999D02*
X41536001Y18153999D01*
X37846000Y19304000D02*
X38996001Y18153999D01*
X41536001Y18153999D02*
X42076001Y17613999D01*
X33350000Y22950000D02*
X33350000Y23800000D01*
X34800000Y21500000D02*
X33350000Y22950000D01*
X34800000Y20900000D02*
X34800000Y21500000D01*
X33350000Y18600000D02*
X33350000Y19450000D01*
X33350000Y19450000D02*
X34800000Y20900000D01*
X37846000Y19354000D02*
X37846000Y19304000D01*
X33350000Y23800000D02*
X33400000Y23800000D01*
X33400000Y23800000D02*
X37846000Y19354000D01*
X15200000Y25100000D02*
X16000000Y24300000D01*
X14450000Y25100000D02*
X15200000Y25100000D01*
X15150000Y22500000D02*
X14450000Y22500000D01*
X16000000Y23350000D02*
X15150000Y22500000D01*
X16000000Y24300000D02*
X16000000Y23350000D01*
X15900778Y20949222D02*
X15900778Y19451419D01*
X14350000Y22500000D02*
X15900778Y20949222D01*
X15900778Y19451419D02*
X16200777Y19151420D01*
X41775999Y25534001D02*
X42076001Y25233999D01*
X37846000Y26924000D02*
X39235999Y25534001D01*
X42076001Y25233999D02*
X42926000Y24384000D01*
X39235999Y25534001D02*
X41775999Y25534001D01*
X32050000Y18750000D02*
X32050000Y18500000D01*
X33350000Y16950000D02*
X33350000Y16000000D01*
X33000000Y17300000D02*
X33350000Y16950000D01*
X32500000Y17300000D02*
X33000000Y17300000D01*
X32050000Y18600000D02*
X32050000Y17750000D01*
X32050000Y17750000D02*
X32500000Y17300000D01*
X33350000Y20250000D02*
X33000000Y19900000D01*
X33350000Y21200000D02*
X33350000Y20250000D01*
X32050000Y19550000D02*
X32050000Y18600000D01*
X32400000Y19900000D02*
X32050000Y19550000D01*
X33000000Y19900000D02*
X32400000Y19900000D01*
X34099991Y21200000D02*
X34175724Y21275733D01*
X33350000Y21200000D02*
X34099991Y21200000D01*
X31350000Y21200000D02*
X32050000Y21200000D01*
X26670000Y20278800D02*
X30428800Y20278800D01*
X30428800Y20278800D02*
X31350000Y21200000D01*
X15698590Y18551410D02*
X14350000Y19900000D01*
X21209000Y19050000D02*
X20710410Y18551410D01*
X16500004Y25549996D02*
X16500004Y19740197D01*
X16500004Y19740197D02*
X16800779Y19439422D01*
X16800779Y19439422D02*
X16800779Y19399221D01*
X14350000Y27700000D02*
X16500004Y25549996D01*
X16800779Y19399221D02*
X17150000Y19050000D01*
X20710410Y18551410D02*
X15698590Y18551410D01*
X17150000Y19050000D02*
X21209000Y19050000D01*
D25*
X40436800Y12633600D02*
X40401600Y12598400D01*
X40436800Y12649200D02*
X40436800Y12633600D01*
X39349999Y40350001D02*
X38500000Y41200000D01*
X47400000Y32300000D02*
X39349999Y40350001D01*
X47400000Y15980200D02*
X47400000Y32300000D01*
X40436800Y12649200D02*
X44069000Y12649200D01*
X44069000Y12649200D02*
X47400000Y15980200D01*
X40411400Y12623800D02*
X40436800Y12649200D01*
X35023800Y12623800D02*
X40411400Y12623800D01*
X27100000Y4700000D02*
X35023800Y12623800D01*
X22400000Y3700000D02*
X23400000Y4700000D01*
X23400000Y4700000D02*
X27100000Y4700000D01*
X22400000Y3200000D02*
X22400000Y3700000D01*
X9485802Y7188200D02*
X10600000Y6074002D01*
X8737600Y7188200D02*
X9485802Y7188200D01*
X10600000Y6074002D02*
X10600000Y3900000D01*
X10600000Y3900000D02*
X12000000Y2500000D01*
X12000000Y2500000D02*
X21700000Y2500000D01*
X21700000Y2500000D02*
X22400000Y3200000D01*
D24*
X32050000Y23550000D02*
X29400004Y20900004D01*
X29400004Y20900004D02*
X28059464Y20900004D01*
X32050000Y23800000D02*
X32050000Y23550000D01*
X28059464Y20900004D02*
X27635200Y20900004D01*
X26381999Y19678799D02*
X25400036Y20660762D01*
X25400036Y20660762D02*
X25400036Y21800736D01*
X25400036Y21800736D02*
X25400036Y22225000D01*
X32050000Y15900000D02*
X28271201Y19678799D01*
X28271201Y19678799D02*
X26381999Y19678799D01*
X4750000Y17380000D02*
X5550001Y16579999D01*
X3675000Y17380000D02*
X4750000Y17380000D01*
X13050000Y19584300D02*
X13050000Y19900000D01*
X5550001Y16579999D02*
X10679999Y16579999D01*
X10679999Y16579999D02*
X11000000Y16900000D01*
X11000000Y16900000D02*
X11000000Y17534300D01*
X11000000Y17534300D02*
X13050000Y19584300D01*
X10280000Y17380000D02*
X8725000Y17380000D01*
X12200000Y19300000D02*
X10280000Y17380000D01*
X12350000Y22500000D02*
X12200000Y22350000D01*
X12200000Y22350000D02*
X12200000Y19300000D01*
X13050000Y22500000D02*
X12350000Y22500000D01*
X13050000Y27450000D02*
X12099999Y26499999D01*
X10600001Y23200001D02*
X10600001Y21719999D01*
X10600001Y21719999D02*
X9600002Y20720001D01*
X12099999Y25465699D02*
X10599989Y23965689D01*
X9600002Y20720001D02*
X6909999Y20720001D01*
X6909999Y20720001D02*
X6109998Y19920000D01*
X5450000Y19920000D02*
X3675000Y19920000D01*
X6109998Y19920000D02*
X5450000Y19920000D01*
X10599989Y23200013D02*
X10600001Y23200001D01*
X10599989Y23965689D02*
X10599989Y23200013D01*
X12099999Y26499999D02*
X12099999Y25465699D01*
X13050000Y27700000D02*
X13050000Y27450000D01*
X12300000Y25100000D02*
X13050000Y25100000D01*
X11000000Y23365702D02*
X11000000Y23800000D01*
X11000000Y23800000D02*
X12300000Y25100000D01*
X8725000Y19920000D02*
X9365701Y19920000D01*
X11000012Y21554310D02*
X11000012Y23365690D01*
X9365701Y19920000D02*
X11000012Y21554310D01*
X11000012Y23365690D02*
X11000000Y23365702D01*
D26*
G36*
X39505264Y49401591D02*
G01*
X39533969Y49306964D01*
X39580583Y49219755D01*
X39643316Y49143316D01*
X39719755Y49080583D01*
X39806964Y49033969D01*
X39901591Y49005264D01*
X39975347Y48998000D01*
X40000000Y48995572D01*
X40024653Y48998000D01*
X46975450Y48998000D01*
X47387613Y48957587D01*
X47760459Y48845018D01*
X48104347Y48662170D01*
X48406165Y48416013D01*
X48654423Y48115919D01*
X48839663Y47773323D01*
X48954833Y47401269D01*
X48998000Y46990564D01*
X48998001Y40024663D01*
X48995572Y40000000D01*
X49005264Y39901591D01*
X49033969Y39806964D01*
X49080583Y39719755D01*
X49143316Y39643316D01*
X49219755Y39580583D01*
X49306964Y39533969D01*
X49401591Y39505264D01*
X49475347Y39498000D01*
X49498000Y39495769D01*
X49498001Y10504231D01*
X49475347Y10502000D01*
X49401591Y10494736D01*
X49306964Y10466031D01*
X49219755Y10419417D01*
X49143316Y10356684D01*
X49080583Y10280245D01*
X49033969Y10193036D01*
X49005264Y10098409D01*
X48995572Y10000000D01*
X48998001Y9975337D01*
X48998000Y3024551D01*
X48957587Y2612386D01*
X48845018Y2239538D01*
X48662170Y1895654D01*
X48416015Y1593837D01*
X48115922Y1345579D01*
X47773326Y1160338D01*
X47401269Y1045167D01*
X46990564Y1002000D01*
X40024653Y1002000D01*
X40000000Y1004428D01*
X39975347Y1002000D01*
X39901591Y994736D01*
X39806964Y966031D01*
X39719755Y919417D01*
X39643316Y856684D01*
X39580583Y780245D01*
X39533969Y693036D01*
X39505264Y598409D01*
X39495769Y502000D01*
X10504231Y502000D01*
X10494736Y598409D01*
X10466031Y693036D01*
X10419417Y780245D01*
X10356684Y856684D01*
X10280245Y919417D01*
X10193036Y966031D01*
X10098409Y994736D01*
X10024653Y1002000D01*
X10000000Y1004428D01*
X9975347Y1002000D01*
X3024551Y1002000D01*
X2612386Y1042413D01*
X2239538Y1154982D01*
X1895654Y1337830D01*
X1593837Y1583985D01*
X1345579Y1884078D01*
X1160338Y2226674D01*
X1045167Y2598731D01*
X1002000Y3009436D01*
X1002000Y3344718D01*
X1173000Y3344718D01*
X1173000Y2955282D01*
X1248975Y2573330D01*
X1398005Y2213539D01*
X1614364Y1889736D01*
X1889736Y1614364D01*
X2213539Y1398005D01*
X2573330Y1248975D01*
X2955282Y1173000D01*
X3344718Y1173000D01*
X3726670Y1248975D01*
X4086461Y1398005D01*
X4410264Y1614364D01*
X4685636Y1889736D01*
X4901995Y2213539D01*
X5051025Y2573330D01*
X5127000Y2955282D01*
X5127000Y3295472D01*
X5823000Y3295472D01*
X5823000Y3004528D01*
X5879760Y2719175D01*
X5991099Y2450378D01*
X6152739Y2208467D01*
X6358467Y2002739D01*
X6600378Y1841099D01*
X6869175Y1729760D01*
X7154528Y1673000D01*
X7445472Y1673000D01*
X7730825Y1729760D01*
X7999622Y1841099D01*
X8241533Y2002739D01*
X8447261Y2208467D01*
X8608901Y2450378D01*
X8720240Y2719175D01*
X8777000Y3004528D01*
X8777000Y3295472D01*
X8720240Y3580825D01*
X8608901Y3849622D01*
X8447261Y4091533D01*
X8241533Y4297261D01*
X7999622Y4458901D01*
X7730825Y4570240D01*
X7445472Y4627000D01*
X7154528Y4627000D01*
X6869175Y4570240D01*
X6600378Y4458901D01*
X6358467Y4297261D01*
X6152739Y4091533D01*
X5991099Y3849622D01*
X5879760Y3580825D01*
X5823000Y3295472D01*
X5127000Y3295472D01*
X5127000Y3344718D01*
X5051025Y3726670D01*
X4901995Y4086461D01*
X4685636Y4410264D01*
X4410264Y4685636D01*
X4086461Y4901995D01*
X3726670Y5051025D01*
X3344718Y5127000D01*
X2955282Y5127000D01*
X2573330Y5051025D01*
X2213539Y4901995D01*
X1889736Y4685636D01*
X1614364Y4410264D01*
X1398005Y4086461D01*
X1248975Y3726670D01*
X1173000Y3344718D01*
X1002000Y3344718D01*
X1002000Y7720000D01*
X1620693Y7720000D01*
X1620693Y6720000D01*
X1629903Y6626492D01*
X1657178Y6536577D01*
X1701471Y6453711D01*
X1761079Y6381079D01*
X1833711Y6321471D01*
X1916577Y6277178D01*
X2006492Y6249903D01*
X2100000Y6240693D01*
X5250000Y6240693D01*
X5343508Y6249903D01*
X5433423Y6277178D01*
X5516289Y6321471D01*
X5588921Y6381079D01*
X5648529Y6453711D01*
X5692822Y6536577D01*
X5720097Y6626492D01*
X5729307Y6720000D01*
X5729307Y7720000D01*
X6670693Y7720000D01*
X6670693Y6720000D01*
X6679903Y6626492D01*
X6707178Y6536577D01*
X6751471Y6453711D01*
X6811079Y6381079D01*
X6883711Y6321471D01*
X6966577Y6277178D01*
X7056492Y6249903D01*
X7150000Y6240693D01*
X7879195Y6240693D01*
X8024704Y6121276D01*
X8246549Y6002698D01*
X8487264Y5929678D01*
X8674874Y5911200D01*
X8956852Y5911200D01*
X9323000Y5545051D01*
X9323001Y3962735D01*
X9316822Y3900000D01*
X9341478Y3649665D01*
X9382481Y3514498D01*
X9414499Y3408949D01*
X9533077Y3187104D01*
X9692657Y2992656D01*
X9741380Y2952670D01*
X11052669Y1641380D01*
X11092656Y1592656D01*
X11287104Y1433076D01*
X11417731Y1363255D01*
X11508948Y1314498D01*
X11749664Y1241478D01*
X12000000Y1216822D01*
X12062726Y1223000D01*
X21637274Y1223000D01*
X21700000Y1216822D01*
X21762726Y1223000D01*
X21950336Y1241478D01*
X22191051Y1314498D01*
X22412896Y1433076D01*
X22458732Y1470693D01*
X23300000Y1470693D01*
X23393508Y1479903D01*
X23483423Y1507178D01*
X23566289Y1551471D01*
X23638921Y1611079D01*
X23698529Y1683711D01*
X23742822Y1766577D01*
X23770097Y1856492D01*
X23779307Y1950000D01*
X23779307Y3273357D01*
X23801422Y3295472D01*
X41223000Y3295472D01*
X41223000Y3004528D01*
X41279760Y2719175D01*
X41391099Y2450378D01*
X41552739Y2208467D01*
X41758467Y2002739D01*
X42000378Y1841099D01*
X42269175Y1729760D01*
X42554528Y1673000D01*
X42845472Y1673000D01*
X43130825Y1729760D01*
X43399622Y1841099D01*
X43641533Y2002739D01*
X43847261Y2208467D01*
X44008901Y2450378D01*
X44120240Y2719175D01*
X44177000Y3004528D01*
X44177000Y3295472D01*
X44167205Y3344718D01*
X44873000Y3344718D01*
X44873000Y2955282D01*
X44948975Y2573330D01*
X45098005Y2213539D01*
X45314364Y1889736D01*
X45589736Y1614364D01*
X45913539Y1398005D01*
X46273330Y1248975D01*
X46655282Y1173000D01*
X47044718Y1173000D01*
X47426670Y1248975D01*
X47786461Y1398005D01*
X48110264Y1614364D01*
X48385636Y1889736D01*
X48601995Y2213539D01*
X48751025Y2573330D01*
X48827000Y2955282D01*
X48827000Y3344718D01*
X48751025Y3726670D01*
X48601995Y4086461D01*
X48385636Y4410264D01*
X48110264Y4685636D01*
X47786461Y4901995D01*
X47426670Y5051025D01*
X47044718Y5127000D01*
X46655282Y5127000D01*
X46273330Y5051025D01*
X45913539Y4901995D01*
X45589736Y4685636D01*
X45314364Y4410264D01*
X45098005Y4086461D01*
X44948975Y3726670D01*
X44873000Y3344718D01*
X44167205Y3344718D01*
X44120240Y3580825D01*
X44008901Y3849622D01*
X43847261Y4091533D01*
X43641533Y4297261D01*
X43399622Y4458901D01*
X43130825Y4570240D01*
X42845472Y4627000D01*
X42554528Y4627000D01*
X42269175Y4570240D01*
X42000378Y4458901D01*
X41758467Y4297261D01*
X41552739Y4091533D01*
X41391099Y3849622D01*
X41279760Y3580825D01*
X41223000Y3295472D01*
X23801422Y3295472D01*
X23928951Y3423000D01*
X27037274Y3423000D01*
X27100000Y3416822D01*
X27162726Y3423000D01*
X27350336Y3441478D01*
X27591051Y3514498D01*
X27812896Y3633076D01*
X28007344Y3792656D01*
X28047335Y3841385D01*
X35552751Y11346800D01*
X38992689Y11346800D01*
X38980693Y11225001D01*
X38980693Y9974999D01*
X38994706Y9832718D01*
X39036208Y9695906D01*
X39103603Y9569818D01*
X39194302Y9459302D01*
X39304818Y9368603D01*
X39430906Y9301208D01*
X39567718Y9259706D01*
X39709999Y9245693D01*
X40410001Y9245693D01*
X40552282Y9259706D01*
X40689094Y9301208D01*
X40815182Y9368603D01*
X40925698Y9459302D01*
X41016397Y9569818D01*
X41044097Y9621642D01*
X41103693Y9533275D01*
X41276526Y9361922D01*
X41479467Y9227579D01*
X41704718Y9135409D01*
X41742391Y9131538D01*
X41933000Y9256269D01*
X41933000Y10473000D01*
X42187000Y10473000D01*
X42187000Y9256269D01*
X42377609Y9131538D01*
X42415282Y9135409D01*
X42640533Y9227579D01*
X42843474Y9361922D01*
X43016307Y9533275D01*
X43152390Y9735054D01*
X43246493Y9959504D01*
X43295000Y10198000D01*
X43295000Y10473000D01*
X42187000Y10473000D01*
X41933000Y10473000D01*
X41913000Y10473000D01*
X41913000Y10727000D01*
X41933000Y10727000D01*
X41933000Y10747000D01*
X42187000Y10747000D01*
X42187000Y10727000D01*
X43295000Y10727000D01*
X43295000Y11002000D01*
X43246493Y11240496D01*
X43191275Y11372200D01*
X44006274Y11372200D01*
X44069000Y11366022D01*
X44131726Y11372200D01*
X44319336Y11390678D01*
X44560051Y11463698D01*
X44781896Y11582276D01*
X44976344Y11741856D01*
X45016335Y11790585D01*
X48258621Y15032870D01*
X48307344Y15072856D01*
X48466924Y15267304D01*
X48585502Y15489149D01*
X48658522Y15729864D01*
X48677000Y15917474D01*
X48677000Y15917481D01*
X48683177Y15980199D01*
X48677000Y16042918D01*
X48677000Y32237272D01*
X48683178Y32300000D01*
X48658523Y32550336D01*
X48585502Y32791051D01*
X48573809Y32812928D01*
X48466924Y33012896D01*
X48307344Y33207344D01*
X48258620Y33247331D01*
X40208620Y41297330D01*
X39673137Y41832813D01*
X39530748Y42045913D01*
X39345913Y42230748D01*
X39128570Y42375972D01*
X38887072Y42476004D01*
X38630698Y42527000D01*
X38369302Y42527000D01*
X38112928Y42476004D01*
X38015707Y42435734D01*
X38058901Y42500378D01*
X38170240Y42769175D01*
X38227000Y43054528D01*
X38227000Y43345472D01*
X41273000Y43345472D01*
X41273000Y43054528D01*
X41329760Y42769175D01*
X41441099Y42500378D01*
X41602739Y42258467D01*
X41808467Y42052739D01*
X42050378Y41891099D01*
X42319175Y41779760D01*
X42604528Y41723000D01*
X42895472Y41723000D01*
X43180825Y41779760D01*
X43449622Y41891099D01*
X43691533Y42052739D01*
X43897261Y42258467D01*
X44058901Y42500378D01*
X44170240Y42769175D01*
X44227000Y43054528D01*
X44227000Y43345472D01*
X44170240Y43630825D01*
X44058901Y43899622D01*
X43897261Y44141533D01*
X43691533Y44347261D01*
X43449622Y44508901D01*
X43180825Y44620240D01*
X42895472Y44677000D01*
X42604528Y44677000D01*
X42319175Y44620240D01*
X42050378Y44508901D01*
X41808467Y44347261D01*
X41602739Y44141533D01*
X41441099Y43899622D01*
X41329760Y43630825D01*
X41273000Y43345472D01*
X38227000Y43345472D01*
X38170240Y43630825D01*
X38058901Y43899622D01*
X37897261Y44141533D01*
X37691533Y44347261D01*
X37449622Y44508901D01*
X37180825Y44620240D01*
X36895472Y44677000D01*
X36604528Y44677000D01*
X36319175Y44620240D01*
X36050378Y44508901D01*
X35808467Y44347261D01*
X35602739Y44141533D01*
X35441099Y43899622D01*
X35329760Y43630825D01*
X35273000Y43345472D01*
X35273000Y43054528D01*
X35329760Y42769175D01*
X35441099Y42500378D01*
X35602739Y42258467D01*
X35808467Y42052739D01*
X36050378Y41891099D01*
X36319175Y41779760D01*
X36604528Y41723000D01*
X36895472Y41723000D01*
X37180825Y41779760D01*
X37333735Y41843097D01*
X37324028Y41828570D01*
X37223996Y41587072D01*
X37173000Y41330698D01*
X37173000Y41069302D01*
X37223996Y40812928D01*
X37324028Y40571430D01*
X37469252Y40354087D01*
X37654087Y40169252D01*
X37867187Y40026863D01*
X38402670Y39491380D01*
X46123001Y31771048D01*
X46123000Y16509151D01*
X43540050Y13926200D01*
X40499526Y13926200D01*
X40436800Y13932378D01*
X40436799Y13932378D01*
X40300657Y13918969D01*
X40186464Y13907722D01*
X40163645Y13900800D01*
X35086518Y13900800D01*
X35023799Y13906977D01*
X34961081Y13900800D01*
X34961074Y13900800D01*
X34773464Y13882322D01*
X34532749Y13809302D01*
X34310904Y13690724D01*
X34116456Y13531144D01*
X34076470Y13482421D01*
X33525778Y12931729D01*
X33513147Y12995232D01*
X33454575Y13136637D01*
X33369542Y13263898D01*
X33261315Y13372125D01*
X33134054Y13457158D01*
X32992649Y13515730D01*
X32842534Y13545589D01*
X32689478Y13545589D01*
X32539363Y13515730D01*
X32397958Y13457158D01*
X32270697Y13372125D01*
X32162470Y13263898D01*
X32077437Y13136637D01*
X32018865Y12995232D01*
X31989006Y12845117D01*
X31989006Y12692061D01*
X32018865Y12541946D01*
X32077437Y12400541D01*
X32162470Y12273280D01*
X32270697Y12165053D01*
X32397958Y12080020D01*
X32539363Y12021448D01*
X32602866Y12008817D01*
X26571050Y5977000D01*
X23462728Y5977000D01*
X23400000Y5983178D01*
X23149664Y5958523D01*
X23053353Y5929307D01*
X21500000Y5929307D01*
X21406492Y5920097D01*
X21316577Y5892822D01*
X21233711Y5848529D01*
X21161079Y5788921D01*
X21101471Y5716289D01*
X21057178Y5633423D01*
X21029903Y5543508D01*
X21020693Y5450000D01*
X21020693Y3777000D01*
X12528951Y3777000D01*
X11877000Y4428950D01*
X11877000Y4943110D01*
X12108524Y4943110D01*
X12110446Y4930739D01*
X12210146Y4656991D01*
X12361336Y4407954D01*
X12558205Y4193198D01*
X12793188Y4020975D01*
X13057255Y3897904D01*
X13340258Y3828715D01*
X13573000Y3972768D01*
X13573000Y5173000D01*
X13827000Y5173000D01*
X13827000Y3972768D01*
X14059742Y3828715D01*
X14342745Y3897904D01*
X14606812Y4020975D01*
X14841795Y4193198D01*
X15038664Y4407954D01*
X15189854Y4656991D01*
X15289554Y4930739D01*
X15291476Y4943110D01*
X15170155Y5173000D01*
X13827000Y5173000D01*
X13573000Y5173000D01*
X12229845Y5173000D01*
X12108524Y4943110D01*
X11877000Y4943110D01*
X11877000Y6011276D01*
X11883178Y6074002D01*
X11858522Y6324338D01*
X11785502Y6565053D01*
X11721762Y6684302D01*
X11666924Y6786898D01*
X11507344Y6981346D01*
X11458621Y7021332D01*
X10779307Y7700645D01*
X10779307Y7720000D01*
X10770097Y7813508D01*
X10742822Y7903423D01*
X10698529Y7986289D01*
X10638921Y8058921D01*
X10566289Y8118529D01*
X10483423Y8162822D01*
X10393508Y8190097D01*
X10300000Y8199307D01*
X10266711Y8199307D01*
X10198698Y8255124D01*
X9976853Y8373702D01*
X9736138Y8446722D01*
X9548528Y8465200D01*
X9485802Y8471378D01*
X9423076Y8465200D01*
X8674874Y8465200D01*
X8487264Y8446722D01*
X8246549Y8373702D01*
X8024704Y8255124D01*
X7956691Y8199307D01*
X7150000Y8199307D01*
X7056492Y8190097D01*
X6966577Y8162822D01*
X6883711Y8118529D01*
X6811079Y8058921D01*
X6751471Y7986289D01*
X6707178Y7903423D01*
X6679903Y7813508D01*
X6670693Y7720000D01*
X5729307Y7720000D01*
X5720097Y7813508D01*
X5692822Y7903423D01*
X5648529Y7986289D01*
X5588921Y8058921D01*
X5516289Y8118529D01*
X5433423Y8162822D01*
X5343508Y8190097D01*
X5250000Y8199307D01*
X2100000Y8199307D01*
X2006492Y8190097D01*
X1916577Y8162822D01*
X1833711Y8118529D01*
X1761079Y8058921D01*
X1701471Y7986289D01*
X1657178Y7903423D01*
X1629903Y7813508D01*
X1620693Y7720000D01*
X1002000Y7720000D01*
X1002000Y9975348D01*
X1004428Y10000000D01*
X994736Y10098409D01*
X966031Y10193036D01*
X919417Y10280245D01*
X856684Y10356684D01*
X780245Y10419417D01*
X693036Y10466031D01*
X598409Y10494736D01*
X524653Y10502000D01*
X502000Y10504231D01*
X502000Y15340000D01*
X1620693Y15340000D01*
X1620693Y14340000D01*
X1629903Y14246492D01*
X1657178Y14156577D01*
X1701471Y14073711D01*
X1761079Y14001079D01*
X1833711Y13941471D01*
X1916577Y13897178D01*
X2006492Y13869903D01*
X2100000Y13860693D01*
X5250000Y13860693D01*
X5343508Y13869903D01*
X5433423Y13897178D01*
X5516289Y13941471D01*
X5588921Y14001079D01*
X5648529Y14073711D01*
X5692822Y14156577D01*
X5720097Y14246492D01*
X5729307Y14340000D01*
X5729307Y15340000D01*
X6670693Y15340000D01*
X6670693Y14340000D01*
X6679903Y14246492D01*
X6707178Y14156577D01*
X6751471Y14073711D01*
X6811079Y14001079D01*
X6883711Y13941471D01*
X6966577Y13897178D01*
X7056492Y13869903D01*
X7150000Y13860693D01*
X10300000Y13860693D01*
X10393508Y13869903D01*
X10483423Y13897178D01*
X10566289Y13941471D01*
X10638921Y14001079D01*
X10698529Y14073711D01*
X10742822Y14156577D01*
X10770097Y14246492D01*
X10779307Y14340000D01*
X10779307Y15340000D01*
X10770097Y15433508D01*
X10742822Y15523423D01*
X10698529Y15606289D01*
X10638921Y15678921D01*
X10566289Y15738529D01*
X10483423Y15782822D01*
X10393508Y15810097D01*
X10300000Y15819307D01*
X7150000Y15819307D01*
X7056492Y15810097D01*
X6966577Y15782822D01*
X6883711Y15738529D01*
X6811079Y15678921D01*
X6751471Y15606289D01*
X6707178Y15523423D01*
X6679903Y15433508D01*
X6670693Y15340000D01*
X5729307Y15340000D01*
X5720097Y15433508D01*
X5692822Y15523423D01*
X5648529Y15606289D01*
X5588921Y15678921D01*
X5516289Y15738529D01*
X5433423Y15782822D01*
X5343508Y15810097D01*
X5250000Y15819307D01*
X2100000Y15819307D01*
X2006492Y15810097D01*
X1916577Y15782822D01*
X1833711Y15738529D01*
X1761079Y15678921D01*
X1701471Y15606289D01*
X1657178Y15523423D01*
X1629903Y15433508D01*
X1620693Y15340000D01*
X502000Y15340000D01*
X502000Y22960000D01*
X1620693Y22960000D01*
X1620693Y21960000D01*
X1629903Y21866492D01*
X1657178Y21776577D01*
X1701471Y21693711D01*
X1761079Y21621079D01*
X1833711Y21561471D01*
X1916577Y21517178D01*
X2006492Y21489903D01*
X2100000Y21480693D01*
X5250000Y21480693D01*
X5343508Y21489903D01*
X5433423Y21517178D01*
X5516289Y21561471D01*
X5588921Y21621079D01*
X5648529Y21693711D01*
X5692822Y21776577D01*
X5720097Y21866492D01*
X5729307Y21960000D01*
X5729307Y22960000D01*
X5720097Y23053508D01*
X5692822Y23143423D01*
X5648529Y23226289D01*
X5588921Y23298921D01*
X5516289Y23358529D01*
X5433423Y23402822D01*
X5343508Y23430097D01*
X5250000Y23439307D01*
X2100000Y23439307D01*
X2006492Y23430097D01*
X1916577Y23402822D01*
X1833711Y23358529D01*
X1761079Y23298921D01*
X1701471Y23226289D01*
X1657178Y23143423D01*
X1629903Y23053508D01*
X1620693Y22960000D01*
X502000Y22960000D01*
X502000Y25500000D01*
X1620693Y25500000D01*
X1620693Y24500000D01*
X1629903Y24406492D01*
X1657178Y24316577D01*
X1701471Y24233711D01*
X1761079Y24161079D01*
X1833711Y24101471D01*
X1916577Y24057178D01*
X2006492Y24029903D01*
X2100000Y24020693D01*
X5250000Y24020693D01*
X5343508Y24029903D01*
X5433423Y24057178D01*
X5516289Y24101471D01*
X5588921Y24161079D01*
X5648529Y24233711D01*
X5692822Y24316577D01*
X5720097Y24406492D01*
X5728791Y24494764D01*
X5772115Y24517921D01*
X5859974Y24590026D01*
X5878039Y24612038D01*
X6670693Y25404692D01*
X6670693Y24500000D01*
X6679903Y24406492D01*
X6707178Y24316577D01*
X6751471Y24233711D01*
X6811079Y24161079D01*
X6883711Y24101471D01*
X6966577Y24057178D01*
X7056492Y24029903D01*
X7150000Y24020693D01*
X10025616Y24020693D01*
X10020199Y23965689D01*
X10022989Y23937358D01*
X10022989Y23439307D01*
X7150000Y23439307D01*
X7056492Y23430097D01*
X6966577Y23402822D01*
X6883711Y23358529D01*
X6811079Y23298921D01*
X6751471Y23226289D01*
X6707178Y23143423D01*
X6679903Y23053508D01*
X6670693Y22960000D01*
X6670693Y21960000D01*
X6679903Y21866492D01*
X6707178Y21776577D01*
X6751471Y21693711D01*
X6811079Y21621079D01*
X6883711Y21561471D01*
X6966577Y21517178D01*
X7056492Y21489903D01*
X7150000Y21480693D01*
X9544694Y21480693D01*
X9361002Y21297001D01*
X6938327Y21297001D01*
X6909998Y21299791D01*
X6881669Y21297001D01*
X6881663Y21297001D01*
X6796887Y21288651D01*
X6688123Y21255658D01*
X6587884Y21202080D01*
X6558404Y21177886D01*
X6522034Y21148038D01*
X6522032Y21148036D01*
X6500025Y21129975D01*
X6481964Y21107968D01*
X5870997Y20497000D01*
X5721723Y20497000D01*
X5720097Y20513508D01*
X5692822Y20603423D01*
X5648529Y20686289D01*
X5588921Y20758921D01*
X5516289Y20818529D01*
X5433423Y20862822D01*
X5343508Y20890097D01*
X5250000Y20899307D01*
X2100000Y20899307D01*
X2006492Y20890097D01*
X1916577Y20862822D01*
X1833711Y20818529D01*
X1761079Y20758921D01*
X1701471Y20686289D01*
X1657178Y20603423D01*
X1629903Y20513508D01*
X1620693Y20420000D01*
X1620693Y19420000D01*
X1629903Y19326492D01*
X1657178Y19236577D01*
X1701471Y19153711D01*
X1761079Y19081079D01*
X1833711Y19021471D01*
X1916577Y18977178D01*
X2006492Y18949903D01*
X2100000Y18940693D01*
X5250000Y18940693D01*
X5343508Y18949903D01*
X5433423Y18977178D01*
X5516289Y19021471D01*
X5588921Y19081079D01*
X5648529Y19153711D01*
X5692822Y19236577D01*
X5720097Y19326492D01*
X5721723Y19343000D01*
X6081667Y19343000D01*
X6109998Y19340210D01*
X6138329Y19343000D01*
X6138334Y19343000D01*
X6168043Y19345926D01*
X6223109Y19351349D01*
X6267768Y19364897D01*
X6331874Y19384343D01*
X6432113Y19437921D01*
X6519972Y19510026D01*
X6538037Y19532038D01*
X6670693Y19664694D01*
X6670693Y19420000D01*
X6679903Y19326492D01*
X6707178Y19236577D01*
X6751471Y19153711D01*
X6811079Y19081079D01*
X6883711Y19021471D01*
X6966577Y18977178D01*
X7056492Y18949903D01*
X7150000Y18940693D01*
X10300000Y18940693D01*
X10393508Y18949903D01*
X10483423Y18977178D01*
X10566289Y19021471D01*
X10638921Y19081079D01*
X10698529Y19153711D01*
X10742822Y19236577D01*
X10770097Y19326492D01*
X10779307Y19420000D01*
X10779307Y20420000D01*
X10770556Y20508853D01*
X11387980Y21126276D01*
X11409986Y21144336D01*
X11431949Y21171097D01*
X11457376Y21202080D01*
X11482091Y21232195D01*
X11535669Y21332434D01*
X11568662Y21441198D01*
X11577012Y21525974D01*
X11577012Y21525980D01*
X11579802Y21554309D01*
X11577012Y21582640D01*
X11577012Y23337359D01*
X11579802Y23365690D01*
X11577000Y23394143D01*
X11577000Y23560999D01*
X12201453Y24185452D01*
X12207178Y24166577D01*
X12251471Y24083711D01*
X12311079Y24011079D01*
X12383711Y23951471D01*
X12466577Y23907178D01*
X12556492Y23879903D01*
X12650000Y23870693D01*
X13650000Y23870693D01*
X13743508Y23879903D01*
X13800000Y23897039D01*
X13856492Y23879903D01*
X13950000Y23870693D01*
X14950000Y23870693D01*
X15043508Y23879903D01*
X15133423Y23907178D01*
X15216289Y23951471D01*
X15288921Y24011079D01*
X15348529Y24083711D01*
X15366558Y24117441D01*
X15423000Y24060999D01*
X15423001Y23589002D01*
X15349142Y23515143D01*
X15348529Y23516289D01*
X15288921Y23588921D01*
X15216289Y23648529D01*
X15133423Y23692822D01*
X15043508Y23720097D01*
X14950000Y23729307D01*
X13950000Y23729307D01*
X13856492Y23720097D01*
X13800000Y23702961D01*
X13743508Y23720097D01*
X13650000Y23729307D01*
X12650000Y23729307D01*
X12556492Y23720097D01*
X12466577Y23692822D01*
X12383711Y23648529D01*
X12311079Y23588921D01*
X12251471Y23516289D01*
X12207178Y23433423D01*
X12179903Y23343508D01*
X12170693Y23250000D01*
X12170693Y23048570D01*
X12128124Y23035657D01*
X12027885Y22982079D01*
X11940026Y22909974D01*
X11921963Y22887964D01*
X11812038Y22778039D01*
X11790026Y22759974D01*
X11717921Y22672114D01*
X11664343Y22571875D01*
X11656832Y22547115D01*
X11631349Y22463111D01*
X11625334Y22402028D01*
X11623843Y22386888D01*
X11620210Y22350000D01*
X11623000Y22321669D01*
X11623001Y19539003D01*
X10424649Y18340651D01*
X10393508Y18350097D01*
X10300000Y18359307D01*
X7150000Y18359307D01*
X7056492Y18350097D01*
X6966577Y18322822D01*
X6883711Y18278529D01*
X6811079Y18218921D01*
X6751471Y18146289D01*
X6707178Y18063423D01*
X6679903Y17973508D01*
X6670693Y17880000D01*
X6670693Y17156999D01*
X5789003Y17156999D01*
X5729307Y17216695D01*
X5729307Y17880000D01*
X5720097Y17973508D01*
X5692822Y18063423D01*
X5648529Y18146289D01*
X5588921Y18218921D01*
X5516289Y18278529D01*
X5433423Y18322822D01*
X5343508Y18350097D01*
X5250000Y18359307D01*
X2100000Y18359307D01*
X2006492Y18350097D01*
X1916577Y18322822D01*
X1833711Y18278529D01*
X1761079Y18218921D01*
X1701471Y18146289D01*
X1657178Y18063423D01*
X1629903Y17973508D01*
X1620693Y17880000D01*
X1620693Y16880000D01*
X1629903Y16786492D01*
X1657178Y16696577D01*
X1701471Y16613711D01*
X1761079Y16541079D01*
X1833711Y16481471D01*
X1916577Y16437178D01*
X2006492Y16409903D01*
X2100000Y16400693D01*
X4913305Y16400693D01*
X5121966Y16192032D01*
X5140027Y16170025D01*
X5162034Y16151964D01*
X5162036Y16151962D01*
X5181981Y16135594D01*
X5227886Y16097920D01*
X5328125Y16044342D01*
X5436889Y16011349D01*
X5521665Y16002999D01*
X5521671Y16002999D01*
X5550000Y16000209D01*
X5578329Y16002999D01*
X10651668Y16002999D01*
X10679999Y16000209D01*
X10708330Y16002999D01*
X10708335Y16002999D01*
X10738044Y16005925D01*
X10793110Y16011348D01*
X10837769Y16024896D01*
X10901875Y16044342D01*
X11002114Y16097920D01*
X11089973Y16170025D01*
X11108039Y16192038D01*
X11387958Y16471958D01*
X11409974Y16490026D01*
X11482079Y16577885D01*
X11535657Y16678124D01*
X11551803Y16731350D01*
X11568651Y16786888D01*
X11574363Y16844886D01*
X11577000Y16871664D01*
X11577000Y16871669D01*
X11579790Y16900000D01*
X11577000Y16928331D01*
X11577000Y17295299D01*
X11651600Y17369899D01*
X11651601Y10841068D01*
X11640000Y10842211D01*
X11587093Y10837000D01*
X8672091Y10837000D01*
X8513871Y10821417D01*
X8310856Y10759833D01*
X8272455Y10739307D01*
X7410820Y10739307D01*
X7443459Y10903395D01*
X7443459Y11143805D01*
X7408273Y11320693D01*
X10300000Y11320693D01*
X10393508Y11329903D01*
X10483423Y11357178D01*
X10566289Y11401471D01*
X10638921Y11461079D01*
X10698529Y11533711D01*
X10742822Y11616577D01*
X10770097Y11706492D01*
X10779307Y11800000D01*
X10779307Y12800000D01*
X10770097Y12893508D01*
X10742822Y12983423D01*
X10698529Y13066289D01*
X10638921Y13138921D01*
X10566289Y13198529D01*
X10483423Y13242822D01*
X10393508Y13270097D01*
X10300000Y13279307D01*
X7150000Y13279307D01*
X7056492Y13270097D01*
X6966577Y13242822D01*
X6883711Y13198529D01*
X6811079Y13138921D01*
X6751471Y13066289D01*
X6707178Y12983423D01*
X6679903Y12893508D01*
X6670693Y12800000D01*
X6670693Y12159174D01*
X6578995Y12197157D01*
X6343205Y12244059D01*
X6102795Y12244059D01*
X5867005Y12197157D01*
X5729307Y12140120D01*
X5729307Y12800000D01*
X5720097Y12893508D01*
X5692822Y12983423D01*
X5648529Y13066289D01*
X5588921Y13138921D01*
X5516289Y13198529D01*
X5433423Y13242822D01*
X5343508Y13270097D01*
X5250000Y13279307D01*
X2100000Y13279307D01*
X2006492Y13270097D01*
X1916577Y13242822D01*
X1833711Y13198529D01*
X1761079Y13138921D01*
X1701471Y13066289D01*
X1657178Y12983423D01*
X1629903Y12893508D01*
X1620693Y12800000D01*
X1620693Y11800000D01*
X1629903Y11706492D01*
X1657178Y11616577D01*
X1701471Y11533711D01*
X1761079Y11461079D01*
X1833711Y11401471D01*
X1916577Y11357178D01*
X2006492Y11329903D01*
X2100000Y11320693D01*
X5037727Y11320693D01*
X5002541Y11143805D01*
X5002541Y10903395D01*
X5035180Y10739307D01*
X2100000Y10739307D01*
X2006492Y10730097D01*
X1916577Y10702822D01*
X1833711Y10658529D01*
X1761079Y10598921D01*
X1701471Y10526289D01*
X1657178Y10443423D01*
X1629903Y10353508D01*
X1620693Y10260000D01*
X1620693Y9260000D01*
X1629903Y9166492D01*
X1657178Y9076577D01*
X1701471Y8993711D01*
X1761079Y8921079D01*
X1833711Y8861471D01*
X1916577Y8817178D01*
X2006492Y8789903D01*
X2100000Y8780693D01*
X5250000Y8780693D01*
X5343508Y8789903D01*
X5433423Y8817178D01*
X5516289Y8861471D01*
X5588921Y8921079D01*
X5648529Y8993711D01*
X5692822Y9076577D01*
X5720097Y9166492D01*
X5729307Y9260000D01*
X5729307Y9907080D01*
X5867005Y9850043D01*
X6102795Y9803141D01*
X6343205Y9803141D01*
X6578995Y9850043D01*
X6670693Y9888026D01*
X6670693Y9260000D01*
X6679903Y9166492D01*
X6707178Y9076577D01*
X6751471Y8993711D01*
X6811079Y8921079D01*
X6883711Y8861471D01*
X6966577Y8817178D01*
X7056492Y8789903D01*
X7150000Y8780693D01*
X8272455Y8780693D01*
X8310856Y8760167D01*
X8513871Y8698583D01*
X8672091Y8683000D01*
X11193893Y8683000D01*
X12220693Y7656199D01*
X12220693Y7200000D01*
X12234706Y7057719D01*
X12276208Y6920906D01*
X12343603Y6794819D01*
X12434302Y6684302D01*
X12544819Y6593603D01*
X12670906Y6526208D01*
X12706423Y6515434D01*
X12558205Y6406802D01*
X12361336Y6192046D01*
X12210146Y5943009D01*
X12110446Y5669261D01*
X12108524Y5656890D01*
X12229845Y5427000D01*
X13573000Y5427000D01*
X13573000Y5447000D01*
X13827000Y5447000D01*
X13827000Y5427000D01*
X15170155Y5427000D01*
X15291476Y5656890D01*
X15289554Y5669261D01*
X15189854Y5943009D01*
X15038664Y6192046D01*
X14841795Y6406802D01*
X14693577Y6515434D01*
X14729094Y6526208D01*
X14855181Y6593603D01*
X14965698Y6684302D01*
X15056397Y6794819D01*
X15123792Y6920906D01*
X15165294Y7057719D01*
X15179307Y7200000D01*
X15179307Y7656200D01*
X16206108Y8683000D01*
X20893893Y8683000D01*
X21020693Y8556200D01*
X21020693Y6950000D01*
X21029903Y6856492D01*
X21057178Y6766577D01*
X21101471Y6683711D01*
X21161079Y6611079D01*
X21233711Y6551471D01*
X21316577Y6507178D01*
X21406492Y6479903D01*
X21500000Y6470693D01*
X23300000Y6470693D01*
X23393508Y6479903D01*
X23483423Y6507178D01*
X23566289Y6551471D01*
X23638921Y6611079D01*
X23698529Y6683711D01*
X23742822Y6766577D01*
X23770097Y6856492D01*
X23779307Y6950000D01*
X23779307Y8356200D01*
X24106108Y8683000D01*
X25100427Y8683000D01*
X25258647Y8698583D01*
X25461662Y8760167D01*
X25648762Y8860174D01*
X25812757Y8994761D01*
X25947344Y9158756D01*
X26047351Y9345856D01*
X26061412Y9392207D01*
X27072907Y10403702D01*
X27110186Y10434296D01*
X27232276Y10583064D01*
X27322997Y10752791D01*
X27373749Y10920097D01*
X27378863Y10936956D01*
X27397727Y11128482D01*
X27393000Y11176475D01*
X27393000Y12139649D01*
X27407911Y12154560D01*
X27547663Y12363714D01*
X27643926Y12596113D01*
X27693000Y12842826D01*
X27693000Y13094374D01*
X27643926Y13341087D01*
X27547663Y13573486D01*
X27407911Y13782640D01*
X27230040Y13960511D01*
X27020886Y14100263D01*
X26942300Y14132814D01*
X27032292Y14164997D01*
X27157514Y14231929D01*
X27229097Y14475898D01*
X26416000Y15288995D01*
X26401858Y15274852D01*
X26222253Y15454457D01*
X26236395Y15468600D01*
X26595605Y15468600D01*
X27408702Y14655503D01*
X27652671Y14727086D01*
X27773571Y14982596D01*
X27842300Y15256784D01*
X27856217Y15539112D01*
X27814787Y15818730D01*
X27719603Y16084892D01*
X27652671Y16210114D01*
X27408702Y16281697D01*
X26595605Y15468600D01*
X26236395Y15468600D01*
X26222253Y15482742D01*
X26401858Y15662347D01*
X26416000Y15648205D01*
X27229097Y16461302D01*
X27157514Y16705271D01*
X26902004Y16826171D01*
X26627816Y16894900D01*
X26345488Y16908817D01*
X26065870Y16867387D01*
X25799708Y16772203D01*
X25674486Y16705271D01*
X25602903Y16461304D01*
X25490600Y16573607D01*
X25490600Y18201747D01*
X25493028Y18226400D01*
X25483336Y18324809D01*
X25454631Y18419436D01*
X25408017Y18506645D01*
X25345284Y18583084D01*
X25268845Y18645817D01*
X25181636Y18692431D01*
X25087009Y18721136D01*
X25013253Y18728400D01*
X24988600Y18730828D01*
X24963947Y18728400D01*
X21916808Y18728400D01*
X21956141Y18823357D01*
X21986000Y18973472D01*
X21986000Y19126528D01*
X21956141Y19276643D01*
X21897569Y19418048D01*
X21812536Y19545309D01*
X21704309Y19653536D01*
X21577048Y19738569D01*
X21435643Y19797141D01*
X21285528Y19827000D01*
X21132472Y19827000D01*
X20982357Y19797141D01*
X20840952Y19738569D01*
X20713691Y19653536D01*
X20687155Y19627000D01*
X17389001Y19627000D01*
X17315461Y19700540D01*
X17282858Y19761537D01*
X17210753Y19849396D01*
X17188742Y19867460D01*
X17077004Y19979198D01*
X17077004Y22301528D01*
X24623036Y22301528D01*
X24623036Y22148472D01*
X24652895Y21998357D01*
X24711467Y21856952D01*
X24796500Y21729691D01*
X24823037Y21703154D01*
X24823036Y20689094D01*
X24820246Y20660762D01*
X24823036Y20632431D01*
X24823036Y20632427D01*
X24823177Y20631000D01*
X24831385Y20547651D01*
X24846225Y20498733D01*
X24864379Y20438887D01*
X24917957Y20338648D01*
X24990062Y20250788D01*
X25012074Y20232723D01*
X25953960Y19290837D01*
X25972025Y19268825D01*
X26059884Y19196720D01*
X26160123Y19143142D01*
X26268887Y19110149D01*
X26353663Y19101799D01*
X26353669Y19101799D01*
X26381998Y19099009D01*
X26410327Y19101799D01*
X28032200Y19101799D01*
X31070693Y16063306D01*
X31070693Y15250000D01*
X31079903Y15156492D01*
X31107178Y15066577D01*
X31151471Y14983711D01*
X31211079Y14911079D01*
X31283711Y14851471D01*
X31366577Y14807178D01*
X31456492Y14779903D01*
X31550000Y14770693D01*
X32550000Y14770693D01*
X32643508Y14779903D01*
X32700000Y14797039D01*
X32756492Y14779903D01*
X32850000Y14770693D01*
X33850000Y14770693D01*
X33943508Y14779903D01*
X34033423Y14807178D01*
X34116289Y14851471D01*
X34188921Y14911079D01*
X34248529Y14983711D01*
X34292822Y15066577D01*
X34320097Y15156492D01*
X34329307Y15250000D01*
X34329307Y15914000D01*
X36357928Y15914000D01*
X36370188Y15789518D01*
X36406498Y15669820D01*
X36465463Y15559506D01*
X36544815Y15462815D01*
X36641506Y15383463D01*
X36751820Y15324498D01*
X36871518Y15288188D01*
X36996000Y15275928D01*
X37560250Y15279000D01*
X37719000Y15437750D01*
X37719000Y16637000D01*
X36519750Y16637000D01*
X36361000Y16478250D01*
X36357928Y15914000D01*
X34329307Y15914000D01*
X34329307Y16750000D01*
X34320097Y16843508D01*
X34292822Y16933423D01*
X34248529Y17016289D01*
X34188921Y17088921D01*
X34116289Y17148529D01*
X34033423Y17192822D01*
X33943508Y17220097D01*
X33855236Y17228791D01*
X33832079Y17272115D01*
X33759974Y17359974D01*
X33746913Y17370693D01*
X33850000Y17370693D01*
X33943508Y17379903D01*
X34033423Y17407178D01*
X34116289Y17451471D01*
X34188921Y17511079D01*
X34248529Y17583711D01*
X34292822Y17666577D01*
X34320097Y17756492D01*
X34329307Y17850000D01*
X34329307Y19350000D01*
X34320097Y19443508D01*
X34292822Y19533423D01*
X34277705Y19561704D01*
X35187963Y20471962D01*
X35209974Y20490026D01*
X35282079Y20577885D01*
X35335657Y20678124D01*
X35355491Y20743508D01*
X35368651Y20786888D01*
X35379791Y20900000D01*
X35377000Y20928339D01*
X35377000Y21006999D01*
X36606002Y19777997D01*
X36569996Y19691072D01*
X36519000Y19434698D01*
X36519000Y19173302D01*
X36569996Y18916928D01*
X36670028Y18675430D01*
X36815252Y18458087D01*
X37000087Y18273252D01*
X37032079Y18251876D01*
X36996000Y18252072D01*
X36871518Y18239812D01*
X36751820Y18203502D01*
X36641506Y18144537D01*
X36544815Y18065185D01*
X36465463Y17968494D01*
X36406498Y17858180D01*
X36370188Y17738482D01*
X36357928Y17614000D01*
X36361000Y17049750D01*
X36519750Y16891000D01*
X37719000Y16891000D01*
X37719000Y16911000D01*
X37973000Y16911000D01*
X37973000Y16891000D01*
X37993000Y16891000D01*
X37993000Y16637000D01*
X37973000Y16637000D01*
X37973000Y15437750D01*
X38131750Y15279000D01*
X38696000Y15275928D01*
X38820482Y15288188D01*
X38940180Y15324498D01*
X39050494Y15383463D01*
X39147185Y15462815D01*
X39226537Y15559506D01*
X39285502Y15669820D01*
X39321812Y15789518D01*
X39334072Y15914000D01*
X39333876Y15950079D01*
X39355252Y15918087D01*
X39540087Y15733252D01*
X39757430Y15588028D01*
X39998928Y15487996D01*
X40255302Y15437000D01*
X40516698Y15437000D01*
X40773072Y15487996D01*
X41014570Y15588028D01*
X41231913Y15733252D01*
X41416748Y15918087D01*
X41561972Y16135430D01*
X41656000Y16362433D01*
X41750028Y16135430D01*
X41895252Y15918087D01*
X42080087Y15733252D01*
X42297430Y15588028D01*
X42538928Y15487996D01*
X42795302Y15437000D01*
X43056698Y15437000D01*
X43313072Y15487996D01*
X43554570Y15588028D01*
X43771913Y15733252D01*
X43956748Y15918087D01*
X44101972Y16135430D01*
X44202004Y16376928D01*
X44253000Y16633302D01*
X44253000Y16894698D01*
X44202004Y17151072D01*
X44101972Y17392570D01*
X43956748Y17609913D01*
X43771913Y17794748D01*
X43554570Y17939972D01*
X43327567Y18034000D01*
X43554570Y18128028D01*
X43771913Y18273252D01*
X43956748Y18458087D01*
X44101972Y18675430D01*
X44202004Y18916928D01*
X44253000Y19173302D01*
X44253000Y19434698D01*
X44202004Y19691072D01*
X44101972Y19932570D01*
X43956748Y20149913D01*
X43771913Y20334748D01*
X43554570Y20479972D01*
X43313072Y20580004D01*
X43056698Y20631000D01*
X42795302Y20631000D01*
X42538928Y20580004D01*
X42297430Y20479972D01*
X42080087Y20334748D01*
X41895252Y20149913D01*
X41750028Y19932570D01*
X41656000Y19705567D01*
X41561972Y19932570D01*
X41416748Y20149913D01*
X41231913Y20334748D01*
X41014570Y20479972D01*
X40773072Y20580004D01*
X40516698Y20631000D01*
X40255302Y20631000D01*
X39998928Y20580004D01*
X39757430Y20479972D01*
X39540087Y20334748D01*
X39355252Y20149913D01*
X39210028Y19932570D01*
X39116000Y19705567D01*
X39021972Y19932570D01*
X38876748Y20149913D01*
X38691913Y20334748D01*
X38474570Y20479972D01*
X38233072Y20580004D01*
X37976698Y20631000D01*
X37715302Y20631000D01*
X37458928Y20580004D01*
X37442713Y20573288D01*
X34482001Y23534000D01*
X36357928Y23534000D01*
X36370188Y23409518D01*
X36406498Y23289820D01*
X36465463Y23179506D01*
X36544815Y23082815D01*
X36641506Y23003463D01*
X36751820Y22944498D01*
X36871518Y22908188D01*
X36996000Y22895928D01*
X37560250Y22899000D01*
X37719000Y23057750D01*
X37719000Y24257000D01*
X36519750Y24257000D01*
X36361000Y24098250D01*
X36357928Y23534000D01*
X34482001Y23534000D01*
X34329307Y23686694D01*
X34329307Y24550000D01*
X34320097Y24643508D01*
X34292822Y24733423D01*
X34248529Y24816289D01*
X34188921Y24888921D01*
X34116289Y24948529D01*
X34033423Y24992822D01*
X33943508Y25020097D01*
X33850000Y25029307D01*
X32850000Y25029307D01*
X32756492Y25020097D01*
X32700000Y25002961D01*
X32643508Y25020097D01*
X32550000Y25029307D01*
X31550000Y25029307D01*
X31456492Y25020097D01*
X31366577Y24992822D01*
X31283711Y24948529D01*
X31211079Y24888921D01*
X31151471Y24816289D01*
X31107178Y24733423D01*
X31079903Y24643508D01*
X31070693Y24550000D01*
X31070693Y23386694D01*
X29161003Y21477004D01*
X28157045Y21477004D01*
X28130509Y21503540D01*
X28003248Y21588573D01*
X27861843Y21647145D01*
X27711728Y21677004D01*
X27558672Y21677004D01*
X27408557Y21647145D01*
X27267152Y21588573D01*
X27139891Y21503540D01*
X27031664Y21395313D01*
X26946631Y21268052D01*
X26888059Y21126647D01*
X26869117Y21031416D01*
X26746528Y21055800D01*
X26593472Y21055800D01*
X26443357Y21025941D01*
X26301952Y20967369D01*
X26174691Y20882336D01*
X26084577Y20792222D01*
X25977036Y20899763D01*
X25977036Y21703155D01*
X26003572Y21729691D01*
X26088605Y21856952D01*
X26147177Y21998357D01*
X26177036Y22148472D01*
X26177036Y22301528D01*
X26147177Y22451643D01*
X26088605Y22593048D01*
X26003572Y22720309D01*
X25895345Y22828536D01*
X25768084Y22913569D01*
X25626679Y22972141D01*
X25476564Y23002000D01*
X25323508Y23002000D01*
X25173393Y22972141D01*
X25031988Y22913569D01*
X24904727Y22828536D01*
X24796500Y22720309D01*
X24711467Y22593048D01*
X24652895Y22451643D01*
X24623036Y22301528D01*
X17077004Y22301528D01*
X17077004Y25234000D01*
X36357928Y25234000D01*
X36361000Y24669750D01*
X36519750Y24511000D01*
X37719000Y24511000D01*
X37719000Y24531000D01*
X37973000Y24531000D01*
X37973000Y24511000D01*
X37993000Y24511000D01*
X37993000Y24257000D01*
X37973000Y24257000D01*
X37973000Y23057750D01*
X38131750Y22899000D01*
X38696000Y22895928D01*
X38820482Y22908188D01*
X38940180Y22944498D01*
X39050494Y23003463D01*
X39147185Y23082815D01*
X39226537Y23179506D01*
X39285502Y23289820D01*
X39321812Y23409518D01*
X39334072Y23534000D01*
X39333876Y23570079D01*
X39355252Y23538087D01*
X39540087Y23353252D01*
X39757430Y23208028D01*
X39998928Y23107996D01*
X40255302Y23057000D01*
X40516698Y23057000D01*
X40773072Y23107996D01*
X41014570Y23208028D01*
X41231913Y23353252D01*
X41416748Y23538087D01*
X41561972Y23755430D01*
X41656000Y23982433D01*
X41750028Y23755430D01*
X41895252Y23538087D01*
X42080087Y23353252D01*
X42297430Y23208028D01*
X42538928Y23107996D01*
X42795302Y23057000D01*
X43056698Y23057000D01*
X43313072Y23107996D01*
X43554570Y23208028D01*
X43771913Y23353252D01*
X43956748Y23538087D01*
X44101972Y23755430D01*
X44202004Y23996928D01*
X44253000Y24253302D01*
X44253000Y24514698D01*
X44202004Y24771072D01*
X44101972Y25012570D01*
X43956748Y25229913D01*
X43771913Y25414748D01*
X43554570Y25559972D01*
X43327567Y25654000D01*
X43554570Y25748028D01*
X43771913Y25893252D01*
X43956748Y26078087D01*
X44101972Y26295430D01*
X44202004Y26536928D01*
X44253000Y26793302D01*
X44253000Y27054698D01*
X44202004Y27311072D01*
X44101972Y27552570D01*
X43956748Y27769913D01*
X43771913Y27954748D01*
X43554570Y28099972D01*
X43313072Y28200004D01*
X43056698Y28251000D01*
X42795302Y28251000D01*
X42538928Y28200004D01*
X42297430Y28099972D01*
X42080087Y27954748D01*
X41895252Y27769913D01*
X41750028Y27552570D01*
X41656000Y27325567D01*
X41561972Y27552570D01*
X41416748Y27769913D01*
X41231913Y27954748D01*
X41014570Y28099972D01*
X40773072Y28200004D01*
X40516698Y28251000D01*
X40255302Y28251000D01*
X39998928Y28200004D01*
X39757430Y28099972D01*
X39540087Y27954748D01*
X39355252Y27769913D01*
X39210028Y27552570D01*
X39116000Y27325567D01*
X39021972Y27552570D01*
X38876748Y27769913D01*
X38691913Y27954748D01*
X38474570Y28099972D01*
X38233072Y28200004D01*
X37976698Y28251000D01*
X37715302Y28251000D01*
X37458928Y28200004D01*
X37217430Y28099972D01*
X37000087Y27954748D01*
X36815252Y27769913D01*
X36670028Y27552570D01*
X36569996Y27311072D01*
X36519000Y27054698D01*
X36519000Y26793302D01*
X36569996Y26536928D01*
X36670028Y26295430D01*
X36815252Y26078087D01*
X37000087Y25893252D01*
X37032079Y25871876D01*
X36996000Y25872072D01*
X36871518Y25859812D01*
X36751820Y25823502D01*
X36641506Y25764537D01*
X36544815Y25685185D01*
X36465463Y25588494D01*
X36406498Y25478180D01*
X36370188Y25358482D01*
X36357928Y25234000D01*
X17077004Y25234000D01*
X17077004Y25521665D01*
X17079794Y25549996D01*
X17076957Y25578810D01*
X17070539Y25643973D01*
X17068655Y25663108D01*
X17040513Y25755877D01*
X17035661Y25771872D01*
X16982083Y25872111D01*
X16909978Y25959970D01*
X16887967Y25978034D01*
X15429307Y27436694D01*
X15429307Y28550000D01*
X15420097Y28643508D01*
X15392822Y28733423D01*
X15348529Y28816289D01*
X15288921Y28888921D01*
X15216289Y28948529D01*
X15133423Y28992822D01*
X15043508Y29020097D01*
X14950000Y29029307D01*
X13950000Y29029307D01*
X13856492Y29020097D01*
X13800000Y29002961D01*
X13743508Y29020097D01*
X13650000Y29029307D01*
X13067007Y29029307D01*
X15383172Y31345472D01*
X35273000Y31345472D01*
X35273000Y31054528D01*
X35329760Y30769175D01*
X35441099Y30500378D01*
X35602739Y30258467D01*
X35808467Y30052739D01*
X36050378Y29891099D01*
X36319175Y29779760D01*
X36604528Y29723000D01*
X36895472Y29723000D01*
X37180825Y29779760D01*
X37449622Y29891099D01*
X37691533Y30052739D01*
X37897261Y30258467D01*
X38058901Y30500378D01*
X38170240Y30769175D01*
X38227000Y31054528D01*
X38227000Y31345472D01*
X41273000Y31345472D01*
X41273000Y31054528D01*
X41329760Y30769175D01*
X41441099Y30500378D01*
X41602739Y30258467D01*
X41808467Y30052739D01*
X42050378Y29891099D01*
X42319175Y29779760D01*
X42604528Y29723000D01*
X42895472Y29723000D01*
X43180825Y29779760D01*
X43449622Y29891099D01*
X43691533Y30052739D01*
X43897261Y30258467D01*
X44058901Y30500378D01*
X44170240Y30769175D01*
X44227000Y31054528D01*
X44227000Y31345472D01*
X44170240Y31630825D01*
X44058901Y31899622D01*
X43897261Y32141533D01*
X43691533Y32347261D01*
X43449622Y32508901D01*
X43180825Y32620240D01*
X42895472Y32677000D01*
X42604528Y32677000D01*
X42319175Y32620240D01*
X42050378Y32508901D01*
X41808467Y32347261D01*
X41602739Y32141533D01*
X41441099Y31899622D01*
X41329760Y31630825D01*
X41273000Y31345472D01*
X38227000Y31345472D01*
X38170240Y31630825D01*
X38058901Y31899622D01*
X38015707Y31964266D01*
X38112928Y31923996D01*
X38369302Y31873000D01*
X38630698Y31873000D01*
X38887072Y31923996D01*
X39128570Y32024028D01*
X39345913Y32169252D01*
X39530748Y32354087D01*
X39675972Y32571430D01*
X39776004Y32812928D01*
X39827000Y33069302D01*
X39827000Y33330698D01*
X39776004Y33587072D01*
X39675972Y33828570D01*
X39530748Y34045913D01*
X39345913Y34230748D01*
X39128570Y34375972D01*
X38887072Y34476004D01*
X38630698Y34527000D01*
X38369302Y34527000D01*
X38112928Y34476004D01*
X37871430Y34375972D01*
X37654087Y34230748D01*
X37469252Y34045913D01*
X37324028Y33828570D01*
X37223996Y33587072D01*
X37173000Y33330698D01*
X37173000Y33069302D01*
X37223996Y32812928D01*
X37324028Y32571430D01*
X37333735Y32556903D01*
X37180825Y32620240D01*
X36895472Y32677000D01*
X36604528Y32677000D01*
X36319175Y32620240D01*
X36050378Y32508901D01*
X35808467Y32347261D01*
X35602739Y32141533D01*
X35441099Y31899622D01*
X35329760Y31630825D01*
X35273000Y31345472D01*
X15383172Y31345472D01*
X18472762Y34435062D01*
X18494774Y34453127D01*
X18566879Y34540986D01*
X18620457Y34641225D01*
X18653450Y34749989D01*
X18661800Y34834765D01*
X18661800Y34834771D01*
X18664590Y34863100D01*
X18661800Y34891429D01*
X18661800Y36104953D01*
X18688336Y36131489D01*
X18773369Y36258750D01*
X18831941Y36400155D01*
X18861800Y36550270D01*
X18861800Y36703326D01*
X18831941Y36853441D01*
X18773369Y36994846D01*
X18688336Y37122107D01*
X18580109Y37230334D01*
X18452848Y37315367D01*
X18415836Y37330698D01*
X37173000Y37330698D01*
X37173000Y37069302D01*
X37223996Y36812928D01*
X37324028Y36571430D01*
X37469252Y36354087D01*
X37654087Y36169252D01*
X37871430Y36024028D01*
X38112928Y35923996D01*
X38369302Y35873000D01*
X38630698Y35873000D01*
X38887072Y35923996D01*
X39128570Y36024028D01*
X39345913Y36169252D01*
X39530748Y36354087D01*
X39675972Y36571430D01*
X39776004Y36812928D01*
X39827000Y37069302D01*
X39827000Y37330698D01*
X39776004Y37587072D01*
X39675972Y37828570D01*
X39530748Y38045913D01*
X39345913Y38230748D01*
X39128570Y38375972D01*
X38887072Y38476004D01*
X38630698Y38527000D01*
X38369302Y38527000D01*
X38112928Y38476004D01*
X37871430Y38375972D01*
X37654087Y38230748D01*
X37469252Y38045913D01*
X37324028Y37828570D01*
X37223996Y37587072D01*
X37173000Y37330698D01*
X18415836Y37330698D01*
X18311443Y37373939D01*
X18161328Y37403798D01*
X18049000Y37403798D01*
X18049000Y37516128D01*
X18019141Y37666243D01*
X17960569Y37807648D01*
X17875536Y37934909D01*
X17767309Y38043136D01*
X17640048Y38128169D01*
X17498643Y38186741D01*
X17348528Y38216600D01*
X17195472Y38216600D01*
X17045357Y38186741D01*
X16903952Y38128169D01*
X16776691Y38043136D01*
X16668464Y37934909D01*
X16583431Y37807648D01*
X16524859Y37666243D01*
X16495000Y37516128D01*
X16495000Y37363072D01*
X16524859Y37212957D01*
X16583431Y37071552D01*
X16668464Y36944291D01*
X16695000Y36917755D01*
X16695001Y34855003D01*
X12066967Y30226969D01*
X12047141Y30326643D01*
X11988569Y30468048D01*
X11903536Y30595309D01*
X11795309Y30703536D01*
X11668048Y30788569D01*
X11526643Y30847141D01*
X11376528Y30877000D01*
X11223472Y30877000D01*
X11073357Y30847141D01*
X10931952Y30788569D01*
X10804691Y30703536D01*
X10770506Y30669351D01*
X10770097Y30673508D01*
X10742822Y30763423D01*
X10698529Y30846289D01*
X10638921Y30918921D01*
X10566289Y30978529D01*
X10483423Y31022822D01*
X10393508Y31050097D01*
X10300000Y31059307D01*
X7150000Y31059307D01*
X7056492Y31050097D01*
X6966577Y31022822D01*
X6883711Y30978529D01*
X6811079Y30918921D01*
X6751471Y30846289D01*
X6707178Y30763423D01*
X6679903Y30673508D01*
X6670693Y30580000D01*
X6670693Y29580000D01*
X6679903Y29486492D01*
X6707178Y29396577D01*
X6751471Y29313711D01*
X6811079Y29241079D01*
X6883711Y29181471D01*
X6966577Y29137178D01*
X7056492Y29109903D01*
X7150000Y29100693D01*
X10300000Y29100693D01*
X10393508Y29109903D01*
X10483423Y29137178D01*
X10566289Y29181471D01*
X10638921Y29241079D01*
X10698529Y29313711D01*
X10742822Y29396577D01*
X10770097Y29486492D01*
X10771723Y29503000D01*
X10798155Y29503000D01*
X10804691Y29496464D01*
X10931952Y29411431D01*
X11073357Y29352859D01*
X11173031Y29333033D01*
X10499883Y28659885D01*
X10477871Y28641820D01*
X10405766Y28553960D01*
X10382881Y28511144D01*
X10300000Y28519307D01*
X7150000Y28519307D01*
X7056492Y28510097D01*
X6966577Y28482822D01*
X6883711Y28438529D01*
X6811079Y28378921D01*
X6751471Y28306289D01*
X6707178Y28223423D01*
X6679903Y28133508D01*
X6670693Y28040000D01*
X6670693Y27040000D01*
X6678465Y26961089D01*
X6642710Y26950243D01*
X6542471Y26896665D01*
X6454612Y26824560D01*
X6436547Y26802548D01*
X5525208Y25891209D01*
X5516289Y25898529D01*
X5433423Y25942822D01*
X5343508Y25970097D01*
X5250000Y25979307D01*
X2100000Y25979307D01*
X2006492Y25970097D01*
X1916577Y25942822D01*
X1833711Y25898529D01*
X1761079Y25838921D01*
X1701471Y25766289D01*
X1657178Y25683423D01*
X1629903Y25593508D01*
X1620693Y25500000D01*
X502000Y25500000D01*
X502000Y28040000D01*
X1620693Y28040000D01*
X1620693Y27040000D01*
X1629903Y26946492D01*
X1657178Y26856577D01*
X1701471Y26773711D01*
X1761079Y26701079D01*
X1833711Y26641471D01*
X1916577Y26597178D01*
X2006492Y26569903D01*
X2100000Y26560693D01*
X5250000Y26560693D01*
X5343508Y26569903D01*
X5433423Y26597178D01*
X5516289Y26641471D01*
X5588921Y26701079D01*
X5648529Y26773711D01*
X5692822Y26856577D01*
X5720097Y26946492D01*
X5729307Y27040000D01*
X5729307Y28040000D01*
X5720097Y28133508D01*
X5692822Y28223423D01*
X5648529Y28306289D01*
X5588921Y28378921D01*
X5516289Y28438529D01*
X5433423Y28482822D01*
X5343508Y28510097D01*
X5250000Y28519307D01*
X2100000Y28519307D01*
X2006492Y28510097D01*
X1916577Y28482822D01*
X1833711Y28438529D01*
X1761079Y28378921D01*
X1701471Y28306289D01*
X1657178Y28223423D01*
X1629903Y28133508D01*
X1620693Y28040000D01*
X502000Y28040000D01*
X502000Y30580000D01*
X1620693Y30580000D01*
X1620693Y29580000D01*
X1629903Y29486492D01*
X1657178Y29396577D01*
X1701471Y29313711D01*
X1761079Y29241079D01*
X1833711Y29181471D01*
X1916577Y29137178D01*
X2006492Y29109903D01*
X2100000Y29100693D01*
X5250000Y29100693D01*
X5343508Y29109903D01*
X5433423Y29137178D01*
X5516289Y29181471D01*
X5588921Y29241079D01*
X5648529Y29313711D01*
X5692822Y29396577D01*
X5720097Y29486492D01*
X5729307Y29580000D01*
X5729307Y30580000D01*
X5720097Y30673508D01*
X5692822Y30763423D01*
X5648529Y30846289D01*
X5588921Y30918921D01*
X5516289Y30978529D01*
X5433423Y31022822D01*
X5343508Y31050097D01*
X5250000Y31059307D01*
X2100000Y31059307D01*
X2006492Y31050097D01*
X1916577Y31022822D01*
X1833711Y30978529D01*
X1761079Y30918921D01*
X1701471Y30846289D01*
X1657178Y30763423D01*
X1629903Y30673508D01*
X1620693Y30580000D01*
X502000Y30580000D01*
X502000Y33120000D01*
X1620693Y33120000D01*
X1620693Y32120000D01*
X1629903Y32026492D01*
X1657178Y31936577D01*
X1701471Y31853711D01*
X1761079Y31781079D01*
X1833711Y31721471D01*
X1916577Y31677178D01*
X2006492Y31649903D01*
X2100000Y31640693D01*
X5250000Y31640693D01*
X5343508Y31649903D01*
X5433423Y31677178D01*
X5516289Y31721471D01*
X5588921Y31781079D01*
X5648529Y31853711D01*
X5692822Y31936577D01*
X5720097Y32026492D01*
X5729307Y32120000D01*
X5729307Y33120000D01*
X5720097Y33213508D01*
X5692822Y33303423D01*
X5648529Y33386289D01*
X5588921Y33458921D01*
X5516289Y33518529D01*
X5433423Y33562822D01*
X5343508Y33590097D01*
X5250000Y33599307D01*
X2100000Y33599307D01*
X2006492Y33590097D01*
X1916577Y33562822D01*
X1833711Y33518529D01*
X1761079Y33458921D01*
X1701471Y33386289D01*
X1657178Y33303423D01*
X1629903Y33213508D01*
X1620693Y33120000D01*
X502000Y33120000D01*
X502000Y35660000D01*
X1620693Y35660000D01*
X1620693Y34660000D01*
X1629903Y34566492D01*
X1657178Y34476577D01*
X1701471Y34393711D01*
X1761079Y34321079D01*
X1833711Y34261471D01*
X1916577Y34217178D01*
X2006492Y34189903D01*
X2100000Y34180693D01*
X5250000Y34180693D01*
X5343508Y34189903D01*
X5433423Y34217178D01*
X5516289Y34261471D01*
X5588921Y34321079D01*
X5648529Y34393711D01*
X5692822Y34476577D01*
X5720097Y34566492D01*
X5729307Y34660000D01*
X5729307Y35660000D01*
X5720097Y35753508D01*
X5692822Y35843423D01*
X5648529Y35926289D01*
X5588921Y35998921D01*
X5516289Y36058529D01*
X5433423Y36102822D01*
X5343508Y36130097D01*
X5250000Y36139307D01*
X2100000Y36139307D01*
X2006492Y36130097D01*
X1916577Y36102822D01*
X1833711Y36058529D01*
X1761079Y35998921D01*
X1701471Y35926289D01*
X1657178Y35843423D01*
X1629903Y35753508D01*
X1620693Y35660000D01*
X502000Y35660000D01*
X502000Y37200000D01*
X1461928Y37200000D01*
X1474188Y37075518D01*
X1510498Y36955820D01*
X1569463Y36845506D01*
X1648815Y36748815D01*
X1745506Y36669463D01*
X1855820Y36610498D01*
X1975518Y36574188D01*
X2100000Y36561928D01*
X3389250Y36565000D01*
X3548000Y36723750D01*
X3548000Y37573000D01*
X3802000Y37573000D01*
X3802000Y36723750D01*
X3960750Y36565000D01*
X5250000Y36561928D01*
X5374482Y36574188D01*
X5494180Y36610498D01*
X5604494Y36669463D01*
X5701185Y36748815D01*
X5780537Y36845506D01*
X5839502Y36955820D01*
X5875812Y37075518D01*
X5888072Y37200000D01*
X5885000Y37414250D01*
X5726250Y37573000D01*
X3802000Y37573000D01*
X3548000Y37573000D01*
X1623750Y37573000D01*
X1465000Y37414250D01*
X1461928Y37200000D01*
X502000Y37200000D01*
X502000Y38200000D01*
X1461928Y38200000D01*
X1465000Y37985750D01*
X1623750Y37827000D01*
X3548000Y37827000D01*
X3548000Y38676250D01*
X3389250Y38835000D01*
X2100000Y38838072D01*
X1975518Y38825812D01*
X1855820Y38789502D01*
X1745506Y38730537D01*
X1648815Y38651185D01*
X1569463Y38554494D01*
X1510498Y38444180D01*
X1474188Y38324482D01*
X1461928Y38200000D01*
X502000Y38200000D01*
X502000Y39495769D01*
X524653Y39498000D01*
X598409Y39505264D01*
X693036Y39533969D01*
X780245Y39580583D01*
X856684Y39643316D01*
X919417Y39719755D01*
X930238Y39740000D01*
X1461928Y39740000D01*
X1474188Y39615518D01*
X1510498Y39495820D01*
X1569463Y39385506D01*
X1648815Y39288815D01*
X1745506Y39209463D01*
X1855820Y39150498D01*
X1975518Y39114188D01*
X2100000Y39101928D01*
X3389250Y39105000D01*
X3548000Y39263750D01*
X3548000Y40113000D01*
X3802000Y40113000D01*
X3802000Y39263750D01*
X3960750Y39105000D01*
X4979514Y39102573D01*
X4977141Y39090642D01*
X4977141Y38850232D01*
X4979688Y38837428D01*
X3960750Y38835000D01*
X3802000Y38676250D01*
X3802000Y37827000D01*
X5726250Y37827000D01*
X5738739Y37839489D01*
X5841605Y37796880D01*
X6077395Y37749978D01*
X6317805Y37749978D01*
X6553595Y37796880D01*
X6670693Y37845384D01*
X6670693Y37200000D01*
X6679903Y37106492D01*
X6707178Y37016577D01*
X6751471Y36933711D01*
X6811079Y36861079D01*
X6883711Y36801471D01*
X6966577Y36757178D01*
X7056492Y36729903D01*
X7150000Y36720693D01*
X10300000Y36720693D01*
X10393508Y36729903D01*
X10483423Y36757178D01*
X10566289Y36801471D01*
X10638921Y36861079D01*
X10698529Y36933711D01*
X10742822Y37016577D01*
X10770097Y37106492D01*
X10779307Y37200000D01*
X10779307Y38200000D01*
X10770097Y38293508D01*
X10742822Y38383423D01*
X10698529Y38466289D01*
X10638921Y38538921D01*
X10566289Y38598529D01*
X10483423Y38642822D01*
X10393508Y38670097D01*
X10300000Y38679307D01*
X7384060Y38679307D01*
X7418059Y38850232D01*
X7418059Y39090642D01*
X7384233Y39260693D01*
X10300000Y39260693D01*
X10393508Y39269903D01*
X10483423Y39297178D01*
X10566289Y39341471D01*
X10638921Y39401079D01*
X10698529Y39473711D01*
X10741979Y39555000D01*
X12754799Y39555000D01*
X11346838Y38147039D01*
X11324826Y38128974D01*
X11252721Y38041114D01*
X11199143Y37940875D01*
X11193320Y37921679D01*
X11166149Y37832111D01*
X11162680Y37796880D01*
X11158061Y37749978D01*
X11155010Y37719000D01*
X11157800Y37690669D01*
X11157801Y35443402D01*
X10779307Y35064908D01*
X10779307Y35660000D01*
X10770097Y35753508D01*
X10742822Y35843423D01*
X10698529Y35926289D01*
X10638921Y35998921D01*
X10566289Y36058529D01*
X10483423Y36102822D01*
X10393508Y36130097D01*
X10300000Y36139307D01*
X7150000Y36139307D01*
X7056492Y36130097D01*
X6966577Y36102822D01*
X6883711Y36058529D01*
X6811079Y35998921D01*
X6751471Y35926289D01*
X6707178Y35843423D01*
X6679903Y35753508D01*
X6670693Y35660000D01*
X6670693Y34660000D01*
X6679903Y34566492D01*
X6707178Y34476577D01*
X6751471Y34393711D01*
X6811079Y34321079D01*
X6883711Y34261471D01*
X6966577Y34217178D01*
X7056492Y34189903D01*
X7150000Y34180693D01*
X9895092Y34180693D01*
X9313706Y33599307D01*
X7150000Y33599307D01*
X7056492Y33590097D01*
X6966577Y33562822D01*
X6883711Y33518529D01*
X6811079Y33458921D01*
X6751471Y33386289D01*
X6707178Y33303423D01*
X6679903Y33213508D01*
X6670693Y33120000D01*
X6670693Y32120000D01*
X6679903Y32026492D01*
X6707178Y31936577D01*
X6751471Y31853711D01*
X6811079Y31781079D01*
X6883711Y31721471D01*
X6966577Y31677178D01*
X7056492Y31649903D01*
X7150000Y31640693D01*
X10300000Y31640693D01*
X10393508Y31649903D01*
X10483423Y31677178D01*
X10566289Y31721471D01*
X10638921Y31781079D01*
X10698529Y31853711D01*
X10742822Y31936577D01*
X10770097Y32026492D01*
X10779307Y32120000D01*
X10779307Y33120000D01*
X10770097Y33213508D01*
X10742822Y33303423D01*
X10710428Y33364027D01*
X12122762Y34776361D01*
X12144774Y34794426D01*
X12216879Y34882285D01*
X12256616Y34956628D01*
X12270457Y34982523D01*
X12303451Y35091288D01*
X12314591Y35204400D01*
X12311800Y35232739D01*
X12311800Y37479999D01*
X13986790Y39154989D01*
X28045158Y39154989D01*
X28073489Y39152199D01*
X28101820Y39154989D01*
X28101825Y39154989D01*
X28131534Y39157915D01*
X28186600Y39163338D01*
X28231259Y39176886D01*
X28295365Y39196332D01*
X28395604Y39249910D01*
X28483463Y39322015D01*
X28501528Y39344027D01*
X32803194Y43645693D01*
X33350001Y43645693D01*
X33492282Y43659706D01*
X33629094Y43701208D01*
X33755182Y43768603D01*
X33865698Y43859302D01*
X33956397Y43969818D01*
X34023792Y44095906D01*
X34065294Y44232718D01*
X34079307Y44374999D01*
X34079307Y45625001D01*
X34065294Y45767282D01*
X34023792Y45904094D01*
X33956397Y46030182D01*
X33865698Y46140698D01*
X33755182Y46231397D01*
X33629094Y46298792D01*
X33492282Y46340294D01*
X33350001Y46354307D01*
X32649999Y46354307D01*
X32507718Y46340294D01*
X32370906Y46298792D01*
X32244818Y46231397D01*
X32134302Y46140698D01*
X32043603Y46030182D01*
X31976208Y45904094D01*
X31943164Y45795164D01*
X31899826Y45876244D01*
X31765239Y46040239D01*
X31601244Y46174826D01*
X31414144Y46274833D01*
X31211129Y46336417D01*
X31000000Y46357211D01*
X30788872Y46336417D01*
X30585857Y46274833D01*
X30398757Y46174826D01*
X30234762Y46040239D01*
X30100175Y45876244D01*
X30000168Y45689144D01*
X30000000Y45688591D01*
X29999833Y45689143D01*
X29899826Y45876244D01*
X29765239Y46040239D01*
X29601244Y46174826D01*
X29414144Y46274833D01*
X29211129Y46336417D01*
X29000000Y46357211D01*
X28788872Y46336417D01*
X28585857Y46274833D01*
X28398757Y46174826D01*
X28234762Y46040239D01*
X28100175Y45876244D01*
X28093158Y45863115D01*
X28092390Y45864946D01*
X27956307Y46066725D01*
X27783474Y46238078D01*
X27580533Y46372421D01*
X27355282Y46464591D01*
X27317609Y46468462D01*
X27127000Y46343731D01*
X27127000Y45127000D01*
X27147000Y45127000D01*
X27147000Y44873000D01*
X27127000Y44873000D01*
X27127000Y43656269D01*
X27317609Y43531538D01*
X27355282Y43535409D01*
X27580533Y43627579D01*
X27783474Y43761922D01*
X27956307Y43933275D01*
X28092390Y44135054D01*
X28093157Y44136884D01*
X28100174Y44123756D01*
X28234761Y43959761D01*
X28398756Y43825174D01*
X28585856Y43725167D01*
X28788871Y43663583D01*
X29000000Y43642789D01*
X29211128Y43663583D01*
X29414143Y43725167D01*
X29601244Y43825174D01*
X29765239Y43959761D01*
X29899826Y44123756D01*
X29999833Y44310856D01*
X30000000Y44311407D01*
X30000167Y44310857D01*
X30100174Y44123756D01*
X30234761Y43959761D01*
X30398756Y43825174D01*
X30423001Y43812215D01*
X30423001Y43671214D01*
X27460787Y40709000D01*
X10838052Y40709000D01*
X10822115Y40722079D01*
X10778791Y40745236D01*
X10770097Y40833508D01*
X10742822Y40923423D01*
X10698529Y41006289D01*
X10638921Y41078921D01*
X10566289Y41138529D01*
X10483423Y41182822D01*
X10393508Y41210097D01*
X10300000Y41219307D01*
X7150000Y41219307D01*
X7056492Y41210097D01*
X6966577Y41182822D01*
X6883711Y41138529D01*
X6811079Y41078921D01*
X6751471Y41006289D01*
X6707178Y40923423D01*
X6679903Y40833508D01*
X6670693Y40740000D01*
X6670693Y40095490D01*
X6553595Y40143994D01*
X6317805Y40190896D01*
X6077395Y40190896D01*
X5841605Y40143994D01*
X5738121Y40101129D01*
X5726250Y40113000D01*
X3802000Y40113000D01*
X3548000Y40113000D01*
X1623750Y40113000D01*
X1465000Y39954250D01*
X1461928Y39740000D01*
X930238Y39740000D01*
X966031Y39806964D01*
X994736Y39901591D01*
X1004428Y40000000D01*
X1002000Y40024653D01*
X1002000Y40740000D01*
X1461928Y40740000D01*
X1465000Y40525750D01*
X1623750Y40367000D01*
X3548000Y40367000D01*
X3548000Y41216250D01*
X3802000Y41216250D01*
X3802000Y40367000D01*
X5726250Y40367000D01*
X5885000Y40525750D01*
X5888072Y40740000D01*
X5875812Y40864482D01*
X5839502Y40984180D01*
X5780537Y41094494D01*
X5701185Y41191185D01*
X5604494Y41270537D01*
X5494180Y41329502D01*
X5374482Y41365812D01*
X5250000Y41378072D01*
X3960750Y41375000D01*
X3802000Y41216250D01*
X3548000Y41216250D01*
X3389250Y41375000D01*
X2100000Y41378072D01*
X1975518Y41365812D01*
X1855820Y41329502D01*
X1745506Y41270537D01*
X1648815Y41191185D01*
X1569463Y41094494D01*
X1510498Y40984180D01*
X1474188Y40864482D01*
X1461928Y40740000D01*
X1002000Y40740000D01*
X1002000Y42280000D01*
X1461928Y42280000D01*
X1474188Y42155518D01*
X1510498Y42035820D01*
X1569463Y41925506D01*
X1648815Y41828815D01*
X1745506Y41749463D01*
X1855820Y41690498D01*
X1975518Y41654188D01*
X2100000Y41641928D01*
X3389250Y41645000D01*
X3548000Y41803750D01*
X3548000Y42653000D01*
X3802000Y42653000D01*
X3802000Y41803750D01*
X3960750Y41645000D01*
X5250000Y41641928D01*
X5374482Y41654188D01*
X5494180Y41690498D01*
X5604494Y41749463D01*
X5701185Y41828815D01*
X5780537Y41925506D01*
X5839502Y42035820D01*
X5875812Y42155518D01*
X5888072Y42280000D01*
X5885000Y42494250D01*
X5726250Y42653000D01*
X3802000Y42653000D01*
X3548000Y42653000D01*
X1623750Y42653000D01*
X1465000Y42494250D01*
X1461928Y42280000D01*
X1002000Y42280000D01*
X1002000Y43280000D01*
X1461928Y43280000D01*
X1465000Y43065750D01*
X1623750Y42907000D01*
X3548000Y42907000D01*
X3548000Y43756250D01*
X3802000Y43756250D01*
X3802000Y42907000D01*
X5726250Y42907000D01*
X5885000Y43065750D01*
X5888072Y43280000D01*
X6670693Y43280000D01*
X6670693Y42280000D01*
X6679903Y42186492D01*
X6707178Y42096577D01*
X6751471Y42013711D01*
X6811079Y41941079D01*
X6883711Y41881471D01*
X6966577Y41837178D01*
X7056492Y41809903D01*
X7150000Y41800693D01*
X10300000Y41800693D01*
X10393508Y41809903D01*
X10483423Y41837178D01*
X10566289Y41881471D01*
X10638921Y41941079D01*
X10698529Y42013711D01*
X10742822Y42096577D01*
X10770097Y42186492D01*
X10779307Y42280000D01*
X10779307Y43280000D01*
X10770097Y43373508D01*
X10742822Y43463423D01*
X10698529Y43546289D01*
X10638921Y43618921D01*
X10566289Y43678529D01*
X10483423Y43722822D01*
X10393508Y43750097D01*
X10300000Y43759307D01*
X7150000Y43759307D01*
X7056492Y43750097D01*
X6966577Y43722822D01*
X6883711Y43678529D01*
X6811079Y43618921D01*
X6751471Y43546289D01*
X6707178Y43463423D01*
X6679903Y43373508D01*
X6670693Y43280000D01*
X5888072Y43280000D01*
X5875812Y43404482D01*
X5839502Y43524180D01*
X5780537Y43634494D01*
X5701185Y43731185D01*
X5604494Y43810537D01*
X5494180Y43869502D01*
X5374482Y43905812D01*
X5250000Y43918072D01*
X3960750Y43915000D01*
X3802000Y43756250D01*
X3548000Y43756250D01*
X3389250Y43915000D01*
X2100000Y43918072D01*
X1975518Y43905812D01*
X1855820Y43869502D01*
X1745506Y43810537D01*
X1648815Y43731185D01*
X1569463Y43634494D01*
X1510498Y43524180D01*
X1474188Y43404482D01*
X1461928Y43280000D01*
X1002000Y43280000D01*
X1002000Y46975450D01*
X1008791Y47044718D01*
X1173000Y47044718D01*
X1173000Y46655282D01*
X1248975Y46273330D01*
X1398005Y45913539D01*
X1614364Y45589736D01*
X1889736Y45314364D01*
X2213539Y45098005D01*
X2573330Y44948975D01*
X2955282Y44873000D01*
X3344718Y44873000D01*
X12765000Y44873000D01*
X12765000Y44598000D01*
X12813507Y44359504D01*
X12907610Y44135054D01*
X13043693Y43933275D01*
X13216526Y43761922D01*
X13419467Y43627579D01*
X13644718Y43535409D01*
X13682391Y43531538D01*
X13873000Y43656269D01*
X13873000Y44873000D01*
X12765000Y44873000D01*
X3344718Y44873000D01*
X3726670Y44948975D01*
X4086461Y45098005D01*
X4410264Y45314364D01*
X4685636Y45589736D01*
X4901995Y45913539D01*
X5051025Y46273330D01*
X5127000Y46655282D01*
X5127000Y46995472D01*
X5823000Y46995472D01*
X5823000Y46704528D01*
X5879760Y46419175D01*
X5991099Y46150378D01*
X6152739Y45908467D01*
X6358467Y45702739D01*
X6600378Y45541099D01*
X6869175Y45429760D01*
X7154528Y45373000D01*
X7445472Y45373000D01*
X7591265Y45402000D01*
X12765000Y45402000D01*
X12765000Y45127000D01*
X13873000Y45127000D01*
X13873000Y46343731D01*
X14127000Y46343731D01*
X14127000Y45127000D01*
X14147000Y45127000D01*
X14147000Y44873000D01*
X14127000Y44873000D01*
X14127000Y43656269D01*
X14317609Y43531538D01*
X14355282Y43535409D01*
X14580533Y43627579D01*
X14783474Y43761922D01*
X14956307Y43933275D01*
X15092390Y44135054D01*
X15093157Y44136884D01*
X15100174Y44123756D01*
X15234761Y43959761D01*
X15398756Y43825174D01*
X15585856Y43725167D01*
X15788871Y43663583D01*
X16000000Y43642789D01*
X16211128Y43663583D01*
X16414143Y43725167D01*
X16601244Y43825174D01*
X16765239Y43959761D01*
X16899826Y44123756D01*
X16999833Y44310856D01*
X17000000Y44311407D01*
X17000167Y44310857D01*
X17100174Y44123756D01*
X17234761Y43959761D01*
X17398756Y43825174D01*
X17585856Y43725167D01*
X17788871Y43663583D01*
X18000000Y43642789D01*
X18211128Y43663583D01*
X18414143Y43725167D01*
X18601244Y43825174D01*
X18765239Y43959761D01*
X18899826Y44123756D01*
X18943164Y44204836D01*
X18976208Y44095906D01*
X19043603Y43969818D01*
X19134302Y43859302D01*
X19244818Y43768603D01*
X19370906Y43701208D01*
X19507718Y43659706D01*
X19649999Y43645693D01*
X20350001Y43645693D01*
X20492282Y43659706D01*
X20629094Y43701208D01*
X20755182Y43768603D01*
X20865698Y43859302D01*
X20956397Y43969818D01*
X21023792Y44095906D01*
X21065294Y44232718D01*
X21079307Y44374999D01*
X21079307Y44873000D01*
X25765000Y44873000D01*
X25765000Y44598000D01*
X25813507Y44359504D01*
X25907610Y44135054D01*
X26043693Y43933275D01*
X26216526Y43761922D01*
X26419467Y43627579D01*
X26644718Y43535409D01*
X26682391Y43531538D01*
X26873000Y43656269D01*
X26873000Y44873000D01*
X25765000Y44873000D01*
X21079307Y44873000D01*
X21079307Y45402000D01*
X25765000Y45402000D01*
X25765000Y45127000D01*
X26873000Y45127000D01*
X26873000Y46343731D01*
X26682391Y46468462D01*
X26644718Y46464591D01*
X26419467Y46372421D01*
X26216526Y46238078D01*
X26043693Y46066725D01*
X25907610Y45864946D01*
X25813507Y45640496D01*
X25765000Y45402000D01*
X21079307Y45402000D01*
X21079307Y45625001D01*
X21065294Y45767282D01*
X21023792Y45904094D01*
X20956397Y46030182D01*
X20865698Y46140698D01*
X20755182Y46231397D01*
X20629094Y46298792D01*
X20492282Y46340294D01*
X20350001Y46354307D01*
X19649999Y46354307D01*
X19507718Y46340294D01*
X19370906Y46298792D01*
X19244818Y46231397D01*
X19134302Y46140698D01*
X19043603Y46030182D01*
X18976208Y45904094D01*
X18943164Y45795164D01*
X18899826Y45876244D01*
X18765239Y46040239D01*
X18601244Y46174826D01*
X18414144Y46274833D01*
X18211129Y46336417D01*
X18000000Y46357211D01*
X17788872Y46336417D01*
X17585857Y46274833D01*
X17398757Y46174826D01*
X17234762Y46040239D01*
X17100175Y45876244D01*
X17000168Y45689144D01*
X17000000Y45688591D01*
X16999833Y45689143D01*
X16899826Y45876244D01*
X16765239Y46040239D01*
X16601244Y46174826D01*
X16414144Y46274833D01*
X16211129Y46336417D01*
X16000000Y46357211D01*
X15788872Y46336417D01*
X15585857Y46274833D01*
X15398757Y46174826D01*
X15234762Y46040239D01*
X15100175Y45876244D01*
X15093158Y45863115D01*
X15092390Y45864946D01*
X14956307Y46066725D01*
X14783474Y46238078D01*
X14580533Y46372421D01*
X14355282Y46464591D01*
X14317609Y46468462D01*
X14127000Y46343731D01*
X13873000Y46343731D01*
X13682391Y46468462D01*
X13644718Y46464591D01*
X13419467Y46372421D01*
X13216526Y46238078D01*
X13043693Y46066725D01*
X12907610Y45864946D01*
X12813507Y45640496D01*
X12765000Y45402000D01*
X7591265Y45402000D01*
X7730825Y45429760D01*
X7999622Y45541099D01*
X8241533Y45702739D01*
X8447261Y45908467D01*
X8608901Y46150378D01*
X8720240Y46419175D01*
X8777000Y46704528D01*
X8777000Y46995472D01*
X41223000Y46995472D01*
X41223000Y46704528D01*
X41279760Y46419175D01*
X41391099Y46150378D01*
X41552739Y45908467D01*
X41758467Y45702739D01*
X42000378Y45541099D01*
X42269175Y45429760D01*
X42554528Y45373000D01*
X42845472Y45373000D01*
X43130825Y45429760D01*
X43399622Y45541099D01*
X43641533Y45702739D01*
X43847261Y45908467D01*
X44008901Y46150378D01*
X44120240Y46419175D01*
X44177000Y46704528D01*
X44177000Y46995472D01*
X44167205Y47044718D01*
X44873000Y47044718D01*
X44873000Y46655282D01*
X44948975Y46273330D01*
X45098005Y45913539D01*
X45314364Y45589736D01*
X45589736Y45314364D01*
X45913539Y45098005D01*
X46273330Y44948975D01*
X46655282Y44873000D01*
X47044718Y44873000D01*
X47426670Y44948975D01*
X47786461Y45098005D01*
X48110264Y45314364D01*
X48385636Y45589736D01*
X48601995Y45913539D01*
X48751025Y46273330D01*
X48827000Y46655282D01*
X48827000Y47044718D01*
X48751025Y47426670D01*
X48601995Y47786461D01*
X48385636Y48110264D01*
X48110264Y48385636D01*
X47786461Y48601995D01*
X47426670Y48751025D01*
X47044718Y48827000D01*
X46655282Y48827000D01*
X46273330Y48751025D01*
X45913539Y48601995D01*
X45589736Y48385636D01*
X45314364Y48110264D01*
X45098005Y47786461D01*
X44948975Y47426670D01*
X44873000Y47044718D01*
X44167205Y47044718D01*
X44120240Y47280825D01*
X44008901Y47549622D01*
X43847261Y47791533D01*
X43641533Y47997261D01*
X43399622Y48158901D01*
X43130825Y48270240D01*
X42845472Y48327000D01*
X42554528Y48327000D01*
X42269175Y48270240D01*
X42000378Y48158901D01*
X41758467Y47997261D01*
X41552739Y47791533D01*
X41391099Y47549622D01*
X41279760Y47280825D01*
X41223000Y46995472D01*
X8777000Y46995472D01*
X8720240Y47280825D01*
X8608901Y47549622D01*
X8447261Y47791533D01*
X8241533Y47997261D01*
X7999622Y48158901D01*
X7730825Y48270240D01*
X7445472Y48327000D01*
X7154528Y48327000D01*
X6869175Y48270240D01*
X6600378Y48158901D01*
X6358467Y47997261D01*
X6152739Y47791533D01*
X5991099Y47549622D01*
X5879760Y47280825D01*
X5823000Y46995472D01*
X5127000Y46995472D01*
X5127000Y47044718D01*
X5051025Y47426670D01*
X4901995Y47786461D01*
X4685636Y48110264D01*
X4410264Y48385636D01*
X4086461Y48601995D01*
X3726670Y48751025D01*
X3344718Y48827000D01*
X2955282Y48827000D01*
X2573330Y48751025D01*
X2213539Y48601995D01*
X1889736Y48385636D01*
X1614364Y48110264D01*
X1398005Y47786461D01*
X1248975Y47426670D01*
X1173000Y47044718D01*
X1008791Y47044718D01*
X1042413Y47387613D01*
X1154982Y47760459D01*
X1337830Y48104347D01*
X1583987Y48406165D01*
X1884081Y48654423D01*
X2226677Y48839663D01*
X2598731Y48954833D01*
X3009436Y48998000D01*
X9975347Y48998000D01*
X10000000Y48995572D01*
X10024653Y48998000D01*
X10098409Y49005264D01*
X10193036Y49033969D01*
X10280245Y49080583D01*
X10356684Y49143316D01*
X10419417Y49219755D01*
X10466031Y49306964D01*
X10494736Y49401591D01*
X10504231Y49498000D01*
X39495769Y49498000D01*
X39505264Y49401591D01*
G37*
X39505264Y49401591D02*
X39533969Y49306964D01*
X39580583Y49219755D01*
X39643316Y49143316D01*
X39719755Y49080583D01*
X39806964Y49033969D01*
X39901591Y49005264D01*
X39975347Y48998000D01*
X40000000Y48995572D01*
X40024653Y48998000D01*
X46975450Y48998000D01*
X47387613Y48957587D01*
X47760459Y48845018D01*
X48104347Y48662170D01*
X48406165Y48416013D01*
X48654423Y48115919D01*
X48839663Y47773323D01*
X48954833Y47401269D01*
X48998000Y46990564D01*
X48998001Y40024663D01*
X48995572Y40000000D01*
X49005264Y39901591D01*
X49033969Y39806964D01*
X49080583Y39719755D01*
X49143316Y39643316D01*
X49219755Y39580583D01*
X49306964Y39533969D01*
X49401591Y39505264D01*
X49475347Y39498000D01*
X49498000Y39495769D01*
X49498001Y10504231D01*
X49475347Y10502000D01*
X49401591Y10494736D01*
X49306964Y10466031D01*
X49219755Y10419417D01*
X49143316Y10356684D01*
X49080583Y10280245D01*
X49033969Y10193036D01*
X49005264Y10098409D01*
X48995572Y10000000D01*
X48998001Y9975337D01*
X48998000Y3024551D01*
X48957587Y2612386D01*
X48845018Y2239538D01*
X48662170Y1895654D01*
X48416015Y1593837D01*
X48115922Y1345579D01*
X47773326Y1160338D01*
X47401269Y1045167D01*
X46990564Y1002000D01*
X40024653Y1002000D01*
X40000000Y1004428D01*
X39975347Y1002000D01*
X39901591Y994736D01*
X39806964Y966031D01*
X39719755Y919417D01*
X39643316Y856684D01*
X39580583Y780245D01*
X39533969Y693036D01*
X39505264Y598409D01*
X39495769Y502000D01*
X10504231Y502000D01*
X10494736Y598409D01*
X10466031Y693036D01*
X10419417Y780245D01*
X10356684Y856684D01*
X10280245Y919417D01*
X10193036Y966031D01*
X10098409Y994736D01*
X10024653Y1002000D01*
X10000000Y1004428D01*
X9975347Y1002000D01*
X3024551Y1002000D01*
X2612386Y1042413D01*
X2239538Y1154982D01*
X1895654Y1337830D01*
X1593837Y1583985D01*
X1345579Y1884078D01*
X1160338Y2226674D01*
X1045167Y2598731D01*
X1002000Y3009436D01*
X1002000Y3344718D01*
X1173000Y3344718D01*
X1173000Y2955282D01*
X1248975Y2573330D01*
X1398005Y2213539D01*
X1614364Y1889736D01*
X1889736Y1614364D01*
X2213539Y1398005D01*
X2573330Y1248975D01*
X2955282Y1173000D01*
X3344718Y1173000D01*
X3726670Y1248975D01*
X4086461Y1398005D01*
X4410264Y1614364D01*
X4685636Y1889736D01*
X4901995Y2213539D01*
X5051025Y2573330D01*
X5127000Y2955282D01*
X5127000Y3295472D01*
X5823000Y3295472D01*
X5823000Y3004528D01*
X5879760Y2719175D01*
X5991099Y2450378D01*
X6152739Y2208467D01*
X6358467Y2002739D01*
X6600378Y1841099D01*
X6869175Y1729760D01*
X7154528Y1673000D01*
X7445472Y1673000D01*
X7730825Y1729760D01*
X7999622Y1841099D01*
X8241533Y2002739D01*
X8447261Y2208467D01*
X8608901Y2450378D01*
X8720240Y2719175D01*
X8777000Y3004528D01*
X8777000Y3295472D01*
X8720240Y3580825D01*
X8608901Y3849622D01*
X8447261Y4091533D01*
X8241533Y4297261D01*
X7999622Y4458901D01*
X7730825Y4570240D01*
X7445472Y4627000D01*
X7154528Y4627000D01*
X6869175Y4570240D01*
X6600378Y4458901D01*
X6358467Y4297261D01*
X6152739Y4091533D01*
X5991099Y3849622D01*
X5879760Y3580825D01*
X5823000Y3295472D01*
X5127000Y3295472D01*
X5127000Y3344718D01*
X5051025Y3726670D01*
X4901995Y4086461D01*
X4685636Y4410264D01*
X4410264Y4685636D01*
X4086461Y4901995D01*
X3726670Y5051025D01*
X3344718Y5127000D01*
X2955282Y5127000D01*
X2573330Y5051025D01*
X2213539Y4901995D01*
X1889736Y4685636D01*
X1614364Y4410264D01*
X1398005Y4086461D01*
X1248975Y3726670D01*
X1173000Y3344718D01*
X1002000Y3344718D01*
X1002000Y7720000D01*
X1620693Y7720000D01*
X1620693Y6720000D01*
X1629903Y6626492D01*
X1657178Y6536577D01*
X1701471Y6453711D01*
X1761079Y6381079D01*
X1833711Y6321471D01*
X1916577Y6277178D01*
X2006492Y6249903D01*
X2100000Y6240693D01*
X5250000Y6240693D01*
X5343508Y6249903D01*
X5433423Y6277178D01*
X5516289Y6321471D01*
X5588921Y6381079D01*
X5648529Y6453711D01*
X5692822Y6536577D01*
X5720097Y6626492D01*
X5729307Y6720000D01*
X5729307Y7720000D01*
X6670693Y7720000D01*
X6670693Y6720000D01*
X6679903Y6626492D01*
X6707178Y6536577D01*
X6751471Y6453711D01*
X6811079Y6381079D01*
X6883711Y6321471D01*
X6966577Y6277178D01*
X7056492Y6249903D01*
X7150000Y6240693D01*
X7879195Y6240693D01*
X8024704Y6121276D01*
X8246549Y6002698D01*
X8487264Y5929678D01*
X8674874Y5911200D01*
X8956852Y5911200D01*
X9323000Y5545051D01*
X9323001Y3962735D01*
X9316822Y3900000D01*
X9341478Y3649665D01*
X9382481Y3514498D01*
X9414499Y3408949D01*
X9533077Y3187104D01*
X9692657Y2992656D01*
X9741380Y2952670D01*
X11052669Y1641380D01*
X11092656Y1592656D01*
X11287104Y1433076D01*
X11417731Y1363255D01*
X11508948Y1314498D01*
X11749664Y1241478D01*
X12000000Y1216822D01*
X12062726Y1223000D01*
X21637274Y1223000D01*
X21700000Y1216822D01*
X21762726Y1223000D01*
X21950336Y1241478D01*
X22191051Y1314498D01*
X22412896Y1433076D01*
X22458732Y1470693D01*
X23300000Y1470693D01*
X23393508Y1479903D01*
X23483423Y1507178D01*
X23566289Y1551471D01*
X23638921Y1611079D01*
X23698529Y1683711D01*
X23742822Y1766577D01*
X23770097Y1856492D01*
X23779307Y1950000D01*
X23779307Y3273357D01*
X23801422Y3295472D01*
X41223000Y3295472D01*
X41223000Y3004528D01*
X41279760Y2719175D01*
X41391099Y2450378D01*
X41552739Y2208467D01*
X41758467Y2002739D01*
X42000378Y1841099D01*
X42269175Y1729760D01*
X42554528Y1673000D01*
X42845472Y1673000D01*
X43130825Y1729760D01*
X43399622Y1841099D01*
X43641533Y2002739D01*
X43847261Y2208467D01*
X44008901Y2450378D01*
X44120240Y2719175D01*
X44177000Y3004528D01*
X44177000Y3295472D01*
X44167205Y3344718D01*
X44873000Y3344718D01*
X44873000Y2955282D01*
X44948975Y2573330D01*
X45098005Y2213539D01*
X45314364Y1889736D01*
X45589736Y1614364D01*
X45913539Y1398005D01*
X46273330Y1248975D01*
X46655282Y1173000D01*
X47044718Y1173000D01*
X47426670Y1248975D01*
X47786461Y1398005D01*
X48110264Y1614364D01*
X48385636Y1889736D01*
X48601995Y2213539D01*
X48751025Y2573330D01*
X48827000Y2955282D01*
X48827000Y3344718D01*
X48751025Y3726670D01*
X48601995Y4086461D01*
X48385636Y4410264D01*
X48110264Y4685636D01*
X47786461Y4901995D01*
X47426670Y5051025D01*
X47044718Y5127000D01*
X46655282Y5127000D01*
X46273330Y5051025D01*
X45913539Y4901995D01*
X45589736Y4685636D01*
X45314364Y4410264D01*
X45098005Y4086461D01*
X44948975Y3726670D01*
X44873000Y3344718D01*
X44167205Y3344718D01*
X44120240Y3580825D01*
X44008901Y3849622D01*
X43847261Y4091533D01*
X43641533Y4297261D01*
X43399622Y4458901D01*
X43130825Y4570240D01*
X42845472Y4627000D01*
X42554528Y4627000D01*
X42269175Y4570240D01*
X42000378Y4458901D01*
X41758467Y4297261D01*
X41552739Y4091533D01*
X41391099Y3849622D01*
X41279760Y3580825D01*
X41223000Y3295472D01*
X23801422Y3295472D01*
X23928951Y3423000D01*
X27037274Y3423000D01*
X27100000Y3416822D01*
X27162726Y3423000D01*
X27350336Y3441478D01*
X27591051Y3514498D01*
X27812896Y3633076D01*
X28007344Y3792656D01*
X28047335Y3841385D01*
X35552751Y11346800D01*
X38992689Y11346800D01*
X38980693Y11225001D01*
X38980693Y9974999D01*
X38994706Y9832718D01*
X39036208Y9695906D01*
X39103603Y9569818D01*
X39194302Y9459302D01*
X39304818Y9368603D01*
X39430906Y9301208D01*
X39567718Y9259706D01*
X39709999Y9245693D01*
X40410001Y9245693D01*
X40552282Y9259706D01*
X40689094Y9301208D01*
X40815182Y9368603D01*
X40925698Y9459302D01*
X41016397Y9569818D01*
X41044097Y9621642D01*
X41103693Y9533275D01*
X41276526Y9361922D01*
X41479467Y9227579D01*
X41704718Y9135409D01*
X41742391Y9131538D01*
X41933000Y9256269D01*
X41933000Y10473000D01*
X42187000Y10473000D01*
X42187000Y9256269D01*
X42377609Y9131538D01*
X42415282Y9135409D01*
X42640533Y9227579D01*
X42843474Y9361922D01*
X43016307Y9533275D01*
X43152390Y9735054D01*
X43246493Y9959504D01*
X43295000Y10198000D01*
X43295000Y10473000D01*
X42187000Y10473000D01*
X41933000Y10473000D01*
X41913000Y10473000D01*
X41913000Y10727000D01*
X41933000Y10727000D01*
X41933000Y10747000D01*
X42187000Y10747000D01*
X42187000Y10727000D01*
X43295000Y10727000D01*
X43295000Y11002000D01*
X43246493Y11240496D01*
X43191275Y11372200D01*
X44006274Y11372200D01*
X44069000Y11366022D01*
X44131726Y11372200D01*
X44319336Y11390678D01*
X44560051Y11463698D01*
X44781896Y11582276D01*
X44976344Y11741856D01*
X45016335Y11790585D01*
X48258621Y15032870D01*
X48307344Y15072856D01*
X48466924Y15267304D01*
X48585502Y15489149D01*
X48658522Y15729864D01*
X48677000Y15917474D01*
X48677000Y15917481D01*
X48683177Y15980199D01*
X48677000Y16042918D01*
X48677000Y32237272D01*
X48683178Y32300000D01*
X48658523Y32550336D01*
X48585502Y32791051D01*
X48573809Y32812928D01*
X48466924Y33012896D01*
X48307344Y33207344D01*
X48258620Y33247331D01*
X40208620Y41297330D01*
X39673137Y41832813D01*
X39530748Y42045913D01*
X39345913Y42230748D01*
X39128570Y42375972D01*
X38887072Y42476004D01*
X38630698Y42527000D01*
X38369302Y42527000D01*
X38112928Y42476004D01*
X38015707Y42435734D01*
X38058901Y42500378D01*
X38170240Y42769175D01*
X38227000Y43054528D01*
X38227000Y43345472D01*
X41273000Y43345472D01*
X41273000Y43054528D01*
X41329760Y42769175D01*
X41441099Y42500378D01*
X41602739Y42258467D01*
X41808467Y42052739D01*
X42050378Y41891099D01*
X42319175Y41779760D01*
X42604528Y41723000D01*
X42895472Y41723000D01*
X43180825Y41779760D01*
X43449622Y41891099D01*
X43691533Y42052739D01*
X43897261Y42258467D01*
X44058901Y42500378D01*
X44170240Y42769175D01*
X44227000Y43054528D01*
X44227000Y43345472D01*
X44170240Y43630825D01*
X44058901Y43899622D01*
X43897261Y44141533D01*
X43691533Y44347261D01*
X43449622Y44508901D01*
X43180825Y44620240D01*
X42895472Y44677000D01*
X42604528Y44677000D01*
X42319175Y44620240D01*
X42050378Y44508901D01*
X41808467Y44347261D01*
X41602739Y44141533D01*
X41441099Y43899622D01*
X41329760Y43630825D01*
X41273000Y43345472D01*
X38227000Y43345472D01*
X38170240Y43630825D01*
X38058901Y43899622D01*
X37897261Y44141533D01*
X37691533Y44347261D01*
X37449622Y44508901D01*
X37180825Y44620240D01*
X36895472Y44677000D01*
X36604528Y44677000D01*
X36319175Y44620240D01*
X36050378Y44508901D01*
X35808467Y44347261D01*
X35602739Y44141533D01*
X35441099Y43899622D01*
X35329760Y43630825D01*
X35273000Y43345472D01*
X35273000Y43054528D01*
X35329760Y42769175D01*
X35441099Y42500378D01*
X35602739Y42258467D01*
X35808467Y42052739D01*
X36050378Y41891099D01*
X36319175Y41779760D01*
X36604528Y41723000D01*
X36895472Y41723000D01*
X37180825Y41779760D01*
X37333735Y41843097D01*
X37324028Y41828570D01*
X37223996Y41587072D01*
X37173000Y41330698D01*
X37173000Y41069302D01*
X37223996Y40812928D01*
X37324028Y40571430D01*
X37469252Y40354087D01*
X37654087Y40169252D01*
X37867187Y40026863D01*
X38402670Y39491380D01*
X46123001Y31771048D01*
X46123000Y16509151D01*
X43540050Y13926200D01*
X40499526Y13926200D01*
X40436800Y13932378D01*
X40436799Y13932378D01*
X40300657Y13918969D01*
X40186464Y13907722D01*
X40163645Y13900800D01*
X35086518Y13900800D01*
X35023799Y13906977D01*
X34961081Y13900800D01*
X34961074Y13900800D01*
X34773464Y13882322D01*
X34532749Y13809302D01*
X34310904Y13690724D01*
X34116456Y13531144D01*
X34076470Y13482421D01*
X33525778Y12931729D01*
X33513147Y12995232D01*
X33454575Y13136637D01*
X33369542Y13263898D01*
X33261315Y13372125D01*
X33134054Y13457158D01*
X32992649Y13515730D01*
X32842534Y13545589D01*
X32689478Y13545589D01*
X32539363Y13515730D01*
X32397958Y13457158D01*
X32270697Y13372125D01*
X32162470Y13263898D01*
X32077437Y13136637D01*
X32018865Y12995232D01*
X31989006Y12845117D01*
X31989006Y12692061D01*
X32018865Y12541946D01*
X32077437Y12400541D01*
X32162470Y12273280D01*
X32270697Y12165053D01*
X32397958Y12080020D01*
X32539363Y12021448D01*
X32602866Y12008817D01*
X26571050Y5977000D01*
X23462728Y5977000D01*
X23400000Y5983178D01*
X23149664Y5958523D01*
X23053353Y5929307D01*
X21500000Y5929307D01*
X21406492Y5920097D01*
X21316577Y5892822D01*
X21233711Y5848529D01*
X21161079Y5788921D01*
X21101471Y5716289D01*
X21057178Y5633423D01*
X21029903Y5543508D01*
X21020693Y5450000D01*
X21020693Y3777000D01*
X12528951Y3777000D01*
X11877000Y4428950D01*
X11877000Y4943110D01*
X12108524Y4943110D01*
X12110446Y4930739D01*
X12210146Y4656991D01*
X12361336Y4407954D01*
X12558205Y4193198D01*
X12793188Y4020975D01*
X13057255Y3897904D01*
X13340258Y3828715D01*
X13573000Y3972768D01*
X13573000Y5173000D01*
X13827000Y5173000D01*
X13827000Y3972768D01*
X14059742Y3828715D01*
X14342745Y3897904D01*
X14606812Y4020975D01*
X14841795Y4193198D01*
X15038664Y4407954D01*
X15189854Y4656991D01*
X15289554Y4930739D01*
X15291476Y4943110D01*
X15170155Y5173000D01*
X13827000Y5173000D01*
X13573000Y5173000D01*
X12229845Y5173000D01*
X12108524Y4943110D01*
X11877000Y4943110D01*
X11877000Y6011276D01*
X11883178Y6074002D01*
X11858522Y6324338D01*
X11785502Y6565053D01*
X11721762Y6684302D01*
X11666924Y6786898D01*
X11507344Y6981346D01*
X11458621Y7021332D01*
X10779307Y7700645D01*
X10779307Y7720000D01*
X10770097Y7813508D01*
X10742822Y7903423D01*
X10698529Y7986289D01*
X10638921Y8058921D01*
X10566289Y8118529D01*
X10483423Y8162822D01*
X10393508Y8190097D01*
X10300000Y8199307D01*
X10266711Y8199307D01*
X10198698Y8255124D01*
X9976853Y8373702D01*
X9736138Y8446722D01*
X9548528Y8465200D01*
X9485802Y8471378D01*
X9423076Y8465200D01*
X8674874Y8465200D01*
X8487264Y8446722D01*
X8246549Y8373702D01*
X8024704Y8255124D01*
X7956691Y8199307D01*
X7150000Y8199307D01*
X7056492Y8190097D01*
X6966577Y8162822D01*
X6883711Y8118529D01*
X6811079Y8058921D01*
X6751471Y7986289D01*
X6707178Y7903423D01*
X6679903Y7813508D01*
X6670693Y7720000D01*
X5729307Y7720000D01*
X5720097Y7813508D01*
X5692822Y7903423D01*
X5648529Y7986289D01*
X5588921Y8058921D01*
X5516289Y8118529D01*
X5433423Y8162822D01*
X5343508Y8190097D01*
X5250000Y8199307D01*
X2100000Y8199307D01*
X2006492Y8190097D01*
X1916577Y8162822D01*
X1833711Y8118529D01*
X1761079Y8058921D01*
X1701471Y7986289D01*
X1657178Y7903423D01*
X1629903Y7813508D01*
X1620693Y7720000D01*
X1002000Y7720000D01*
X1002000Y9975348D01*
X1004428Y10000000D01*
X994736Y10098409D01*
X966031Y10193036D01*
X919417Y10280245D01*
X856684Y10356684D01*
X780245Y10419417D01*
X693036Y10466031D01*
X598409Y10494736D01*
X524653Y10502000D01*
X502000Y10504231D01*
X502000Y15340000D01*
X1620693Y15340000D01*
X1620693Y14340000D01*
X1629903Y14246492D01*
X1657178Y14156577D01*
X1701471Y14073711D01*
X1761079Y14001079D01*
X1833711Y13941471D01*
X1916577Y13897178D01*
X2006492Y13869903D01*
X2100000Y13860693D01*
X5250000Y13860693D01*
X5343508Y13869903D01*
X5433423Y13897178D01*
X5516289Y13941471D01*
X5588921Y14001079D01*
X5648529Y14073711D01*
X5692822Y14156577D01*
X5720097Y14246492D01*
X5729307Y14340000D01*
X5729307Y15340000D01*
X6670693Y15340000D01*
X6670693Y14340000D01*
X6679903Y14246492D01*
X6707178Y14156577D01*
X6751471Y14073711D01*
X6811079Y14001079D01*
X6883711Y13941471D01*
X6966577Y13897178D01*
X7056492Y13869903D01*
X7150000Y13860693D01*
X10300000Y13860693D01*
X10393508Y13869903D01*
X10483423Y13897178D01*
X10566289Y13941471D01*
X10638921Y14001079D01*
X10698529Y14073711D01*
X10742822Y14156577D01*
X10770097Y14246492D01*
X10779307Y14340000D01*
X10779307Y15340000D01*
X10770097Y15433508D01*
X10742822Y15523423D01*
X10698529Y15606289D01*
X10638921Y15678921D01*
X10566289Y15738529D01*
X10483423Y15782822D01*
X10393508Y15810097D01*
X10300000Y15819307D01*
X7150000Y15819307D01*
X7056492Y15810097D01*
X6966577Y15782822D01*
X6883711Y15738529D01*
X6811079Y15678921D01*
X6751471Y15606289D01*
X6707178Y15523423D01*
X6679903Y15433508D01*
X6670693Y15340000D01*
X5729307Y15340000D01*
X5720097Y15433508D01*
X5692822Y15523423D01*
X5648529Y15606289D01*
X5588921Y15678921D01*
X5516289Y15738529D01*
X5433423Y15782822D01*
X5343508Y15810097D01*
X5250000Y15819307D01*
X2100000Y15819307D01*
X2006492Y15810097D01*
X1916577Y15782822D01*
X1833711Y15738529D01*
X1761079Y15678921D01*
X1701471Y15606289D01*
X1657178Y15523423D01*
X1629903Y15433508D01*
X1620693Y15340000D01*
X502000Y15340000D01*
X502000Y22960000D01*
X1620693Y22960000D01*
X1620693Y21960000D01*
X1629903Y21866492D01*
X1657178Y21776577D01*
X1701471Y21693711D01*
X1761079Y21621079D01*
X1833711Y21561471D01*
X1916577Y21517178D01*
X2006492Y21489903D01*
X2100000Y21480693D01*
X5250000Y21480693D01*
X5343508Y21489903D01*
X5433423Y21517178D01*
X5516289Y21561471D01*
X5588921Y21621079D01*
X5648529Y21693711D01*
X5692822Y21776577D01*
X5720097Y21866492D01*
X5729307Y21960000D01*
X5729307Y22960000D01*
X5720097Y23053508D01*
X5692822Y23143423D01*
X5648529Y23226289D01*
X5588921Y23298921D01*
X5516289Y23358529D01*
X5433423Y23402822D01*
X5343508Y23430097D01*
X5250000Y23439307D01*
X2100000Y23439307D01*
X2006492Y23430097D01*
X1916577Y23402822D01*
X1833711Y23358529D01*
X1761079Y23298921D01*
X1701471Y23226289D01*
X1657178Y23143423D01*
X1629903Y23053508D01*
X1620693Y22960000D01*
X502000Y22960000D01*
X502000Y25500000D01*
X1620693Y25500000D01*
X1620693Y24500000D01*
X1629903Y24406492D01*
X1657178Y24316577D01*
X1701471Y24233711D01*
X1761079Y24161079D01*
X1833711Y24101471D01*
X1916577Y24057178D01*
X2006492Y24029903D01*
X2100000Y24020693D01*
X5250000Y24020693D01*
X5343508Y24029903D01*
X5433423Y24057178D01*
X5516289Y24101471D01*
X5588921Y24161079D01*
X5648529Y24233711D01*
X5692822Y24316577D01*
X5720097Y24406492D01*
X5728791Y24494764D01*
X5772115Y24517921D01*
X5859974Y24590026D01*
X5878039Y24612038D01*
X6670693Y25404692D01*
X6670693Y24500000D01*
X6679903Y24406492D01*
X6707178Y24316577D01*
X6751471Y24233711D01*
X6811079Y24161079D01*
X6883711Y24101471D01*
X6966577Y24057178D01*
X7056492Y24029903D01*
X7150000Y24020693D01*
X10025616Y24020693D01*
X10020199Y23965689D01*
X10022989Y23937358D01*
X10022989Y23439307D01*
X7150000Y23439307D01*
X7056492Y23430097D01*
X6966577Y23402822D01*
X6883711Y23358529D01*
X6811079Y23298921D01*
X6751471Y23226289D01*
X6707178Y23143423D01*
X6679903Y23053508D01*
X6670693Y22960000D01*
X6670693Y21960000D01*
X6679903Y21866492D01*
X6707178Y21776577D01*
X6751471Y21693711D01*
X6811079Y21621079D01*
X6883711Y21561471D01*
X6966577Y21517178D01*
X7056492Y21489903D01*
X7150000Y21480693D01*
X9544694Y21480693D01*
X9361002Y21297001D01*
X6938327Y21297001D01*
X6909998Y21299791D01*
X6881669Y21297001D01*
X6881663Y21297001D01*
X6796887Y21288651D01*
X6688123Y21255658D01*
X6587884Y21202080D01*
X6558404Y21177886D01*
X6522034Y21148038D01*
X6522032Y21148036D01*
X6500025Y21129975D01*
X6481964Y21107968D01*
X5870997Y20497000D01*
X5721723Y20497000D01*
X5720097Y20513508D01*
X5692822Y20603423D01*
X5648529Y20686289D01*
X5588921Y20758921D01*
X5516289Y20818529D01*
X5433423Y20862822D01*
X5343508Y20890097D01*
X5250000Y20899307D01*
X2100000Y20899307D01*
X2006492Y20890097D01*
X1916577Y20862822D01*
X1833711Y20818529D01*
X1761079Y20758921D01*
X1701471Y20686289D01*
X1657178Y20603423D01*
X1629903Y20513508D01*
X1620693Y20420000D01*
X1620693Y19420000D01*
X1629903Y19326492D01*
X1657178Y19236577D01*
X1701471Y19153711D01*
X1761079Y19081079D01*
X1833711Y19021471D01*
X1916577Y18977178D01*
X2006492Y18949903D01*
X2100000Y18940693D01*
X5250000Y18940693D01*
X5343508Y18949903D01*
X5433423Y18977178D01*
X5516289Y19021471D01*
X5588921Y19081079D01*
X5648529Y19153711D01*
X5692822Y19236577D01*
X5720097Y19326492D01*
X5721723Y19343000D01*
X6081667Y19343000D01*
X6109998Y19340210D01*
X6138329Y19343000D01*
X6138334Y19343000D01*
X6168043Y19345926D01*
X6223109Y19351349D01*
X6267768Y19364897D01*
X6331874Y19384343D01*
X6432113Y19437921D01*
X6519972Y19510026D01*
X6538037Y19532038D01*
X6670693Y19664694D01*
X6670693Y19420000D01*
X6679903Y19326492D01*
X6707178Y19236577D01*
X6751471Y19153711D01*
X6811079Y19081079D01*
X6883711Y19021471D01*
X6966577Y18977178D01*
X7056492Y18949903D01*
X7150000Y18940693D01*
X10300000Y18940693D01*
X10393508Y18949903D01*
X10483423Y18977178D01*
X10566289Y19021471D01*
X10638921Y19081079D01*
X10698529Y19153711D01*
X10742822Y19236577D01*
X10770097Y19326492D01*
X10779307Y19420000D01*
X10779307Y20420000D01*
X10770556Y20508853D01*
X11387980Y21126276D01*
X11409986Y21144336D01*
X11431949Y21171097D01*
X11457376Y21202080D01*
X11482091Y21232195D01*
X11535669Y21332434D01*
X11568662Y21441198D01*
X11577012Y21525974D01*
X11577012Y21525980D01*
X11579802Y21554309D01*
X11577012Y21582640D01*
X11577012Y23337359D01*
X11579802Y23365690D01*
X11577000Y23394143D01*
X11577000Y23560999D01*
X12201453Y24185452D01*
X12207178Y24166577D01*
X12251471Y24083711D01*
X12311079Y24011079D01*
X12383711Y23951471D01*
X12466577Y23907178D01*
X12556492Y23879903D01*
X12650000Y23870693D01*
X13650000Y23870693D01*
X13743508Y23879903D01*
X13800000Y23897039D01*
X13856492Y23879903D01*
X13950000Y23870693D01*
X14950000Y23870693D01*
X15043508Y23879903D01*
X15133423Y23907178D01*
X15216289Y23951471D01*
X15288921Y24011079D01*
X15348529Y24083711D01*
X15366558Y24117441D01*
X15423000Y24060999D01*
X15423001Y23589002D01*
X15349142Y23515143D01*
X15348529Y23516289D01*
X15288921Y23588921D01*
X15216289Y23648529D01*
X15133423Y23692822D01*
X15043508Y23720097D01*
X14950000Y23729307D01*
X13950000Y23729307D01*
X13856492Y23720097D01*
X13800000Y23702961D01*
X13743508Y23720097D01*
X13650000Y23729307D01*
X12650000Y23729307D01*
X12556492Y23720097D01*
X12466577Y23692822D01*
X12383711Y23648529D01*
X12311079Y23588921D01*
X12251471Y23516289D01*
X12207178Y23433423D01*
X12179903Y23343508D01*
X12170693Y23250000D01*
X12170693Y23048570D01*
X12128124Y23035657D01*
X12027885Y22982079D01*
X11940026Y22909974D01*
X11921963Y22887964D01*
X11812038Y22778039D01*
X11790026Y22759974D01*
X11717921Y22672114D01*
X11664343Y22571875D01*
X11656832Y22547115D01*
X11631349Y22463111D01*
X11625334Y22402028D01*
X11623843Y22386888D01*
X11620210Y22350000D01*
X11623000Y22321669D01*
X11623001Y19539003D01*
X10424649Y18340651D01*
X10393508Y18350097D01*
X10300000Y18359307D01*
X7150000Y18359307D01*
X7056492Y18350097D01*
X6966577Y18322822D01*
X6883711Y18278529D01*
X6811079Y18218921D01*
X6751471Y18146289D01*
X6707178Y18063423D01*
X6679903Y17973508D01*
X6670693Y17880000D01*
X6670693Y17156999D01*
X5789003Y17156999D01*
X5729307Y17216695D01*
X5729307Y17880000D01*
X5720097Y17973508D01*
X5692822Y18063423D01*
X5648529Y18146289D01*
X5588921Y18218921D01*
X5516289Y18278529D01*
X5433423Y18322822D01*
X5343508Y18350097D01*
X5250000Y18359307D01*
X2100000Y18359307D01*
X2006492Y18350097D01*
X1916577Y18322822D01*
X1833711Y18278529D01*
X1761079Y18218921D01*
X1701471Y18146289D01*
X1657178Y18063423D01*
X1629903Y17973508D01*
X1620693Y17880000D01*
X1620693Y16880000D01*
X1629903Y16786492D01*
X1657178Y16696577D01*
X1701471Y16613711D01*
X1761079Y16541079D01*
X1833711Y16481471D01*
X1916577Y16437178D01*
X2006492Y16409903D01*
X2100000Y16400693D01*
X4913305Y16400693D01*
X5121966Y16192032D01*
X5140027Y16170025D01*
X5162034Y16151964D01*
X5162036Y16151962D01*
X5181981Y16135594D01*
X5227886Y16097920D01*
X5328125Y16044342D01*
X5436889Y16011349D01*
X5521665Y16002999D01*
X5521671Y16002999D01*
X5550000Y16000209D01*
X5578329Y16002999D01*
X10651668Y16002999D01*
X10679999Y16000209D01*
X10708330Y16002999D01*
X10708335Y16002999D01*
X10738044Y16005925D01*
X10793110Y16011348D01*
X10837769Y16024896D01*
X10901875Y16044342D01*
X11002114Y16097920D01*
X11089973Y16170025D01*
X11108039Y16192038D01*
X11387958Y16471958D01*
X11409974Y16490026D01*
X11482079Y16577885D01*
X11535657Y16678124D01*
X11551803Y16731350D01*
X11568651Y16786888D01*
X11574363Y16844886D01*
X11577000Y16871664D01*
X11577000Y16871669D01*
X11579790Y16900000D01*
X11577000Y16928331D01*
X11577000Y17295299D01*
X11651600Y17369899D01*
X11651601Y10841068D01*
X11640000Y10842211D01*
X11587093Y10837000D01*
X8672091Y10837000D01*
X8513871Y10821417D01*
X8310856Y10759833D01*
X8272455Y10739307D01*
X7410820Y10739307D01*
X7443459Y10903395D01*
X7443459Y11143805D01*
X7408273Y11320693D01*
X10300000Y11320693D01*
X10393508Y11329903D01*
X10483423Y11357178D01*
X10566289Y11401471D01*
X10638921Y11461079D01*
X10698529Y11533711D01*
X10742822Y11616577D01*
X10770097Y11706492D01*
X10779307Y11800000D01*
X10779307Y12800000D01*
X10770097Y12893508D01*
X10742822Y12983423D01*
X10698529Y13066289D01*
X10638921Y13138921D01*
X10566289Y13198529D01*
X10483423Y13242822D01*
X10393508Y13270097D01*
X10300000Y13279307D01*
X7150000Y13279307D01*
X7056492Y13270097D01*
X6966577Y13242822D01*
X6883711Y13198529D01*
X6811079Y13138921D01*
X6751471Y13066289D01*
X6707178Y12983423D01*
X6679903Y12893508D01*
X6670693Y12800000D01*
X6670693Y12159174D01*
X6578995Y12197157D01*
X6343205Y12244059D01*
X6102795Y12244059D01*
X5867005Y12197157D01*
X5729307Y12140120D01*
X5729307Y12800000D01*
X5720097Y12893508D01*
X5692822Y12983423D01*
X5648529Y13066289D01*
X5588921Y13138921D01*
X5516289Y13198529D01*
X5433423Y13242822D01*
X5343508Y13270097D01*
X5250000Y13279307D01*
X2100000Y13279307D01*
X2006492Y13270097D01*
X1916577Y13242822D01*
X1833711Y13198529D01*
X1761079Y13138921D01*
X1701471Y13066289D01*
X1657178Y12983423D01*
X1629903Y12893508D01*
X1620693Y12800000D01*
X1620693Y11800000D01*
X1629903Y11706492D01*
X1657178Y11616577D01*
X1701471Y11533711D01*
X1761079Y11461079D01*
X1833711Y11401471D01*
X1916577Y11357178D01*
X2006492Y11329903D01*
X2100000Y11320693D01*
X5037727Y11320693D01*
X5002541Y11143805D01*
X5002541Y10903395D01*
X5035180Y10739307D01*
X2100000Y10739307D01*
X2006492Y10730097D01*
X1916577Y10702822D01*
X1833711Y10658529D01*
X1761079Y10598921D01*
X1701471Y10526289D01*
X1657178Y10443423D01*
X1629903Y10353508D01*
X1620693Y10260000D01*
X1620693Y9260000D01*
X1629903Y9166492D01*
X1657178Y9076577D01*
X1701471Y8993711D01*
X1761079Y8921079D01*
X1833711Y8861471D01*
X1916577Y8817178D01*
X2006492Y8789903D01*
X2100000Y8780693D01*
X5250000Y8780693D01*
X5343508Y8789903D01*
X5433423Y8817178D01*
X5516289Y8861471D01*
X5588921Y8921079D01*
X5648529Y8993711D01*
X5692822Y9076577D01*
X5720097Y9166492D01*
X5729307Y9260000D01*
X5729307Y9907080D01*
X5867005Y9850043D01*
X6102795Y9803141D01*
X6343205Y9803141D01*
X6578995Y9850043D01*
X6670693Y9888026D01*
X6670693Y9260000D01*
X6679903Y9166492D01*
X6707178Y9076577D01*
X6751471Y8993711D01*
X6811079Y8921079D01*
X6883711Y8861471D01*
X6966577Y8817178D01*
X7056492Y8789903D01*
X7150000Y8780693D01*
X8272455Y8780693D01*
X8310856Y8760167D01*
X8513871Y8698583D01*
X8672091Y8683000D01*
X11193893Y8683000D01*
X12220693Y7656199D01*
X12220693Y7200000D01*
X12234706Y7057719D01*
X12276208Y6920906D01*
X12343603Y6794819D01*
X12434302Y6684302D01*
X12544819Y6593603D01*
X12670906Y6526208D01*
X12706423Y6515434D01*
X12558205Y6406802D01*
X12361336Y6192046D01*
X12210146Y5943009D01*
X12110446Y5669261D01*
X12108524Y5656890D01*
X12229845Y5427000D01*
X13573000Y5427000D01*
X13573000Y5447000D01*
X13827000Y5447000D01*
X13827000Y5427000D01*
X15170155Y5427000D01*
X15291476Y5656890D01*
X15289554Y5669261D01*
X15189854Y5943009D01*
X15038664Y6192046D01*
X14841795Y6406802D01*
X14693577Y6515434D01*
X14729094Y6526208D01*
X14855181Y6593603D01*
X14965698Y6684302D01*
X15056397Y6794819D01*
X15123792Y6920906D01*
X15165294Y7057719D01*
X15179307Y7200000D01*
X15179307Y7656200D01*
X16206108Y8683000D01*
X20893893Y8683000D01*
X21020693Y8556200D01*
X21020693Y6950000D01*
X21029903Y6856492D01*
X21057178Y6766577D01*
X21101471Y6683711D01*
X21161079Y6611079D01*
X21233711Y6551471D01*
X21316577Y6507178D01*
X21406492Y6479903D01*
X21500000Y6470693D01*
X23300000Y6470693D01*
X23393508Y6479903D01*
X23483423Y6507178D01*
X23566289Y6551471D01*
X23638921Y6611079D01*
X23698529Y6683711D01*
X23742822Y6766577D01*
X23770097Y6856492D01*
X23779307Y6950000D01*
X23779307Y8356200D01*
X24106108Y8683000D01*
X25100427Y8683000D01*
X25258647Y8698583D01*
X25461662Y8760167D01*
X25648762Y8860174D01*
X25812757Y8994761D01*
X25947344Y9158756D01*
X26047351Y9345856D01*
X26061412Y9392207D01*
X27072907Y10403702D01*
X27110186Y10434296D01*
X27232276Y10583064D01*
X27322997Y10752791D01*
X27373749Y10920097D01*
X27378863Y10936956D01*
X27397727Y11128482D01*
X27393000Y11176475D01*
X27393000Y12139649D01*
X27407911Y12154560D01*
X27547663Y12363714D01*
X27643926Y12596113D01*
X27693000Y12842826D01*
X27693000Y13094374D01*
X27643926Y13341087D01*
X27547663Y13573486D01*
X27407911Y13782640D01*
X27230040Y13960511D01*
X27020886Y14100263D01*
X26942300Y14132814D01*
X27032292Y14164997D01*
X27157514Y14231929D01*
X27229097Y14475898D01*
X26416000Y15288995D01*
X26401858Y15274852D01*
X26222253Y15454457D01*
X26236395Y15468600D01*
X26595605Y15468600D01*
X27408702Y14655503D01*
X27652671Y14727086D01*
X27773571Y14982596D01*
X27842300Y15256784D01*
X27856217Y15539112D01*
X27814787Y15818730D01*
X27719603Y16084892D01*
X27652671Y16210114D01*
X27408702Y16281697D01*
X26595605Y15468600D01*
X26236395Y15468600D01*
X26222253Y15482742D01*
X26401858Y15662347D01*
X26416000Y15648205D01*
X27229097Y16461302D01*
X27157514Y16705271D01*
X26902004Y16826171D01*
X26627816Y16894900D01*
X26345488Y16908817D01*
X26065870Y16867387D01*
X25799708Y16772203D01*
X25674486Y16705271D01*
X25602903Y16461304D01*
X25490600Y16573607D01*
X25490600Y18201747D01*
X25493028Y18226400D01*
X25483336Y18324809D01*
X25454631Y18419436D01*
X25408017Y18506645D01*
X25345284Y18583084D01*
X25268845Y18645817D01*
X25181636Y18692431D01*
X25087009Y18721136D01*
X25013253Y18728400D01*
X24988600Y18730828D01*
X24963947Y18728400D01*
X21916808Y18728400D01*
X21956141Y18823357D01*
X21986000Y18973472D01*
X21986000Y19126528D01*
X21956141Y19276643D01*
X21897569Y19418048D01*
X21812536Y19545309D01*
X21704309Y19653536D01*
X21577048Y19738569D01*
X21435643Y19797141D01*
X21285528Y19827000D01*
X21132472Y19827000D01*
X20982357Y19797141D01*
X20840952Y19738569D01*
X20713691Y19653536D01*
X20687155Y19627000D01*
X17389001Y19627000D01*
X17315461Y19700540D01*
X17282858Y19761537D01*
X17210753Y19849396D01*
X17188742Y19867460D01*
X17077004Y19979198D01*
X17077004Y22301528D01*
X24623036Y22301528D01*
X24623036Y22148472D01*
X24652895Y21998357D01*
X24711467Y21856952D01*
X24796500Y21729691D01*
X24823037Y21703154D01*
X24823036Y20689094D01*
X24820246Y20660762D01*
X24823036Y20632431D01*
X24823036Y20632427D01*
X24823177Y20631000D01*
X24831385Y20547651D01*
X24846225Y20498733D01*
X24864379Y20438887D01*
X24917957Y20338648D01*
X24990062Y20250788D01*
X25012074Y20232723D01*
X25953960Y19290837D01*
X25972025Y19268825D01*
X26059884Y19196720D01*
X26160123Y19143142D01*
X26268887Y19110149D01*
X26353663Y19101799D01*
X26353669Y19101799D01*
X26381998Y19099009D01*
X26410327Y19101799D01*
X28032200Y19101799D01*
X31070693Y16063306D01*
X31070693Y15250000D01*
X31079903Y15156492D01*
X31107178Y15066577D01*
X31151471Y14983711D01*
X31211079Y14911079D01*
X31283711Y14851471D01*
X31366577Y14807178D01*
X31456492Y14779903D01*
X31550000Y14770693D01*
X32550000Y14770693D01*
X32643508Y14779903D01*
X32700000Y14797039D01*
X32756492Y14779903D01*
X32850000Y14770693D01*
X33850000Y14770693D01*
X33943508Y14779903D01*
X34033423Y14807178D01*
X34116289Y14851471D01*
X34188921Y14911079D01*
X34248529Y14983711D01*
X34292822Y15066577D01*
X34320097Y15156492D01*
X34329307Y15250000D01*
X34329307Y15914000D01*
X36357928Y15914000D01*
X36370188Y15789518D01*
X36406498Y15669820D01*
X36465463Y15559506D01*
X36544815Y15462815D01*
X36641506Y15383463D01*
X36751820Y15324498D01*
X36871518Y15288188D01*
X36996000Y15275928D01*
X37560250Y15279000D01*
X37719000Y15437750D01*
X37719000Y16637000D01*
X36519750Y16637000D01*
X36361000Y16478250D01*
X36357928Y15914000D01*
X34329307Y15914000D01*
X34329307Y16750000D01*
X34320097Y16843508D01*
X34292822Y16933423D01*
X34248529Y17016289D01*
X34188921Y17088921D01*
X34116289Y17148529D01*
X34033423Y17192822D01*
X33943508Y17220097D01*
X33855236Y17228791D01*
X33832079Y17272115D01*
X33759974Y17359974D01*
X33746913Y17370693D01*
X33850000Y17370693D01*
X33943508Y17379903D01*
X34033423Y17407178D01*
X34116289Y17451471D01*
X34188921Y17511079D01*
X34248529Y17583711D01*
X34292822Y17666577D01*
X34320097Y17756492D01*
X34329307Y17850000D01*
X34329307Y19350000D01*
X34320097Y19443508D01*
X34292822Y19533423D01*
X34277705Y19561704D01*
X35187963Y20471962D01*
X35209974Y20490026D01*
X35282079Y20577885D01*
X35335657Y20678124D01*
X35355491Y20743508D01*
X35368651Y20786888D01*
X35379791Y20900000D01*
X35377000Y20928339D01*
X35377000Y21006999D01*
X36606002Y19777997D01*
X36569996Y19691072D01*
X36519000Y19434698D01*
X36519000Y19173302D01*
X36569996Y18916928D01*
X36670028Y18675430D01*
X36815252Y18458087D01*
X37000087Y18273252D01*
X37032079Y18251876D01*
X36996000Y18252072D01*
X36871518Y18239812D01*
X36751820Y18203502D01*
X36641506Y18144537D01*
X36544815Y18065185D01*
X36465463Y17968494D01*
X36406498Y17858180D01*
X36370188Y17738482D01*
X36357928Y17614000D01*
X36361000Y17049750D01*
X36519750Y16891000D01*
X37719000Y16891000D01*
X37719000Y16911000D01*
X37973000Y16911000D01*
X37973000Y16891000D01*
X37993000Y16891000D01*
X37993000Y16637000D01*
X37973000Y16637000D01*
X37973000Y15437750D01*
X38131750Y15279000D01*
X38696000Y15275928D01*
X38820482Y15288188D01*
X38940180Y15324498D01*
X39050494Y15383463D01*
X39147185Y15462815D01*
X39226537Y15559506D01*
X39285502Y15669820D01*
X39321812Y15789518D01*
X39334072Y15914000D01*
X39333876Y15950079D01*
X39355252Y15918087D01*
X39540087Y15733252D01*
X39757430Y15588028D01*
X39998928Y15487996D01*
X40255302Y15437000D01*
X40516698Y15437000D01*
X40773072Y15487996D01*
X41014570Y15588028D01*
X41231913Y15733252D01*
X41416748Y15918087D01*
X41561972Y16135430D01*
X41656000Y16362433D01*
X41750028Y16135430D01*
X41895252Y15918087D01*
X42080087Y15733252D01*
X42297430Y15588028D01*
X42538928Y15487996D01*
X42795302Y15437000D01*
X43056698Y15437000D01*
X43313072Y15487996D01*
X43554570Y15588028D01*
X43771913Y15733252D01*
X43956748Y15918087D01*
X44101972Y16135430D01*
X44202004Y16376928D01*
X44253000Y16633302D01*
X44253000Y16894698D01*
X44202004Y17151072D01*
X44101972Y17392570D01*
X43956748Y17609913D01*
X43771913Y17794748D01*
X43554570Y17939972D01*
X43327567Y18034000D01*
X43554570Y18128028D01*
X43771913Y18273252D01*
X43956748Y18458087D01*
X44101972Y18675430D01*
X44202004Y18916928D01*
X44253000Y19173302D01*
X44253000Y19434698D01*
X44202004Y19691072D01*
X44101972Y19932570D01*
X43956748Y20149913D01*
X43771913Y20334748D01*
X43554570Y20479972D01*
X43313072Y20580004D01*
X43056698Y20631000D01*
X42795302Y20631000D01*
X42538928Y20580004D01*
X42297430Y20479972D01*
X42080087Y20334748D01*
X41895252Y20149913D01*
X41750028Y19932570D01*
X41656000Y19705567D01*
X41561972Y19932570D01*
X41416748Y20149913D01*
X41231913Y20334748D01*
X41014570Y20479972D01*
X40773072Y20580004D01*
X40516698Y20631000D01*
X40255302Y20631000D01*
X39998928Y20580004D01*
X39757430Y20479972D01*
X39540087Y20334748D01*
X39355252Y20149913D01*
X39210028Y19932570D01*
X39116000Y19705567D01*
X39021972Y19932570D01*
X38876748Y20149913D01*
X38691913Y20334748D01*
X38474570Y20479972D01*
X38233072Y20580004D01*
X37976698Y20631000D01*
X37715302Y20631000D01*
X37458928Y20580004D01*
X37442713Y20573288D01*
X34482001Y23534000D01*
X36357928Y23534000D01*
X36370188Y23409518D01*
X36406498Y23289820D01*
X36465463Y23179506D01*
X36544815Y23082815D01*
X36641506Y23003463D01*
X36751820Y22944498D01*
X36871518Y22908188D01*
X36996000Y22895928D01*
X37560250Y22899000D01*
X37719000Y23057750D01*
X37719000Y24257000D01*
X36519750Y24257000D01*
X36361000Y24098250D01*
X36357928Y23534000D01*
X34482001Y23534000D01*
X34329307Y23686694D01*
X34329307Y24550000D01*
X34320097Y24643508D01*
X34292822Y24733423D01*
X34248529Y24816289D01*
X34188921Y24888921D01*
X34116289Y24948529D01*
X34033423Y24992822D01*
X33943508Y25020097D01*
X33850000Y25029307D01*
X32850000Y25029307D01*
X32756492Y25020097D01*
X32700000Y25002961D01*
X32643508Y25020097D01*
X32550000Y25029307D01*
X31550000Y25029307D01*
X31456492Y25020097D01*
X31366577Y24992822D01*
X31283711Y24948529D01*
X31211079Y24888921D01*
X31151471Y24816289D01*
X31107178Y24733423D01*
X31079903Y24643508D01*
X31070693Y24550000D01*
X31070693Y23386694D01*
X29161003Y21477004D01*
X28157045Y21477004D01*
X28130509Y21503540D01*
X28003248Y21588573D01*
X27861843Y21647145D01*
X27711728Y21677004D01*
X27558672Y21677004D01*
X27408557Y21647145D01*
X27267152Y21588573D01*
X27139891Y21503540D01*
X27031664Y21395313D01*
X26946631Y21268052D01*
X26888059Y21126647D01*
X26869117Y21031416D01*
X26746528Y21055800D01*
X26593472Y21055800D01*
X26443357Y21025941D01*
X26301952Y20967369D01*
X26174691Y20882336D01*
X26084577Y20792222D01*
X25977036Y20899763D01*
X25977036Y21703155D01*
X26003572Y21729691D01*
X26088605Y21856952D01*
X26147177Y21998357D01*
X26177036Y22148472D01*
X26177036Y22301528D01*
X26147177Y22451643D01*
X26088605Y22593048D01*
X26003572Y22720309D01*
X25895345Y22828536D01*
X25768084Y22913569D01*
X25626679Y22972141D01*
X25476564Y23002000D01*
X25323508Y23002000D01*
X25173393Y22972141D01*
X25031988Y22913569D01*
X24904727Y22828536D01*
X24796500Y22720309D01*
X24711467Y22593048D01*
X24652895Y22451643D01*
X24623036Y22301528D01*
X17077004Y22301528D01*
X17077004Y25234000D01*
X36357928Y25234000D01*
X36361000Y24669750D01*
X36519750Y24511000D01*
X37719000Y24511000D01*
X37719000Y24531000D01*
X37973000Y24531000D01*
X37973000Y24511000D01*
X37993000Y24511000D01*
X37993000Y24257000D01*
X37973000Y24257000D01*
X37973000Y23057750D01*
X38131750Y22899000D01*
X38696000Y22895928D01*
X38820482Y22908188D01*
X38940180Y22944498D01*
X39050494Y23003463D01*
X39147185Y23082815D01*
X39226537Y23179506D01*
X39285502Y23289820D01*
X39321812Y23409518D01*
X39334072Y23534000D01*
X39333876Y23570079D01*
X39355252Y23538087D01*
X39540087Y23353252D01*
X39757430Y23208028D01*
X39998928Y23107996D01*
X40255302Y23057000D01*
X40516698Y23057000D01*
X40773072Y23107996D01*
X41014570Y23208028D01*
X41231913Y23353252D01*
X41416748Y23538087D01*
X41561972Y23755430D01*
X41656000Y23982433D01*
X41750028Y23755430D01*
X41895252Y23538087D01*
X42080087Y23353252D01*
X42297430Y23208028D01*
X42538928Y23107996D01*
X42795302Y23057000D01*
X43056698Y23057000D01*
X43313072Y23107996D01*
X43554570Y23208028D01*
X43771913Y23353252D01*
X43956748Y23538087D01*
X44101972Y23755430D01*
X44202004Y23996928D01*
X44253000Y24253302D01*
X44253000Y24514698D01*
X44202004Y24771072D01*
X44101972Y25012570D01*
X43956748Y25229913D01*
X43771913Y25414748D01*
X43554570Y25559972D01*
X43327567Y25654000D01*
X43554570Y25748028D01*
X43771913Y25893252D01*
X43956748Y26078087D01*
X44101972Y26295430D01*
X44202004Y26536928D01*
X44253000Y26793302D01*
X44253000Y27054698D01*
X44202004Y27311072D01*
X44101972Y27552570D01*
X43956748Y27769913D01*
X43771913Y27954748D01*
X43554570Y28099972D01*
X43313072Y28200004D01*
X43056698Y28251000D01*
X42795302Y28251000D01*
X42538928Y28200004D01*
X42297430Y28099972D01*
X42080087Y27954748D01*
X41895252Y27769913D01*
X41750028Y27552570D01*
X41656000Y27325567D01*
X41561972Y27552570D01*
X41416748Y27769913D01*
X41231913Y27954748D01*
X41014570Y28099972D01*
X40773072Y28200004D01*
X40516698Y28251000D01*
X40255302Y28251000D01*
X39998928Y28200004D01*
X39757430Y28099972D01*
X39540087Y27954748D01*
X39355252Y27769913D01*
X39210028Y27552570D01*
X39116000Y27325567D01*
X39021972Y27552570D01*
X38876748Y27769913D01*
X38691913Y27954748D01*
X38474570Y28099972D01*
X38233072Y28200004D01*
X37976698Y28251000D01*
X37715302Y28251000D01*
X37458928Y28200004D01*
X37217430Y28099972D01*
X37000087Y27954748D01*
X36815252Y27769913D01*
X36670028Y27552570D01*
X36569996Y27311072D01*
X36519000Y27054698D01*
X36519000Y26793302D01*
X36569996Y26536928D01*
X36670028Y26295430D01*
X36815252Y26078087D01*
X37000087Y25893252D01*
X37032079Y25871876D01*
X36996000Y25872072D01*
X36871518Y25859812D01*
X36751820Y25823502D01*
X36641506Y25764537D01*
X36544815Y25685185D01*
X36465463Y25588494D01*
X36406498Y25478180D01*
X36370188Y25358482D01*
X36357928Y25234000D01*
X17077004Y25234000D01*
X17077004Y25521665D01*
X17079794Y25549996D01*
X17076957Y25578810D01*
X17070539Y25643973D01*
X17068655Y25663108D01*
X17040513Y25755877D01*
X17035661Y25771872D01*
X16982083Y25872111D01*
X16909978Y25959970D01*
X16887967Y25978034D01*
X15429307Y27436694D01*
X15429307Y28550000D01*
X15420097Y28643508D01*
X15392822Y28733423D01*
X15348529Y28816289D01*
X15288921Y28888921D01*
X15216289Y28948529D01*
X15133423Y28992822D01*
X15043508Y29020097D01*
X14950000Y29029307D01*
X13950000Y29029307D01*
X13856492Y29020097D01*
X13800000Y29002961D01*
X13743508Y29020097D01*
X13650000Y29029307D01*
X13067007Y29029307D01*
X15383172Y31345472D01*
X35273000Y31345472D01*
X35273000Y31054528D01*
X35329760Y30769175D01*
X35441099Y30500378D01*
X35602739Y30258467D01*
X35808467Y30052739D01*
X36050378Y29891099D01*
X36319175Y29779760D01*
X36604528Y29723000D01*
X36895472Y29723000D01*
X37180825Y29779760D01*
X37449622Y29891099D01*
X37691533Y30052739D01*
X37897261Y30258467D01*
X38058901Y30500378D01*
X38170240Y30769175D01*
X38227000Y31054528D01*
X38227000Y31345472D01*
X41273000Y31345472D01*
X41273000Y31054528D01*
X41329760Y30769175D01*
X41441099Y30500378D01*
X41602739Y30258467D01*
X41808467Y30052739D01*
X42050378Y29891099D01*
X42319175Y29779760D01*
X42604528Y29723000D01*
X42895472Y29723000D01*
X43180825Y29779760D01*
X43449622Y29891099D01*
X43691533Y30052739D01*
X43897261Y30258467D01*
X44058901Y30500378D01*
X44170240Y30769175D01*
X44227000Y31054528D01*
X44227000Y31345472D01*
X44170240Y31630825D01*
X44058901Y31899622D01*
X43897261Y32141533D01*
X43691533Y32347261D01*
X43449622Y32508901D01*
X43180825Y32620240D01*
X42895472Y32677000D01*
X42604528Y32677000D01*
X42319175Y32620240D01*
X42050378Y32508901D01*
X41808467Y32347261D01*
X41602739Y32141533D01*
X41441099Y31899622D01*
X41329760Y31630825D01*
X41273000Y31345472D01*
X38227000Y31345472D01*
X38170240Y31630825D01*
X38058901Y31899622D01*
X38015707Y31964266D01*
X38112928Y31923996D01*
X38369302Y31873000D01*
X38630698Y31873000D01*
X38887072Y31923996D01*
X39128570Y32024028D01*
X39345913Y32169252D01*
X39530748Y32354087D01*
X39675972Y32571430D01*
X39776004Y32812928D01*
X39827000Y33069302D01*
X39827000Y33330698D01*
X39776004Y33587072D01*
X39675972Y33828570D01*
X39530748Y34045913D01*
X39345913Y34230748D01*
X39128570Y34375972D01*
X38887072Y34476004D01*
X38630698Y34527000D01*
X38369302Y34527000D01*
X38112928Y34476004D01*
X37871430Y34375972D01*
X37654087Y34230748D01*
X37469252Y34045913D01*
X37324028Y33828570D01*
X37223996Y33587072D01*
X37173000Y33330698D01*
X37173000Y33069302D01*
X37223996Y32812928D01*
X37324028Y32571430D01*
X37333735Y32556903D01*
X37180825Y32620240D01*
X36895472Y32677000D01*
X36604528Y32677000D01*
X36319175Y32620240D01*
X36050378Y32508901D01*
X35808467Y32347261D01*
X35602739Y32141533D01*
X35441099Y31899622D01*
X35329760Y31630825D01*
X35273000Y31345472D01*
X15383172Y31345472D01*
X18472762Y34435062D01*
X18494774Y34453127D01*
X18566879Y34540986D01*
X18620457Y34641225D01*
X18653450Y34749989D01*
X18661800Y34834765D01*
X18661800Y34834771D01*
X18664590Y34863100D01*
X18661800Y34891429D01*
X18661800Y36104953D01*
X18688336Y36131489D01*
X18773369Y36258750D01*
X18831941Y36400155D01*
X18861800Y36550270D01*
X18861800Y36703326D01*
X18831941Y36853441D01*
X18773369Y36994846D01*
X18688336Y37122107D01*
X18580109Y37230334D01*
X18452848Y37315367D01*
X18415836Y37330698D01*
X37173000Y37330698D01*
X37173000Y37069302D01*
X37223996Y36812928D01*
X37324028Y36571430D01*
X37469252Y36354087D01*
X37654087Y36169252D01*
X37871430Y36024028D01*
X38112928Y35923996D01*
X38369302Y35873000D01*
X38630698Y35873000D01*
X38887072Y35923996D01*
X39128570Y36024028D01*
X39345913Y36169252D01*
X39530748Y36354087D01*
X39675972Y36571430D01*
X39776004Y36812928D01*
X39827000Y37069302D01*
X39827000Y37330698D01*
X39776004Y37587072D01*
X39675972Y37828570D01*
X39530748Y38045913D01*
X39345913Y38230748D01*
X39128570Y38375972D01*
X38887072Y38476004D01*
X38630698Y38527000D01*
X38369302Y38527000D01*
X38112928Y38476004D01*
X37871430Y38375972D01*
X37654087Y38230748D01*
X37469252Y38045913D01*
X37324028Y37828570D01*
X37223996Y37587072D01*
X37173000Y37330698D01*
X18415836Y37330698D01*
X18311443Y37373939D01*
X18161328Y37403798D01*
X18049000Y37403798D01*
X18049000Y37516128D01*
X18019141Y37666243D01*
X17960569Y37807648D01*
X17875536Y37934909D01*
X17767309Y38043136D01*
X17640048Y38128169D01*
X17498643Y38186741D01*
X17348528Y38216600D01*
X17195472Y38216600D01*
X17045357Y38186741D01*
X16903952Y38128169D01*
X16776691Y38043136D01*
X16668464Y37934909D01*
X16583431Y37807648D01*
X16524859Y37666243D01*
X16495000Y37516128D01*
X16495000Y37363072D01*
X16524859Y37212957D01*
X16583431Y37071552D01*
X16668464Y36944291D01*
X16695000Y36917755D01*
X16695001Y34855003D01*
X12066967Y30226969D01*
X12047141Y30326643D01*
X11988569Y30468048D01*
X11903536Y30595309D01*
X11795309Y30703536D01*
X11668048Y30788569D01*
X11526643Y30847141D01*
X11376528Y30877000D01*
X11223472Y30877000D01*
X11073357Y30847141D01*
X10931952Y30788569D01*
X10804691Y30703536D01*
X10770506Y30669351D01*
X10770097Y30673508D01*
X10742822Y30763423D01*
X10698529Y30846289D01*
X10638921Y30918921D01*
X10566289Y30978529D01*
X10483423Y31022822D01*
X10393508Y31050097D01*
X10300000Y31059307D01*
X7150000Y31059307D01*
X7056492Y31050097D01*
X6966577Y31022822D01*
X6883711Y30978529D01*
X6811079Y30918921D01*
X6751471Y30846289D01*
X6707178Y30763423D01*
X6679903Y30673508D01*
X6670693Y30580000D01*
X6670693Y29580000D01*
X6679903Y29486492D01*
X6707178Y29396577D01*
X6751471Y29313711D01*
X6811079Y29241079D01*
X6883711Y29181471D01*
X6966577Y29137178D01*
X7056492Y29109903D01*
X7150000Y29100693D01*
X10300000Y29100693D01*
X10393508Y29109903D01*
X10483423Y29137178D01*
X10566289Y29181471D01*
X10638921Y29241079D01*
X10698529Y29313711D01*
X10742822Y29396577D01*
X10770097Y29486492D01*
X10771723Y29503000D01*
X10798155Y29503000D01*
X10804691Y29496464D01*
X10931952Y29411431D01*
X11073357Y29352859D01*
X11173031Y29333033D01*
X10499883Y28659885D01*
X10477871Y28641820D01*
X10405766Y28553960D01*
X10382881Y28511144D01*
X10300000Y28519307D01*
X7150000Y28519307D01*
X7056492Y28510097D01*
X6966577Y28482822D01*
X6883711Y28438529D01*
X6811079Y28378921D01*
X6751471Y28306289D01*
X6707178Y28223423D01*
X6679903Y28133508D01*
X6670693Y28040000D01*
X6670693Y27040000D01*
X6678465Y26961089D01*
X6642710Y26950243D01*
X6542471Y26896665D01*
X6454612Y26824560D01*
X6436547Y26802548D01*
X5525208Y25891209D01*
X5516289Y25898529D01*
X5433423Y25942822D01*
X5343508Y25970097D01*
X5250000Y25979307D01*
X2100000Y25979307D01*
X2006492Y25970097D01*
X1916577Y25942822D01*
X1833711Y25898529D01*
X1761079Y25838921D01*
X1701471Y25766289D01*
X1657178Y25683423D01*
X1629903Y25593508D01*
X1620693Y25500000D01*
X502000Y25500000D01*
X502000Y28040000D01*
X1620693Y28040000D01*
X1620693Y27040000D01*
X1629903Y26946492D01*
X1657178Y26856577D01*
X1701471Y26773711D01*
X1761079Y26701079D01*
X1833711Y26641471D01*
X1916577Y26597178D01*
X2006492Y26569903D01*
X2100000Y26560693D01*
X5250000Y26560693D01*
X5343508Y26569903D01*
X5433423Y26597178D01*
X5516289Y26641471D01*
X5588921Y26701079D01*
X5648529Y26773711D01*
X5692822Y26856577D01*
X5720097Y26946492D01*
X5729307Y27040000D01*
X5729307Y28040000D01*
X5720097Y28133508D01*
X5692822Y28223423D01*
X5648529Y28306289D01*
X5588921Y28378921D01*
X5516289Y28438529D01*
X5433423Y28482822D01*
X5343508Y28510097D01*
X5250000Y28519307D01*
X2100000Y28519307D01*
X2006492Y28510097D01*
X1916577Y28482822D01*
X1833711Y28438529D01*
X1761079Y28378921D01*
X1701471Y28306289D01*
X1657178Y28223423D01*
X1629903Y28133508D01*
X1620693Y28040000D01*
X502000Y28040000D01*
X502000Y30580000D01*
X1620693Y30580000D01*
X1620693Y29580000D01*
X1629903Y29486492D01*
X1657178Y29396577D01*
X1701471Y29313711D01*
X1761079Y29241079D01*
X1833711Y29181471D01*
X1916577Y29137178D01*
X2006492Y29109903D01*
X2100000Y29100693D01*
X5250000Y29100693D01*
X5343508Y29109903D01*
X5433423Y29137178D01*
X5516289Y29181471D01*
X5588921Y29241079D01*
X5648529Y29313711D01*
X5692822Y29396577D01*
X5720097Y29486492D01*
X5729307Y29580000D01*
X5729307Y30580000D01*
X5720097Y30673508D01*
X5692822Y30763423D01*
X5648529Y30846289D01*
X5588921Y30918921D01*
X5516289Y30978529D01*
X5433423Y31022822D01*
X5343508Y31050097D01*
X5250000Y31059307D01*
X2100000Y31059307D01*
X2006492Y31050097D01*
X1916577Y31022822D01*
X1833711Y30978529D01*
X1761079Y30918921D01*
X1701471Y30846289D01*
X1657178Y30763423D01*
X1629903Y30673508D01*
X1620693Y30580000D01*
X502000Y30580000D01*
X502000Y33120000D01*
X1620693Y33120000D01*
X1620693Y32120000D01*
X1629903Y32026492D01*
X1657178Y31936577D01*
X1701471Y31853711D01*
X1761079Y31781079D01*
X1833711Y31721471D01*
X1916577Y31677178D01*
X2006492Y31649903D01*
X2100000Y31640693D01*
X5250000Y31640693D01*
X5343508Y31649903D01*
X5433423Y31677178D01*
X5516289Y31721471D01*
X5588921Y31781079D01*
X5648529Y31853711D01*
X5692822Y31936577D01*
X5720097Y32026492D01*
X5729307Y32120000D01*
X5729307Y33120000D01*
X5720097Y33213508D01*
X5692822Y33303423D01*
X5648529Y33386289D01*
X5588921Y33458921D01*
X5516289Y33518529D01*
X5433423Y33562822D01*
X5343508Y33590097D01*
X5250000Y33599307D01*
X2100000Y33599307D01*
X2006492Y33590097D01*
X1916577Y33562822D01*
X1833711Y33518529D01*
X1761079Y33458921D01*
X1701471Y33386289D01*
X1657178Y33303423D01*
X1629903Y33213508D01*
X1620693Y33120000D01*
X502000Y33120000D01*
X502000Y35660000D01*
X1620693Y35660000D01*
X1620693Y34660000D01*
X1629903Y34566492D01*
X1657178Y34476577D01*
X1701471Y34393711D01*
X1761079Y34321079D01*
X1833711Y34261471D01*
X1916577Y34217178D01*
X2006492Y34189903D01*
X2100000Y34180693D01*
X5250000Y34180693D01*
X5343508Y34189903D01*
X5433423Y34217178D01*
X5516289Y34261471D01*
X5588921Y34321079D01*
X5648529Y34393711D01*
X5692822Y34476577D01*
X5720097Y34566492D01*
X5729307Y34660000D01*
X5729307Y35660000D01*
X5720097Y35753508D01*
X5692822Y35843423D01*
X5648529Y35926289D01*
X5588921Y35998921D01*
X5516289Y36058529D01*
X5433423Y36102822D01*
X5343508Y36130097D01*
X5250000Y36139307D01*
X2100000Y36139307D01*
X2006492Y36130097D01*
X1916577Y36102822D01*
X1833711Y36058529D01*
X1761079Y35998921D01*
X1701471Y35926289D01*
X1657178Y35843423D01*
X1629903Y35753508D01*
X1620693Y35660000D01*
X502000Y35660000D01*
X502000Y37200000D01*
X1461928Y37200000D01*
X1474188Y37075518D01*
X1510498Y36955820D01*
X1569463Y36845506D01*
X1648815Y36748815D01*
X1745506Y36669463D01*
X1855820Y36610498D01*
X1975518Y36574188D01*
X2100000Y36561928D01*
X3389250Y36565000D01*
X3548000Y36723750D01*
X3548000Y37573000D01*
X3802000Y37573000D01*
X3802000Y36723750D01*
X3960750Y36565000D01*
X5250000Y36561928D01*
X5374482Y36574188D01*
X5494180Y36610498D01*
X5604494Y36669463D01*
X5701185Y36748815D01*
X5780537Y36845506D01*
X5839502Y36955820D01*
X5875812Y37075518D01*
X5888072Y37200000D01*
X5885000Y37414250D01*
X5726250Y37573000D01*
X3802000Y37573000D01*
X3548000Y37573000D01*
X1623750Y37573000D01*
X1465000Y37414250D01*
X1461928Y37200000D01*
X502000Y37200000D01*
X502000Y38200000D01*
X1461928Y38200000D01*
X1465000Y37985750D01*
X1623750Y37827000D01*
X3548000Y37827000D01*
X3548000Y38676250D01*
X3389250Y38835000D01*
X2100000Y38838072D01*
X1975518Y38825812D01*
X1855820Y38789502D01*
X1745506Y38730537D01*
X1648815Y38651185D01*
X1569463Y38554494D01*
X1510498Y38444180D01*
X1474188Y38324482D01*
X1461928Y38200000D01*
X502000Y38200000D01*
X502000Y39495769D01*
X524653Y39498000D01*
X598409Y39505264D01*
X693036Y39533969D01*
X780245Y39580583D01*
X856684Y39643316D01*
X919417Y39719755D01*
X930238Y39740000D01*
X1461928Y39740000D01*
X1474188Y39615518D01*
X1510498Y39495820D01*
X1569463Y39385506D01*
X1648815Y39288815D01*
X1745506Y39209463D01*
X1855820Y39150498D01*
X1975518Y39114188D01*
X2100000Y39101928D01*
X3389250Y39105000D01*
X3548000Y39263750D01*
X3548000Y40113000D01*
X3802000Y40113000D01*
X3802000Y39263750D01*
X3960750Y39105000D01*
X4979514Y39102573D01*
X4977141Y39090642D01*
X4977141Y38850232D01*
X4979688Y38837428D01*
X3960750Y38835000D01*
X3802000Y38676250D01*
X3802000Y37827000D01*
X5726250Y37827000D01*
X5738739Y37839489D01*
X5841605Y37796880D01*
X6077395Y37749978D01*
X6317805Y37749978D01*
X6553595Y37796880D01*
X6670693Y37845384D01*
X6670693Y37200000D01*
X6679903Y37106492D01*
X6707178Y37016577D01*
X6751471Y36933711D01*
X6811079Y36861079D01*
X6883711Y36801471D01*
X6966577Y36757178D01*
X7056492Y36729903D01*
X7150000Y36720693D01*
X10300000Y36720693D01*
X10393508Y36729903D01*
X10483423Y36757178D01*
X10566289Y36801471D01*
X10638921Y36861079D01*
X10698529Y36933711D01*
X10742822Y37016577D01*
X10770097Y37106492D01*
X10779307Y37200000D01*
X10779307Y38200000D01*
X10770097Y38293508D01*
X10742822Y38383423D01*
X10698529Y38466289D01*
X10638921Y38538921D01*
X10566289Y38598529D01*
X10483423Y38642822D01*
X10393508Y38670097D01*
X10300000Y38679307D01*
X7384060Y38679307D01*
X7418059Y38850232D01*
X7418059Y39090642D01*
X7384233Y39260693D01*
X10300000Y39260693D01*
X10393508Y39269903D01*
X10483423Y39297178D01*
X10566289Y39341471D01*
X10638921Y39401079D01*
X10698529Y39473711D01*
X10741979Y39555000D01*
X12754799Y39555000D01*
X11346838Y38147039D01*
X11324826Y38128974D01*
X11252721Y38041114D01*
X11199143Y37940875D01*
X11193320Y37921679D01*
X11166149Y37832111D01*
X11162680Y37796880D01*
X11158061Y37749978D01*
X11155010Y37719000D01*
X11157800Y37690669D01*
X11157801Y35443402D01*
X10779307Y35064908D01*
X10779307Y35660000D01*
X10770097Y35753508D01*
X10742822Y35843423D01*
X10698529Y35926289D01*
X10638921Y35998921D01*
X10566289Y36058529D01*
X10483423Y36102822D01*
X10393508Y36130097D01*
X10300000Y36139307D01*
X7150000Y36139307D01*
X7056492Y36130097D01*
X6966577Y36102822D01*
X6883711Y36058529D01*
X6811079Y35998921D01*
X6751471Y35926289D01*
X6707178Y35843423D01*
X6679903Y35753508D01*
X6670693Y35660000D01*
X6670693Y34660000D01*
X6679903Y34566492D01*
X6707178Y34476577D01*
X6751471Y34393711D01*
X6811079Y34321079D01*
X6883711Y34261471D01*
X6966577Y34217178D01*
X7056492Y34189903D01*
X7150000Y34180693D01*
X9895092Y34180693D01*
X9313706Y33599307D01*
X7150000Y33599307D01*
X7056492Y33590097D01*
X6966577Y33562822D01*
X6883711Y33518529D01*
X6811079Y33458921D01*
X6751471Y33386289D01*
X6707178Y33303423D01*
X6679903Y33213508D01*
X6670693Y33120000D01*
X6670693Y32120000D01*
X6679903Y32026492D01*
X6707178Y31936577D01*
X6751471Y31853711D01*
X6811079Y31781079D01*
X6883711Y31721471D01*
X6966577Y31677178D01*
X7056492Y31649903D01*
X7150000Y31640693D01*
X10300000Y31640693D01*
X10393508Y31649903D01*
X10483423Y31677178D01*
X10566289Y31721471D01*
X10638921Y31781079D01*
X10698529Y31853711D01*
X10742822Y31936577D01*
X10770097Y32026492D01*
X10779307Y32120000D01*
X10779307Y33120000D01*
X10770097Y33213508D01*
X10742822Y33303423D01*
X10710428Y33364027D01*
X12122762Y34776361D01*
X12144774Y34794426D01*
X12216879Y34882285D01*
X12256616Y34956628D01*
X12270457Y34982523D01*
X12303451Y35091288D01*
X12314591Y35204400D01*
X12311800Y35232739D01*
X12311800Y37479999D01*
X13986790Y39154989D01*
X28045158Y39154989D01*
X28073489Y39152199D01*
X28101820Y39154989D01*
X28101825Y39154989D01*
X28131534Y39157915D01*
X28186600Y39163338D01*
X28231259Y39176886D01*
X28295365Y39196332D01*
X28395604Y39249910D01*
X28483463Y39322015D01*
X28501528Y39344027D01*
X32803194Y43645693D01*
X33350001Y43645693D01*
X33492282Y43659706D01*
X33629094Y43701208D01*
X33755182Y43768603D01*
X33865698Y43859302D01*
X33956397Y43969818D01*
X34023792Y44095906D01*
X34065294Y44232718D01*
X34079307Y44374999D01*
X34079307Y45625001D01*
X34065294Y45767282D01*
X34023792Y45904094D01*
X33956397Y46030182D01*
X33865698Y46140698D01*
X33755182Y46231397D01*
X33629094Y46298792D01*
X33492282Y46340294D01*
X33350001Y46354307D01*
X32649999Y46354307D01*
X32507718Y46340294D01*
X32370906Y46298792D01*
X32244818Y46231397D01*
X32134302Y46140698D01*
X32043603Y46030182D01*
X31976208Y45904094D01*
X31943164Y45795164D01*
X31899826Y45876244D01*
X31765239Y46040239D01*
X31601244Y46174826D01*
X31414144Y46274833D01*
X31211129Y46336417D01*
X31000000Y46357211D01*
X30788872Y46336417D01*
X30585857Y46274833D01*
X30398757Y46174826D01*
X30234762Y46040239D01*
X30100175Y45876244D01*
X30000168Y45689144D01*
X30000000Y45688591D01*
X29999833Y45689143D01*
X29899826Y45876244D01*
X29765239Y46040239D01*
X29601244Y46174826D01*
X29414144Y46274833D01*
X29211129Y46336417D01*
X29000000Y46357211D01*
X28788872Y46336417D01*
X28585857Y46274833D01*
X28398757Y46174826D01*
X28234762Y46040239D01*
X28100175Y45876244D01*
X28093158Y45863115D01*
X28092390Y45864946D01*
X27956307Y46066725D01*
X27783474Y46238078D01*
X27580533Y46372421D01*
X27355282Y46464591D01*
X27317609Y46468462D01*
X27127000Y46343731D01*
X27127000Y45127000D01*
X27147000Y45127000D01*
X27147000Y44873000D01*
X27127000Y44873000D01*
X27127000Y43656269D01*
X27317609Y43531538D01*
X27355282Y43535409D01*
X27580533Y43627579D01*
X27783474Y43761922D01*
X27956307Y43933275D01*
X28092390Y44135054D01*
X28093157Y44136884D01*
X28100174Y44123756D01*
X28234761Y43959761D01*
X28398756Y43825174D01*
X28585856Y43725167D01*
X28788871Y43663583D01*
X29000000Y43642789D01*
X29211128Y43663583D01*
X29414143Y43725167D01*
X29601244Y43825174D01*
X29765239Y43959761D01*
X29899826Y44123756D01*
X29999833Y44310856D01*
X30000000Y44311407D01*
X30000167Y44310857D01*
X30100174Y44123756D01*
X30234761Y43959761D01*
X30398756Y43825174D01*
X30423001Y43812215D01*
X30423001Y43671214D01*
X27460787Y40709000D01*
X10838052Y40709000D01*
X10822115Y40722079D01*
X10778791Y40745236D01*
X10770097Y40833508D01*
X10742822Y40923423D01*
X10698529Y41006289D01*
X10638921Y41078921D01*
X10566289Y41138529D01*
X10483423Y41182822D01*
X10393508Y41210097D01*
X10300000Y41219307D01*
X7150000Y41219307D01*
X7056492Y41210097D01*
X6966577Y41182822D01*
X6883711Y41138529D01*
X6811079Y41078921D01*
X6751471Y41006289D01*
X6707178Y40923423D01*
X6679903Y40833508D01*
X6670693Y40740000D01*
X6670693Y40095490D01*
X6553595Y40143994D01*
X6317805Y40190896D01*
X6077395Y40190896D01*
X5841605Y40143994D01*
X5738121Y40101129D01*
X5726250Y40113000D01*
X3802000Y40113000D01*
X3548000Y40113000D01*
X1623750Y40113000D01*
X1465000Y39954250D01*
X1461928Y39740000D01*
X930238Y39740000D01*
X966031Y39806964D01*
X994736Y39901591D01*
X1004428Y40000000D01*
X1002000Y40024653D01*
X1002000Y40740000D01*
X1461928Y40740000D01*
X1465000Y40525750D01*
X1623750Y40367000D01*
X3548000Y40367000D01*
X3548000Y41216250D01*
X3802000Y41216250D01*
X3802000Y40367000D01*
X5726250Y40367000D01*
X5885000Y40525750D01*
X5888072Y40740000D01*
X5875812Y40864482D01*
X5839502Y40984180D01*
X5780537Y41094494D01*
X5701185Y41191185D01*
X5604494Y41270537D01*
X5494180Y41329502D01*
X5374482Y41365812D01*
X5250000Y41378072D01*
X3960750Y41375000D01*
X3802000Y41216250D01*
X3548000Y41216250D01*
X3389250Y41375000D01*
X2100000Y41378072D01*
X1975518Y41365812D01*
X1855820Y41329502D01*
X1745506Y41270537D01*
X1648815Y41191185D01*
X1569463Y41094494D01*
X1510498Y40984180D01*
X1474188Y40864482D01*
X1461928Y40740000D01*
X1002000Y40740000D01*
X1002000Y42280000D01*
X1461928Y42280000D01*
X1474188Y42155518D01*
X1510498Y42035820D01*
X1569463Y41925506D01*
X1648815Y41828815D01*
X1745506Y41749463D01*
X1855820Y41690498D01*
X1975518Y41654188D01*
X2100000Y41641928D01*
X3389250Y41645000D01*
X3548000Y41803750D01*
X3548000Y42653000D01*
X3802000Y42653000D01*
X3802000Y41803750D01*
X3960750Y41645000D01*
X5250000Y41641928D01*
X5374482Y41654188D01*
X5494180Y41690498D01*
X5604494Y41749463D01*
X5701185Y41828815D01*
X5780537Y41925506D01*
X5839502Y42035820D01*
X5875812Y42155518D01*
X5888072Y42280000D01*
X5885000Y42494250D01*
X5726250Y42653000D01*
X3802000Y42653000D01*
X3548000Y42653000D01*
X1623750Y42653000D01*
X1465000Y42494250D01*
X1461928Y42280000D01*
X1002000Y42280000D01*
X1002000Y43280000D01*
X1461928Y43280000D01*
X1465000Y43065750D01*
X1623750Y42907000D01*
X3548000Y42907000D01*
X3548000Y43756250D01*
X3802000Y43756250D01*
X3802000Y42907000D01*
X5726250Y42907000D01*
X5885000Y43065750D01*
X5888072Y43280000D01*
X6670693Y43280000D01*
X6670693Y42280000D01*
X6679903Y42186492D01*
X6707178Y42096577D01*
X6751471Y42013711D01*
X6811079Y41941079D01*
X6883711Y41881471D01*
X6966577Y41837178D01*
X7056492Y41809903D01*
X7150000Y41800693D01*
X10300000Y41800693D01*
X10393508Y41809903D01*
X10483423Y41837178D01*
X10566289Y41881471D01*
X10638921Y41941079D01*
X10698529Y42013711D01*
X10742822Y42096577D01*
X10770097Y42186492D01*
X10779307Y42280000D01*
X10779307Y43280000D01*
X10770097Y43373508D01*
X10742822Y43463423D01*
X10698529Y43546289D01*
X10638921Y43618921D01*
X10566289Y43678529D01*
X10483423Y43722822D01*
X10393508Y43750097D01*
X10300000Y43759307D01*
X7150000Y43759307D01*
X7056492Y43750097D01*
X6966577Y43722822D01*
X6883711Y43678529D01*
X6811079Y43618921D01*
X6751471Y43546289D01*
X6707178Y43463423D01*
X6679903Y43373508D01*
X6670693Y43280000D01*
X5888072Y43280000D01*
X5875812Y43404482D01*
X5839502Y43524180D01*
X5780537Y43634494D01*
X5701185Y43731185D01*
X5604494Y43810537D01*
X5494180Y43869502D01*
X5374482Y43905812D01*
X5250000Y43918072D01*
X3960750Y43915000D01*
X3802000Y43756250D01*
X3548000Y43756250D01*
X3389250Y43915000D01*
X2100000Y43918072D01*
X1975518Y43905812D01*
X1855820Y43869502D01*
X1745506Y43810537D01*
X1648815Y43731185D01*
X1569463Y43634494D01*
X1510498Y43524180D01*
X1474188Y43404482D01*
X1461928Y43280000D01*
X1002000Y43280000D01*
X1002000Y46975450D01*
X1008791Y47044718D01*
X1173000Y47044718D01*
X1173000Y46655282D01*
X1248975Y46273330D01*
X1398005Y45913539D01*
X1614364Y45589736D01*
X1889736Y45314364D01*
X2213539Y45098005D01*
X2573330Y44948975D01*
X2955282Y44873000D01*
X3344718Y44873000D01*
X12765000Y44873000D01*
X12765000Y44598000D01*
X12813507Y44359504D01*
X12907610Y44135054D01*
X13043693Y43933275D01*
X13216526Y43761922D01*
X13419467Y43627579D01*
X13644718Y43535409D01*
X13682391Y43531538D01*
X13873000Y43656269D01*
X13873000Y44873000D01*
X12765000Y44873000D01*
X3344718Y44873000D01*
X3726670Y44948975D01*
X4086461Y45098005D01*
X4410264Y45314364D01*
X4685636Y45589736D01*
X4901995Y45913539D01*
X5051025Y46273330D01*
X5127000Y46655282D01*
X5127000Y46995472D01*
X5823000Y46995472D01*
X5823000Y46704528D01*
X5879760Y46419175D01*
X5991099Y46150378D01*
X6152739Y45908467D01*
X6358467Y45702739D01*
X6600378Y45541099D01*
X6869175Y45429760D01*
X7154528Y45373000D01*
X7445472Y45373000D01*
X7591265Y45402000D01*
X12765000Y45402000D01*
X12765000Y45127000D01*
X13873000Y45127000D01*
X13873000Y46343731D01*
X14127000Y46343731D01*
X14127000Y45127000D01*
X14147000Y45127000D01*
X14147000Y44873000D01*
X14127000Y44873000D01*
X14127000Y43656269D01*
X14317609Y43531538D01*
X14355282Y43535409D01*
X14580533Y43627579D01*
X14783474Y43761922D01*
X14956307Y43933275D01*
X15092390Y44135054D01*
X15093157Y44136884D01*
X15100174Y44123756D01*
X15234761Y43959761D01*
X15398756Y43825174D01*
X15585856Y43725167D01*
X15788871Y43663583D01*
X16000000Y43642789D01*
X16211128Y43663583D01*
X16414143Y43725167D01*
X16601244Y43825174D01*
X16765239Y43959761D01*
X16899826Y44123756D01*
X16999833Y44310856D01*
X17000000Y44311407D01*
X17000167Y44310857D01*
X17100174Y44123756D01*
X17234761Y43959761D01*
X17398756Y43825174D01*
X17585856Y43725167D01*
X17788871Y43663583D01*
X18000000Y43642789D01*
X18211128Y43663583D01*
X18414143Y43725167D01*
X18601244Y43825174D01*
X18765239Y43959761D01*
X18899826Y44123756D01*
X18943164Y44204836D01*
X18976208Y44095906D01*
X19043603Y43969818D01*
X19134302Y43859302D01*
X19244818Y43768603D01*
X19370906Y43701208D01*
X19507718Y43659706D01*
X19649999Y43645693D01*
X20350001Y43645693D01*
X20492282Y43659706D01*
X20629094Y43701208D01*
X20755182Y43768603D01*
X20865698Y43859302D01*
X20956397Y43969818D01*
X21023792Y44095906D01*
X21065294Y44232718D01*
X21079307Y44374999D01*
X21079307Y44873000D01*
X25765000Y44873000D01*
X25765000Y44598000D01*
X25813507Y44359504D01*
X25907610Y44135054D01*
X26043693Y43933275D01*
X26216526Y43761922D01*
X26419467Y43627579D01*
X26644718Y43535409D01*
X26682391Y43531538D01*
X26873000Y43656269D01*
X26873000Y44873000D01*
X25765000Y44873000D01*
X21079307Y44873000D01*
X21079307Y45402000D01*
X25765000Y45402000D01*
X25765000Y45127000D01*
X26873000Y45127000D01*
X26873000Y46343731D01*
X26682391Y46468462D01*
X26644718Y46464591D01*
X26419467Y46372421D01*
X26216526Y46238078D01*
X26043693Y46066725D01*
X25907610Y45864946D01*
X25813507Y45640496D01*
X25765000Y45402000D01*
X21079307Y45402000D01*
X21079307Y45625001D01*
X21065294Y45767282D01*
X21023792Y45904094D01*
X20956397Y46030182D01*
X20865698Y46140698D01*
X20755182Y46231397D01*
X20629094Y46298792D01*
X20492282Y46340294D01*
X20350001Y46354307D01*
X19649999Y46354307D01*
X19507718Y46340294D01*
X19370906Y46298792D01*
X19244818Y46231397D01*
X19134302Y46140698D01*
X19043603Y46030182D01*
X18976208Y45904094D01*
X18943164Y45795164D01*
X18899826Y45876244D01*
X18765239Y46040239D01*
X18601244Y46174826D01*
X18414144Y46274833D01*
X18211129Y46336417D01*
X18000000Y46357211D01*
X17788872Y46336417D01*
X17585857Y46274833D01*
X17398757Y46174826D01*
X17234762Y46040239D01*
X17100175Y45876244D01*
X17000168Y45689144D01*
X17000000Y45688591D01*
X16999833Y45689143D01*
X16899826Y45876244D01*
X16765239Y46040239D01*
X16601244Y46174826D01*
X16414144Y46274833D01*
X16211129Y46336417D01*
X16000000Y46357211D01*
X15788872Y46336417D01*
X15585857Y46274833D01*
X15398757Y46174826D01*
X15234762Y46040239D01*
X15100175Y45876244D01*
X15093158Y45863115D01*
X15092390Y45864946D01*
X14956307Y46066725D01*
X14783474Y46238078D01*
X14580533Y46372421D01*
X14355282Y46464591D01*
X14317609Y46468462D01*
X14127000Y46343731D01*
X13873000Y46343731D01*
X13682391Y46468462D01*
X13644718Y46464591D01*
X13419467Y46372421D01*
X13216526Y46238078D01*
X13043693Y46066725D01*
X12907610Y45864946D01*
X12813507Y45640496D01*
X12765000Y45402000D01*
X7591265Y45402000D01*
X7730825Y45429760D01*
X7999622Y45541099D01*
X8241533Y45702739D01*
X8447261Y45908467D01*
X8608901Y46150378D01*
X8720240Y46419175D01*
X8777000Y46704528D01*
X8777000Y46995472D01*
X41223000Y46995472D01*
X41223000Y46704528D01*
X41279760Y46419175D01*
X41391099Y46150378D01*
X41552739Y45908467D01*
X41758467Y45702739D01*
X42000378Y45541099D01*
X42269175Y45429760D01*
X42554528Y45373000D01*
X42845472Y45373000D01*
X43130825Y45429760D01*
X43399622Y45541099D01*
X43641533Y45702739D01*
X43847261Y45908467D01*
X44008901Y46150378D01*
X44120240Y46419175D01*
X44177000Y46704528D01*
X44177000Y46995472D01*
X44167205Y47044718D01*
X44873000Y47044718D01*
X44873000Y46655282D01*
X44948975Y46273330D01*
X45098005Y45913539D01*
X45314364Y45589736D01*
X45589736Y45314364D01*
X45913539Y45098005D01*
X46273330Y44948975D01*
X46655282Y44873000D01*
X47044718Y44873000D01*
X47426670Y44948975D01*
X47786461Y45098005D01*
X48110264Y45314364D01*
X48385636Y45589736D01*
X48601995Y45913539D01*
X48751025Y46273330D01*
X48827000Y46655282D01*
X48827000Y47044718D01*
X48751025Y47426670D01*
X48601995Y47786461D01*
X48385636Y48110264D01*
X48110264Y48385636D01*
X47786461Y48601995D01*
X47426670Y48751025D01*
X47044718Y48827000D01*
X46655282Y48827000D01*
X46273330Y48751025D01*
X45913539Y48601995D01*
X45589736Y48385636D01*
X45314364Y48110264D01*
X45098005Y47786461D01*
X44948975Y47426670D01*
X44873000Y47044718D01*
X44167205Y47044718D01*
X44120240Y47280825D01*
X44008901Y47549622D01*
X43847261Y47791533D01*
X43641533Y47997261D01*
X43399622Y48158901D01*
X43130825Y48270240D01*
X42845472Y48327000D01*
X42554528Y48327000D01*
X42269175Y48270240D01*
X42000378Y48158901D01*
X41758467Y47997261D01*
X41552739Y47791533D01*
X41391099Y47549622D01*
X41279760Y47280825D01*
X41223000Y46995472D01*
X8777000Y46995472D01*
X8720240Y47280825D01*
X8608901Y47549622D01*
X8447261Y47791533D01*
X8241533Y47997261D01*
X7999622Y48158901D01*
X7730825Y48270240D01*
X7445472Y48327000D01*
X7154528Y48327000D01*
X6869175Y48270240D01*
X6600378Y48158901D01*
X6358467Y47997261D01*
X6152739Y47791533D01*
X5991099Y47549622D01*
X5879760Y47280825D01*
X5823000Y46995472D01*
X5127000Y46995472D01*
X5127000Y47044718D01*
X5051025Y47426670D01*
X4901995Y47786461D01*
X4685636Y48110264D01*
X4410264Y48385636D01*
X4086461Y48601995D01*
X3726670Y48751025D01*
X3344718Y48827000D01*
X2955282Y48827000D01*
X2573330Y48751025D01*
X2213539Y48601995D01*
X1889736Y48385636D01*
X1614364Y48110264D01*
X1398005Y47786461D01*
X1248975Y47426670D01*
X1173000Y47044718D01*
X1008791Y47044718D01*
X1042413Y47387613D01*
X1154982Y47760459D01*
X1337830Y48104347D01*
X1583987Y48406165D01*
X1884081Y48654423D01*
X2226677Y48839663D01*
X2598731Y48954833D01*
X3009436Y48998000D01*
X9975347Y48998000D01*
X10000000Y48995572D01*
X10024653Y48998000D01*
X10098409Y49005264D01*
X10193036Y49033969D01*
X10280245Y49080583D01*
X10356684Y49143316D01*
X10419417Y49219755D01*
X10466031Y49306964D01*
X10494736Y49401591D01*
X10504231Y49498000D01*
X39495769Y49498000D01*
X39505264Y49401591D01*
G36*
X31151471Y20183711D02*
G01*
X31211079Y20111079D01*
X31283711Y20051471D01*
X31366577Y20007178D01*
X31456492Y19979903D01*
X31550000Y19970693D01*
X31653087Y19970693D01*
X31640026Y19959974D01*
X31567921Y19872114D01*
X31544765Y19828791D01*
X31456492Y19820097D01*
X31366577Y19792822D01*
X31283711Y19748529D01*
X31211079Y19688921D01*
X31151471Y19616289D01*
X31107178Y19533423D01*
X31079903Y19443508D01*
X31070693Y19350000D01*
X31070693Y17850000D01*
X31079903Y17756492D01*
X31107178Y17666577D01*
X31116082Y17649919D01*
X29064201Y19701800D01*
X30400469Y19701800D01*
X30428800Y19699010D01*
X30457131Y19701800D01*
X30457136Y19701800D01*
X30486845Y19704726D01*
X30541911Y19710149D01*
X30586570Y19723697D01*
X30650676Y19743143D01*
X30750915Y19796721D01*
X30838774Y19868826D01*
X30856839Y19890838D01*
X31150858Y20184857D01*
X31151471Y20183711D01*
G37*
X31151471Y20183711D02*
X31211079Y20111079D01*
X31283711Y20051471D01*
X31366577Y20007178D01*
X31456492Y19979903D01*
X31550000Y19970693D01*
X31653087Y19970693D01*
X31640026Y19959974D01*
X31567921Y19872114D01*
X31544765Y19828791D01*
X31456492Y19820097D01*
X31366577Y19792822D01*
X31283711Y19748529D01*
X31211079Y19688921D01*
X31151471Y19616289D01*
X31107178Y19533423D01*
X31079903Y19443508D01*
X31070693Y19350000D01*
X31070693Y17850000D01*
X31079903Y17756492D01*
X31107178Y17666577D01*
X31116082Y17649919D01*
X29064201Y19701800D01*
X30400469Y19701800D01*
X30428800Y19699010D01*
X30457131Y19701800D01*
X30457136Y19701800D01*
X30486845Y19704726D01*
X30541911Y19710149D01*
X30586570Y19723697D01*
X30650676Y19743143D01*
X30750915Y19796721D01*
X30838774Y19868826D01*
X30856839Y19890838D01*
X31150858Y20184857D01*
X31151471Y20183711D01*
M02*
