G04 #@! TF.GenerationSoftware,KiCad,Pcbnew,5.1.5+dfsg1-2build2*
G04 #@! TF.CreationDate,2022-07-27T11:55:59+09:00*
G04 #@! TF.ProjectId,m5-pantilt,6d352d70-616e-4746-996c-742e6b696361,1*
G04 #@! TF.SameCoordinates,PX5f5e100PY5f5e100*
G04 #@! TF.FileFunction,Paste,Top*
G04 #@! TF.FilePolarity,Positive*
%FSLAX46Y46*%
G04 Gerber Fmt 4.6, Leading zero omitted, Abs format (unit mm)*
G04 Created by KiCad (PCBNEW 5.1.5+dfsg1-2build2) date 2022-07-27 11:55:59*
%MOMM*%
%LPD*%
G04 APERTURE LIST*
%ADD10R,0.800100X0.254000*%
%ADD11C,0.152000*%
%ADD12R,3.500000X1.800000*%
%ADD13R,0.900000X0.800000*%
G04 APERTURE END LIST*
D10*
X20059750Y24021801D03*
X20059750Y23521800D03*
X20059750Y23021800D03*
X20059750Y22521799D03*
X16948250Y22521799D03*
X16948250Y23021800D03*
X16948250Y23521800D03*
X16948250Y24021801D03*
D11*
G36*
X24591779Y32223856D02*
G01*
X24614834Y32220437D01*
X24637443Y32214773D01*
X24659387Y32206921D01*
X24680457Y32196956D01*
X24700448Y32184974D01*
X24719168Y32171090D01*
X24736438Y32155438D01*
X24752090Y32138168D01*
X24765974Y32119448D01*
X24777956Y32099457D01*
X24787921Y32078387D01*
X24795773Y32056443D01*
X24801437Y32033834D01*
X24804856Y32010779D01*
X24806000Y31987500D01*
X24806000Y31512500D01*
X24804856Y31489221D01*
X24801437Y31466166D01*
X24795773Y31443557D01*
X24787921Y31421613D01*
X24777956Y31400543D01*
X24765974Y31380552D01*
X24752090Y31361832D01*
X24736438Y31344562D01*
X24719168Y31328910D01*
X24700448Y31315026D01*
X24680457Y31303044D01*
X24659387Y31293079D01*
X24637443Y31285227D01*
X24614834Y31279563D01*
X24591779Y31276144D01*
X24568500Y31275000D01*
X23993500Y31275000D01*
X23970221Y31276144D01*
X23947166Y31279563D01*
X23924557Y31285227D01*
X23902613Y31293079D01*
X23881543Y31303044D01*
X23861552Y31315026D01*
X23842832Y31328910D01*
X23825562Y31344562D01*
X23809910Y31361832D01*
X23796026Y31380552D01*
X23784044Y31400543D01*
X23774079Y31421613D01*
X23766227Y31443557D01*
X23760563Y31466166D01*
X23757144Y31489221D01*
X23756000Y31512500D01*
X23756000Y31987500D01*
X23757144Y32010779D01*
X23760563Y32033834D01*
X23766227Y32056443D01*
X23774079Y32078387D01*
X23784044Y32099457D01*
X23796026Y32119448D01*
X23809910Y32138168D01*
X23825562Y32155438D01*
X23842832Y32171090D01*
X23861552Y32184974D01*
X23881543Y32196956D01*
X23902613Y32206921D01*
X23924557Y32214773D01*
X23947166Y32220437D01*
X23970221Y32223856D01*
X23993500Y32225000D01*
X24568500Y32225000D01*
X24591779Y32223856D01*
G37*
G36*
X22841779Y32223856D02*
G01*
X22864834Y32220437D01*
X22887443Y32214773D01*
X22909387Y32206921D01*
X22930457Y32196956D01*
X22950448Y32184974D01*
X22969168Y32171090D01*
X22986438Y32155438D01*
X23002090Y32138168D01*
X23015974Y32119448D01*
X23027956Y32099457D01*
X23037921Y32078387D01*
X23045773Y32056443D01*
X23051437Y32033834D01*
X23054856Y32010779D01*
X23056000Y31987500D01*
X23056000Y31512500D01*
X23054856Y31489221D01*
X23051437Y31466166D01*
X23045773Y31443557D01*
X23037921Y31421613D01*
X23027956Y31400543D01*
X23015974Y31380552D01*
X23002090Y31361832D01*
X22986438Y31344562D01*
X22969168Y31328910D01*
X22950448Y31315026D01*
X22930457Y31303044D01*
X22909387Y31293079D01*
X22887443Y31285227D01*
X22864834Y31279563D01*
X22841779Y31276144D01*
X22818500Y31275000D01*
X22243500Y31275000D01*
X22220221Y31276144D01*
X22197166Y31279563D01*
X22174557Y31285227D01*
X22152613Y31293079D01*
X22131543Y31303044D01*
X22111552Y31315026D01*
X22092832Y31328910D01*
X22075562Y31344562D01*
X22059910Y31361832D01*
X22046026Y31380552D01*
X22034044Y31400543D01*
X22024079Y31421613D01*
X22016227Y31443557D01*
X22010563Y31466166D01*
X22007144Y31489221D01*
X22006000Y31512500D01*
X22006000Y31987500D01*
X22007144Y32010779D01*
X22010563Y32033834D01*
X22016227Y32056443D01*
X22024079Y32078387D01*
X22034044Y32099457D01*
X22046026Y32119448D01*
X22059910Y32138168D01*
X22075562Y32155438D01*
X22092832Y32171090D01*
X22111552Y32184974D01*
X22131543Y32196956D01*
X22152613Y32206921D01*
X22174557Y32214773D01*
X22197166Y32220437D01*
X22220221Y32223856D01*
X22243500Y32225000D01*
X22818500Y32225000D01*
X22841779Y32223856D01*
G37*
G36*
X24591779Y22978256D02*
G01*
X24614834Y22974837D01*
X24637443Y22969173D01*
X24659387Y22961321D01*
X24680457Y22951356D01*
X24700448Y22939374D01*
X24719168Y22925490D01*
X24736438Y22909838D01*
X24752090Y22892568D01*
X24765974Y22873848D01*
X24777956Y22853857D01*
X24787921Y22832787D01*
X24795773Y22810843D01*
X24801437Y22788234D01*
X24804856Y22765179D01*
X24806000Y22741900D01*
X24806000Y22266900D01*
X24804856Y22243621D01*
X24801437Y22220566D01*
X24795773Y22197957D01*
X24787921Y22176013D01*
X24777956Y22154943D01*
X24765974Y22134952D01*
X24752090Y22116232D01*
X24736438Y22098962D01*
X24719168Y22083310D01*
X24700448Y22069426D01*
X24680457Y22057444D01*
X24659387Y22047479D01*
X24637443Y22039627D01*
X24614834Y22033963D01*
X24591779Y22030544D01*
X24568500Y22029400D01*
X23993500Y22029400D01*
X23970221Y22030544D01*
X23947166Y22033963D01*
X23924557Y22039627D01*
X23902613Y22047479D01*
X23881543Y22057444D01*
X23861552Y22069426D01*
X23842832Y22083310D01*
X23825562Y22098962D01*
X23809910Y22116232D01*
X23796026Y22134952D01*
X23784044Y22154943D01*
X23774079Y22176013D01*
X23766227Y22197957D01*
X23760563Y22220566D01*
X23757144Y22243621D01*
X23756000Y22266900D01*
X23756000Y22741900D01*
X23757144Y22765179D01*
X23760563Y22788234D01*
X23766227Y22810843D01*
X23774079Y22832787D01*
X23784044Y22853857D01*
X23796026Y22873848D01*
X23809910Y22892568D01*
X23825562Y22909838D01*
X23842832Y22925490D01*
X23861552Y22939374D01*
X23881543Y22951356D01*
X23902613Y22961321D01*
X23924557Y22969173D01*
X23947166Y22974837D01*
X23970221Y22978256D01*
X23993500Y22979400D01*
X24568500Y22979400D01*
X24591779Y22978256D01*
G37*
G36*
X22841779Y22978256D02*
G01*
X22864834Y22974837D01*
X22887443Y22969173D01*
X22909387Y22961321D01*
X22930457Y22951356D01*
X22950448Y22939374D01*
X22969168Y22925490D01*
X22986438Y22909838D01*
X23002090Y22892568D01*
X23015974Y22873848D01*
X23027956Y22853857D01*
X23037921Y22832787D01*
X23045773Y22810843D01*
X23051437Y22788234D01*
X23054856Y22765179D01*
X23056000Y22741900D01*
X23056000Y22266900D01*
X23054856Y22243621D01*
X23051437Y22220566D01*
X23045773Y22197957D01*
X23037921Y22176013D01*
X23027956Y22154943D01*
X23015974Y22134952D01*
X23002090Y22116232D01*
X22986438Y22098962D01*
X22969168Y22083310D01*
X22950448Y22069426D01*
X22930457Y22057444D01*
X22909387Y22047479D01*
X22887443Y22039627D01*
X22864834Y22033963D01*
X22841779Y22030544D01*
X22818500Y22029400D01*
X22243500Y22029400D01*
X22220221Y22030544D01*
X22197166Y22033963D01*
X22174557Y22039627D01*
X22152613Y22047479D01*
X22131543Y22057444D01*
X22111552Y22069426D01*
X22092832Y22083310D01*
X22075562Y22098962D01*
X22059910Y22116232D01*
X22046026Y22134952D01*
X22034044Y22154943D01*
X22024079Y22176013D01*
X22016227Y22197957D01*
X22010563Y22220566D01*
X22007144Y22243621D01*
X22006000Y22266900D01*
X22006000Y22741900D01*
X22007144Y22765179D01*
X22010563Y22788234D01*
X22016227Y22810843D01*
X22024079Y22832787D01*
X22034044Y22853857D01*
X22046026Y22873848D01*
X22059910Y22892568D01*
X22075562Y22909838D01*
X22092832Y22925490D01*
X22111552Y22939374D01*
X22131543Y22951356D01*
X22152613Y22961321D01*
X22174557Y22969173D01*
X22197166Y22974837D01*
X22220221Y22978256D01*
X22243500Y22979400D01*
X22818500Y22979400D01*
X22841779Y22978256D01*
G37*
G36*
X24579179Y21352656D02*
G01*
X24602234Y21349237D01*
X24624843Y21343573D01*
X24646787Y21335721D01*
X24667857Y21325756D01*
X24687848Y21313774D01*
X24706568Y21299890D01*
X24723838Y21284238D01*
X24739490Y21266968D01*
X24753374Y21248248D01*
X24765356Y21228257D01*
X24775321Y21207187D01*
X24783173Y21185243D01*
X24788837Y21162634D01*
X24792256Y21139579D01*
X24793400Y21116300D01*
X24793400Y20641300D01*
X24792256Y20618021D01*
X24788837Y20594966D01*
X24783173Y20572357D01*
X24775321Y20550413D01*
X24765356Y20529343D01*
X24753374Y20509352D01*
X24739490Y20490632D01*
X24723838Y20473362D01*
X24706568Y20457710D01*
X24687848Y20443826D01*
X24667857Y20431844D01*
X24646787Y20421879D01*
X24624843Y20414027D01*
X24602234Y20408363D01*
X24579179Y20404944D01*
X24555900Y20403800D01*
X23980900Y20403800D01*
X23957621Y20404944D01*
X23934566Y20408363D01*
X23911957Y20414027D01*
X23890013Y20421879D01*
X23868943Y20431844D01*
X23848952Y20443826D01*
X23830232Y20457710D01*
X23812962Y20473362D01*
X23797310Y20490632D01*
X23783426Y20509352D01*
X23771444Y20529343D01*
X23761479Y20550413D01*
X23753627Y20572357D01*
X23747963Y20594966D01*
X23744544Y20618021D01*
X23743400Y20641300D01*
X23743400Y21116300D01*
X23744544Y21139579D01*
X23747963Y21162634D01*
X23753627Y21185243D01*
X23761479Y21207187D01*
X23771444Y21228257D01*
X23783426Y21248248D01*
X23797310Y21266968D01*
X23812962Y21284238D01*
X23830232Y21299890D01*
X23848952Y21313774D01*
X23868943Y21325756D01*
X23890013Y21335721D01*
X23911957Y21343573D01*
X23934566Y21349237D01*
X23957621Y21352656D01*
X23980900Y21353800D01*
X24555900Y21353800D01*
X24579179Y21352656D01*
G37*
G36*
X22829179Y21352656D02*
G01*
X22852234Y21349237D01*
X22874843Y21343573D01*
X22896787Y21335721D01*
X22917857Y21325756D01*
X22937848Y21313774D01*
X22956568Y21299890D01*
X22973838Y21284238D01*
X22989490Y21266968D01*
X23003374Y21248248D01*
X23015356Y21228257D01*
X23025321Y21207187D01*
X23033173Y21185243D01*
X23038837Y21162634D01*
X23042256Y21139579D01*
X23043400Y21116300D01*
X23043400Y20641300D01*
X23042256Y20618021D01*
X23038837Y20594966D01*
X23033173Y20572357D01*
X23025321Y20550413D01*
X23015356Y20529343D01*
X23003374Y20509352D01*
X22989490Y20490632D01*
X22973838Y20473362D01*
X22956568Y20457710D01*
X22937848Y20443826D01*
X22917857Y20431844D01*
X22896787Y20421879D01*
X22874843Y20414027D01*
X22852234Y20408363D01*
X22829179Y20404944D01*
X22805900Y20403800D01*
X22230900Y20403800D01*
X22207621Y20404944D01*
X22184566Y20408363D01*
X22161957Y20414027D01*
X22140013Y20421879D01*
X22118943Y20431844D01*
X22098952Y20443826D01*
X22080232Y20457710D01*
X22062962Y20473362D01*
X22047310Y20490632D01*
X22033426Y20509352D01*
X22021444Y20529343D01*
X22011479Y20550413D01*
X22003627Y20572357D01*
X21997963Y20594966D01*
X21994544Y20618021D01*
X21993400Y20641300D01*
X21993400Y21116300D01*
X21994544Y21139579D01*
X21997963Y21162634D01*
X22003627Y21185243D01*
X22011479Y21207187D01*
X22021444Y21228257D01*
X22033426Y21248248D01*
X22047310Y21266968D01*
X22062962Y21284238D01*
X22080232Y21299890D01*
X22098952Y21313774D01*
X22118943Y21325756D01*
X22140013Y21335721D01*
X22161957Y21343573D01*
X22184566Y21349237D01*
X22207621Y21352656D01*
X22230900Y21353800D01*
X22805900Y21353800D01*
X22829179Y21352656D01*
G37*
G36*
X22829179Y19828656D02*
G01*
X22852234Y19825237D01*
X22874843Y19819573D01*
X22896787Y19811721D01*
X22917857Y19801756D01*
X22937848Y19789774D01*
X22956568Y19775890D01*
X22973838Y19760238D01*
X22989490Y19742968D01*
X23003374Y19724248D01*
X23015356Y19704257D01*
X23025321Y19683187D01*
X23033173Y19661243D01*
X23038837Y19638634D01*
X23042256Y19615579D01*
X23043400Y19592300D01*
X23043400Y19117300D01*
X23042256Y19094021D01*
X23038837Y19070966D01*
X23033173Y19048357D01*
X23025321Y19026413D01*
X23015356Y19005343D01*
X23003374Y18985352D01*
X22989490Y18966632D01*
X22973838Y18949362D01*
X22956568Y18933710D01*
X22937848Y18919826D01*
X22917857Y18907844D01*
X22896787Y18897879D01*
X22874843Y18890027D01*
X22852234Y18884363D01*
X22829179Y18880944D01*
X22805900Y18879800D01*
X22230900Y18879800D01*
X22207621Y18880944D01*
X22184566Y18884363D01*
X22161957Y18890027D01*
X22140013Y18897879D01*
X22118943Y18907844D01*
X22098952Y18919826D01*
X22080232Y18933710D01*
X22062962Y18949362D01*
X22047310Y18966632D01*
X22033426Y18985352D01*
X22021444Y19005343D01*
X22011479Y19026413D01*
X22003627Y19048357D01*
X21997963Y19070966D01*
X21994544Y19094021D01*
X21993400Y19117300D01*
X21993400Y19592300D01*
X21994544Y19615579D01*
X21997963Y19638634D01*
X22003627Y19661243D01*
X22011479Y19683187D01*
X22021444Y19704257D01*
X22033426Y19724248D01*
X22047310Y19742968D01*
X22062962Y19760238D01*
X22080232Y19775890D01*
X22098952Y19789774D01*
X22118943Y19801756D01*
X22140013Y19811721D01*
X22161957Y19819573D01*
X22184566Y19825237D01*
X22207621Y19828656D01*
X22230900Y19829800D01*
X22805900Y19829800D01*
X22829179Y19828656D01*
G37*
G36*
X24579179Y19828656D02*
G01*
X24602234Y19825237D01*
X24624843Y19819573D01*
X24646787Y19811721D01*
X24667857Y19801756D01*
X24687848Y19789774D01*
X24706568Y19775890D01*
X24723838Y19760238D01*
X24739490Y19742968D01*
X24753374Y19724248D01*
X24765356Y19704257D01*
X24775321Y19683187D01*
X24783173Y19661243D01*
X24788837Y19638634D01*
X24792256Y19615579D01*
X24793400Y19592300D01*
X24793400Y19117300D01*
X24792256Y19094021D01*
X24788837Y19070966D01*
X24783173Y19048357D01*
X24775321Y19026413D01*
X24765356Y19005343D01*
X24753374Y18985352D01*
X24739490Y18966632D01*
X24723838Y18949362D01*
X24706568Y18933710D01*
X24687848Y18919826D01*
X24667857Y18907844D01*
X24646787Y18897879D01*
X24624843Y18890027D01*
X24602234Y18884363D01*
X24579179Y18880944D01*
X24555900Y18879800D01*
X23980900Y18879800D01*
X23957621Y18880944D01*
X23934566Y18884363D01*
X23911957Y18890027D01*
X23890013Y18897879D01*
X23868943Y18907844D01*
X23848952Y18919826D01*
X23830232Y18933710D01*
X23812962Y18949362D01*
X23797310Y18966632D01*
X23783426Y18985352D01*
X23771444Y19005343D01*
X23761479Y19026413D01*
X23753627Y19048357D01*
X23747963Y19070966D01*
X23744544Y19094021D01*
X23743400Y19117300D01*
X23743400Y19592300D01*
X23744544Y19615579D01*
X23747963Y19638634D01*
X23753627Y19661243D01*
X23761479Y19683187D01*
X23771444Y19704257D01*
X23783426Y19724248D01*
X23797310Y19742968D01*
X23812962Y19760238D01*
X23830232Y19775890D01*
X23848952Y19789774D01*
X23868943Y19801756D01*
X23890013Y19811721D01*
X23911957Y19819573D01*
X23934566Y19825237D01*
X23957621Y19828656D01*
X23980900Y19829800D01*
X24555900Y19829800D01*
X24579179Y19828656D01*
G37*
D12*
X22900000Y8600000D03*
X27900000Y8600000D03*
D11*
G36*
X35193504Y14754296D02*
G01*
X35217773Y14750696D01*
X35241571Y14744735D01*
X35264671Y14736470D01*
X35286849Y14725980D01*
X35307893Y14713367D01*
X35327598Y14698753D01*
X35345777Y14682277D01*
X35362253Y14664098D01*
X35376867Y14644393D01*
X35389480Y14623349D01*
X35399970Y14601171D01*
X35408235Y14578071D01*
X35414196Y14554273D01*
X35417796Y14530004D01*
X35419000Y14505500D01*
X35419000Y13580500D01*
X35417796Y13555996D01*
X35414196Y13531727D01*
X35408235Y13507929D01*
X35399970Y13484829D01*
X35389480Y13462651D01*
X35376867Y13441607D01*
X35362253Y13421902D01*
X35345777Y13403723D01*
X35327598Y13387247D01*
X35307893Y13372633D01*
X35286849Y13360020D01*
X35264671Y13349530D01*
X35241571Y13341265D01*
X35217773Y13335304D01*
X35193504Y13331704D01*
X35169000Y13330500D01*
X33919000Y13330500D01*
X33894496Y13331704D01*
X33870227Y13335304D01*
X33846429Y13341265D01*
X33823329Y13349530D01*
X33801151Y13360020D01*
X33780107Y13372633D01*
X33760402Y13387247D01*
X33742223Y13403723D01*
X33725747Y13421902D01*
X33711133Y13441607D01*
X33698520Y13462651D01*
X33688030Y13484829D01*
X33679765Y13507929D01*
X33673804Y13531727D01*
X33670204Y13555996D01*
X33669000Y13580500D01*
X33669000Y14505500D01*
X33670204Y14530004D01*
X33673804Y14554273D01*
X33679765Y14578071D01*
X33688030Y14601171D01*
X33698520Y14623349D01*
X33711133Y14644393D01*
X33725747Y14664098D01*
X33742223Y14682277D01*
X33760402Y14698753D01*
X33780107Y14713367D01*
X33801151Y14725980D01*
X33823329Y14736470D01*
X33846429Y14744735D01*
X33870227Y14750696D01*
X33894496Y14754296D01*
X33919000Y14755500D01*
X35169000Y14755500D01*
X35193504Y14754296D01*
G37*
G36*
X35193504Y17729296D02*
G01*
X35217773Y17725696D01*
X35241571Y17719735D01*
X35264671Y17711470D01*
X35286849Y17700980D01*
X35307893Y17688367D01*
X35327598Y17673753D01*
X35345777Y17657277D01*
X35362253Y17639098D01*
X35376867Y17619393D01*
X35389480Y17598349D01*
X35399970Y17576171D01*
X35408235Y17553071D01*
X35414196Y17529273D01*
X35417796Y17505004D01*
X35419000Y17480500D01*
X35419000Y16555500D01*
X35417796Y16530996D01*
X35414196Y16506727D01*
X35408235Y16482929D01*
X35399970Y16459829D01*
X35389480Y16437651D01*
X35376867Y16416607D01*
X35362253Y16396902D01*
X35345777Y16378723D01*
X35327598Y16362247D01*
X35307893Y16347633D01*
X35286849Y16335020D01*
X35264671Y16324530D01*
X35241571Y16316265D01*
X35217773Y16310304D01*
X35193504Y16306704D01*
X35169000Y16305500D01*
X33919000Y16305500D01*
X33894496Y16306704D01*
X33870227Y16310304D01*
X33846429Y16316265D01*
X33823329Y16324530D01*
X33801151Y16335020D01*
X33780107Y16347633D01*
X33760402Y16362247D01*
X33742223Y16378723D01*
X33725747Y16396902D01*
X33711133Y16416607D01*
X33698520Y16437651D01*
X33688030Y16459829D01*
X33679765Y16482929D01*
X33673804Y16506727D01*
X33670204Y16530996D01*
X33669000Y16555500D01*
X33669000Y17480500D01*
X33670204Y17505004D01*
X33673804Y17529273D01*
X33679765Y17553071D01*
X33688030Y17576171D01*
X33698520Y17598349D01*
X33711133Y17619393D01*
X33725747Y17639098D01*
X33742223Y17657277D01*
X33760402Y17673753D01*
X33780107Y17688367D01*
X33801151Y17700980D01*
X33823329Y17711470D01*
X33846429Y17719735D01*
X33870227Y17725696D01*
X33894496Y17729296D01*
X33919000Y17730500D01*
X35169000Y17730500D01*
X35193504Y17729296D01*
G37*
G36*
X35193504Y26328796D02*
G01*
X35217773Y26325196D01*
X35241571Y26319235D01*
X35264671Y26310970D01*
X35286849Y26300480D01*
X35307893Y26287867D01*
X35327598Y26273253D01*
X35345777Y26256777D01*
X35362253Y26238598D01*
X35376867Y26218893D01*
X35389480Y26197849D01*
X35399970Y26175671D01*
X35408235Y26152571D01*
X35414196Y26128773D01*
X35417796Y26104504D01*
X35419000Y26080000D01*
X35419000Y25155000D01*
X35417796Y25130496D01*
X35414196Y25106227D01*
X35408235Y25082429D01*
X35399970Y25059329D01*
X35389480Y25037151D01*
X35376867Y25016107D01*
X35362253Y24996402D01*
X35345777Y24978223D01*
X35327598Y24961747D01*
X35307893Y24947133D01*
X35286849Y24934520D01*
X35264671Y24924030D01*
X35241571Y24915765D01*
X35217773Y24909804D01*
X35193504Y24906204D01*
X35169000Y24905000D01*
X33919000Y24905000D01*
X33894496Y24906204D01*
X33870227Y24909804D01*
X33846429Y24915765D01*
X33823329Y24924030D01*
X33801151Y24934520D01*
X33780107Y24947133D01*
X33760402Y24961747D01*
X33742223Y24978223D01*
X33725747Y24996402D01*
X33711133Y25016107D01*
X33698520Y25037151D01*
X33688030Y25059329D01*
X33679765Y25082429D01*
X33673804Y25106227D01*
X33670204Y25130496D01*
X33669000Y25155000D01*
X33669000Y26080000D01*
X33670204Y26104504D01*
X33673804Y26128773D01*
X33679765Y26152571D01*
X33688030Y26175671D01*
X33698520Y26197849D01*
X33711133Y26218893D01*
X33725747Y26238598D01*
X33742223Y26256777D01*
X33760402Y26273253D01*
X33780107Y26287867D01*
X33801151Y26300480D01*
X33823329Y26310970D01*
X33846429Y26319235D01*
X33870227Y26325196D01*
X33894496Y26328796D01*
X33919000Y26330000D01*
X35169000Y26330000D01*
X35193504Y26328796D01*
G37*
G36*
X35193504Y23353796D02*
G01*
X35217773Y23350196D01*
X35241571Y23344235D01*
X35264671Y23335970D01*
X35286849Y23325480D01*
X35307893Y23312867D01*
X35327598Y23298253D01*
X35345777Y23281777D01*
X35362253Y23263598D01*
X35376867Y23243893D01*
X35389480Y23222849D01*
X35399970Y23200671D01*
X35408235Y23177571D01*
X35414196Y23153773D01*
X35417796Y23129504D01*
X35419000Y23105000D01*
X35419000Y22180000D01*
X35417796Y22155496D01*
X35414196Y22131227D01*
X35408235Y22107429D01*
X35399970Y22084329D01*
X35389480Y22062151D01*
X35376867Y22041107D01*
X35362253Y22021402D01*
X35345777Y22003223D01*
X35327598Y21986747D01*
X35307893Y21972133D01*
X35286849Y21959520D01*
X35264671Y21949030D01*
X35241571Y21940765D01*
X35217773Y21934804D01*
X35193504Y21931204D01*
X35169000Y21930000D01*
X33919000Y21930000D01*
X33894496Y21931204D01*
X33870227Y21934804D01*
X33846429Y21940765D01*
X33823329Y21949030D01*
X33801151Y21959520D01*
X33780107Y21972133D01*
X33760402Y21986747D01*
X33742223Y22003223D01*
X33725747Y22021402D01*
X33711133Y22041107D01*
X33698520Y22062151D01*
X33688030Y22084329D01*
X33679765Y22107429D01*
X33673804Y22131227D01*
X33670204Y22155496D01*
X33669000Y22180000D01*
X33669000Y23105000D01*
X33670204Y23129504D01*
X33673804Y23153773D01*
X33679765Y23177571D01*
X33688030Y23200671D01*
X33698520Y23222849D01*
X33711133Y23243893D01*
X33725747Y23263598D01*
X33742223Y23281777D01*
X33760402Y23298253D01*
X33780107Y23312867D01*
X33801151Y23325480D01*
X33823329Y23335970D01*
X33846429Y23344235D01*
X33870227Y23350196D01*
X33894496Y23353796D01*
X33919000Y23355000D01*
X35169000Y23355000D01*
X35193504Y23353796D01*
G37*
G36*
X32907504Y26328796D02*
G01*
X32931773Y26325196D01*
X32955571Y26319235D01*
X32978671Y26310970D01*
X33000849Y26300480D01*
X33021893Y26287867D01*
X33041598Y26273253D01*
X33059777Y26256777D01*
X33076253Y26238598D01*
X33090867Y26218893D01*
X33103480Y26197849D01*
X33113970Y26175671D01*
X33122235Y26152571D01*
X33128196Y26128773D01*
X33131796Y26104504D01*
X33133000Y26080000D01*
X33133000Y25155000D01*
X33131796Y25130496D01*
X33128196Y25106227D01*
X33122235Y25082429D01*
X33113970Y25059329D01*
X33103480Y25037151D01*
X33090867Y25016107D01*
X33076253Y24996402D01*
X33059777Y24978223D01*
X33041598Y24961747D01*
X33021893Y24947133D01*
X33000849Y24934520D01*
X32978671Y24924030D01*
X32955571Y24915765D01*
X32931773Y24909804D01*
X32907504Y24906204D01*
X32883000Y24905000D01*
X31633000Y24905000D01*
X31608496Y24906204D01*
X31584227Y24909804D01*
X31560429Y24915765D01*
X31537329Y24924030D01*
X31515151Y24934520D01*
X31494107Y24947133D01*
X31474402Y24961747D01*
X31456223Y24978223D01*
X31439747Y24996402D01*
X31425133Y25016107D01*
X31412520Y25037151D01*
X31402030Y25059329D01*
X31393765Y25082429D01*
X31387804Y25106227D01*
X31384204Y25130496D01*
X31383000Y25155000D01*
X31383000Y26080000D01*
X31384204Y26104504D01*
X31387804Y26128773D01*
X31393765Y26152571D01*
X31402030Y26175671D01*
X31412520Y26197849D01*
X31425133Y26218893D01*
X31439747Y26238598D01*
X31456223Y26256777D01*
X31474402Y26273253D01*
X31494107Y26287867D01*
X31515151Y26300480D01*
X31537329Y26310970D01*
X31560429Y26319235D01*
X31584227Y26325196D01*
X31608496Y26328796D01*
X31633000Y26330000D01*
X32883000Y26330000D01*
X32907504Y26328796D01*
G37*
G36*
X32907504Y23353796D02*
G01*
X32931773Y23350196D01*
X32955571Y23344235D01*
X32978671Y23335970D01*
X33000849Y23325480D01*
X33021893Y23312867D01*
X33041598Y23298253D01*
X33059777Y23281777D01*
X33076253Y23263598D01*
X33090867Y23243893D01*
X33103480Y23222849D01*
X33113970Y23200671D01*
X33122235Y23177571D01*
X33128196Y23153773D01*
X33131796Y23129504D01*
X33133000Y23105000D01*
X33133000Y22180000D01*
X33131796Y22155496D01*
X33128196Y22131227D01*
X33122235Y22107429D01*
X33113970Y22084329D01*
X33103480Y22062151D01*
X33090867Y22041107D01*
X33076253Y22021402D01*
X33059777Y22003223D01*
X33041598Y21986747D01*
X33021893Y21972133D01*
X33000849Y21959520D01*
X32978671Y21949030D01*
X32955571Y21940765D01*
X32931773Y21934804D01*
X32907504Y21931204D01*
X32883000Y21930000D01*
X31633000Y21930000D01*
X31608496Y21931204D01*
X31584227Y21934804D01*
X31560429Y21940765D01*
X31537329Y21949030D01*
X31515151Y21959520D01*
X31494107Y21972133D01*
X31474402Y21986747D01*
X31456223Y22003223D01*
X31439747Y22021402D01*
X31425133Y22041107D01*
X31412520Y22062151D01*
X31402030Y22084329D01*
X31393765Y22107429D01*
X31387804Y22131227D01*
X31384204Y22155496D01*
X31383000Y22180000D01*
X31383000Y23105000D01*
X31384204Y23129504D01*
X31387804Y23153773D01*
X31393765Y23177571D01*
X31402030Y23200671D01*
X31412520Y23222849D01*
X31425133Y23243893D01*
X31439747Y23263598D01*
X31456223Y23281777D01*
X31474402Y23298253D01*
X31494107Y23312867D01*
X31515151Y23325480D01*
X31537329Y23335970D01*
X31560429Y23344235D01*
X31584227Y23350196D01*
X31608496Y23353796D01*
X31633000Y23355000D01*
X32883000Y23355000D01*
X32907504Y23353796D01*
G37*
G36*
X32653504Y14819396D02*
G01*
X32677773Y14815796D01*
X32701571Y14809835D01*
X32724671Y14801570D01*
X32746849Y14791080D01*
X32767893Y14778467D01*
X32787598Y14763853D01*
X32805777Y14747377D01*
X32822253Y14729198D01*
X32836867Y14709493D01*
X32849480Y14688449D01*
X32859970Y14666271D01*
X32868235Y14643171D01*
X32874196Y14619373D01*
X32877796Y14595104D01*
X32879000Y14570600D01*
X32879000Y13645600D01*
X32877796Y13621096D01*
X32874196Y13596827D01*
X32868235Y13573029D01*
X32859970Y13549929D01*
X32849480Y13527751D01*
X32836867Y13506707D01*
X32822253Y13487002D01*
X32805777Y13468823D01*
X32787598Y13452347D01*
X32767893Y13437733D01*
X32746849Y13425120D01*
X32724671Y13414630D01*
X32701571Y13406365D01*
X32677773Y13400404D01*
X32653504Y13396804D01*
X32629000Y13395600D01*
X31379000Y13395600D01*
X31354496Y13396804D01*
X31330227Y13400404D01*
X31306429Y13406365D01*
X31283329Y13414630D01*
X31261151Y13425120D01*
X31240107Y13437733D01*
X31220402Y13452347D01*
X31202223Y13468823D01*
X31185747Y13487002D01*
X31171133Y13506707D01*
X31158520Y13527751D01*
X31148030Y13549929D01*
X31139765Y13573029D01*
X31133804Y13596827D01*
X31130204Y13621096D01*
X31129000Y13645600D01*
X31129000Y14570600D01*
X31130204Y14595104D01*
X31133804Y14619373D01*
X31139765Y14643171D01*
X31148030Y14666271D01*
X31158520Y14688449D01*
X31171133Y14709493D01*
X31185747Y14729198D01*
X31202223Y14747377D01*
X31220402Y14763853D01*
X31240107Y14778467D01*
X31261151Y14791080D01*
X31283329Y14801570D01*
X31306429Y14809835D01*
X31330227Y14815796D01*
X31354496Y14819396D01*
X31379000Y14820600D01*
X32629000Y14820600D01*
X32653504Y14819396D01*
G37*
G36*
X32653504Y17794396D02*
G01*
X32677773Y17790796D01*
X32701571Y17784835D01*
X32724671Y17776570D01*
X32746849Y17766080D01*
X32767893Y17753467D01*
X32787598Y17738853D01*
X32805777Y17722377D01*
X32822253Y17704198D01*
X32836867Y17684493D01*
X32849480Y17663449D01*
X32859970Y17641271D01*
X32868235Y17618171D01*
X32874196Y17594373D01*
X32877796Y17570104D01*
X32879000Y17545600D01*
X32879000Y16620600D01*
X32877796Y16596096D01*
X32874196Y16571827D01*
X32868235Y16548029D01*
X32859970Y16524929D01*
X32849480Y16502751D01*
X32836867Y16481707D01*
X32822253Y16462002D01*
X32805777Y16443823D01*
X32787598Y16427347D01*
X32767893Y16412733D01*
X32746849Y16400120D01*
X32724671Y16389630D01*
X32701571Y16381365D01*
X32677773Y16375404D01*
X32653504Y16371804D01*
X32629000Y16370600D01*
X31379000Y16370600D01*
X31354496Y16371804D01*
X31330227Y16375404D01*
X31306429Y16381365D01*
X31283329Y16389630D01*
X31261151Y16400120D01*
X31240107Y16412733D01*
X31220402Y16427347D01*
X31202223Y16443823D01*
X31185747Y16462002D01*
X31171133Y16481707D01*
X31158520Y16502751D01*
X31148030Y16524929D01*
X31139765Y16548029D01*
X31133804Y16571827D01*
X31130204Y16596096D01*
X31129000Y16620600D01*
X31129000Y17545600D01*
X31130204Y17570104D01*
X31133804Y17594373D01*
X31139765Y17618171D01*
X31148030Y17641271D01*
X31158520Y17663449D01*
X31171133Y17684493D01*
X31185747Y17704198D01*
X31202223Y17722377D01*
X31220402Y17738853D01*
X31240107Y17753467D01*
X31261151Y17766080D01*
X31283329Y17776570D01*
X31306429Y17784835D01*
X31330227Y17790796D01*
X31354496Y17794396D01*
X31379000Y17795600D01*
X32629000Y17795600D01*
X32653504Y17794396D01*
G37*
D13*
X33800000Y4050000D03*
X33800000Y5950000D03*
X31800000Y5000000D03*
D11*
G36*
X35896979Y4652656D02*
G01*
X35920034Y4649237D01*
X35942643Y4643573D01*
X35964587Y4635721D01*
X35985657Y4625756D01*
X36005648Y4613774D01*
X36024368Y4599890D01*
X36041638Y4584238D01*
X36057290Y4566968D01*
X36071174Y4548248D01*
X36083156Y4528257D01*
X36093121Y4507187D01*
X36100973Y4485243D01*
X36106637Y4462634D01*
X36110056Y4439579D01*
X36111200Y4416300D01*
X36111200Y3841300D01*
X36110056Y3818021D01*
X36106637Y3794966D01*
X36100973Y3772357D01*
X36093121Y3750413D01*
X36083156Y3729343D01*
X36071174Y3709352D01*
X36057290Y3690632D01*
X36041638Y3673362D01*
X36024368Y3657710D01*
X36005648Y3643826D01*
X35985657Y3631844D01*
X35964587Y3621879D01*
X35942643Y3614027D01*
X35920034Y3608363D01*
X35896979Y3604944D01*
X35873700Y3603800D01*
X35398700Y3603800D01*
X35375421Y3604944D01*
X35352366Y3608363D01*
X35329757Y3614027D01*
X35307813Y3621879D01*
X35286743Y3631844D01*
X35266752Y3643826D01*
X35248032Y3657710D01*
X35230762Y3673362D01*
X35215110Y3690632D01*
X35201226Y3709352D01*
X35189244Y3729343D01*
X35179279Y3750413D01*
X35171427Y3772357D01*
X35165763Y3794966D01*
X35162344Y3818021D01*
X35161200Y3841300D01*
X35161200Y4416300D01*
X35162344Y4439579D01*
X35165763Y4462634D01*
X35171427Y4485243D01*
X35179279Y4507187D01*
X35189244Y4528257D01*
X35201226Y4548248D01*
X35215110Y4566968D01*
X35230762Y4584238D01*
X35248032Y4599890D01*
X35266752Y4613774D01*
X35286743Y4625756D01*
X35307813Y4635721D01*
X35329757Y4643573D01*
X35352366Y4649237D01*
X35375421Y4652656D01*
X35398700Y4653800D01*
X35873700Y4653800D01*
X35896979Y4652656D01*
G37*
G36*
X35896979Y6402656D02*
G01*
X35920034Y6399237D01*
X35942643Y6393573D01*
X35964587Y6385721D01*
X35985657Y6375756D01*
X36005648Y6363774D01*
X36024368Y6349890D01*
X36041638Y6334238D01*
X36057290Y6316968D01*
X36071174Y6298248D01*
X36083156Y6278257D01*
X36093121Y6257187D01*
X36100973Y6235243D01*
X36106637Y6212634D01*
X36110056Y6189579D01*
X36111200Y6166300D01*
X36111200Y5591300D01*
X36110056Y5568021D01*
X36106637Y5544966D01*
X36100973Y5522357D01*
X36093121Y5500413D01*
X36083156Y5479343D01*
X36071174Y5459352D01*
X36057290Y5440632D01*
X36041638Y5423362D01*
X36024368Y5407710D01*
X36005648Y5393826D01*
X35985657Y5381844D01*
X35964587Y5371879D01*
X35942643Y5364027D01*
X35920034Y5358363D01*
X35896979Y5354944D01*
X35873700Y5353800D01*
X35398700Y5353800D01*
X35375421Y5354944D01*
X35352366Y5358363D01*
X35329757Y5364027D01*
X35307813Y5371879D01*
X35286743Y5381844D01*
X35266752Y5393826D01*
X35248032Y5407710D01*
X35230762Y5423362D01*
X35215110Y5440632D01*
X35201226Y5459352D01*
X35189244Y5479343D01*
X35179279Y5500413D01*
X35171427Y5522357D01*
X35165763Y5544966D01*
X35162344Y5568021D01*
X35161200Y5591300D01*
X35161200Y6166300D01*
X35162344Y6189579D01*
X35165763Y6212634D01*
X35171427Y6235243D01*
X35179279Y6257187D01*
X35189244Y6278257D01*
X35201226Y6298248D01*
X35215110Y6316968D01*
X35230762Y6334238D01*
X35248032Y6349890D01*
X35266752Y6363774D01*
X35286743Y6375756D01*
X35307813Y6385721D01*
X35329757Y6393573D01*
X35352366Y6399237D01*
X35375421Y6402656D01*
X35398700Y6403800D01*
X35873700Y6403800D01*
X35896979Y6402656D01*
G37*
M02*
