G04 #@! TF.GenerationSoftware,KiCad,Pcbnew,5.1.5+dfsg1-2build2*
G04 #@! TF.CreationDate,2021-06-12T13:05:18+09:00*
G04 #@! TF.ProjectId,m5-pantilt,6d352d70-616e-4746-996c-742e6b696361,1*
G04 #@! TF.SameCoordinates,Original*
G04 #@! TF.FileFunction,Legend,Bot*
G04 #@! TF.FilePolarity,Positive*
%FSLAX46Y46*%
G04 Gerber Fmt 4.6, Leading zero omitted, Abs format (unit mm)*
G04 Created by KiCad (PCBNEW 5.1.5+dfsg1-2build2) date 2021-06-12 13:05:18*
%MOMM*%
%LPD*%
G04 APERTURE LIST*
%ADD10C,1.000000*%
%ADD11C,0.125000*%
%ADD12C,0.300000*%
%ADD13C,0.010000*%
%ADD14C,0.120000*%
%ADD15C,0.150000*%
G04 APERTURE END LIST*
D10*
X107670800Y-89941600D02*
X107620000Y-60223600D01*
X142773600Y-90043200D02*
X107670800Y-89941600D01*
X142672000Y-60172800D02*
X142773600Y-90043200D01*
X107620000Y-60223600D02*
X142672000Y-60172800D01*
D11*
X131704019Y-82507161D02*
X132704019Y-82507161D01*
X132704019Y-82126209D01*
X132656400Y-82030971D01*
X132608780Y-81983352D01*
X132513542Y-81935733D01*
X132370685Y-81935733D01*
X132275447Y-81983352D01*
X132227828Y-82030971D01*
X132180209Y-82126209D01*
X132180209Y-82507161D01*
X132704019Y-81602400D02*
X131704019Y-81364304D01*
X132418304Y-81173828D01*
X131704019Y-80983352D01*
X132704019Y-80745257D01*
X131704019Y-80364304D02*
X132704019Y-80364304D01*
X131989733Y-80030971D01*
X132704019Y-79697638D01*
X131704019Y-79697638D01*
X137857180Y-80081771D02*
X137857180Y-80653200D01*
X138857180Y-80367485D02*
X137857180Y-80367485D01*
X137857180Y-80843676D02*
X137857180Y-81415104D01*
X138857180Y-81129390D02*
X137857180Y-81129390D01*
X138857180Y-82224628D02*
X138857180Y-81748438D01*
X137857180Y-81748438D01*
D12*
X137803942Y-94272771D02*
X137803942Y-93272771D01*
X137803942Y-93415628D02*
X137732514Y-93344200D01*
X137589657Y-93272771D01*
X137375371Y-93272771D01*
X137232514Y-93344200D01*
X137161085Y-93487057D01*
X137161085Y-94272771D01*
X137161085Y-93487057D02*
X137089657Y-93344200D01*
X136946800Y-93272771D01*
X136732514Y-93272771D01*
X136589657Y-93344200D01*
X136518228Y-93487057D01*
X136518228Y-94272771D01*
X135089657Y-92772771D02*
X135803942Y-92772771D01*
X135875371Y-93487057D01*
X135803942Y-93415628D01*
X135661085Y-93344200D01*
X135303942Y-93344200D01*
X135161085Y-93415628D01*
X135089657Y-93487057D01*
X135018228Y-93629914D01*
X135018228Y-93987057D01*
X135089657Y-94129914D01*
X135161085Y-94201342D01*
X135303942Y-94272771D01*
X135661085Y-94272771D01*
X135803942Y-94201342D01*
X135875371Y-94129914D01*
X134375371Y-93701342D02*
X133232514Y-93701342D01*
X132518228Y-93272771D02*
X132518228Y-94772771D01*
X132518228Y-93344200D02*
X132375371Y-93272771D01*
X132089657Y-93272771D01*
X131946800Y-93344200D01*
X131875371Y-93415628D01*
X131803942Y-93558485D01*
X131803942Y-93987057D01*
X131875371Y-94129914D01*
X131946800Y-94201342D01*
X132089657Y-94272771D01*
X132375371Y-94272771D01*
X132518228Y-94201342D01*
X130518228Y-94272771D02*
X130518228Y-93487057D01*
X130589657Y-93344200D01*
X130732514Y-93272771D01*
X131018228Y-93272771D01*
X131161085Y-93344200D01*
X130518228Y-94201342D02*
X130661085Y-94272771D01*
X131018228Y-94272771D01*
X131161085Y-94201342D01*
X131232514Y-94058485D01*
X131232514Y-93915628D01*
X131161085Y-93772771D01*
X131018228Y-93701342D01*
X130661085Y-93701342D01*
X130518228Y-93629914D01*
X129803942Y-93272771D02*
X129803942Y-94272771D01*
X129803942Y-93415628D02*
X129732514Y-93344200D01*
X129589657Y-93272771D01*
X129375371Y-93272771D01*
X129232514Y-93344200D01*
X129161085Y-93487057D01*
X129161085Y-94272771D01*
X128661085Y-93272771D02*
X128089657Y-93272771D01*
X128446800Y-92772771D02*
X128446800Y-94058485D01*
X128375371Y-94201342D01*
X128232514Y-94272771D01*
X128089657Y-94272771D01*
X127589657Y-94272771D02*
X127589657Y-93272771D01*
X127589657Y-92772771D02*
X127661085Y-92844200D01*
X127589657Y-92915628D01*
X127518228Y-92844200D01*
X127589657Y-92772771D01*
X127589657Y-92915628D01*
X126661085Y-94272771D02*
X126803942Y-94201342D01*
X126875371Y-94058485D01*
X126875371Y-92772771D01*
X126303942Y-93272771D02*
X125732514Y-93272771D01*
X126089657Y-92772771D02*
X126089657Y-94058485D01*
X126018228Y-94201342D01*
X125875371Y-94272771D01*
X125732514Y-94272771D01*
X124089657Y-94272771D02*
X124089657Y-92772771D01*
X124089657Y-93344200D02*
X123946800Y-93272771D01*
X123661085Y-93272771D01*
X123518228Y-93344200D01*
X123446800Y-93415628D01*
X123375371Y-93558485D01*
X123375371Y-93987057D01*
X123446800Y-94129914D01*
X123518228Y-94201342D01*
X123661085Y-94272771D01*
X123946800Y-94272771D01*
X124089657Y-94201342D01*
X122518228Y-94272771D02*
X122661085Y-94201342D01*
X122732514Y-94129914D01*
X122803942Y-93987057D01*
X122803942Y-93558485D01*
X122732514Y-93415628D01*
X122661085Y-93344200D01*
X122518228Y-93272771D01*
X122303942Y-93272771D01*
X122161085Y-93344200D01*
X122089657Y-93415628D01*
X122018228Y-93558485D01*
X122018228Y-93987057D01*
X122089657Y-94129914D01*
X122161085Y-94201342D01*
X122303942Y-94272771D01*
X122518228Y-94272771D01*
X120732514Y-94272771D02*
X120732514Y-93487057D01*
X120803942Y-93344200D01*
X120946800Y-93272771D01*
X121232514Y-93272771D01*
X121375371Y-93344200D01*
X120732514Y-94201342D02*
X120875371Y-94272771D01*
X121232514Y-94272771D01*
X121375371Y-94201342D01*
X121446800Y-94058485D01*
X121446800Y-93915628D01*
X121375371Y-93772771D01*
X121232514Y-93701342D01*
X120875371Y-93701342D01*
X120732514Y-93629914D01*
X120018228Y-94272771D02*
X120018228Y-93272771D01*
X120018228Y-93558485D02*
X119946800Y-93415628D01*
X119875371Y-93344200D01*
X119732514Y-93272771D01*
X119589657Y-93272771D01*
X118446800Y-94272771D02*
X118446800Y-92772771D01*
X118446800Y-94201342D02*
X118589657Y-94272771D01*
X118875371Y-94272771D01*
X119018228Y-94201342D01*
X119089657Y-94129914D01*
X119161085Y-93987057D01*
X119161085Y-93558485D01*
X119089657Y-93415628D01*
X119018228Y-93344200D01*
X118875371Y-93272771D01*
X118589657Y-93272771D01*
X118446800Y-93344200D01*
X116732514Y-93272771D02*
X116375371Y-94272771D01*
X116018228Y-93272771D01*
X115161085Y-92772771D02*
X115018228Y-92772771D01*
X114875371Y-92844200D01*
X114803942Y-92915628D01*
X114732514Y-93058485D01*
X114661085Y-93344200D01*
X114661085Y-93701342D01*
X114732514Y-93987057D01*
X114803942Y-94129914D01*
X114875371Y-94201342D01*
X115018228Y-94272771D01*
X115161085Y-94272771D01*
X115303942Y-94201342D01*
X115375371Y-94129914D01*
X115446800Y-93987057D01*
X115518228Y-93701342D01*
X115518228Y-93344200D01*
X115446800Y-93058485D01*
X115375371Y-92915628D01*
X115303942Y-92844200D01*
X115161085Y-92772771D01*
X114018228Y-94129914D02*
X113946800Y-94201342D01*
X114018228Y-94272771D01*
X114089657Y-94201342D01*
X114018228Y-94129914D01*
X114018228Y-94272771D01*
X112518228Y-94272771D02*
X113375371Y-94272771D01*
X112946800Y-94272771D02*
X112946800Y-92772771D01*
X113089657Y-92987057D01*
X113232514Y-93129914D01*
X113375371Y-93201342D01*
X132339657Y-96108485D02*
X132411085Y-96037057D01*
X132553942Y-95965628D01*
X132696800Y-95965628D01*
X132839657Y-96037057D01*
X132911085Y-96108485D01*
X132982514Y-96251342D01*
X132982514Y-96394200D01*
X132911085Y-96537057D01*
X132839657Y-96608485D01*
X132696800Y-96679914D01*
X132553942Y-96679914D01*
X132411085Y-96608485D01*
X132339657Y-96537057D01*
X132339657Y-95965628D02*
X132339657Y-96537057D01*
X132268228Y-96608485D01*
X132196800Y-96608485D01*
X132053942Y-96537057D01*
X131982514Y-96394200D01*
X131982514Y-96037057D01*
X132125371Y-95822771D01*
X132339657Y-95679914D01*
X132625371Y-95608485D01*
X132911085Y-95679914D01*
X133125371Y-95822771D01*
X133268228Y-96037057D01*
X133339657Y-96322771D01*
X133268228Y-96608485D01*
X133125371Y-96822771D01*
X132911085Y-96965628D01*
X132625371Y-97037057D01*
X132339657Y-96965628D01*
X132125371Y-96822771D01*
X131339657Y-96822771D02*
X131339657Y-95822771D01*
X131339657Y-95965628D02*
X131268228Y-95894200D01*
X131125371Y-95822771D01*
X130911085Y-95822771D01*
X130768228Y-95894200D01*
X130696800Y-96037057D01*
X130696800Y-96822771D01*
X130696800Y-96037057D02*
X130625371Y-95894200D01*
X130482514Y-95822771D01*
X130268228Y-95822771D01*
X130125371Y-95894200D01*
X130053942Y-96037057D01*
X130053942Y-96822771D01*
X128768228Y-96751342D02*
X128911085Y-96822771D01*
X129196800Y-96822771D01*
X129339657Y-96751342D01*
X129411085Y-96608485D01*
X129411085Y-96037057D01*
X129339657Y-95894200D01*
X129196800Y-95822771D01*
X128911085Y-95822771D01*
X128768228Y-95894200D01*
X128696800Y-96037057D01*
X128696800Y-96179914D01*
X129411085Y-96322771D01*
X127411085Y-95822771D02*
X127411085Y-97037057D01*
X127482514Y-97179914D01*
X127553942Y-97251342D01*
X127696800Y-97322771D01*
X127911085Y-97322771D01*
X128053942Y-97251342D01*
X127411085Y-96751342D02*
X127553942Y-96822771D01*
X127839657Y-96822771D01*
X127982514Y-96751342D01*
X128053942Y-96679914D01*
X128125371Y-96537057D01*
X128125371Y-96108485D01*
X128053942Y-95965628D01*
X127982514Y-95894200D01*
X127839657Y-95822771D01*
X127553942Y-95822771D01*
X127411085Y-95894200D01*
X126053942Y-96822771D02*
X126053942Y-96037057D01*
X126125371Y-95894200D01*
X126268228Y-95822771D01*
X126553942Y-95822771D01*
X126696800Y-95894200D01*
X126053942Y-96751342D02*
X126196800Y-96822771D01*
X126553942Y-96822771D01*
X126696800Y-96751342D01*
X126768228Y-96608485D01*
X126768228Y-96465628D01*
X126696800Y-96322771D01*
X126553942Y-96251342D01*
X126196800Y-96251342D01*
X126053942Y-96179914D01*
X125339657Y-95822771D02*
X125339657Y-96822771D01*
X125339657Y-95965628D02*
X125268228Y-95894200D01*
X125125371Y-95822771D01*
X124911085Y-95822771D01*
X124768228Y-95894200D01*
X124696800Y-96037057D01*
X124696800Y-96822771D01*
X123411085Y-96751342D02*
X123553942Y-96822771D01*
X123839657Y-96822771D01*
X123982514Y-96751342D01*
X124053942Y-96608485D01*
X124053942Y-96037057D01*
X123982514Y-95894200D01*
X123839657Y-95822771D01*
X123553942Y-95822771D01*
X123411085Y-95894200D01*
X123339657Y-96037057D01*
X123339657Y-96179914D01*
X124053942Y-96322771D01*
X122911085Y-95822771D02*
X122339657Y-95822771D01*
X122696800Y-95322771D02*
X122696800Y-96608485D01*
X122625371Y-96751342D01*
X122482514Y-96822771D01*
X122339657Y-96822771D01*
X121196800Y-96822771D02*
X121196800Y-96037057D01*
X121268228Y-95894200D01*
X121411085Y-95822771D01*
X121696800Y-95822771D01*
X121839657Y-95894200D01*
X121196800Y-96751342D02*
X121339657Y-96822771D01*
X121696800Y-96822771D01*
X121839657Y-96751342D01*
X121911085Y-96608485D01*
X121911085Y-96465628D01*
X121839657Y-96322771D01*
X121696800Y-96251342D01*
X121339657Y-96251342D01*
X121196800Y-96179914D01*
X119839657Y-96822771D02*
X119839657Y-96037057D01*
X119911085Y-95894200D01*
X120053942Y-95822771D01*
X120339657Y-95822771D01*
X120482514Y-95894200D01*
X119839657Y-96751342D02*
X119982514Y-96822771D01*
X120339657Y-96822771D01*
X120482514Y-96751342D01*
X120553942Y-96608485D01*
X120553942Y-96465628D01*
X120482514Y-96322771D01*
X120339657Y-96251342D01*
X119982514Y-96251342D01*
X119839657Y-96179914D01*
X118482514Y-96822771D02*
X118482514Y-96037057D01*
X118553942Y-95894200D01*
X118696800Y-95822771D01*
X118982514Y-95822771D01*
X119125371Y-95894200D01*
X118482514Y-96751342D02*
X118625371Y-96822771D01*
X118982514Y-96822771D01*
X119125371Y-96751342D01*
X119196800Y-96608485D01*
X119196800Y-96465628D01*
X119125371Y-96322771D01*
X118982514Y-96251342D01*
X118625371Y-96251342D01*
X118482514Y-96179914D01*
X117768228Y-95822771D02*
X117768228Y-96822771D01*
X117768228Y-95965628D02*
X117696800Y-95894200D01*
X117553942Y-95822771D01*
X117339657Y-95822771D01*
X117196800Y-95894200D01*
X117125371Y-96037057D01*
X117125371Y-96822771D01*
D13*
G36*
X125464797Y-77012686D02*
G01*
X125373890Y-77014597D01*
X123923781Y-77052403D01*
X122923717Y-77102453D01*
X122289007Y-77177408D01*
X121934958Y-77289927D01*
X121776879Y-77452672D01*
X121744812Y-77557094D01*
X121750636Y-77745167D01*
X121906180Y-77875074D01*
X122291558Y-77957406D01*
X122986885Y-78002754D01*
X124072278Y-78021710D01*
X125284143Y-78024989D01*
X126738653Y-78020964D01*
X127741948Y-78000565D01*
X128377533Y-77951311D01*
X128728916Y-77860717D01*
X128879603Y-77716301D01*
X128913101Y-77505579D01*
X128913221Y-77482492D01*
X128887922Y-77263412D01*
X128755633Y-77115554D01*
X128431764Y-77027735D01*
X127831728Y-76988773D01*
X126870936Y-76987484D01*
X125464797Y-77012686D01*
G37*
X125464797Y-77012686D02*
X125373890Y-77014597D01*
X123923781Y-77052403D01*
X122923717Y-77102453D01*
X122289007Y-77177408D01*
X121934958Y-77289927D01*
X121776879Y-77452672D01*
X121744812Y-77557094D01*
X121750636Y-77745167D01*
X121906180Y-77875074D01*
X122291558Y-77957406D01*
X122986885Y-78002754D01*
X124072278Y-78021710D01*
X125284143Y-78024989D01*
X126738653Y-78020964D01*
X127741948Y-78000565D01*
X128377533Y-77951311D01*
X128728916Y-77860717D01*
X128879603Y-77716301D01*
X128913101Y-77505579D01*
X128913221Y-77482492D01*
X128887922Y-77263412D01*
X128755633Y-77115554D01*
X128431764Y-77027735D01*
X127831728Y-76988773D01*
X126870936Y-76987484D01*
X125464797Y-77012686D01*
G36*
X132277738Y-71589547D02*
G01*
X131914605Y-72132104D01*
X131933362Y-72694573D01*
X132239118Y-73137436D01*
X132736981Y-73321172D01*
X133316939Y-73117483D01*
X133661645Y-72592955D01*
X133574801Y-71980693D01*
X133146685Y-71518625D01*
X132620489Y-71396637D01*
X132277738Y-71589547D01*
G37*
X132277738Y-71589547D02*
X131914605Y-72132104D01*
X131933362Y-72694573D01*
X132239118Y-73137436D01*
X132736981Y-73321172D01*
X133316939Y-73117483D01*
X133661645Y-72592955D01*
X133574801Y-71980693D01*
X133146685Y-71518625D01*
X132620489Y-71396637D01*
X132277738Y-71589547D01*
G36*
X118130009Y-71633164D02*
G01*
X117870862Y-71906016D01*
X117710943Y-72538370D01*
X117997754Y-73024905D01*
X118619537Y-73212357D01*
X119211704Y-73055476D01*
X119472584Y-72774963D01*
X119497827Y-72161358D01*
X119173307Y-71707297D01*
X118662782Y-71501619D01*
X118130009Y-71633164D01*
G37*
X118130009Y-71633164D02*
X117870862Y-71906016D01*
X117710943Y-72538370D01*
X117997754Y-73024905D01*
X118619537Y-73212357D01*
X119211704Y-73055476D01*
X119472584Y-72774963D01*
X119497827Y-72161358D01*
X119173307Y-71707297D01*
X118662782Y-71501619D01*
X118130009Y-71633164D01*
D14*
X103600000Y-91000000D02*
X103600000Y-92020000D01*
X108800000Y-91000000D02*
X108800000Y-92020000D01*
X103600000Y-88460000D02*
X103600000Y-89480000D01*
X108800000Y-88460000D02*
X108800000Y-89480000D01*
X103600000Y-85920000D02*
X103600000Y-86940000D01*
X108800000Y-85920000D02*
X108800000Y-86940000D01*
X103600000Y-83380000D02*
X103600000Y-84400000D01*
X108800000Y-83380000D02*
X108800000Y-84400000D01*
X103600000Y-80840000D02*
X103600000Y-81860000D01*
X108800000Y-80840000D02*
X108800000Y-81860000D01*
X103600000Y-78300000D02*
X103600000Y-79320000D01*
X108800000Y-78300000D02*
X108800000Y-79320000D01*
X103600000Y-75760000D02*
X103600000Y-76780000D01*
X108800000Y-75760000D02*
X108800000Y-76780000D01*
X103600000Y-73220000D02*
X103600000Y-74240000D01*
X108800000Y-73220000D02*
X108800000Y-74240000D01*
X103600000Y-70680000D02*
X103600000Y-71700000D01*
X108800000Y-70680000D02*
X108800000Y-71700000D01*
X103600000Y-68140000D02*
X103600000Y-69160000D01*
X108800000Y-68140000D02*
X108800000Y-69160000D01*
X103600000Y-65600000D02*
X103600000Y-66620000D01*
X108800000Y-65600000D02*
X108800000Y-66620000D01*
X103600000Y-63060000D02*
X103600000Y-64080000D01*
X108800000Y-63060000D02*
X108800000Y-64080000D01*
X103600000Y-60520000D02*
X103600000Y-61540000D01*
X108800000Y-60520000D02*
X108800000Y-61540000D01*
X103600000Y-57980000D02*
X103600000Y-59000000D01*
X108800000Y-57980000D02*
X108800000Y-59000000D01*
X103600000Y-93540000D02*
X103600000Y-94110000D01*
X108800000Y-93540000D02*
X108800000Y-94110000D01*
X103600000Y-55890000D02*
X103600000Y-56460000D01*
X108800000Y-55890000D02*
X108800000Y-56460000D01*
X110240000Y-56460000D02*
X108800000Y-56460000D01*
X108800000Y-94110000D02*
X103600000Y-94110000D01*
X108800000Y-55890000D02*
X103600000Y-55890000D01*
X136506000Y-83801000D02*
X136206000Y-84101000D01*
X136806000Y-84101000D02*
X136206000Y-84101000D01*
X136506000Y-83801000D02*
X136806000Y-84101000D01*
X137356000Y-82901000D02*
X137356000Y-82301000D01*
X133906000Y-83601000D02*
X136706000Y-83601000D01*
X133256000Y-82301000D02*
X133256000Y-82901000D01*
X136706000Y-81601000D02*
X133906000Y-81601000D01*
X133956000Y-81601000D02*
G75*
G03X133256000Y-82301000I0J-700000D01*
G01*
X133256000Y-82901000D02*
G75*
G03X133956000Y-83601000I700000J0D01*
G01*
X136656000Y-83601000D02*
G75*
G03X137356000Y-82901000I0J700000D01*
G01*
X137356000Y-82301000D02*
G75*
G03X136656000Y-81601000I-700000J0D01*
G01*
X137356000Y-79024400D02*
G75*
G03X136656000Y-78324400I-700000J0D01*
G01*
X136656000Y-80324400D02*
G75*
G03X137356000Y-79624400I0J700000D01*
G01*
X133256000Y-79624400D02*
G75*
G03X133956000Y-80324400I700000J0D01*
G01*
X133956000Y-78324400D02*
G75*
G03X133256000Y-79024400I0J-700000D01*
G01*
X136706000Y-78324400D02*
X133906000Y-78324400D01*
X133256000Y-79024400D02*
X133256000Y-79624400D01*
X133906000Y-80324400D02*
X136706000Y-80324400D01*
X137356000Y-79624400D02*
X137356000Y-79024400D01*
X136506000Y-80524400D02*
X136806000Y-80824400D01*
X136806000Y-80824400D02*
X136206000Y-80824400D01*
X136506000Y-80524400D02*
X136206000Y-80824400D01*
D15*
X105263333Y-72122380D02*
X105263333Y-72836666D01*
X105310952Y-72979523D01*
X105406190Y-73074761D01*
X105549047Y-73122380D01*
X105644285Y-73122380D01*
X104263333Y-73122380D02*
X104834761Y-73122380D01*
X104549047Y-73122380D02*
X104549047Y-72122380D01*
X104644285Y-72265238D01*
X104739523Y-72360476D01*
X104834761Y-72408095D01*
X135885333Y-84263180D02*
X135885333Y-84977466D01*
X135932952Y-85120323D01*
X136028190Y-85215561D01*
X136171047Y-85263180D01*
X136266285Y-85263180D01*
X135409142Y-85263180D02*
X135409142Y-84263180D01*
X135028190Y-84263180D01*
X134932952Y-84310800D01*
X134885333Y-84358419D01*
X134837714Y-84453657D01*
X134837714Y-84596514D01*
X134885333Y-84691752D01*
X134932952Y-84739371D01*
X135028190Y-84786990D01*
X135409142Y-84786990D01*
X133885333Y-85263180D02*
X134456761Y-85263180D01*
X134171047Y-85263180D02*
X134171047Y-84263180D01*
X134266285Y-84406038D01*
X134361523Y-84501276D01*
X134456761Y-84548895D01*
X136139333Y-76976780D02*
X136139333Y-77691066D01*
X136186952Y-77833923D01*
X136282190Y-77929161D01*
X136425047Y-77976780D01*
X136520285Y-77976780D01*
X135663142Y-77976780D02*
X135663142Y-76976780D01*
X135282190Y-76976780D01*
X135186952Y-77024400D01*
X135139333Y-77072019D01*
X135091714Y-77167257D01*
X135091714Y-77310114D01*
X135139333Y-77405352D01*
X135186952Y-77452971D01*
X135282190Y-77500590D01*
X135663142Y-77500590D01*
X134710761Y-77072019D02*
X134663142Y-77024400D01*
X134567904Y-76976780D01*
X134329809Y-76976780D01*
X134234571Y-77024400D01*
X134186952Y-77072019D01*
X134139333Y-77167257D01*
X134139333Y-77262495D01*
X134186952Y-77405352D01*
X134758380Y-77976780D01*
X134139333Y-77976780D01*
M02*
