G04 #@! TF.GenerationSoftware,KiCad,Pcbnew,(5.1.5)-3*
G04 #@! TF.CreationDate,2021-12-22T01:00:50+09:00*
G04 #@! TF.ProjectId,m5-pantilt,6d352d70-616e-4746-996c-742e6b696361,1*
G04 #@! TF.SameCoordinates,PX5f5e100PY5f5e100*
G04 #@! TF.FileFunction,Legend,Bot*
G04 #@! TF.FilePolarity,Positive*
%FSLAX46Y46*%
G04 Gerber Fmt 4.6, Leading zero omitted, Abs format (unit mm)*
G04 Created by KiCad (PCBNEW (5.1.5)-3) date 2021-12-22 01:00:50*
%MOMM*%
%LPD*%
G04 APERTURE LIST*
%ADD10C,0.150000*%
%ADD11C,0.125000*%
%ADD12C,1.000000*%
%ADD13C,0.300000*%
%ADD14C,0.010000*%
%ADD15C,0.120000*%
G04 APERTURE END LIST*
D10*
X19923809Y2533334D02*
X19447619Y2533334D01*
X20019047Y2247620D02*
X19685714Y3247620D01*
X19352380Y2247620D01*
X19019047Y2914286D02*
X19019047Y2247620D01*
X19019047Y2819048D02*
X18971428Y2866667D01*
X18876190Y2914286D01*
X18733333Y2914286D01*
X18638095Y2866667D01*
X18590476Y2771429D01*
X18590476Y2247620D01*
X17971428Y2247620D02*
X18066666Y2295239D01*
X18114285Y2342858D01*
X18161904Y2438096D01*
X18161904Y2723810D01*
X18114285Y2819048D01*
X18066666Y2866667D01*
X17971428Y2914286D01*
X17828571Y2914286D01*
X17733333Y2866667D01*
X17685714Y2819048D01*
X17638095Y2723810D01*
X17638095Y2438096D01*
X17685714Y2342858D01*
X17733333Y2295239D01*
X17828571Y2247620D01*
X17971428Y2247620D01*
X16780952Y2247620D02*
X16780952Y3247620D01*
X16780952Y2295239D02*
X16876190Y2247620D01*
X17066666Y2247620D01*
X17161904Y2295239D01*
X17209523Y2342858D01*
X17257142Y2438096D01*
X17257142Y2723810D01*
X17209523Y2819048D01*
X17161904Y2866667D01*
X17066666Y2914286D01*
X16876190Y2914286D01*
X16780952Y2866667D01*
X15923809Y2295239D02*
X16019047Y2247620D01*
X16209523Y2247620D01*
X16304761Y2295239D01*
X16352380Y2390477D01*
X16352380Y2771429D01*
X16304761Y2866667D01*
X16209523Y2914286D01*
X16019047Y2914286D01*
X15923809Y2866667D01*
X15876190Y2771429D01*
X15876190Y2676191D01*
X16352380Y2580953D01*
X19514285Y8142858D02*
X19561904Y8095239D01*
X19704761Y8047620D01*
X19800000Y8047620D01*
X19942857Y8095239D01*
X20038095Y8190477D01*
X20085714Y8285715D01*
X20133333Y8476191D01*
X20133333Y8619048D01*
X20085714Y8809524D01*
X20038095Y8904762D01*
X19942857Y9000000D01*
X19800000Y9047620D01*
X19704761Y9047620D01*
X19561904Y9000000D01*
X19514285Y8952381D01*
X18657142Y8047620D02*
X18657142Y8571429D01*
X18704761Y8666667D01*
X18800000Y8714286D01*
X18990476Y8714286D01*
X19085714Y8666667D01*
X18657142Y8095239D02*
X18752380Y8047620D01*
X18990476Y8047620D01*
X19085714Y8095239D01*
X19133333Y8190477D01*
X19133333Y8285715D01*
X19085714Y8380953D01*
X18990476Y8428572D01*
X18752380Y8428572D01*
X18657142Y8476191D01*
X18323809Y8714286D02*
X17942857Y8714286D01*
X18180952Y9047620D02*
X18180952Y8190477D01*
X18133333Y8095239D01*
X18038095Y8047620D01*
X17942857Y8047620D01*
X17609523Y8047620D02*
X17609523Y9047620D01*
X17180952Y8047620D02*
X17180952Y8571429D01*
X17228571Y8666667D01*
X17323809Y8714286D01*
X17466666Y8714286D01*
X17561904Y8666667D01*
X17609523Y8619048D01*
X16561904Y8047620D02*
X16657142Y8095239D01*
X16704761Y8142858D01*
X16752380Y8238096D01*
X16752380Y8523810D01*
X16704761Y8619048D01*
X16657142Y8666667D01*
X16561904Y8714286D01*
X16419047Y8714286D01*
X16323809Y8666667D01*
X16276190Y8619048D01*
X16228571Y8523810D01*
X16228571Y8238096D01*
X16276190Y8142858D01*
X16323809Y8095239D01*
X16419047Y8047620D01*
X16561904Y8047620D01*
X15371428Y8047620D02*
X15371428Y9047620D01*
X15371428Y8095239D02*
X15466666Y8047620D01*
X15657142Y8047620D01*
X15752380Y8095239D01*
X15800000Y8142858D01*
X15847619Y8238096D01*
X15847619Y8523810D01*
X15800000Y8619048D01*
X15752380Y8666667D01*
X15657142Y8714286D01*
X15466666Y8714286D01*
X15371428Y8666667D01*
X14514285Y8095239D02*
X14609523Y8047620D01*
X14800000Y8047620D01*
X14895238Y8095239D01*
X14942857Y8190477D01*
X14942857Y8571429D01*
X14895238Y8666667D01*
X14800000Y8714286D01*
X14609523Y8714286D01*
X14514285Y8666667D01*
X14466666Y8571429D01*
X14466666Y8476191D01*
X14942857Y8380953D01*
D11*
X15357142Y29642858D02*
X15404761Y29595239D01*
X15547619Y29547620D01*
X15642857Y29547620D01*
X15785714Y29595239D01*
X15880952Y29690477D01*
X15928571Y29785715D01*
X15976190Y29976191D01*
X15976190Y30119048D01*
X15928571Y30309524D01*
X15880952Y30404762D01*
X15785714Y30500000D01*
X15642857Y30547620D01*
X15547619Y30547620D01*
X15404761Y30500000D01*
X15357142Y30452381D01*
X14785714Y29547620D02*
X14880952Y29595239D01*
X14928571Y29642858D01*
X14976190Y29738096D01*
X14976190Y30023810D01*
X14928571Y30119048D01*
X14880952Y30166667D01*
X14785714Y30214286D01*
X14642857Y30214286D01*
X14547619Y30166667D01*
X14500000Y30119048D01*
X14452380Y30023810D01*
X14452380Y29738096D01*
X14500000Y29642858D01*
X14547619Y29595239D01*
X14642857Y29547620D01*
X14785714Y29547620D01*
X14023809Y29547620D02*
X14023809Y30214286D01*
X14023809Y30023810D02*
X13976190Y30119048D01*
X13928571Y30166667D01*
X13833333Y30214286D01*
X13738095Y30214286D01*
X13023809Y29595239D02*
X13119047Y29547620D01*
X13309523Y29547620D01*
X13404761Y29595239D01*
X13452380Y29690477D01*
X13452380Y30071429D01*
X13404761Y30166667D01*
X13309523Y30214286D01*
X13119047Y30214286D01*
X13023809Y30166667D01*
X12976190Y30071429D01*
X12976190Y29976191D01*
X13452380Y29880953D01*
X12023809Y29547620D02*
X12595238Y29547620D01*
X12309523Y29547620D02*
X12309523Y30547620D01*
X12404761Y30404762D01*
X12500000Y30309524D01*
X12595238Y30261905D01*
X19257142Y18742858D02*
X19304761Y18695239D01*
X19447619Y18647620D01*
X19542857Y18647620D01*
X19685714Y18695239D01*
X19780952Y18790477D01*
X19828571Y18885715D01*
X19876190Y19076191D01*
X19876190Y19219048D01*
X19828571Y19409524D01*
X19780952Y19504762D01*
X19685714Y19600000D01*
X19542857Y19647620D01*
X19447619Y19647620D01*
X19304761Y19600000D01*
X19257142Y19552381D01*
X18685714Y18647620D02*
X18780952Y18695239D01*
X18828571Y18742858D01*
X18876190Y18838096D01*
X18876190Y19123810D01*
X18828571Y19219048D01*
X18780952Y19266667D01*
X18685714Y19314286D01*
X18542857Y19314286D01*
X18447619Y19266667D01*
X18400000Y19219048D01*
X18352380Y19123810D01*
X18352380Y18838096D01*
X18400000Y18742858D01*
X18447619Y18695239D01*
X18542857Y18647620D01*
X18685714Y18647620D01*
X17923809Y18647620D02*
X17923809Y19314286D01*
X17923809Y19123810D02*
X17876190Y19219048D01*
X17828571Y19266667D01*
X17733333Y19314286D01*
X17638095Y19314286D01*
X16923809Y18695239D02*
X17019047Y18647620D01*
X17209523Y18647620D01*
X17304761Y18695239D01*
X17352380Y18790477D01*
X17352380Y19171429D01*
X17304761Y19266667D01*
X17209523Y19314286D01*
X17019047Y19314286D01*
X16923809Y19266667D01*
X16876190Y19171429D01*
X16876190Y19076191D01*
X17352380Y18980953D01*
X16495238Y19552381D02*
X16447619Y19600000D01*
X16352380Y19647620D01*
X16114285Y19647620D01*
X16019047Y19600000D01*
X15971428Y19552381D01*
X15923809Y19457143D01*
X15923809Y19361905D01*
X15971428Y19219048D01*
X16542857Y18647620D01*
X15923809Y18647620D01*
X34104761Y25247620D02*
X34104761Y26247620D01*
X33723809Y26247620D01*
X33628571Y26200000D01*
X33580952Y26152381D01*
X33533333Y26057143D01*
X33533333Y25914286D01*
X33580952Y25819048D01*
X33628571Y25771429D01*
X33723809Y25723810D01*
X34104761Y25723810D01*
X33200000Y26247620D02*
X32961904Y25247620D01*
X32771428Y25961905D01*
X32580952Y25247620D01*
X32342857Y26247620D01*
X31961904Y25247620D02*
X31961904Y26247620D01*
X31628571Y25533334D01*
X31295238Y26247620D01*
X31295238Y25247620D01*
D10*
X1476190Y23938096D02*
X1742857Y24319048D01*
X1933333Y23938096D02*
X1933333Y24738096D01*
X1628571Y24738096D01*
X1552380Y24700000D01*
X1514285Y24661905D01*
X1476190Y24585715D01*
X1476190Y24471429D01*
X1514285Y24395239D01*
X1552380Y24357143D01*
X1628571Y24319048D01*
X1933333Y24319048D01*
X1209523Y23938096D02*
X790476Y24471429D01*
X1209523Y24471429D02*
X790476Y23938096D01*
X11152380Y24638096D02*
X10695238Y24638096D01*
X10923809Y23838096D02*
X10923809Y24638096D01*
X10504761Y23838096D02*
X10085714Y24371429D01*
X10504761Y24371429D02*
X10085714Y23838096D01*
D12*
X7670800Y10058400D02*
X7620000Y39776400D01*
X42773600Y9956800D02*
X7670800Y10058400D01*
X42672000Y39827200D02*
X42773600Y9956800D01*
X7620000Y39776400D02*
X42672000Y39827200D01*
D11*
X33771428Y14447620D02*
X33200000Y14447620D01*
X33485714Y13447620D02*
X33485714Y14447620D01*
X33009523Y14447620D02*
X32438095Y14447620D01*
X32723809Y13447620D02*
X32723809Y14447620D01*
X31628571Y13447620D02*
X32104761Y13447620D01*
X32104761Y14447620D01*
D13*
X46502857Y6222143D02*
X46502857Y7022143D01*
X46502857Y6907858D02*
X46445714Y6965000D01*
X46331428Y7022143D01*
X46160000Y7022143D01*
X46045714Y6965000D01*
X45988571Y6850715D01*
X45988571Y6222143D01*
X45988571Y6850715D02*
X45931428Y6965000D01*
X45817142Y7022143D01*
X45645714Y7022143D01*
X45531428Y6965000D01*
X45474285Y6850715D01*
X45474285Y6222143D01*
X44331428Y7422143D02*
X44902857Y7422143D01*
X44960000Y6850715D01*
X44902857Y6907858D01*
X44788571Y6965000D01*
X44502857Y6965000D01*
X44388571Y6907858D01*
X44331428Y6850715D01*
X44274285Y6736429D01*
X44274285Y6450715D01*
X44331428Y6336429D01*
X44388571Y6279286D01*
X44502857Y6222143D01*
X44788571Y6222143D01*
X44902857Y6279286D01*
X44960000Y6336429D01*
X43760000Y6679286D02*
X42845714Y6679286D01*
X42274285Y7022143D02*
X42274285Y5822143D01*
X42274285Y6965000D02*
X42160000Y7022143D01*
X41931428Y7022143D01*
X41817142Y6965000D01*
X41760000Y6907858D01*
X41702857Y6793572D01*
X41702857Y6450715D01*
X41760000Y6336429D01*
X41817142Y6279286D01*
X41931428Y6222143D01*
X42160000Y6222143D01*
X42274285Y6279286D01*
X40674285Y6222143D02*
X40674285Y6850715D01*
X40731428Y6965000D01*
X40845714Y7022143D01*
X41074285Y7022143D01*
X41188571Y6965000D01*
X40674285Y6279286D02*
X40788571Y6222143D01*
X41074285Y6222143D01*
X41188571Y6279286D01*
X41245714Y6393572D01*
X41245714Y6507858D01*
X41188571Y6622143D01*
X41074285Y6679286D01*
X40788571Y6679286D01*
X40674285Y6736429D01*
X40102857Y7022143D02*
X40102857Y6222143D01*
X40102857Y6907858D02*
X40045714Y6965000D01*
X39931428Y7022143D01*
X39760000Y7022143D01*
X39645714Y6965000D01*
X39588571Y6850715D01*
X39588571Y6222143D01*
X39188571Y7022143D02*
X38731428Y7022143D01*
X39017142Y7422143D02*
X39017142Y6393572D01*
X38960000Y6279286D01*
X38845714Y6222143D01*
X38731428Y6222143D01*
X38331428Y6222143D02*
X38331428Y7022143D01*
X38331428Y7422143D02*
X38388571Y7365000D01*
X38331428Y7307858D01*
X38274285Y7365000D01*
X38331428Y7422143D01*
X38331428Y7307858D01*
X37588571Y6222143D02*
X37702857Y6279286D01*
X37760000Y6393572D01*
X37760000Y7422143D01*
X37302857Y7022143D02*
X36845714Y7022143D01*
X37131428Y7422143D02*
X37131428Y6393572D01*
X37074285Y6279286D01*
X36960000Y6222143D01*
X36845714Y6222143D01*
X35531428Y6222143D02*
X35531428Y7422143D01*
X35531428Y6965000D02*
X35417142Y7022143D01*
X35188571Y7022143D01*
X35074285Y6965000D01*
X35017142Y6907858D01*
X34960000Y6793572D01*
X34960000Y6450715D01*
X35017142Y6336429D01*
X35074285Y6279286D01*
X35188571Y6222143D01*
X35417142Y6222143D01*
X35531428Y6279286D01*
X34274285Y6222143D02*
X34388571Y6279286D01*
X34445714Y6336429D01*
X34502857Y6450715D01*
X34502857Y6793572D01*
X34445714Y6907858D01*
X34388571Y6965000D01*
X34274285Y7022143D01*
X34102857Y7022143D01*
X33988571Y6965000D01*
X33931428Y6907858D01*
X33874285Y6793572D01*
X33874285Y6450715D01*
X33931428Y6336429D01*
X33988571Y6279286D01*
X34102857Y6222143D01*
X34274285Y6222143D01*
X32845714Y6222143D02*
X32845714Y6850715D01*
X32902857Y6965000D01*
X33017142Y7022143D01*
X33245714Y7022143D01*
X33360000Y6965000D01*
X32845714Y6279286D02*
X32960000Y6222143D01*
X33245714Y6222143D01*
X33360000Y6279286D01*
X33417142Y6393572D01*
X33417142Y6507858D01*
X33360000Y6622143D01*
X33245714Y6679286D01*
X32960000Y6679286D01*
X32845714Y6736429D01*
X32274285Y6222143D02*
X32274285Y7022143D01*
X32274285Y6793572D02*
X32217142Y6907858D01*
X32160000Y6965000D01*
X32045714Y7022143D01*
X31931428Y7022143D01*
X31017142Y6222143D02*
X31017142Y7422143D01*
X31017142Y6279286D02*
X31131428Y6222143D01*
X31360000Y6222143D01*
X31474285Y6279286D01*
X31531428Y6336429D01*
X31588571Y6450715D01*
X31588571Y6793572D01*
X31531428Y6907858D01*
X31474285Y6965000D01*
X31360000Y7022143D01*
X31131428Y7022143D01*
X31017142Y6965000D01*
X29645714Y7022143D02*
X29360000Y6222143D01*
X29074285Y7022143D01*
X28388571Y7422143D02*
X28274285Y7422143D01*
X28160000Y7365000D01*
X28102857Y7307858D01*
X28045714Y7193572D01*
X27988571Y6965000D01*
X27988571Y6679286D01*
X28045714Y6450715D01*
X28102857Y6336429D01*
X28160000Y6279286D01*
X28274285Y6222143D01*
X28388571Y6222143D01*
X28502857Y6279286D01*
X28560000Y6336429D01*
X28617142Y6450715D01*
X28674285Y6679286D01*
X28674285Y6965000D01*
X28617142Y7193572D01*
X28560000Y7307858D01*
X28502857Y7365000D01*
X28388571Y7422143D01*
X27474285Y6336429D02*
X27417142Y6279286D01*
X27474285Y6222143D01*
X27531428Y6279286D01*
X27474285Y6336429D01*
X27474285Y6222143D01*
X26960000Y7307858D02*
X26902857Y7365000D01*
X26788571Y7422143D01*
X26502857Y7422143D01*
X26388571Y7365000D01*
X26331428Y7307858D01*
X26274285Y7193572D01*
X26274285Y7079286D01*
X26331428Y6907858D01*
X27017142Y6222143D01*
X26274285Y6222143D01*
X25760000Y6336429D02*
X25702857Y6279286D01*
X25760000Y6222143D01*
X25817142Y6279286D01*
X25760000Y6336429D01*
X25760000Y6222143D01*
X24960000Y7422143D02*
X24845714Y7422143D01*
X24731428Y7365000D01*
X24674285Y7307858D01*
X24617142Y7193572D01*
X24560000Y6965000D01*
X24560000Y6679286D01*
X24617142Y6450715D01*
X24674285Y6336429D01*
X24731428Y6279286D01*
X24845714Y6222143D01*
X24960000Y6222143D01*
X25074285Y6279286D01*
X25131428Y6336429D01*
X25188571Y6450715D01*
X25245714Y6679286D01*
X25245714Y6965000D01*
X25188571Y7193572D01*
X25131428Y7307858D01*
X25074285Y7365000D01*
X24960000Y7422143D01*
X41274285Y4693572D02*
X41331428Y4750715D01*
X41445714Y4807858D01*
X41560000Y4807858D01*
X41674285Y4750715D01*
X41731428Y4693572D01*
X41788571Y4579286D01*
X41788571Y4465000D01*
X41731428Y4350715D01*
X41674285Y4293572D01*
X41560000Y4236429D01*
X41445714Y4236429D01*
X41331428Y4293572D01*
X41274285Y4350715D01*
X41274285Y4807858D02*
X41274285Y4350715D01*
X41217142Y4293572D01*
X41160000Y4293572D01*
X41045714Y4350715D01*
X40988571Y4465000D01*
X40988571Y4750715D01*
X41102857Y4922143D01*
X41274285Y5036429D01*
X41502857Y5093572D01*
X41731428Y5036429D01*
X41902857Y4922143D01*
X42017142Y4750715D01*
X42074285Y4522143D01*
X42017142Y4293572D01*
X41902857Y4122143D01*
X41731428Y4007858D01*
X41502857Y3950715D01*
X41274285Y4007858D01*
X41102857Y4122143D01*
X40474285Y4122143D02*
X40474285Y4922143D01*
X40474285Y4807858D02*
X40417142Y4865000D01*
X40302857Y4922143D01*
X40131428Y4922143D01*
X40017142Y4865000D01*
X39960000Y4750715D01*
X39960000Y4122143D01*
X39960000Y4750715D02*
X39902857Y4865000D01*
X39788571Y4922143D01*
X39617142Y4922143D01*
X39502857Y4865000D01*
X39445714Y4750715D01*
X39445714Y4122143D01*
X38417142Y4179286D02*
X38531428Y4122143D01*
X38760000Y4122143D01*
X38874285Y4179286D01*
X38931428Y4293572D01*
X38931428Y4750715D01*
X38874285Y4865000D01*
X38760000Y4922143D01*
X38531428Y4922143D01*
X38417142Y4865000D01*
X38360000Y4750715D01*
X38360000Y4636429D01*
X38931428Y4522143D01*
X37331428Y4922143D02*
X37331428Y3950715D01*
X37388571Y3836429D01*
X37445714Y3779286D01*
X37560000Y3722143D01*
X37731428Y3722143D01*
X37845714Y3779286D01*
X37331428Y4179286D02*
X37445714Y4122143D01*
X37674285Y4122143D01*
X37788571Y4179286D01*
X37845714Y4236429D01*
X37902857Y4350715D01*
X37902857Y4693572D01*
X37845714Y4807858D01*
X37788571Y4865000D01*
X37674285Y4922143D01*
X37445714Y4922143D01*
X37331428Y4865000D01*
X36245714Y4122143D02*
X36245714Y4750715D01*
X36302857Y4865000D01*
X36417142Y4922143D01*
X36645714Y4922143D01*
X36760000Y4865000D01*
X36245714Y4179286D02*
X36360000Y4122143D01*
X36645714Y4122143D01*
X36760000Y4179286D01*
X36817142Y4293572D01*
X36817142Y4407858D01*
X36760000Y4522143D01*
X36645714Y4579286D01*
X36360000Y4579286D01*
X36245714Y4636429D01*
X35674285Y4922143D02*
X35674285Y4122143D01*
X35674285Y4807858D02*
X35617142Y4865000D01*
X35502857Y4922143D01*
X35331428Y4922143D01*
X35217142Y4865000D01*
X35160000Y4750715D01*
X35160000Y4122143D01*
X34131428Y4179286D02*
X34245714Y4122143D01*
X34474285Y4122143D01*
X34588571Y4179286D01*
X34645714Y4293572D01*
X34645714Y4750715D01*
X34588571Y4865000D01*
X34474285Y4922143D01*
X34245714Y4922143D01*
X34131428Y4865000D01*
X34074285Y4750715D01*
X34074285Y4636429D01*
X34645714Y4522143D01*
X33731428Y4922143D02*
X33274285Y4922143D01*
X33560000Y5322143D02*
X33560000Y4293572D01*
X33502857Y4179286D01*
X33388571Y4122143D01*
X33274285Y4122143D01*
X32360000Y4122143D02*
X32360000Y4750715D01*
X32417142Y4865000D01*
X32531428Y4922143D01*
X32760000Y4922143D01*
X32874285Y4865000D01*
X32360000Y4179286D02*
X32474285Y4122143D01*
X32760000Y4122143D01*
X32874285Y4179286D01*
X32931428Y4293572D01*
X32931428Y4407858D01*
X32874285Y4522143D01*
X32760000Y4579286D01*
X32474285Y4579286D01*
X32360000Y4636429D01*
X31274285Y4122143D02*
X31274285Y4750715D01*
X31331428Y4865000D01*
X31445714Y4922143D01*
X31674285Y4922143D01*
X31788571Y4865000D01*
X31274285Y4179286D02*
X31388571Y4122143D01*
X31674285Y4122143D01*
X31788571Y4179286D01*
X31845714Y4293572D01*
X31845714Y4407858D01*
X31788571Y4522143D01*
X31674285Y4579286D01*
X31388571Y4579286D01*
X31274285Y4636429D01*
X30188571Y4122143D02*
X30188571Y4750715D01*
X30245714Y4865000D01*
X30360000Y4922143D01*
X30588571Y4922143D01*
X30702857Y4865000D01*
X30188571Y4179286D02*
X30302857Y4122143D01*
X30588571Y4122143D01*
X30702857Y4179286D01*
X30760000Y4293572D01*
X30760000Y4407858D01*
X30702857Y4522143D01*
X30588571Y4579286D01*
X30302857Y4579286D01*
X30188571Y4636429D01*
X29617142Y4922143D02*
X29617142Y4122143D01*
X29617142Y4807858D02*
X29560000Y4865000D01*
X29445714Y4922143D01*
X29274285Y4922143D01*
X29160000Y4865000D01*
X29102857Y4750715D01*
X29102857Y4122143D01*
D14*
G36*
X25464797Y22987314D02*
G01*
X25373890Y22985403D01*
X23923781Y22947597D01*
X22923717Y22897547D01*
X22289007Y22822592D01*
X21934958Y22710073D01*
X21776879Y22547328D01*
X21744812Y22442906D01*
X21750636Y22254833D01*
X21906180Y22124926D01*
X22291558Y22042594D01*
X22986885Y21997246D01*
X24072278Y21978290D01*
X25284143Y21975011D01*
X26738653Y21979036D01*
X27741948Y21999435D01*
X28377533Y22048689D01*
X28728916Y22139283D01*
X28879603Y22283699D01*
X28913101Y22494421D01*
X28913221Y22517508D01*
X28887922Y22736588D01*
X28755633Y22884446D01*
X28431764Y22972265D01*
X27831728Y23011227D01*
X26870936Y23012516D01*
X25464797Y22987314D01*
G37*
X25464797Y22987314D02*
X25373890Y22985403D01*
X23923781Y22947597D01*
X22923717Y22897547D01*
X22289007Y22822592D01*
X21934958Y22710073D01*
X21776879Y22547328D01*
X21744812Y22442906D01*
X21750636Y22254833D01*
X21906180Y22124926D01*
X22291558Y22042594D01*
X22986885Y21997246D01*
X24072278Y21978290D01*
X25284143Y21975011D01*
X26738653Y21979036D01*
X27741948Y21999435D01*
X28377533Y22048689D01*
X28728916Y22139283D01*
X28879603Y22283699D01*
X28913101Y22494421D01*
X28913221Y22517508D01*
X28887922Y22736588D01*
X28755633Y22884446D01*
X28431764Y22972265D01*
X27831728Y23011227D01*
X26870936Y23012516D01*
X25464797Y22987314D01*
G36*
X32277738Y28410453D02*
G01*
X31914605Y27867896D01*
X31933362Y27305427D01*
X32239118Y26862564D01*
X32736981Y26678828D01*
X33316939Y26882517D01*
X33661645Y27407045D01*
X33574801Y28019307D01*
X33146685Y28481375D01*
X32620489Y28603363D01*
X32277738Y28410453D01*
G37*
X32277738Y28410453D02*
X31914605Y27867896D01*
X31933362Y27305427D01*
X32239118Y26862564D01*
X32736981Y26678828D01*
X33316939Y26882517D01*
X33661645Y27407045D01*
X33574801Y28019307D01*
X33146685Y28481375D01*
X32620489Y28603363D01*
X32277738Y28410453D01*
G36*
X18130009Y28366836D02*
G01*
X17870862Y28093984D01*
X17710943Y27461630D01*
X17997754Y26975095D01*
X18619537Y26787643D01*
X19211704Y26944524D01*
X19472584Y27225037D01*
X19497827Y27838642D01*
X19173307Y28292703D01*
X18662782Y28498381D01*
X18130009Y28366836D01*
G37*
X18130009Y28366836D02*
X17870862Y28093984D01*
X17710943Y27461630D01*
X17997754Y26975095D01*
X18619537Y26787643D01*
X19211704Y26944524D01*
X19472584Y27225037D01*
X19497827Y27838642D01*
X19173307Y28292703D01*
X18662782Y28498381D01*
X18130009Y28366836D01*
D15*
X3600000Y9000000D02*
X3600000Y7980000D01*
X8800000Y9000000D02*
X8800000Y7980000D01*
X3600000Y11540000D02*
X3600000Y10520000D01*
X8800000Y11540000D02*
X8800000Y10520000D01*
X3600000Y14080000D02*
X3600000Y13060000D01*
X8800000Y14080000D02*
X8800000Y13060000D01*
X3600000Y16620000D02*
X3600000Y15600000D01*
X8800000Y16620000D02*
X8800000Y15600000D01*
X3600000Y19160000D02*
X3600000Y18140000D01*
X8800000Y19160000D02*
X8800000Y18140000D01*
X3600000Y21700000D02*
X3600000Y20680000D01*
X8800000Y21700000D02*
X8800000Y20680000D01*
X3600000Y24240000D02*
X3600000Y23220000D01*
X8800000Y24240000D02*
X8800000Y23220000D01*
X3600000Y26780000D02*
X3600000Y25760000D01*
X8800000Y26780000D02*
X8800000Y25760000D01*
X3600000Y29320000D02*
X3600000Y28300000D01*
X8800000Y29320000D02*
X8800000Y28300000D01*
X3600000Y31860000D02*
X3600000Y30840000D01*
X8800000Y31860000D02*
X8800000Y30840000D01*
X3600000Y34400000D02*
X3600000Y33380000D01*
X8800000Y34400000D02*
X8800000Y33380000D01*
X3600000Y36940000D02*
X3600000Y35920000D01*
X8800000Y36940000D02*
X8800000Y35920000D01*
X3600000Y39480000D02*
X3600000Y38460000D01*
X8800000Y39480000D02*
X8800000Y38460000D01*
X3600000Y42020000D02*
X3600000Y41000000D01*
X8800000Y42020000D02*
X8800000Y41000000D01*
X3600000Y6460000D02*
X3600000Y5890000D01*
X8800000Y6460000D02*
X8800000Y5890000D01*
X3600000Y44110000D02*
X3600000Y43540000D01*
X8800000Y44110000D02*
X8800000Y43540000D01*
X10240000Y43540000D02*
X8800000Y43540000D01*
X8800000Y5890000D02*
X3600000Y5890000D01*
X8800000Y44110000D02*
X3600000Y44110000D01*
X20750000Y10600000D02*
X24050000Y10600000D01*
X24050000Y10600000D02*
X24050000Y3700000D01*
X20750000Y10600000D02*
X20750000Y3700000D01*
X31300000Y22800000D02*
X34100000Y22800000D01*
X34100000Y22800000D02*
X34100000Y24800000D01*
X34100000Y24800000D02*
X31300000Y24800000D01*
X31300000Y24800000D02*
X31300000Y22800000D01*
X31300000Y22200000D02*
X31300000Y20200000D01*
X34100000Y22200000D02*
X31300000Y22200000D01*
X34100000Y20200000D02*
X34100000Y22200000D01*
X31300000Y20200000D02*
X34100000Y20200000D01*
X34100000Y17600000D02*
X34100000Y19600000D01*
X31300000Y17600000D02*
X34100000Y17600000D01*
X31300000Y19600000D02*
X31300000Y17600000D01*
X34100000Y19600000D02*
X31300000Y19600000D01*
X34100000Y17000000D02*
X31300000Y17000000D01*
X31300000Y17000000D02*
X31300000Y15000000D01*
X31300000Y15000000D02*
X34100000Y15000000D01*
X34100000Y15000000D02*
X34100000Y17000000D01*
X12400000Y26100000D02*
X12400000Y24100000D01*
X15200000Y26100000D02*
X12400000Y26100000D01*
X15200000Y24100000D02*
X15200000Y26100000D01*
X12400000Y24100000D02*
X15200000Y24100000D01*
X12400000Y21500000D02*
X15200000Y21500000D01*
X15200000Y21500000D02*
X15200000Y23500000D01*
X15200000Y23500000D02*
X12400000Y23500000D01*
X12400000Y23500000D02*
X12400000Y21500000D01*
X12400000Y26800000D02*
X15200000Y26800000D01*
X15200000Y26800000D02*
X15200000Y28800000D01*
X15200000Y28800000D02*
X12400000Y28800000D01*
X12400000Y28800000D02*
X12400000Y26800000D01*
X12400000Y20900000D02*
X12400000Y18900000D01*
X15200000Y20900000D02*
X12400000Y20900000D01*
X15200000Y18900000D02*
X15200000Y20900000D01*
X12400000Y18900000D02*
X15200000Y18900000D01*
D10*
X5263333Y27877620D02*
X5263333Y27163334D01*
X5310952Y27020477D01*
X5406190Y26925239D01*
X5549047Y26877620D01*
X5644285Y26877620D01*
X4263333Y26877620D02*
X4834761Y26877620D01*
X4549047Y26877620D02*
X4549047Y27877620D01*
X4644285Y27734762D01*
X4739523Y27639524D01*
X4834761Y27591905D01*
X19938095Y5547620D02*
X19938095Y6547620D01*
X19700000Y6547620D01*
X19557142Y6500000D01*
X19461904Y6404762D01*
X19414285Y6309524D01*
X19366666Y6119048D01*
X19366666Y5976191D01*
X19414285Y5785715D01*
X19461904Y5690477D01*
X19557142Y5595239D01*
X19700000Y5547620D01*
X19938095Y5547620D01*
X18414285Y5547620D02*
X18985714Y5547620D01*
X18700000Y5547620D02*
X18700000Y6547620D01*
X18795238Y6404762D01*
X18890476Y6309524D01*
X18985714Y6261905D01*
X36366666Y23538096D02*
X36366666Y22966667D01*
X36404761Y22852381D01*
X36480952Y22776191D01*
X36595238Y22738096D01*
X36671428Y22738096D01*
X35985714Y22738096D02*
X35985714Y23538096D01*
X35680952Y23538096D01*
X35604761Y23500000D01*
X35566666Y23461905D01*
X35528571Y23385715D01*
X35528571Y23271429D01*
X35566666Y23195239D01*
X35604761Y23157143D01*
X35680952Y23119048D01*
X35985714Y23119048D01*
X34766666Y22738096D02*
X35223809Y22738096D01*
X34995238Y22738096D02*
X34995238Y23538096D01*
X35071428Y23423810D01*
X35147619Y23347620D01*
X35223809Y23309524D01*
X36466666Y22038096D02*
X36466666Y21466667D01*
X36504761Y21352381D01*
X36580952Y21276191D01*
X36695238Y21238096D01*
X36771428Y21238096D01*
X36085714Y21238096D02*
X36085714Y22038096D01*
X35780952Y22038096D01*
X35704761Y22000000D01*
X35666666Y21961905D01*
X35628571Y21885715D01*
X35628571Y21771429D01*
X35666666Y21695239D01*
X35704761Y21657143D01*
X35780952Y21619048D01*
X36085714Y21619048D01*
X35323809Y21961905D02*
X35285714Y22000000D01*
X35209523Y22038096D01*
X35019047Y22038096D01*
X34942857Y22000000D01*
X34904761Y21961905D01*
X34866666Y21885715D01*
X34866666Y21809524D01*
X34904761Y21695239D01*
X35361904Y21238096D01*
X34866666Y21238096D01*
X36266666Y18438096D02*
X36266666Y17866667D01*
X36304761Y17752381D01*
X36380952Y17676191D01*
X36495238Y17638096D01*
X36571428Y17638096D01*
X35885714Y17638096D02*
X35885714Y18438096D01*
X35580952Y18438096D01*
X35504761Y18400000D01*
X35466666Y18361905D01*
X35428571Y18285715D01*
X35428571Y18171429D01*
X35466666Y18095239D01*
X35504761Y18057143D01*
X35580952Y18019048D01*
X35885714Y18019048D01*
X35161904Y18438096D02*
X34666666Y18438096D01*
X34933333Y18133334D01*
X34819047Y18133334D01*
X34742857Y18095239D01*
X34704761Y18057143D01*
X34666666Y17980953D01*
X34666666Y17790477D01*
X34704761Y17714286D01*
X34742857Y17676191D01*
X34819047Y17638096D01*
X35047619Y17638096D01*
X35123809Y17676191D01*
X35161904Y17714286D01*
X36266666Y17038096D02*
X36266666Y16466667D01*
X36304761Y16352381D01*
X36380952Y16276191D01*
X36495238Y16238096D01*
X36571428Y16238096D01*
X35885714Y16238096D02*
X35885714Y17038096D01*
X35580952Y17038096D01*
X35504761Y17000000D01*
X35466666Y16961905D01*
X35428571Y16885715D01*
X35428571Y16771429D01*
X35466666Y16695239D01*
X35504761Y16657143D01*
X35580952Y16619048D01*
X35885714Y16619048D01*
X34742857Y16771429D02*
X34742857Y16238096D01*
X34933333Y17076191D02*
X35123809Y16504762D01*
X34628571Y16504762D01*
X17366666Y26038096D02*
X17366666Y25466667D01*
X17404761Y25352381D01*
X17480952Y25276191D01*
X17595238Y25238096D01*
X17671428Y25238096D01*
X16985714Y25238096D02*
X16985714Y26038096D01*
X16680952Y26038096D01*
X16604761Y26000000D01*
X16566666Y25961905D01*
X16528571Y25885715D01*
X16528571Y25771429D01*
X16566666Y25695239D01*
X16604761Y25657143D01*
X16680952Y25619048D01*
X16985714Y25619048D01*
X15804761Y26038096D02*
X16185714Y26038096D01*
X16223809Y25657143D01*
X16185714Y25695239D01*
X16109523Y25733334D01*
X15919047Y25733334D01*
X15842857Y25695239D01*
X15804761Y25657143D01*
X15766666Y25580953D01*
X15766666Y25390477D01*
X15804761Y25314286D01*
X15842857Y25276191D01*
X15919047Y25238096D01*
X16109523Y25238096D01*
X16185714Y25276191D01*
X16223809Y25314286D01*
X17366666Y22338096D02*
X17366666Y21766667D01*
X17404761Y21652381D01*
X17480952Y21576191D01*
X17595238Y21538096D01*
X17671428Y21538096D01*
X16985714Y21538096D02*
X16985714Y22338096D01*
X16680952Y22338096D01*
X16604761Y22300000D01*
X16566666Y22261905D01*
X16528571Y22185715D01*
X16528571Y22071429D01*
X16566666Y21995239D01*
X16604761Y21957143D01*
X16680952Y21919048D01*
X16985714Y21919048D01*
X15842857Y22338096D02*
X15995238Y22338096D01*
X16071428Y22300000D01*
X16109523Y22261905D01*
X16185714Y22147620D01*
X16223809Y21995239D01*
X16223809Y21690477D01*
X16185714Y21614286D01*
X16147619Y21576191D01*
X16071428Y21538096D01*
X15919047Y21538096D01*
X15842857Y21576191D01*
X15804761Y21614286D01*
X15766666Y21690477D01*
X15766666Y21880953D01*
X15804761Y21957143D01*
X15842857Y21995239D01*
X15919047Y22033334D01*
X16071428Y22033334D01*
X16147619Y21995239D01*
X16185714Y21957143D01*
X16223809Y21880953D01*
X17366666Y27638096D02*
X17366666Y27066667D01*
X17404761Y26952381D01*
X17480952Y26876191D01*
X17595238Y26838096D01*
X17671428Y26838096D01*
X16985714Y26838096D02*
X16985714Y27638096D01*
X16680952Y27638096D01*
X16604761Y27600000D01*
X16566666Y27561905D01*
X16528571Y27485715D01*
X16528571Y27371429D01*
X16566666Y27295239D01*
X16604761Y27257143D01*
X16680952Y27219048D01*
X16985714Y27219048D01*
X16261904Y27638096D02*
X15728571Y27638096D01*
X16071428Y26838096D01*
X17366666Y20838096D02*
X17366666Y20266667D01*
X17404761Y20152381D01*
X17480952Y20076191D01*
X17595238Y20038096D01*
X17671428Y20038096D01*
X16985714Y20038096D02*
X16985714Y20838096D01*
X16680952Y20838096D01*
X16604761Y20800000D01*
X16566666Y20761905D01*
X16528571Y20685715D01*
X16528571Y20571429D01*
X16566666Y20495239D01*
X16604761Y20457143D01*
X16680952Y20419048D01*
X16985714Y20419048D01*
X16071428Y20495239D02*
X16147619Y20533334D01*
X16185714Y20571429D01*
X16223809Y20647620D01*
X16223809Y20685715D01*
X16185714Y20761905D01*
X16147619Y20800000D01*
X16071428Y20838096D01*
X15919047Y20838096D01*
X15842857Y20800000D01*
X15804761Y20761905D01*
X15766666Y20685715D01*
X15766666Y20647620D01*
X15804761Y20571429D01*
X15842857Y20533334D01*
X15919047Y20495239D01*
X16071428Y20495239D01*
X16147619Y20457143D01*
X16185714Y20419048D01*
X16223809Y20342858D01*
X16223809Y20190477D01*
X16185714Y20114286D01*
X16147619Y20076191D01*
X16071428Y20038096D01*
X15919047Y20038096D01*
X15842857Y20076191D01*
X15804761Y20114286D01*
X15766666Y20190477D01*
X15766666Y20342858D01*
X15804761Y20419048D01*
X15842857Y20457143D01*
X15919047Y20495239D01*
M02*
