M48
; DRILL file {KiCad 6.0.2+dfsg-1} date 2023年08月08日 18時30分07秒
; FORMAT={-:-/ absolute / inch / decimal}
; #@! TF.CreationDate,2023-08-08T18:30:07+09:00
; #@! TF.GenerationSoftware,Kicad,Pcbnew,6.0.2+dfsg-1
; #@! TF.FileFunction,Plated,1,2,PTH
FMAT,2
INCH
; #@! TA.AperFunction,Plated,PTH,ViaDrill
T1C0.0118
; #@! TA.AperFunction,Plated,PTH,ComponentDrill
T2C0.0295
; #@! TA.AperFunction,Plated,PTH,ComponentDrill
T3C0.0354
; #@! TA.AperFunction,Plated,PTH,ComponentDrill
T4C0.0374
; #@! TA.AperFunction,Plated,PTH,ComponentDrill
T5C0.0394
; #@! TA.AperFunction,Plated,PTH,ComponentDrill
T6C0.0591
%
G90
G05
T1
X3.9764Y-2.4016
X3.9764Y-2.5984
X3.9764Y-2.7953
X3.9764Y-2.9921
X3.9764Y-3.2067
X3.9764Y-3.407
X3.977Y-2.557
X3.977Y-2.657
X3.977Y-2.747
X3.977Y-2.857
X3.977Y-3.347
X3.977Y-3.527
X3.977Y-3.5585
X3.977Y-3.597
X3.9803Y-3.0512
X3.9961Y-2.1654
X3.9961Y-3.7402
X4.1654Y-2.9528
X4.1791Y-3.1555
X4.1791Y-3.2047
X4.1791Y-3.2559
X4.1811Y-2.9961
X4.1831Y-3.4469
X4.2362Y-3.503
X4.2402Y-3.6024
X4.252Y-2.0276
X4.252Y-3.878
X4.2913Y-3.7244
X4.3366Y-3.7087
X4.3626Y-2.8426
X4.3661Y-3.689
X4.3701Y-2.3386
X4.3701Y-2.4488
X4.3701Y-2.5512
X4.3701Y-2.9488
X4.3701Y-3.0512
X4.3701Y-3.8976
X4.378Y-2.252
X4.378Y-2.752
X4.3787Y-2.6528
X4.3862Y-3.4543
X4.387Y-3.357
X4.3878Y-3.6161
X4.3898Y-3.248
X4.3937Y-3.1535
X4.4098Y-3.5319
X4.4134Y-2.8622
X4.4645Y-2.8209
X4.4705Y-2.7776
X4.4843Y-2.3071
X4.4843Y-2.8898
X4.4882Y-2.0079
X4.5669Y-3.8976
X4.5768Y-3.0236
X4.6142Y-3.5866
X4.628Y-3.0118
X4.6378Y-2.5079
X4.6496Y-2.5787
X4.6654Y-3.0132
X4.685Y-2.0079
X4.6929Y-3.0591
X4.7008Y-2.7402
X4.7638Y-3.4744
X4.7638Y-3.8976
X4.7717Y-3.7717
X4.8819Y-2.0079
X4.9606Y-3.8976
X4.9921Y-2.5079
X5.0118Y-3.4744
X5.023Y-3.775
X5.0354Y-2.7441
X5.0748Y-2.9547
X5.0787Y-2.0079
X5.0827Y-2.1614
X5.1555Y-2.9252
X5.1575Y-3.8976
X5.1831Y-3.0132
X5.2382Y-3.0413
X5.2402Y-2.2323
X5.2441Y-2.9547
X5.2441Y-3.2874
X5.2756Y-2.0079
X5.3425Y-3.1929
X5.3504Y-2.8228
X5.3543Y-2.9449
X5.3543Y-3.8976
X5.374Y-3.3031
X5.3858Y-3.0472
X5.4087Y-3.7594
X5.425Y-3.664
X5.4567Y-3.0039
X5.5315Y-2.0079
X5.5748Y-3.3031
X5.5906Y-2.0276
X5.5906Y-3.878
X5.6575Y-2.4961
X5.7638Y-3.4291
X5.8465Y-2.185
X5.8465Y-3.7205
X5.8661Y-2.4803
X5.8661Y-2.6772
X5.8661Y-2.9134
X5.8661Y-3.1102
X5.8661Y-3.3071
X5.8661Y-3.5039
T2
X4.4646Y-2.1654
X4.5433Y-2.1654
X4.622Y-2.1654
X4.7008Y-2.1654
X5.1417Y-2.1654
X5.2205Y-2.1654
X5.2992Y-2.1654
X5.378Y-2.1654
X5.6043Y-3.5886
X5.6831Y-3.5886
T3
X5.7402Y-2.3268
X5.7402Y-2.4055
X5.7402Y-2.4843
T4
X5.6969Y-2.752
X5.6969Y-2.8504
X5.6969Y-2.9488
X5.6969Y-3.185
X5.6969Y-3.2835
X5.6969Y-3.3819
T5
X4.5118Y-3.6299
X4.5118Y-3.7283
T6
X5.7402Y-2.2441
X5.7402Y-2.5669
T0
M30
