G04 #@! TF.GenerationSoftware,KiCad,Pcbnew,5.1.5+dfsg1-2build2*
G04 #@! TF.CreationDate,2022-01-08T16:31:34+09:00*
G04 #@! TF.ProjectId,m5-pantilt,6d352d70-616e-4746-996c-742e6b696361,1*
G04 #@! TF.SameCoordinates,PX5f5e100PY5f5e100*
G04 #@! TF.FileFunction,Copper,L1,Top*
G04 #@! TF.FilePolarity,Positive*
%FSLAX46Y46*%
G04 Gerber Fmt 4.6, Leading zero omitted, Abs format (unit mm)*
G04 Created by KiCad (PCBNEW 5.1.5+dfsg1-2build2) date 2022-01-08 16:31:34*
%MOMM*%
%LPD*%
G04 APERTURE LIST*
%ADD10R,1.000000X1.500000*%
%ADD11R,0.800100X0.254000*%
%ADD12R,1.700000X1.700000*%
%ADD13O,1.700000X1.700000*%
%ADD14O,1.200000X1.750000*%
%ADD15C,0.152000*%
%ADD16R,3.500000X1.800000*%
%ADD17O,2.000000X1.700000*%
%ADD18O,3.500000X2.200000*%
%ADD19O,2.500000X1.500000*%
%ADD20R,2.500000X1.500000*%
%ADD21R,0.900000X0.800000*%
%ADD22C,0.600000*%
%ADD23C,0.200000*%
%ADD24C,1.000000*%
%ADD25C,1.200000*%
%ADD26C,1.600000*%
%ADD27C,0.254000*%
G04 APERTURE END LIST*
D10*
X22845000Y29210000D03*
X24145000Y29210000D03*
X24130000Y26670000D03*
X22830000Y26670000D03*
D11*
X20059750Y24021801D03*
X20059750Y23521800D03*
X20059750Y23021800D03*
X20059750Y22521799D03*
X16948250Y22521799D03*
X16948250Y23021800D03*
X16948250Y23521800D03*
X16948250Y24021801D03*
D12*
X37846000Y16764000D03*
D13*
X37846000Y19304000D03*
X40386000Y16764000D03*
X40386000Y19304000D03*
X42926000Y16764000D03*
X42926000Y19304000D03*
D14*
X27000000Y45000000D03*
X29000000Y45000000D03*
X31000000Y45000000D03*
G04 #@! TA.AperFunction,ComponentPad*
D15*
G36*
X33374505Y45873796D02*
G01*
X33398773Y45870196D01*
X33422572Y45864235D01*
X33445671Y45855970D01*
X33467850Y45845480D01*
X33488893Y45832868D01*
X33508599Y45818253D01*
X33526777Y45801777D01*
X33543253Y45783599D01*
X33557868Y45763893D01*
X33570480Y45742850D01*
X33580970Y45720671D01*
X33589235Y45697572D01*
X33595196Y45673773D01*
X33598796Y45649505D01*
X33600000Y45625001D01*
X33600000Y44374999D01*
X33598796Y44350495D01*
X33595196Y44326227D01*
X33589235Y44302428D01*
X33580970Y44279329D01*
X33570480Y44257150D01*
X33557868Y44236107D01*
X33543253Y44216401D01*
X33526777Y44198223D01*
X33508599Y44181747D01*
X33488893Y44167132D01*
X33467850Y44154520D01*
X33445671Y44144030D01*
X33422572Y44135765D01*
X33398773Y44129804D01*
X33374505Y44126204D01*
X33350001Y44125000D01*
X32649999Y44125000D01*
X32625495Y44126204D01*
X32601227Y44129804D01*
X32577428Y44135765D01*
X32554329Y44144030D01*
X32532150Y44154520D01*
X32511107Y44167132D01*
X32491401Y44181747D01*
X32473223Y44198223D01*
X32456747Y44216401D01*
X32442132Y44236107D01*
X32429520Y44257150D01*
X32419030Y44279329D01*
X32410765Y44302428D01*
X32404804Y44326227D01*
X32401204Y44350495D01*
X32400000Y44374999D01*
X32400000Y45625001D01*
X32401204Y45649505D01*
X32404804Y45673773D01*
X32410765Y45697572D01*
X32419030Y45720671D01*
X32429520Y45742850D01*
X32442132Y45763893D01*
X32456747Y45783599D01*
X32473223Y45801777D01*
X32491401Y45818253D01*
X32511107Y45832868D01*
X32532150Y45845480D01*
X32554329Y45855970D01*
X32577428Y45864235D01*
X32601227Y45870196D01*
X32625495Y45873796D01*
X32649999Y45875000D01*
X33350001Y45875000D01*
X33374505Y45873796D01*
G37*
G04 #@! TD.AperFunction*
G04 #@! TA.AperFunction,SMDPad,CuDef*
G36*
X24591779Y32223856D02*
G01*
X24614834Y32220437D01*
X24637443Y32214773D01*
X24659387Y32206921D01*
X24680457Y32196956D01*
X24700448Y32184974D01*
X24719168Y32171090D01*
X24736438Y32155438D01*
X24752090Y32138168D01*
X24765974Y32119448D01*
X24777956Y32099457D01*
X24787921Y32078387D01*
X24795773Y32056443D01*
X24801437Y32033834D01*
X24804856Y32010779D01*
X24806000Y31987500D01*
X24806000Y31512500D01*
X24804856Y31489221D01*
X24801437Y31466166D01*
X24795773Y31443557D01*
X24787921Y31421613D01*
X24777956Y31400543D01*
X24765974Y31380552D01*
X24752090Y31361832D01*
X24736438Y31344562D01*
X24719168Y31328910D01*
X24700448Y31315026D01*
X24680457Y31303044D01*
X24659387Y31293079D01*
X24637443Y31285227D01*
X24614834Y31279563D01*
X24591779Y31276144D01*
X24568500Y31275000D01*
X23993500Y31275000D01*
X23970221Y31276144D01*
X23947166Y31279563D01*
X23924557Y31285227D01*
X23902613Y31293079D01*
X23881543Y31303044D01*
X23861552Y31315026D01*
X23842832Y31328910D01*
X23825562Y31344562D01*
X23809910Y31361832D01*
X23796026Y31380552D01*
X23784044Y31400543D01*
X23774079Y31421613D01*
X23766227Y31443557D01*
X23760563Y31466166D01*
X23757144Y31489221D01*
X23756000Y31512500D01*
X23756000Y31987500D01*
X23757144Y32010779D01*
X23760563Y32033834D01*
X23766227Y32056443D01*
X23774079Y32078387D01*
X23784044Y32099457D01*
X23796026Y32119448D01*
X23809910Y32138168D01*
X23825562Y32155438D01*
X23842832Y32171090D01*
X23861552Y32184974D01*
X23881543Y32196956D01*
X23902613Y32206921D01*
X23924557Y32214773D01*
X23947166Y32220437D01*
X23970221Y32223856D01*
X23993500Y32225000D01*
X24568500Y32225000D01*
X24591779Y32223856D01*
G37*
G04 #@! TD.AperFunction*
G04 #@! TA.AperFunction,SMDPad,CuDef*
G36*
X22841779Y32223856D02*
G01*
X22864834Y32220437D01*
X22887443Y32214773D01*
X22909387Y32206921D01*
X22930457Y32196956D01*
X22950448Y32184974D01*
X22969168Y32171090D01*
X22986438Y32155438D01*
X23002090Y32138168D01*
X23015974Y32119448D01*
X23027956Y32099457D01*
X23037921Y32078387D01*
X23045773Y32056443D01*
X23051437Y32033834D01*
X23054856Y32010779D01*
X23056000Y31987500D01*
X23056000Y31512500D01*
X23054856Y31489221D01*
X23051437Y31466166D01*
X23045773Y31443557D01*
X23037921Y31421613D01*
X23027956Y31400543D01*
X23015974Y31380552D01*
X23002090Y31361832D01*
X22986438Y31344562D01*
X22969168Y31328910D01*
X22950448Y31315026D01*
X22930457Y31303044D01*
X22909387Y31293079D01*
X22887443Y31285227D01*
X22864834Y31279563D01*
X22841779Y31276144D01*
X22818500Y31275000D01*
X22243500Y31275000D01*
X22220221Y31276144D01*
X22197166Y31279563D01*
X22174557Y31285227D01*
X22152613Y31293079D01*
X22131543Y31303044D01*
X22111552Y31315026D01*
X22092832Y31328910D01*
X22075562Y31344562D01*
X22059910Y31361832D01*
X22046026Y31380552D01*
X22034044Y31400543D01*
X22024079Y31421613D01*
X22016227Y31443557D01*
X22010563Y31466166D01*
X22007144Y31489221D01*
X22006000Y31512500D01*
X22006000Y31987500D01*
X22007144Y32010779D01*
X22010563Y32033834D01*
X22016227Y32056443D01*
X22024079Y32078387D01*
X22034044Y32099457D01*
X22046026Y32119448D01*
X22059910Y32138168D01*
X22075562Y32155438D01*
X22092832Y32171090D01*
X22111552Y32184974D01*
X22131543Y32196956D01*
X22152613Y32206921D01*
X22174557Y32214773D01*
X22197166Y32220437D01*
X22220221Y32223856D01*
X22243500Y32225000D01*
X22818500Y32225000D01*
X22841779Y32223856D01*
G37*
G04 #@! TD.AperFunction*
G04 #@! TA.AperFunction,SMDPad,CuDef*
G36*
X24591779Y22978256D02*
G01*
X24614834Y22974837D01*
X24637443Y22969173D01*
X24659387Y22961321D01*
X24680457Y22951356D01*
X24700448Y22939374D01*
X24719168Y22925490D01*
X24736438Y22909838D01*
X24752090Y22892568D01*
X24765974Y22873848D01*
X24777956Y22853857D01*
X24787921Y22832787D01*
X24795773Y22810843D01*
X24801437Y22788234D01*
X24804856Y22765179D01*
X24806000Y22741900D01*
X24806000Y22266900D01*
X24804856Y22243621D01*
X24801437Y22220566D01*
X24795773Y22197957D01*
X24787921Y22176013D01*
X24777956Y22154943D01*
X24765974Y22134952D01*
X24752090Y22116232D01*
X24736438Y22098962D01*
X24719168Y22083310D01*
X24700448Y22069426D01*
X24680457Y22057444D01*
X24659387Y22047479D01*
X24637443Y22039627D01*
X24614834Y22033963D01*
X24591779Y22030544D01*
X24568500Y22029400D01*
X23993500Y22029400D01*
X23970221Y22030544D01*
X23947166Y22033963D01*
X23924557Y22039627D01*
X23902613Y22047479D01*
X23881543Y22057444D01*
X23861552Y22069426D01*
X23842832Y22083310D01*
X23825562Y22098962D01*
X23809910Y22116232D01*
X23796026Y22134952D01*
X23784044Y22154943D01*
X23774079Y22176013D01*
X23766227Y22197957D01*
X23760563Y22220566D01*
X23757144Y22243621D01*
X23756000Y22266900D01*
X23756000Y22741900D01*
X23757144Y22765179D01*
X23760563Y22788234D01*
X23766227Y22810843D01*
X23774079Y22832787D01*
X23784044Y22853857D01*
X23796026Y22873848D01*
X23809910Y22892568D01*
X23825562Y22909838D01*
X23842832Y22925490D01*
X23861552Y22939374D01*
X23881543Y22951356D01*
X23902613Y22961321D01*
X23924557Y22969173D01*
X23947166Y22974837D01*
X23970221Y22978256D01*
X23993500Y22979400D01*
X24568500Y22979400D01*
X24591779Y22978256D01*
G37*
G04 #@! TD.AperFunction*
G04 #@! TA.AperFunction,SMDPad,CuDef*
G36*
X22841779Y22978256D02*
G01*
X22864834Y22974837D01*
X22887443Y22969173D01*
X22909387Y22961321D01*
X22930457Y22951356D01*
X22950448Y22939374D01*
X22969168Y22925490D01*
X22986438Y22909838D01*
X23002090Y22892568D01*
X23015974Y22873848D01*
X23027956Y22853857D01*
X23037921Y22832787D01*
X23045773Y22810843D01*
X23051437Y22788234D01*
X23054856Y22765179D01*
X23056000Y22741900D01*
X23056000Y22266900D01*
X23054856Y22243621D01*
X23051437Y22220566D01*
X23045773Y22197957D01*
X23037921Y22176013D01*
X23027956Y22154943D01*
X23015974Y22134952D01*
X23002090Y22116232D01*
X22986438Y22098962D01*
X22969168Y22083310D01*
X22950448Y22069426D01*
X22930457Y22057444D01*
X22909387Y22047479D01*
X22887443Y22039627D01*
X22864834Y22033963D01*
X22841779Y22030544D01*
X22818500Y22029400D01*
X22243500Y22029400D01*
X22220221Y22030544D01*
X22197166Y22033963D01*
X22174557Y22039627D01*
X22152613Y22047479D01*
X22131543Y22057444D01*
X22111552Y22069426D01*
X22092832Y22083310D01*
X22075562Y22098962D01*
X22059910Y22116232D01*
X22046026Y22134952D01*
X22034044Y22154943D01*
X22024079Y22176013D01*
X22016227Y22197957D01*
X22010563Y22220566D01*
X22007144Y22243621D01*
X22006000Y22266900D01*
X22006000Y22741900D01*
X22007144Y22765179D01*
X22010563Y22788234D01*
X22016227Y22810843D01*
X22024079Y22832787D01*
X22034044Y22853857D01*
X22046026Y22873848D01*
X22059910Y22892568D01*
X22075562Y22909838D01*
X22092832Y22925490D01*
X22111552Y22939374D01*
X22131543Y22951356D01*
X22152613Y22961321D01*
X22174557Y22969173D01*
X22197166Y22974837D01*
X22220221Y22978256D01*
X22243500Y22979400D01*
X22818500Y22979400D01*
X22841779Y22978256D01*
G37*
G04 #@! TD.AperFunction*
D12*
X37846000Y24384000D03*
D13*
X37846000Y26924000D03*
X40386000Y24384000D03*
X40386000Y26924000D03*
X42926000Y24384000D03*
X42926000Y26924000D03*
G04 #@! TA.AperFunction,ComponentPad*
D15*
G36*
X40434505Y11473796D02*
G01*
X40458773Y11470196D01*
X40482572Y11464235D01*
X40505671Y11455970D01*
X40527850Y11445480D01*
X40548893Y11432868D01*
X40568599Y11418253D01*
X40586777Y11401777D01*
X40603253Y11383599D01*
X40617868Y11363893D01*
X40630480Y11342850D01*
X40640970Y11320671D01*
X40649235Y11297572D01*
X40655196Y11273773D01*
X40658796Y11249505D01*
X40660000Y11225001D01*
X40660000Y9974999D01*
X40658796Y9950495D01*
X40655196Y9926227D01*
X40649235Y9902428D01*
X40640970Y9879329D01*
X40630480Y9857150D01*
X40617868Y9836107D01*
X40603253Y9816401D01*
X40586777Y9798223D01*
X40568599Y9781747D01*
X40548893Y9767132D01*
X40527850Y9754520D01*
X40505671Y9744030D01*
X40482572Y9735765D01*
X40458773Y9729804D01*
X40434505Y9726204D01*
X40410001Y9725000D01*
X39709999Y9725000D01*
X39685495Y9726204D01*
X39661227Y9729804D01*
X39637428Y9735765D01*
X39614329Y9744030D01*
X39592150Y9754520D01*
X39571107Y9767132D01*
X39551401Y9781747D01*
X39533223Y9798223D01*
X39516747Y9816401D01*
X39502132Y9836107D01*
X39489520Y9857150D01*
X39479030Y9879329D01*
X39470765Y9902428D01*
X39464804Y9926227D01*
X39461204Y9950495D01*
X39460000Y9974999D01*
X39460000Y11225001D01*
X39461204Y11249505D01*
X39464804Y11273773D01*
X39470765Y11297572D01*
X39479030Y11320671D01*
X39489520Y11342850D01*
X39502132Y11363893D01*
X39516747Y11383599D01*
X39533223Y11401777D01*
X39551401Y11418253D01*
X39571107Y11432868D01*
X39592150Y11445480D01*
X39614329Y11455970D01*
X39637428Y11464235D01*
X39661227Y11470196D01*
X39685495Y11473796D01*
X39709999Y11475000D01*
X40410001Y11475000D01*
X40434505Y11473796D01*
G37*
G04 #@! TD.AperFunction*
D14*
X42060000Y10600000D03*
G04 #@! TA.AperFunction,ComponentPad*
D15*
G36*
X20374505Y45873796D02*
G01*
X20398773Y45870196D01*
X20422572Y45864235D01*
X20445671Y45855970D01*
X20467850Y45845480D01*
X20488893Y45832868D01*
X20508599Y45818253D01*
X20526777Y45801777D01*
X20543253Y45783599D01*
X20557868Y45763893D01*
X20570480Y45742850D01*
X20580970Y45720671D01*
X20589235Y45697572D01*
X20595196Y45673773D01*
X20598796Y45649505D01*
X20600000Y45625001D01*
X20600000Y44374999D01*
X20598796Y44350495D01*
X20595196Y44326227D01*
X20589235Y44302428D01*
X20580970Y44279329D01*
X20570480Y44257150D01*
X20557868Y44236107D01*
X20543253Y44216401D01*
X20526777Y44198223D01*
X20508599Y44181747D01*
X20488893Y44167132D01*
X20467850Y44154520D01*
X20445671Y44144030D01*
X20422572Y44135765D01*
X20398773Y44129804D01*
X20374505Y44126204D01*
X20350001Y44125000D01*
X19649999Y44125000D01*
X19625495Y44126204D01*
X19601227Y44129804D01*
X19577428Y44135765D01*
X19554329Y44144030D01*
X19532150Y44154520D01*
X19511107Y44167132D01*
X19491401Y44181747D01*
X19473223Y44198223D01*
X19456747Y44216401D01*
X19442132Y44236107D01*
X19429520Y44257150D01*
X19419030Y44279329D01*
X19410765Y44302428D01*
X19404804Y44326227D01*
X19401204Y44350495D01*
X19400000Y44374999D01*
X19400000Y45625001D01*
X19401204Y45649505D01*
X19404804Y45673773D01*
X19410765Y45697572D01*
X19419030Y45720671D01*
X19429520Y45742850D01*
X19442132Y45763893D01*
X19456747Y45783599D01*
X19473223Y45801777D01*
X19491401Y45818253D01*
X19511107Y45832868D01*
X19532150Y45845480D01*
X19554329Y45855970D01*
X19577428Y45864235D01*
X19601227Y45870196D01*
X19625495Y45873796D01*
X19649999Y45875000D01*
X20350001Y45875000D01*
X20374505Y45873796D01*
G37*
G04 #@! TD.AperFunction*
D14*
X18000000Y45000000D03*
X16000000Y45000000D03*
X14000000Y45000000D03*
G04 #@! TA.AperFunction,SMDPad,CuDef*
D15*
G36*
X24579179Y21352656D02*
G01*
X24602234Y21349237D01*
X24624843Y21343573D01*
X24646787Y21335721D01*
X24667857Y21325756D01*
X24687848Y21313774D01*
X24706568Y21299890D01*
X24723838Y21284238D01*
X24739490Y21266968D01*
X24753374Y21248248D01*
X24765356Y21228257D01*
X24775321Y21207187D01*
X24783173Y21185243D01*
X24788837Y21162634D01*
X24792256Y21139579D01*
X24793400Y21116300D01*
X24793400Y20641300D01*
X24792256Y20618021D01*
X24788837Y20594966D01*
X24783173Y20572357D01*
X24775321Y20550413D01*
X24765356Y20529343D01*
X24753374Y20509352D01*
X24739490Y20490632D01*
X24723838Y20473362D01*
X24706568Y20457710D01*
X24687848Y20443826D01*
X24667857Y20431844D01*
X24646787Y20421879D01*
X24624843Y20414027D01*
X24602234Y20408363D01*
X24579179Y20404944D01*
X24555900Y20403800D01*
X23980900Y20403800D01*
X23957621Y20404944D01*
X23934566Y20408363D01*
X23911957Y20414027D01*
X23890013Y20421879D01*
X23868943Y20431844D01*
X23848952Y20443826D01*
X23830232Y20457710D01*
X23812962Y20473362D01*
X23797310Y20490632D01*
X23783426Y20509352D01*
X23771444Y20529343D01*
X23761479Y20550413D01*
X23753627Y20572357D01*
X23747963Y20594966D01*
X23744544Y20618021D01*
X23743400Y20641300D01*
X23743400Y21116300D01*
X23744544Y21139579D01*
X23747963Y21162634D01*
X23753627Y21185243D01*
X23761479Y21207187D01*
X23771444Y21228257D01*
X23783426Y21248248D01*
X23797310Y21266968D01*
X23812962Y21284238D01*
X23830232Y21299890D01*
X23848952Y21313774D01*
X23868943Y21325756D01*
X23890013Y21335721D01*
X23911957Y21343573D01*
X23934566Y21349237D01*
X23957621Y21352656D01*
X23980900Y21353800D01*
X24555900Y21353800D01*
X24579179Y21352656D01*
G37*
G04 #@! TD.AperFunction*
G04 #@! TA.AperFunction,SMDPad,CuDef*
G36*
X22829179Y21352656D02*
G01*
X22852234Y21349237D01*
X22874843Y21343573D01*
X22896787Y21335721D01*
X22917857Y21325756D01*
X22937848Y21313774D01*
X22956568Y21299890D01*
X22973838Y21284238D01*
X22989490Y21266968D01*
X23003374Y21248248D01*
X23015356Y21228257D01*
X23025321Y21207187D01*
X23033173Y21185243D01*
X23038837Y21162634D01*
X23042256Y21139579D01*
X23043400Y21116300D01*
X23043400Y20641300D01*
X23042256Y20618021D01*
X23038837Y20594966D01*
X23033173Y20572357D01*
X23025321Y20550413D01*
X23015356Y20529343D01*
X23003374Y20509352D01*
X22989490Y20490632D01*
X22973838Y20473362D01*
X22956568Y20457710D01*
X22937848Y20443826D01*
X22917857Y20431844D01*
X22896787Y20421879D01*
X22874843Y20414027D01*
X22852234Y20408363D01*
X22829179Y20404944D01*
X22805900Y20403800D01*
X22230900Y20403800D01*
X22207621Y20404944D01*
X22184566Y20408363D01*
X22161957Y20414027D01*
X22140013Y20421879D01*
X22118943Y20431844D01*
X22098952Y20443826D01*
X22080232Y20457710D01*
X22062962Y20473362D01*
X22047310Y20490632D01*
X22033426Y20509352D01*
X22021444Y20529343D01*
X22011479Y20550413D01*
X22003627Y20572357D01*
X21997963Y20594966D01*
X21994544Y20618021D01*
X21993400Y20641300D01*
X21993400Y21116300D01*
X21994544Y21139579D01*
X21997963Y21162634D01*
X22003627Y21185243D01*
X22011479Y21207187D01*
X22021444Y21228257D01*
X22033426Y21248248D01*
X22047310Y21266968D01*
X22062962Y21284238D01*
X22080232Y21299890D01*
X22098952Y21313774D01*
X22118943Y21325756D01*
X22140013Y21335721D01*
X22161957Y21343573D01*
X22184566Y21349237D01*
X22207621Y21352656D01*
X22230900Y21353800D01*
X22805900Y21353800D01*
X22829179Y21352656D01*
G37*
G04 #@! TD.AperFunction*
G04 #@! TA.AperFunction,SMDPad,CuDef*
G36*
X22829179Y19828656D02*
G01*
X22852234Y19825237D01*
X22874843Y19819573D01*
X22896787Y19811721D01*
X22917857Y19801756D01*
X22937848Y19789774D01*
X22956568Y19775890D01*
X22973838Y19760238D01*
X22989490Y19742968D01*
X23003374Y19724248D01*
X23015356Y19704257D01*
X23025321Y19683187D01*
X23033173Y19661243D01*
X23038837Y19638634D01*
X23042256Y19615579D01*
X23043400Y19592300D01*
X23043400Y19117300D01*
X23042256Y19094021D01*
X23038837Y19070966D01*
X23033173Y19048357D01*
X23025321Y19026413D01*
X23015356Y19005343D01*
X23003374Y18985352D01*
X22989490Y18966632D01*
X22973838Y18949362D01*
X22956568Y18933710D01*
X22937848Y18919826D01*
X22917857Y18907844D01*
X22896787Y18897879D01*
X22874843Y18890027D01*
X22852234Y18884363D01*
X22829179Y18880944D01*
X22805900Y18879800D01*
X22230900Y18879800D01*
X22207621Y18880944D01*
X22184566Y18884363D01*
X22161957Y18890027D01*
X22140013Y18897879D01*
X22118943Y18907844D01*
X22098952Y18919826D01*
X22080232Y18933710D01*
X22062962Y18949362D01*
X22047310Y18966632D01*
X22033426Y18985352D01*
X22021444Y19005343D01*
X22011479Y19026413D01*
X22003627Y19048357D01*
X21997963Y19070966D01*
X21994544Y19094021D01*
X21993400Y19117300D01*
X21993400Y19592300D01*
X21994544Y19615579D01*
X21997963Y19638634D01*
X22003627Y19661243D01*
X22011479Y19683187D01*
X22021444Y19704257D01*
X22033426Y19724248D01*
X22047310Y19742968D01*
X22062962Y19760238D01*
X22080232Y19775890D01*
X22098952Y19789774D01*
X22118943Y19801756D01*
X22140013Y19811721D01*
X22161957Y19819573D01*
X22184566Y19825237D01*
X22207621Y19828656D01*
X22230900Y19829800D01*
X22805900Y19829800D01*
X22829179Y19828656D01*
G37*
G04 #@! TD.AperFunction*
G04 #@! TA.AperFunction,SMDPad,CuDef*
G36*
X24579179Y19828656D02*
G01*
X24602234Y19825237D01*
X24624843Y19819573D01*
X24646787Y19811721D01*
X24667857Y19801756D01*
X24687848Y19789774D01*
X24706568Y19775890D01*
X24723838Y19760238D01*
X24739490Y19742968D01*
X24753374Y19724248D01*
X24765356Y19704257D01*
X24775321Y19683187D01*
X24783173Y19661243D01*
X24788837Y19638634D01*
X24792256Y19615579D01*
X24793400Y19592300D01*
X24793400Y19117300D01*
X24792256Y19094021D01*
X24788837Y19070966D01*
X24783173Y19048357D01*
X24775321Y19026413D01*
X24765356Y19005343D01*
X24753374Y18985352D01*
X24739490Y18966632D01*
X24723838Y18949362D01*
X24706568Y18933710D01*
X24687848Y18919826D01*
X24667857Y18907844D01*
X24646787Y18897879D01*
X24624843Y18890027D01*
X24602234Y18884363D01*
X24579179Y18880944D01*
X24555900Y18879800D01*
X23980900Y18879800D01*
X23957621Y18880944D01*
X23934566Y18884363D01*
X23911957Y18890027D01*
X23890013Y18897879D01*
X23868943Y18907844D01*
X23848952Y18919826D01*
X23830232Y18933710D01*
X23812962Y18949362D01*
X23797310Y18966632D01*
X23783426Y18985352D01*
X23771444Y19005343D01*
X23761479Y19026413D01*
X23753627Y19048357D01*
X23747963Y19070966D01*
X23744544Y19094021D01*
X23743400Y19117300D01*
X23743400Y19592300D01*
X23744544Y19615579D01*
X23747963Y19638634D01*
X23753627Y19661243D01*
X23761479Y19683187D01*
X23771444Y19704257D01*
X23783426Y19724248D01*
X23797310Y19742968D01*
X23812962Y19760238D01*
X23830232Y19775890D01*
X23848952Y19789774D01*
X23868943Y19801756D01*
X23890013Y19811721D01*
X23911957Y19819573D01*
X23934566Y19825237D01*
X23957621Y19828656D01*
X23980900Y19829800D01*
X24555900Y19829800D01*
X24579179Y19828656D01*
G37*
G04 #@! TD.AperFunction*
D16*
X22900000Y8600000D03*
X27900000Y8600000D03*
G04 #@! TA.AperFunction,ComponentPad*
D15*
G36*
X14474504Y8648796D02*
G01*
X14498773Y8645196D01*
X14522571Y8639235D01*
X14545671Y8630970D01*
X14567849Y8620480D01*
X14588893Y8607867D01*
X14608598Y8593253D01*
X14626777Y8576777D01*
X14643253Y8558598D01*
X14657867Y8538893D01*
X14670480Y8517849D01*
X14680970Y8495671D01*
X14689235Y8472571D01*
X14695196Y8448773D01*
X14698796Y8424504D01*
X14700000Y8400000D01*
X14700000Y7200000D01*
X14698796Y7175496D01*
X14695196Y7151227D01*
X14689235Y7127429D01*
X14680970Y7104329D01*
X14670480Y7082151D01*
X14657867Y7061107D01*
X14643253Y7041402D01*
X14626777Y7023223D01*
X14608598Y7006747D01*
X14588893Y6992133D01*
X14567849Y6979520D01*
X14545671Y6969030D01*
X14522571Y6960765D01*
X14498773Y6954804D01*
X14474504Y6951204D01*
X14450000Y6950000D01*
X12950000Y6950000D01*
X12925496Y6951204D01*
X12901227Y6954804D01*
X12877429Y6960765D01*
X12854329Y6969030D01*
X12832151Y6979520D01*
X12811107Y6992133D01*
X12791402Y7006747D01*
X12773223Y7023223D01*
X12756747Y7041402D01*
X12742133Y7061107D01*
X12729520Y7082151D01*
X12719030Y7104329D01*
X12710765Y7127429D01*
X12704804Y7151227D01*
X12701204Y7175496D01*
X12700000Y7200000D01*
X12700000Y8400000D01*
X12701204Y8424504D01*
X12704804Y8448773D01*
X12710765Y8472571D01*
X12719030Y8495671D01*
X12729520Y8517849D01*
X12742133Y8538893D01*
X12756747Y8558598D01*
X12773223Y8576777D01*
X12791402Y8593253D01*
X12811107Y8607867D01*
X12832151Y8620480D01*
X12854329Y8630970D01*
X12877429Y8639235D01*
X12901227Y8645196D01*
X12925496Y8648796D01*
X12950000Y8650000D01*
X14450000Y8650000D01*
X14474504Y8648796D01*
G37*
G04 #@! TD.AperFunction*
D17*
X13700000Y5300000D03*
G04 #@! TA.AperFunction,SMDPad,CuDef*
D15*
G36*
X35193504Y14754296D02*
G01*
X35217773Y14750696D01*
X35241571Y14744735D01*
X35264671Y14736470D01*
X35286849Y14725980D01*
X35307893Y14713367D01*
X35327598Y14698753D01*
X35345777Y14682277D01*
X35362253Y14664098D01*
X35376867Y14644393D01*
X35389480Y14623349D01*
X35399970Y14601171D01*
X35408235Y14578071D01*
X35414196Y14554273D01*
X35417796Y14530004D01*
X35419000Y14505500D01*
X35419000Y13580500D01*
X35417796Y13555996D01*
X35414196Y13531727D01*
X35408235Y13507929D01*
X35399970Y13484829D01*
X35389480Y13462651D01*
X35376867Y13441607D01*
X35362253Y13421902D01*
X35345777Y13403723D01*
X35327598Y13387247D01*
X35307893Y13372633D01*
X35286849Y13360020D01*
X35264671Y13349530D01*
X35241571Y13341265D01*
X35217773Y13335304D01*
X35193504Y13331704D01*
X35169000Y13330500D01*
X33919000Y13330500D01*
X33894496Y13331704D01*
X33870227Y13335304D01*
X33846429Y13341265D01*
X33823329Y13349530D01*
X33801151Y13360020D01*
X33780107Y13372633D01*
X33760402Y13387247D01*
X33742223Y13403723D01*
X33725747Y13421902D01*
X33711133Y13441607D01*
X33698520Y13462651D01*
X33688030Y13484829D01*
X33679765Y13507929D01*
X33673804Y13531727D01*
X33670204Y13555996D01*
X33669000Y13580500D01*
X33669000Y14505500D01*
X33670204Y14530004D01*
X33673804Y14554273D01*
X33679765Y14578071D01*
X33688030Y14601171D01*
X33698520Y14623349D01*
X33711133Y14644393D01*
X33725747Y14664098D01*
X33742223Y14682277D01*
X33760402Y14698753D01*
X33780107Y14713367D01*
X33801151Y14725980D01*
X33823329Y14736470D01*
X33846429Y14744735D01*
X33870227Y14750696D01*
X33894496Y14754296D01*
X33919000Y14755500D01*
X35169000Y14755500D01*
X35193504Y14754296D01*
G37*
G04 #@! TD.AperFunction*
G04 #@! TA.AperFunction,SMDPad,CuDef*
G36*
X35193504Y17729296D02*
G01*
X35217773Y17725696D01*
X35241571Y17719735D01*
X35264671Y17711470D01*
X35286849Y17700980D01*
X35307893Y17688367D01*
X35327598Y17673753D01*
X35345777Y17657277D01*
X35362253Y17639098D01*
X35376867Y17619393D01*
X35389480Y17598349D01*
X35399970Y17576171D01*
X35408235Y17553071D01*
X35414196Y17529273D01*
X35417796Y17505004D01*
X35419000Y17480500D01*
X35419000Y16555500D01*
X35417796Y16530996D01*
X35414196Y16506727D01*
X35408235Y16482929D01*
X35399970Y16459829D01*
X35389480Y16437651D01*
X35376867Y16416607D01*
X35362253Y16396902D01*
X35345777Y16378723D01*
X35327598Y16362247D01*
X35307893Y16347633D01*
X35286849Y16335020D01*
X35264671Y16324530D01*
X35241571Y16316265D01*
X35217773Y16310304D01*
X35193504Y16306704D01*
X35169000Y16305500D01*
X33919000Y16305500D01*
X33894496Y16306704D01*
X33870227Y16310304D01*
X33846429Y16316265D01*
X33823329Y16324530D01*
X33801151Y16335020D01*
X33780107Y16347633D01*
X33760402Y16362247D01*
X33742223Y16378723D01*
X33725747Y16396902D01*
X33711133Y16416607D01*
X33698520Y16437651D01*
X33688030Y16459829D01*
X33679765Y16482929D01*
X33673804Y16506727D01*
X33670204Y16530996D01*
X33669000Y16555500D01*
X33669000Y17480500D01*
X33670204Y17505004D01*
X33673804Y17529273D01*
X33679765Y17553071D01*
X33688030Y17576171D01*
X33698520Y17598349D01*
X33711133Y17619393D01*
X33725747Y17639098D01*
X33742223Y17657277D01*
X33760402Y17673753D01*
X33780107Y17688367D01*
X33801151Y17700980D01*
X33823329Y17711470D01*
X33846429Y17719735D01*
X33870227Y17725696D01*
X33894496Y17729296D01*
X33919000Y17730500D01*
X35169000Y17730500D01*
X35193504Y17729296D01*
G37*
G04 #@! TD.AperFunction*
G04 #@! TA.AperFunction,SMDPad,CuDef*
G36*
X35193504Y26328796D02*
G01*
X35217773Y26325196D01*
X35241571Y26319235D01*
X35264671Y26310970D01*
X35286849Y26300480D01*
X35307893Y26287867D01*
X35327598Y26273253D01*
X35345777Y26256777D01*
X35362253Y26238598D01*
X35376867Y26218893D01*
X35389480Y26197849D01*
X35399970Y26175671D01*
X35408235Y26152571D01*
X35414196Y26128773D01*
X35417796Y26104504D01*
X35419000Y26080000D01*
X35419000Y25155000D01*
X35417796Y25130496D01*
X35414196Y25106227D01*
X35408235Y25082429D01*
X35399970Y25059329D01*
X35389480Y25037151D01*
X35376867Y25016107D01*
X35362253Y24996402D01*
X35345777Y24978223D01*
X35327598Y24961747D01*
X35307893Y24947133D01*
X35286849Y24934520D01*
X35264671Y24924030D01*
X35241571Y24915765D01*
X35217773Y24909804D01*
X35193504Y24906204D01*
X35169000Y24905000D01*
X33919000Y24905000D01*
X33894496Y24906204D01*
X33870227Y24909804D01*
X33846429Y24915765D01*
X33823329Y24924030D01*
X33801151Y24934520D01*
X33780107Y24947133D01*
X33760402Y24961747D01*
X33742223Y24978223D01*
X33725747Y24996402D01*
X33711133Y25016107D01*
X33698520Y25037151D01*
X33688030Y25059329D01*
X33679765Y25082429D01*
X33673804Y25106227D01*
X33670204Y25130496D01*
X33669000Y25155000D01*
X33669000Y26080000D01*
X33670204Y26104504D01*
X33673804Y26128773D01*
X33679765Y26152571D01*
X33688030Y26175671D01*
X33698520Y26197849D01*
X33711133Y26218893D01*
X33725747Y26238598D01*
X33742223Y26256777D01*
X33760402Y26273253D01*
X33780107Y26287867D01*
X33801151Y26300480D01*
X33823329Y26310970D01*
X33846429Y26319235D01*
X33870227Y26325196D01*
X33894496Y26328796D01*
X33919000Y26330000D01*
X35169000Y26330000D01*
X35193504Y26328796D01*
G37*
G04 #@! TD.AperFunction*
G04 #@! TA.AperFunction,SMDPad,CuDef*
G36*
X35193504Y23353796D02*
G01*
X35217773Y23350196D01*
X35241571Y23344235D01*
X35264671Y23335970D01*
X35286849Y23325480D01*
X35307893Y23312867D01*
X35327598Y23298253D01*
X35345777Y23281777D01*
X35362253Y23263598D01*
X35376867Y23243893D01*
X35389480Y23222849D01*
X35399970Y23200671D01*
X35408235Y23177571D01*
X35414196Y23153773D01*
X35417796Y23129504D01*
X35419000Y23105000D01*
X35419000Y22180000D01*
X35417796Y22155496D01*
X35414196Y22131227D01*
X35408235Y22107429D01*
X35399970Y22084329D01*
X35389480Y22062151D01*
X35376867Y22041107D01*
X35362253Y22021402D01*
X35345777Y22003223D01*
X35327598Y21986747D01*
X35307893Y21972133D01*
X35286849Y21959520D01*
X35264671Y21949030D01*
X35241571Y21940765D01*
X35217773Y21934804D01*
X35193504Y21931204D01*
X35169000Y21930000D01*
X33919000Y21930000D01*
X33894496Y21931204D01*
X33870227Y21934804D01*
X33846429Y21940765D01*
X33823329Y21949030D01*
X33801151Y21959520D01*
X33780107Y21972133D01*
X33760402Y21986747D01*
X33742223Y22003223D01*
X33725747Y22021402D01*
X33711133Y22041107D01*
X33698520Y22062151D01*
X33688030Y22084329D01*
X33679765Y22107429D01*
X33673804Y22131227D01*
X33670204Y22155496D01*
X33669000Y22180000D01*
X33669000Y23105000D01*
X33670204Y23129504D01*
X33673804Y23153773D01*
X33679765Y23177571D01*
X33688030Y23200671D01*
X33698520Y23222849D01*
X33711133Y23243893D01*
X33725747Y23263598D01*
X33742223Y23281777D01*
X33760402Y23298253D01*
X33780107Y23312867D01*
X33801151Y23325480D01*
X33823329Y23335970D01*
X33846429Y23344235D01*
X33870227Y23350196D01*
X33894496Y23353796D01*
X33919000Y23355000D01*
X35169000Y23355000D01*
X35193504Y23353796D01*
G37*
G04 #@! TD.AperFunction*
G04 #@! TA.AperFunction,SMDPad,CuDef*
G36*
X32907504Y26328796D02*
G01*
X32931773Y26325196D01*
X32955571Y26319235D01*
X32978671Y26310970D01*
X33000849Y26300480D01*
X33021893Y26287867D01*
X33041598Y26273253D01*
X33059777Y26256777D01*
X33076253Y26238598D01*
X33090867Y26218893D01*
X33103480Y26197849D01*
X33113970Y26175671D01*
X33122235Y26152571D01*
X33128196Y26128773D01*
X33131796Y26104504D01*
X33133000Y26080000D01*
X33133000Y25155000D01*
X33131796Y25130496D01*
X33128196Y25106227D01*
X33122235Y25082429D01*
X33113970Y25059329D01*
X33103480Y25037151D01*
X33090867Y25016107D01*
X33076253Y24996402D01*
X33059777Y24978223D01*
X33041598Y24961747D01*
X33021893Y24947133D01*
X33000849Y24934520D01*
X32978671Y24924030D01*
X32955571Y24915765D01*
X32931773Y24909804D01*
X32907504Y24906204D01*
X32883000Y24905000D01*
X31633000Y24905000D01*
X31608496Y24906204D01*
X31584227Y24909804D01*
X31560429Y24915765D01*
X31537329Y24924030D01*
X31515151Y24934520D01*
X31494107Y24947133D01*
X31474402Y24961747D01*
X31456223Y24978223D01*
X31439747Y24996402D01*
X31425133Y25016107D01*
X31412520Y25037151D01*
X31402030Y25059329D01*
X31393765Y25082429D01*
X31387804Y25106227D01*
X31384204Y25130496D01*
X31383000Y25155000D01*
X31383000Y26080000D01*
X31384204Y26104504D01*
X31387804Y26128773D01*
X31393765Y26152571D01*
X31402030Y26175671D01*
X31412520Y26197849D01*
X31425133Y26218893D01*
X31439747Y26238598D01*
X31456223Y26256777D01*
X31474402Y26273253D01*
X31494107Y26287867D01*
X31515151Y26300480D01*
X31537329Y26310970D01*
X31560429Y26319235D01*
X31584227Y26325196D01*
X31608496Y26328796D01*
X31633000Y26330000D01*
X32883000Y26330000D01*
X32907504Y26328796D01*
G37*
G04 #@! TD.AperFunction*
G04 #@! TA.AperFunction,SMDPad,CuDef*
G36*
X32907504Y23353796D02*
G01*
X32931773Y23350196D01*
X32955571Y23344235D01*
X32978671Y23335970D01*
X33000849Y23325480D01*
X33021893Y23312867D01*
X33041598Y23298253D01*
X33059777Y23281777D01*
X33076253Y23263598D01*
X33090867Y23243893D01*
X33103480Y23222849D01*
X33113970Y23200671D01*
X33122235Y23177571D01*
X33128196Y23153773D01*
X33131796Y23129504D01*
X33133000Y23105000D01*
X33133000Y22180000D01*
X33131796Y22155496D01*
X33128196Y22131227D01*
X33122235Y22107429D01*
X33113970Y22084329D01*
X33103480Y22062151D01*
X33090867Y22041107D01*
X33076253Y22021402D01*
X33059777Y22003223D01*
X33041598Y21986747D01*
X33021893Y21972133D01*
X33000849Y21959520D01*
X32978671Y21949030D01*
X32955571Y21940765D01*
X32931773Y21934804D01*
X32907504Y21931204D01*
X32883000Y21930000D01*
X31633000Y21930000D01*
X31608496Y21931204D01*
X31584227Y21934804D01*
X31560429Y21940765D01*
X31537329Y21949030D01*
X31515151Y21959520D01*
X31494107Y21972133D01*
X31474402Y21986747D01*
X31456223Y22003223D01*
X31439747Y22021402D01*
X31425133Y22041107D01*
X31412520Y22062151D01*
X31402030Y22084329D01*
X31393765Y22107429D01*
X31387804Y22131227D01*
X31384204Y22155496D01*
X31383000Y22180000D01*
X31383000Y23105000D01*
X31384204Y23129504D01*
X31387804Y23153773D01*
X31393765Y23177571D01*
X31402030Y23200671D01*
X31412520Y23222849D01*
X31425133Y23243893D01*
X31439747Y23263598D01*
X31456223Y23281777D01*
X31474402Y23298253D01*
X31494107Y23312867D01*
X31515151Y23325480D01*
X31537329Y23335970D01*
X31560429Y23344235D01*
X31584227Y23350196D01*
X31608496Y23353796D01*
X31633000Y23355000D01*
X32883000Y23355000D01*
X32907504Y23353796D01*
G37*
G04 #@! TD.AperFunction*
G04 #@! TA.AperFunction,SMDPad,CuDef*
G36*
X32653504Y14819396D02*
G01*
X32677773Y14815796D01*
X32701571Y14809835D01*
X32724671Y14801570D01*
X32746849Y14791080D01*
X32767893Y14778467D01*
X32787598Y14763853D01*
X32805777Y14747377D01*
X32822253Y14729198D01*
X32836867Y14709493D01*
X32849480Y14688449D01*
X32859970Y14666271D01*
X32868235Y14643171D01*
X32874196Y14619373D01*
X32877796Y14595104D01*
X32879000Y14570600D01*
X32879000Y13645600D01*
X32877796Y13621096D01*
X32874196Y13596827D01*
X32868235Y13573029D01*
X32859970Y13549929D01*
X32849480Y13527751D01*
X32836867Y13506707D01*
X32822253Y13487002D01*
X32805777Y13468823D01*
X32787598Y13452347D01*
X32767893Y13437733D01*
X32746849Y13425120D01*
X32724671Y13414630D01*
X32701571Y13406365D01*
X32677773Y13400404D01*
X32653504Y13396804D01*
X32629000Y13395600D01*
X31379000Y13395600D01*
X31354496Y13396804D01*
X31330227Y13400404D01*
X31306429Y13406365D01*
X31283329Y13414630D01*
X31261151Y13425120D01*
X31240107Y13437733D01*
X31220402Y13452347D01*
X31202223Y13468823D01*
X31185747Y13487002D01*
X31171133Y13506707D01*
X31158520Y13527751D01*
X31148030Y13549929D01*
X31139765Y13573029D01*
X31133804Y13596827D01*
X31130204Y13621096D01*
X31129000Y13645600D01*
X31129000Y14570600D01*
X31130204Y14595104D01*
X31133804Y14619373D01*
X31139765Y14643171D01*
X31148030Y14666271D01*
X31158520Y14688449D01*
X31171133Y14709493D01*
X31185747Y14729198D01*
X31202223Y14747377D01*
X31220402Y14763853D01*
X31240107Y14778467D01*
X31261151Y14791080D01*
X31283329Y14801570D01*
X31306429Y14809835D01*
X31330227Y14815796D01*
X31354496Y14819396D01*
X31379000Y14820600D01*
X32629000Y14820600D01*
X32653504Y14819396D01*
G37*
G04 #@! TD.AperFunction*
G04 #@! TA.AperFunction,SMDPad,CuDef*
G36*
X32653504Y17794396D02*
G01*
X32677773Y17790796D01*
X32701571Y17784835D01*
X32724671Y17776570D01*
X32746849Y17766080D01*
X32767893Y17753467D01*
X32787598Y17738853D01*
X32805777Y17722377D01*
X32822253Y17704198D01*
X32836867Y17684493D01*
X32849480Y17663449D01*
X32859970Y17641271D01*
X32868235Y17618171D01*
X32874196Y17594373D01*
X32877796Y17570104D01*
X32879000Y17545600D01*
X32879000Y16620600D01*
X32877796Y16596096D01*
X32874196Y16571827D01*
X32868235Y16548029D01*
X32859970Y16524929D01*
X32849480Y16502751D01*
X32836867Y16481707D01*
X32822253Y16462002D01*
X32805777Y16443823D01*
X32787598Y16427347D01*
X32767893Y16412733D01*
X32746849Y16400120D01*
X32724671Y16389630D01*
X32701571Y16381365D01*
X32677773Y16375404D01*
X32653504Y16371804D01*
X32629000Y16370600D01*
X31379000Y16370600D01*
X31354496Y16371804D01*
X31330227Y16375404D01*
X31306429Y16381365D01*
X31283329Y16389630D01*
X31261151Y16400120D01*
X31240107Y16412733D01*
X31220402Y16427347D01*
X31202223Y16443823D01*
X31185747Y16462002D01*
X31171133Y16481707D01*
X31158520Y16502751D01*
X31148030Y16524929D01*
X31139765Y16548029D01*
X31133804Y16571827D01*
X31130204Y16596096D01*
X31129000Y16620600D01*
X31129000Y17545600D01*
X31130204Y17570104D01*
X31133804Y17594373D01*
X31139765Y17618171D01*
X31148030Y17641271D01*
X31158520Y17663449D01*
X31171133Y17684493D01*
X31185747Y17704198D01*
X31202223Y17722377D01*
X31220402Y17738853D01*
X31240107Y17753467D01*
X31261151Y17766080D01*
X31283329Y17776570D01*
X31306429Y17784835D01*
X31330227Y17790796D01*
X31354496Y17794396D01*
X31379000Y17795600D01*
X32629000Y17795600D01*
X32653504Y17794396D01*
G37*
G04 #@! TD.AperFunction*
D18*
X45800000Y32900000D03*
X45800000Y41100000D03*
D19*
X45800000Y35000000D03*
X45800000Y37000000D03*
D20*
X45800000Y39000000D03*
D21*
X31800000Y5950000D03*
X31800000Y4050000D03*
X33800000Y5000000D03*
G04 #@! TA.AperFunction,SMDPad,CuDef*
D15*
G36*
X32235779Y8273856D02*
G01*
X32258834Y8270437D01*
X32281443Y8264773D01*
X32303387Y8256921D01*
X32324457Y8246956D01*
X32344448Y8234974D01*
X32363168Y8221090D01*
X32380438Y8205438D01*
X32396090Y8188168D01*
X32409974Y8169448D01*
X32421956Y8149457D01*
X32431921Y8128387D01*
X32439773Y8106443D01*
X32445437Y8083834D01*
X32448856Y8060779D01*
X32450000Y8037500D01*
X32450000Y7562500D01*
X32448856Y7539221D01*
X32445437Y7516166D01*
X32439773Y7493557D01*
X32431921Y7471613D01*
X32421956Y7450543D01*
X32409974Y7430552D01*
X32396090Y7411832D01*
X32380438Y7394562D01*
X32363168Y7378910D01*
X32344448Y7365026D01*
X32324457Y7353044D01*
X32303387Y7343079D01*
X32281443Y7335227D01*
X32258834Y7329563D01*
X32235779Y7326144D01*
X32212500Y7325000D01*
X31637500Y7325000D01*
X31614221Y7326144D01*
X31591166Y7329563D01*
X31568557Y7335227D01*
X31546613Y7343079D01*
X31525543Y7353044D01*
X31505552Y7365026D01*
X31486832Y7378910D01*
X31469562Y7394562D01*
X31453910Y7411832D01*
X31440026Y7430552D01*
X31428044Y7450543D01*
X31418079Y7471613D01*
X31410227Y7493557D01*
X31404563Y7516166D01*
X31401144Y7539221D01*
X31400000Y7562500D01*
X31400000Y8037500D01*
X31401144Y8060779D01*
X31404563Y8083834D01*
X31410227Y8106443D01*
X31418079Y8128387D01*
X31428044Y8149457D01*
X31440026Y8169448D01*
X31453910Y8188168D01*
X31469562Y8205438D01*
X31486832Y8221090D01*
X31505552Y8234974D01*
X31525543Y8246956D01*
X31546613Y8256921D01*
X31568557Y8264773D01*
X31591166Y8270437D01*
X31614221Y8273856D01*
X31637500Y8275000D01*
X32212500Y8275000D01*
X32235779Y8273856D01*
G37*
G04 #@! TD.AperFunction*
G04 #@! TA.AperFunction,SMDPad,CuDef*
G36*
X33985779Y8273856D02*
G01*
X34008834Y8270437D01*
X34031443Y8264773D01*
X34053387Y8256921D01*
X34074457Y8246956D01*
X34094448Y8234974D01*
X34113168Y8221090D01*
X34130438Y8205438D01*
X34146090Y8188168D01*
X34159974Y8169448D01*
X34171956Y8149457D01*
X34181921Y8128387D01*
X34189773Y8106443D01*
X34195437Y8083834D01*
X34198856Y8060779D01*
X34200000Y8037500D01*
X34200000Y7562500D01*
X34198856Y7539221D01*
X34195437Y7516166D01*
X34189773Y7493557D01*
X34181921Y7471613D01*
X34171956Y7450543D01*
X34159974Y7430552D01*
X34146090Y7411832D01*
X34130438Y7394562D01*
X34113168Y7378910D01*
X34094448Y7365026D01*
X34074457Y7353044D01*
X34053387Y7343079D01*
X34031443Y7335227D01*
X34008834Y7329563D01*
X33985779Y7326144D01*
X33962500Y7325000D01*
X33387500Y7325000D01*
X33364221Y7326144D01*
X33341166Y7329563D01*
X33318557Y7335227D01*
X33296613Y7343079D01*
X33275543Y7353044D01*
X33255552Y7365026D01*
X33236832Y7378910D01*
X33219562Y7394562D01*
X33203910Y7411832D01*
X33190026Y7430552D01*
X33178044Y7450543D01*
X33168079Y7471613D01*
X33160227Y7493557D01*
X33154563Y7516166D01*
X33151144Y7539221D01*
X33150000Y7562500D01*
X33150000Y8037500D01*
X33151144Y8060779D01*
X33154563Y8083834D01*
X33160227Y8106443D01*
X33168079Y8128387D01*
X33178044Y8149457D01*
X33190026Y8169448D01*
X33203910Y8188168D01*
X33219562Y8205438D01*
X33236832Y8221090D01*
X33255552Y8234974D01*
X33275543Y8246956D01*
X33296613Y8256921D01*
X33318557Y8264773D01*
X33341166Y8270437D01*
X33364221Y8273856D01*
X33387500Y8275000D01*
X33962500Y8275000D01*
X33985779Y8273856D01*
G37*
G04 #@! TD.AperFunction*
D22*
X23495000Y24765000D03*
X39000000Y49000000D03*
X34000000Y49000000D03*
X29000000Y49000000D03*
X24000000Y49000000D03*
X19000000Y49000000D03*
X14000000Y49000000D03*
X8000000Y48500000D03*
X1500000Y45000000D03*
X48500000Y44500000D03*
X42000000Y48500000D03*
X1000000Y39000000D03*
X1000000Y34000000D03*
X1000000Y29000000D03*
X1000000Y24000000D03*
X1000000Y19000000D03*
X1000000Y14000000D03*
X1000000Y11000000D03*
X1500000Y5000000D03*
X8000000Y1500000D03*
X11000000Y1000000D03*
X16000000Y1000000D03*
X21000000Y1000000D03*
X26000000Y1000000D03*
X31000000Y1000000D03*
X36000000Y1000000D03*
X42000000Y1500000D03*
X48500000Y5500000D03*
X49000000Y11000000D03*
X49000000Y16000000D03*
X49000000Y21000000D03*
X49000000Y26000000D03*
X49000000Y32000000D03*
X49000000Y37000000D03*
X30000000Y43750000D03*
X11023600Y33274000D03*
X27400000Y16200000D03*
X27600000Y27000000D03*
X30429200Y28676600D03*
X30480000Y5232400D03*
X9000000Y5400000D03*
X43332400Y37846000D03*
X43840400Y29921200D03*
X27635200Y35001200D03*
X19100800Y38735000D03*
X27051000Y38735000D03*
X27051000Y41148000D03*
X19100800Y41097200D03*
X14833600Y41275000D03*
X16100000Y34800000D03*
X13335000Y37998400D03*
X21234400Y21640800D03*
X19380200Y36550600D03*
X25019000Y33782000D03*
X27686000Y31242000D03*
X12065000Y39243000D03*
X9144000Y33909000D03*
X10922000Y35687000D03*
X30378400Y15290800D03*
X42700000Y22800000D03*
X46228000Y22860000D03*
X45872400Y11988800D03*
X30276800Y23266400D03*
X30276800Y36372800D03*
X26800000Y22000000D03*
X21000000Y25095200D03*
X16400000Y27800000D03*
X12547600Y31191200D03*
X6248400Y24434800D03*
X11328400Y11023600D03*
X18338800Y28702000D03*
X7772400Y38938200D03*
X7823200Y10998200D03*
X4622800Y11023600D03*
X35900000Y15200000D03*
X46228000Y16764000D03*
X27500000Y18415000D03*
X30400000Y19400000D03*
X9600000Y23700000D03*
X11300000Y15900000D03*
X9200000Y21400000D03*
X10800000Y29200000D03*
X13900000Y29200000D03*
X15600000Y7200000D03*
X12000000Y7500000D03*
X18387800Y23521800D03*
X36677600Y12293600D03*
X27800000Y12400000D03*
X27584400Y4114800D03*
X21600000Y30400000D03*
X21600000Y10600000D03*
X12852400Y20066000D03*
X6197600Y17678400D03*
X39725600Y12242800D03*
X37439600Y7010400D03*
X11300000Y30100000D03*
X18084800Y36626798D03*
X11499998Y25800000D03*
X17272000Y37439600D03*
X10887845Y26414586D03*
X16500000Y19200006D03*
X34175724Y21275733D03*
X26670000Y20278800D03*
X21209000Y19050000D03*
X10600000Y6074002D03*
X27635200Y20900004D03*
X25400036Y22225000D03*
D23*
X17548300Y22521799D02*
X18548301Y23521800D01*
X16948250Y22521799D02*
X17548300Y22521799D01*
X16948250Y22521799D02*
X16348200Y22521799D01*
X16340199Y22529800D02*
X16100000Y22289601D01*
X16100000Y22289601D02*
X16100000Y21700000D01*
X18387800Y23521800D02*
X16948250Y23521800D01*
D24*
X28956000Y45015600D02*
X29000000Y45059600D01*
X28956000Y36042600D02*
X28956000Y45015600D01*
X28956000Y30734000D02*
X28956000Y36042600D01*
X25654000Y35052000D02*
X28956000Y31750000D01*
X17780000Y35052000D02*
X25654000Y35052000D01*
X16256000Y36576000D02*
X17780000Y35052000D01*
X28956000Y31750000D02*
X28956000Y30734000D01*
X16256000Y44744000D02*
X16256000Y36576000D01*
X16000000Y45000000D02*
X16256000Y44744000D01*
X28930600Y15483200D02*
X27215999Y13768599D01*
X28930600Y17627600D02*
X28930600Y15483200D01*
X28956000Y17653000D02*
X28930600Y17627600D01*
X28956000Y25748798D02*
X28956000Y30734000D01*
X28956000Y17653000D02*
X28956000Y25748798D01*
X39344600Y22402800D02*
X40386000Y23444200D01*
X31292800Y22402800D02*
X39344600Y22402800D01*
X28956000Y17653000D02*
X28956000Y20066000D01*
X28956000Y20066000D02*
X31292800Y22402800D01*
X40386000Y23444200D02*
X40386000Y24384000D01*
X40386000Y15586000D02*
X40386000Y16764000D01*
X27215999Y13768599D02*
X38568599Y13768599D01*
X38568599Y13768599D02*
X40386000Y15586000D01*
X22400000Y8952600D02*
X27215999Y13768599D01*
X22400000Y8700000D02*
X22400000Y8952600D01*
X14600000Y8700000D02*
X22400000Y8700000D01*
X13700000Y7800000D02*
X14600000Y8700000D01*
D23*
X18414000Y30100000D02*
X11724264Y30100000D01*
X11724264Y30100000D02*
X11300000Y30100000D01*
X20059750Y28454250D02*
X18414000Y30100000D01*
X20059750Y24021801D02*
X20059750Y28454250D01*
X18414000Y30100000D02*
X19940000Y30100000D01*
X19940000Y30100000D02*
X21590000Y31750000D01*
X21590000Y31750000D02*
X22860000Y31750000D01*
X22531000Y31275000D02*
X23326000Y30480000D01*
X22531000Y31750000D02*
X22531000Y31275000D01*
X23825000Y30480000D02*
X23326000Y30480000D01*
X24145000Y30160000D02*
X23825000Y30480000D01*
X24145000Y29210000D02*
X24145000Y30160000D01*
X17907000Y36804598D02*
X18084800Y36626798D01*
X17907000Y42907000D02*
X17907000Y36804598D01*
X20000000Y45000000D02*
X17907000Y42907000D01*
X13100000Y24492000D02*
X13100000Y24500000D01*
X11924262Y25800000D02*
X11499998Y25800000D01*
X14071600Y23520400D02*
X13100000Y24492000D01*
X15951200Y23520400D02*
X14071600Y23520400D01*
X13100000Y24500000D02*
X11924262Y25675738D01*
X16875250Y23948801D02*
X16379601Y23948801D01*
X11924262Y25675738D02*
X11924262Y25800000D01*
X16379601Y23948801D02*
X15951200Y23520400D01*
X16948250Y24021801D02*
X16875250Y23948801D01*
X17272000Y37863864D02*
X17272000Y37439600D01*
X17272000Y43197000D02*
X17272000Y37863864D01*
X18000000Y43925000D02*
X17272000Y43197000D01*
X18000000Y45000000D02*
X18000000Y43925000D01*
X10887845Y25990322D02*
X10887845Y26414586D01*
X11675737Y25199999D02*
X11111999Y25199999D01*
X13812536Y23063200D02*
X11675737Y25199999D01*
X10887845Y25424153D02*
X10887845Y25990322D01*
X16906850Y23063200D02*
X13812536Y23063200D01*
X11111999Y25199999D02*
X10887845Y25424153D01*
X16948250Y23021800D02*
X16906850Y23063200D01*
D25*
X39997199Y10662801D02*
X40060000Y10600000D01*
D23*
X36000000Y7800000D02*
X33675000Y7800000D01*
X37200000Y9000000D02*
X36000000Y7800000D01*
D26*
X40060000Y10600000D02*
X38590800Y10600000D01*
X38590800Y10600000D02*
X33800000Y5809200D01*
X33800000Y5809200D02*
X33800000Y5000000D01*
D23*
X20059750Y23021800D02*
X20059750Y22521799D01*
X24281000Y31750000D02*
X25400000Y31750000D01*
X26035000Y31115000D02*
X26035000Y25775800D01*
X25400000Y31750000D02*
X26035000Y31115000D01*
X26035000Y25775800D02*
X22531000Y22271800D01*
X22281001Y22521799D02*
X20059750Y22521799D01*
X22531000Y22271800D02*
X22281001Y22521799D01*
X22518400Y20802600D02*
X18102594Y20802600D01*
X18102594Y20802600D02*
X16799999Y19500005D01*
X16799999Y19500005D02*
X16500000Y19200006D01*
X42926000Y24384000D02*
X42584000Y24384000D01*
X34599988Y21275733D02*
X34175724Y21275733D01*
X39817733Y21275733D02*
X34599988Y21275733D01*
X42926000Y24384000D02*
X39817733Y21275733D01*
X25746000Y19354800D02*
X26670000Y20278800D01*
X24268400Y19354800D02*
X25746000Y19354800D01*
X21209000Y19050000D02*
X22213600Y19050000D01*
X22213600Y19050000D02*
X22518400Y19354800D01*
D26*
X30950000Y3200000D02*
X31800000Y4050000D01*
X29800000Y3200000D02*
X30950000Y3200000D01*
D24*
X29800000Y3931200D02*
X27900000Y5831200D01*
X27900000Y5831200D02*
X27900000Y8600000D01*
X29800000Y3200000D02*
X29800000Y3931200D01*
D26*
X29089200Y2489200D02*
X29800000Y3200000D01*
X12293600Y2489200D02*
X29089200Y2489200D01*
X10600000Y4182800D02*
X12293600Y2489200D01*
X10600000Y6074002D02*
X10600000Y4182800D01*
D23*
X27613996Y20878800D02*
X27635200Y20900004D01*
X24268400Y20878800D02*
X27613996Y20878800D01*
X24281000Y22504400D02*
X25120636Y22504400D01*
X25120636Y22504400D02*
X25400036Y22225000D01*
X20059750Y23521800D02*
X19988400Y23521800D01*
X22830000Y26670000D02*
X22830000Y29180000D01*
X22830000Y29180000D02*
X22860000Y29210000D01*
X20659800Y23521800D02*
X22860000Y25722000D01*
X20059750Y23521800D02*
X20659800Y23521800D01*
X22860000Y25722000D02*
X22860000Y27305000D01*
X31800000Y5950000D02*
X31925000Y6075000D01*
X31925000Y6075000D02*
X31925000Y7800000D01*
X44450000Y36982400D02*
X45782400Y36982400D01*
X45782400Y36982400D02*
X45800000Y37000000D01*
X43180000Y35712400D02*
X44450000Y36982400D01*
X43180000Y32512000D02*
X43180000Y35712400D01*
X45110400Y30581600D02*
X43180000Y32512000D01*
X45110400Y16710400D02*
X45110400Y30581600D01*
X43792400Y15392400D02*
X45110400Y16710400D01*
X41605200Y15392400D02*
X43792400Y15392400D01*
X35212800Y9000000D02*
X41605200Y15392400D01*
X33125000Y9000000D02*
X35212800Y9000000D01*
X31925000Y7800000D02*
X33125000Y9000000D01*
D27*
G36*
X39505264Y49401591D02*
G01*
X39533969Y49306964D01*
X39580583Y49219755D01*
X39643316Y49143316D01*
X39719755Y49080583D01*
X39806964Y49033969D01*
X39901591Y49005264D01*
X39975347Y48998000D01*
X40000000Y48995572D01*
X40024653Y48998000D01*
X46975450Y48998000D01*
X47387613Y48957587D01*
X47760459Y48845018D01*
X48104347Y48662170D01*
X48406165Y48416013D01*
X48654423Y48115919D01*
X48839663Y47773323D01*
X48954833Y47401269D01*
X48998000Y46990564D01*
X48998001Y40024663D01*
X48995572Y40000000D01*
X49005264Y39901591D01*
X49033969Y39806964D01*
X49080583Y39719755D01*
X49143316Y39643316D01*
X49219755Y39580583D01*
X49306964Y39533969D01*
X49401591Y39505264D01*
X49475347Y39498000D01*
X49498000Y39495769D01*
X49498001Y10504231D01*
X49475347Y10502000D01*
X49401591Y10494736D01*
X49306964Y10466031D01*
X49219755Y10419417D01*
X49143316Y10356684D01*
X49080583Y10280245D01*
X49033969Y10193036D01*
X49005264Y10098409D01*
X48995572Y10000000D01*
X48998001Y9975337D01*
X48998000Y3024551D01*
X48957587Y2612386D01*
X48845018Y2239538D01*
X48662170Y1895654D01*
X48416015Y1593837D01*
X48115922Y1345579D01*
X47773326Y1160338D01*
X47401269Y1045167D01*
X46990564Y1002000D01*
X40024653Y1002000D01*
X40000000Y1004428D01*
X39975347Y1002000D01*
X39901591Y994736D01*
X39806964Y966031D01*
X39719755Y919417D01*
X39643316Y856684D01*
X39580583Y780245D01*
X39533969Y693036D01*
X39505264Y598409D01*
X39495769Y502000D01*
X10504231Y502000D01*
X10494736Y598409D01*
X10466031Y693036D01*
X10419417Y780245D01*
X10356684Y856684D01*
X10280245Y919417D01*
X10193036Y966031D01*
X10098409Y994736D01*
X10024653Y1002000D01*
X10000000Y1004428D01*
X9975347Y1002000D01*
X3024551Y1002000D01*
X2612386Y1042413D01*
X2239538Y1154982D01*
X1895654Y1337830D01*
X1593837Y1583985D01*
X1345579Y1884078D01*
X1160338Y2226674D01*
X1045167Y2598731D01*
X1002000Y3009436D01*
X1002000Y3344718D01*
X1173000Y3344718D01*
X1173000Y2955282D01*
X1248975Y2573330D01*
X1398005Y2213539D01*
X1614364Y1889736D01*
X1889736Y1614364D01*
X2213539Y1398005D01*
X2573330Y1248975D01*
X2955282Y1173000D01*
X3344718Y1173000D01*
X3726670Y1248975D01*
X4086461Y1398005D01*
X4410264Y1614364D01*
X4685636Y1889736D01*
X4901995Y2213539D01*
X5051025Y2573330D01*
X5127000Y2955282D01*
X5127000Y3295472D01*
X5823000Y3295472D01*
X5823000Y3004528D01*
X5879760Y2719175D01*
X5991099Y2450378D01*
X6152739Y2208467D01*
X6358467Y2002739D01*
X6600378Y1841099D01*
X6869175Y1729760D01*
X7154528Y1673000D01*
X7445472Y1673000D01*
X7730825Y1729760D01*
X7999622Y1841099D01*
X8241533Y2002739D01*
X8447261Y2208467D01*
X8608901Y2450378D01*
X8720240Y2719175D01*
X8777000Y3004528D01*
X8777000Y3295472D01*
X8720240Y3580825D01*
X8608901Y3849622D01*
X8447261Y4091533D01*
X8355994Y4182800D01*
X9316822Y4182800D01*
X9341478Y3932465D01*
X9397520Y3747722D01*
X9414499Y3691749D01*
X9533077Y3469904D01*
X9692657Y3275456D01*
X9741380Y3235470D01*
X11346269Y1630580D01*
X11386256Y1581856D01*
X11580704Y1422276D01*
X11802549Y1303698D01*
X12038075Y1232252D01*
X12043264Y1230678D01*
X12293599Y1206022D01*
X12356325Y1212200D01*
X29026474Y1212200D01*
X29089200Y1206022D01*
X29151926Y1212200D01*
X29339536Y1230678D01*
X29580251Y1303698D01*
X29802096Y1422276D01*
X29996544Y1581856D01*
X30036535Y1630585D01*
X30328950Y1923000D01*
X30887274Y1923000D01*
X30950000Y1916822D01*
X31012726Y1923000D01*
X31200336Y1941478D01*
X31441051Y2014498D01*
X31662896Y2133076D01*
X31857344Y2292656D01*
X31897335Y2341385D01*
X32747329Y3191379D01*
X32832756Y3295472D01*
X41223000Y3295472D01*
X41223000Y3004528D01*
X41279760Y2719175D01*
X41391099Y2450378D01*
X41552739Y2208467D01*
X41758467Y2002739D01*
X42000378Y1841099D01*
X42269175Y1729760D01*
X42554528Y1673000D01*
X42845472Y1673000D01*
X43130825Y1729760D01*
X43399622Y1841099D01*
X43641533Y2002739D01*
X43847261Y2208467D01*
X44008901Y2450378D01*
X44120240Y2719175D01*
X44177000Y3004528D01*
X44177000Y3295472D01*
X44167205Y3344718D01*
X44873000Y3344718D01*
X44873000Y2955282D01*
X44948975Y2573330D01*
X45098005Y2213539D01*
X45314364Y1889736D01*
X45589736Y1614364D01*
X45913539Y1398005D01*
X46273330Y1248975D01*
X46655282Y1173000D01*
X47044718Y1173000D01*
X47426670Y1248975D01*
X47786461Y1398005D01*
X48110264Y1614364D01*
X48385636Y1889736D01*
X48601995Y2213539D01*
X48751025Y2573330D01*
X48827000Y2955282D01*
X48827000Y3344718D01*
X48751025Y3726670D01*
X48601995Y4086461D01*
X48385636Y4410264D01*
X48110264Y4685636D01*
X47786461Y4901995D01*
X47426670Y5051025D01*
X47044718Y5127000D01*
X46655282Y5127000D01*
X46273330Y5051025D01*
X45913539Y4901995D01*
X45589736Y4685636D01*
X45314364Y4410264D01*
X45098005Y4086461D01*
X44948975Y3726670D01*
X44873000Y3344718D01*
X44167205Y3344718D01*
X44120240Y3580825D01*
X44008901Y3849622D01*
X43847261Y4091533D01*
X43641533Y4297261D01*
X43399622Y4458901D01*
X43130825Y4570240D01*
X42845472Y4627000D01*
X42554528Y4627000D01*
X42269175Y4570240D01*
X42000378Y4458901D01*
X41758467Y4297261D01*
X41552739Y4091533D01*
X41391099Y3849622D01*
X41279760Y3580825D01*
X41223000Y3295472D01*
X32832756Y3295472D01*
X32866924Y3337105D01*
X32985502Y3558949D01*
X33058523Y3799664D01*
X33072817Y3944802D01*
X33087105Y3933076D01*
X33308950Y3814498D01*
X33549665Y3741478D01*
X33800000Y3716822D01*
X34050336Y3741478D01*
X34291051Y3814498D01*
X34512896Y3933076D01*
X34707344Y4092656D01*
X34866924Y4287104D01*
X34985502Y4508949D01*
X35058522Y4749664D01*
X35077000Y4937275D01*
X35077000Y5280250D01*
X39119751Y9323000D01*
X39390136Y9323000D01*
X39430906Y9301208D01*
X39567718Y9259706D01*
X39709999Y9245693D01*
X40410001Y9245693D01*
X40552282Y9259706D01*
X40689094Y9301208D01*
X40815182Y9368603D01*
X40925698Y9459302D01*
X41016397Y9569818D01*
X41044097Y9621642D01*
X41103693Y9533275D01*
X41276526Y9361922D01*
X41479467Y9227579D01*
X41704718Y9135409D01*
X41742391Y9131538D01*
X41933000Y9256269D01*
X41933000Y10473000D01*
X42187000Y10473000D01*
X42187000Y9256269D01*
X42377609Y9131538D01*
X42415282Y9135409D01*
X42640533Y9227579D01*
X42843474Y9361922D01*
X43016307Y9533275D01*
X43152390Y9735054D01*
X43246493Y9959504D01*
X43295000Y10198000D01*
X43295000Y10473000D01*
X42187000Y10473000D01*
X41933000Y10473000D01*
X41913000Y10473000D01*
X41913000Y10727000D01*
X41933000Y10727000D01*
X41933000Y11943731D01*
X42187000Y11943731D01*
X42187000Y10727000D01*
X43295000Y10727000D01*
X43295000Y11002000D01*
X43246493Y11240496D01*
X43152390Y11464946D01*
X43016307Y11666725D01*
X42843474Y11838078D01*
X42640533Y11972421D01*
X42415282Y12064591D01*
X42377609Y12068462D01*
X42187000Y11943731D01*
X41933000Y11943731D01*
X41742391Y12068462D01*
X41704718Y12064591D01*
X41479467Y11972421D01*
X41276526Y11838078D01*
X41103693Y11666725D01*
X41044097Y11578358D01*
X41016397Y11630182D01*
X40925698Y11740698D01*
X40815182Y11831397D01*
X40689094Y11898792D01*
X40552282Y11940294D01*
X40410001Y11954307D01*
X39709999Y11954307D01*
X39567718Y11940294D01*
X39430906Y11898792D01*
X39390136Y11877000D01*
X38905801Y11877000D01*
X41844201Y14815400D01*
X43764069Y14815400D01*
X43792400Y14812610D01*
X43820731Y14815400D01*
X43820736Y14815400D01*
X43850445Y14818326D01*
X43905511Y14823749D01*
X43950170Y14837297D01*
X44014276Y14856743D01*
X44114515Y14910321D01*
X44202374Y14982426D01*
X44220439Y15004438D01*
X45498363Y16282362D01*
X45520374Y16300426D01*
X45592479Y16388285D01*
X45646057Y16488524D01*
X45679050Y16597288D01*
X45687400Y16682064D01*
X45687400Y16682070D01*
X45690190Y16710399D01*
X45687400Y16738728D01*
X45687400Y30553269D01*
X45690190Y30581600D01*
X45679051Y30694712D01*
X45656736Y30768273D01*
X45646057Y30803476D01*
X45592479Y30903715D01*
X45520374Y30991574D01*
X45498362Y31009639D01*
X45185001Y31323000D01*
X46527469Y31323000D01*
X46759146Y31345818D01*
X47056412Y31435993D01*
X47330373Y31582428D01*
X47570503Y31779497D01*
X47767572Y32019627D01*
X47914007Y32293588D01*
X48004182Y32590854D01*
X48034630Y32900000D01*
X48004182Y33209146D01*
X47914007Y33506412D01*
X47767572Y33780373D01*
X47570503Y34020503D01*
X47330373Y34217572D01*
X47271154Y34249225D01*
X47325149Y34315017D01*
X47439084Y34528176D01*
X47509245Y34759466D01*
X47532936Y35000000D01*
X47509245Y35240534D01*
X47439084Y35471824D01*
X47325149Y35684983D01*
X47171817Y35871817D01*
X47015627Y36000000D01*
X47171817Y36128183D01*
X47325149Y36315017D01*
X47439084Y36528176D01*
X47509245Y36759466D01*
X47532936Y37000000D01*
X47509245Y37240534D01*
X47439084Y37471824D01*
X47328446Y37678814D01*
X47404494Y37719463D01*
X47501185Y37798815D01*
X47580537Y37895506D01*
X47639502Y38005820D01*
X47675812Y38125518D01*
X47688072Y38250000D01*
X47685000Y38714250D01*
X47526250Y38873000D01*
X45927000Y38873000D01*
X45927000Y38853000D01*
X45673000Y38853000D01*
X45673000Y38873000D01*
X44073750Y38873000D01*
X43915000Y38714250D01*
X43911928Y38250000D01*
X43924188Y38125518D01*
X43960498Y38005820D01*
X44019463Y37895506D01*
X44098815Y37798815D01*
X44195506Y37719463D01*
X44271554Y37678814D01*
X44168631Y37486258D01*
X44127885Y37464479D01*
X44083481Y37428037D01*
X44062035Y37410437D01*
X44062033Y37410435D01*
X44040026Y37392374D01*
X44021965Y37370367D01*
X42792033Y36140434D01*
X42770027Y36122374D01*
X42751966Y36100367D01*
X42751963Y36100364D01*
X42728840Y36072188D01*
X42697922Y36034515D01*
X42646457Y35938229D01*
X42644344Y35934276D01*
X42611349Y35825511D01*
X42600210Y35712400D01*
X42603001Y35684059D01*
X42603000Y32540331D01*
X42600210Y32512000D01*
X42611349Y32398889D01*
X42630796Y32334783D01*
X42644343Y32290125D01*
X42697921Y32189886D01*
X42770026Y32102026D01*
X42792038Y32083961D01*
X44533401Y30342598D01*
X44533400Y16949401D01*
X44253000Y16669001D01*
X44253000Y16894698D01*
X44202004Y17151072D01*
X44101972Y17392570D01*
X43956748Y17609913D01*
X43771913Y17794748D01*
X43554570Y17939972D01*
X43327567Y18034000D01*
X43554570Y18128028D01*
X43771913Y18273252D01*
X43956748Y18458087D01*
X44101972Y18675430D01*
X44202004Y18916928D01*
X44253000Y19173302D01*
X44253000Y19434698D01*
X44202004Y19691072D01*
X44101972Y19932570D01*
X43956748Y20149913D01*
X43771913Y20334748D01*
X43554570Y20479972D01*
X43313072Y20580004D01*
X43056698Y20631000D01*
X42795302Y20631000D01*
X42538928Y20580004D01*
X42297430Y20479972D01*
X42080087Y20334748D01*
X41895252Y20149913D01*
X41750028Y19932570D01*
X41656000Y19705567D01*
X41561972Y19932570D01*
X41416748Y20149913D01*
X41231913Y20334748D01*
X41014570Y20479972D01*
X40773072Y20580004D01*
X40516698Y20631000D01*
X40255302Y20631000D01*
X39998928Y20580004D01*
X39757430Y20479972D01*
X39540087Y20334748D01*
X39355252Y20149913D01*
X39210028Y19932570D01*
X39116000Y19705567D01*
X39021972Y19932570D01*
X38876748Y20149913D01*
X38691913Y20334748D01*
X38474570Y20479972D01*
X38233072Y20580004D01*
X37976698Y20631000D01*
X37715302Y20631000D01*
X37458928Y20580004D01*
X37217430Y20479972D01*
X37000087Y20334748D01*
X36815252Y20149913D01*
X36670028Y19932570D01*
X36569996Y19691072D01*
X36519000Y19434698D01*
X36519000Y19173302D01*
X36569996Y18916928D01*
X36670028Y18675430D01*
X36815252Y18458087D01*
X37000087Y18273252D01*
X37032079Y18251876D01*
X36996000Y18252072D01*
X36871518Y18239812D01*
X36751820Y18203502D01*
X36641506Y18144537D01*
X36544815Y18065185D01*
X36465463Y17968494D01*
X36406498Y17858180D01*
X36370188Y17738482D01*
X36357928Y17614000D01*
X36361000Y17049750D01*
X36519750Y16891000D01*
X37719000Y16891000D01*
X37719000Y16911000D01*
X37973000Y16911000D01*
X37973000Y16891000D01*
X37993000Y16891000D01*
X37993000Y16637000D01*
X37973000Y16637000D01*
X37973000Y15437750D01*
X38131750Y15279000D01*
X38694251Y15275938D01*
X38163913Y14745599D01*
X35854621Y14745599D01*
X35842792Y14784594D01*
X35775397Y14910681D01*
X35684698Y15021198D01*
X35574181Y15111897D01*
X35448094Y15179292D01*
X35311281Y15220794D01*
X35169000Y15234807D01*
X33919000Y15234807D01*
X33776719Y15220794D01*
X33639906Y15179292D01*
X33513819Y15111897D01*
X33403302Y15021198D01*
X33312603Y14910681D01*
X33291398Y14871010D01*
X33235397Y14975781D01*
X33144698Y15086298D01*
X33034181Y15176997D01*
X32908094Y15244392D01*
X32771281Y15285894D01*
X32629000Y15299907D01*
X31379000Y15299907D01*
X31236719Y15285894D01*
X31099906Y15244392D01*
X30973819Y15176997D01*
X30863302Y15086298D01*
X30772603Y14975781D01*
X30705208Y14849694D01*
X30673631Y14745599D01*
X29574686Y14745599D01*
X29587507Y14758420D01*
X29624786Y14789014D01*
X29746876Y14937782D01*
X29837597Y15107509D01*
X29871962Y15220794D01*
X29893463Y15291674D01*
X29912327Y15483200D01*
X29907600Y15531193D01*
X29907600Y16370600D01*
X30490928Y16370600D01*
X30503188Y16246118D01*
X30539498Y16126420D01*
X30598463Y16016106D01*
X30677815Y15919415D01*
X30774506Y15840063D01*
X30884820Y15781098D01*
X31004518Y15744788D01*
X31129000Y15732528D01*
X31718250Y15735600D01*
X31877000Y15894350D01*
X31877000Y16956100D01*
X32131000Y16956100D01*
X32131000Y15894350D01*
X32289750Y15735600D01*
X32879000Y15732528D01*
X33003482Y15744788D01*
X33123180Y15781098D01*
X33233494Y15840063D01*
X33234338Y15840755D01*
X33314506Y15774963D01*
X33424820Y15715998D01*
X33544518Y15679688D01*
X33669000Y15667428D01*
X34258250Y15670500D01*
X34417000Y15829250D01*
X34417000Y16891000D01*
X34671000Y16891000D01*
X34671000Y15829250D01*
X34829750Y15670500D01*
X35419000Y15667428D01*
X35543482Y15679688D01*
X35663180Y15715998D01*
X35773494Y15774963D01*
X35870185Y15854315D01*
X35919167Y15914000D01*
X36357928Y15914000D01*
X36370188Y15789518D01*
X36406498Y15669820D01*
X36465463Y15559506D01*
X36544815Y15462815D01*
X36641506Y15383463D01*
X36751820Y15324498D01*
X36871518Y15288188D01*
X36996000Y15275928D01*
X37560250Y15279000D01*
X37719000Y15437750D01*
X37719000Y16637000D01*
X36519750Y16637000D01*
X36361000Y16478250D01*
X36357928Y15914000D01*
X35919167Y15914000D01*
X35949537Y15951006D01*
X36008502Y16061320D01*
X36044812Y16181018D01*
X36057072Y16305500D01*
X36054000Y16732250D01*
X35895250Y16891000D01*
X34671000Y16891000D01*
X34417000Y16891000D01*
X33420350Y16891000D01*
X33355250Y16956100D01*
X32131000Y16956100D01*
X31877000Y16956100D01*
X30652750Y16956100D01*
X30494000Y16797350D01*
X30490928Y16370600D01*
X29907600Y16370600D01*
X29907600Y17424346D01*
X29918863Y17461475D01*
X29933000Y17605007D01*
X29933000Y17605008D01*
X29937727Y17652999D01*
X29933000Y17700992D01*
X29933000Y17795600D01*
X30490928Y17795600D01*
X30494000Y17368850D01*
X30652750Y17210100D01*
X31877000Y17210100D01*
X31877000Y18271850D01*
X32131000Y18271850D01*
X32131000Y17210100D01*
X33127650Y17210100D01*
X33192750Y17145000D01*
X34417000Y17145000D01*
X34417000Y18206750D01*
X34671000Y18206750D01*
X34671000Y17145000D01*
X35895250Y17145000D01*
X36054000Y17303750D01*
X36057072Y17730500D01*
X36044812Y17854982D01*
X36008502Y17974680D01*
X35949537Y18084994D01*
X35870185Y18181685D01*
X35773494Y18261037D01*
X35663180Y18320002D01*
X35543482Y18356312D01*
X35419000Y18368572D01*
X34829750Y18365500D01*
X34671000Y18206750D01*
X34417000Y18206750D01*
X34258250Y18365500D01*
X33669000Y18368572D01*
X33544518Y18356312D01*
X33424820Y18320002D01*
X33314506Y18261037D01*
X33313662Y18260345D01*
X33233494Y18326137D01*
X33123180Y18385102D01*
X33003482Y18421412D01*
X32879000Y18433672D01*
X32289750Y18430600D01*
X32131000Y18271850D01*
X31877000Y18271850D01*
X31718250Y18430600D01*
X31129000Y18433672D01*
X31004518Y18421412D01*
X30884820Y18385102D01*
X30774506Y18326137D01*
X30677815Y18246785D01*
X30598463Y18150094D01*
X30539498Y18039780D01*
X30503188Y17920082D01*
X30490928Y17795600D01*
X29933000Y17795600D01*
X29933000Y19661314D01*
X31697487Y21425800D01*
X33413351Y21425800D01*
X33398724Y21352261D01*
X33398724Y21199205D01*
X33428583Y21049090D01*
X33487155Y20907685D01*
X33572188Y20780424D01*
X33680415Y20672197D01*
X33807676Y20587164D01*
X33949081Y20528592D01*
X34099196Y20498733D01*
X34252252Y20498733D01*
X34402367Y20528592D01*
X34543772Y20587164D01*
X34671033Y20672197D01*
X34697569Y20698733D01*
X39789402Y20698733D01*
X39817733Y20695943D01*
X39846064Y20698733D01*
X39846069Y20698733D01*
X39875778Y20701659D01*
X39930844Y20707082D01*
X39983010Y20722907D01*
X40039609Y20740076D01*
X40139848Y20793654D01*
X40227707Y20865759D01*
X40245772Y20887771D01*
X42487358Y23129357D01*
X42538928Y23107996D01*
X42795302Y23057000D01*
X43056698Y23057000D01*
X43313072Y23107996D01*
X43554570Y23208028D01*
X43771913Y23353252D01*
X43956748Y23538087D01*
X44101972Y23755430D01*
X44202004Y23996928D01*
X44253000Y24253302D01*
X44253000Y24514698D01*
X44202004Y24771072D01*
X44101972Y25012570D01*
X43956748Y25229913D01*
X43771913Y25414748D01*
X43554570Y25559972D01*
X43327567Y25654000D01*
X43554570Y25748028D01*
X43771913Y25893252D01*
X43956748Y26078087D01*
X44101972Y26295430D01*
X44202004Y26536928D01*
X44253000Y26793302D01*
X44253000Y27054698D01*
X44202004Y27311072D01*
X44101972Y27552570D01*
X43956748Y27769913D01*
X43771913Y27954748D01*
X43554570Y28099972D01*
X43313072Y28200004D01*
X43056698Y28251000D01*
X42795302Y28251000D01*
X42538928Y28200004D01*
X42297430Y28099972D01*
X42080087Y27954748D01*
X41895252Y27769913D01*
X41750028Y27552570D01*
X41656000Y27325567D01*
X41561972Y27552570D01*
X41416748Y27769913D01*
X41231913Y27954748D01*
X41014570Y28099972D01*
X40773072Y28200004D01*
X40516698Y28251000D01*
X40255302Y28251000D01*
X39998928Y28200004D01*
X39757430Y28099972D01*
X39540087Y27954748D01*
X39355252Y27769913D01*
X39210028Y27552570D01*
X39116000Y27325567D01*
X39021972Y27552570D01*
X38876748Y27769913D01*
X38691913Y27954748D01*
X38474570Y28099972D01*
X38233072Y28200004D01*
X37976698Y28251000D01*
X37715302Y28251000D01*
X37458928Y28200004D01*
X37217430Y28099972D01*
X37000087Y27954748D01*
X36815252Y27769913D01*
X36670028Y27552570D01*
X36569996Y27311072D01*
X36519000Y27054698D01*
X36519000Y26793302D01*
X36569996Y26536928D01*
X36670028Y26295430D01*
X36815252Y26078087D01*
X37000087Y25893252D01*
X37032079Y25871876D01*
X36996000Y25872072D01*
X36871518Y25859812D01*
X36751820Y25823502D01*
X36641506Y25764537D01*
X36544815Y25685185D01*
X36465463Y25588494D01*
X36406498Y25478180D01*
X36370188Y25358482D01*
X36357928Y25234000D01*
X36361000Y24669750D01*
X36519750Y24511000D01*
X37719000Y24511000D01*
X37719000Y24531000D01*
X37973000Y24531000D01*
X37973000Y24511000D01*
X37993000Y24511000D01*
X37993000Y24257000D01*
X37973000Y24257000D01*
X37973000Y24237000D01*
X37719000Y24237000D01*
X37719000Y24257000D01*
X36519750Y24257000D01*
X36361000Y24098250D01*
X36357928Y23534000D01*
X36370188Y23409518D01*
X36379203Y23379800D01*
X35844095Y23379800D01*
X35842792Y23384094D01*
X35775397Y23510181D01*
X35684698Y23620698D01*
X35574181Y23711397D01*
X35448094Y23778792D01*
X35311281Y23820294D01*
X35169000Y23834307D01*
X33919000Y23834307D01*
X33776719Y23820294D01*
X33639906Y23778792D01*
X33513819Y23711397D01*
X33403302Y23620698D01*
X33401000Y23617893D01*
X33398698Y23620698D01*
X33288181Y23711397D01*
X33162094Y23778792D01*
X33025281Y23820294D01*
X32883000Y23834307D01*
X31633000Y23834307D01*
X31490719Y23820294D01*
X31353906Y23778792D01*
X31227819Y23711397D01*
X31117302Y23620698D01*
X31026603Y23510181D01*
X30959208Y23384094D01*
X30938653Y23316332D01*
X30917109Y23309797D01*
X30747382Y23219076D01*
X30598614Y23096986D01*
X30568020Y23059707D01*
X29933000Y22424687D01*
X29933000Y24905000D01*
X30744928Y24905000D01*
X30757188Y24780518D01*
X30793498Y24660820D01*
X30852463Y24550506D01*
X30931815Y24453815D01*
X31028506Y24374463D01*
X31138820Y24315498D01*
X31258518Y24279188D01*
X31383000Y24266928D01*
X31972250Y24270000D01*
X32131000Y24428750D01*
X32131000Y25490500D01*
X32385000Y25490500D01*
X32385000Y24428750D01*
X32543750Y24270000D01*
X33133000Y24266928D01*
X33257482Y24279188D01*
X33377180Y24315498D01*
X33401000Y24328230D01*
X33424820Y24315498D01*
X33544518Y24279188D01*
X33669000Y24266928D01*
X34258250Y24270000D01*
X34417000Y24428750D01*
X34417000Y25490500D01*
X34671000Y25490500D01*
X34671000Y24428750D01*
X34829750Y24270000D01*
X35419000Y24266928D01*
X35543482Y24279188D01*
X35663180Y24315498D01*
X35773494Y24374463D01*
X35870185Y24453815D01*
X35949537Y24550506D01*
X36008502Y24660820D01*
X36044812Y24780518D01*
X36057072Y24905000D01*
X36054000Y25331750D01*
X35895250Y25490500D01*
X34671000Y25490500D01*
X34417000Y25490500D01*
X32385000Y25490500D01*
X32131000Y25490500D01*
X30906750Y25490500D01*
X30748000Y25331750D01*
X30744928Y24905000D01*
X29933000Y24905000D01*
X29933000Y26330000D01*
X30744928Y26330000D01*
X30748000Y25903250D01*
X30906750Y25744500D01*
X32131000Y25744500D01*
X32131000Y26806250D01*
X32385000Y26806250D01*
X32385000Y25744500D01*
X34417000Y25744500D01*
X34417000Y26806250D01*
X34671000Y26806250D01*
X34671000Y25744500D01*
X35895250Y25744500D01*
X36054000Y25903250D01*
X36057072Y26330000D01*
X36044812Y26454482D01*
X36008502Y26574180D01*
X35949537Y26684494D01*
X35870185Y26781185D01*
X35773494Y26860537D01*
X35663180Y26919502D01*
X35543482Y26955812D01*
X35419000Y26968072D01*
X34829750Y26965000D01*
X34671000Y26806250D01*
X34417000Y26806250D01*
X34258250Y26965000D01*
X33669000Y26968072D01*
X33544518Y26955812D01*
X33424820Y26919502D01*
X33401000Y26906770D01*
X33377180Y26919502D01*
X33257482Y26955812D01*
X33133000Y26968072D01*
X32543750Y26965000D01*
X32385000Y26806250D01*
X32131000Y26806250D01*
X31972250Y26965000D01*
X31383000Y26968072D01*
X31258518Y26955812D01*
X31138820Y26919502D01*
X31028506Y26860537D01*
X30931815Y26781185D01*
X30852463Y26684494D01*
X30793498Y26574180D01*
X30757188Y26454482D01*
X30744928Y26330000D01*
X29933000Y26330000D01*
X29933000Y31702010D01*
X29937727Y31750001D01*
X29933000Y31797993D01*
X29933000Y41100000D01*
X43565370Y41100000D01*
X43595818Y40790854D01*
X43685993Y40493588D01*
X43832428Y40219627D01*
X43982960Y40036203D01*
X43960498Y39994180D01*
X43924188Y39874482D01*
X43911928Y39750000D01*
X43915000Y39285750D01*
X44073750Y39127000D01*
X45673000Y39127000D01*
X45673000Y39147000D01*
X45927000Y39147000D01*
X45927000Y39127000D01*
X47526250Y39127000D01*
X47685000Y39285750D01*
X47688072Y39750000D01*
X47675812Y39874482D01*
X47639502Y39994180D01*
X47617040Y40036203D01*
X47767572Y40219627D01*
X47914007Y40493588D01*
X48004182Y40790854D01*
X48034630Y41100000D01*
X48004182Y41409146D01*
X47914007Y41706412D01*
X47767572Y41980373D01*
X47570503Y42220503D01*
X47330373Y42417572D01*
X47056412Y42564007D01*
X46759146Y42654182D01*
X46527469Y42677000D01*
X45072531Y42677000D01*
X44840854Y42654182D01*
X44543588Y42564007D01*
X44269627Y42417572D01*
X44029497Y42220503D01*
X43832428Y41980373D01*
X43685993Y41706412D01*
X43595818Y41409146D01*
X43565370Y41100000D01*
X29933000Y41100000D01*
X29933000Y44185820D01*
X29999833Y44310856D01*
X30000000Y44311407D01*
X30000167Y44310857D01*
X30100174Y44123756D01*
X30234761Y43959761D01*
X30398756Y43825174D01*
X30585856Y43725167D01*
X30788871Y43663583D01*
X31000000Y43642789D01*
X31211128Y43663583D01*
X31414143Y43725167D01*
X31601244Y43825174D01*
X31765239Y43959761D01*
X31899826Y44123756D01*
X31943164Y44204836D01*
X31976208Y44095906D01*
X32043603Y43969818D01*
X32134302Y43859302D01*
X32244818Y43768603D01*
X32370906Y43701208D01*
X32507718Y43659706D01*
X32649999Y43645693D01*
X33350001Y43645693D01*
X33492282Y43659706D01*
X33629094Y43701208D01*
X33755182Y43768603D01*
X33865698Y43859302D01*
X33956397Y43969818D01*
X34023792Y44095906D01*
X34065294Y44232718D01*
X34079307Y44374999D01*
X34079307Y45625001D01*
X34065294Y45767282D01*
X34023792Y45904094D01*
X33956397Y46030182D01*
X33865698Y46140698D01*
X33755182Y46231397D01*
X33629094Y46298792D01*
X33492282Y46340294D01*
X33350001Y46354307D01*
X32649999Y46354307D01*
X32507718Y46340294D01*
X32370906Y46298792D01*
X32244818Y46231397D01*
X32134302Y46140698D01*
X32043603Y46030182D01*
X31976208Y45904094D01*
X31943164Y45795164D01*
X31899826Y45876244D01*
X31765239Y46040239D01*
X31601244Y46174826D01*
X31414144Y46274833D01*
X31211129Y46336417D01*
X31000000Y46357211D01*
X30788872Y46336417D01*
X30585857Y46274833D01*
X30398757Y46174826D01*
X30234762Y46040239D01*
X30100175Y45876244D01*
X30000168Y45689144D01*
X30000000Y45688591D01*
X29999833Y45689143D01*
X29899826Y45876244D01*
X29765239Y46040239D01*
X29601244Y46174826D01*
X29414144Y46274833D01*
X29211129Y46336417D01*
X29000000Y46357211D01*
X28788872Y46336417D01*
X28585857Y46274833D01*
X28398757Y46174826D01*
X28234762Y46040239D01*
X28100175Y45876244D01*
X28093158Y45863115D01*
X28092390Y45864946D01*
X27956307Y46066725D01*
X27783474Y46238078D01*
X27580533Y46372421D01*
X27355282Y46464591D01*
X27317609Y46468462D01*
X27127000Y46343731D01*
X27127000Y45127000D01*
X27147000Y45127000D01*
X27147000Y44873000D01*
X27127000Y44873000D01*
X27127000Y43656269D01*
X27317609Y43531538D01*
X27355282Y43535409D01*
X27580533Y43627579D01*
X27783474Y43761922D01*
X27956307Y43933275D01*
X27979001Y43966925D01*
X27979000Y35994608D01*
X27979001Y35994598D01*
X27979001Y34108686D01*
X26378784Y35708902D01*
X26348186Y35746186D01*
X26199418Y35868276D01*
X26029691Y35958997D01*
X25845525Y36014863D01*
X25701993Y36029000D01*
X25654000Y36033727D01*
X25606007Y36029000D01*
X18585847Y36029000D01*
X18688336Y36131489D01*
X18773369Y36258750D01*
X18831941Y36400155D01*
X18861800Y36550270D01*
X18861800Y36703326D01*
X18831941Y36853441D01*
X18773369Y36994846D01*
X18688336Y37122107D01*
X18580109Y37230334D01*
X18484000Y37294552D01*
X18484000Y42667999D01*
X19483158Y43667156D01*
X19507718Y43659706D01*
X19649999Y43645693D01*
X20350001Y43645693D01*
X20492282Y43659706D01*
X20629094Y43701208D01*
X20755182Y43768603D01*
X20865698Y43859302D01*
X20956397Y43969818D01*
X21023792Y44095906D01*
X21065294Y44232718D01*
X21079307Y44374999D01*
X21079307Y44873000D01*
X25765000Y44873000D01*
X25765000Y44598000D01*
X25813507Y44359504D01*
X25907610Y44135054D01*
X26043693Y43933275D01*
X26216526Y43761922D01*
X26419467Y43627579D01*
X26644718Y43535409D01*
X26682391Y43531538D01*
X26873000Y43656269D01*
X26873000Y44873000D01*
X25765000Y44873000D01*
X21079307Y44873000D01*
X21079307Y45402000D01*
X25765000Y45402000D01*
X25765000Y45127000D01*
X26873000Y45127000D01*
X26873000Y46343731D01*
X26682391Y46468462D01*
X26644718Y46464591D01*
X26419467Y46372421D01*
X26216526Y46238078D01*
X26043693Y46066725D01*
X25907610Y45864946D01*
X25813507Y45640496D01*
X25765000Y45402000D01*
X21079307Y45402000D01*
X21079307Y45625001D01*
X21065294Y45767282D01*
X21023792Y45904094D01*
X20956397Y46030182D01*
X20865698Y46140698D01*
X20755182Y46231397D01*
X20629094Y46298792D01*
X20492282Y46340294D01*
X20350001Y46354307D01*
X19649999Y46354307D01*
X19507718Y46340294D01*
X19370906Y46298792D01*
X19244818Y46231397D01*
X19134302Y46140698D01*
X19043603Y46030182D01*
X18976208Y45904094D01*
X18943164Y45795164D01*
X18899826Y45876244D01*
X18765239Y46040239D01*
X18601244Y46174826D01*
X18414144Y46274833D01*
X18211129Y46336417D01*
X18000000Y46357211D01*
X17788872Y46336417D01*
X17585857Y46274833D01*
X17398757Y46174826D01*
X17234762Y46040239D01*
X17100175Y45876244D01*
X17000168Y45689144D01*
X17000000Y45688591D01*
X16999833Y45689143D01*
X16899826Y45876244D01*
X16765239Y46040239D01*
X16601244Y46174826D01*
X16414144Y46274833D01*
X16211129Y46336417D01*
X16000000Y46357211D01*
X15788872Y46336417D01*
X15585857Y46274833D01*
X15398757Y46174826D01*
X15234762Y46040239D01*
X15100175Y45876244D01*
X15093158Y45863115D01*
X15092390Y45864946D01*
X14956307Y46066725D01*
X14783474Y46238078D01*
X14580533Y46372421D01*
X14355282Y46464591D01*
X14317609Y46468462D01*
X14127000Y46343731D01*
X14127000Y45127000D01*
X14147000Y45127000D01*
X14147000Y44873000D01*
X14127000Y44873000D01*
X14127000Y43656269D01*
X14317609Y43531538D01*
X14355282Y43535409D01*
X14580533Y43627579D01*
X14783474Y43761922D01*
X14956307Y43933275D01*
X15092390Y44135054D01*
X15093157Y44136884D01*
X15100174Y44123756D01*
X15234761Y43959761D01*
X15279000Y43923455D01*
X15279001Y36624003D01*
X15274273Y36576000D01*
X15293137Y36384475D01*
X15349003Y36200310D01*
X15349004Y36200309D01*
X15439725Y36030582D01*
X15561815Y35881814D01*
X15599093Y35851221D01*
X17055220Y34395093D01*
X17085814Y34357814D01*
X17234582Y34235724D01*
X17404309Y34145003D01*
X17588475Y34089137D01*
X17732007Y34075000D01*
X17732016Y34075000D01*
X17779999Y34070274D01*
X17827982Y34075000D01*
X25249314Y34075000D01*
X27979000Y31345313D01*
X27979000Y30686008D01*
X27979001Y30685998D01*
X27979000Y25700806D01*
X27979001Y25700796D01*
X27979000Y21598617D01*
X27861843Y21647145D01*
X27711728Y21677004D01*
X27558672Y21677004D01*
X27408557Y21647145D01*
X27267152Y21588573D01*
X27139891Y21503540D01*
X27092151Y21455800D01*
X25515778Y21455800D01*
X25626679Y21477859D01*
X25768084Y21536431D01*
X25895345Y21621464D01*
X26003572Y21729691D01*
X26088605Y21856952D01*
X26147177Y21998357D01*
X26177036Y22148472D01*
X26177036Y22301528D01*
X26147177Y22451643D01*
X26088605Y22593048D01*
X26003572Y22720309D01*
X25895345Y22828536D01*
X25768084Y22913569D01*
X25626679Y22972141D01*
X25476564Y23002000D01*
X25413713Y23002000D01*
X25342512Y23040057D01*
X25277734Y23059707D01*
X25233747Y23073051D01*
X25198506Y23076521D01*
X25164503Y23140137D01*
X25075359Y23248759D01*
X24966737Y23337903D01*
X24842810Y23404143D01*
X24708342Y23444934D01*
X24568500Y23458707D01*
X24533908Y23458707D01*
X26422962Y25347761D01*
X26444974Y25365826D01*
X26517079Y25453685D01*
X26570657Y25553924D01*
X26603650Y25662688D01*
X26612000Y25747464D01*
X26612000Y25747470D01*
X26614790Y25775799D01*
X26612000Y25804128D01*
X26612000Y31086661D01*
X26614791Y31115000D01*
X26603651Y31228112D01*
X26570657Y31336875D01*
X26570657Y31336876D01*
X26517079Y31437115D01*
X26444974Y31524974D01*
X26422963Y31543038D01*
X25828039Y32137962D01*
X25809974Y32159974D01*
X25722115Y32232079D01*
X25621876Y32285657D01*
X25557770Y32305103D01*
X25513111Y32318651D01*
X25458045Y32324074D01*
X25428336Y32327000D01*
X25428331Y32327000D01*
X25400000Y32329790D01*
X25371669Y32327000D01*
X25195898Y32327000D01*
X25164503Y32385737D01*
X25075359Y32494359D01*
X24966737Y32583503D01*
X24842810Y32649743D01*
X24708342Y32690534D01*
X24568500Y32704307D01*
X23993500Y32704307D01*
X23853658Y32690534D01*
X23719190Y32649743D01*
X23595263Y32583503D01*
X23486641Y32494359D01*
X23406000Y32396098D01*
X23325359Y32494359D01*
X23216737Y32583503D01*
X23092810Y32649743D01*
X22958342Y32690534D01*
X22818500Y32704307D01*
X22243500Y32704307D01*
X22103658Y32690534D01*
X21969190Y32649743D01*
X21845263Y32583503D01*
X21736641Y32494359D01*
X21647497Y32385737D01*
X21616213Y32327208D01*
X21589999Y32329790D01*
X21561670Y32327000D01*
X21561664Y32327000D01*
X21476888Y32318650D01*
X21368124Y32285657D01*
X21267885Y32232079D01*
X21180026Y32159974D01*
X21161961Y32137962D01*
X19700999Y30677000D01*
X18442331Y30677000D01*
X18414000Y30679790D01*
X18385669Y30677000D01*
X11821845Y30677000D01*
X11795309Y30703536D01*
X11668048Y30788569D01*
X11526643Y30847141D01*
X11376528Y30877000D01*
X11223472Y30877000D01*
X11073357Y30847141D01*
X10931952Y30788569D01*
X10804691Y30703536D01*
X10696464Y30595309D01*
X10611431Y30468048D01*
X10552859Y30326643D01*
X10523000Y30176528D01*
X10523000Y30023472D01*
X10552859Y29873357D01*
X10611431Y29731952D01*
X10696464Y29604691D01*
X10804691Y29496464D01*
X10931952Y29411431D01*
X11073357Y29352859D01*
X11223472Y29323000D01*
X11376528Y29323000D01*
X11526643Y29352859D01*
X11668048Y29411431D01*
X11795309Y29496464D01*
X11821845Y29523000D01*
X18174999Y29523000D01*
X19482751Y28215247D01*
X19482750Y24593587D01*
X19476277Y24591623D01*
X19393411Y24547330D01*
X19320779Y24487722D01*
X19261171Y24415090D01*
X19216878Y24332224D01*
X19189603Y24242309D01*
X19180393Y24148801D01*
X19180393Y23894801D01*
X19189603Y23801293D01*
X19198549Y23771800D01*
X19189603Y23742308D01*
X19180393Y23648800D01*
X19180393Y23394800D01*
X19189603Y23301292D01*
X19198549Y23271800D01*
X19189603Y23242308D01*
X19180393Y23148800D01*
X19180393Y22894800D01*
X19189603Y22801292D01*
X19198549Y22771800D01*
X19189603Y22742307D01*
X19180393Y22648799D01*
X19180393Y22394799D01*
X19189603Y22301291D01*
X19216878Y22211376D01*
X19261171Y22128510D01*
X19320779Y22055878D01*
X19393411Y21996270D01*
X19476277Y21951977D01*
X19566192Y21924702D01*
X19659700Y21915492D01*
X20459800Y21915492D01*
X20553308Y21924702D01*
X20619560Y21944799D01*
X21606802Y21944799D01*
X21647497Y21868663D01*
X21736641Y21760041D01*
X21813736Y21696770D01*
X21724041Y21623159D01*
X21634897Y21514537D01*
X21568657Y21390610D01*
X21565317Y21379600D01*
X18130933Y21379600D01*
X18102594Y21382391D01*
X17989482Y21371251D01*
X17880717Y21338257D01*
X17861605Y21328041D01*
X17780479Y21284679D01*
X17692620Y21212574D01*
X17674555Y21190562D01*
X16460999Y19977006D01*
X16423472Y19977006D01*
X16273357Y19947147D01*
X16131952Y19888575D01*
X16004691Y19803542D01*
X15896464Y19695315D01*
X15811431Y19568054D01*
X15752859Y19426649D01*
X15723000Y19276534D01*
X15723000Y19123478D01*
X15752859Y18973363D01*
X15811431Y18831958D01*
X15896464Y18704697D01*
X16004691Y18596470D01*
X16131952Y18511437D01*
X16273357Y18452865D01*
X16423472Y18423006D01*
X16576528Y18423006D01*
X16726643Y18452865D01*
X16868048Y18511437D01*
X16995309Y18596470D01*
X17103536Y18704697D01*
X17188569Y18831958D01*
X17247141Y18973363D01*
X17277000Y19123478D01*
X17277000Y19161005D01*
X18341595Y20225600D01*
X21649229Y20225600D01*
X21724041Y20134441D01*
X21745537Y20116800D01*
X21724041Y20099159D01*
X21634897Y19990537D01*
X21568657Y19866610D01*
X21535088Y19755949D01*
X21435643Y19797141D01*
X21285528Y19827000D01*
X21132472Y19827000D01*
X20982357Y19797141D01*
X20840952Y19738569D01*
X20713691Y19653536D01*
X20605464Y19545309D01*
X20520431Y19418048D01*
X20461859Y19276643D01*
X20432000Y19126528D01*
X20432000Y18973472D01*
X20461859Y18823357D01*
X20520431Y18681952D01*
X20605464Y18554691D01*
X20713691Y18446464D01*
X20840952Y18361431D01*
X20982357Y18302859D01*
X21132472Y18273000D01*
X21285528Y18273000D01*
X21435643Y18302859D01*
X21577048Y18361431D01*
X21704309Y18446464D01*
X21730845Y18473000D01*
X21923021Y18473000D01*
X21956590Y18455057D01*
X22091058Y18414266D01*
X22230900Y18400493D01*
X22805900Y18400493D01*
X22945742Y18414266D01*
X23080210Y18455057D01*
X23204137Y18521297D01*
X23312759Y18610441D01*
X23393400Y18708702D01*
X23474041Y18610441D01*
X23582663Y18521297D01*
X23706590Y18455057D01*
X23841058Y18414266D01*
X23980900Y18400493D01*
X24555900Y18400493D01*
X24695742Y18414266D01*
X24830210Y18455057D01*
X24954137Y18521297D01*
X25062759Y18610441D01*
X25151903Y18719063D01*
X25183298Y18777800D01*
X25717669Y18777800D01*
X25746000Y18775010D01*
X25774331Y18777800D01*
X25774336Y18777800D01*
X25804045Y18780726D01*
X25859111Y18786149D01*
X25903770Y18799697D01*
X25967876Y18819143D01*
X26068115Y18872721D01*
X26155974Y18944826D01*
X26174039Y18966838D01*
X26709001Y19501800D01*
X26746528Y19501800D01*
X26896643Y19531659D01*
X27038048Y19590231D01*
X27165309Y19675264D01*
X27273536Y19783491D01*
X27358569Y19910752D01*
X27417141Y20052157D01*
X27436083Y20147388D01*
X27558672Y20123004D01*
X27711728Y20123004D01*
X27861843Y20152863D01*
X27979000Y20201391D01*
X27979000Y20113996D01*
X27974273Y20066000D01*
X27979000Y20018004D01*
X27979000Y17856254D01*
X27967737Y17819125D01*
X27948873Y17627600D01*
X27953600Y17579607D01*
X27953601Y15887888D01*
X26559097Y14493383D01*
X26521813Y14462785D01*
X26491220Y14425506D01*
X22045021Y9979307D01*
X21150000Y9979307D01*
X21056492Y9970097D01*
X20966577Y9942822D01*
X20883711Y9898529D01*
X20811079Y9838921D01*
X20751471Y9766289D01*
X20707178Y9683423D01*
X20705230Y9677000D01*
X14647990Y9677000D01*
X14599999Y9681727D01*
X14552009Y9677000D01*
X14552007Y9677000D01*
X14408475Y9662863D01*
X14224309Y9606997D01*
X14054582Y9516276D01*
X13905814Y9394186D01*
X13875220Y9356907D01*
X13647620Y9129307D01*
X12950000Y9129307D01*
X12807719Y9115294D01*
X12670906Y9073792D01*
X12544819Y9006397D01*
X12434302Y8915698D01*
X12343603Y8805181D01*
X12276208Y8679094D01*
X12234706Y8542281D01*
X12220693Y8400000D01*
X12220693Y7200000D01*
X12234706Y7057719D01*
X12276208Y6920906D01*
X12343603Y6794819D01*
X12434302Y6684302D01*
X12544819Y6593603D01*
X12670906Y6526208D01*
X12706423Y6515434D01*
X12558205Y6406802D01*
X12361336Y6192046D01*
X12210146Y5943009D01*
X12110446Y5669261D01*
X12108524Y5656890D01*
X12229845Y5427000D01*
X13573000Y5427000D01*
X13573000Y5447000D01*
X13827000Y5447000D01*
X13827000Y5427000D01*
X15170155Y5427000D01*
X15291476Y5656890D01*
X15289554Y5669261D01*
X15189854Y5943009D01*
X15038664Y6192046D01*
X14841795Y6406802D01*
X14693577Y6515434D01*
X14729094Y6526208D01*
X14855181Y6593603D01*
X14965698Y6684302D01*
X15056397Y6794819D01*
X15123792Y6920906D01*
X15165294Y7057719D01*
X15179307Y7200000D01*
X15179307Y7723000D01*
X20670693Y7723000D01*
X20670693Y7700000D01*
X20679903Y7606492D01*
X20707178Y7516577D01*
X20751471Y7433711D01*
X20811079Y7361079D01*
X20883711Y7301471D01*
X20966577Y7257178D01*
X21056492Y7229903D01*
X21150000Y7220693D01*
X24650000Y7220693D01*
X24743508Y7229903D01*
X24833423Y7257178D01*
X24916289Y7301471D01*
X24988921Y7361079D01*
X25048529Y7433711D01*
X25092822Y7516577D01*
X25120097Y7606492D01*
X25129307Y7700000D01*
X25129307Y9500000D01*
X25120097Y9593508D01*
X25092822Y9683423D01*
X25048529Y9766289D01*
X24988921Y9838921D01*
X24916289Y9898529D01*
X24833423Y9942822D01*
X24786225Y9957139D01*
X27620686Y12791599D01*
X38188398Y12791599D01*
X34973799Y9577000D01*
X33153328Y9577000D01*
X33124999Y9579790D01*
X33096670Y9577000D01*
X33096664Y9577000D01*
X33011888Y9568650D01*
X32903124Y9535657D01*
X32802885Y9482079D01*
X32715026Y9409974D01*
X32696963Y9387964D01*
X32063306Y8754307D01*
X31637500Y8754307D01*
X31497658Y8740534D01*
X31363190Y8699743D01*
X31239263Y8633503D01*
X31130641Y8544359D01*
X31041497Y8435737D01*
X30975257Y8311810D01*
X30934466Y8177342D01*
X30920693Y8037500D01*
X30920693Y7562500D01*
X30934466Y7422658D01*
X30975257Y7288190D01*
X31041497Y7164263D01*
X31130641Y7055641D01*
X31239263Y6966497D01*
X31348000Y6908376D01*
X31348000Y6829110D01*
X31256492Y6820097D01*
X31166577Y6792822D01*
X31083711Y6748529D01*
X31011079Y6688921D01*
X30951471Y6616289D01*
X30907178Y6533423D01*
X30879903Y6443508D01*
X30870693Y6350000D01*
X30870693Y5550000D01*
X30879903Y5456492D01*
X30907178Y5366577D01*
X30951471Y5283711D01*
X31011079Y5211079D01*
X31083711Y5151471D01*
X31117724Y5133290D01*
X31087105Y5116924D01*
X30941379Y4997329D01*
X30528105Y4584055D01*
X30494186Y4625386D01*
X30456902Y4655984D01*
X28877000Y6235886D01*
X28877000Y7220693D01*
X29650000Y7220693D01*
X29743508Y7229903D01*
X29833423Y7257178D01*
X29916289Y7301471D01*
X29988921Y7361079D01*
X30048529Y7433711D01*
X30092822Y7516577D01*
X30120097Y7606492D01*
X30129307Y7700000D01*
X30129307Y9500000D01*
X30120097Y9593508D01*
X30092822Y9683423D01*
X30048529Y9766289D01*
X29988921Y9838921D01*
X29916289Y9898529D01*
X29833423Y9942822D01*
X29743508Y9970097D01*
X29650000Y9979307D01*
X26150000Y9979307D01*
X26056492Y9970097D01*
X25966577Y9942822D01*
X25883711Y9898529D01*
X25811079Y9838921D01*
X25751471Y9766289D01*
X25707178Y9683423D01*
X25679903Y9593508D01*
X25670693Y9500000D01*
X25670693Y7700000D01*
X25679903Y7606492D01*
X25707178Y7516577D01*
X25751471Y7433711D01*
X25811079Y7361079D01*
X25883711Y7301471D01*
X25966577Y7257178D01*
X26056492Y7229903D01*
X26150000Y7220693D01*
X26923001Y7220693D01*
X26923000Y5879193D01*
X26918273Y5831200D01*
X26937137Y5639675D01*
X26972845Y5521963D01*
X26993003Y5455510D01*
X27083724Y5285782D01*
X27205814Y5137014D01*
X27243098Y5106416D01*
X28571782Y3777732D01*
X28560250Y3766200D01*
X12822551Y3766200D01*
X11877000Y4711750D01*
X11877000Y4943110D01*
X12108524Y4943110D01*
X12110446Y4930739D01*
X12210146Y4656991D01*
X12361336Y4407954D01*
X12558205Y4193198D01*
X12793188Y4020975D01*
X13057255Y3897904D01*
X13340258Y3828715D01*
X13573000Y3972768D01*
X13573000Y5173000D01*
X13827000Y5173000D01*
X13827000Y3972768D01*
X14059742Y3828715D01*
X14342745Y3897904D01*
X14606812Y4020975D01*
X14841795Y4193198D01*
X15038664Y4407954D01*
X15189854Y4656991D01*
X15289554Y4930739D01*
X15291476Y4943110D01*
X15170155Y5173000D01*
X13827000Y5173000D01*
X13573000Y5173000D01*
X12229845Y5173000D01*
X12108524Y4943110D01*
X11877000Y4943110D01*
X11877000Y6136728D01*
X11858522Y6324338D01*
X11785502Y6565053D01*
X11666924Y6786898D01*
X11507344Y6981346D01*
X11312895Y7140926D01*
X11091050Y7259504D01*
X10850335Y7332524D01*
X10600000Y7357180D01*
X10349664Y7332524D01*
X10108949Y7259504D01*
X9887104Y7140926D01*
X9692656Y6981346D01*
X9533076Y6786897D01*
X9414498Y6565052D01*
X9341478Y6324337D01*
X9323000Y6136727D01*
X9323001Y4245535D01*
X9316822Y4182800D01*
X8355994Y4182800D01*
X8241533Y4297261D01*
X7999622Y4458901D01*
X7730825Y4570240D01*
X7445472Y4627000D01*
X7154528Y4627000D01*
X6869175Y4570240D01*
X6600378Y4458901D01*
X6358467Y4297261D01*
X6152739Y4091533D01*
X5991099Y3849622D01*
X5879760Y3580825D01*
X5823000Y3295472D01*
X5127000Y3295472D01*
X5127000Y3344718D01*
X5051025Y3726670D01*
X4901995Y4086461D01*
X4685636Y4410264D01*
X4410264Y4685636D01*
X4086461Y4901995D01*
X3726670Y5051025D01*
X3344718Y5127000D01*
X2955282Y5127000D01*
X2573330Y5051025D01*
X2213539Y4901995D01*
X1889736Y4685636D01*
X1614364Y4410264D01*
X1398005Y4086461D01*
X1248975Y3726670D01*
X1173000Y3344718D01*
X1002000Y3344718D01*
X1002000Y9975348D01*
X1004428Y10000000D01*
X994736Y10098409D01*
X966031Y10193036D01*
X919417Y10280245D01*
X856684Y10356684D01*
X780245Y10419417D01*
X693036Y10466031D01*
X598409Y10494736D01*
X524653Y10502000D01*
X502000Y10504231D01*
X502000Y11128674D01*
X5133162Y11128674D01*
X5133162Y10918526D01*
X5174160Y10712415D01*
X5254580Y10518263D01*
X5371333Y10343530D01*
X5519930Y10194933D01*
X5694663Y10078180D01*
X5888815Y9997760D01*
X6094926Y9956762D01*
X6305074Y9956762D01*
X6511185Y9997760D01*
X6705337Y10078180D01*
X6880070Y10194933D01*
X7028667Y10343530D01*
X7145420Y10518263D01*
X7225840Y10712415D01*
X7266838Y10918526D01*
X7266838Y11128674D01*
X7225840Y11334785D01*
X7145420Y11528937D01*
X7028667Y11703670D01*
X6880070Y11852267D01*
X6705337Y11969020D01*
X6511185Y12049440D01*
X6305074Y12090438D01*
X6094926Y12090438D01*
X5888815Y12049440D01*
X5694663Y11969020D01*
X5519930Y11852267D01*
X5371333Y11703670D01*
X5254580Y11528937D01*
X5174160Y11334785D01*
X5133162Y11128674D01*
X502000Y11128674D01*
X502000Y26491114D01*
X10110845Y26491114D01*
X10110845Y26338058D01*
X10140704Y26187943D01*
X10199276Y26046538D01*
X10284309Y25919277D01*
X10310845Y25892741D01*
X10310845Y25452484D01*
X10308055Y25424153D01*
X10310845Y25395822D01*
X10310845Y25395818D01*
X10313082Y25373108D01*
X10319194Y25311042D01*
X10332930Y25265764D01*
X10352188Y25202278D01*
X10405766Y25102039D01*
X10477871Y25014179D01*
X10499884Y24996113D01*
X10683956Y24812042D01*
X10702025Y24790025D01*
X10789884Y24717920D01*
X10890123Y24664342D01*
X10934781Y24650795D01*
X10998887Y24631348D01*
X11111999Y24620208D01*
X11140338Y24622999D01*
X11436736Y24622999D01*
X13384501Y22675233D01*
X13402562Y22653226D01*
X13424569Y22635165D01*
X13424571Y22635163D01*
X13432677Y22628511D01*
X13490421Y22581121D01*
X13590660Y22527543D01*
X13699424Y22494550D01*
X13784200Y22486200D01*
X13784206Y22486200D01*
X13812535Y22483410D01*
X13840864Y22486200D01*
X15913200Y22486200D01*
X15913200Y22394797D01*
X15944948Y22394797D01*
X15913200Y22363049D01*
X15925295Y22256506D01*
X15964243Y22137640D01*
X16025633Y22028657D01*
X16107105Y21933745D01*
X16205528Y21856550D01*
X16317119Y21800041D01*
X16437591Y21766387D01*
X16562313Y21756883D01*
X16662500Y21759799D01*
X16821250Y21918549D01*
X16821250Y22415493D01*
X17075250Y22415493D01*
X17075250Y21918549D01*
X17234000Y21759799D01*
X17334187Y21756883D01*
X17458909Y21766387D01*
X17579381Y21800041D01*
X17690972Y21856550D01*
X17789395Y21933745D01*
X17870867Y22028657D01*
X17932257Y22137640D01*
X17971205Y22256506D01*
X17983300Y22363049D01*
X17824550Y22521799D01*
X17983300Y22680549D01*
X17971205Y22787092D01*
X17932257Y22905958D01*
X17870867Y23014941D01*
X17864980Y23021800D01*
X17870867Y23028658D01*
X17932257Y23137641D01*
X17971205Y23256507D01*
X17983300Y23363050D01*
X17824550Y23521800D01*
X17983300Y23680550D01*
X17971205Y23787093D01*
X17932257Y23905959D01*
X17870867Y24014942D01*
X17827607Y24065338D01*
X17827607Y24148801D01*
X17818397Y24242309D01*
X17791122Y24332224D01*
X17746829Y24415090D01*
X17687221Y24487722D01*
X17614589Y24547330D01*
X17531723Y24591623D01*
X17441808Y24618898D01*
X17348300Y24628108D01*
X16548200Y24628108D01*
X16454692Y24618898D01*
X16364777Y24591623D01*
X16281911Y24547330D01*
X16233200Y24507354D01*
X16157724Y24484458D01*
X16131829Y24470617D01*
X16057486Y24430880D01*
X15969627Y24358775D01*
X15951564Y24336765D01*
X15712199Y24097400D01*
X14310601Y24097400D01*
X13564651Y24843350D01*
X13509974Y24909974D01*
X13487962Y24928039D01*
X12488568Y25927433D01*
X12459919Y26021876D01*
X12406341Y26122115D01*
X12334236Y26209974D01*
X12246377Y26282079D01*
X12146138Y26335657D01*
X12037374Y26368650D01*
X12029408Y26369435D01*
X11995307Y26403536D01*
X11868046Y26488569D01*
X11726641Y26547141D01*
X11650696Y26562247D01*
X11634986Y26641229D01*
X11576414Y26782634D01*
X11491381Y26909895D01*
X11383154Y27018122D01*
X11255893Y27103155D01*
X11114488Y27161727D01*
X10964373Y27191586D01*
X10811317Y27191586D01*
X10661202Y27161727D01*
X10519797Y27103155D01*
X10392536Y27018122D01*
X10284309Y26909895D01*
X10199276Y26782634D01*
X10140704Y26641229D01*
X10110845Y26491114D01*
X502000Y26491114D01*
X502000Y39075511D01*
X5133162Y39075511D01*
X5133162Y38865363D01*
X5174160Y38659252D01*
X5254580Y38465100D01*
X5371333Y38290367D01*
X5519930Y38141770D01*
X5694663Y38025017D01*
X5888815Y37944597D01*
X6094926Y37903599D01*
X6305074Y37903599D01*
X6511185Y37944597D01*
X6705337Y38025017D01*
X6880070Y38141770D01*
X7028667Y38290367D01*
X7145420Y38465100D01*
X7225840Y38659252D01*
X7266838Y38865363D01*
X7266838Y39075511D01*
X7225840Y39281622D01*
X7145420Y39475774D01*
X7028667Y39650507D01*
X6880070Y39799104D01*
X6705337Y39915857D01*
X6511185Y39996277D01*
X6305074Y40037275D01*
X6094926Y40037275D01*
X5888815Y39996277D01*
X5694663Y39915857D01*
X5519930Y39799104D01*
X5371333Y39650507D01*
X5254580Y39475774D01*
X5174160Y39281622D01*
X5133162Y39075511D01*
X502000Y39075511D01*
X502000Y39495769D01*
X524653Y39498000D01*
X598409Y39505264D01*
X693036Y39533969D01*
X780245Y39580583D01*
X856684Y39643316D01*
X919417Y39719755D01*
X966031Y39806964D01*
X994736Y39901591D01*
X1004428Y40000000D01*
X1002000Y40024653D01*
X1002000Y46975450D01*
X1008791Y47044718D01*
X1173000Y47044718D01*
X1173000Y46655282D01*
X1248975Y46273330D01*
X1398005Y45913539D01*
X1614364Y45589736D01*
X1889736Y45314364D01*
X2213539Y45098005D01*
X2573330Y44948975D01*
X2955282Y44873000D01*
X3344718Y44873000D01*
X12765000Y44873000D01*
X12765000Y44598000D01*
X12813507Y44359504D01*
X12907610Y44135054D01*
X13043693Y43933275D01*
X13216526Y43761922D01*
X13419467Y43627579D01*
X13644718Y43535409D01*
X13682391Y43531538D01*
X13873000Y43656269D01*
X13873000Y44873000D01*
X12765000Y44873000D01*
X3344718Y44873000D01*
X3726670Y44948975D01*
X4086461Y45098005D01*
X4410264Y45314364D01*
X4685636Y45589736D01*
X4901995Y45913539D01*
X5051025Y46273330D01*
X5127000Y46655282D01*
X5127000Y46995472D01*
X5823000Y46995472D01*
X5823000Y46704528D01*
X5879760Y46419175D01*
X5991099Y46150378D01*
X6152739Y45908467D01*
X6358467Y45702739D01*
X6600378Y45541099D01*
X6869175Y45429760D01*
X7154528Y45373000D01*
X7445472Y45373000D01*
X7591265Y45402000D01*
X12765000Y45402000D01*
X12765000Y45127000D01*
X13873000Y45127000D01*
X13873000Y46343731D01*
X13682391Y46468462D01*
X13644718Y46464591D01*
X13419467Y46372421D01*
X13216526Y46238078D01*
X13043693Y46066725D01*
X12907610Y45864946D01*
X12813507Y45640496D01*
X12765000Y45402000D01*
X7591265Y45402000D01*
X7730825Y45429760D01*
X7999622Y45541099D01*
X8241533Y45702739D01*
X8447261Y45908467D01*
X8608901Y46150378D01*
X8720240Y46419175D01*
X8777000Y46704528D01*
X8777000Y46995472D01*
X41223000Y46995472D01*
X41223000Y46704528D01*
X41279760Y46419175D01*
X41391099Y46150378D01*
X41552739Y45908467D01*
X41758467Y45702739D01*
X42000378Y45541099D01*
X42269175Y45429760D01*
X42554528Y45373000D01*
X42845472Y45373000D01*
X43130825Y45429760D01*
X43399622Y45541099D01*
X43641533Y45702739D01*
X43847261Y45908467D01*
X44008901Y46150378D01*
X44120240Y46419175D01*
X44177000Y46704528D01*
X44177000Y46995472D01*
X44167205Y47044718D01*
X44873000Y47044718D01*
X44873000Y46655282D01*
X44948975Y46273330D01*
X45098005Y45913539D01*
X45314364Y45589736D01*
X45589736Y45314364D01*
X45913539Y45098005D01*
X46273330Y44948975D01*
X46655282Y44873000D01*
X47044718Y44873000D01*
X47426670Y44948975D01*
X47786461Y45098005D01*
X48110264Y45314364D01*
X48385636Y45589736D01*
X48601995Y45913539D01*
X48751025Y46273330D01*
X48827000Y46655282D01*
X48827000Y47044718D01*
X48751025Y47426670D01*
X48601995Y47786461D01*
X48385636Y48110264D01*
X48110264Y48385636D01*
X47786461Y48601995D01*
X47426670Y48751025D01*
X47044718Y48827000D01*
X46655282Y48827000D01*
X46273330Y48751025D01*
X45913539Y48601995D01*
X45589736Y48385636D01*
X45314364Y48110264D01*
X45098005Y47786461D01*
X44948975Y47426670D01*
X44873000Y47044718D01*
X44167205Y47044718D01*
X44120240Y47280825D01*
X44008901Y47549622D01*
X43847261Y47791533D01*
X43641533Y47997261D01*
X43399622Y48158901D01*
X43130825Y48270240D01*
X42845472Y48327000D01*
X42554528Y48327000D01*
X42269175Y48270240D01*
X42000378Y48158901D01*
X41758467Y47997261D01*
X41552739Y47791533D01*
X41391099Y47549622D01*
X41279760Y47280825D01*
X41223000Y46995472D01*
X8777000Y46995472D01*
X8720240Y47280825D01*
X8608901Y47549622D01*
X8447261Y47791533D01*
X8241533Y47997261D01*
X7999622Y48158901D01*
X7730825Y48270240D01*
X7445472Y48327000D01*
X7154528Y48327000D01*
X6869175Y48270240D01*
X6600378Y48158901D01*
X6358467Y47997261D01*
X6152739Y47791533D01*
X5991099Y47549622D01*
X5879760Y47280825D01*
X5823000Y46995472D01*
X5127000Y46995472D01*
X5127000Y47044718D01*
X5051025Y47426670D01*
X4901995Y47786461D01*
X4685636Y48110264D01*
X4410264Y48385636D01*
X4086461Y48601995D01*
X3726670Y48751025D01*
X3344718Y48827000D01*
X2955282Y48827000D01*
X2573330Y48751025D01*
X2213539Y48601995D01*
X1889736Y48385636D01*
X1614364Y48110264D01*
X1398005Y47786461D01*
X1248975Y47426670D01*
X1173000Y47044718D01*
X1008791Y47044718D01*
X1042413Y47387613D01*
X1154982Y47760459D01*
X1337830Y48104347D01*
X1583987Y48406165D01*
X1884081Y48654423D01*
X2226677Y48839663D01*
X2598731Y48954833D01*
X3009436Y48998000D01*
X9975347Y48998000D01*
X10000000Y48995572D01*
X10024653Y48998000D01*
X10098409Y49005264D01*
X10193036Y49033969D01*
X10280245Y49080583D01*
X10356684Y49143316D01*
X10419417Y49219755D01*
X10466031Y49306964D01*
X10494736Y49401591D01*
X10504231Y49498000D01*
X39495769Y49498000D01*
X39505264Y49401591D01*
G37*
X39505264Y49401591D02*
X39533969Y49306964D01*
X39580583Y49219755D01*
X39643316Y49143316D01*
X39719755Y49080583D01*
X39806964Y49033969D01*
X39901591Y49005264D01*
X39975347Y48998000D01*
X40000000Y48995572D01*
X40024653Y48998000D01*
X46975450Y48998000D01*
X47387613Y48957587D01*
X47760459Y48845018D01*
X48104347Y48662170D01*
X48406165Y48416013D01*
X48654423Y48115919D01*
X48839663Y47773323D01*
X48954833Y47401269D01*
X48998000Y46990564D01*
X48998001Y40024663D01*
X48995572Y40000000D01*
X49005264Y39901591D01*
X49033969Y39806964D01*
X49080583Y39719755D01*
X49143316Y39643316D01*
X49219755Y39580583D01*
X49306964Y39533969D01*
X49401591Y39505264D01*
X49475347Y39498000D01*
X49498000Y39495769D01*
X49498001Y10504231D01*
X49475347Y10502000D01*
X49401591Y10494736D01*
X49306964Y10466031D01*
X49219755Y10419417D01*
X49143316Y10356684D01*
X49080583Y10280245D01*
X49033969Y10193036D01*
X49005264Y10098409D01*
X48995572Y10000000D01*
X48998001Y9975337D01*
X48998000Y3024551D01*
X48957587Y2612386D01*
X48845018Y2239538D01*
X48662170Y1895654D01*
X48416015Y1593837D01*
X48115922Y1345579D01*
X47773326Y1160338D01*
X47401269Y1045167D01*
X46990564Y1002000D01*
X40024653Y1002000D01*
X40000000Y1004428D01*
X39975347Y1002000D01*
X39901591Y994736D01*
X39806964Y966031D01*
X39719755Y919417D01*
X39643316Y856684D01*
X39580583Y780245D01*
X39533969Y693036D01*
X39505264Y598409D01*
X39495769Y502000D01*
X10504231Y502000D01*
X10494736Y598409D01*
X10466031Y693036D01*
X10419417Y780245D01*
X10356684Y856684D01*
X10280245Y919417D01*
X10193036Y966031D01*
X10098409Y994736D01*
X10024653Y1002000D01*
X10000000Y1004428D01*
X9975347Y1002000D01*
X3024551Y1002000D01*
X2612386Y1042413D01*
X2239538Y1154982D01*
X1895654Y1337830D01*
X1593837Y1583985D01*
X1345579Y1884078D01*
X1160338Y2226674D01*
X1045167Y2598731D01*
X1002000Y3009436D01*
X1002000Y3344718D01*
X1173000Y3344718D01*
X1173000Y2955282D01*
X1248975Y2573330D01*
X1398005Y2213539D01*
X1614364Y1889736D01*
X1889736Y1614364D01*
X2213539Y1398005D01*
X2573330Y1248975D01*
X2955282Y1173000D01*
X3344718Y1173000D01*
X3726670Y1248975D01*
X4086461Y1398005D01*
X4410264Y1614364D01*
X4685636Y1889736D01*
X4901995Y2213539D01*
X5051025Y2573330D01*
X5127000Y2955282D01*
X5127000Y3295472D01*
X5823000Y3295472D01*
X5823000Y3004528D01*
X5879760Y2719175D01*
X5991099Y2450378D01*
X6152739Y2208467D01*
X6358467Y2002739D01*
X6600378Y1841099D01*
X6869175Y1729760D01*
X7154528Y1673000D01*
X7445472Y1673000D01*
X7730825Y1729760D01*
X7999622Y1841099D01*
X8241533Y2002739D01*
X8447261Y2208467D01*
X8608901Y2450378D01*
X8720240Y2719175D01*
X8777000Y3004528D01*
X8777000Y3295472D01*
X8720240Y3580825D01*
X8608901Y3849622D01*
X8447261Y4091533D01*
X8355994Y4182800D01*
X9316822Y4182800D01*
X9341478Y3932465D01*
X9397520Y3747722D01*
X9414499Y3691749D01*
X9533077Y3469904D01*
X9692657Y3275456D01*
X9741380Y3235470D01*
X11346269Y1630580D01*
X11386256Y1581856D01*
X11580704Y1422276D01*
X11802549Y1303698D01*
X12038075Y1232252D01*
X12043264Y1230678D01*
X12293599Y1206022D01*
X12356325Y1212200D01*
X29026474Y1212200D01*
X29089200Y1206022D01*
X29151926Y1212200D01*
X29339536Y1230678D01*
X29580251Y1303698D01*
X29802096Y1422276D01*
X29996544Y1581856D01*
X30036535Y1630585D01*
X30328950Y1923000D01*
X30887274Y1923000D01*
X30950000Y1916822D01*
X31012726Y1923000D01*
X31200336Y1941478D01*
X31441051Y2014498D01*
X31662896Y2133076D01*
X31857344Y2292656D01*
X31897335Y2341385D01*
X32747329Y3191379D01*
X32832756Y3295472D01*
X41223000Y3295472D01*
X41223000Y3004528D01*
X41279760Y2719175D01*
X41391099Y2450378D01*
X41552739Y2208467D01*
X41758467Y2002739D01*
X42000378Y1841099D01*
X42269175Y1729760D01*
X42554528Y1673000D01*
X42845472Y1673000D01*
X43130825Y1729760D01*
X43399622Y1841099D01*
X43641533Y2002739D01*
X43847261Y2208467D01*
X44008901Y2450378D01*
X44120240Y2719175D01*
X44177000Y3004528D01*
X44177000Y3295472D01*
X44167205Y3344718D01*
X44873000Y3344718D01*
X44873000Y2955282D01*
X44948975Y2573330D01*
X45098005Y2213539D01*
X45314364Y1889736D01*
X45589736Y1614364D01*
X45913539Y1398005D01*
X46273330Y1248975D01*
X46655282Y1173000D01*
X47044718Y1173000D01*
X47426670Y1248975D01*
X47786461Y1398005D01*
X48110264Y1614364D01*
X48385636Y1889736D01*
X48601995Y2213539D01*
X48751025Y2573330D01*
X48827000Y2955282D01*
X48827000Y3344718D01*
X48751025Y3726670D01*
X48601995Y4086461D01*
X48385636Y4410264D01*
X48110264Y4685636D01*
X47786461Y4901995D01*
X47426670Y5051025D01*
X47044718Y5127000D01*
X46655282Y5127000D01*
X46273330Y5051025D01*
X45913539Y4901995D01*
X45589736Y4685636D01*
X45314364Y4410264D01*
X45098005Y4086461D01*
X44948975Y3726670D01*
X44873000Y3344718D01*
X44167205Y3344718D01*
X44120240Y3580825D01*
X44008901Y3849622D01*
X43847261Y4091533D01*
X43641533Y4297261D01*
X43399622Y4458901D01*
X43130825Y4570240D01*
X42845472Y4627000D01*
X42554528Y4627000D01*
X42269175Y4570240D01*
X42000378Y4458901D01*
X41758467Y4297261D01*
X41552739Y4091533D01*
X41391099Y3849622D01*
X41279760Y3580825D01*
X41223000Y3295472D01*
X32832756Y3295472D01*
X32866924Y3337105D01*
X32985502Y3558949D01*
X33058523Y3799664D01*
X33072817Y3944802D01*
X33087105Y3933076D01*
X33308950Y3814498D01*
X33549665Y3741478D01*
X33800000Y3716822D01*
X34050336Y3741478D01*
X34291051Y3814498D01*
X34512896Y3933076D01*
X34707344Y4092656D01*
X34866924Y4287104D01*
X34985502Y4508949D01*
X35058522Y4749664D01*
X35077000Y4937275D01*
X35077000Y5280250D01*
X39119751Y9323000D01*
X39390136Y9323000D01*
X39430906Y9301208D01*
X39567718Y9259706D01*
X39709999Y9245693D01*
X40410001Y9245693D01*
X40552282Y9259706D01*
X40689094Y9301208D01*
X40815182Y9368603D01*
X40925698Y9459302D01*
X41016397Y9569818D01*
X41044097Y9621642D01*
X41103693Y9533275D01*
X41276526Y9361922D01*
X41479467Y9227579D01*
X41704718Y9135409D01*
X41742391Y9131538D01*
X41933000Y9256269D01*
X41933000Y10473000D01*
X42187000Y10473000D01*
X42187000Y9256269D01*
X42377609Y9131538D01*
X42415282Y9135409D01*
X42640533Y9227579D01*
X42843474Y9361922D01*
X43016307Y9533275D01*
X43152390Y9735054D01*
X43246493Y9959504D01*
X43295000Y10198000D01*
X43295000Y10473000D01*
X42187000Y10473000D01*
X41933000Y10473000D01*
X41913000Y10473000D01*
X41913000Y10727000D01*
X41933000Y10727000D01*
X41933000Y11943731D01*
X42187000Y11943731D01*
X42187000Y10727000D01*
X43295000Y10727000D01*
X43295000Y11002000D01*
X43246493Y11240496D01*
X43152390Y11464946D01*
X43016307Y11666725D01*
X42843474Y11838078D01*
X42640533Y11972421D01*
X42415282Y12064591D01*
X42377609Y12068462D01*
X42187000Y11943731D01*
X41933000Y11943731D01*
X41742391Y12068462D01*
X41704718Y12064591D01*
X41479467Y11972421D01*
X41276526Y11838078D01*
X41103693Y11666725D01*
X41044097Y11578358D01*
X41016397Y11630182D01*
X40925698Y11740698D01*
X40815182Y11831397D01*
X40689094Y11898792D01*
X40552282Y11940294D01*
X40410001Y11954307D01*
X39709999Y11954307D01*
X39567718Y11940294D01*
X39430906Y11898792D01*
X39390136Y11877000D01*
X38905801Y11877000D01*
X41844201Y14815400D01*
X43764069Y14815400D01*
X43792400Y14812610D01*
X43820731Y14815400D01*
X43820736Y14815400D01*
X43850445Y14818326D01*
X43905511Y14823749D01*
X43950170Y14837297D01*
X44014276Y14856743D01*
X44114515Y14910321D01*
X44202374Y14982426D01*
X44220439Y15004438D01*
X45498363Y16282362D01*
X45520374Y16300426D01*
X45592479Y16388285D01*
X45646057Y16488524D01*
X45679050Y16597288D01*
X45687400Y16682064D01*
X45687400Y16682070D01*
X45690190Y16710399D01*
X45687400Y16738728D01*
X45687400Y30553269D01*
X45690190Y30581600D01*
X45679051Y30694712D01*
X45656736Y30768273D01*
X45646057Y30803476D01*
X45592479Y30903715D01*
X45520374Y30991574D01*
X45498362Y31009639D01*
X45185001Y31323000D01*
X46527469Y31323000D01*
X46759146Y31345818D01*
X47056412Y31435993D01*
X47330373Y31582428D01*
X47570503Y31779497D01*
X47767572Y32019627D01*
X47914007Y32293588D01*
X48004182Y32590854D01*
X48034630Y32900000D01*
X48004182Y33209146D01*
X47914007Y33506412D01*
X47767572Y33780373D01*
X47570503Y34020503D01*
X47330373Y34217572D01*
X47271154Y34249225D01*
X47325149Y34315017D01*
X47439084Y34528176D01*
X47509245Y34759466D01*
X47532936Y35000000D01*
X47509245Y35240534D01*
X47439084Y35471824D01*
X47325149Y35684983D01*
X47171817Y35871817D01*
X47015627Y36000000D01*
X47171817Y36128183D01*
X47325149Y36315017D01*
X47439084Y36528176D01*
X47509245Y36759466D01*
X47532936Y37000000D01*
X47509245Y37240534D01*
X47439084Y37471824D01*
X47328446Y37678814D01*
X47404494Y37719463D01*
X47501185Y37798815D01*
X47580537Y37895506D01*
X47639502Y38005820D01*
X47675812Y38125518D01*
X47688072Y38250000D01*
X47685000Y38714250D01*
X47526250Y38873000D01*
X45927000Y38873000D01*
X45927000Y38853000D01*
X45673000Y38853000D01*
X45673000Y38873000D01*
X44073750Y38873000D01*
X43915000Y38714250D01*
X43911928Y38250000D01*
X43924188Y38125518D01*
X43960498Y38005820D01*
X44019463Y37895506D01*
X44098815Y37798815D01*
X44195506Y37719463D01*
X44271554Y37678814D01*
X44168631Y37486258D01*
X44127885Y37464479D01*
X44083481Y37428037D01*
X44062035Y37410437D01*
X44062033Y37410435D01*
X44040026Y37392374D01*
X44021965Y37370367D01*
X42792033Y36140434D01*
X42770027Y36122374D01*
X42751966Y36100367D01*
X42751963Y36100364D01*
X42728840Y36072188D01*
X42697922Y36034515D01*
X42646457Y35938229D01*
X42644344Y35934276D01*
X42611349Y35825511D01*
X42600210Y35712400D01*
X42603001Y35684059D01*
X42603000Y32540331D01*
X42600210Y32512000D01*
X42611349Y32398889D01*
X42630796Y32334783D01*
X42644343Y32290125D01*
X42697921Y32189886D01*
X42770026Y32102026D01*
X42792038Y32083961D01*
X44533401Y30342598D01*
X44533400Y16949401D01*
X44253000Y16669001D01*
X44253000Y16894698D01*
X44202004Y17151072D01*
X44101972Y17392570D01*
X43956748Y17609913D01*
X43771913Y17794748D01*
X43554570Y17939972D01*
X43327567Y18034000D01*
X43554570Y18128028D01*
X43771913Y18273252D01*
X43956748Y18458087D01*
X44101972Y18675430D01*
X44202004Y18916928D01*
X44253000Y19173302D01*
X44253000Y19434698D01*
X44202004Y19691072D01*
X44101972Y19932570D01*
X43956748Y20149913D01*
X43771913Y20334748D01*
X43554570Y20479972D01*
X43313072Y20580004D01*
X43056698Y20631000D01*
X42795302Y20631000D01*
X42538928Y20580004D01*
X42297430Y20479972D01*
X42080087Y20334748D01*
X41895252Y20149913D01*
X41750028Y19932570D01*
X41656000Y19705567D01*
X41561972Y19932570D01*
X41416748Y20149913D01*
X41231913Y20334748D01*
X41014570Y20479972D01*
X40773072Y20580004D01*
X40516698Y20631000D01*
X40255302Y20631000D01*
X39998928Y20580004D01*
X39757430Y20479972D01*
X39540087Y20334748D01*
X39355252Y20149913D01*
X39210028Y19932570D01*
X39116000Y19705567D01*
X39021972Y19932570D01*
X38876748Y20149913D01*
X38691913Y20334748D01*
X38474570Y20479972D01*
X38233072Y20580004D01*
X37976698Y20631000D01*
X37715302Y20631000D01*
X37458928Y20580004D01*
X37217430Y20479972D01*
X37000087Y20334748D01*
X36815252Y20149913D01*
X36670028Y19932570D01*
X36569996Y19691072D01*
X36519000Y19434698D01*
X36519000Y19173302D01*
X36569996Y18916928D01*
X36670028Y18675430D01*
X36815252Y18458087D01*
X37000087Y18273252D01*
X37032079Y18251876D01*
X36996000Y18252072D01*
X36871518Y18239812D01*
X36751820Y18203502D01*
X36641506Y18144537D01*
X36544815Y18065185D01*
X36465463Y17968494D01*
X36406498Y17858180D01*
X36370188Y17738482D01*
X36357928Y17614000D01*
X36361000Y17049750D01*
X36519750Y16891000D01*
X37719000Y16891000D01*
X37719000Y16911000D01*
X37973000Y16911000D01*
X37973000Y16891000D01*
X37993000Y16891000D01*
X37993000Y16637000D01*
X37973000Y16637000D01*
X37973000Y15437750D01*
X38131750Y15279000D01*
X38694251Y15275938D01*
X38163913Y14745599D01*
X35854621Y14745599D01*
X35842792Y14784594D01*
X35775397Y14910681D01*
X35684698Y15021198D01*
X35574181Y15111897D01*
X35448094Y15179292D01*
X35311281Y15220794D01*
X35169000Y15234807D01*
X33919000Y15234807D01*
X33776719Y15220794D01*
X33639906Y15179292D01*
X33513819Y15111897D01*
X33403302Y15021198D01*
X33312603Y14910681D01*
X33291398Y14871010D01*
X33235397Y14975781D01*
X33144698Y15086298D01*
X33034181Y15176997D01*
X32908094Y15244392D01*
X32771281Y15285894D01*
X32629000Y15299907D01*
X31379000Y15299907D01*
X31236719Y15285894D01*
X31099906Y15244392D01*
X30973819Y15176997D01*
X30863302Y15086298D01*
X30772603Y14975781D01*
X30705208Y14849694D01*
X30673631Y14745599D01*
X29574686Y14745599D01*
X29587507Y14758420D01*
X29624786Y14789014D01*
X29746876Y14937782D01*
X29837597Y15107509D01*
X29871962Y15220794D01*
X29893463Y15291674D01*
X29912327Y15483200D01*
X29907600Y15531193D01*
X29907600Y16370600D01*
X30490928Y16370600D01*
X30503188Y16246118D01*
X30539498Y16126420D01*
X30598463Y16016106D01*
X30677815Y15919415D01*
X30774506Y15840063D01*
X30884820Y15781098D01*
X31004518Y15744788D01*
X31129000Y15732528D01*
X31718250Y15735600D01*
X31877000Y15894350D01*
X31877000Y16956100D01*
X32131000Y16956100D01*
X32131000Y15894350D01*
X32289750Y15735600D01*
X32879000Y15732528D01*
X33003482Y15744788D01*
X33123180Y15781098D01*
X33233494Y15840063D01*
X33234338Y15840755D01*
X33314506Y15774963D01*
X33424820Y15715998D01*
X33544518Y15679688D01*
X33669000Y15667428D01*
X34258250Y15670500D01*
X34417000Y15829250D01*
X34417000Y16891000D01*
X34671000Y16891000D01*
X34671000Y15829250D01*
X34829750Y15670500D01*
X35419000Y15667428D01*
X35543482Y15679688D01*
X35663180Y15715998D01*
X35773494Y15774963D01*
X35870185Y15854315D01*
X35919167Y15914000D01*
X36357928Y15914000D01*
X36370188Y15789518D01*
X36406498Y15669820D01*
X36465463Y15559506D01*
X36544815Y15462815D01*
X36641506Y15383463D01*
X36751820Y15324498D01*
X36871518Y15288188D01*
X36996000Y15275928D01*
X37560250Y15279000D01*
X37719000Y15437750D01*
X37719000Y16637000D01*
X36519750Y16637000D01*
X36361000Y16478250D01*
X36357928Y15914000D01*
X35919167Y15914000D01*
X35949537Y15951006D01*
X36008502Y16061320D01*
X36044812Y16181018D01*
X36057072Y16305500D01*
X36054000Y16732250D01*
X35895250Y16891000D01*
X34671000Y16891000D01*
X34417000Y16891000D01*
X33420350Y16891000D01*
X33355250Y16956100D01*
X32131000Y16956100D01*
X31877000Y16956100D01*
X30652750Y16956100D01*
X30494000Y16797350D01*
X30490928Y16370600D01*
X29907600Y16370600D01*
X29907600Y17424346D01*
X29918863Y17461475D01*
X29933000Y17605007D01*
X29933000Y17605008D01*
X29937727Y17652999D01*
X29933000Y17700992D01*
X29933000Y17795600D01*
X30490928Y17795600D01*
X30494000Y17368850D01*
X30652750Y17210100D01*
X31877000Y17210100D01*
X31877000Y18271850D01*
X32131000Y18271850D01*
X32131000Y17210100D01*
X33127650Y17210100D01*
X33192750Y17145000D01*
X34417000Y17145000D01*
X34417000Y18206750D01*
X34671000Y18206750D01*
X34671000Y17145000D01*
X35895250Y17145000D01*
X36054000Y17303750D01*
X36057072Y17730500D01*
X36044812Y17854982D01*
X36008502Y17974680D01*
X35949537Y18084994D01*
X35870185Y18181685D01*
X35773494Y18261037D01*
X35663180Y18320002D01*
X35543482Y18356312D01*
X35419000Y18368572D01*
X34829750Y18365500D01*
X34671000Y18206750D01*
X34417000Y18206750D01*
X34258250Y18365500D01*
X33669000Y18368572D01*
X33544518Y18356312D01*
X33424820Y18320002D01*
X33314506Y18261037D01*
X33313662Y18260345D01*
X33233494Y18326137D01*
X33123180Y18385102D01*
X33003482Y18421412D01*
X32879000Y18433672D01*
X32289750Y18430600D01*
X32131000Y18271850D01*
X31877000Y18271850D01*
X31718250Y18430600D01*
X31129000Y18433672D01*
X31004518Y18421412D01*
X30884820Y18385102D01*
X30774506Y18326137D01*
X30677815Y18246785D01*
X30598463Y18150094D01*
X30539498Y18039780D01*
X30503188Y17920082D01*
X30490928Y17795600D01*
X29933000Y17795600D01*
X29933000Y19661314D01*
X31697487Y21425800D01*
X33413351Y21425800D01*
X33398724Y21352261D01*
X33398724Y21199205D01*
X33428583Y21049090D01*
X33487155Y20907685D01*
X33572188Y20780424D01*
X33680415Y20672197D01*
X33807676Y20587164D01*
X33949081Y20528592D01*
X34099196Y20498733D01*
X34252252Y20498733D01*
X34402367Y20528592D01*
X34543772Y20587164D01*
X34671033Y20672197D01*
X34697569Y20698733D01*
X39789402Y20698733D01*
X39817733Y20695943D01*
X39846064Y20698733D01*
X39846069Y20698733D01*
X39875778Y20701659D01*
X39930844Y20707082D01*
X39983010Y20722907D01*
X40039609Y20740076D01*
X40139848Y20793654D01*
X40227707Y20865759D01*
X40245772Y20887771D01*
X42487358Y23129357D01*
X42538928Y23107996D01*
X42795302Y23057000D01*
X43056698Y23057000D01*
X43313072Y23107996D01*
X43554570Y23208028D01*
X43771913Y23353252D01*
X43956748Y23538087D01*
X44101972Y23755430D01*
X44202004Y23996928D01*
X44253000Y24253302D01*
X44253000Y24514698D01*
X44202004Y24771072D01*
X44101972Y25012570D01*
X43956748Y25229913D01*
X43771913Y25414748D01*
X43554570Y25559972D01*
X43327567Y25654000D01*
X43554570Y25748028D01*
X43771913Y25893252D01*
X43956748Y26078087D01*
X44101972Y26295430D01*
X44202004Y26536928D01*
X44253000Y26793302D01*
X44253000Y27054698D01*
X44202004Y27311072D01*
X44101972Y27552570D01*
X43956748Y27769913D01*
X43771913Y27954748D01*
X43554570Y28099972D01*
X43313072Y28200004D01*
X43056698Y28251000D01*
X42795302Y28251000D01*
X42538928Y28200004D01*
X42297430Y28099972D01*
X42080087Y27954748D01*
X41895252Y27769913D01*
X41750028Y27552570D01*
X41656000Y27325567D01*
X41561972Y27552570D01*
X41416748Y27769913D01*
X41231913Y27954748D01*
X41014570Y28099972D01*
X40773072Y28200004D01*
X40516698Y28251000D01*
X40255302Y28251000D01*
X39998928Y28200004D01*
X39757430Y28099972D01*
X39540087Y27954748D01*
X39355252Y27769913D01*
X39210028Y27552570D01*
X39116000Y27325567D01*
X39021972Y27552570D01*
X38876748Y27769913D01*
X38691913Y27954748D01*
X38474570Y28099972D01*
X38233072Y28200004D01*
X37976698Y28251000D01*
X37715302Y28251000D01*
X37458928Y28200004D01*
X37217430Y28099972D01*
X37000087Y27954748D01*
X36815252Y27769913D01*
X36670028Y27552570D01*
X36569996Y27311072D01*
X36519000Y27054698D01*
X36519000Y26793302D01*
X36569996Y26536928D01*
X36670028Y26295430D01*
X36815252Y26078087D01*
X37000087Y25893252D01*
X37032079Y25871876D01*
X36996000Y25872072D01*
X36871518Y25859812D01*
X36751820Y25823502D01*
X36641506Y25764537D01*
X36544815Y25685185D01*
X36465463Y25588494D01*
X36406498Y25478180D01*
X36370188Y25358482D01*
X36357928Y25234000D01*
X36361000Y24669750D01*
X36519750Y24511000D01*
X37719000Y24511000D01*
X37719000Y24531000D01*
X37973000Y24531000D01*
X37973000Y24511000D01*
X37993000Y24511000D01*
X37993000Y24257000D01*
X37973000Y24257000D01*
X37973000Y24237000D01*
X37719000Y24237000D01*
X37719000Y24257000D01*
X36519750Y24257000D01*
X36361000Y24098250D01*
X36357928Y23534000D01*
X36370188Y23409518D01*
X36379203Y23379800D01*
X35844095Y23379800D01*
X35842792Y23384094D01*
X35775397Y23510181D01*
X35684698Y23620698D01*
X35574181Y23711397D01*
X35448094Y23778792D01*
X35311281Y23820294D01*
X35169000Y23834307D01*
X33919000Y23834307D01*
X33776719Y23820294D01*
X33639906Y23778792D01*
X33513819Y23711397D01*
X33403302Y23620698D01*
X33401000Y23617893D01*
X33398698Y23620698D01*
X33288181Y23711397D01*
X33162094Y23778792D01*
X33025281Y23820294D01*
X32883000Y23834307D01*
X31633000Y23834307D01*
X31490719Y23820294D01*
X31353906Y23778792D01*
X31227819Y23711397D01*
X31117302Y23620698D01*
X31026603Y23510181D01*
X30959208Y23384094D01*
X30938653Y23316332D01*
X30917109Y23309797D01*
X30747382Y23219076D01*
X30598614Y23096986D01*
X30568020Y23059707D01*
X29933000Y22424687D01*
X29933000Y24905000D01*
X30744928Y24905000D01*
X30757188Y24780518D01*
X30793498Y24660820D01*
X30852463Y24550506D01*
X30931815Y24453815D01*
X31028506Y24374463D01*
X31138820Y24315498D01*
X31258518Y24279188D01*
X31383000Y24266928D01*
X31972250Y24270000D01*
X32131000Y24428750D01*
X32131000Y25490500D01*
X32385000Y25490500D01*
X32385000Y24428750D01*
X32543750Y24270000D01*
X33133000Y24266928D01*
X33257482Y24279188D01*
X33377180Y24315498D01*
X33401000Y24328230D01*
X33424820Y24315498D01*
X33544518Y24279188D01*
X33669000Y24266928D01*
X34258250Y24270000D01*
X34417000Y24428750D01*
X34417000Y25490500D01*
X34671000Y25490500D01*
X34671000Y24428750D01*
X34829750Y24270000D01*
X35419000Y24266928D01*
X35543482Y24279188D01*
X35663180Y24315498D01*
X35773494Y24374463D01*
X35870185Y24453815D01*
X35949537Y24550506D01*
X36008502Y24660820D01*
X36044812Y24780518D01*
X36057072Y24905000D01*
X36054000Y25331750D01*
X35895250Y25490500D01*
X34671000Y25490500D01*
X34417000Y25490500D01*
X32385000Y25490500D01*
X32131000Y25490500D01*
X30906750Y25490500D01*
X30748000Y25331750D01*
X30744928Y24905000D01*
X29933000Y24905000D01*
X29933000Y26330000D01*
X30744928Y26330000D01*
X30748000Y25903250D01*
X30906750Y25744500D01*
X32131000Y25744500D01*
X32131000Y26806250D01*
X32385000Y26806250D01*
X32385000Y25744500D01*
X34417000Y25744500D01*
X34417000Y26806250D01*
X34671000Y26806250D01*
X34671000Y25744500D01*
X35895250Y25744500D01*
X36054000Y25903250D01*
X36057072Y26330000D01*
X36044812Y26454482D01*
X36008502Y26574180D01*
X35949537Y26684494D01*
X35870185Y26781185D01*
X35773494Y26860537D01*
X35663180Y26919502D01*
X35543482Y26955812D01*
X35419000Y26968072D01*
X34829750Y26965000D01*
X34671000Y26806250D01*
X34417000Y26806250D01*
X34258250Y26965000D01*
X33669000Y26968072D01*
X33544518Y26955812D01*
X33424820Y26919502D01*
X33401000Y26906770D01*
X33377180Y26919502D01*
X33257482Y26955812D01*
X33133000Y26968072D01*
X32543750Y26965000D01*
X32385000Y26806250D01*
X32131000Y26806250D01*
X31972250Y26965000D01*
X31383000Y26968072D01*
X31258518Y26955812D01*
X31138820Y26919502D01*
X31028506Y26860537D01*
X30931815Y26781185D01*
X30852463Y26684494D01*
X30793498Y26574180D01*
X30757188Y26454482D01*
X30744928Y26330000D01*
X29933000Y26330000D01*
X29933000Y31702010D01*
X29937727Y31750001D01*
X29933000Y31797993D01*
X29933000Y41100000D01*
X43565370Y41100000D01*
X43595818Y40790854D01*
X43685993Y40493588D01*
X43832428Y40219627D01*
X43982960Y40036203D01*
X43960498Y39994180D01*
X43924188Y39874482D01*
X43911928Y39750000D01*
X43915000Y39285750D01*
X44073750Y39127000D01*
X45673000Y39127000D01*
X45673000Y39147000D01*
X45927000Y39147000D01*
X45927000Y39127000D01*
X47526250Y39127000D01*
X47685000Y39285750D01*
X47688072Y39750000D01*
X47675812Y39874482D01*
X47639502Y39994180D01*
X47617040Y40036203D01*
X47767572Y40219627D01*
X47914007Y40493588D01*
X48004182Y40790854D01*
X48034630Y41100000D01*
X48004182Y41409146D01*
X47914007Y41706412D01*
X47767572Y41980373D01*
X47570503Y42220503D01*
X47330373Y42417572D01*
X47056412Y42564007D01*
X46759146Y42654182D01*
X46527469Y42677000D01*
X45072531Y42677000D01*
X44840854Y42654182D01*
X44543588Y42564007D01*
X44269627Y42417572D01*
X44029497Y42220503D01*
X43832428Y41980373D01*
X43685993Y41706412D01*
X43595818Y41409146D01*
X43565370Y41100000D01*
X29933000Y41100000D01*
X29933000Y44185820D01*
X29999833Y44310856D01*
X30000000Y44311407D01*
X30000167Y44310857D01*
X30100174Y44123756D01*
X30234761Y43959761D01*
X30398756Y43825174D01*
X30585856Y43725167D01*
X30788871Y43663583D01*
X31000000Y43642789D01*
X31211128Y43663583D01*
X31414143Y43725167D01*
X31601244Y43825174D01*
X31765239Y43959761D01*
X31899826Y44123756D01*
X31943164Y44204836D01*
X31976208Y44095906D01*
X32043603Y43969818D01*
X32134302Y43859302D01*
X32244818Y43768603D01*
X32370906Y43701208D01*
X32507718Y43659706D01*
X32649999Y43645693D01*
X33350001Y43645693D01*
X33492282Y43659706D01*
X33629094Y43701208D01*
X33755182Y43768603D01*
X33865698Y43859302D01*
X33956397Y43969818D01*
X34023792Y44095906D01*
X34065294Y44232718D01*
X34079307Y44374999D01*
X34079307Y45625001D01*
X34065294Y45767282D01*
X34023792Y45904094D01*
X33956397Y46030182D01*
X33865698Y46140698D01*
X33755182Y46231397D01*
X33629094Y46298792D01*
X33492282Y46340294D01*
X33350001Y46354307D01*
X32649999Y46354307D01*
X32507718Y46340294D01*
X32370906Y46298792D01*
X32244818Y46231397D01*
X32134302Y46140698D01*
X32043603Y46030182D01*
X31976208Y45904094D01*
X31943164Y45795164D01*
X31899826Y45876244D01*
X31765239Y46040239D01*
X31601244Y46174826D01*
X31414144Y46274833D01*
X31211129Y46336417D01*
X31000000Y46357211D01*
X30788872Y46336417D01*
X30585857Y46274833D01*
X30398757Y46174826D01*
X30234762Y46040239D01*
X30100175Y45876244D01*
X30000168Y45689144D01*
X30000000Y45688591D01*
X29999833Y45689143D01*
X29899826Y45876244D01*
X29765239Y46040239D01*
X29601244Y46174826D01*
X29414144Y46274833D01*
X29211129Y46336417D01*
X29000000Y46357211D01*
X28788872Y46336417D01*
X28585857Y46274833D01*
X28398757Y46174826D01*
X28234762Y46040239D01*
X28100175Y45876244D01*
X28093158Y45863115D01*
X28092390Y45864946D01*
X27956307Y46066725D01*
X27783474Y46238078D01*
X27580533Y46372421D01*
X27355282Y46464591D01*
X27317609Y46468462D01*
X27127000Y46343731D01*
X27127000Y45127000D01*
X27147000Y45127000D01*
X27147000Y44873000D01*
X27127000Y44873000D01*
X27127000Y43656269D01*
X27317609Y43531538D01*
X27355282Y43535409D01*
X27580533Y43627579D01*
X27783474Y43761922D01*
X27956307Y43933275D01*
X27979001Y43966925D01*
X27979000Y35994608D01*
X27979001Y35994598D01*
X27979001Y34108686D01*
X26378784Y35708902D01*
X26348186Y35746186D01*
X26199418Y35868276D01*
X26029691Y35958997D01*
X25845525Y36014863D01*
X25701993Y36029000D01*
X25654000Y36033727D01*
X25606007Y36029000D01*
X18585847Y36029000D01*
X18688336Y36131489D01*
X18773369Y36258750D01*
X18831941Y36400155D01*
X18861800Y36550270D01*
X18861800Y36703326D01*
X18831941Y36853441D01*
X18773369Y36994846D01*
X18688336Y37122107D01*
X18580109Y37230334D01*
X18484000Y37294552D01*
X18484000Y42667999D01*
X19483158Y43667156D01*
X19507718Y43659706D01*
X19649999Y43645693D01*
X20350001Y43645693D01*
X20492282Y43659706D01*
X20629094Y43701208D01*
X20755182Y43768603D01*
X20865698Y43859302D01*
X20956397Y43969818D01*
X21023792Y44095906D01*
X21065294Y44232718D01*
X21079307Y44374999D01*
X21079307Y44873000D01*
X25765000Y44873000D01*
X25765000Y44598000D01*
X25813507Y44359504D01*
X25907610Y44135054D01*
X26043693Y43933275D01*
X26216526Y43761922D01*
X26419467Y43627579D01*
X26644718Y43535409D01*
X26682391Y43531538D01*
X26873000Y43656269D01*
X26873000Y44873000D01*
X25765000Y44873000D01*
X21079307Y44873000D01*
X21079307Y45402000D01*
X25765000Y45402000D01*
X25765000Y45127000D01*
X26873000Y45127000D01*
X26873000Y46343731D01*
X26682391Y46468462D01*
X26644718Y46464591D01*
X26419467Y46372421D01*
X26216526Y46238078D01*
X26043693Y46066725D01*
X25907610Y45864946D01*
X25813507Y45640496D01*
X25765000Y45402000D01*
X21079307Y45402000D01*
X21079307Y45625001D01*
X21065294Y45767282D01*
X21023792Y45904094D01*
X20956397Y46030182D01*
X20865698Y46140698D01*
X20755182Y46231397D01*
X20629094Y46298792D01*
X20492282Y46340294D01*
X20350001Y46354307D01*
X19649999Y46354307D01*
X19507718Y46340294D01*
X19370906Y46298792D01*
X19244818Y46231397D01*
X19134302Y46140698D01*
X19043603Y46030182D01*
X18976208Y45904094D01*
X18943164Y45795164D01*
X18899826Y45876244D01*
X18765239Y46040239D01*
X18601244Y46174826D01*
X18414144Y46274833D01*
X18211129Y46336417D01*
X18000000Y46357211D01*
X17788872Y46336417D01*
X17585857Y46274833D01*
X17398757Y46174826D01*
X17234762Y46040239D01*
X17100175Y45876244D01*
X17000168Y45689144D01*
X17000000Y45688591D01*
X16999833Y45689143D01*
X16899826Y45876244D01*
X16765239Y46040239D01*
X16601244Y46174826D01*
X16414144Y46274833D01*
X16211129Y46336417D01*
X16000000Y46357211D01*
X15788872Y46336417D01*
X15585857Y46274833D01*
X15398757Y46174826D01*
X15234762Y46040239D01*
X15100175Y45876244D01*
X15093158Y45863115D01*
X15092390Y45864946D01*
X14956307Y46066725D01*
X14783474Y46238078D01*
X14580533Y46372421D01*
X14355282Y46464591D01*
X14317609Y46468462D01*
X14127000Y46343731D01*
X14127000Y45127000D01*
X14147000Y45127000D01*
X14147000Y44873000D01*
X14127000Y44873000D01*
X14127000Y43656269D01*
X14317609Y43531538D01*
X14355282Y43535409D01*
X14580533Y43627579D01*
X14783474Y43761922D01*
X14956307Y43933275D01*
X15092390Y44135054D01*
X15093157Y44136884D01*
X15100174Y44123756D01*
X15234761Y43959761D01*
X15279000Y43923455D01*
X15279001Y36624003D01*
X15274273Y36576000D01*
X15293137Y36384475D01*
X15349003Y36200310D01*
X15349004Y36200309D01*
X15439725Y36030582D01*
X15561815Y35881814D01*
X15599093Y35851221D01*
X17055220Y34395093D01*
X17085814Y34357814D01*
X17234582Y34235724D01*
X17404309Y34145003D01*
X17588475Y34089137D01*
X17732007Y34075000D01*
X17732016Y34075000D01*
X17779999Y34070274D01*
X17827982Y34075000D01*
X25249314Y34075000D01*
X27979000Y31345313D01*
X27979000Y30686008D01*
X27979001Y30685998D01*
X27979000Y25700806D01*
X27979001Y25700796D01*
X27979000Y21598617D01*
X27861843Y21647145D01*
X27711728Y21677004D01*
X27558672Y21677004D01*
X27408557Y21647145D01*
X27267152Y21588573D01*
X27139891Y21503540D01*
X27092151Y21455800D01*
X25515778Y21455800D01*
X25626679Y21477859D01*
X25768084Y21536431D01*
X25895345Y21621464D01*
X26003572Y21729691D01*
X26088605Y21856952D01*
X26147177Y21998357D01*
X26177036Y22148472D01*
X26177036Y22301528D01*
X26147177Y22451643D01*
X26088605Y22593048D01*
X26003572Y22720309D01*
X25895345Y22828536D01*
X25768084Y22913569D01*
X25626679Y22972141D01*
X25476564Y23002000D01*
X25413713Y23002000D01*
X25342512Y23040057D01*
X25277734Y23059707D01*
X25233747Y23073051D01*
X25198506Y23076521D01*
X25164503Y23140137D01*
X25075359Y23248759D01*
X24966737Y23337903D01*
X24842810Y23404143D01*
X24708342Y23444934D01*
X24568500Y23458707D01*
X24533908Y23458707D01*
X26422962Y25347761D01*
X26444974Y25365826D01*
X26517079Y25453685D01*
X26570657Y25553924D01*
X26603650Y25662688D01*
X26612000Y25747464D01*
X26612000Y25747470D01*
X26614790Y25775799D01*
X26612000Y25804128D01*
X26612000Y31086661D01*
X26614791Y31115000D01*
X26603651Y31228112D01*
X26570657Y31336875D01*
X26570657Y31336876D01*
X26517079Y31437115D01*
X26444974Y31524974D01*
X26422963Y31543038D01*
X25828039Y32137962D01*
X25809974Y32159974D01*
X25722115Y32232079D01*
X25621876Y32285657D01*
X25557770Y32305103D01*
X25513111Y32318651D01*
X25458045Y32324074D01*
X25428336Y32327000D01*
X25428331Y32327000D01*
X25400000Y32329790D01*
X25371669Y32327000D01*
X25195898Y32327000D01*
X25164503Y32385737D01*
X25075359Y32494359D01*
X24966737Y32583503D01*
X24842810Y32649743D01*
X24708342Y32690534D01*
X24568500Y32704307D01*
X23993500Y32704307D01*
X23853658Y32690534D01*
X23719190Y32649743D01*
X23595263Y32583503D01*
X23486641Y32494359D01*
X23406000Y32396098D01*
X23325359Y32494359D01*
X23216737Y32583503D01*
X23092810Y32649743D01*
X22958342Y32690534D01*
X22818500Y32704307D01*
X22243500Y32704307D01*
X22103658Y32690534D01*
X21969190Y32649743D01*
X21845263Y32583503D01*
X21736641Y32494359D01*
X21647497Y32385737D01*
X21616213Y32327208D01*
X21589999Y32329790D01*
X21561670Y32327000D01*
X21561664Y32327000D01*
X21476888Y32318650D01*
X21368124Y32285657D01*
X21267885Y32232079D01*
X21180026Y32159974D01*
X21161961Y32137962D01*
X19700999Y30677000D01*
X18442331Y30677000D01*
X18414000Y30679790D01*
X18385669Y30677000D01*
X11821845Y30677000D01*
X11795309Y30703536D01*
X11668048Y30788569D01*
X11526643Y30847141D01*
X11376528Y30877000D01*
X11223472Y30877000D01*
X11073357Y30847141D01*
X10931952Y30788569D01*
X10804691Y30703536D01*
X10696464Y30595309D01*
X10611431Y30468048D01*
X10552859Y30326643D01*
X10523000Y30176528D01*
X10523000Y30023472D01*
X10552859Y29873357D01*
X10611431Y29731952D01*
X10696464Y29604691D01*
X10804691Y29496464D01*
X10931952Y29411431D01*
X11073357Y29352859D01*
X11223472Y29323000D01*
X11376528Y29323000D01*
X11526643Y29352859D01*
X11668048Y29411431D01*
X11795309Y29496464D01*
X11821845Y29523000D01*
X18174999Y29523000D01*
X19482751Y28215247D01*
X19482750Y24593587D01*
X19476277Y24591623D01*
X19393411Y24547330D01*
X19320779Y24487722D01*
X19261171Y24415090D01*
X19216878Y24332224D01*
X19189603Y24242309D01*
X19180393Y24148801D01*
X19180393Y23894801D01*
X19189603Y23801293D01*
X19198549Y23771800D01*
X19189603Y23742308D01*
X19180393Y23648800D01*
X19180393Y23394800D01*
X19189603Y23301292D01*
X19198549Y23271800D01*
X19189603Y23242308D01*
X19180393Y23148800D01*
X19180393Y22894800D01*
X19189603Y22801292D01*
X19198549Y22771800D01*
X19189603Y22742307D01*
X19180393Y22648799D01*
X19180393Y22394799D01*
X19189603Y22301291D01*
X19216878Y22211376D01*
X19261171Y22128510D01*
X19320779Y22055878D01*
X19393411Y21996270D01*
X19476277Y21951977D01*
X19566192Y21924702D01*
X19659700Y21915492D01*
X20459800Y21915492D01*
X20553308Y21924702D01*
X20619560Y21944799D01*
X21606802Y21944799D01*
X21647497Y21868663D01*
X21736641Y21760041D01*
X21813736Y21696770D01*
X21724041Y21623159D01*
X21634897Y21514537D01*
X21568657Y21390610D01*
X21565317Y21379600D01*
X18130933Y21379600D01*
X18102594Y21382391D01*
X17989482Y21371251D01*
X17880717Y21338257D01*
X17861605Y21328041D01*
X17780479Y21284679D01*
X17692620Y21212574D01*
X17674555Y21190562D01*
X16460999Y19977006D01*
X16423472Y19977006D01*
X16273357Y19947147D01*
X16131952Y19888575D01*
X16004691Y19803542D01*
X15896464Y19695315D01*
X15811431Y19568054D01*
X15752859Y19426649D01*
X15723000Y19276534D01*
X15723000Y19123478D01*
X15752859Y18973363D01*
X15811431Y18831958D01*
X15896464Y18704697D01*
X16004691Y18596470D01*
X16131952Y18511437D01*
X16273357Y18452865D01*
X16423472Y18423006D01*
X16576528Y18423006D01*
X16726643Y18452865D01*
X16868048Y18511437D01*
X16995309Y18596470D01*
X17103536Y18704697D01*
X17188569Y18831958D01*
X17247141Y18973363D01*
X17277000Y19123478D01*
X17277000Y19161005D01*
X18341595Y20225600D01*
X21649229Y20225600D01*
X21724041Y20134441D01*
X21745537Y20116800D01*
X21724041Y20099159D01*
X21634897Y19990537D01*
X21568657Y19866610D01*
X21535088Y19755949D01*
X21435643Y19797141D01*
X21285528Y19827000D01*
X21132472Y19827000D01*
X20982357Y19797141D01*
X20840952Y19738569D01*
X20713691Y19653536D01*
X20605464Y19545309D01*
X20520431Y19418048D01*
X20461859Y19276643D01*
X20432000Y19126528D01*
X20432000Y18973472D01*
X20461859Y18823357D01*
X20520431Y18681952D01*
X20605464Y18554691D01*
X20713691Y18446464D01*
X20840952Y18361431D01*
X20982357Y18302859D01*
X21132472Y18273000D01*
X21285528Y18273000D01*
X21435643Y18302859D01*
X21577048Y18361431D01*
X21704309Y18446464D01*
X21730845Y18473000D01*
X21923021Y18473000D01*
X21956590Y18455057D01*
X22091058Y18414266D01*
X22230900Y18400493D01*
X22805900Y18400493D01*
X22945742Y18414266D01*
X23080210Y18455057D01*
X23204137Y18521297D01*
X23312759Y18610441D01*
X23393400Y18708702D01*
X23474041Y18610441D01*
X23582663Y18521297D01*
X23706590Y18455057D01*
X23841058Y18414266D01*
X23980900Y18400493D01*
X24555900Y18400493D01*
X24695742Y18414266D01*
X24830210Y18455057D01*
X24954137Y18521297D01*
X25062759Y18610441D01*
X25151903Y18719063D01*
X25183298Y18777800D01*
X25717669Y18777800D01*
X25746000Y18775010D01*
X25774331Y18777800D01*
X25774336Y18777800D01*
X25804045Y18780726D01*
X25859111Y18786149D01*
X25903770Y18799697D01*
X25967876Y18819143D01*
X26068115Y18872721D01*
X26155974Y18944826D01*
X26174039Y18966838D01*
X26709001Y19501800D01*
X26746528Y19501800D01*
X26896643Y19531659D01*
X27038048Y19590231D01*
X27165309Y19675264D01*
X27273536Y19783491D01*
X27358569Y19910752D01*
X27417141Y20052157D01*
X27436083Y20147388D01*
X27558672Y20123004D01*
X27711728Y20123004D01*
X27861843Y20152863D01*
X27979000Y20201391D01*
X27979000Y20113996D01*
X27974273Y20066000D01*
X27979000Y20018004D01*
X27979000Y17856254D01*
X27967737Y17819125D01*
X27948873Y17627600D01*
X27953600Y17579607D01*
X27953601Y15887888D01*
X26559097Y14493383D01*
X26521813Y14462785D01*
X26491220Y14425506D01*
X22045021Y9979307D01*
X21150000Y9979307D01*
X21056492Y9970097D01*
X20966577Y9942822D01*
X20883711Y9898529D01*
X20811079Y9838921D01*
X20751471Y9766289D01*
X20707178Y9683423D01*
X20705230Y9677000D01*
X14647990Y9677000D01*
X14599999Y9681727D01*
X14552009Y9677000D01*
X14552007Y9677000D01*
X14408475Y9662863D01*
X14224309Y9606997D01*
X14054582Y9516276D01*
X13905814Y9394186D01*
X13875220Y9356907D01*
X13647620Y9129307D01*
X12950000Y9129307D01*
X12807719Y9115294D01*
X12670906Y9073792D01*
X12544819Y9006397D01*
X12434302Y8915698D01*
X12343603Y8805181D01*
X12276208Y8679094D01*
X12234706Y8542281D01*
X12220693Y8400000D01*
X12220693Y7200000D01*
X12234706Y7057719D01*
X12276208Y6920906D01*
X12343603Y6794819D01*
X12434302Y6684302D01*
X12544819Y6593603D01*
X12670906Y6526208D01*
X12706423Y6515434D01*
X12558205Y6406802D01*
X12361336Y6192046D01*
X12210146Y5943009D01*
X12110446Y5669261D01*
X12108524Y5656890D01*
X12229845Y5427000D01*
X13573000Y5427000D01*
X13573000Y5447000D01*
X13827000Y5447000D01*
X13827000Y5427000D01*
X15170155Y5427000D01*
X15291476Y5656890D01*
X15289554Y5669261D01*
X15189854Y5943009D01*
X15038664Y6192046D01*
X14841795Y6406802D01*
X14693577Y6515434D01*
X14729094Y6526208D01*
X14855181Y6593603D01*
X14965698Y6684302D01*
X15056397Y6794819D01*
X15123792Y6920906D01*
X15165294Y7057719D01*
X15179307Y7200000D01*
X15179307Y7723000D01*
X20670693Y7723000D01*
X20670693Y7700000D01*
X20679903Y7606492D01*
X20707178Y7516577D01*
X20751471Y7433711D01*
X20811079Y7361079D01*
X20883711Y7301471D01*
X20966577Y7257178D01*
X21056492Y7229903D01*
X21150000Y7220693D01*
X24650000Y7220693D01*
X24743508Y7229903D01*
X24833423Y7257178D01*
X24916289Y7301471D01*
X24988921Y7361079D01*
X25048529Y7433711D01*
X25092822Y7516577D01*
X25120097Y7606492D01*
X25129307Y7700000D01*
X25129307Y9500000D01*
X25120097Y9593508D01*
X25092822Y9683423D01*
X25048529Y9766289D01*
X24988921Y9838921D01*
X24916289Y9898529D01*
X24833423Y9942822D01*
X24786225Y9957139D01*
X27620686Y12791599D01*
X38188398Y12791599D01*
X34973799Y9577000D01*
X33153328Y9577000D01*
X33124999Y9579790D01*
X33096670Y9577000D01*
X33096664Y9577000D01*
X33011888Y9568650D01*
X32903124Y9535657D01*
X32802885Y9482079D01*
X32715026Y9409974D01*
X32696963Y9387964D01*
X32063306Y8754307D01*
X31637500Y8754307D01*
X31497658Y8740534D01*
X31363190Y8699743D01*
X31239263Y8633503D01*
X31130641Y8544359D01*
X31041497Y8435737D01*
X30975257Y8311810D01*
X30934466Y8177342D01*
X30920693Y8037500D01*
X30920693Y7562500D01*
X30934466Y7422658D01*
X30975257Y7288190D01*
X31041497Y7164263D01*
X31130641Y7055641D01*
X31239263Y6966497D01*
X31348000Y6908376D01*
X31348000Y6829110D01*
X31256492Y6820097D01*
X31166577Y6792822D01*
X31083711Y6748529D01*
X31011079Y6688921D01*
X30951471Y6616289D01*
X30907178Y6533423D01*
X30879903Y6443508D01*
X30870693Y6350000D01*
X30870693Y5550000D01*
X30879903Y5456492D01*
X30907178Y5366577D01*
X30951471Y5283711D01*
X31011079Y5211079D01*
X31083711Y5151471D01*
X31117724Y5133290D01*
X31087105Y5116924D01*
X30941379Y4997329D01*
X30528105Y4584055D01*
X30494186Y4625386D01*
X30456902Y4655984D01*
X28877000Y6235886D01*
X28877000Y7220693D01*
X29650000Y7220693D01*
X29743508Y7229903D01*
X29833423Y7257178D01*
X29916289Y7301471D01*
X29988921Y7361079D01*
X30048529Y7433711D01*
X30092822Y7516577D01*
X30120097Y7606492D01*
X30129307Y7700000D01*
X30129307Y9500000D01*
X30120097Y9593508D01*
X30092822Y9683423D01*
X30048529Y9766289D01*
X29988921Y9838921D01*
X29916289Y9898529D01*
X29833423Y9942822D01*
X29743508Y9970097D01*
X29650000Y9979307D01*
X26150000Y9979307D01*
X26056492Y9970097D01*
X25966577Y9942822D01*
X25883711Y9898529D01*
X25811079Y9838921D01*
X25751471Y9766289D01*
X25707178Y9683423D01*
X25679903Y9593508D01*
X25670693Y9500000D01*
X25670693Y7700000D01*
X25679903Y7606492D01*
X25707178Y7516577D01*
X25751471Y7433711D01*
X25811079Y7361079D01*
X25883711Y7301471D01*
X25966577Y7257178D01*
X26056492Y7229903D01*
X26150000Y7220693D01*
X26923001Y7220693D01*
X26923000Y5879193D01*
X26918273Y5831200D01*
X26937137Y5639675D01*
X26972845Y5521963D01*
X26993003Y5455510D01*
X27083724Y5285782D01*
X27205814Y5137014D01*
X27243098Y5106416D01*
X28571782Y3777732D01*
X28560250Y3766200D01*
X12822551Y3766200D01*
X11877000Y4711750D01*
X11877000Y4943110D01*
X12108524Y4943110D01*
X12110446Y4930739D01*
X12210146Y4656991D01*
X12361336Y4407954D01*
X12558205Y4193198D01*
X12793188Y4020975D01*
X13057255Y3897904D01*
X13340258Y3828715D01*
X13573000Y3972768D01*
X13573000Y5173000D01*
X13827000Y5173000D01*
X13827000Y3972768D01*
X14059742Y3828715D01*
X14342745Y3897904D01*
X14606812Y4020975D01*
X14841795Y4193198D01*
X15038664Y4407954D01*
X15189854Y4656991D01*
X15289554Y4930739D01*
X15291476Y4943110D01*
X15170155Y5173000D01*
X13827000Y5173000D01*
X13573000Y5173000D01*
X12229845Y5173000D01*
X12108524Y4943110D01*
X11877000Y4943110D01*
X11877000Y6136728D01*
X11858522Y6324338D01*
X11785502Y6565053D01*
X11666924Y6786898D01*
X11507344Y6981346D01*
X11312895Y7140926D01*
X11091050Y7259504D01*
X10850335Y7332524D01*
X10600000Y7357180D01*
X10349664Y7332524D01*
X10108949Y7259504D01*
X9887104Y7140926D01*
X9692656Y6981346D01*
X9533076Y6786897D01*
X9414498Y6565052D01*
X9341478Y6324337D01*
X9323000Y6136727D01*
X9323001Y4245535D01*
X9316822Y4182800D01*
X8355994Y4182800D01*
X8241533Y4297261D01*
X7999622Y4458901D01*
X7730825Y4570240D01*
X7445472Y4627000D01*
X7154528Y4627000D01*
X6869175Y4570240D01*
X6600378Y4458901D01*
X6358467Y4297261D01*
X6152739Y4091533D01*
X5991099Y3849622D01*
X5879760Y3580825D01*
X5823000Y3295472D01*
X5127000Y3295472D01*
X5127000Y3344718D01*
X5051025Y3726670D01*
X4901995Y4086461D01*
X4685636Y4410264D01*
X4410264Y4685636D01*
X4086461Y4901995D01*
X3726670Y5051025D01*
X3344718Y5127000D01*
X2955282Y5127000D01*
X2573330Y5051025D01*
X2213539Y4901995D01*
X1889736Y4685636D01*
X1614364Y4410264D01*
X1398005Y4086461D01*
X1248975Y3726670D01*
X1173000Y3344718D01*
X1002000Y3344718D01*
X1002000Y9975348D01*
X1004428Y10000000D01*
X994736Y10098409D01*
X966031Y10193036D01*
X919417Y10280245D01*
X856684Y10356684D01*
X780245Y10419417D01*
X693036Y10466031D01*
X598409Y10494736D01*
X524653Y10502000D01*
X502000Y10504231D01*
X502000Y11128674D01*
X5133162Y11128674D01*
X5133162Y10918526D01*
X5174160Y10712415D01*
X5254580Y10518263D01*
X5371333Y10343530D01*
X5519930Y10194933D01*
X5694663Y10078180D01*
X5888815Y9997760D01*
X6094926Y9956762D01*
X6305074Y9956762D01*
X6511185Y9997760D01*
X6705337Y10078180D01*
X6880070Y10194933D01*
X7028667Y10343530D01*
X7145420Y10518263D01*
X7225840Y10712415D01*
X7266838Y10918526D01*
X7266838Y11128674D01*
X7225840Y11334785D01*
X7145420Y11528937D01*
X7028667Y11703670D01*
X6880070Y11852267D01*
X6705337Y11969020D01*
X6511185Y12049440D01*
X6305074Y12090438D01*
X6094926Y12090438D01*
X5888815Y12049440D01*
X5694663Y11969020D01*
X5519930Y11852267D01*
X5371333Y11703670D01*
X5254580Y11528937D01*
X5174160Y11334785D01*
X5133162Y11128674D01*
X502000Y11128674D01*
X502000Y26491114D01*
X10110845Y26491114D01*
X10110845Y26338058D01*
X10140704Y26187943D01*
X10199276Y26046538D01*
X10284309Y25919277D01*
X10310845Y25892741D01*
X10310845Y25452484D01*
X10308055Y25424153D01*
X10310845Y25395822D01*
X10310845Y25395818D01*
X10313082Y25373108D01*
X10319194Y25311042D01*
X10332930Y25265764D01*
X10352188Y25202278D01*
X10405766Y25102039D01*
X10477871Y25014179D01*
X10499884Y24996113D01*
X10683956Y24812042D01*
X10702025Y24790025D01*
X10789884Y24717920D01*
X10890123Y24664342D01*
X10934781Y24650795D01*
X10998887Y24631348D01*
X11111999Y24620208D01*
X11140338Y24622999D01*
X11436736Y24622999D01*
X13384501Y22675233D01*
X13402562Y22653226D01*
X13424569Y22635165D01*
X13424571Y22635163D01*
X13432677Y22628511D01*
X13490421Y22581121D01*
X13590660Y22527543D01*
X13699424Y22494550D01*
X13784200Y22486200D01*
X13784206Y22486200D01*
X13812535Y22483410D01*
X13840864Y22486200D01*
X15913200Y22486200D01*
X15913200Y22394797D01*
X15944948Y22394797D01*
X15913200Y22363049D01*
X15925295Y22256506D01*
X15964243Y22137640D01*
X16025633Y22028657D01*
X16107105Y21933745D01*
X16205528Y21856550D01*
X16317119Y21800041D01*
X16437591Y21766387D01*
X16562313Y21756883D01*
X16662500Y21759799D01*
X16821250Y21918549D01*
X16821250Y22415493D01*
X17075250Y22415493D01*
X17075250Y21918549D01*
X17234000Y21759799D01*
X17334187Y21756883D01*
X17458909Y21766387D01*
X17579381Y21800041D01*
X17690972Y21856550D01*
X17789395Y21933745D01*
X17870867Y22028657D01*
X17932257Y22137640D01*
X17971205Y22256506D01*
X17983300Y22363049D01*
X17824550Y22521799D01*
X17983300Y22680549D01*
X17971205Y22787092D01*
X17932257Y22905958D01*
X17870867Y23014941D01*
X17864980Y23021800D01*
X17870867Y23028658D01*
X17932257Y23137641D01*
X17971205Y23256507D01*
X17983300Y23363050D01*
X17824550Y23521800D01*
X17983300Y23680550D01*
X17971205Y23787093D01*
X17932257Y23905959D01*
X17870867Y24014942D01*
X17827607Y24065338D01*
X17827607Y24148801D01*
X17818397Y24242309D01*
X17791122Y24332224D01*
X17746829Y24415090D01*
X17687221Y24487722D01*
X17614589Y24547330D01*
X17531723Y24591623D01*
X17441808Y24618898D01*
X17348300Y24628108D01*
X16548200Y24628108D01*
X16454692Y24618898D01*
X16364777Y24591623D01*
X16281911Y24547330D01*
X16233200Y24507354D01*
X16157724Y24484458D01*
X16131829Y24470617D01*
X16057486Y24430880D01*
X15969627Y24358775D01*
X15951564Y24336765D01*
X15712199Y24097400D01*
X14310601Y24097400D01*
X13564651Y24843350D01*
X13509974Y24909974D01*
X13487962Y24928039D01*
X12488568Y25927433D01*
X12459919Y26021876D01*
X12406341Y26122115D01*
X12334236Y26209974D01*
X12246377Y26282079D01*
X12146138Y26335657D01*
X12037374Y26368650D01*
X12029408Y26369435D01*
X11995307Y26403536D01*
X11868046Y26488569D01*
X11726641Y26547141D01*
X11650696Y26562247D01*
X11634986Y26641229D01*
X11576414Y26782634D01*
X11491381Y26909895D01*
X11383154Y27018122D01*
X11255893Y27103155D01*
X11114488Y27161727D01*
X10964373Y27191586D01*
X10811317Y27191586D01*
X10661202Y27161727D01*
X10519797Y27103155D01*
X10392536Y27018122D01*
X10284309Y26909895D01*
X10199276Y26782634D01*
X10140704Y26641229D01*
X10110845Y26491114D01*
X502000Y26491114D01*
X502000Y39075511D01*
X5133162Y39075511D01*
X5133162Y38865363D01*
X5174160Y38659252D01*
X5254580Y38465100D01*
X5371333Y38290367D01*
X5519930Y38141770D01*
X5694663Y38025017D01*
X5888815Y37944597D01*
X6094926Y37903599D01*
X6305074Y37903599D01*
X6511185Y37944597D01*
X6705337Y38025017D01*
X6880070Y38141770D01*
X7028667Y38290367D01*
X7145420Y38465100D01*
X7225840Y38659252D01*
X7266838Y38865363D01*
X7266838Y39075511D01*
X7225840Y39281622D01*
X7145420Y39475774D01*
X7028667Y39650507D01*
X6880070Y39799104D01*
X6705337Y39915857D01*
X6511185Y39996277D01*
X6305074Y40037275D01*
X6094926Y40037275D01*
X5888815Y39996277D01*
X5694663Y39915857D01*
X5519930Y39799104D01*
X5371333Y39650507D01*
X5254580Y39475774D01*
X5174160Y39281622D01*
X5133162Y39075511D01*
X502000Y39075511D01*
X502000Y39495769D01*
X524653Y39498000D01*
X598409Y39505264D01*
X693036Y39533969D01*
X780245Y39580583D01*
X856684Y39643316D01*
X919417Y39719755D01*
X966031Y39806964D01*
X994736Y39901591D01*
X1004428Y40000000D01*
X1002000Y40024653D01*
X1002000Y46975450D01*
X1008791Y47044718D01*
X1173000Y47044718D01*
X1173000Y46655282D01*
X1248975Y46273330D01*
X1398005Y45913539D01*
X1614364Y45589736D01*
X1889736Y45314364D01*
X2213539Y45098005D01*
X2573330Y44948975D01*
X2955282Y44873000D01*
X3344718Y44873000D01*
X12765000Y44873000D01*
X12765000Y44598000D01*
X12813507Y44359504D01*
X12907610Y44135054D01*
X13043693Y43933275D01*
X13216526Y43761922D01*
X13419467Y43627579D01*
X13644718Y43535409D01*
X13682391Y43531538D01*
X13873000Y43656269D01*
X13873000Y44873000D01*
X12765000Y44873000D01*
X3344718Y44873000D01*
X3726670Y44948975D01*
X4086461Y45098005D01*
X4410264Y45314364D01*
X4685636Y45589736D01*
X4901995Y45913539D01*
X5051025Y46273330D01*
X5127000Y46655282D01*
X5127000Y46995472D01*
X5823000Y46995472D01*
X5823000Y46704528D01*
X5879760Y46419175D01*
X5991099Y46150378D01*
X6152739Y45908467D01*
X6358467Y45702739D01*
X6600378Y45541099D01*
X6869175Y45429760D01*
X7154528Y45373000D01*
X7445472Y45373000D01*
X7591265Y45402000D01*
X12765000Y45402000D01*
X12765000Y45127000D01*
X13873000Y45127000D01*
X13873000Y46343731D01*
X13682391Y46468462D01*
X13644718Y46464591D01*
X13419467Y46372421D01*
X13216526Y46238078D01*
X13043693Y46066725D01*
X12907610Y45864946D01*
X12813507Y45640496D01*
X12765000Y45402000D01*
X7591265Y45402000D01*
X7730825Y45429760D01*
X7999622Y45541099D01*
X8241533Y45702739D01*
X8447261Y45908467D01*
X8608901Y46150378D01*
X8720240Y46419175D01*
X8777000Y46704528D01*
X8777000Y46995472D01*
X41223000Y46995472D01*
X41223000Y46704528D01*
X41279760Y46419175D01*
X41391099Y46150378D01*
X41552739Y45908467D01*
X41758467Y45702739D01*
X42000378Y45541099D01*
X42269175Y45429760D01*
X42554528Y45373000D01*
X42845472Y45373000D01*
X43130825Y45429760D01*
X43399622Y45541099D01*
X43641533Y45702739D01*
X43847261Y45908467D01*
X44008901Y46150378D01*
X44120240Y46419175D01*
X44177000Y46704528D01*
X44177000Y46995472D01*
X44167205Y47044718D01*
X44873000Y47044718D01*
X44873000Y46655282D01*
X44948975Y46273330D01*
X45098005Y45913539D01*
X45314364Y45589736D01*
X45589736Y45314364D01*
X45913539Y45098005D01*
X46273330Y44948975D01*
X46655282Y44873000D01*
X47044718Y44873000D01*
X47426670Y44948975D01*
X47786461Y45098005D01*
X48110264Y45314364D01*
X48385636Y45589736D01*
X48601995Y45913539D01*
X48751025Y46273330D01*
X48827000Y46655282D01*
X48827000Y47044718D01*
X48751025Y47426670D01*
X48601995Y47786461D01*
X48385636Y48110264D01*
X48110264Y48385636D01*
X47786461Y48601995D01*
X47426670Y48751025D01*
X47044718Y48827000D01*
X46655282Y48827000D01*
X46273330Y48751025D01*
X45913539Y48601995D01*
X45589736Y48385636D01*
X45314364Y48110264D01*
X45098005Y47786461D01*
X44948975Y47426670D01*
X44873000Y47044718D01*
X44167205Y47044718D01*
X44120240Y47280825D01*
X44008901Y47549622D01*
X43847261Y47791533D01*
X43641533Y47997261D01*
X43399622Y48158901D01*
X43130825Y48270240D01*
X42845472Y48327000D01*
X42554528Y48327000D01*
X42269175Y48270240D01*
X42000378Y48158901D01*
X41758467Y47997261D01*
X41552739Y47791533D01*
X41391099Y47549622D01*
X41279760Y47280825D01*
X41223000Y46995472D01*
X8777000Y46995472D01*
X8720240Y47280825D01*
X8608901Y47549622D01*
X8447261Y47791533D01*
X8241533Y47997261D01*
X7999622Y48158901D01*
X7730825Y48270240D01*
X7445472Y48327000D01*
X7154528Y48327000D01*
X6869175Y48270240D01*
X6600378Y48158901D01*
X6358467Y47997261D01*
X6152739Y47791533D01*
X5991099Y47549622D01*
X5879760Y47280825D01*
X5823000Y46995472D01*
X5127000Y46995472D01*
X5127000Y47044718D01*
X5051025Y47426670D01*
X4901995Y47786461D01*
X4685636Y48110264D01*
X4410264Y48385636D01*
X4086461Y48601995D01*
X3726670Y48751025D01*
X3344718Y48827000D01*
X2955282Y48827000D01*
X2573330Y48751025D01*
X2213539Y48601995D01*
X1889736Y48385636D01*
X1614364Y48110264D01*
X1398005Y47786461D01*
X1248975Y47426670D01*
X1173000Y47044718D01*
X1008791Y47044718D01*
X1042413Y47387613D01*
X1154982Y47760459D01*
X1337830Y48104347D01*
X1583987Y48406165D01*
X1884081Y48654423D01*
X2226677Y48839663D01*
X2598731Y48954833D01*
X3009436Y48998000D01*
X9975347Y48998000D01*
X10000000Y48995572D01*
X10024653Y48998000D01*
X10098409Y49005264D01*
X10193036Y49033969D01*
X10280245Y49080583D01*
X10356684Y49143316D01*
X10419417Y49219755D01*
X10466031Y49306964D01*
X10494736Y49401591D01*
X10504231Y49498000D01*
X39495769Y49498000D01*
X39505264Y49401591D01*
G36*
X24257000Y26797000D02*
G01*
X24277000Y26797000D01*
X24277000Y26543000D01*
X24257000Y26543000D01*
X24257000Y25443750D01*
X24415750Y25285000D01*
X24630000Y25281928D01*
X24735519Y25292320D01*
X22894428Y23451229D01*
X22818500Y23458707D01*
X22243500Y23458707D01*
X22103658Y23444934D01*
X21969190Y23404143D01*
X21845263Y23337903D01*
X21736641Y23248759D01*
X21647497Y23140137D01*
X21625401Y23098799D01*
X21053901Y23098799D01*
X21069774Y23111826D01*
X21087839Y23133838D01*
X23247963Y25293962D01*
X23269974Y25312026D01*
X23315835Y25367907D01*
X23385820Y25330498D01*
X23505518Y25294188D01*
X23630000Y25281928D01*
X23844250Y25285000D01*
X24003000Y25443750D01*
X24003000Y26543000D01*
X23983000Y26543000D01*
X23983000Y26797000D01*
X24003000Y26797000D01*
X24003000Y26817000D01*
X24257000Y26817000D01*
X24257000Y26797000D01*
G37*
X24257000Y26797000D02*
X24277000Y26797000D01*
X24277000Y26543000D01*
X24257000Y26543000D01*
X24257000Y25443750D01*
X24415750Y25285000D01*
X24630000Y25281928D01*
X24735519Y25292320D01*
X22894428Y23451229D01*
X22818500Y23458707D01*
X22243500Y23458707D01*
X22103658Y23444934D01*
X21969190Y23404143D01*
X21845263Y23337903D01*
X21736641Y23248759D01*
X21647497Y23140137D01*
X21625401Y23098799D01*
X21053901Y23098799D01*
X21069774Y23111826D01*
X21087839Y23133838D01*
X23247963Y25293962D01*
X23269974Y25312026D01*
X23315835Y25367907D01*
X23385820Y25330498D01*
X23505518Y25294188D01*
X23630000Y25281928D01*
X23844250Y25285000D01*
X24003000Y25443750D01*
X24003000Y26543000D01*
X23983000Y26543000D01*
X23983000Y26797000D01*
X24003000Y26797000D01*
X24003000Y26817000D01*
X24257000Y26817000D01*
X24257000Y26797000D01*
G36*
X21736641Y31005641D02*
G01*
X21845263Y30916497D01*
X21969190Y30850257D01*
X22103658Y30809466D01*
X22188932Y30801067D01*
X22550692Y30439307D01*
X22345000Y30439307D01*
X22251492Y30430097D01*
X22161577Y30402822D01*
X22078711Y30358529D01*
X22006079Y30298921D01*
X21946471Y30226289D01*
X21902178Y30143423D01*
X21874903Y30053508D01*
X21865693Y29960000D01*
X21865693Y28460000D01*
X21874903Y28366492D01*
X21902178Y28276577D01*
X21946471Y28193711D01*
X22006079Y28121079D01*
X22078711Y28061471D01*
X22161577Y28017178D01*
X22251492Y27989903D01*
X22253001Y27989754D01*
X22253000Y27891723D01*
X22236492Y27890097D01*
X22146577Y27862822D01*
X22063711Y27818529D01*
X21991079Y27758921D01*
X21931471Y27686289D01*
X21887178Y27603423D01*
X21859903Y27513508D01*
X21850693Y27420000D01*
X21850693Y25920000D01*
X21859903Y25826492D01*
X21887178Y25736577D01*
X21931471Y25653711D01*
X21951412Y25629413D01*
X20803679Y24481680D01*
X20798721Y24487722D01*
X20726089Y24547330D01*
X20643223Y24591623D01*
X20636750Y24593587D01*
X20636750Y28425919D01*
X20639540Y28454250D01*
X20628401Y28567362D01*
X20605048Y28644344D01*
X20595407Y28676126D01*
X20541829Y28776365D01*
X20469724Y28864224D01*
X20447717Y28882285D01*
X19807002Y29523000D01*
X19911669Y29523000D01*
X19940000Y29520210D01*
X19968331Y29523000D01*
X19968336Y29523000D01*
X19998045Y29525926D01*
X20053111Y29531349D01*
X20097770Y29544897D01*
X20161876Y29564343D01*
X20262115Y29617921D01*
X20349974Y29690026D01*
X20368039Y29712038D01*
X21702835Y31046834D01*
X21736641Y31005641D01*
G37*
X21736641Y31005641D02*
X21845263Y30916497D01*
X21969190Y30850257D01*
X22103658Y30809466D01*
X22188932Y30801067D01*
X22550692Y30439307D01*
X22345000Y30439307D01*
X22251492Y30430097D01*
X22161577Y30402822D01*
X22078711Y30358529D01*
X22006079Y30298921D01*
X21946471Y30226289D01*
X21902178Y30143423D01*
X21874903Y30053508D01*
X21865693Y29960000D01*
X21865693Y28460000D01*
X21874903Y28366492D01*
X21902178Y28276577D01*
X21946471Y28193711D01*
X22006079Y28121079D01*
X22078711Y28061471D01*
X22161577Y28017178D01*
X22251492Y27989903D01*
X22253001Y27989754D01*
X22253000Y27891723D01*
X22236492Y27890097D01*
X22146577Y27862822D01*
X22063711Y27818529D01*
X21991079Y27758921D01*
X21931471Y27686289D01*
X21887178Y27603423D01*
X21859903Y27513508D01*
X21850693Y27420000D01*
X21850693Y25920000D01*
X21859903Y25826492D01*
X21887178Y25736577D01*
X21931471Y25653711D01*
X21951412Y25629413D01*
X20803679Y24481680D01*
X20798721Y24487722D01*
X20726089Y24547330D01*
X20643223Y24591623D01*
X20636750Y24593587D01*
X20636750Y28425919D01*
X20639540Y28454250D01*
X20628401Y28567362D01*
X20605048Y28644344D01*
X20595407Y28676126D01*
X20541829Y28776365D01*
X20469724Y28864224D01*
X20447717Y28882285D01*
X19807002Y29523000D01*
X19911669Y29523000D01*
X19940000Y29520210D01*
X19968331Y29523000D01*
X19968336Y29523000D01*
X19998045Y29525926D01*
X20053111Y29531349D01*
X20097770Y29544897D01*
X20161876Y29564343D01*
X20262115Y29617921D01*
X20349974Y29690026D01*
X20368039Y29712038D01*
X21702835Y31046834D01*
X21736641Y31005641D01*
M02*
