G04 #@! TF.GenerationSoftware,KiCad,Pcbnew,(5.1.5)-3*
G04 #@! TF.CreationDate,2021-12-22T01:00:50+09:00*
G04 #@! TF.ProjectId,m5-pantilt,6d352d70-616e-4746-996c-742e6b696361,1*
G04 #@! TF.SameCoordinates,PX5f5e100PY5f5e100*
G04 #@! TF.FileFunction,Soldermask,Bot*
G04 #@! TF.FilePolarity,Negative*
%FSLAX46Y46*%
G04 Gerber Fmt 4.6, Leading zero omitted, Abs format (unit mm)*
G04 Created by KiCad (PCBNEW (5.1.5)-3) date 2021-12-22 01:00:50*
%MOMM*%
%LPD*%
G04 APERTURE LIST*
%ADD10C,0.152000*%
G04 APERTURE END LIST*
D10*
G36*
X47152585Y4671198D02*
G01*
X47302410Y4641396D01*
X47584674Y4524479D01*
X47838705Y4354741D01*
X48054741Y4138705D01*
X48224479Y3884674D01*
X48341396Y3602410D01*
X48401000Y3302760D01*
X48401000Y2997240D01*
X48341396Y2697590D01*
X48224479Y2415326D01*
X48054741Y2161295D01*
X47838705Y1945259D01*
X47584674Y1775521D01*
X47302410Y1658604D01*
X47152585Y1628802D01*
X47002761Y1599000D01*
X46697239Y1599000D01*
X46547415Y1628802D01*
X46397590Y1658604D01*
X46115326Y1775521D01*
X45861295Y1945259D01*
X45645259Y2161295D01*
X45475521Y2415326D01*
X45358604Y2697590D01*
X45299000Y2997240D01*
X45299000Y3302760D01*
X45358604Y3602410D01*
X45475521Y3884674D01*
X45645259Y4138705D01*
X45861295Y4354741D01*
X46115326Y4524479D01*
X46397590Y4641396D01*
X46547415Y4671198D01*
X46697239Y4701000D01*
X47002761Y4701000D01*
X47152585Y4671198D01*
G37*
G36*
X3452585Y4671198D02*
G01*
X3602410Y4641396D01*
X3884674Y4524479D01*
X4138705Y4354741D01*
X4354741Y4138705D01*
X4524479Y3884674D01*
X4641396Y3602410D01*
X4701000Y3302760D01*
X4701000Y2997240D01*
X4641396Y2697590D01*
X4524479Y2415326D01*
X4354741Y2161295D01*
X4138705Y1945259D01*
X3884674Y1775521D01*
X3602410Y1658604D01*
X3452585Y1628802D01*
X3302761Y1599000D01*
X2997239Y1599000D01*
X2847415Y1628802D01*
X2697590Y1658604D01*
X2415326Y1775521D01*
X2161295Y1945259D01*
X1945259Y2161295D01*
X1775521Y2415326D01*
X1658604Y2697590D01*
X1599000Y2997240D01*
X1599000Y3302760D01*
X1658604Y3602410D01*
X1775521Y3884674D01*
X1945259Y4138705D01*
X2161295Y4354741D01*
X2415326Y4524479D01*
X2697590Y4641396D01*
X2847415Y4671198D01*
X2997239Y4701000D01*
X3302761Y4701000D01*
X3452585Y4671198D01*
G37*
G36*
X23351000Y1899000D02*
G01*
X21449000Y1899000D01*
X21449000Y5501000D01*
X23351000Y5501000D01*
X23351000Y1899000D01*
G37*
G36*
X43006564Y4160611D02*
G01*
X43197833Y4081385D01*
X43197835Y4081384D01*
X43369973Y3966365D01*
X43516365Y3819973D01*
X43631385Y3647833D01*
X43710611Y3456564D01*
X43751000Y3253516D01*
X43751000Y3046484D01*
X43710611Y2843436D01*
X43650200Y2697591D01*
X43631384Y2652165D01*
X43516365Y2480027D01*
X43369973Y2333635D01*
X43197835Y2218616D01*
X43197834Y2218615D01*
X43197833Y2218615D01*
X43006564Y2139389D01*
X42803516Y2099000D01*
X42596484Y2099000D01*
X42393436Y2139389D01*
X42202167Y2218615D01*
X42202166Y2218615D01*
X42202165Y2218616D01*
X42030027Y2333635D01*
X41883635Y2480027D01*
X41768616Y2652165D01*
X41749800Y2697591D01*
X41689389Y2843436D01*
X41649000Y3046484D01*
X41649000Y3253516D01*
X41689389Y3456564D01*
X41768615Y3647833D01*
X41883635Y3819973D01*
X42030027Y3966365D01*
X42202165Y4081384D01*
X42202167Y4081385D01*
X42393436Y4160611D01*
X42596484Y4201000D01*
X42803516Y4201000D01*
X43006564Y4160611D01*
G37*
G36*
X7606564Y4160611D02*
G01*
X7797833Y4081385D01*
X7797835Y4081384D01*
X7969973Y3966365D01*
X8116365Y3819973D01*
X8231385Y3647833D01*
X8310611Y3456564D01*
X8351000Y3253516D01*
X8351000Y3046484D01*
X8310611Y2843436D01*
X8250200Y2697591D01*
X8231384Y2652165D01*
X8116365Y2480027D01*
X7969973Y2333635D01*
X7797835Y2218616D01*
X7797834Y2218615D01*
X7797833Y2218615D01*
X7606564Y2139389D01*
X7403516Y2099000D01*
X7196484Y2099000D01*
X6993436Y2139389D01*
X6802167Y2218615D01*
X6802166Y2218615D01*
X6802165Y2218616D01*
X6630027Y2333635D01*
X6483635Y2480027D01*
X6368616Y2652165D01*
X6349800Y2697591D01*
X6289389Y2843436D01*
X6249000Y3046484D01*
X6249000Y3253516D01*
X6289389Y3456564D01*
X6368615Y3647833D01*
X6483635Y3819973D01*
X6630027Y3966365D01*
X6802165Y4081384D01*
X6802167Y4081385D01*
X6993436Y4160611D01*
X7196484Y4201000D01*
X7403516Y4201000D01*
X7606564Y4160611D01*
G37*
G36*
X13960443Y6194481D02*
G01*
X14026627Y6187963D01*
X14196466Y6136443D01*
X14352991Y6052778D01*
X14388729Y6023448D01*
X14490186Y5940186D01*
X14573448Y5838729D01*
X14602778Y5802991D01*
X14686443Y5646466D01*
X14737963Y5476627D01*
X14755359Y5300000D01*
X14737963Y5123373D01*
X14686443Y4953534D01*
X14602778Y4797009D01*
X14573448Y4761271D01*
X14490186Y4659814D01*
X14388729Y4576552D01*
X14352991Y4547222D01*
X14196466Y4463557D01*
X14026627Y4412037D01*
X13960442Y4405518D01*
X13894260Y4399000D01*
X13505740Y4399000D01*
X13439558Y4405518D01*
X13373373Y4412037D01*
X13203534Y4463557D01*
X13047009Y4547222D01*
X13011271Y4576552D01*
X12909814Y4659814D01*
X12826552Y4761271D01*
X12797222Y4797009D01*
X12713557Y4953534D01*
X12662037Y5123373D01*
X12644641Y5300000D01*
X12662037Y5476627D01*
X12713557Y5646466D01*
X12797222Y5802991D01*
X12826552Y5838729D01*
X12909814Y5940186D01*
X13011271Y6023448D01*
X13047009Y6052778D01*
X13203534Y6136443D01*
X13373373Y6187963D01*
X13439557Y6194481D01*
X13505740Y6201000D01*
X13894260Y6201000D01*
X13960443Y6194481D01*
G37*
G36*
X10351000Y6669000D02*
G01*
X7099000Y6669000D01*
X7099000Y7771000D01*
X10351000Y7771000D01*
X10351000Y6669000D01*
G37*
G36*
X5301000Y6669000D02*
G01*
X2049000Y6669000D01*
X2049000Y7771000D01*
X5301000Y7771000D01*
X5301000Y6669000D01*
G37*
G36*
X14608600Y8697011D02*
G01*
X14641652Y8686985D01*
X14672103Y8670708D01*
X14698799Y8648799D01*
X14720708Y8622103D01*
X14736985Y8591652D01*
X14747011Y8558600D01*
X14751000Y8518097D01*
X14751000Y7081903D01*
X14747011Y7041400D01*
X14736985Y7008348D01*
X14720708Y6977897D01*
X14698799Y6951201D01*
X14672103Y6929292D01*
X14641652Y6913015D01*
X14608600Y6902989D01*
X14568097Y6899000D01*
X12831903Y6899000D01*
X12791400Y6902989D01*
X12758348Y6913015D01*
X12727897Y6929292D01*
X12701201Y6951201D01*
X12679292Y6977897D01*
X12663015Y7008348D01*
X12652989Y7041400D01*
X12649000Y7081903D01*
X12649000Y8518097D01*
X12652989Y8558600D01*
X12663015Y8591652D01*
X12679292Y8622103D01*
X12701201Y8648799D01*
X12727897Y8670708D01*
X12758348Y8686985D01*
X12791400Y8697011D01*
X12831903Y8701000D01*
X14568097Y8701000D01*
X14608600Y8697011D01*
G37*
G36*
X23351000Y6899000D02*
G01*
X21449000Y6899000D01*
X21449000Y10501000D01*
X23351000Y10501000D01*
X23351000Y6899000D01*
G37*
G36*
X10351000Y9209000D02*
G01*
X7099000Y9209000D01*
X7099000Y10311000D01*
X10351000Y10311000D01*
X10351000Y9209000D01*
G37*
G36*
X5301000Y9209000D02*
G01*
X2049000Y9209000D01*
X2049000Y10311000D01*
X5301000Y10311000D01*
X5301000Y9209000D01*
G37*
G36*
X42187617Y11516580D02*
G01*
X42268399Y11492075D01*
X42310335Y11479354D01*
X42423424Y11418906D01*
X42522554Y11337553D01*
X42603906Y11238425D01*
X42664354Y11125336D01*
X42674040Y11093404D01*
X42701580Y11002618D01*
X42711000Y10906973D01*
X42711000Y10293027D01*
X42701580Y10197382D01*
X42674040Y10106596D01*
X42664354Y10074664D01*
X42603906Y9961575D01*
X42522554Y9862446D01*
X42423425Y9781094D01*
X42310336Y9720646D01*
X42278404Y9710960D01*
X42187618Y9683420D01*
X42060000Y9670851D01*
X41932383Y9683420D01*
X41841597Y9710960D01*
X41809665Y9720646D01*
X41696576Y9781094D01*
X41597447Y9862446D01*
X41516096Y9961573D01*
X41516095Y9961575D01*
X41455647Y10074664D01*
X41455645Y10074667D01*
X41443237Y10115573D01*
X41418420Y10197382D01*
X41409000Y10293027D01*
X41409000Y10906972D01*
X41418420Y11002617D01*
X41455645Y11125331D01*
X41455646Y11125335D01*
X41516094Y11238424D01*
X41597447Y11337554D01*
X41696575Y11418906D01*
X41809664Y11479354D01*
X41851600Y11492075D01*
X41932382Y11516580D01*
X42060000Y11529149D01*
X42187617Y11516580D01*
G37*
G36*
X40551242Y11521596D02*
G01*
X40588337Y11510343D01*
X40622515Y11492075D01*
X40652481Y11467481D01*
X40677075Y11437515D01*
X40695343Y11403337D01*
X40706596Y11366242D01*
X40711000Y11321526D01*
X40711000Y9878474D01*
X40706596Y9833758D01*
X40695343Y9796663D01*
X40677075Y9762485D01*
X40652481Y9732519D01*
X40622515Y9707925D01*
X40588337Y9689657D01*
X40551242Y9678404D01*
X40506526Y9674000D01*
X39613474Y9674000D01*
X39568758Y9678404D01*
X39531663Y9689657D01*
X39497485Y9707925D01*
X39467519Y9732519D01*
X39442925Y9762485D01*
X39424657Y9796663D01*
X39413404Y9833758D01*
X39409000Y9878474D01*
X39409000Y11321526D01*
X39413404Y11366242D01*
X39424657Y11403337D01*
X39442925Y11437515D01*
X39467519Y11467481D01*
X39497485Y11492075D01*
X39531663Y11510343D01*
X39568758Y11521596D01*
X39613474Y11526000D01*
X40506526Y11526000D01*
X40551242Y11521596D01*
G37*
G36*
X10351000Y11749000D02*
G01*
X7099000Y11749000D01*
X7099000Y12851000D01*
X10351000Y12851000D01*
X10351000Y11749000D01*
G37*
G36*
X5301000Y11749000D02*
G01*
X2049000Y11749000D01*
X2049000Y12851000D01*
X5301000Y12851000D01*
X5301000Y11749000D01*
G37*
G36*
X26664228Y13786897D02*
G01*
X26819100Y13722747D01*
X26958481Y13629615D01*
X27077015Y13511081D01*
X27170147Y13371700D01*
X27234297Y13216828D01*
X27267000Y13052416D01*
X27267000Y12884784D01*
X27234297Y12720372D01*
X27170147Y12565500D01*
X27077015Y12426119D01*
X26958481Y12307585D01*
X26819100Y12214453D01*
X26664228Y12150303D01*
X26499816Y12117600D01*
X26332184Y12117600D01*
X26167772Y12150303D01*
X26012900Y12214453D01*
X25873519Y12307585D01*
X25754985Y12426119D01*
X25661853Y12565500D01*
X25597703Y12720372D01*
X25565000Y12884784D01*
X25565000Y13052416D01*
X25597703Y13216828D01*
X25661853Y13371700D01*
X25754985Y13511081D01*
X25873519Y13629615D01*
X26012900Y13722747D01*
X26167772Y13786897D01*
X26332184Y13819600D01*
X26499816Y13819600D01*
X26664228Y13786897D01*
G37*
G36*
X5301000Y14289000D02*
G01*
X2049000Y14289000D01*
X2049000Y15391000D01*
X5301000Y15391000D01*
X5301000Y14289000D01*
G37*
G36*
X10351000Y14289000D02*
G01*
X7099000Y14289000D01*
X7099000Y15391000D01*
X10351000Y15391000D01*
X10351000Y14289000D01*
G37*
G36*
X26664228Y16286897D02*
G01*
X26819100Y16222747D01*
X26958481Y16129615D01*
X27077015Y16011081D01*
X27170147Y15871700D01*
X27234297Y15716828D01*
X27267000Y15552416D01*
X27267000Y15384784D01*
X27234297Y15220372D01*
X27170147Y15065500D01*
X27077015Y14926119D01*
X26958481Y14807585D01*
X26819100Y14714453D01*
X26664228Y14650303D01*
X26499816Y14617600D01*
X26332184Y14617600D01*
X26167772Y14650303D01*
X26012900Y14714453D01*
X25873519Y14807585D01*
X25754985Y14926119D01*
X25661853Y15065500D01*
X25597703Y15220372D01*
X25565000Y15384784D01*
X25565000Y15552416D01*
X25597703Y15716828D01*
X25661853Y15871700D01*
X25754985Y16011081D01*
X25873519Y16129615D01*
X26012900Y16222747D01*
X26167772Y16286897D01*
X26332184Y16319600D01*
X26499816Y16319600D01*
X26664228Y16286897D01*
G37*
G36*
X33901000Y15199000D02*
G01*
X31499000Y15199000D01*
X31499000Y16801000D01*
X33901000Y16801000D01*
X33901000Y15199000D01*
G37*
G36*
X38747000Y15863000D02*
G01*
X36945000Y15863000D01*
X36945000Y17665000D01*
X38747000Y17665000D01*
X38747000Y15863000D01*
G37*
G36*
X40499512Y17660073D02*
G01*
X40648812Y17630376D01*
X40812784Y17562456D01*
X40960354Y17463853D01*
X41085853Y17338354D01*
X41184456Y17190784D01*
X41252376Y17026812D01*
X41287000Y16852741D01*
X41287000Y16675259D01*
X41252376Y16501188D01*
X41184456Y16337216D01*
X41085853Y16189646D01*
X40960354Y16064147D01*
X40812784Y15965544D01*
X40648812Y15897624D01*
X40499512Y15867927D01*
X40474742Y15863000D01*
X40297258Y15863000D01*
X40272488Y15867927D01*
X40123188Y15897624D01*
X39959216Y15965544D01*
X39811646Y16064147D01*
X39686147Y16189646D01*
X39587544Y16337216D01*
X39519624Y16501188D01*
X39485000Y16675259D01*
X39485000Y16852741D01*
X39519624Y17026812D01*
X39587544Y17190784D01*
X39686147Y17338354D01*
X39811646Y17463853D01*
X39959216Y17562456D01*
X40123188Y17630376D01*
X40272488Y17660073D01*
X40297258Y17665000D01*
X40474742Y17665000D01*
X40499512Y17660073D01*
G37*
G36*
X43039512Y17660073D02*
G01*
X43188812Y17630376D01*
X43352784Y17562456D01*
X43500354Y17463853D01*
X43625853Y17338354D01*
X43724456Y17190784D01*
X43792376Y17026812D01*
X43827000Y16852741D01*
X43827000Y16675259D01*
X43792376Y16501188D01*
X43724456Y16337216D01*
X43625853Y16189646D01*
X43500354Y16064147D01*
X43352784Y15965544D01*
X43188812Y15897624D01*
X43039512Y15867927D01*
X43014742Y15863000D01*
X42837258Y15863000D01*
X42812488Y15867927D01*
X42663188Y15897624D01*
X42499216Y15965544D01*
X42351646Y16064147D01*
X42226147Y16189646D01*
X42127544Y16337216D01*
X42059624Y16501188D01*
X42025000Y16675259D01*
X42025000Y16852741D01*
X42059624Y17026812D01*
X42127544Y17190784D01*
X42226147Y17338354D01*
X42351646Y17463853D01*
X42499216Y17562456D01*
X42663188Y17630376D01*
X42812488Y17660073D01*
X42837258Y17665000D01*
X43014742Y17665000D01*
X43039512Y17660073D01*
G37*
G36*
X10351000Y16829000D02*
G01*
X7099000Y16829000D01*
X7099000Y17931000D01*
X10351000Y17931000D01*
X10351000Y16829000D01*
G37*
G36*
X5301000Y16829000D02*
G01*
X2049000Y16829000D01*
X2049000Y17931000D01*
X5301000Y17931000D01*
X5301000Y16829000D01*
G37*
G36*
X33901000Y17799000D02*
G01*
X31499000Y17799000D01*
X31499000Y19401000D01*
X33901000Y19401000D01*
X33901000Y17799000D01*
G37*
G36*
X43039512Y20200073D02*
G01*
X43188812Y20170376D01*
X43352784Y20102456D01*
X43500354Y20003853D01*
X43625853Y19878354D01*
X43724456Y19730784D01*
X43792376Y19566812D01*
X43827000Y19392741D01*
X43827000Y19215259D01*
X43792376Y19041188D01*
X43724456Y18877216D01*
X43625853Y18729646D01*
X43500354Y18604147D01*
X43352784Y18505544D01*
X43188812Y18437624D01*
X43039512Y18407927D01*
X43014742Y18403000D01*
X42837258Y18403000D01*
X42812488Y18407927D01*
X42663188Y18437624D01*
X42499216Y18505544D01*
X42351646Y18604147D01*
X42226147Y18729646D01*
X42127544Y18877216D01*
X42059624Y19041188D01*
X42025000Y19215259D01*
X42025000Y19392741D01*
X42059624Y19566812D01*
X42127544Y19730784D01*
X42226147Y19878354D01*
X42351646Y20003853D01*
X42499216Y20102456D01*
X42663188Y20170376D01*
X42812488Y20200073D01*
X42837258Y20205000D01*
X43014742Y20205000D01*
X43039512Y20200073D01*
G37*
G36*
X37959512Y20200073D02*
G01*
X38108812Y20170376D01*
X38272784Y20102456D01*
X38420354Y20003853D01*
X38545853Y19878354D01*
X38644456Y19730784D01*
X38712376Y19566812D01*
X38747000Y19392741D01*
X38747000Y19215259D01*
X38712376Y19041188D01*
X38644456Y18877216D01*
X38545853Y18729646D01*
X38420354Y18604147D01*
X38272784Y18505544D01*
X38108812Y18437624D01*
X37959512Y18407927D01*
X37934742Y18403000D01*
X37757258Y18403000D01*
X37732488Y18407927D01*
X37583188Y18437624D01*
X37419216Y18505544D01*
X37271646Y18604147D01*
X37146147Y18729646D01*
X37047544Y18877216D01*
X36979624Y19041188D01*
X36945000Y19215259D01*
X36945000Y19392741D01*
X36979624Y19566812D01*
X37047544Y19730784D01*
X37146147Y19878354D01*
X37271646Y20003853D01*
X37419216Y20102456D01*
X37583188Y20170376D01*
X37732488Y20200073D01*
X37757258Y20205000D01*
X37934742Y20205000D01*
X37959512Y20200073D01*
G37*
G36*
X40499512Y20200073D02*
G01*
X40648812Y20170376D01*
X40812784Y20102456D01*
X40960354Y20003853D01*
X41085853Y19878354D01*
X41184456Y19730784D01*
X41252376Y19566812D01*
X41287000Y19392741D01*
X41287000Y19215259D01*
X41252376Y19041188D01*
X41184456Y18877216D01*
X41085853Y18729646D01*
X40960354Y18604147D01*
X40812784Y18505544D01*
X40648812Y18437624D01*
X40499512Y18407927D01*
X40474742Y18403000D01*
X40297258Y18403000D01*
X40272488Y18407927D01*
X40123188Y18437624D01*
X39959216Y18505544D01*
X39811646Y18604147D01*
X39686147Y18729646D01*
X39587544Y18877216D01*
X39519624Y19041188D01*
X39485000Y19215259D01*
X39485000Y19392741D01*
X39519624Y19566812D01*
X39587544Y19730784D01*
X39686147Y19878354D01*
X39811646Y20003853D01*
X39959216Y20102456D01*
X40123188Y20170376D01*
X40272488Y20200073D01*
X40297258Y20205000D01*
X40474742Y20205000D01*
X40499512Y20200073D01*
G37*
G36*
X15001000Y19099000D02*
G01*
X12599000Y19099000D01*
X12599000Y20701000D01*
X15001000Y20701000D01*
X15001000Y19099000D01*
G37*
G36*
X10351000Y19369000D02*
G01*
X7099000Y19369000D01*
X7099000Y20471000D01*
X10351000Y20471000D01*
X10351000Y19369000D01*
G37*
G36*
X5301000Y19369000D02*
G01*
X2049000Y19369000D01*
X2049000Y20471000D01*
X5301000Y20471000D01*
X5301000Y19369000D01*
G37*
G36*
X33901000Y20399000D02*
G01*
X31499000Y20399000D01*
X31499000Y22001000D01*
X33901000Y22001000D01*
X33901000Y20399000D01*
G37*
G36*
X15001000Y21699000D02*
G01*
X12599000Y21699000D01*
X12599000Y23301000D01*
X15001000Y23301000D01*
X15001000Y21699000D01*
G37*
G36*
X5301000Y21909000D02*
G01*
X2049000Y21909000D01*
X2049000Y23011000D01*
X5301000Y23011000D01*
X5301000Y21909000D01*
G37*
G36*
X10351000Y21909000D02*
G01*
X7099000Y21909000D01*
X7099000Y23011000D01*
X10351000Y23011000D01*
X10351000Y21909000D01*
G37*
G36*
X33901000Y22999000D02*
G01*
X31499000Y22999000D01*
X31499000Y24601000D01*
X33901000Y24601000D01*
X33901000Y22999000D01*
G37*
G36*
X43039512Y25280073D02*
G01*
X43188812Y25250376D01*
X43352784Y25182456D01*
X43500354Y25083853D01*
X43625853Y24958354D01*
X43724456Y24810784D01*
X43792376Y24646812D01*
X43827000Y24472741D01*
X43827000Y24295259D01*
X43792376Y24121188D01*
X43724456Y23957216D01*
X43625853Y23809646D01*
X43500354Y23684147D01*
X43352784Y23585544D01*
X43188812Y23517624D01*
X43039512Y23487927D01*
X43014742Y23483000D01*
X42837258Y23483000D01*
X42812488Y23487927D01*
X42663188Y23517624D01*
X42499216Y23585544D01*
X42351646Y23684147D01*
X42226147Y23809646D01*
X42127544Y23957216D01*
X42059624Y24121188D01*
X42025000Y24295259D01*
X42025000Y24472741D01*
X42059624Y24646812D01*
X42127544Y24810784D01*
X42226147Y24958354D01*
X42351646Y25083853D01*
X42499216Y25182456D01*
X42663188Y25250376D01*
X42812488Y25280073D01*
X42837258Y25285000D01*
X43014742Y25285000D01*
X43039512Y25280073D01*
G37*
G36*
X40499512Y25280073D02*
G01*
X40648812Y25250376D01*
X40812784Y25182456D01*
X40960354Y25083853D01*
X41085853Y24958354D01*
X41184456Y24810784D01*
X41252376Y24646812D01*
X41287000Y24472741D01*
X41287000Y24295259D01*
X41252376Y24121188D01*
X41184456Y23957216D01*
X41085853Y23809646D01*
X40960354Y23684147D01*
X40812784Y23585544D01*
X40648812Y23517624D01*
X40499512Y23487927D01*
X40474742Y23483000D01*
X40297258Y23483000D01*
X40272488Y23487927D01*
X40123188Y23517624D01*
X39959216Y23585544D01*
X39811646Y23684147D01*
X39686147Y23809646D01*
X39587544Y23957216D01*
X39519624Y24121188D01*
X39485000Y24295259D01*
X39485000Y24472741D01*
X39519624Y24646812D01*
X39587544Y24810784D01*
X39686147Y24958354D01*
X39811646Y25083853D01*
X39959216Y25182456D01*
X40123188Y25250376D01*
X40272488Y25280073D01*
X40297258Y25285000D01*
X40474742Y25285000D01*
X40499512Y25280073D01*
G37*
G36*
X38747000Y23483000D02*
G01*
X36945000Y23483000D01*
X36945000Y25285000D01*
X38747000Y25285000D01*
X38747000Y23483000D01*
G37*
G36*
X15001000Y24299000D02*
G01*
X12599000Y24299000D01*
X12599000Y25901000D01*
X15001000Y25901000D01*
X15001000Y24299000D01*
G37*
G36*
X10351000Y24449000D02*
G01*
X7099000Y24449000D01*
X7099000Y25551000D01*
X10351000Y25551000D01*
X10351000Y24449000D01*
G37*
G36*
X5301000Y24449000D02*
G01*
X2049000Y24449000D01*
X2049000Y25551000D01*
X5301000Y25551000D01*
X5301000Y24449000D01*
G37*
G36*
X37959512Y27820073D02*
G01*
X38108812Y27790376D01*
X38272784Y27722456D01*
X38420354Y27623853D01*
X38545853Y27498354D01*
X38644456Y27350784D01*
X38712376Y27186812D01*
X38747000Y27012741D01*
X38747000Y26835259D01*
X38712376Y26661188D01*
X38644456Y26497216D01*
X38545853Y26349646D01*
X38420354Y26224147D01*
X38272784Y26125544D01*
X38108812Y26057624D01*
X37959512Y26027927D01*
X37934742Y26023000D01*
X37757258Y26023000D01*
X37732488Y26027927D01*
X37583188Y26057624D01*
X37419216Y26125544D01*
X37271646Y26224147D01*
X37146147Y26349646D01*
X37047544Y26497216D01*
X36979624Y26661188D01*
X36945000Y26835259D01*
X36945000Y27012741D01*
X36979624Y27186812D01*
X37047544Y27350784D01*
X37146147Y27498354D01*
X37271646Y27623853D01*
X37419216Y27722456D01*
X37583188Y27790376D01*
X37732488Y27820073D01*
X37757258Y27825000D01*
X37934742Y27825000D01*
X37959512Y27820073D01*
G37*
G36*
X43039512Y27820073D02*
G01*
X43188812Y27790376D01*
X43352784Y27722456D01*
X43500354Y27623853D01*
X43625853Y27498354D01*
X43724456Y27350784D01*
X43792376Y27186812D01*
X43827000Y27012741D01*
X43827000Y26835259D01*
X43792376Y26661188D01*
X43724456Y26497216D01*
X43625853Y26349646D01*
X43500354Y26224147D01*
X43352784Y26125544D01*
X43188812Y26057624D01*
X43039512Y26027927D01*
X43014742Y26023000D01*
X42837258Y26023000D01*
X42812488Y26027927D01*
X42663188Y26057624D01*
X42499216Y26125544D01*
X42351646Y26224147D01*
X42226147Y26349646D01*
X42127544Y26497216D01*
X42059624Y26661188D01*
X42025000Y26835259D01*
X42025000Y27012741D01*
X42059624Y27186812D01*
X42127544Y27350784D01*
X42226147Y27498354D01*
X42351646Y27623853D01*
X42499216Y27722456D01*
X42663188Y27790376D01*
X42812488Y27820073D01*
X42837258Y27825000D01*
X43014742Y27825000D01*
X43039512Y27820073D01*
G37*
G36*
X40499512Y27820073D02*
G01*
X40648812Y27790376D01*
X40812784Y27722456D01*
X40960354Y27623853D01*
X41085853Y27498354D01*
X41184456Y27350784D01*
X41252376Y27186812D01*
X41287000Y27012741D01*
X41287000Y26835259D01*
X41252376Y26661188D01*
X41184456Y26497216D01*
X41085853Y26349646D01*
X40960354Y26224147D01*
X40812784Y26125544D01*
X40648812Y26057624D01*
X40499512Y26027927D01*
X40474742Y26023000D01*
X40297258Y26023000D01*
X40272488Y26027927D01*
X40123188Y26057624D01*
X39959216Y26125544D01*
X39811646Y26224147D01*
X39686147Y26349646D01*
X39587544Y26497216D01*
X39519624Y26661188D01*
X39485000Y26835259D01*
X39485000Y27012741D01*
X39519624Y27186812D01*
X39587544Y27350784D01*
X39686147Y27498354D01*
X39811646Y27623853D01*
X39959216Y27722456D01*
X40123188Y27790376D01*
X40272488Y27820073D01*
X40297258Y27825000D01*
X40474742Y27825000D01*
X40499512Y27820073D01*
G37*
G36*
X10351000Y26989000D02*
G01*
X7099000Y26989000D01*
X7099000Y28091000D01*
X10351000Y28091000D01*
X10351000Y26989000D01*
G37*
G36*
X5301000Y26989000D02*
G01*
X2049000Y26989000D01*
X2049000Y28091000D01*
X5301000Y28091000D01*
X5301000Y26989000D01*
G37*
G36*
X15001000Y26999000D02*
G01*
X12599000Y26999000D01*
X12599000Y28601000D01*
X15001000Y28601000D01*
X15001000Y26999000D01*
G37*
G36*
X5301000Y29529000D02*
G01*
X2049000Y29529000D01*
X2049000Y30631000D01*
X5301000Y30631000D01*
X5301000Y29529000D01*
G37*
G36*
X10351000Y29529000D02*
G01*
X7099000Y29529000D01*
X7099000Y30631000D01*
X10351000Y30631000D01*
X10351000Y29529000D01*
G37*
G36*
X37056564Y32210611D02*
G01*
X37247833Y32131385D01*
X37247835Y32131384D01*
X37341199Y32069000D01*
X37419973Y32016365D01*
X37566365Y31869973D01*
X37681385Y31697833D01*
X37760611Y31506564D01*
X37801000Y31303516D01*
X37801000Y31096484D01*
X37760611Y30893436D01*
X37681385Y30702167D01*
X37681384Y30702165D01*
X37566365Y30530027D01*
X37419973Y30383635D01*
X37247835Y30268616D01*
X37247834Y30268615D01*
X37247833Y30268615D01*
X37056564Y30189389D01*
X36853516Y30149000D01*
X36646484Y30149000D01*
X36443436Y30189389D01*
X36252167Y30268615D01*
X36252166Y30268615D01*
X36252165Y30268616D01*
X36080027Y30383635D01*
X35933635Y30530027D01*
X35818616Y30702165D01*
X35818615Y30702167D01*
X35739389Y30893436D01*
X35699000Y31096484D01*
X35699000Y31303516D01*
X35739389Y31506564D01*
X35818615Y31697833D01*
X35933635Y31869973D01*
X36080027Y32016365D01*
X36158801Y32069000D01*
X36252165Y32131384D01*
X36252167Y32131385D01*
X36443436Y32210611D01*
X36646484Y32251000D01*
X36853516Y32251000D01*
X37056564Y32210611D01*
G37*
G36*
X43056564Y32210611D02*
G01*
X43247833Y32131385D01*
X43247835Y32131384D01*
X43341199Y32069000D01*
X43419973Y32016365D01*
X43566365Y31869973D01*
X43681385Y31697833D01*
X43760611Y31506564D01*
X43801000Y31303516D01*
X43801000Y31096484D01*
X43760611Y30893436D01*
X43681385Y30702167D01*
X43681384Y30702165D01*
X43566365Y30530027D01*
X43419973Y30383635D01*
X43247835Y30268616D01*
X43247834Y30268615D01*
X43247833Y30268615D01*
X43056564Y30189389D01*
X42853516Y30149000D01*
X42646484Y30149000D01*
X42443436Y30189389D01*
X42252167Y30268615D01*
X42252166Y30268615D01*
X42252165Y30268616D01*
X42080027Y30383635D01*
X41933635Y30530027D01*
X41818616Y30702165D01*
X41818615Y30702167D01*
X41739389Y30893436D01*
X41699000Y31096484D01*
X41699000Y31303516D01*
X41739389Y31506564D01*
X41818615Y31697833D01*
X41933635Y31869973D01*
X42080027Y32016365D01*
X42158801Y32069000D01*
X42252165Y32131384D01*
X42252167Y32131385D01*
X42443436Y32210611D01*
X42646484Y32251000D01*
X42853516Y32251000D01*
X43056564Y32210611D01*
G37*
G36*
X5301000Y32069000D02*
G01*
X2049000Y32069000D01*
X2049000Y33171000D01*
X5301000Y33171000D01*
X5301000Y32069000D01*
G37*
G36*
X10351000Y32069000D02*
G01*
X7099000Y32069000D01*
X7099000Y33171000D01*
X10351000Y33171000D01*
X10351000Y32069000D01*
G37*
G36*
X38613512Y34096073D02*
G01*
X38762812Y34066376D01*
X38926784Y33998456D01*
X39074354Y33899853D01*
X39199853Y33774354D01*
X39298456Y33626784D01*
X39366376Y33462812D01*
X39401000Y33288741D01*
X39401000Y33111259D01*
X39366376Y32937188D01*
X39298456Y32773216D01*
X39199853Y32625646D01*
X39074354Y32500147D01*
X38926784Y32401544D01*
X38762812Y32333624D01*
X38613512Y32303927D01*
X38588742Y32299000D01*
X38411258Y32299000D01*
X38386488Y32303927D01*
X38237188Y32333624D01*
X38073216Y32401544D01*
X37925646Y32500147D01*
X37800147Y32625646D01*
X37701544Y32773216D01*
X37633624Y32937188D01*
X37599000Y33111259D01*
X37599000Y33288741D01*
X37633624Y33462812D01*
X37701544Y33626784D01*
X37800147Y33774354D01*
X37925646Y33899853D01*
X38073216Y33998456D01*
X38237188Y34066376D01*
X38386488Y34096073D01*
X38411258Y34101000D01*
X38588742Y34101000D01*
X38613512Y34096073D01*
G37*
G36*
X5301000Y34609000D02*
G01*
X2049000Y34609000D01*
X2049000Y35711000D01*
X5301000Y35711000D01*
X5301000Y34609000D01*
G37*
G36*
X10351000Y34609000D02*
G01*
X7099000Y34609000D01*
X7099000Y35711000D01*
X10351000Y35711000D01*
X10351000Y34609000D01*
G37*
G36*
X38613512Y38096073D02*
G01*
X38762812Y38066376D01*
X38926784Y37998456D01*
X39074354Y37899853D01*
X39199853Y37774354D01*
X39298456Y37626784D01*
X39366376Y37462812D01*
X39401000Y37288741D01*
X39401000Y37111259D01*
X39366376Y36937188D01*
X39298456Y36773216D01*
X39199853Y36625646D01*
X39074354Y36500147D01*
X38926784Y36401544D01*
X38762812Y36333624D01*
X38613512Y36303927D01*
X38588742Y36299000D01*
X38411258Y36299000D01*
X38386488Y36303927D01*
X38237188Y36333624D01*
X38073216Y36401544D01*
X37925646Y36500147D01*
X37800147Y36625646D01*
X37701544Y36773216D01*
X37633624Y36937188D01*
X37599000Y37111259D01*
X37599000Y37288741D01*
X37633624Y37462812D01*
X37701544Y37626784D01*
X37800147Y37774354D01*
X37925646Y37899853D01*
X38073216Y37998456D01*
X38237188Y38066376D01*
X38386488Y38096073D01*
X38411258Y38101000D01*
X38588742Y38101000D01*
X38613512Y38096073D01*
G37*
G36*
X5301000Y37149000D02*
G01*
X2049000Y37149000D01*
X2049000Y38251000D01*
X5301000Y38251000D01*
X5301000Y37149000D01*
G37*
G36*
X10351000Y37149000D02*
G01*
X7099000Y37149000D01*
X7099000Y38251000D01*
X10351000Y38251000D01*
X10351000Y37149000D01*
G37*
G36*
X5301000Y39689000D02*
G01*
X2049000Y39689000D01*
X2049000Y40791000D01*
X5301000Y40791000D01*
X5301000Y39689000D01*
G37*
G36*
X10351000Y39689000D02*
G01*
X7099000Y39689000D01*
X7099000Y40791000D01*
X10351000Y40791000D01*
X10351000Y39689000D01*
G37*
G36*
X38613512Y42096073D02*
G01*
X38762812Y42066376D01*
X38926784Y41998456D01*
X39074354Y41899853D01*
X39199853Y41774354D01*
X39298456Y41626784D01*
X39366376Y41462812D01*
X39401000Y41288741D01*
X39401000Y41111259D01*
X39366376Y40937188D01*
X39298456Y40773216D01*
X39199853Y40625646D01*
X39074354Y40500147D01*
X38926784Y40401544D01*
X38762812Y40333624D01*
X38613512Y40303927D01*
X38588742Y40299000D01*
X38411258Y40299000D01*
X38386488Y40303927D01*
X38237188Y40333624D01*
X38073216Y40401544D01*
X37925646Y40500147D01*
X37800147Y40625646D01*
X37701544Y40773216D01*
X37633624Y40937188D01*
X37599000Y41111259D01*
X37599000Y41288741D01*
X37633624Y41462812D01*
X37701544Y41626784D01*
X37800147Y41774354D01*
X37925646Y41899853D01*
X38073216Y41998456D01*
X38237188Y42066376D01*
X38386488Y42096073D01*
X38411258Y42101000D01*
X38588742Y42101000D01*
X38613512Y42096073D01*
G37*
G36*
X43056564Y44210611D02*
G01*
X43194570Y44153447D01*
X43247835Y44131384D01*
X43302814Y44094648D01*
X43419973Y44016365D01*
X43566365Y43869973D01*
X43681385Y43697833D01*
X43760611Y43506564D01*
X43801000Y43303516D01*
X43801000Y43096484D01*
X43760611Y42893436D01*
X43681385Y42702167D01*
X43681384Y42702165D01*
X43566365Y42530027D01*
X43419973Y42383635D01*
X43247835Y42268616D01*
X43247834Y42268615D01*
X43247833Y42268615D01*
X43056564Y42189389D01*
X42853516Y42149000D01*
X42646484Y42149000D01*
X42443436Y42189389D01*
X42252167Y42268615D01*
X42252166Y42268615D01*
X42252165Y42268616D01*
X42080027Y42383635D01*
X41933635Y42530027D01*
X41818616Y42702165D01*
X41818615Y42702167D01*
X41739389Y42893436D01*
X41699000Y43096484D01*
X41699000Y43303516D01*
X41739389Y43506564D01*
X41818615Y43697833D01*
X41933635Y43869973D01*
X42080027Y44016365D01*
X42197186Y44094648D01*
X42252165Y44131384D01*
X42305430Y44153447D01*
X42443436Y44210611D01*
X42646484Y44251000D01*
X42853516Y44251000D01*
X43056564Y44210611D01*
G37*
G36*
X37056564Y44210611D02*
G01*
X37194570Y44153447D01*
X37247835Y44131384D01*
X37302814Y44094648D01*
X37419973Y44016365D01*
X37566365Y43869973D01*
X37681385Y43697833D01*
X37760611Y43506564D01*
X37801000Y43303516D01*
X37801000Y43096484D01*
X37760611Y42893436D01*
X37681385Y42702167D01*
X37681384Y42702165D01*
X37566365Y42530027D01*
X37419973Y42383635D01*
X37247835Y42268616D01*
X37247834Y42268615D01*
X37247833Y42268615D01*
X37056564Y42189389D01*
X36853516Y42149000D01*
X36646484Y42149000D01*
X36443436Y42189389D01*
X36252167Y42268615D01*
X36252166Y42268615D01*
X36252165Y42268616D01*
X36080027Y42383635D01*
X35933635Y42530027D01*
X35818616Y42702165D01*
X35818615Y42702167D01*
X35739389Y42893436D01*
X35699000Y43096484D01*
X35699000Y43303516D01*
X35739389Y43506564D01*
X35818615Y43697833D01*
X35933635Y43869973D01*
X36080027Y44016365D01*
X36197186Y44094648D01*
X36252165Y44131384D01*
X36305430Y44153447D01*
X36443436Y44210611D01*
X36646484Y44251000D01*
X36853516Y44251000D01*
X37056564Y44210611D01*
G37*
G36*
X5301000Y42229000D02*
G01*
X2049000Y42229000D01*
X2049000Y43331000D01*
X5301000Y43331000D01*
X5301000Y42229000D01*
G37*
G36*
X10351000Y42229000D02*
G01*
X7099000Y42229000D01*
X7099000Y43331000D01*
X10351000Y43331000D01*
X10351000Y42229000D01*
G37*
G36*
X27127618Y45916580D02*
G01*
X27208400Y45892075D01*
X27250336Y45879354D01*
X27363425Y45818906D01*
X27462554Y45737554D01*
X27543906Y45638425D01*
X27604354Y45525336D01*
X27604355Y45525332D01*
X27641580Y45402618D01*
X27651000Y45306973D01*
X27651000Y44693027D01*
X27641580Y44597382D01*
X27614040Y44506596D01*
X27604354Y44474664D01*
X27543906Y44361575D01*
X27462554Y44262447D01*
X27363424Y44181094D01*
X27250335Y44120646D01*
X27218403Y44110960D01*
X27127617Y44083420D01*
X27000000Y44070851D01*
X26872382Y44083420D01*
X26781596Y44110960D01*
X26749664Y44120646D01*
X26636575Y44181094D01*
X26537447Y44262446D01*
X26456094Y44361576D01*
X26395646Y44474665D01*
X26385960Y44506597D01*
X26358420Y44597383D01*
X26349000Y44693028D01*
X26349000Y45306973D01*
X26358420Y45402618D01*
X26395645Y45525332D01*
X26395645Y45525333D01*
X26427957Y45585783D01*
X26456095Y45638426D01*
X26469493Y45654751D01*
X26537447Y45737554D01*
X26636576Y45818906D01*
X26749665Y45879354D01*
X26791601Y45892075D01*
X26872383Y45916580D01*
X27000000Y45929149D01*
X27127618Y45916580D01*
G37*
G36*
X14127618Y45916580D02*
G01*
X14208400Y45892075D01*
X14250336Y45879354D01*
X14363425Y45818906D01*
X14462554Y45737554D01*
X14543906Y45638425D01*
X14604354Y45525336D01*
X14604355Y45525332D01*
X14641580Y45402618D01*
X14651000Y45306973D01*
X14651000Y44693027D01*
X14641580Y44597382D01*
X14614040Y44506596D01*
X14604354Y44474664D01*
X14543906Y44361575D01*
X14462554Y44262447D01*
X14363424Y44181094D01*
X14250335Y44120646D01*
X14218403Y44110960D01*
X14127617Y44083420D01*
X14000000Y44070851D01*
X13872382Y44083420D01*
X13781596Y44110960D01*
X13749664Y44120646D01*
X13636575Y44181094D01*
X13537447Y44262446D01*
X13456094Y44361576D01*
X13395646Y44474665D01*
X13385960Y44506597D01*
X13358420Y44597383D01*
X13349000Y44693028D01*
X13349000Y45306973D01*
X13358420Y45402618D01*
X13395645Y45525332D01*
X13395645Y45525333D01*
X13427957Y45585783D01*
X13456095Y45638426D01*
X13469493Y45654751D01*
X13537447Y45737554D01*
X13636576Y45818906D01*
X13749665Y45879354D01*
X13791601Y45892075D01*
X13872383Y45916580D01*
X14000000Y45929149D01*
X14127618Y45916580D01*
G37*
G36*
X18127618Y45916580D02*
G01*
X18208400Y45892075D01*
X18250336Y45879354D01*
X18363425Y45818906D01*
X18462554Y45737554D01*
X18543906Y45638425D01*
X18604354Y45525336D01*
X18604355Y45525332D01*
X18641580Y45402618D01*
X18651000Y45306973D01*
X18651000Y44693027D01*
X18641580Y44597382D01*
X18614040Y44506596D01*
X18604354Y44474664D01*
X18543906Y44361575D01*
X18462554Y44262447D01*
X18363424Y44181094D01*
X18250335Y44120646D01*
X18218403Y44110960D01*
X18127617Y44083420D01*
X18000000Y44070851D01*
X17872382Y44083420D01*
X17781596Y44110960D01*
X17749664Y44120646D01*
X17636575Y44181094D01*
X17537447Y44262446D01*
X17456094Y44361576D01*
X17395646Y44474665D01*
X17385960Y44506597D01*
X17358420Y44597383D01*
X17349000Y44693028D01*
X17349000Y45306973D01*
X17358420Y45402618D01*
X17395645Y45525332D01*
X17395645Y45525333D01*
X17427957Y45585783D01*
X17456095Y45638426D01*
X17469493Y45654751D01*
X17537447Y45737554D01*
X17636576Y45818906D01*
X17749665Y45879354D01*
X17791601Y45892075D01*
X17872383Y45916580D01*
X18000000Y45929149D01*
X18127618Y45916580D01*
G37*
G36*
X16127618Y45916580D02*
G01*
X16208400Y45892075D01*
X16250336Y45879354D01*
X16363425Y45818906D01*
X16462554Y45737554D01*
X16543906Y45638425D01*
X16604354Y45525336D01*
X16604355Y45525332D01*
X16641580Y45402618D01*
X16651000Y45306973D01*
X16651000Y44693027D01*
X16641580Y44597382D01*
X16614040Y44506596D01*
X16604354Y44474664D01*
X16543906Y44361575D01*
X16462554Y44262447D01*
X16363424Y44181094D01*
X16250335Y44120646D01*
X16218403Y44110960D01*
X16127617Y44083420D01*
X16000000Y44070851D01*
X15872382Y44083420D01*
X15781596Y44110960D01*
X15749664Y44120646D01*
X15636575Y44181094D01*
X15537447Y44262446D01*
X15456094Y44361576D01*
X15395646Y44474665D01*
X15385960Y44506597D01*
X15358420Y44597383D01*
X15349000Y44693028D01*
X15349000Y45306973D01*
X15358420Y45402618D01*
X15395645Y45525332D01*
X15395645Y45525333D01*
X15427957Y45585783D01*
X15456095Y45638426D01*
X15469493Y45654751D01*
X15537447Y45737554D01*
X15636576Y45818906D01*
X15749665Y45879354D01*
X15791601Y45892075D01*
X15872383Y45916580D01*
X16000000Y45929149D01*
X16127618Y45916580D01*
G37*
G36*
X29127618Y45916580D02*
G01*
X29208400Y45892075D01*
X29250336Y45879354D01*
X29363425Y45818906D01*
X29462554Y45737554D01*
X29543906Y45638425D01*
X29604354Y45525336D01*
X29604355Y45525332D01*
X29641580Y45402618D01*
X29651000Y45306973D01*
X29651000Y44693027D01*
X29641580Y44597382D01*
X29614040Y44506596D01*
X29604354Y44474664D01*
X29543906Y44361575D01*
X29462554Y44262447D01*
X29363424Y44181094D01*
X29250335Y44120646D01*
X29218403Y44110960D01*
X29127617Y44083420D01*
X29000000Y44070851D01*
X28872382Y44083420D01*
X28781596Y44110960D01*
X28749664Y44120646D01*
X28636575Y44181094D01*
X28537447Y44262446D01*
X28456094Y44361576D01*
X28395646Y44474665D01*
X28385960Y44506597D01*
X28358420Y44597383D01*
X28349000Y44693028D01*
X28349000Y45306973D01*
X28358420Y45402618D01*
X28395645Y45525332D01*
X28395645Y45525333D01*
X28427957Y45585783D01*
X28456095Y45638426D01*
X28469493Y45654751D01*
X28537447Y45737554D01*
X28636576Y45818906D01*
X28749665Y45879354D01*
X28791601Y45892075D01*
X28872383Y45916580D01*
X29000000Y45929149D01*
X29127618Y45916580D01*
G37*
G36*
X31127618Y45916580D02*
G01*
X31208400Y45892075D01*
X31250336Y45879354D01*
X31363425Y45818906D01*
X31462554Y45737554D01*
X31543906Y45638425D01*
X31604354Y45525336D01*
X31604355Y45525332D01*
X31641580Y45402618D01*
X31651000Y45306973D01*
X31651000Y44693027D01*
X31641580Y44597382D01*
X31614040Y44506596D01*
X31604354Y44474664D01*
X31543906Y44361575D01*
X31462554Y44262447D01*
X31363424Y44181094D01*
X31250335Y44120646D01*
X31218403Y44110960D01*
X31127617Y44083420D01*
X31000000Y44070851D01*
X30872382Y44083420D01*
X30781596Y44110960D01*
X30749664Y44120646D01*
X30636575Y44181094D01*
X30537447Y44262446D01*
X30456094Y44361576D01*
X30395646Y44474665D01*
X30385960Y44506597D01*
X30358420Y44597383D01*
X30349000Y44693028D01*
X30349000Y45306973D01*
X30358420Y45402618D01*
X30395645Y45525332D01*
X30395645Y45525333D01*
X30427957Y45585783D01*
X30456095Y45638426D01*
X30469493Y45654751D01*
X30537447Y45737554D01*
X30636576Y45818906D01*
X30749665Y45879354D01*
X30791601Y45892075D01*
X30872383Y45916580D01*
X31000000Y45929149D01*
X31127618Y45916580D01*
G37*
G36*
X20491242Y45921596D02*
G01*
X20528337Y45910343D01*
X20562515Y45892075D01*
X20592481Y45867481D01*
X20617075Y45837515D01*
X20635343Y45803337D01*
X20646596Y45766242D01*
X20651000Y45721526D01*
X20651000Y44278474D01*
X20646596Y44233758D01*
X20635343Y44196663D01*
X20617075Y44162485D01*
X20592481Y44132519D01*
X20562515Y44107925D01*
X20528337Y44089657D01*
X20491242Y44078404D01*
X20446526Y44074000D01*
X19553474Y44074000D01*
X19508758Y44078404D01*
X19471663Y44089657D01*
X19437485Y44107925D01*
X19407519Y44132519D01*
X19382925Y44162485D01*
X19364657Y44196663D01*
X19353404Y44233758D01*
X19349000Y44278474D01*
X19349000Y45721526D01*
X19353404Y45766242D01*
X19364657Y45803337D01*
X19382925Y45837515D01*
X19407519Y45867481D01*
X19437485Y45892075D01*
X19471663Y45910343D01*
X19508758Y45921596D01*
X19553474Y45926000D01*
X20446526Y45926000D01*
X20491242Y45921596D01*
G37*
G36*
X33491242Y45921596D02*
G01*
X33528337Y45910343D01*
X33562515Y45892075D01*
X33592481Y45867481D01*
X33617075Y45837515D01*
X33635343Y45803337D01*
X33646596Y45766242D01*
X33651000Y45721526D01*
X33651000Y44278474D01*
X33646596Y44233758D01*
X33635343Y44196663D01*
X33617075Y44162485D01*
X33592481Y44132519D01*
X33562515Y44107925D01*
X33528337Y44089657D01*
X33491242Y44078404D01*
X33446526Y44074000D01*
X32553474Y44074000D01*
X32508758Y44078404D01*
X32471663Y44089657D01*
X32437485Y44107925D01*
X32407519Y44132519D01*
X32382925Y44162485D01*
X32364657Y44196663D01*
X32353404Y44233758D01*
X32349000Y44278474D01*
X32349000Y45721526D01*
X32353404Y45766242D01*
X32364657Y45803337D01*
X32382925Y45837515D01*
X32407519Y45867481D01*
X32437485Y45892075D01*
X32471663Y45910343D01*
X32508758Y45921596D01*
X32553474Y45926000D01*
X33446526Y45926000D01*
X33491242Y45921596D01*
G37*
G36*
X47152585Y48371198D02*
G01*
X47302410Y48341396D01*
X47584674Y48224479D01*
X47838705Y48054741D01*
X48054741Y47838705D01*
X48224479Y47584674D01*
X48341396Y47302410D01*
X48401000Y47002760D01*
X48401000Y46697240D01*
X48341396Y46397590D01*
X48224479Y46115326D01*
X48054741Y45861295D01*
X47838705Y45645259D01*
X47584674Y45475521D01*
X47302410Y45358604D01*
X47152585Y45328802D01*
X47002761Y45299000D01*
X46697239Y45299000D01*
X46547415Y45328802D01*
X46397590Y45358604D01*
X46115326Y45475521D01*
X45861295Y45645259D01*
X45645259Y45861295D01*
X45475521Y46115326D01*
X45358604Y46397590D01*
X45299000Y46697240D01*
X45299000Y47002760D01*
X45358604Y47302410D01*
X45475521Y47584674D01*
X45645259Y47838705D01*
X45861295Y48054741D01*
X46115326Y48224479D01*
X46397590Y48341396D01*
X46547415Y48371198D01*
X46697239Y48401000D01*
X47002761Y48401000D01*
X47152585Y48371198D01*
G37*
G36*
X3452585Y48371198D02*
G01*
X3602410Y48341396D01*
X3884674Y48224479D01*
X4138705Y48054741D01*
X4354741Y47838705D01*
X4524479Y47584674D01*
X4641396Y47302410D01*
X4701000Y47002760D01*
X4701000Y46697240D01*
X4641396Y46397590D01*
X4524479Y46115326D01*
X4354741Y45861295D01*
X4138705Y45645259D01*
X3884674Y45475521D01*
X3602410Y45358604D01*
X3452585Y45328802D01*
X3302761Y45299000D01*
X2997239Y45299000D01*
X2847415Y45328802D01*
X2697590Y45358604D01*
X2415326Y45475521D01*
X2161295Y45645259D01*
X1945259Y45861295D01*
X1775521Y46115326D01*
X1658604Y46397590D01*
X1599000Y46697240D01*
X1599000Y47002760D01*
X1658604Y47302410D01*
X1775521Y47584674D01*
X1945259Y47838705D01*
X2161295Y48054741D01*
X2415326Y48224479D01*
X2697590Y48341396D01*
X2847415Y48371198D01*
X2997239Y48401000D01*
X3302761Y48401000D01*
X3452585Y48371198D01*
G37*
G36*
X43006564Y47860611D02*
G01*
X43197833Y47781385D01*
X43197835Y47781384D01*
X43369973Y47666365D01*
X43516365Y47519973D01*
X43631385Y47347833D01*
X43710611Y47156564D01*
X43751000Y46953516D01*
X43751000Y46746484D01*
X43710611Y46543436D01*
X43650200Y46397591D01*
X43631384Y46352165D01*
X43516365Y46180027D01*
X43369973Y46033635D01*
X43197835Y45918616D01*
X43197834Y45918615D01*
X43197833Y45918615D01*
X43006564Y45839389D01*
X42803516Y45799000D01*
X42596484Y45799000D01*
X42393436Y45839389D01*
X42202167Y45918615D01*
X42202166Y45918615D01*
X42202165Y45918616D01*
X42030027Y46033635D01*
X41883635Y46180027D01*
X41768616Y46352165D01*
X41749800Y46397591D01*
X41689389Y46543436D01*
X41649000Y46746484D01*
X41649000Y46953516D01*
X41689389Y47156564D01*
X41768615Y47347833D01*
X41883635Y47519973D01*
X42030027Y47666365D01*
X42202165Y47781384D01*
X42202167Y47781385D01*
X42393436Y47860611D01*
X42596484Y47901000D01*
X42803516Y47901000D01*
X43006564Y47860611D01*
G37*
G36*
X7606564Y47860611D02*
G01*
X7797833Y47781385D01*
X7797835Y47781384D01*
X7969973Y47666365D01*
X8116365Y47519973D01*
X8231385Y47347833D01*
X8310611Y47156564D01*
X8351000Y46953516D01*
X8351000Y46746484D01*
X8310611Y46543436D01*
X8250200Y46397591D01*
X8231384Y46352165D01*
X8116365Y46180027D01*
X7969973Y46033635D01*
X7797835Y45918616D01*
X7797834Y45918615D01*
X7797833Y45918615D01*
X7606564Y45839389D01*
X7403516Y45799000D01*
X7196484Y45799000D01*
X6993436Y45839389D01*
X6802167Y45918615D01*
X6802166Y45918615D01*
X6802165Y45918616D01*
X6630027Y46033635D01*
X6483635Y46180027D01*
X6368616Y46352165D01*
X6349800Y46397591D01*
X6289389Y46543436D01*
X6249000Y46746484D01*
X6249000Y46953516D01*
X6289389Y47156564D01*
X6368615Y47347833D01*
X6483635Y47519973D01*
X6630027Y47666365D01*
X6802165Y47781384D01*
X6802167Y47781385D01*
X6993436Y47860611D01*
X7196484Y47901000D01*
X7403516Y47901000D01*
X7606564Y47860611D01*
G37*
M02*
