M48
; DRILL file {KiCad 5.1.5+dfsg1-2build2} date Tue 08 Jun 2021 03:43:00 JST
; FORMAT={-:-/ absolute / inch / decimal}
; #@! TF.CreationDate,2021-06-08T03:43:00+09:00
; #@! TF.GenerationSoftware,Kicad,Pcbnew,5.1.5+dfsg1-2build2
; #@! TF.FileFunction,Plated,1,2,PTH
FMAT,2
INCH
T1C0.0295
T2C0.0315
T3C0.0354
T4C0.0394
T5C0.0472
%
G90
G05
T1
X4.7244Y-3.622
X4.7244Y-3.7008
X5.7047Y-3.3937
X5.7047Y-3.4724
X5.7047Y-3.5512
X5.7047Y-3.6299
T2
X4.6457Y-2.2441
X4.6457Y-2.3425
T3
X5.4331Y-2.315
X5.4331Y-2.4724
X5.4331Y-2.6299
T4
X4.5276Y-2.774
X4.5276Y-2.874
X4.6276Y-2.774
X4.6276Y-2.874
X4.7276Y-2.774
X4.7276Y-2.874
X4.5276Y-3.0496
X4.5276Y-3.1496
X4.6276Y-3.0496
X4.6276Y-3.1496
X4.7276Y-3.0496
X4.7276Y-3.1496
X4.5276Y-3.3252
X4.5276Y-3.4252
X4.6276Y-3.3252
X4.6276Y-3.4252
X4.7276Y-3.3252
X4.7276Y-3.4252
T5
X5.3642Y-2.2362
X5.3642Y-2.7087
X5.6004Y-2.2362
X5.6004Y-2.7087
T0
M30
