G04 #@! TF.GenerationSoftware,KiCad,Pcbnew,6.0.2+dfsg-1*
G04 #@! TF.CreationDate,2023-08-08T18:30:04+09:00*
G04 #@! TF.ProjectId,m5-pantilt,6d352d70-616e-4746-996c-742e6b696361,1*
G04 #@! TF.SameCoordinates,Original*
G04 #@! TF.FileFunction,Legend,Top*
G04 #@! TF.FilePolarity,Positive*
%FSLAX46Y46*%
G04 Gerber Fmt 4.6, Leading zero omitted, Abs format (unit mm)*
G04 Created by KiCad (PCBNEW 6.0.2+dfsg-1) date 2023-08-08 18:30:04*
%MOMM*%
%LPD*%
G01*
G04 APERTURE LIST*
%ADD10C,0.120000*%
%ADD11C,0.150000*%
%ADD12C,0.125000*%
G04 APERTURE END LIST*
D10*
X146900000Y-67800000D02*
X146900000Y-76300000D01*
X146900000Y-76300000D02*
X148400000Y-76300000D01*
X148400000Y-67800000D02*
X146900000Y-67800000D01*
X148400000Y-70800000D02*
X146900000Y-70800000D01*
X148400000Y-73800000D02*
X146900000Y-73800000D01*
X148400000Y-67800000D02*
X148400000Y-76300000D01*
X114050000Y-84300000D02*
X117450000Y-84300000D01*
X114050000Y-85950000D02*
X117450000Y-85950000D01*
X117450000Y-87550000D02*
X114050000Y-87550000D01*
X117450000Y-84300000D02*
X117450000Y-87550000D01*
X114050000Y-87550000D02*
X114050000Y-84300000D01*
X114000000Y-80650000D02*
X114000000Y-77400000D01*
X114000000Y-79050000D02*
X117400000Y-79050000D01*
X114000000Y-77400000D02*
X117400000Y-77400000D01*
X117400000Y-80650000D02*
X114000000Y-80650000D01*
X117400000Y-77400000D02*
X117400000Y-80650000D01*
X111750000Y-74250000D02*
X111750000Y-61150000D01*
X142579000Y-58300000D02*
X143214000Y-58300000D01*
X111750000Y-88000000D02*
X111750000Y-75200000D01*
X148450000Y-79100000D02*
X148450000Y-87600000D01*
X117500000Y-75200000D02*
X120750000Y-75200000D01*
X148450000Y-85100000D02*
X146950000Y-85100000D01*
X111750000Y-74250000D02*
X134800000Y-74250000D01*
X148450000Y-82100000D02*
X146950000Y-82100000D01*
X120750000Y-88000000D02*
X120750000Y-75200000D01*
X116850000Y-61150000D02*
X134850000Y-61150000D01*
X142579000Y-62210000D02*
X142579000Y-58300000D01*
X111750000Y-61150000D02*
X114200000Y-61150000D01*
X146950000Y-79100000D02*
X146950000Y-87600000D01*
X148450000Y-79100000D02*
X146950000Y-79100000D01*
X143214000Y-62210000D02*
X142579000Y-62210000D01*
X134800000Y-74250000D02*
X134850000Y-61150000D01*
X111750000Y-88000000D02*
X120750000Y-88000000D01*
X111750000Y-75200000D02*
X113750000Y-75200000D01*
X146950000Y-87600000D02*
X148450000Y-87600000D01*
D11*
X136266666Y-84650000D02*
X136190476Y-84611904D01*
X136076190Y-84611904D01*
X135961904Y-84650000D01*
X135885714Y-84726190D01*
X135847619Y-84802380D01*
X135809523Y-84954761D01*
X135809523Y-85069047D01*
X135847619Y-85221428D01*
X135885714Y-85297619D01*
X135961904Y-85373809D01*
X136076190Y-85411904D01*
X136152380Y-85411904D01*
X136266666Y-85373809D01*
X136304761Y-85335714D01*
X136304761Y-85069047D01*
X136152380Y-85069047D01*
X136647619Y-85411904D02*
X136647619Y-84611904D01*
X136952380Y-84611904D01*
X137028571Y-84650000D01*
X137066666Y-84688095D01*
X137104761Y-84764285D01*
X137104761Y-84878571D01*
X137066666Y-84954761D01*
X137028571Y-84992857D01*
X136952380Y-85030952D01*
X136647619Y-85030952D01*
X137447619Y-85411904D02*
X137447619Y-84611904D01*
X137980952Y-84611904D02*
X138133333Y-84611904D01*
X138209523Y-84650000D01*
X138285714Y-84726190D01*
X138323809Y-84878571D01*
X138323809Y-85145238D01*
X138285714Y-85297619D01*
X138209523Y-85373809D01*
X138133333Y-85411904D01*
X137980952Y-85411904D01*
X137904761Y-85373809D01*
X137828571Y-85297619D01*
X137790476Y-85145238D01*
X137790476Y-84878571D01*
X137828571Y-84726190D01*
X137904761Y-84650000D01*
X137980952Y-84611904D01*
X139047619Y-84611904D02*
X138666666Y-84611904D01*
X138628571Y-84992857D01*
X138666666Y-84954761D01*
X138742857Y-84916666D01*
X138933333Y-84916666D01*
X139009523Y-84954761D01*
X139047619Y-84992857D01*
X139085714Y-85069047D01*
X139085714Y-85259523D01*
X139047619Y-85335714D01*
X139009523Y-85373809D01*
X138933333Y-85411904D01*
X138742857Y-85411904D01*
X138666666Y-85373809D01*
X138628571Y-85335714D01*
X140000000Y-84573809D02*
X139314285Y-85602380D01*
X140152380Y-84611904D02*
X140609523Y-84611904D01*
X140380952Y-85411904D02*
X140380952Y-84611904D01*
X140761904Y-84611904D02*
X141219047Y-84611904D01*
X140990476Y-85411904D02*
X140990476Y-84611904D01*
X141866666Y-85411904D02*
X141485714Y-85411904D01*
X141485714Y-84611904D01*
D12*
X113357142Y-80357142D02*
X113404761Y-80404761D01*
X113452380Y-80547619D01*
X113452380Y-80642857D01*
X113404761Y-80785714D01*
X113309523Y-80880952D01*
X113214285Y-80928571D01*
X113023809Y-80976190D01*
X112880952Y-80976190D01*
X112690476Y-80928571D01*
X112595238Y-80880952D01*
X112500000Y-80785714D01*
X112452380Y-80642857D01*
X112452380Y-80547619D01*
X112500000Y-80404761D01*
X112547619Y-80357142D01*
X113452380Y-79785714D02*
X113404761Y-79880952D01*
X113357142Y-79928571D01*
X113261904Y-79976190D01*
X112976190Y-79976190D01*
X112880952Y-79928571D01*
X112833333Y-79880952D01*
X112785714Y-79785714D01*
X112785714Y-79642857D01*
X112833333Y-79547619D01*
X112880952Y-79500000D01*
X112976190Y-79452380D01*
X113261904Y-79452380D01*
X113357142Y-79500000D01*
X113404761Y-79547619D01*
X113452380Y-79642857D01*
X113452380Y-79785714D01*
X113452380Y-79023809D02*
X112785714Y-79023809D01*
X112976190Y-79023809D02*
X112880952Y-78976190D01*
X112833333Y-78928571D01*
X112785714Y-78833333D01*
X112785714Y-78738095D01*
X113404761Y-78023809D02*
X113452380Y-78119047D01*
X113452380Y-78309523D01*
X113404761Y-78404761D01*
X113309523Y-78452380D01*
X112928571Y-78452380D01*
X112833333Y-78404761D01*
X112785714Y-78309523D01*
X112785714Y-78119047D01*
X112833333Y-78023809D01*
X112928571Y-77976190D01*
X113023809Y-77976190D01*
X113119047Y-78452380D01*
X113452380Y-77023809D02*
X113452380Y-77595238D01*
X113452380Y-77309523D02*
X112452380Y-77309523D01*
X112595238Y-77404761D01*
X112690476Y-77500000D01*
X112738095Y-77595238D01*
X113357142Y-86857142D02*
X113404761Y-86904761D01*
X113452380Y-87047619D01*
X113452380Y-87142857D01*
X113404761Y-87285714D01*
X113309523Y-87380952D01*
X113214285Y-87428571D01*
X113023809Y-87476190D01*
X112880952Y-87476190D01*
X112690476Y-87428571D01*
X112595238Y-87380952D01*
X112500000Y-87285714D01*
X112452380Y-87142857D01*
X112452380Y-87047619D01*
X112500000Y-86904761D01*
X112547619Y-86857142D01*
X113452380Y-86285714D02*
X113404761Y-86380952D01*
X113357142Y-86428571D01*
X113261904Y-86476190D01*
X112976190Y-86476190D01*
X112880952Y-86428571D01*
X112833333Y-86380952D01*
X112785714Y-86285714D01*
X112785714Y-86142857D01*
X112833333Y-86047619D01*
X112880952Y-86000000D01*
X112976190Y-85952380D01*
X113261904Y-85952380D01*
X113357142Y-86000000D01*
X113404761Y-86047619D01*
X113452380Y-86142857D01*
X113452380Y-86285714D01*
X113452380Y-85523809D02*
X112785714Y-85523809D01*
X112976190Y-85523809D02*
X112880952Y-85476190D01*
X112833333Y-85428571D01*
X112785714Y-85333333D01*
X112785714Y-85238095D01*
X113404761Y-84523809D02*
X113452380Y-84619047D01*
X113452380Y-84809523D01*
X113404761Y-84904761D01*
X113309523Y-84952380D01*
X112928571Y-84952380D01*
X112833333Y-84904761D01*
X112785714Y-84809523D01*
X112785714Y-84619047D01*
X112833333Y-84523809D01*
X112928571Y-84476190D01*
X113023809Y-84476190D01*
X113119047Y-84952380D01*
X112547619Y-84095238D02*
X112500000Y-84047619D01*
X112452380Y-83952380D01*
X112452380Y-83714285D01*
X112500000Y-83619047D01*
X112547619Y-83571428D01*
X112642857Y-83523809D01*
X112738095Y-83523809D01*
X112880952Y-83571428D01*
X113452380Y-84142857D01*
X113452380Y-83523809D01*
D11*
X148000000Y-68540476D02*
X148038095Y-68464285D01*
X148038095Y-68350000D01*
X148000000Y-68235714D01*
X147923809Y-68159523D01*
X147847619Y-68121428D01*
X147695238Y-68083333D01*
X147580952Y-68083333D01*
X147428571Y-68121428D01*
X147352380Y-68159523D01*
X147276190Y-68235714D01*
X147238095Y-68350000D01*
X147238095Y-68426190D01*
X147276190Y-68540476D01*
X147314285Y-68578571D01*
X147580952Y-68578571D01*
X147580952Y-68426190D01*
X147238095Y-68921428D02*
X148038095Y-68921428D01*
X147238095Y-69378571D01*
X148038095Y-69378571D01*
X147238095Y-69759523D02*
X148038095Y-69759523D01*
X148038095Y-69950000D01*
X148000000Y-70064285D01*
X147923809Y-70140476D01*
X147847619Y-70178571D01*
X147695238Y-70216666D01*
X147580952Y-70216666D01*
X147428571Y-70178571D01*
X147352380Y-70140476D01*
X147276190Y-70064285D01*
X147238095Y-69950000D01*
X147238095Y-69759523D01*
X147542857Y-71169047D02*
X147542857Y-71778571D01*
X147238095Y-71473809D02*
X147847619Y-71473809D01*
X148038095Y-72540476D02*
X148038095Y-72159523D01*
X147657142Y-72121428D01*
X147695238Y-72159523D01*
X147733333Y-72235714D01*
X147733333Y-72426190D01*
X147695238Y-72502380D01*
X147657142Y-72540476D01*
X147580952Y-72578571D01*
X147390476Y-72578571D01*
X147314285Y-72540476D01*
X147276190Y-72502380D01*
X147238095Y-72426190D01*
X147238095Y-72235714D01*
X147276190Y-72159523D01*
X147314285Y-72121428D01*
X148038095Y-72807142D02*
X147238095Y-73073809D01*
X148038095Y-73340476D01*
X147276190Y-74178571D02*
X147238095Y-74292857D01*
X147238095Y-74483333D01*
X147276190Y-74559523D01*
X147314285Y-74597619D01*
X147390476Y-74635714D01*
X147466666Y-74635714D01*
X147542857Y-74597619D01*
X147580952Y-74559523D01*
X147619047Y-74483333D01*
X147657142Y-74330952D01*
X147695238Y-74254761D01*
X147733333Y-74216666D01*
X147809523Y-74178571D01*
X147885714Y-74178571D01*
X147961904Y-74216666D01*
X148000000Y-74254761D01*
X148038095Y-74330952D01*
X148038095Y-74521428D01*
X148000000Y-74635714D01*
X147238095Y-74978571D02*
X148038095Y-74978571D01*
X148000000Y-75778571D02*
X148038095Y-75702380D01*
X148038095Y-75588095D01*
X148000000Y-75473809D01*
X147923809Y-75397619D01*
X147847619Y-75359523D01*
X147695238Y-75321428D01*
X147580952Y-75321428D01*
X147428571Y-75359523D01*
X147352380Y-75397619D01*
X147276190Y-75473809D01*
X147238095Y-75588095D01*
X147238095Y-75664285D01*
X147276190Y-75778571D01*
X147314285Y-75816666D01*
X147580952Y-75816666D01*
X147580952Y-75664285D01*
X114390476Y-97600000D02*
X114314285Y-97561904D01*
X114200000Y-97561904D01*
X114085714Y-97600000D01*
X114009523Y-97676190D01*
X113971428Y-97752380D01*
X113933333Y-97904761D01*
X113933333Y-98019047D01*
X113971428Y-98171428D01*
X114009523Y-98247619D01*
X114085714Y-98323809D01*
X114200000Y-98361904D01*
X114276190Y-98361904D01*
X114390476Y-98323809D01*
X114428571Y-98285714D01*
X114428571Y-98019047D01*
X114276190Y-98019047D01*
X114771428Y-98361904D02*
X114771428Y-97561904D01*
X115228571Y-98361904D01*
X115228571Y-97561904D01*
X115609523Y-98361904D02*
X115609523Y-97561904D01*
X115800000Y-97561904D01*
X115914285Y-97600000D01*
X115990476Y-97676190D01*
X116028571Y-97752380D01*
X116066666Y-97904761D01*
X116066666Y-98019047D01*
X116028571Y-98171428D01*
X115990476Y-98247619D01*
X115914285Y-98323809D01*
X115800000Y-98361904D01*
X115609523Y-98361904D01*
X140464952Y-59652380D02*
X140655428Y-59652380D01*
X140750666Y-59700000D01*
X140845904Y-59795238D01*
X140893523Y-59985714D01*
X140893523Y-60319047D01*
X140845904Y-60509523D01*
X140750666Y-60604761D01*
X140655428Y-60652380D01*
X140464952Y-60652380D01*
X140369714Y-60604761D01*
X140274476Y-60509523D01*
X140226857Y-60319047D01*
X140226857Y-59985714D01*
X140274476Y-59795238D01*
X140369714Y-59700000D01*
X140464952Y-59652380D01*
X141322095Y-60652380D02*
X141322095Y-59652380D01*
X141893523Y-60652380D01*
X141893523Y-59652380D01*
D12*
X114478571Y-60602380D02*
X115050000Y-60602380D01*
X114764285Y-61602380D02*
X114764285Y-60602380D01*
X115240476Y-60602380D02*
X115811904Y-60602380D01*
X115526190Y-61602380D02*
X115526190Y-60602380D01*
X116621428Y-61602380D02*
X116145238Y-61602380D01*
X116145238Y-60602380D01*
D11*
X113721428Y-88807142D02*
X114330952Y-88807142D01*
X114026190Y-89111904D02*
X114026190Y-88502380D01*
X115092857Y-88311904D02*
X114711904Y-88311904D01*
X114673809Y-88692857D01*
X114711904Y-88654761D01*
X114788095Y-88616666D01*
X114978571Y-88616666D01*
X115054761Y-88654761D01*
X115092857Y-88692857D01*
X115130952Y-88769047D01*
X115130952Y-88959523D01*
X115092857Y-89035714D01*
X115054761Y-89073809D01*
X114978571Y-89111904D01*
X114788095Y-89111904D01*
X114711904Y-89073809D01*
X114673809Y-89035714D01*
X115359523Y-88311904D02*
X115626190Y-89111904D01*
X115892857Y-88311904D01*
X136366666Y-74650000D02*
X136290476Y-74611904D01*
X136176190Y-74611904D01*
X136061904Y-74650000D01*
X135985714Y-74726190D01*
X135947619Y-74802380D01*
X135909523Y-74954761D01*
X135909523Y-75069047D01*
X135947619Y-75221428D01*
X135985714Y-75297619D01*
X136061904Y-75373809D01*
X136176190Y-75411904D01*
X136252380Y-75411904D01*
X136366666Y-75373809D01*
X136404761Y-75335714D01*
X136404761Y-75069047D01*
X136252380Y-75069047D01*
X136747619Y-75411904D02*
X136747619Y-74611904D01*
X137052380Y-74611904D01*
X137128571Y-74650000D01*
X137166666Y-74688095D01*
X137204761Y-74764285D01*
X137204761Y-74878571D01*
X137166666Y-74954761D01*
X137128571Y-74992857D01*
X137052380Y-75030952D01*
X136747619Y-75030952D01*
X137547619Y-75411904D02*
X137547619Y-74611904D01*
X138080952Y-74611904D02*
X138233333Y-74611904D01*
X138309523Y-74650000D01*
X138385714Y-74726190D01*
X138423809Y-74878571D01*
X138423809Y-75145238D01*
X138385714Y-75297619D01*
X138309523Y-75373809D01*
X138233333Y-75411904D01*
X138080952Y-75411904D01*
X138004761Y-75373809D01*
X137928571Y-75297619D01*
X137890476Y-75145238D01*
X137890476Y-74878571D01*
X137928571Y-74726190D01*
X138004761Y-74650000D01*
X138080952Y-74611904D01*
X138728571Y-74688095D02*
X138766666Y-74650000D01*
X138842857Y-74611904D01*
X139033333Y-74611904D01*
X139109523Y-74650000D01*
X139147619Y-74688095D01*
X139185714Y-74764285D01*
X139185714Y-74840476D01*
X139147619Y-74954761D01*
X138690476Y-75411904D01*
X139185714Y-75411904D01*
X140100000Y-74573809D02*
X139414285Y-75602380D01*
X140252380Y-74611904D02*
X140709523Y-74611904D01*
X140480952Y-75411904D02*
X140480952Y-74611904D01*
X140861904Y-74611904D02*
X141319047Y-74611904D01*
X141090476Y-75411904D02*
X141090476Y-74611904D01*
X141966666Y-75411904D02*
X141585714Y-75411904D01*
X141585714Y-74611904D01*
X147107023Y-91100000D02*
X147030833Y-91061904D01*
X146916547Y-91061904D01*
X146802261Y-91100000D01*
X146726071Y-91176190D01*
X146687976Y-91252380D01*
X146649880Y-91404761D01*
X146649880Y-91519047D01*
X146687976Y-91671428D01*
X146726071Y-91747619D01*
X146802261Y-91823809D01*
X146916547Y-91861904D01*
X146992738Y-91861904D01*
X147107023Y-91823809D01*
X147145119Y-91785714D01*
X147145119Y-91519047D01*
X146992738Y-91519047D01*
X147487976Y-91861904D02*
X147487976Y-91061904D01*
X147945119Y-91861904D01*
X147945119Y-91061904D01*
X148326071Y-91861904D02*
X148326071Y-91061904D01*
X148516547Y-91061904D01*
X148630833Y-91100000D01*
X148707023Y-91176190D01*
X148745119Y-91252380D01*
X148783214Y-91404761D01*
X148783214Y-91519047D01*
X148745119Y-91671428D01*
X148707023Y-91747619D01*
X148630833Y-91823809D01*
X148516547Y-91861904D01*
X148326071Y-91861904D01*
X135987976Y-91457142D02*
X136597500Y-91457142D01*
X136292738Y-91761904D02*
X136292738Y-91152380D01*
X136864166Y-90961904D02*
X137130833Y-91761904D01*
X137397500Y-90961904D01*
X137930833Y-91342857D02*
X138045119Y-91380952D01*
X138083214Y-91419047D01*
X138121309Y-91495238D01*
X138121309Y-91609523D01*
X138083214Y-91685714D01*
X138045119Y-91723809D01*
X137968928Y-91761904D01*
X137664166Y-91761904D01*
X137664166Y-90961904D01*
X137930833Y-90961904D01*
X138007023Y-91000000D01*
X138045119Y-91038095D01*
X138083214Y-91114285D01*
X138083214Y-91190476D01*
X138045119Y-91266666D01*
X138007023Y-91304761D01*
X137930833Y-91342857D01*
X137664166Y-91342857D01*
X138426071Y-91533333D02*
X138807023Y-91533333D01*
X138349880Y-91761904D02*
X138616547Y-90961904D01*
X138883214Y-91761904D01*
X139035595Y-90961904D02*
X139492738Y-90961904D01*
X139264166Y-91761904D02*
X139264166Y-90961904D01*
X148050000Y-79840476D02*
X148088095Y-79764285D01*
X148088095Y-79650000D01*
X148050000Y-79535714D01*
X147973809Y-79459523D01*
X147897619Y-79421428D01*
X147745238Y-79383333D01*
X147630952Y-79383333D01*
X147478571Y-79421428D01*
X147402380Y-79459523D01*
X147326190Y-79535714D01*
X147288095Y-79650000D01*
X147288095Y-79726190D01*
X147326190Y-79840476D01*
X147364285Y-79878571D01*
X147630952Y-79878571D01*
X147630952Y-79726190D01*
X147288095Y-80221428D02*
X148088095Y-80221428D01*
X147288095Y-80678571D01*
X148088095Y-80678571D01*
X147288095Y-81059523D02*
X148088095Y-81059523D01*
X148088095Y-81250000D01*
X148050000Y-81364285D01*
X147973809Y-81440476D01*
X147897619Y-81478571D01*
X147745238Y-81516666D01*
X147630952Y-81516666D01*
X147478571Y-81478571D01*
X147402380Y-81440476D01*
X147326190Y-81364285D01*
X147288095Y-81250000D01*
X147288095Y-81059523D01*
X147592857Y-82469047D02*
X147592857Y-83078571D01*
X147288095Y-82773809D02*
X147897619Y-82773809D01*
X148088095Y-83840476D02*
X148088095Y-83459523D01*
X147707142Y-83421428D01*
X147745238Y-83459523D01*
X147783333Y-83535714D01*
X147783333Y-83726190D01*
X147745238Y-83802380D01*
X147707142Y-83840476D01*
X147630952Y-83878571D01*
X147440476Y-83878571D01*
X147364285Y-83840476D01*
X147326190Y-83802380D01*
X147288095Y-83726190D01*
X147288095Y-83535714D01*
X147326190Y-83459523D01*
X147364285Y-83421428D01*
X148088095Y-84107142D02*
X147288095Y-84373809D01*
X148088095Y-84640476D01*
X147326190Y-85478571D02*
X147288095Y-85592857D01*
X147288095Y-85783333D01*
X147326190Y-85859523D01*
X147364285Y-85897619D01*
X147440476Y-85935714D01*
X147516666Y-85935714D01*
X147592857Y-85897619D01*
X147630952Y-85859523D01*
X147669047Y-85783333D01*
X147707142Y-85630952D01*
X147745238Y-85554761D01*
X147783333Y-85516666D01*
X147859523Y-85478571D01*
X147935714Y-85478571D01*
X148011904Y-85516666D01*
X148050000Y-85554761D01*
X148088095Y-85630952D01*
X148088095Y-85821428D01*
X148050000Y-85935714D01*
X147288095Y-86278571D02*
X148088095Y-86278571D01*
X148050000Y-87078571D02*
X148088095Y-87002380D01*
X148088095Y-86888095D01*
X148050000Y-86773809D01*
X147973809Y-86697619D01*
X147897619Y-86659523D01*
X147745238Y-86621428D01*
X147630952Y-86621428D01*
X147478571Y-86659523D01*
X147402380Y-86697619D01*
X147326190Y-86773809D01*
X147288095Y-86888095D01*
X147288095Y-86964285D01*
X147326190Y-87078571D01*
X147364285Y-87116666D01*
X147630952Y-87116666D01*
X147630952Y-86964285D01*
D12*
X114345238Y-75702380D02*
X114345238Y-74702380D01*
X114726190Y-74702380D01*
X114821428Y-74750000D01*
X114869047Y-74797619D01*
X114916666Y-74892857D01*
X114916666Y-75035714D01*
X114869047Y-75130952D01*
X114821428Y-75178571D01*
X114726190Y-75226190D01*
X114345238Y-75226190D01*
X115250000Y-74702380D02*
X115488095Y-75702380D01*
X115678571Y-74988095D01*
X115869047Y-75702380D01*
X116107142Y-74702380D01*
X116488095Y-75702380D02*
X116488095Y-74702380D01*
X116821428Y-75416666D01*
X117154761Y-74702380D01*
X117154761Y-75702380D01*
D11*
X133266666Y-57152380D02*
X133266666Y-57866666D01*
X133219047Y-58009523D01*
X133123809Y-58104761D01*
X132980952Y-58152380D01*
X132885714Y-58152380D01*
X134171428Y-57152380D02*
X133980952Y-57152380D01*
X133885714Y-57200000D01*
X133838095Y-57247619D01*
X133742857Y-57390476D01*
X133695238Y-57580952D01*
X133695238Y-57961904D01*
X133742857Y-58057142D01*
X133790476Y-58104761D01*
X133885714Y-58152380D01*
X134076190Y-58152380D01*
X134171428Y-58104761D01*
X134219047Y-58057142D01*
X134266666Y-57961904D01*
X134266666Y-57723809D01*
X134219047Y-57628571D01*
X134171428Y-57580952D01*
X134076190Y-57533333D01*
X133885714Y-57533333D01*
X133790476Y-57580952D01*
X133742857Y-57628571D01*
X133695238Y-57723809D01*
X138466666Y-89102380D02*
X138466666Y-89816666D01*
X138419047Y-89959523D01*
X138323809Y-90054761D01*
X138180952Y-90102380D01*
X138085714Y-90102380D01*
X139419047Y-89102380D02*
X138942857Y-89102380D01*
X138895238Y-89578571D01*
X138942857Y-89530952D01*
X139038095Y-89483333D01*
X139276190Y-89483333D01*
X139371428Y-89530952D01*
X139419047Y-89578571D01*
X139466666Y-89673809D01*
X139466666Y-89911904D01*
X139419047Y-90007142D01*
X139371428Y-90054761D01*
X139276190Y-90102380D01*
X139038095Y-90102380D01*
X138942857Y-90054761D01*
X138895238Y-90007142D01*
X116066666Y-57202380D02*
X116066666Y-57916666D01*
X116019047Y-58059523D01*
X115923809Y-58154761D01*
X115780952Y-58202380D01*
X115685714Y-58202380D01*
X116971428Y-57535714D02*
X116971428Y-58202380D01*
X116733333Y-57154761D02*
X116495238Y-57869047D01*
X117114285Y-57869047D01*
X118433333Y-81752380D02*
X118100000Y-81276190D01*
X117861904Y-81752380D02*
X117861904Y-80752380D01*
X118242857Y-80752380D01*
X118338095Y-80800000D01*
X118385714Y-80847619D01*
X118433333Y-80942857D01*
X118433333Y-81085714D01*
X118385714Y-81180952D01*
X118338095Y-81228571D01*
X118242857Y-81276190D01*
X117861904Y-81276190D01*
X118766666Y-80752380D02*
X119385714Y-80752380D01*
X119052380Y-81133333D01*
X119195238Y-81133333D01*
X119290476Y-81180952D01*
X119338095Y-81228571D01*
X119385714Y-81323809D01*
X119385714Y-81561904D01*
X119338095Y-81657142D01*
X119290476Y-81704761D01*
X119195238Y-81752380D01*
X118909523Y-81752380D01*
X118814285Y-81704761D01*
X118766666Y-81657142D01*
X118433333Y-83452380D02*
X118100000Y-82976190D01*
X117861904Y-83452380D02*
X117861904Y-82452380D01*
X118242857Y-82452380D01*
X118338095Y-82500000D01*
X118385714Y-82547619D01*
X118433333Y-82642857D01*
X118433333Y-82785714D01*
X118385714Y-82880952D01*
X118338095Y-82928571D01*
X118242857Y-82976190D01*
X117861904Y-82976190D01*
X119290476Y-82785714D02*
X119290476Y-83452380D01*
X119052380Y-82404761D02*
X118814285Y-83119047D01*
X119433333Y-83119047D01*
X111241666Y-97702380D02*
X111241666Y-98416666D01*
X111194047Y-98559523D01*
X111098809Y-98654761D01*
X110955952Y-98702380D01*
X110860714Y-98702380D01*
X111622619Y-97702380D02*
X112289285Y-97702380D01*
X111860714Y-98702380D01*
X139407142Y-68116666D02*
X139454761Y-68164285D01*
X139502380Y-68307142D01*
X139502380Y-68402380D01*
X139454761Y-68545238D01*
X139359523Y-68640476D01*
X139264285Y-68688095D01*
X139073809Y-68735714D01*
X138930952Y-68735714D01*
X138740476Y-68688095D01*
X138645238Y-68640476D01*
X138550000Y-68545238D01*
X138502380Y-68402380D01*
X138502380Y-68307142D01*
X138550000Y-68164285D01*
X138597619Y-68116666D01*
X138502380Y-67783333D02*
X138502380Y-67164285D01*
X138883333Y-67497619D01*
X138883333Y-67354761D01*
X138930952Y-67259523D01*
X138978571Y-67211904D01*
X139073809Y-67164285D01*
X139311904Y-67164285D01*
X139407142Y-67211904D01*
X139454761Y-67259523D01*
X139502380Y-67354761D01*
X139502380Y-67640476D01*
X139454761Y-67735714D01*
X139407142Y-67783333D01*
X137057142Y-68166666D02*
X137104761Y-68214285D01*
X137152380Y-68357142D01*
X137152380Y-68452380D01*
X137104761Y-68595238D01*
X137009523Y-68690476D01*
X136914285Y-68738095D01*
X136723809Y-68785714D01*
X136580952Y-68785714D01*
X136390476Y-68738095D01*
X136295238Y-68690476D01*
X136200000Y-68595238D01*
X136152380Y-68452380D01*
X136152380Y-68357142D01*
X136200000Y-68214285D01*
X136247619Y-68166666D01*
X136485714Y-67309523D02*
X137152380Y-67309523D01*
X136104761Y-67547619D02*
X136819047Y-67785714D01*
X136819047Y-67166666D01*
X137107142Y-77616666D02*
X137154761Y-77664285D01*
X137202380Y-77807142D01*
X137202380Y-77902380D01*
X137154761Y-78045238D01*
X137059523Y-78140476D01*
X136964285Y-78188095D01*
X136773809Y-78235714D01*
X136630952Y-78235714D01*
X136440476Y-78188095D01*
X136345238Y-78140476D01*
X136250000Y-78045238D01*
X136202380Y-77902380D01*
X136202380Y-77807142D01*
X136250000Y-77664285D01*
X136297619Y-77616666D01*
X137202380Y-76664285D02*
X137202380Y-77235714D01*
X137202380Y-76950000D02*
X136202380Y-76950000D01*
X136345238Y-77045238D01*
X136440476Y-77140476D01*
X136488095Y-77235714D01*
X132504761Y-92947619D02*
X132409523Y-92900000D01*
X132314285Y-92804761D01*
X132171428Y-92661904D01*
X132076190Y-92614285D01*
X131980952Y-92614285D01*
X132028571Y-92852380D02*
X131933333Y-92804761D01*
X131838095Y-92709523D01*
X131790476Y-92519047D01*
X131790476Y-92185714D01*
X131838095Y-91995238D01*
X131933333Y-91900000D01*
X132028571Y-91852380D01*
X132219047Y-91852380D01*
X132314285Y-91900000D01*
X132409523Y-91995238D01*
X132457142Y-92185714D01*
X132457142Y-92519047D01*
X132409523Y-92709523D01*
X132314285Y-92804761D01*
X132219047Y-92852380D01*
X132028571Y-92852380D01*
X133409523Y-92852380D02*
X132838095Y-92852380D01*
X133123809Y-92852380D02*
X133123809Y-91852380D01*
X133028571Y-91995238D01*
X132933333Y-92090476D01*
X132838095Y-92138095D01*
X137552380Y-95166666D02*
X137076190Y-95500000D01*
X137552380Y-95738095D02*
X136552380Y-95738095D01*
X136552380Y-95357142D01*
X136600000Y-95261904D01*
X136647619Y-95214285D01*
X136742857Y-95166666D01*
X136885714Y-95166666D01*
X136980952Y-95214285D01*
X137028571Y-95261904D01*
X137076190Y-95357142D01*
X137076190Y-95738095D01*
X136552380Y-94261904D02*
X136552380Y-94738095D01*
X137028571Y-94785714D01*
X136980952Y-94738095D01*
X136933333Y-94642857D01*
X136933333Y-94404761D01*
X136980952Y-94309523D01*
X137028571Y-94261904D01*
X137123809Y-94214285D01*
X137361904Y-94214285D01*
X137457142Y-94261904D01*
X137504761Y-94309523D01*
X137552380Y-94404761D01*
X137552380Y-94642857D01*
X137504761Y-94738095D01*
X137457142Y-94785714D01*
X118533333Y-78552380D02*
X118200000Y-78076190D01*
X117961904Y-78552380D02*
X117961904Y-77552380D01*
X118342857Y-77552380D01*
X118438095Y-77600000D01*
X118485714Y-77647619D01*
X118533333Y-77742857D01*
X118533333Y-77885714D01*
X118485714Y-77980952D01*
X118438095Y-78028571D01*
X118342857Y-78076190D01*
X117961904Y-78076190D01*
X119009523Y-78552380D02*
X119200000Y-78552380D01*
X119295238Y-78504761D01*
X119342857Y-78457142D01*
X119438095Y-78314285D01*
X119485714Y-78123809D01*
X119485714Y-77742857D01*
X119438095Y-77647619D01*
X119390476Y-77600000D01*
X119295238Y-77552380D01*
X119104761Y-77552380D01*
X119009523Y-77600000D01*
X118961904Y-77647619D01*
X118914285Y-77742857D01*
X118914285Y-77980952D01*
X118961904Y-78076190D01*
X119009523Y-78123809D01*
X119104761Y-78171428D01*
X119295238Y-78171428D01*
X119390476Y-78123809D01*
X119438095Y-78076190D01*
X119485714Y-77980952D01*
X118357142Y-85352380D02*
X118023809Y-84876190D01*
X117785714Y-85352380D02*
X117785714Y-84352380D01*
X118166666Y-84352380D01*
X118261904Y-84400000D01*
X118309523Y-84447619D01*
X118357142Y-84542857D01*
X118357142Y-84685714D01*
X118309523Y-84780952D01*
X118261904Y-84828571D01*
X118166666Y-84876190D01*
X117785714Y-84876190D01*
X119309523Y-85352380D02*
X118738095Y-85352380D01*
X119023809Y-85352380D02*
X119023809Y-84352380D01*
X118928571Y-84495238D01*
X118833333Y-84590476D01*
X118738095Y-84638095D01*
X119928571Y-84352380D02*
X120023809Y-84352380D01*
X120119047Y-84400000D01*
X120166666Y-84447619D01*
X120214285Y-84542857D01*
X120261904Y-84733333D01*
X120261904Y-84971428D01*
X120214285Y-85161904D01*
X120166666Y-85257142D01*
X120119047Y-85304761D01*
X120023809Y-85352380D01*
X119928571Y-85352380D01*
X119833333Y-85304761D01*
X119785714Y-85257142D01*
X119738095Y-85161904D01*
X119690476Y-84971428D01*
X119690476Y-84733333D01*
X119738095Y-84542857D01*
X119785714Y-84447619D01*
X119833333Y-84400000D01*
X119928571Y-84352380D01*
X118457142Y-80052380D02*
X118123809Y-79576190D01*
X117885714Y-80052380D02*
X117885714Y-79052380D01*
X118266666Y-79052380D01*
X118361904Y-79100000D01*
X118409523Y-79147619D01*
X118457142Y-79242857D01*
X118457142Y-79385714D01*
X118409523Y-79480952D01*
X118361904Y-79528571D01*
X118266666Y-79576190D01*
X117885714Y-79576190D01*
X119409523Y-80052380D02*
X118838095Y-80052380D01*
X119123809Y-80052380D02*
X119123809Y-79052380D01*
X119028571Y-79195238D01*
X118933333Y-79290476D01*
X118838095Y-79338095D01*
X120361904Y-80052380D02*
X119790476Y-80052380D01*
X120076190Y-80052380D02*
X120076190Y-79052380D01*
X119980952Y-79195238D01*
X119885714Y-79290476D01*
X119790476Y-79338095D01*
X118357142Y-86952380D02*
X118023809Y-86476190D01*
X117785714Y-86952380D02*
X117785714Y-85952380D01*
X118166666Y-85952380D01*
X118261904Y-86000000D01*
X118309523Y-86047619D01*
X118357142Y-86142857D01*
X118357142Y-86285714D01*
X118309523Y-86380952D01*
X118261904Y-86428571D01*
X118166666Y-86476190D01*
X117785714Y-86476190D01*
X119309523Y-86952380D02*
X118738095Y-86952380D01*
X119023809Y-86952380D02*
X119023809Y-85952380D01*
X118928571Y-86095238D01*
X118833333Y-86190476D01*
X118738095Y-86238095D01*
X119690476Y-86047619D02*
X119738095Y-86000000D01*
X119833333Y-85952380D01*
X120071428Y-85952380D01*
X120166666Y-86000000D01*
X120214285Y-86047619D01*
X120261904Y-86142857D01*
X120261904Y-86238095D01*
X120214285Y-86380952D01*
X119642857Y-86952380D01*
X120261904Y-86952380D01*
X132457142Y-72752380D02*
X132123809Y-72276190D01*
X131885714Y-72752380D02*
X131885714Y-71752380D01*
X132266666Y-71752380D01*
X132361904Y-71800000D01*
X132409523Y-71847619D01*
X132457142Y-71942857D01*
X132457142Y-72085714D01*
X132409523Y-72180952D01*
X132361904Y-72228571D01*
X132266666Y-72276190D01*
X131885714Y-72276190D01*
X133409523Y-72752380D02*
X132838095Y-72752380D01*
X133123809Y-72752380D02*
X133123809Y-71752380D01*
X133028571Y-71895238D01*
X132933333Y-71990476D01*
X132838095Y-72038095D01*
X133742857Y-71752380D02*
X134361904Y-71752380D01*
X134028571Y-72133333D01*
X134171428Y-72133333D01*
X134266666Y-72180952D01*
X134314285Y-72228571D01*
X134361904Y-72323809D01*
X134361904Y-72561904D01*
X134314285Y-72657142D01*
X134266666Y-72704761D01*
X134171428Y-72752380D01*
X133885714Y-72752380D01*
X133790476Y-72704761D01*
X133742857Y-72657142D01*
X132457142Y-71252380D02*
X132123809Y-70776190D01*
X131885714Y-71252380D02*
X131885714Y-70252380D01*
X132266666Y-70252380D01*
X132361904Y-70300000D01*
X132409523Y-70347619D01*
X132457142Y-70442857D01*
X132457142Y-70585714D01*
X132409523Y-70680952D01*
X132361904Y-70728571D01*
X132266666Y-70776190D01*
X131885714Y-70776190D01*
X133409523Y-71252380D02*
X132838095Y-71252380D01*
X133123809Y-71252380D02*
X133123809Y-70252380D01*
X133028571Y-70395238D01*
X132933333Y-70490476D01*
X132838095Y-70538095D01*
X134266666Y-70585714D02*
X134266666Y-71252380D01*
X134028571Y-70204761D02*
X133790476Y-70919047D01*
X134409523Y-70919047D01*
X139607142Y-77616666D02*
X139654761Y-77664285D01*
X139702380Y-77807142D01*
X139702380Y-77902380D01*
X139654761Y-78045238D01*
X139559523Y-78140476D01*
X139464285Y-78188095D01*
X139273809Y-78235714D01*
X139130952Y-78235714D01*
X138940476Y-78188095D01*
X138845238Y-78140476D01*
X138750000Y-78045238D01*
X138702380Y-77902380D01*
X138702380Y-77807142D01*
X138750000Y-77664285D01*
X138797619Y-77616666D01*
X138797619Y-77235714D02*
X138750000Y-77188095D01*
X138702380Y-77092857D01*
X138702380Y-76854761D01*
X138750000Y-76759523D01*
X138797619Y-76711904D01*
X138892857Y-76664285D01*
X138988095Y-76664285D01*
X139130952Y-76711904D01*
X139702380Y-77283333D01*
X139702380Y-76664285D01*
X140816666Y-66952380D02*
X140816666Y-67666666D01*
X140769047Y-67809523D01*
X140673809Y-67904761D01*
X140530952Y-67952380D01*
X140435714Y-67952380D01*
X141197619Y-66952380D02*
X141816666Y-66952380D01*
X141483333Y-67333333D01*
X141626190Y-67333333D01*
X141721428Y-67380952D01*
X141769047Y-67428571D01*
X141816666Y-67523809D01*
X141816666Y-67761904D01*
X141769047Y-67857142D01*
X141721428Y-67904761D01*
X141626190Y-67952380D01*
X141340476Y-67952380D01*
X141245238Y-67904761D01*
X141197619Y-67857142D01*
X113483333Y-66202380D02*
X113150000Y-65726190D01*
X112911904Y-66202380D02*
X112911904Y-65202380D01*
X113292857Y-65202380D01*
X113388095Y-65250000D01*
X113435714Y-65297619D01*
X113483333Y-65392857D01*
X113483333Y-65535714D01*
X113435714Y-65630952D01*
X113388095Y-65678571D01*
X113292857Y-65726190D01*
X112911904Y-65726190D01*
X113816666Y-65202380D02*
X114483333Y-65202380D01*
X114054761Y-66202380D01*
X140916666Y-86302380D02*
X140916666Y-87016666D01*
X140869047Y-87159523D01*
X140773809Y-87254761D01*
X140630952Y-87302380D01*
X140535714Y-87302380D01*
X141535714Y-86730952D02*
X141440476Y-86683333D01*
X141392857Y-86635714D01*
X141345238Y-86540476D01*
X141345238Y-86492857D01*
X141392857Y-86397619D01*
X141440476Y-86350000D01*
X141535714Y-86302380D01*
X141726190Y-86302380D01*
X141821428Y-86350000D01*
X141869047Y-86397619D01*
X141916666Y-86492857D01*
X141916666Y-86540476D01*
X141869047Y-86635714D01*
X141821428Y-86683333D01*
X141726190Y-86730952D01*
X141535714Y-86730952D01*
X141440476Y-86778571D01*
X141392857Y-86826190D01*
X141345238Y-86921428D01*
X141345238Y-87111904D01*
X141392857Y-87207142D01*
X141440476Y-87254761D01*
X141535714Y-87302380D01*
X141726190Y-87302380D01*
X141821428Y-87254761D01*
X141869047Y-87207142D01*
X141916666Y-87111904D01*
X141916666Y-86921428D01*
X141869047Y-86826190D01*
X141821428Y-86778571D01*
X141726190Y-86730952D01*
X132523333Y-66052380D02*
X132190000Y-65576190D01*
X131951904Y-66052380D02*
X131951904Y-65052380D01*
X132332857Y-65052380D01*
X132428095Y-65100000D01*
X132475714Y-65147619D01*
X132523333Y-65242857D01*
X132523333Y-65385714D01*
X132475714Y-65480952D01*
X132428095Y-65528571D01*
X132332857Y-65576190D01*
X131951904Y-65576190D01*
X133094761Y-65480952D02*
X132999523Y-65433333D01*
X132951904Y-65385714D01*
X132904285Y-65290476D01*
X132904285Y-65242857D01*
X132951904Y-65147619D01*
X132999523Y-65100000D01*
X133094761Y-65052380D01*
X133285238Y-65052380D01*
X133380476Y-65100000D01*
X133428095Y-65147619D01*
X133475714Y-65242857D01*
X133475714Y-65290476D01*
X133428095Y-65385714D01*
X133380476Y-65433333D01*
X133285238Y-65480952D01*
X133094761Y-65480952D01*
X132999523Y-65528571D01*
X132951904Y-65576190D01*
X132904285Y-65671428D01*
X132904285Y-65861904D01*
X132951904Y-65957142D01*
X132999523Y-66004761D01*
X133094761Y-66052380D01*
X133285238Y-66052380D01*
X133380476Y-66004761D01*
X133428095Y-65957142D01*
X133475714Y-65861904D01*
X133475714Y-65671428D01*
X133428095Y-65576190D01*
X133380476Y-65528571D01*
X133285238Y-65480952D01*
X132433333Y-64357142D02*
X132385714Y-64404761D01*
X132242857Y-64452380D01*
X132147619Y-64452380D01*
X132004761Y-64404761D01*
X131909523Y-64309523D01*
X131861904Y-64214285D01*
X131814285Y-64023809D01*
X131814285Y-63880952D01*
X131861904Y-63690476D01*
X131909523Y-63595238D01*
X132004761Y-63500000D01*
X132147619Y-63452380D01*
X132242857Y-63452380D01*
X132385714Y-63500000D01*
X132433333Y-63547619D01*
X133338095Y-63452380D02*
X132861904Y-63452380D01*
X132814285Y-63928571D01*
X132861904Y-63880952D01*
X132957142Y-63833333D01*
X133195238Y-63833333D01*
X133290476Y-63880952D01*
X133338095Y-63928571D01*
X133385714Y-64023809D01*
X133385714Y-64261904D01*
X133338095Y-64357142D01*
X133290476Y-64404761D01*
X133195238Y-64452380D01*
X132957142Y-64452380D01*
X132861904Y-64404761D01*
X132814285Y-64357142D01*
X101266666Y-55552380D02*
X101266666Y-56266666D01*
X101219047Y-56409523D01*
X101123809Y-56504761D01*
X100980952Y-56552380D01*
X100885714Y-56552380D01*
X101695238Y-55647619D02*
X101742857Y-55600000D01*
X101838095Y-55552380D01*
X102076190Y-55552380D01*
X102171428Y-55600000D01*
X102219047Y-55647619D01*
X102266666Y-55742857D01*
X102266666Y-55838095D01*
X102219047Y-55980952D01*
X101647619Y-56552380D01*
X102266666Y-56552380D01*
X122252380Y-93588095D02*
X121252380Y-93588095D01*
X121252380Y-93350000D01*
X121300000Y-93207142D01*
X121395238Y-93111904D01*
X121490476Y-93064285D01*
X121680952Y-93016666D01*
X121823809Y-93016666D01*
X122014285Y-93064285D01*
X122109523Y-93111904D01*
X122204761Y-93207142D01*
X122252380Y-93350000D01*
X122252380Y-93588095D01*
X122252380Y-92064285D02*
X122252380Y-92635714D01*
X122252380Y-92350000D02*
X121252380Y-92350000D01*
X121395238Y-92445238D01*
X121490476Y-92540476D01*
X121538095Y-92635714D01*
X117904761Y-69997619D02*
X117809523Y-69950000D01*
X117714285Y-69854761D01*
X117571428Y-69711904D01*
X117476190Y-69664285D01*
X117380952Y-69664285D01*
X117428571Y-69902380D02*
X117333333Y-69854761D01*
X117238095Y-69759523D01*
X117190476Y-69569047D01*
X117190476Y-69235714D01*
X117238095Y-69045238D01*
X117333333Y-68950000D01*
X117428571Y-68902380D01*
X117619047Y-68902380D01*
X117714285Y-68950000D01*
X117809523Y-69045238D01*
X117857142Y-69235714D01*
X117857142Y-69569047D01*
X117809523Y-69759523D01*
X117714285Y-69854761D01*
X117619047Y-69902380D01*
X117428571Y-69902380D01*
X118238095Y-68997619D02*
X118285714Y-68950000D01*
X118380952Y-68902380D01*
X118619047Y-68902380D01*
X118714285Y-68950000D01*
X118761904Y-68997619D01*
X118809523Y-69092857D01*
X118809523Y-69188095D01*
X118761904Y-69330952D01*
X118190476Y-69902380D01*
X118809523Y-69902380D01*
X132457142Y-69352380D02*
X132123809Y-68876190D01*
X131885714Y-69352380D02*
X131885714Y-68352380D01*
X132266666Y-68352380D01*
X132361904Y-68400000D01*
X132409523Y-68447619D01*
X132457142Y-68542857D01*
X132457142Y-68685714D01*
X132409523Y-68780952D01*
X132361904Y-68828571D01*
X132266666Y-68876190D01*
X131885714Y-68876190D01*
X133409523Y-69352380D02*
X132838095Y-69352380D01*
X133123809Y-69352380D02*
X133123809Y-68352380D01*
X133028571Y-68495238D01*
X132933333Y-68590476D01*
X132838095Y-68638095D01*
X134314285Y-68352380D02*
X133838095Y-68352380D01*
X133790476Y-68828571D01*
X133838095Y-68780952D01*
X133933333Y-68733333D01*
X134171428Y-68733333D01*
X134266666Y-68780952D01*
X134314285Y-68828571D01*
X134361904Y-68923809D01*
X134361904Y-69161904D01*
X134314285Y-69257142D01*
X134266666Y-69304761D01*
X134171428Y-69352380D01*
X133933333Y-69352380D01*
X133838095Y-69304761D01*
X133790476Y-69257142D01*
X122538095Y-62002380D02*
X122538095Y-62811904D01*
X122585714Y-62907142D01*
X122633333Y-62954761D01*
X122728571Y-63002380D01*
X122919047Y-63002380D01*
X123014285Y-62954761D01*
X123061904Y-62907142D01*
X123109523Y-62811904D01*
X123109523Y-62002380D01*
X124109523Y-63002380D02*
X123538095Y-63002380D01*
X123823809Y-63002380D02*
X123823809Y-62002380D01*
X123728571Y-62145238D01*
X123633333Y-62240476D01*
X123538095Y-62288095D01*
X118633333Y-72052380D02*
X118300000Y-71576190D01*
X118061904Y-72052380D02*
X118061904Y-71052380D01*
X118442857Y-71052380D01*
X118538095Y-71100000D01*
X118585714Y-71147619D01*
X118633333Y-71242857D01*
X118633333Y-71385714D01*
X118585714Y-71480952D01*
X118538095Y-71528571D01*
X118442857Y-71576190D01*
X118061904Y-71576190D01*
X119014285Y-71147619D02*
X119061904Y-71100000D01*
X119157142Y-71052380D01*
X119395238Y-71052380D01*
X119490476Y-71100000D01*
X119538095Y-71147619D01*
X119585714Y-71242857D01*
X119585714Y-71338095D01*
X119538095Y-71480952D01*
X118966666Y-72052380D01*
X119585714Y-72052380D01*
X132533333Y-67592380D02*
X132200000Y-67116190D01*
X131961904Y-67592380D02*
X131961904Y-66592380D01*
X132342857Y-66592380D01*
X132438095Y-66640000D01*
X132485714Y-66687619D01*
X132533333Y-66782857D01*
X132533333Y-66925714D01*
X132485714Y-67020952D01*
X132438095Y-67068571D01*
X132342857Y-67116190D01*
X131961904Y-67116190D01*
X133390476Y-66592380D02*
X133200000Y-66592380D01*
X133104761Y-66640000D01*
X133057142Y-66687619D01*
X132961904Y-66830476D01*
X132914285Y-67020952D01*
X132914285Y-67401904D01*
X132961904Y-67497142D01*
X133009523Y-67544761D01*
X133104761Y-67592380D01*
X133295238Y-67592380D01*
X133390476Y-67544761D01*
X133438095Y-67497142D01*
X133485714Y-67401904D01*
X133485714Y-67163809D01*
X133438095Y-67068571D01*
X133390476Y-67020952D01*
X133295238Y-66973333D01*
X133104761Y-66973333D01*
X133009523Y-67020952D01*
X132961904Y-67068571D01*
X132914285Y-67163809D01*
X113483333Y-72052380D02*
X113150000Y-71576190D01*
X112911904Y-72052380D02*
X112911904Y-71052380D01*
X113292857Y-71052380D01*
X113388095Y-71100000D01*
X113435714Y-71147619D01*
X113483333Y-71242857D01*
X113483333Y-71385714D01*
X113435714Y-71480952D01*
X113388095Y-71528571D01*
X113292857Y-71576190D01*
X112911904Y-71576190D01*
X114435714Y-72052380D02*
X113864285Y-72052380D01*
X114150000Y-72052380D02*
X114150000Y-71052380D01*
X114054761Y-71195238D01*
X113959523Y-71290476D01*
X113864285Y-71338095D01*
X140316666Y-57604761D02*
X140459523Y-57652380D01*
X140697619Y-57652380D01*
X140792857Y-57604761D01*
X140840476Y-57557142D01*
X140888095Y-57461904D01*
X140888095Y-57366666D01*
X140840476Y-57271428D01*
X140792857Y-57223809D01*
X140697619Y-57176190D01*
X140507142Y-57128571D01*
X140411904Y-57080952D01*
X140364285Y-57033333D01*
X140316666Y-56938095D01*
X140316666Y-56842857D01*
X140364285Y-56747619D01*
X140411904Y-56700000D01*
X140507142Y-56652380D01*
X140745238Y-56652380D01*
X140888095Y-56700000D01*
X141221428Y-56652380D02*
X141459523Y-57652380D01*
X141650000Y-56938095D01*
X141840476Y-57652380D01*
X142078571Y-56652380D01*
X142983333Y-57652380D02*
X142411904Y-57652380D01*
X142697619Y-57652380D02*
X142697619Y-56652380D01*
X142602380Y-56795238D01*
X142507142Y-56890476D01*
X142411904Y-56938095D01*
D10*
X136900000Y-52500000D02*
X137900000Y-52500000D01*
X128540000Y-56460000D02*
X129460000Y-56460000D01*
X131100000Y-53000000D02*
X131100000Y-48640000D01*
X129300000Y-52500000D02*
X129300000Y-50900000D01*
X137740000Y-54860000D02*
X137740000Y-56460000D01*
X137460000Y-54860000D02*
X137740000Y-54860000D01*
X136100000Y-53000000D02*
X131100000Y-53000000D01*
X136100000Y-48640000D02*
X136100000Y-53000000D01*
X137900000Y-52500000D02*
X137900000Y-50900000D01*
X137460000Y-54860000D02*
X137460000Y-56075000D01*
X128540000Y-54860000D02*
X129460000Y-54860000D01*
X137400000Y-50900000D02*
X137400000Y-48640000D01*
X137740000Y-56460000D02*
X138660000Y-56460000D01*
X138660000Y-48640000D02*
X128540000Y-48640000D01*
X130300000Y-50900000D02*
X130300000Y-52500000D01*
X129460000Y-56460000D02*
X129460000Y-54860000D01*
X136900000Y-50900000D02*
X136900000Y-48640000D01*
X137900000Y-50900000D02*
X136900000Y-50900000D01*
X130300000Y-52500000D02*
X129300000Y-52500000D01*
X129300000Y-50900000D02*
X130300000Y-50900000D01*
X129460000Y-54860000D02*
X129740000Y-54860000D01*
X128540000Y-48640000D02*
X128540000Y-56460000D01*
X136900000Y-50900000D02*
X136900000Y-52500000D01*
X138660000Y-54860000D02*
X137740000Y-54860000D01*
X138660000Y-56460000D02*
X138660000Y-48640000D01*
X143850000Y-89950000D02*
X143850000Y-89340000D01*
X146410000Y-91950000D02*
X145800000Y-91950000D01*
X143450000Y-92950000D02*
X143450000Y-93450000D01*
X146410000Y-94060000D02*
X146410000Y-89340000D01*
X141240000Y-89040000D02*
X139990000Y-89040000D01*
X146410000Y-89340000D02*
X140290000Y-89340000D01*
X143250000Y-92950000D02*
X143450000Y-92950000D01*
X143250000Y-93450000D02*
X143250000Y-92950000D01*
X142850000Y-89340000D02*
X142850000Y-89950000D01*
X143350000Y-93450000D02*
X143350000Y-92950000D01*
X140290000Y-90650000D02*
X140900000Y-90650000D01*
X142850000Y-89950000D02*
X140900000Y-89950000D01*
X140900000Y-89950000D02*
X140900000Y-93450000D01*
X140290000Y-89340000D02*
X140290000Y-94060000D01*
X140900000Y-93450000D02*
X145800000Y-93450000D01*
X145800000Y-89950000D02*
X143850000Y-89950000D01*
X139990000Y-89040000D02*
X139990000Y-90290000D01*
X140290000Y-91950000D02*
X140900000Y-91950000D01*
X142050000Y-89140000D02*
X141750000Y-89140000D01*
X141750000Y-89140000D02*
X141750000Y-89340000D01*
X142050000Y-89340000D02*
X142050000Y-89140000D01*
X140290000Y-94060000D02*
X146410000Y-94060000D01*
X142050000Y-89240000D02*
X141750000Y-89240000D01*
X146410000Y-90650000D02*
X145800000Y-90650000D01*
X145800000Y-93450000D02*
X145800000Y-89950000D01*
X120260000Y-54860000D02*
X120540000Y-54860000D01*
X120200000Y-50900000D02*
X120200000Y-48640000D01*
X120260000Y-54860000D02*
X120260000Y-56075000D01*
X112260000Y-56460000D02*
X112260000Y-54860000D01*
X113100000Y-50900000D02*
X113100000Y-52500000D01*
X111340000Y-54860000D02*
X112260000Y-54860000D01*
X120540000Y-54860000D02*
X120540000Y-56460000D01*
X121460000Y-54860000D02*
X120540000Y-54860000D01*
X120700000Y-52500000D02*
X120700000Y-50900000D01*
X120700000Y-50900000D02*
X119700000Y-50900000D01*
X112100000Y-52500000D02*
X112100000Y-50900000D01*
X120540000Y-56460000D02*
X121460000Y-56460000D01*
X112100000Y-50900000D02*
X113100000Y-50900000D01*
X111340000Y-48640000D02*
X111340000Y-56460000D01*
X112260000Y-54860000D02*
X112540000Y-54860000D01*
X118900000Y-53000000D02*
X113900000Y-53000000D01*
X121460000Y-56460000D02*
X121460000Y-48640000D01*
X119700000Y-52500000D02*
X120700000Y-52500000D01*
X118900000Y-48640000D02*
X118900000Y-53000000D01*
X121460000Y-48640000D02*
X111340000Y-48640000D01*
X119700000Y-50900000D02*
X119700000Y-52500000D01*
X119700000Y-50900000D02*
X119700000Y-48640000D01*
X111340000Y-56460000D02*
X112260000Y-56460000D01*
X113100000Y-52500000D02*
X112100000Y-52500000D01*
X113900000Y-53000000D02*
X113900000Y-48640000D01*
X115954724Y-80977500D02*
X115445276Y-80977500D01*
X115954724Y-82022500D02*
X115445276Y-82022500D01*
X115954724Y-82677500D02*
X115445276Y-82677500D01*
X115954724Y-83722500D02*
X115445276Y-83722500D01*
X117050000Y-92950000D02*
X116300000Y-92950000D01*
X114800000Y-97250000D02*
X114800000Y-96500000D01*
X111850000Y-96500000D02*
X111850000Y-93450000D01*
X117050000Y-91450000D02*
X117050000Y-89650000D01*
X117050000Y-93950000D02*
X117050000Y-92950000D01*
X117350000Y-89350000D02*
X116100000Y-89350000D01*
X117060000Y-89640000D02*
X111090000Y-89640000D01*
X114800000Y-89650000D02*
X114800000Y-90400000D01*
X116300000Y-93950000D02*
X117050000Y-93950000D01*
X117060000Y-97260000D02*
X117060000Y-89640000D01*
X111090000Y-89640000D02*
X111090000Y-97260000D01*
X116300000Y-95450000D02*
X116300000Y-97250000D01*
X114800000Y-96500000D02*
X111850000Y-96500000D01*
X116300000Y-92950000D02*
X116300000Y-93950000D01*
X117350000Y-90600000D02*
X117350000Y-89350000D01*
X114800000Y-90400000D02*
X111850000Y-90400000D01*
X111850000Y-90400000D02*
X111850000Y-93450000D01*
X117050000Y-97250000D02*
X117050000Y-95450000D01*
X116300000Y-91450000D02*
X117050000Y-91450000D01*
X117050000Y-89650000D02*
X116300000Y-89650000D01*
X116300000Y-89650000D02*
X116300000Y-91450000D01*
X111090000Y-97260000D02*
X117060000Y-97260000D01*
X117050000Y-95450000D02*
X116300000Y-95450000D01*
X116300000Y-97250000D02*
X117050000Y-97250000D01*
X138590000Y-72211252D02*
X138590000Y-70788748D01*
X140410000Y-72211252D02*
X140410000Y-70788748D01*
X138024000Y-70788748D02*
X138024000Y-72211252D01*
X136204000Y-70788748D02*
X136204000Y-72211252D01*
X136190000Y-80188748D02*
X136190000Y-81611252D01*
X138010000Y-80188748D02*
X138010000Y-81611252D01*
X132040000Y-96580000D02*
X132040000Y-95650000D01*
X132040000Y-93420000D02*
X133500000Y-93420000D01*
X132040000Y-93420000D02*
X132040000Y-94350000D01*
X132040000Y-96580000D02*
X134200000Y-96580000D01*
X135113700Y-95250924D02*
X135113700Y-94741476D01*
X136158700Y-95250924D02*
X136158700Y-94741476D01*
X115954724Y-78772500D02*
X115445276Y-78772500D01*
X115954724Y-77727500D02*
X115445276Y-77727500D01*
X116004724Y-85672500D02*
X115495276Y-85672500D01*
X116004724Y-84627500D02*
X115495276Y-84627500D01*
X115954724Y-79327500D02*
X115445276Y-79327500D01*
X115954724Y-80372500D02*
X115445276Y-80372500D01*
X116004724Y-86227500D02*
X115495276Y-86227500D01*
X116004724Y-87272500D02*
X115495276Y-87272500D01*
X129762742Y-71777500D02*
X130237258Y-71777500D01*
X129762742Y-72822500D02*
X130237258Y-72822500D01*
X130237258Y-71322500D02*
X129762742Y-71322500D01*
X130237258Y-70277500D02*
X129762742Y-70277500D01*
X138590000Y-80188748D02*
X138590000Y-81611252D01*
X140410000Y-80188748D02*
X140410000Y-81611252D01*
X143890000Y-67290000D02*
X143890000Y-68290000D01*
X145910000Y-67790000D02*
X145910000Y-77010000D01*
X146410000Y-77510000D02*
X146410000Y-67290000D01*
X142390000Y-67290000D02*
X142390000Y-77510000D01*
X144590000Y-66990000D02*
X142090000Y-66990000D01*
X144700000Y-67290000D02*
X144700000Y-67790000D01*
X143890000Y-68290000D02*
X142390000Y-68290000D01*
X143890000Y-77510000D02*
X143890000Y-76510000D01*
X142090000Y-66990000D02*
X142090000Y-69490000D01*
X145910000Y-77010000D02*
X144700000Y-77010000D01*
X144700000Y-77010000D02*
X144700000Y-77510000D01*
X146410000Y-67290000D02*
X142390000Y-67290000D01*
X143890000Y-76510000D02*
X142390000Y-76510000D01*
X142390000Y-77510000D02*
X146410000Y-77510000D01*
X144700000Y-67790000D02*
X145910000Y-67790000D01*
X116487258Y-65227500D02*
X116012742Y-65227500D01*
X116487258Y-66272500D02*
X116012742Y-66272500D01*
X143890000Y-78290000D02*
X143890000Y-79290000D01*
X146410000Y-78290000D02*
X142390000Y-78290000D01*
X144700000Y-78290000D02*
X144700000Y-78790000D01*
X143890000Y-88510000D02*
X143890000Y-87510000D01*
X146410000Y-88510000D02*
X146410000Y-78290000D01*
X144700000Y-78790000D02*
X145910000Y-78790000D01*
X142390000Y-88510000D02*
X146410000Y-88510000D01*
X144700000Y-88010000D02*
X144700000Y-88510000D01*
X143890000Y-87510000D02*
X142390000Y-87510000D01*
X143890000Y-79290000D02*
X142390000Y-79290000D01*
X142390000Y-78290000D02*
X142390000Y-88510000D01*
X142090000Y-77990000D02*
X142090000Y-80490000D01*
X144590000Y-77990000D02*
X142090000Y-77990000D01*
X145910000Y-78790000D02*
X145910000Y-88010000D01*
X145910000Y-88010000D02*
X144700000Y-88010000D01*
X130227258Y-66122500D02*
X129752742Y-66122500D01*
X130227258Y-65077500D02*
X129752742Y-65077500D01*
X129859420Y-63490000D02*
X130140580Y-63490000D01*
X129859420Y-64510000D02*
X130140580Y-64510000D01*
X108800000Y-63060000D02*
X108800000Y-64080000D01*
X108800000Y-88460000D02*
X108800000Y-89480000D01*
X103600000Y-73220000D02*
X103600000Y-74240000D01*
X103600000Y-93540000D02*
X103600000Y-94110000D01*
X103600000Y-75760000D02*
X103600000Y-76780000D01*
X103600000Y-63060000D02*
X103600000Y-64080000D01*
X108800000Y-60520000D02*
X108800000Y-61540000D01*
X108800000Y-73220000D02*
X108800000Y-74240000D01*
X103600000Y-65600000D02*
X103600000Y-66620000D01*
X103600000Y-55890000D02*
X103600000Y-56460000D01*
X103600000Y-88460000D02*
X103600000Y-89480000D01*
X108800000Y-80840000D02*
X108800000Y-81860000D01*
X108800000Y-65600000D02*
X108800000Y-66620000D01*
X103600000Y-60520000D02*
X103600000Y-61540000D01*
X103600000Y-83380000D02*
X103600000Y-84400000D01*
X108800000Y-91000000D02*
X108800000Y-92020000D01*
X108800000Y-68140000D02*
X108800000Y-69160000D01*
X103600000Y-78300000D02*
X103600000Y-79320000D01*
X103600000Y-91000000D02*
X103600000Y-92020000D01*
X108800000Y-83380000D02*
X108800000Y-84400000D01*
X108800000Y-57980000D02*
X108800000Y-59000000D01*
X108800000Y-70680000D02*
X108800000Y-71700000D01*
X103600000Y-55890000D02*
X108800000Y-55890000D01*
X108800000Y-75760000D02*
X108800000Y-76780000D01*
X108800000Y-55890000D02*
X108800000Y-56460000D01*
X108800000Y-78300000D02*
X108800000Y-79320000D01*
X103600000Y-70680000D02*
X103600000Y-71700000D01*
X103600000Y-85920000D02*
X103600000Y-86940000D01*
X108800000Y-93540000D02*
X108800000Y-94110000D01*
X108800000Y-85920000D02*
X108800000Y-86940000D01*
X103600000Y-68140000D02*
X103600000Y-69160000D01*
X108800000Y-56460000D02*
X110160000Y-56460000D01*
X103600000Y-57980000D02*
X103600000Y-59000000D01*
X103600000Y-94110000D02*
X108800000Y-94110000D01*
X103600000Y-80840000D02*
X103600000Y-81860000D01*
X120950000Y-89450000D02*
X120950000Y-94850000D01*
X120950000Y-89450000D02*
X117650000Y-89450000D01*
X117650000Y-89450000D02*
X117650000Y-94850000D01*
X115800000Y-69860000D02*
X115150000Y-69860000D01*
X115800000Y-66740000D02*
X116450000Y-66740000D01*
X115800000Y-66740000D02*
X114125000Y-66740000D01*
X115800000Y-69860000D02*
X116450000Y-69860000D01*
X130237258Y-69322500D02*
X129762742Y-69322500D01*
X130237258Y-68277500D02*
X129762742Y-68277500D01*
X120540000Y-64135000D02*
X118850000Y-64135000D01*
X123300000Y-63390000D02*
X126060000Y-63390000D01*
X120540000Y-69810000D02*
X120540000Y-69065000D01*
X123300000Y-63390000D02*
X120540000Y-63390000D01*
X123300000Y-69810000D02*
X126060000Y-69810000D01*
X120540000Y-63390000D02*
X120540000Y-64135000D01*
X126060000Y-63390000D02*
X126060000Y-64135000D01*
X123300000Y-69810000D02*
X120540000Y-69810000D01*
X126060000Y-69810000D02*
X126060000Y-69065000D01*
X117522500Y-71837258D02*
X117522500Y-71362742D01*
X116477500Y-71837258D02*
X116477500Y-71362742D01*
X130237258Y-67662500D02*
X129762742Y-67662500D01*
X130237258Y-66617500D02*
X129762742Y-66617500D01*
X114927500Y-71362742D02*
X114927500Y-71837258D01*
X115972500Y-71362742D02*
X115972500Y-71837258D01*
M02*
