G04 #@! TF.GenerationSoftware,KiCad,Pcbnew,5.1.5+dfsg1-2build2*
G04 #@! TF.CreationDate,2022-08-17T11:11:43+09:00*
G04 #@! TF.ProjectId,m5-pantilt,6d352d70-616e-4746-996c-742e6b696361,1*
G04 #@! TF.SameCoordinates,PX5f5e100PY5f5e100*
G04 #@! TF.FileFunction,Legend,Bot*
G04 #@! TF.FilePolarity,Positive*
%FSLAX46Y46*%
G04 Gerber Fmt 4.6, Leading zero omitted, Abs format (unit mm)*
G04 Created by KiCad (PCBNEW 5.1.5+dfsg1-2build2) date 2022-08-17 11:11:43*
%MOMM*%
%LPD*%
G04 APERTURE LIST*
%ADD10C,0.150000*%
%ADD11C,1.000000*%
%ADD12C,0.300000*%
%ADD13C,0.010000*%
%ADD14C,0.120000*%
G04 APERTURE END LIST*
D10*
X33500000Y41459405D02*
X33547619Y41364167D01*
X33547619Y41221310D01*
X33500000Y41078453D01*
X33404761Y40983215D01*
X33309523Y40935596D01*
X33119047Y40887977D01*
X32976190Y40887977D01*
X32785714Y40935596D01*
X32690476Y40983215D01*
X32595238Y41078453D01*
X32547619Y41221310D01*
X32547619Y41316548D01*
X32595238Y41459405D01*
X32642857Y41507024D01*
X32976190Y41507024D01*
X32976190Y41316548D01*
X32547619Y41935596D02*
X33547619Y41935596D01*
X32547619Y42507024D01*
X33547619Y42507024D01*
X32547619Y42983215D02*
X33547619Y42983215D01*
X33547619Y43221310D01*
X33500000Y43364167D01*
X33404761Y43459405D01*
X33309523Y43507024D01*
X33119047Y43554643D01*
X32976190Y43554643D01*
X32785714Y43507024D01*
X32690476Y43459405D01*
X32595238Y43364167D01*
X32547619Y43221310D01*
X32547619Y42983215D01*
X30928571Y40835596D02*
X30928571Y41597500D01*
X30547619Y41216548D02*
X31309523Y41216548D01*
X31547619Y42549881D02*
X31547619Y42073691D01*
X31071428Y42026072D01*
X31119047Y42073691D01*
X31166666Y42168929D01*
X31166666Y42407024D01*
X31119047Y42502262D01*
X31071428Y42549881D01*
X30976190Y42597500D01*
X30738095Y42597500D01*
X30642857Y42549881D01*
X30595238Y42502262D01*
X30547619Y42407024D01*
X30547619Y42168929D01*
X30595238Y42073691D01*
X30642857Y42026072D01*
X31547619Y42883215D02*
X30547619Y43216548D01*
X31547619Y43549881D01*
X27550000Y41609405D02*
X27597619Y41514167D01*
X27597619Y41371310D01*
X27550000Y41228453D01*
X27454761Y41133215D01*
X27359523Y41085596D01*
X27169047Y41037977D01*
X27026190Y41037977D01*
X26835714Y41085596D01*
X26740476Y41133215D01*
X26645238Y41228453D01*
X26597619Y41371310D01*
X26597619Y41466548D01*
X26645238Y41609405D01*
X26692857Y41657024D01*
X27026190Y41657024D01*
X27026190Y41466548D01*
X27597619Y41990358D02*
X27597619Y42609405D01*
X27216666Y42276072D01*
X27216666Y42418929D01*
X27169047Y42514167D01*
X27121428Y42561786D01*
X27026190Y42609405D01*
X26788095Y42609405D01*
X26692857Y42561786D01*
X26645238Y42514167D01*
X26597619Y42418929D01*
X26597619Y42133215D01*
X26645238Y42037977D01*
X26692857Y41990358D01*
X27597619Y43466548D02*
X27597619Y43276072D01*
X27550000Y43180834D01*
X27502380Y43133215D01*
X27359523Y43037977D01*
X27169047Y42990358D01*
X26788095Y42990358D01*
X26692857Y43037977D01*
X26645238Y43085596D01*
X26597619Y43180834D01*
X26597619Y43371310D01*
X26645238Y43466548D01*
X26692857Y43514167D01*
X26788095Y43561786D01*
X27026190Y43561786D01*
X27121428Y43514167D01*
X27169047Y43466548D01*
X27216666Y43371310D01*
X27216666Y43180834D01*
X27169047Y43085596D01*
X27121428Y43037977D01*
X27026190Y42990358D01*
X29500000Y41609405D02*
X29547619Y41514167D01*
X29547619Y41371310D01*
X29500000Y41228453D01*
X29404761Y41133215D01*
X29309523Y41085596D01*
X29119047Y41037977D01*
X28976190Y41037977D01*
X28785714Y41085596D01*
X28690476Y41133215D01*
X28595238Y41228453D01*
X28547619Y41371310D01*
X28547619Y41466548D01*
X28595238Y41609405D01*
X28642857Y41657024D01*
X28976190Y41657024D01*
X28976190Y41466548D01*
X29452380Y42037977D02*
X29500000Y42085596D01*
X29547619Y42180834D01*
X29547619Y42418929D01*
X29500000Y42514167D01*
X29452380Y42561786D01*
X29357142Y42609405D01*
X29261904Y42609405D01*
X29119047Y42561786D01*
X28547619Y41990358D01*
X28547619Y42609405D01*
X29547619Y43466548D02*
X29547619Y43276072D01*
X29500000Y43180834D01*
X29452380Y43133215D01*
X29309523Y43037977D01*
X29119047Y42990358D01*
X28738095Y42990358D01*
X28642857Y43037977D01*
X28595238Y43085596D01*
X28547619Y43180834D01*
X28547619Y43371310D01*
X28595238Y43466548D01*
X28642857Y43514167D01*
X28738095Y43561786D01*
X28976190Y43561786D01*
X29071428Y43514167D01*
X29119047Y43466548D01*
X29166666Y43371310D01*
X29166666Y43180834D01*
X29119047Y43085596D01*
X29071428Y43037977D01*
X28976190Y42990358D01*
X20550000Y41609405D02*
X20597619Y41514167D01*
X20597619Y41371310D01*
X20550000Y41228453D01*
X20454761Y41133215D01*
X20359523Y41085596D01*
X20169047Y41037977D01*
X20026190Y41037977D01*
X19835714Y41085596D01*
X19740476Y41133215D01*
X19645238Y41228453D01*
X19597619Y41371310D01*
X19597619Y41466548D01*
X19645238Y41609405D01*
X19692857Y41657024D01*
X20026190Y41657024D01*
X20026190Y41466548D01*
X19597619Y42085596D02*
X20597619Y42085596D01*
X19597619Y42657024D01*
X20597619Y42657024D01*
X19597619Y43133215D02*
X20597619Y43133215D01*
X20597619Y43371310D01*
X20550000Y43514167D01*
X20454761Y43609405D01*
X20359523Y43657024D01*
X20169047Y43704643D01*
X20026190Y43704643D01*
X19835714Y43657024D01*
X19740476Y43609405D01*
X19645238Y43514167D01*
X19597619Y43371310D01*
X19597619Y43133215D01*
X17878571Y40935596D02*
X17878571Y41697500D01*
X17497619Y41316548D02*
X18259523Y41316548D01*
X18497619Y42649881D02*
X18497619Y42173691D01*
X18021428Y42126072D01*
X18069047Y42173691D01*
X18116666Y42268929D01*
X18116666Y42507024D01*
X18069047Y42602262D01*
X18021428Y42649881D01*
X17926190Y42697500D01*
X17688095Y42697500D01*
X17592857Y42649881D01*
X17545238Y42602262D01*
X17497619Y42507024D01*
X17497619Y42268929D01*
X17545238Y42173691D01*
X17592857Y42126072D01*
X18497619Y42983215D02*
X17497619Y43316548D01*
X18497619Y43649881D01*
X13547619Y41557024D02*
X14023809Y41223691D01*
X13547619Y40985596D02*
X14547619Y40985596D01*
X14547619Y41366548D01*
X14500000Y41461786D01*
X14452380Y41509405D01*
X14357142Y41557024D01*
X14214285Y41557024D01*
X14119047Y41509405D01*
X14071428Y41461786D01*
X14023809Y41366548D01*
X14023809Y40985596D01*
X14547619Y41890358D02*
X13547619Y42557024D01*
X14547619Y42557024D02*
X13547619Y41890358D01*
X16497619Y41042739D02*
X16497619Y41614167D01*
X15497619Y41328453D02*
X16497619Y41328453D01*
X16497619Y41852262D02*
X15497619Y42518929D01*
X16497619Y42518929D02*
X15497619Y41852262D01*
X18795238Y48147620D02*
X18795238Y47338096D01*
X18747619Y47242858D01*
X18700000Y47195239D01*
X18604761Y47147620D01*
X18414285Y47147620D01*
X18319047Y47195239D01*
X18271428Y47242858D01*
X18223809Y47338096D01*
X18223809Y48147620D01*
X17795238Y47433334D02*
X17319047Y47433334D01*
X17890476Y47147620D02*
X17557142Y48147620D01*
X17223809Y47147620D01*
X16319047Y47147620D02*
X16652380Y47623810D01*
X16890476Y47147620D02*
X16890476Y48147620D01*
X16509523Y48147620D01*
X16414285Y48100000D01*
X16366666Y48052381D01*
X16319047Y47957143D01*
X16319047Y47814286D01*
X16366666Y47719048D01*
X16414285Y47671429D01*
X16509523Y47623810D01*
X16890476Y47623810D01*
X16033333Y48147620D02*
X15461904Y48147620D01*
X15747619Y47147620D02*
X15747619Y48147620D01*
X30950000Y48100000D02*
X31045238Y48147620D01*
X31188095Y48147620D01*
X31330952Y48100000D01*
X31426190Y48004762D01*
X31473809Y47909524D01*
X31521428Y47719048D01*
X31521428Y47576191D01*
X31473809Y47385715D01*
X31426190Y47290477D01*
X31330952Y47195239D01*
X31188095Y47147620D01*
X31092857Y47147620D01*
X30950000Y47195239D01*
X30902380Y47242858D01*
X30902380Y47576191D01*
X31092857Y47576191D01*
X30473809Y47147620D02*
X30473809Y48147620D01*
X30092857Y48147620D01*
X29997619Y48100000D01*
X29950000Y48052381D01*
X29902380Y47957143D01*
X29902380Y47814286D01*
X29950000Y47719048D01*
X29997619Y47671429D01*
X30092857Y47623810D01*
X30473809Y47623810D01*
X29473809Y47147620D02*
X29473809Y48147620D01*
X28807142Y48147620D02*
X28616666Y48147620D01*
X28521428Y48100000D01*
X28426190Y48004762D01*
X28378571Y47814286D01*
X28378571Y47480953D01*
X28426190Y47290477D01*
X28521428Y47195239D01*
X28616666Y47147620D01*
X28807142Y47147620D01*
X28902380Y47195239D01*
X28997619Y47290477D01*
X29045238Y47480953D01*
X29045238Y47814286D01*
X28997619Y48004762D01*
X28902380Y48100000D01*
X28807142Y48147620D01*
X1476190Y23938096D02*
X1742857Y24319048D01*
X1933333Y23938096D02*
X1933333Y24738096D01*
X1628571Y24738096D01*
X1552380Y24700000D01*
X1514285Y24661905D01*
X1476190Y24585715D01*
X1476190Y24471429D01*
X1514285Y24395239D01*
X1552380Y24357143D01*
X1628571Y24319048D01*
X1933333Y24319048D01*
X1209523Y23938096D02*
X790476Y24471429D01*
X1209523Y24471429D02*
X790476Y23938096D01*
X11152380Y24638096D02*
X10695238Y24638096D01*
X10923809Y23838096D02*
X10923809Y24638096D01*
X10504761Y23838096D02*
X10085714Y24371429D01*
X10504761Y24371429D02*
X10085714Y23838096D01*
D11*
X7670800Y10058400D02*
X7620000Y39776400D01*
X42773600Y9956800D02*
X7670800Y10058400D01*
X42672000Y39827200D02*
X42773600Y9956800D01*
X7620000Y39776400D02*
X42672000Y39827200D01*
D12*
X44642857Y5307143D02*
X44642857Y6107143D01*
X44642857Y5992858D02*
X44585714Y6050000D01*
X44471428Y6107143D01*
X44300000Y6107143D01*
X44185714Y6050000D01*
X44128571Y5935715D01*
X44128571Y5307143D01*
X44128571Y5935715D02*
X44071428Y6050000D01*
X43957142Y6107143D01*
X43785714Y6107143D01*
X43671428Y6050000D01*
X43614285Y5935715D01*
X43614285Y5307143D01*
X42471428Y6507143D02*
X43042857Y6507143D01*
X43100000Y5935715D01*
X43042857Y5992858D01*
X42928571Y6050000D01*
X42642857Y6050000D01*
X42528571Y5992858D01*
X42471428Y5935715D01*
X42414285Y5821429D01*
X42414285Y5535715D01*
X42471428Y5421429D01*
X42528571Y5364286D01*
X42642857Y5307143D01*
X42928571Y5307143D01*
X43042857Y5364286D01*
X43100000Y5421429D01*
X41900000Y5764286D02*
X40985714Y5764286D01*
X40414285Y6107143D02*
X40414285Y4907143D01*
X40414285Y6050000D02*
X40300000Y6107143D01*
X40071428Y6107143D01*
X39957142Y6050000D01*
X39900000Y5992858D01*
X39842857Y5878572D01*
X39842857Y5535715D01*
X39900000Y5421429D01*
X39957142Y5364286D01*
X40071428Y5307143D01*
X40300000Y5307143D01*
X40414285Y5364286D01*
X38814285Y5307143D02*
X38814285Y5935715D01*
X38871428Y6050000D01*
X38985714Y6107143D01*
X39214285Y6107143D01*
X39328571Y6050000D01*
X38814285Y5364286D02*
X38928571Y5307143D01*
X39214285Y5307143D01*
X39328571Y5364286D01*
X39385714Y5478572D01*
X39385714Y5592858D01*
X39328571Y5707143D01*
X39214285Y5764286D01*
X38928571Y5764286D01*
X38814285Y5821429D01*
X38242857Y6107143D02*
X38242857Y5307143D01*
X38242857Y5992858D02*
X38185714Y6050000D01*
X38071428Y6107143D01*
X37900000Y6107143D01*
X37785714Y6050000D01*
X37728571Y5935715D01*
X37728571Y5307143D01*
X37328571Y6107143D02*
X36871428Y6107143D01*
X37157142Y6507143D02*
X37157142Y5478572D01*
X37100000Y5364286D01*
X36985714Y5307143D01*
X36871428Y5307143D01*
X36471428Y5307143D02*
X36471428Y6107143D01*
X36471428Y6507143D02*
X36528571Y6450000D01*
X36471428Y6392858D01*
X36414285Y6450000D01*
X36471428Y6507143D01*
X36471428Y6392858D01*
X35728571Y5307143D02*
X35842857Y5364286D01*
X35900000Y5478572D01*
X35900000Y6507143D01*
X35442857Y6107143D02*
X34985714Y6107143D01*
X35271428Y6507143D02*
X35271428Y5478572D01*
X35214285Y5364286D01*
X35100000Y5307143D01*
X34985714Y5307143D01*
X33671428Y5307143D02*
X33671428Y6507143D01*
X33671428Y6050000D02*
X33557142Y6107143D01*
X33328571Y6107143D01*
X33214285Y6050000D01*
X33157142Y5992858D01*
X33100000Y5878572D01*
X33100000Y5535715D01*
X33157142Y5421429D01*
X33214285Y5364286D01*
X33328571Y5307143D01*
X33557142Y5307143D01*
X33671428Y5364286D01*
X32414285Y5307143D02*
X32528571Y5364286D01*
X32585714Y5421429D01*
X32642857Y5535715D01*
X32642857Y5878572D01*
X32585714Y5992858D01*
X32528571Y6050000D01*
X32414285Y6107143D01*
X32242857Y6107143D01*
X32128571Y6050000D01*
X32071428Y5992858D01*
X32014285Y5878572D01*
X32014285Y5535715D01*
X32071428Y5421429D01*
X32128571Y5364286D01*
X32242857Y5307143D01*
X32414285Y5307143D01*
X30985714Y5307143D02*
X30985714Y5935715D01*
X31042857Y6050000D01*
X31157142Y6107143D01*
X31385714Y6107143D01*
X31500000Y6050000D01*
X30985714Y5364286D02*
X31100000Y5307143D01*
X31385714Y5307143D01*
X31500000Y5364286D01*
X31557142Y5478572D01*
X31557142Y5592858D01*
X31500000Y5707143D01*
X31385714Y5764286D01*
X31100000Y5764286D01*
X30985714Y5821429D01*
X30414285Y5307143D02*
X30414285Y6107143D01*
X30414285Y5878572D02*
X30357142Y5992858D01*
X30300000Y6050000D01*
X30185714Y6107143D01*
X30071428Y6107143D01*
X29157142Y5307143D02*
X29157142Y6507143D01*
X29157142Y5364286D02*
X29271428Y5307143D01*
X29500000Y5307143D01*
X29614285Y5364286D01*
X29671428Y5421429D01*
X29728571Y5535715D01*
X29728571Y5878572D01*
X29671428Y5992858D01*
X29614285Y6050000D01*
X29500000Y6107143D01*
X29271428Y6107143D01*
X29157142Y6050000D01*
X27785714Y6107143D02*
X27500000Y5307143D01*
X27214285Y6107143D01*
X26528571Y6507143D02*
X26414285Y6507143D01*
X26300000Y6450000D01*
X26242857Y6392858D01*
X26185714Y6278572D01*
X26128571Y6050000D01*
X26128571Y5764286D01*
X26185714Y5535715D01*
X26242857Y5421429D01*
X26300000Y5364286D01*
X26414285Y5307143D01*
X26528571Y5307143D01*
X26642857Y5364286D01*
X26700000Y5421429D01*
X26757142Y5535715D01*
X26814285Y5764286D01*
X26814285Y6050000D01*
X26757142Y6278572D01*
X26700000Y6392858D01*
X26642857Y6450000D01*
X26528571Y6507143D01*
X25614285Y5421429D02*
X25557142Y5364286D01*
X25614285Y5307143D01*
X25671428Y5364286D01*
X25614285Y5421429D01*
X25614285Y5307143D01*
X25100000Y6392858D02*
X25042857Y6450000D01*
X24928571Y6507143D01*
X24642857Y6507143D01*
X24528571Y6450000D01*
X24471428Y6392858D01*
X24414285Y6278572D01*
X24414285Y6164286D01*
X24471428Y5992858D01*
X25157142Y5307143D01*
X24414285Y5307143D01*
X23900000Y5421429D02*
X23842857Y5364286D01*
X23900000Y5307143D01*
X23957142Y5364286D01*
X23900000Y5421429D01*
X23900000Y5307143D01*
X22700000Y5307143D02*
X23385714Y5307143D01*
X23042857Y5307143D02*
X23042857Y6507143D01*
X23157142Y6335715D01*
X23271428Y6221429D01*
X23385714Y6164286D01*
X39414285Y3778572D02*
X39471428Y3835715D01*
X39585714Y3892858D01*
X39700000Y3892858D01*
X39814285Y3835715D01*
X39871428Y3778572D01*
X39928571Y3664286D01*
X39928571Y3550000D01*
X39871428Y3435715D01*
X39814285Y3378572D01*
X39700000Y3321429D01*
X39585714Y3321429D01*
X39471428Y3378572D01*
X39414285Y3435715D01*
X39414285Y3892858D02*
X39414285Y3435715D01*
X39357142Y3378572D01*
X39300000Y3378572D01*
X39185714Y3435715D01*
X39128571Y3550000D01*
X39128571Y3835715D01*
X39242857Y4007143D01*
X39414285Y4121429D01*
X39642857Y4178572D01*
X39871428Y4121429D01*
X40042857Y4007143D01*
X40157142Y3835715D01*
X40214285Y3607143D01*
X40157142Y3378572D01*
X40042857Y3207143D01*
X39871428Y3092858D01*
X39642857Y3035715D01*
X39414285Y3092858D01*
X39242857Y3207143D01*
X38614285Y3207143D02*
X38614285Y4007143D01*
X38614285Y3892858D02*
X38557142Y3950000D01*
X38442857Y4007143D01*
X38271428Y4007143D01*
X38157142Y3950000D01*
X38100000Y3835715D01*
X38100000Y3207143D01*
X38100000Y3835715D02*
X38042857Y3950000D01*
X37928571Y4007143D01*
X37757142Y4007143D01*
X37642857Y3950000D01*
X37585714Y3835715D01*
X37585714Y3207143D01*
X36557142Y3264286D02*
X36671428Y3207143D01*
X36900000Y3207143D01*
X37014285Y3264286D01*
X37071428Y3378572D01*
X37071428Y3835715D01*
X37014285Y3950000D01*
X36900000Y4007143D01*
X36671428Y4007143D01*
X36557142Y3950000D01*
X36500000Y3835715D01*
X36500000Y3721429D01*
X37071428Y3607143D01*
X35471428Y4007143D02*
X35471428Y3035715D01*
X35528571Y2921429D01*
X35585714Y2864286D01*
X35700000Y2807143D01*
X35871428Y2807143D01*
X35985714Y2864286D01*
X35471428Y3264286D02*
X35585714Y3207143D01*
X35814285Y3207143D01*
X35928571Y3264286D01*
X35985714Y3321429D01*
X36042857Y3435715D01*
X36042857Y3778572D01*
X35985714Y3892858D01*
X35928571Y3950000D01*
X35814285Y4007143D01*
X35585714Y4007143D01*
X35471428Y3950000D01*
X34385714Y3207143D02*
X34385714Y3835715D01*
X34442857Y3950000D01*
X34557142Y4007143D01*
X34785714Y4007143D01*
X34900000Y3950000D01*
X34385714Y3264286D02*
X34500000Y3207143D01*
X34785714Y3207143D01*
X34900000Y3264286D01*
X34957142Y3378572D01*
X34957142Y3492858D01*
X34900000Y3607143D01*
X34785714Y3664286D01*
X34500000Y3664286D01*
X34385714Y3721429D01*
X33814285Y4007143D02*
X33814285Y3207143D01*
X33814285Y3892858D02*
X33757142Y3950000D01*
X33642857Y4007143D01*
X33471428Y4007143D01*
X33357142Y3950000D01*
X33300000Y3835715D01*
X33300000Y3207143D01*
X32271428Y3264286D02*
X32385714Y3207143D01*
X32614285Y3207143D01*
X32728571Y3264286D01*
X32785714Y3378572D01*
X32785714Y3835715D01*
X32728571Y3950000D01*
X32614285Y4007143D01*
X32385714Y4007143D01*
X32271428Y3950000D01*
X32214285Y3835715D01*
X32214285Y3721429D01*
X32785714Y3607143D01*
X31871428Y4007143D02*
X31414285Y4007143D01*
X31700000Y4407143D02*
X31700000Y3378572D01*
X31642857Y3264286D01*
X31528571Y3207143D01*
X31414285Y3207143D01*
X30500000Y3207143D02*
X30500000Y3835715D01*
X30557142Y3950000D01*
X30671428Y4007143D01*
X30900000Y4007143D01*
X31014285Y3950000D01*
X30500000Y3264286D02*
X30614285Y3207143D01*
X30900000Y3207143D01*
X31014285Y3264286D01*
X31071428Y3378572D01*
X31071428Y3492858D01*
X31014285Y3607143D01*
X30900000Y3664286D01*
X30614285Y3664286D01*
X30500000Y3721429D01*
X29414285Y3207143D02*
X29414285Y3835715D01*
X29471428Y3950000D01*
X29585714Y4007143D01*
X29814285Y4007143D01*
X29928571Y3950000D01*
X29414285Y3264286D02*
X29528571Y3207143D01*
X29814285Y3207143D01*
X29928571Y3264286D01*
X29985714Y3378572D01*
X29985714Y3492858D01*
X29928571Y3607143D01*
X29814285Y3664286D01*
X29528571Y3664286D01*
X29414285Y3721429D01*
X28328571Y3207143D02*
X28328571Y3835715D01*
X28385714Y3950000D01*
X28500000Y4007143D01*
X28728571Y4007143D01*
X28842857Y3950000D01*
X28328571Y3264286D02*
X28442857Y3207143D01*
X28728571Y3207143D01*
X28842857Y3264286D01*
X28900000Y3378572D01*
X28900000Y3492858D01*
X28842857Y3607143D01*
X28728571Y3664286D01*
X28442857Y3664286D01*
X28328571Y3721429D01*
X27757142Y4007143D02*
X27757142Y3207143D01*
X27757142Y3892858D02*
X27700000Y3950000D01*
X27585714Y4007143D01*
X27414285Y4007143D01*
X27300000Y3950000D01*
X27242857Y3835715D01*
X27242857Y3207143D01*
D13*
G36*
X25464797Y22987314D02*
G01*
X25373890Y22985403D01*
X23923781Y22947597D01*
X22923717Y22897547D01*
X22289007Y22822592D01*
X21934958Y22710073D01*
X21776879Y22547328D01*
X21744812Y22442906D01*
X21750636Y22254833D01*
X21906180Y22124926D01*
X22291558Y22042594D01*
X22986885Y21997246D01*
X24072278Y21978290D01*
X25284143Y21975011D01*
X26738653Y21979036D01*
X27741948Y21999435D01*
X28377533Y22048689D01*
X28728916Y22139283D01*
X28879603Y22283699D01*
X28913101Y22494421D01*
X28913221Y22517508D01*
X28887922Y22736588D01*
X28755633Y22884446D01*
X28431764Y22972265D01*
X27831728Y23011227D01*
X26870936Y23012516D01*
X25464797Y22987314D01*
G37*
X25464797Y22987314D02*
X25373890Y22985403D01*
X23923781Y22947597D01*
X22923717Y22897547D01*
X22289007Y22822592D01*
X21934958Y22710073D01*
X21776879Y22547328D01*
X21744812Y22442906D01*
X21750636Y22254833D01*
X21906180Y22124926D01*
X22291558Y22042594D01*
X22986885Y21997246D01*
X24072278Y21978290D01*
X25284143Y21975011D01*
X26738653Y21979036D01*
X27741948Y21999435D01*
X28377533Y22048689D01*
X28728916Y22139283D01*
X28879603Y22283699D01*
X28913101Y22494421D01*
X28913221Y22517508D01*
X28887922Y22736588D01*
X28755633Y22884446D01*
X28431764Y22972265D01*
X27831728Y23011227D01*
X26870936Y23012516D01*
X25464797Y22987314D01*
G36*
X32277738Y28410453D02*
G01*
X31914605Y27867896D01*
X31933362Y27305427D01*
X32239118Y26862564D01*
X32736981Y26678828D01*
X33316939Y26882517D01*
X33661645Y27407045D01*
X33574801Y28019307D01*
X33146685Y28481375D01*
X32620489Y28603363D01*
X32277738Y28410453D01*
G37*
X32277738Y28410453D02*
X31914605Y27867896D01*
X31933362Y27305427D01*
X32239118Y26862564D01*
X32736981Y26678828D01*
X33316939Y26882517D01*
X33661645Y27407045D01*
X33574801Y28019307D01*
X33146685Y28481375D01*
X32620489Y28603363D01*
X32277738Y28410453D01*
G36*
X18130009Y28366836D02*
G01*
X17870862Y28093984D01*
X17710943Y27461630D01*
X17997754Y26975095D01*
X18619537Y26787643D01*
X19211704Y26944524D01*
X19472584Y27225037D01*
X19497827Y27838642D01*
X19173307Y28292703D01*
X18662782Y28498381D01*
X18130009Y28366836D01*
G37*
X18130009Y28366836D02*
X17870862Y28093984D01*
X17710943Y27461630D01*
X17997754Y26975095D01*
X18619537Y26787643D01*
X19211704Y26944524D01*
X19472584Y27225037D01*
X19497827Y27838642D01*
X19173307Y28292703D01*
X18662782Y28498381D01*
X18130009Y28366836D01*
D14*
X3600000Y9000000D02*
X3600000Y7980000D01*
X8800000Y9000000D02*
X8800000Y7980000D01*
X3600000Y11540000D02*
X3600000Y10520000D01*
X8800000Y11540000D02*
X8800000Y10520000D01*
X3600000Y14080000D02*
X3600000Y13060000D01*
X8800000Y14080000D02*
X8800000Y13060000D01*
X3600000Y16620000D02*
X3600000Y15600000D01*
X8800000Y16620000D02*
X8800000Y15600000D01*
X3600000Y19160000D02*
X3600000Y18140000D01*
X8800000Y19160000D02*
X8800000Y18140000D01*
X3600000Y21700000D02*
X3600000Y20680000D01*
X8800000Y21700000D02*
X8800000Y20680000D01*
X3600000Y24240000D02*
X3600000Y23220000D01*
X8800000Y24240000D02*
X8800000Y23220000D01*
X3600000Y26780000D02*
X3600000Y25760000D01*
X8800000Y26780000D02*
X8800000Y25760000D01*
X3600000Y29320000D02*
X3600000Y28300000D01*
X8800000Y29320000D02*
X8800000Y28300000D01*
X3600000Y31860000D02*
X3600000Y30840000D01*
X8800000Y31860000D02*
X8800000Y30840000D01*
X3600000Y34400000D02*
X3600000Y33380000D01*
X8800000Y34400000D02*
X8800000Y33380000D01*
X3600000Y36940000D02*
X3600000Y35920000D01*
X8800000Y36940000D02*
X8800000Y35920000D01*
X3600000Y39480000D02*
X3600000Y38460000D01*
X8800000Y39480000D02*
X8800000Y38460000D01*
X3600000Y42020000D02*
X3600000Y41000000D01*
X8800000Y42020000D02*
X8800000Y41000000D01*
X3600000Y6460000D02*
X3600000Y5890000D01*
X8800000Y6460000D02*
X8800000Y5890000D01*
X3600000Y44110000D02*
X3600000Y43540000D01*
X8800000Y44110000D02*
X8800000Y43540000D01*
X10240000Y43540000D02*
X8800000Y43540000D01*
X8800000Y5890000D02*
X3600000Y5890000D01*
X8800000Y44110000D02*
X3600000Y44110000D01*
D10*
X48100000Y35000000D02*
X48100000Y32700000D01*
X48100000Y41300000D02*
X48100000Y39100000D01*
X43500000Y41300000D02*
X43500000Y32700000D01*
X10493333Y45048420D02*
X10493333Y44334134D01*
X10540952Y44191277D01*
X10636190Y44096039D01*
X10779047Y44048420D01*
X10874285Y44048420D01*
X9493333Y44048420D02*
X10064761Y44048420D01*
X9779047Y44048420D02*
X9779047Y45048420D01*
X9874285Y44905562D01*
X9969523Y44810324D01*
X10064761Y44762705D01*
M02*
