G04 #@! TF.GenerationSoftware,KiCad,Pcbnew,5.1.5+dfsg1-2build2*
G04 #@! TF.CreationDate,2022-01-08T16:31:35+09:00*
G04 #@! TF.ProjectId,m5-pantilt,6d352d70-616e-4746-996c-742e6b696361,1*
G04 #@! TF.SameCoordinates,PX5f5e100PY5f5e100*
G04 #@! TF.FileFunction,Legend,Bot*
G04 #@! TF.FilePolarity,Positive*
%FSLAX46Y46*%
G04 Gerber Fmt 4.6, Leading zero omitted, Abs format (unit mm)*
G04 Created by KiCad (PCBNEW 5.1.5+dfsg1-2build2) date 2022-01-08 16:31:35*
%MOMM*%
%LPD*%
G04 APERTURE LIST*
%ADD10C,0.125000*%
%ADD11C,0.150000*%
%ADD12C,1.000000*%
%ADD13C,0.300000*%
%ADD14C,0.010000*%
%ADD15C,0.120000*%
G04 APERTURE END LIST*
D10*
X16257142Y25642858D02*
X16304761Y25595239D01*
X16447619Y25547620D01*
X16542857Y25547620D01*
X16685714Y25595239D01*
X16780952Y25690477D01*
X16828571Y25785715D01*
X16876190Y25976191D01*
X16876190Y26119048D01*
X16828571Y26309524D01*
X16780952Y26404762D01*
X16685714Y26500000D01*
X16542857Y26547620D01*
X16447619Y26547620D01*
X16304761Y26500000D01*
X16257142Y26452381D01*
X15685714Y25547620D02*
X15780952Y25595239D01*
X15828571Y25642858D01*
X15876190Y25738096D01*
X15876190Y26023810D01*
X15828571Y26119048D01*
X15780952Y26166667D01*
X15685714Y26214286D01*
X15542857Y26214286D01*
X15447619Y26166667D01*
X15400000Y26119048D01*
X15352380Y26023810D01*
X15352380Y25738096D01*
X15400000Y25642858D01*
X15447619Y25595239D01*
X15542857Y25547620D01*
X15685714Y25547620D01*
X14923809Y25547620D02*
X14923809Y26214286D01*
X14923809Y26023810D02*
X14876190Y26119048D01*
X14828571Y26166667D01*
X14733333Y26214286D01*
X14638095Y26214286D01*
X13923809Y25595239D02*
X14019047Y25547620D01*
X14209523Y25547620D01*
X14304761Y25595239D01*
X14352380Y25690477D01*
X14352380Y26071429D01*
X14304761Y26166667D01*
X14209523Y26214286D01*
X14019047Y26214286D01*
X13923809Y26166667D01*
X13876190Y26071429D01*
X13876190Y25976191D01*
X14352380Y25880953D01*
X12923809Y25547620D02*
X13495238Y25547620D01*
X13209523Y25547620D02*
X13209523Y26547620D01*
X13304761Y26404762D01*
X13400000Y26309524D01*
X13495238Y26261905D01*
X16157142Y13642858D02*
X16204761Y13595239D01*
X16347619Y13547620D01*
X16442857Y13547620D01*
X16585714Y13595239D01*
X16680952Y13690477D01*
X16728571Y13785715D01*
X16776190Y13976191D01*
X16776190Y14119048D01*
X16728571Y14309524D01*
X16680952Y14404762D01*
X16585714Y14500000D01*
X16442857Y14547620D01*
X16347619Y14547620D01*
X16204761Y14500000D01*
X16157142Y14452381D01*
X15585714Y13547620D02*
X15680952Y13595239D01*
X15728571Y13642858D01*
X15776190Y13738096D01*
X15776190Y14023810D01*
X15728571Y14119048D01*
X15680952Y14166667D01*
X15585714Y14214286D01*
X15442857Y14214286D01*
X15347619Y14166667D01*
X15300000Y14119048D01*
X15252380Y14023810D01*
X15252380Y13738096D01*
X15300000Y13642858D01*
X15347619Y13595239D01*
X15442857Y13547620D01*
X15585714Y13547620D01*
X14823809Y13547620D02*
X14823809Y14214286D01*
X14823809Y14023810D02*
X14776190Y14119048D01*
X14728571Y14166667D01*
X14633333Y14214286D01*
X14538095Y14214286D01*
X13823809Y13595239D02*
X13919047Y13547620D01*
X14109523Y13547620D01*
X14204761Y13595239D01*
X14252380Y13690477D01*
X14252380Y14071429D01*
X14204761Y14166667D01*
X14109523Y14214286D01*
X13919047Y14214286D01*
X13823809Y14166667D01*
X13776190Y14071429D01*
X13776190Y13976191D01*
X14252380Y13880953D01*
X13395238Y14452381D02*
X13347619Y14500000D01*
X13252380Y14547620D01*
X13014285Y14547620D01*
X12919047Y14500000D01*
X12871428Y14452381D01*
X12823809Y14357143D01*
X12823809Y14261905D01*
X12871428Y14119048D01*
X13442857Y13547620D01*
X12823809Y13547620D01*
X34104761Y25247620D02*
X34104761Y26247620D01*
X33723809Y26247620D01*
X33628571Y26200000D01*
X33580952Y26152381D01*
X33533333Y26057143D01*
X33533333Y25914286D01*
X33580952Y25819048D01*
X33628571Y25771429D01*
X33723809Y25723810D01*
X34104761Y25723810D01*
X33200000Y26247620D02*
X32961904Y25247620D01*
X32771428Y25961905D01*
X32580952Y25247620D01*
X32342857Y26247620D01*
X31961904Y25247620D02*
X31961904Y26247620D01*
X31628571Y25533334D01*
X31295238Y26247620D01*
X31295238Y25247620D01*
D11*
X1476190Y23938096D02*
X1742857Y24319048D01*
X1933333Y23938096D02*
X1933333Y24738096D01*
X1628571Y24738096D01*
X1552380Y24700000D01*
X1514285Y24661905D01*
X1476190Y24585715D01*
X1476190Y24471429D01*
X1514285Y24395239D01*
X1552380Y24357143D01*
X1628571Y24319048D01*
X1933333Y24319048D01*
X1209523Y23938096D02*
X790476Y24471429D01*
X1209523Y24471429D02*
X790476Y23938096D01*
X11152380Y24638096D02*
X10695238Y24638096D01*
X10923809Y23838096D02*
X10923809Y24638096D01*
X10504761Y23838096D02*
X10085714Y24371429D01*
X10504761Y24371429D02*
X10085714Y23838096D01*
D12*
X7670800Y10058400D02*
X7620000Y39776400D01*
X42773600Y9956800D02*
X7670800Y10058400D01*
X42672000Y39827200D02*
X42773600Y9956800D01*
X7620000Y39776400D02*
X42672000Y39827200D01*
D10*
X33771428Y14447620D02*
X33200000Y14447620D01*
X33485714Y13447620D02*
X33485714Y14447620D01*
X33009523Y14447620D02*
X32438095Y14447620D01*
X32723809Y13447620D02*
X32723809Y14447620D01*
X31628571Y13447620D02*
X32104761Y13447620D01*
X32104761Y14447620D01*
D13*
X44642857Y5307143D02*
X44642857Y6107143D01*
X44642857Y5992858D02*
X44585714Y6050000D01*
X44471428Y6107143D01*
X44300000Y6107143D01*
X44185714Y6050000D01*
X44128571Y5935715D01*
X44128571Y5307143D01*
X44128571Y5935715D02*
X44071428Y6050000D01*
X43957142Y6107143D01*
X43785714Y6107143D01*
X43671428Y6050000D01*
X43614285Y5935715D01*
X43614285Y5307143D01*
X42471428Y6507143D02*
X43042857Y6507143D01*
X43100000Y5935715D01*
X43042857Y5992858D01*
X42928571Y6050000D01*
X42642857Y6050000D01*
X42528571Y5992858D01*
X42471428Y5935715D01*
X42414285Y5821429D01*
X42414285Y5535715D01*
X42471428Y5421429D01*
X42528571Y5364286D01*
X42642857Y5307143D01*
X42928571Y5307143D01*
X43042857Y5364286D01*
X43100000Y5421429D01*
X41900000Y5764286D02*
X40985714Y5764286D01*
X40414285Y6107143D02*
X40414285Y4907143D01*
X40414285Y6050000D02*
X40300000Y6107143D01*
X40071428Y6107143D01*
X39957142Y6050000D01*
X39900000Y5992858D01*
X39842857Y5878572D01*
X39842857Y5535715D01*
X39900000Y5421429D01*
X39957142Y5364286D01*
X40071428Y5307143D01*
X40300000Y5307143D01*
X40414285Y5364286D01*
X38814285Y5307143D02*
X38814285Y5935715D01*
X38871428Y6050000D01*
X38985714Y6107143D01*
X39214285Y6107143D01*
X39328571Y6050000D01*
X38814285Y5364286D02*
X38928571Y5307143D01*
X39214285Y5307143D01*
X39328571Y5364286D01*
X39385714Y5478572D01*
X39385714Y5592858D01*
X39328571Y5707143D01*
X39214285Y5764286D01*
X38928571Y5764286D01*
X38814285Y5821429D01*
X38242857Y6107143D02*
X38242857Y5307143D01*
X38242857Y5992858D02*
X38185714Y6050000D01*
X38071428Y6107143D01*
X37900000Y6107143D01*
X37785714Y6050000D01*
X37728571Y5935715D01*
X37728571Y5307143D01*
X37328571Y6107143D02*
X36871428Y6107143D01*
X37157142Y6507143D02*
X37157142Y5478572D01*
X37100000Y5364286D01*
X36985714Y5307143D01*
X36871428Y5307143D01*
X36471428Y5307143D02*
X36471428Y6107143D01*
X36471428Y6507143D02*
X36528571Y6450000D01*
X36471428Y6392858D01*
X36414285Y6450000D01*
X36471428Y6507143D01*
X36471428Y6392858D01*
X35728571Y5307143D02*
X35842857Y5364286D01*
X35900000Y5478572D01*
X35900000Y6507143D01*
X35442857Y6107143D02*
X34985714Y6107143D01*
X35271428Y6507143D02*
X35271428Y5478572D01*
X35214285Y5364286D01*
X35100000Y5307143D01*
X34985714Y5307143D01*
X33671428Y5307143D02*
X33671428Y6507143D01*
X33671428Y6050000D02*
X33557142Y6107143D01*
X33328571Y6107143D01*
X33214285Y6050000D01*
X33157142Y5992858D01*
X33100000Y5878572D01*
X33100000Y5535715D01*
X33157142Y5421429D01*
X33214285Y5364286D01*
X33328571Y5307143D01*
X33557142Y5307143D01*
X33671428Y5364286D01*
X32414285Y5307143D02*
X32528571Y5364286D01*
X32585714Y5421429D01*
X32642857Y5535715D01*
X32642857Y5878572D01*
X32585714Y5992858D01*
X32528571Y6050000D01*
X32414285Y6107143D01*
X32242857Y6107143D01*
X32128571Y6050000D01*
X32071428Y5992858D01*
X32014285Y5878572D01*
X32014285Y5535715D01*
X32071428Y5421429D01*
X32128571Y5364286D01*
X32242857Y5307143D01*
X32414285Y5307143D01*
X30985714Y5307143D02*
X30985714Y5935715D01*
X31042857Y6050000D01*
X31157142Y6107143D01*
X31385714Y6107143D01*
X31500000Y6050000D01*
X30985714Y5364286D02*
X31100000Y5307143D01*
X31385714Y5307143D01*
X31500000Y5364286D01*
X31557142Y5478572D01*
X31557142Y5592858D01*
X31500000Y5707143D01*
X31385714Y5764286D01*
X31100000Y5764286D01*
X30985714Y5821429D01*
X30414285Y5307143D02*
X30414285Y6107143D01*
X30414285Y5878572D02*
X30357142Y5992858D01*
X30300000Y6050000D01*
X30185714Y6107143D01*
X30071428Y6107143D01*
X29157142Y5307143D02*
X29157142Y6507143D01*
X29157142Y5364286D02*
X29271428Y5307143D01*
X29500000Y5307143D01*
X29614285Y5364286D01*
X29671428Y5421429D01*
X29728571Y5535715D01*
X29728571Y5878572D01*
X29671428Y5992858D01*
X29614285Y6050000D01*
X29500000Y6107143D01*
X29271428Y6107143D01*
X29157142Y6050000D01*
X27785714Y6107143D02*
X27500000Y5307143D01*
X27214285Y6107143D01*
X26528571Y6507143D02*
X26414285Y6507143D01*
X26300000Y6450000D01*
X26242857Y6392858D01*
X26185714Y6278572D01*
X26128571Y6050000D01*
X26128571Y5764286D01*
X26185714Y5535715D01*
X26242857Y5421429D01*
X26300000Y5364286D01*
X26414285Y5307143D01*
X26528571Y5307143D01*
X26642857Y5364286D01*
X26700000Y5421429D01*
X26757142Y5535715D01*
X26814285Y5764286D01*
X26814285Y6050000D01*
X26757142Y6278572D01*
X26700000Y6392858D01*
X26642857Y6450000D01*
X26528571Y6507143D01*
X25614285Y5421429D02*
X25557142Y5364286D01*
X25614285Y5307143D01*
X25671428Y5364286D01*
X25614285Y5421429D01*
X25614285Y5307143D01*
X25100000Y6392858D02*
X25042857Y6450000D01*
X24928571Y6507143D01*
X24642857Y6507143D01*
X24528571Y6450000D01*
X24471428Y6392858D01*
X24414285Y6278572D01*
X24414285Y6164286D01*
X24471428Y5992858D01*
X25157142Y5307143D01*
X24414285Y5307143D01*
X23900000Y5421429D02*
X23842857Y5364286D01*
X23900000Y5307143D01*
X23957142Y5364286D01*
X23900000Y5421429D01*
X23900000Y5307143D01*
X23100000Y6507143D02*
X22985714Y6507143D01*
X22871428Y6450000D01*
X22814285Y6392858D01*
X22757142Y6278572D01*
X22700000Y6050000D01*
X22700000Y5764286D01*
X22757142Y5535715D01*
X22814285Y5421429D01*
X22871428Y5364286D01*
X22985714Y5307143D01*
X23100000Y5307143D01*
X23214285Y5364286D01*
X23271428Y5421429D01*
X23328571Y5535715D01*
X23385714Y5764286D01*
X23385714Y6050000D01*
X23328571Y6278572D01*
X23271428Y6392858D01*
X23214285Y6450000D01*
X23100000Y6507143D01*
X39414285Y3778572D02*
X39471428Y3835715D01*
X39585714Y3892858D01*
X39700000Y3892858D01*
X39814285Y3835715D01*
X39871428Y3778572D01*
X39928571Y3664286D01*
X39928571Y3550000D01*
X39871428Y3435715D01*
X39814285Y3378572D01*
X39700000Y3321429D01*
X39585714Y3321429D01*
X39471428Y3378572D01*
X39414285Y3435715D01*
X39414285Y3892858D02*
X39414285Y3435715D01*
X39357142Y3378572D01*
X39300000Y3378572D01*
X39185714Y3435715D01*
X39128571Y3550000D01*
X39128571Y3835715D01*
X39242857Y4007143D01*
X39414285Y4121429D01*
X39642857Y4178572D01*
X39871428Y4121429D01*
X40042857Y4007143D01*
X40157142Y3835715D01*
X40214285Y3607143D01*
X40157142Y3378572D01*
X40042857Y3207143D01*
X39871428Y3092858D01*
X39642857Y3035715D01*
X39414285Y3092858D01*
X39242857Y3207143D01*
X38614285Y3207143D02*
X38614285Y4007143D01*
X38614285Y3892858D02*
X38557142Y3950000D01*
X38442857Y4007143D01*
X38271428Y4007143D01*
X38157142Y3950000D01*
X38100000Y3835715D01*
X38100000Y3207143D01*
X38100000Y3835715D02*
X38042857Y3950000D01*
X37928571Y4007143D01*
X37757142Y4007143D01*
X37642857Y3950000D01*
X37585714Y3835715D01*
X37585714Y3207143D01*
X36557142Y3264286D02*
X36671428Y3207143D01*
X36900000Y3207143D01*
X37014285Y3264286D01*
X37071428Y3378572D01*
X37071428Y3835715D01*
X37014285Y3950000D01*
X36900000Y4007143D01*
X36671428Y4007143D01*
X36557142Y3950000D01*
X36500000Y3835715D01*
X36500000Y3721429D01*
X37071428Y3607143D01*
X35471428Y4007143D02*
X35471428Y3035715D01*
X35528571Y2921429D01*
X35585714Y2864286D01*
X35700000Y2807143D01*
X35871428Y2807143D01*
X35985714Y2864286D01*
X35471428Y3264286D02*
X35585714Y3207143D01*
X35814285Y3207143D01*
X35928571Y3264286D01*
X35985714Y3321429D01*
X36042857Y3435715D01*
X36042857Y3778572D01*
X35985714Y3892858D01*
X35928571Y3950000D01*
X35814285Y4007143D01*
X35585714Y4007143D01*
X35471428Y3950000D01*
X34385714Y3207143D02*
X34385714Y3835715D01*
X34442857Y3950000D01*
X34557142Y4007143D01*
X34785714Y4007143D01*
X34900000Y3950000D01*
X34385714Y3264286D02*
X34500000Y3207143D01*
X34785714Y3207143D01*
X34900000Y3264286D01*
X34957142Y3378572D01*
X34957142Y3492858D01*
X34900000Y3607143D01*
X34785714Y3664286D01*
X34500000Y3664286D01*
X34385714Y3721429D01*
X33814285Y4007143D02*
X33814285Y3207143D01*
X33814285Y3892858D02*
X33757142Y3950000D01*
X33642857Y4007143D01*
X33471428Y4007143D01*
X33357142Y3950000D01*
X33300000Y3835715D01*
X33300000Y3207143D01*
X32271428Y3264286D02*
X32385714Y3207143D01*
X32614285Y3207143D01*
X32728571Y3264286D01*
X32785714Y3378572D01*
X32785714Y3835715D01*
X32728571Y3950000D01*
X32614285Y4007143D01*
X32385714Y4007143D01*
X32271428Y3950000D01*
X32214285Y3835715D01*
X32214285Y3721429D01*
X32785714Y3607143D01*
X31871428Y4007143D02*
X31414285Y4007143D01*
X31700000Y4407143D02*
X31700000Y3378572D01*
X31642857Y3264286D01*
X31528571Y3207143D01*
X31414285Y3207143D01*
X30500000Y3207143D02*
X30500000Y3835715D01*
X30557142Y3950000D01*
X30671428Y4007143D01*
X30900000Y4007143D01*
X31014285Y3950000D01*
X30500000Y3264286D02*
X30614285Y3207143D01*
X30900000Y3207143D01*
X31014285Y3264286D01*
X31071428Y3378572D01*
X31071428Y3492858D01*
X31014285Y3607143D01*
X30900000Y3664286D01*
X30614285Y3664286D01*
X30500000Y3721429D01*
X29414285Y3207143D02*
X29414285Y3835715D01*
X29471428Y3950000D01*
X29585714Y4007143D01*
X29814285Y4007143D01*
X29928571Y3950000D01*
X29414285Y3264286D02*
X29528571Y3207143D01*
X29814285Y3207143D01*
X29928571Y3264286D01*
X29985714Y3378572D01*
X29985714Y3492858D01*
X29928571Y3607143D01*
X29814285Y3664286D01*
X29528571Y3664286D01*
X29414285Y3721429D01*
X28328571Y3207143D02*
X28328571Y3835715D01*
X28385714Y3950000D01*
X28500000Y4007143D01*
X28728571Y4007143D01*
X28842857Y3950000D01*
X28328571Y3264286D02*
X28442857Y3207143D01*
X28728571Y3207143D01*
X28842857Y3264286D01*
X28900000Y3378572D01*
X28900000Y3492858D01*
X28842857Y3607143D01*
X28728571Y3664286D01*
X28442857Y3664286D01*
X28328571Y3721429D01*
X27757142Y4007143D02*
X27757142Y3207143D01*
X27757142Y3892858D02*
X27700000Y3950000D01*
X27585714Y4007143D01*
X27414285Y4007143D01*
X27300000Y3950000D01*
X27242857Y3835715D01*
X27242857Y3207143D01*
D14*
G36*
X25464797Y22987314D02*
G01*
X25373890Y22985403D01*
X23923781Y22947597D01*
X22923717Y22897547D01*
X22289007Y22822592D01*
X21934958Y22710073D01*
X21776879Y22547328D01*
X21744812Y22442906D01*
X21750636Y22254833D01*
X21906180Y22124926D01*
X22291558Y22042594D01*
X22986885Y21997246D01*
X24072278Y21978290D01*
X25284143Y21975011D01*
X26738653Y21979036D01*
X27741948Y21999435D01*
X28377533Y22048689D01*
X28728916Y22139283D01*
X28879603Y22283699D01*
X28913101Y22494421D01*
X28913221Y22517508D01*
X28887922Y22736588D01*
X28755633Y22884446D01*
X28431764Y22972265D01*
X27831728Y23011227D01*
X26870936Y23012516D01*
X25464797Y22987314D01*
G37*
X25464797Y22987314D02*
X25373890Y22985403D01*
X23923781Y22947597D01*
X22923717Y22897547D01*
X22289007Y22822592D01*
X21934958Y22710073D01*
X21776879Y22547328D01*
X21744812Y22442906D01*
X21750636Y22254833D01*
X21906180Y22124926D01*
X22291558Y22042594D01*
X22986885Y21997246D01*
X24072278Y21978290D01*
X25284143Y21975011D01*
X26738653Y21979036D01*
X27741948Y21999435D01*
X28377533Y22048689D01*
X28728916Y22139283D01*
X28879603Y22283699D01*
X28913101Y22494421D01*
X28913221Y22517508D01*
X28887922Y22736588D01*
X28755633Y22884446D01*
X28431764Y22972265D01*
X27831728Y23011227D01*
X26870936Y23012516D01*
X25464797Y22987314D01*
G36*
X32277738Y28410453D02*
G01*
X31914605Y27867896D01*
X31933362Y27305427D01*
X32239118Y26862564D01*
X32736981Y26678828D01*
X33316939Y26882517D01*
X33661645Y27407045D01*
X33574801Y28019307D01*
X33146685Y28481375D01*
X32620489Y28603363D01*
X32277738Y28410453D01*
G37*
X32277738Y28410453D02*
X31914605Y27867896D01*
X31933362Y27305427D01*
X32239118Y26862564D01*
X32736981Y26678828D01*
X33316939Y26882517D01*
X33661645Y27407045D01*
X33574801Y28019307D01*
X33146685Y28481375D01*
X32620489Y28603363D01*
X32277738Y28410453D01*
G36*
X18130009Y28366836D02*
G01*
X17870862Y28093984D01*
X17710943Y27461630D01*
X17997754Y26975095D01*
X18619537Y26787643D01*
X19211704Y26944524D01*
X19472584Y27225037D01*
X19497827Y27838642D01*
X19173307Y28292703D01*
X18662782Y28498381D01*
X18130009Y28366836D01*
G37*
X18130009Y28366836D02*
X17870862Y28093984D01*
X17710943Y27461630D01*
X17997754Y26975095D01*
X18619537Y26787643D01*
X19211704Y26944524D01*
X19472584Y27225037D01*
X19497827Y27838642D01*
X19173307Y28292703D01*
X18662782Y28498381D01*
X18130009Y28366836D01*
D15*
X3600000Y9000000D02*
X3600000Y7980000D01*
X8800000Y9000000D02*
X8800000Y7980000D01*
X3600000Y11540000D02*
X3600000Y10520000D01*
X8800000Y11540000D02*
X8800000Y10520000D01*
X3600000Y14080000D02*
X3600000Y13060000D01*
X8800000Y14080000D02*
X8800000Y13060000D01*
X3600000Y16620000D02*
X3600000Y15600000D01*
X8800000Y16620000D02*
X8800000Y15600000D01*
X3600000Y19160000D02*
X3600000Y18140000D01*
X8800000Y19160000D02*
X8800000Y18140000D01*
X3600000Y21700000D02*
X3600000Y20680000D01*
X8800000Y21700000D02*
X8800000Y20680000D01*
X3600000Y24240000D02*
X3600000Y23220000D01*
X8800000Y24240000D02*
X8800000Y23220000D01*
X3600000Y26780000D02*
X3600000Y25760000D01*
X8800000Y26780000D02*
X8800000Y25760000D01*
X3600000Y29320000D02*
X3600000Y28300000D01*
X8800000Y29320000D02*
X8800000Y28300000D01*
X3600000Y31860000D02*
X3600000Y30840000D01*
X8800000Y31860000D02*
X8800000Y30840000D01*
X3600000Y34400000D02*
X3600000Y33380000D01*
X8800000Y34400000D02*
X8800000Y33380000D01*
X3600000Y36940000D02*
X3600000Y35920000D01*
X8800000Y36940000D02*
X8800000Y35920000D01*
X3600000Y39480000D02*
X3600000Y38460000D01*
X8800000Y39480000D02*
X8800000Y38460000D01*
X3600000Y42020000D02*
X3600000Y41000000D01*
X8800000Y42020000D02*
X8800000Y41000000D01*
X3600000Y6460000D02*
X3600000Y5890000D01*
X8800000Y6460000D02*
X8800000Y5890000D01*
X3600000Y44110000D02*
X3600000Y43540000D01*
X8800000Y44110000D02*
X8800000Y43540000D01*
X10240000Y43540000D02*
X8800000Y43540000D01*
X8800000Y5890000D02*
X3600000Y5890000D01*
X8800000Y44110000D02*
X3600000Y44110000D01*
X31300000Y22800000D02*
X34100000Y22800000D01*
X34100000Y22800000D02*
X34100000Y24800000D01*
X34100000Y24800000D02*
X31300000Y24800000D01*
X31300000Y24800000D02*
X31300000Y22800000D01*
X31300000Y22200000D02*
X31300000Y20200000D01*
X34100000Y22200000D02*
X31300000Y22200000D01*
X34100000Y20200000D02*
X34100000Y22200000D01*
X31300000Y20200000D02*
X34100000Y20200000D01*
X34100000Y17600000D02*
X34100000Y19600000D01*
X31300000Y17600000D02*
X34100000Y17600000D01*
X31300000Y19600000D02*
X31300000Y17600000D01*
X34100000Y19600000D02*
X31300000Y19600000D01*
X34100000Y17000000D02*
X31300000Y17000000D01*
X31300000Y17000000D02*
X31300000Y15000000D01*
X31300000Y15000000D02*
X34100000Y15000000D01*
X34100000Y15000000D02*
X34100000Y17000000D01*
X13400000Y22300000D02*
X13400000Y20300000D01*
X16200000Y22300000D02*
X13400000Y22300000D01*
X16200000Y20300000D02*
X16200000Y22300000D01*
X13400000Y20300000D02*
X16200000Y20300000D01*
X13400000Y17700000D02*
X16200000Y17700000D01*
X16200000Y17700000D02*
X16200000Y19700000D01*
X16200000Y19700000D02*
X13400000Y19700000D01*
X13400000Y19700000D02*
X13400000Y17700000D01*
X13400000Y23000000D02*
X16200000Y23000000D01*
X16200000Y23000000D02*
X16200000Y25000000D01*
X16200000Y25000000D02*
X13400000Y25000000D01*
X13400000Y25000000D02*
X13400000Y23000000D01*
X13400000Y17100000D02*
X13400000Y15100000D01*
X16200000Y17100000D02*
X13400000Y17100000D01*
X16200000Y15100000D02*
X16200000Y17100000D01*
X13400000Y15100000D02*
X16200000Y15100000D01*
D11*
X48100000Y35000000D02*
X48100000Y32700000D01*
X48100000Y41300000D02*
X48100000Y39100000D01*
X43500000Y41300000D02*
X43500000Y32700000D01*
X10493333Y45048420D02*
X10493333Y44334134D01*
X10540952Y44191277D01*
X10636190Y44096039D01*
X10779047Y44048420D01*
X10874285Y44048420D01*
X9493333Y44048420D02*
X10064761Y44048420D01*
X9779047Y44048420D02*
X9779047Y45048420D01*
X9874285Y44905562D01*
X9969523Y44810324D01*
X10064761Y44762705D01*
X36366666Y23538096D02*
X36366666Y22966667D01*
X36404761Y22852381D01*
X36480952Y22776191D01*
X36595238Y22738096D01*
X36671428Y22738096D01*
X35985714Y22738096D02*
X35985714Y23538096D01*
X35680952Y23538096D01*
X35604761Y23500000D01*
X35566666Y23461905D01*
X35528571Y23385715D01*
X35528571Y23271429D01*
X35566666Y23195239D01*
X35604761Y23157143D01*
X35680952Y23119048D01*
X35985714Y23119048D01*
X34766666Y22738096D02*
X35223809Y22738096D01*
X34995238Y22738096D02*
X34995238Y23538096D01*
X35071428Y23423810D01*
X35147619Y23347620D01*
X35223809Y23309524D01*
X36466666Y22038096D02*
X36466666Y21466667D01*
X36504761Y21352381D01*
X36580952Y21276191D01*
X36695238Y21238096D01*
X36771428Y21238096D01*
X36085714Y21238096D02*
X36085714Y22038096D01*
X35780952Y22038096D01*
X35704761Y22000000D01*
X35666666Y21961905D01*
X35628571Y21885715D01*
X35628571Y21771429D01*
X35666666Y21695239D01*
X35704761Y21657143D01*
X35780952Y21619048D01*
X36085714Y21619048D01*
X35323809Y21961905D02*
X35285714Y22000000D01*
X35209523Y22038096D01*
X35019047Y22038096D01*
X34942857Y22000000D01*
X34904761Y21961905D01*
X34866666Y21885715D01*
X34866666Y21809524D01*
X34904761Y21695239D01*
X35361904Y21238096D01*
X34866666Y21238096D01*
X36266666Y18438096D02*
X36266666Y17866667D01*
X36304761Y17752381D01*
X36380952Y17676191D01*
X36495238Y17638096D01*
X36571428Y17638096D01*
X35885714Y17638096D02*
X35885714Y18438096D01*
X35580952Y18438096D01*
X35504761Y18400000D01*
X35466666Y18361905D01*
X35428571Y18285715D01*
X35428571Y18171429D01*
X35466666Y18095239D01*
X35504761Y18057143D01*
X35580952Y18019048D01*
X35885714Y18019048D01*
X35161904Y18438096D02*
X34666666Y18438096D01*
X34933333Y18133334D01*
X34819047Y18133334D01*
X34742857Y18095239D01*
X34704761Y18057143D01*
X34666666Y17980953D01*
X34666666Y17790477D01*
X34704761Y17714286D01*
X34742857Y17676191D01*
X34819047Y17638096D01*
X35047619Y17638096D01*
X35123809Y17676191D01*
X35161904Y17714286D01*
X36266666Y17038096D02*
X36266666Y16466667D01*
X36304761Y16352381D01*
X36380952Y16276191D01*
X36495238Y16238096D01*
X36571428Y16238096D01*
X35885714Y16238096D02*
X35885714Y17038096D01*
X35580952Y17038096D01*
X35504761Y17000000D01*
X35466666Y16961905D01*
X35428571Y16885715D01*
X35428571Y16771429D01*
X35466666Y16695239D01*
X35504761Y16657143D01*
X35580952Y16619048D01*
X35885714Y16619048D01*
X34742857Y16771429D02*
X34742857Y16238096D01*
X34933333Y17076191D02*
X35123809Y16504762D01*
X34628571Y16504762D01*
X18366666Y22238096D02*
X18366666Y21666667D01*
X18404761Y21552381D01*
X18480952Y21476191D01*
X18595238Y21438096D01*
X18671428Y21438096D01*
X17985714Y21438096D02*
X17985714Y22238096D01*
X17680952Y22238096D01*
X17604761Y22200000D01*
X17566666Y22161905D01*
X17528571Y22085715D01*
X17528571Y21971429D01*
X17566666Y21895239D01*
X17604761Y21857143D01*
X17680952Y21819048D01*
X17985714Y21819048D01*
X16804761Y22238096D02*
X17185714Y22238096D01*
X17223809Y21857143D01*
X17185714Y21895239D01*
X17109523Y21933334D01*
X16919047Y21933334D01*
X16842857Y21895239D01*
X16804761Y21857143D01*
X16766666Y21780953D01*
X16766666Y21590477D01*
X16804761Y21514286D01*
X16842857Y21476191D01*
X16919047Y21438096D01*
X17109523Y21438096D01*
X17185714Y21476191D01*
X17223809Y21514286D01*
X18366666Y18538096D02*
X18366666Y17966667D01*
X18404761Y17852381D01*
X18480952Y17776191D01*
X18595238Y17738096D01*
X18671428Y17738096D01*
X17985714Y17738096D02*
X17985714Y18538096D01*
X17680952Y18538096D01*
X17604761Y18500000D01*
X17566666Y18461905D01*
X17528571Y18385715D01*
X17528571Y18271429D01*
X17566666Y18195239D01*
X17604761Y18157143D01*
X17680952Y18119048D01*
X17985714Y18119048D01*
X16842857Y18538096D02*
X16995238Y18538096D01*
X17071428Y18500000D01*
X17109523Y18461905D01*
X17185714Y18347620D01*
X17223809Y18195239D01*
X17223809Y17890477D01*
X17185714Y17814286D01*
X17147619Y17776191D01*
X17071428Y17738096D01*
X16919047Y17738096D01*
X16842857Y17776191D01*
X16804761Y17814286D01*
X16766666Y17890477D01*
X16766666Y18080953D01*
X16804761Y18157143D01*
X16842857Y18195239D01*
X16919047Y18233334D01*
X17071428Y18233334D01*
X17147619Y18195239D01*
X17185714Y18157143D01*
X17223809Y18080953D01*
X18366666Y23838096D02*
X18366666Y23266667D01*
X18404761Y23152381D01*
X18480952Y23076191D01*
X18595238Y23038096D01*
X18671428Y23038096D01*
X17985714Y23038096D02*
X17985714Y23838096D01*
X17680952Y23838096D01*
X17604761Y23800000D01*
X17566666Y23761905D01*
X17528571Y23685715D01*
X17528571Y23571429D01*
X17566666Y23495239D01*
X17604761Y23457143D01*
X17680952Y23419048D01*
X17985714Y23419048D01*
X17261904Y23838096D02*
X16728571Y23838096D01*
X17071428Y23038096D01*
X18366666Y17038096D02*
X18366666Y16466667D01*
X18404761Y16352381D01*
X18480952Y16276191D01*
X18595238Y16238096D01*
X18671428Y16238096D01*
X17985714Y16238096D02*
X17985714Y17038096D01*
X17680952Y17038096D01*
X17604761Y17000000D01*
X17566666Y16961905D01*
X17528571Y16885715D01*
X17528571Y16771429D01*
X17566666Y16695239D01*
X17604761Y16657143D01*
X17680952Y16619048D01*
X17985714Y16619048D01*
X17071428Y16695239D02*
X17147619Y16733334D01*
X17185714Y16771429D01*
X17223809Y16847620D01*
X17223809Y16885715D01*
X17185714Y16961905D01*
X17147619Y17000000D01*
X17071428Y17038096D01*
X16919047Y17038096D01*
X16842857Y17000000D01*
X16804761Y16961905D01*
X16766666Y16885715D01*
X16766666Y16847620D01*
X16804761Y16771429D01*
X16842857Y16733334D01*
X16919047Y16695239D01*
X17071428Y16695239D01*
X17147619Y16657143D01*
X17185714Y16619048D01*
X17223809Y16542858D01*
X17223809Y16390477D01*
X17185714Y16314286D01*
X17147619Y16276191D01*
X17071428Y16238096D01*
X16919047Y16238096D01*
X16842857Y16276191D01*
X16804761Y16314286D01*
X16766666Y16390477D01*
X16766666Y16542858D01*
X16804761Y16619048D01*
X16842857Y16657143D01*
X16919047Y16695239D01*
M02*
