G04 #@! TF.GenerationSoftware,KiCad,Pcbnew,5.1.5+dfsg1-2build2*
G04 #@! TF.CreationDate,2021-06-08T03:42:44+09:00*
G04 #@! TF.ProjectId,m5-pantilt,6d352d70-616e-4746-996c-742e6b696361,1*
G04 #@! TF.SameCoordinates,Original*
G04 #@! TF.FileFunction,Legend,Top*
G04 #@! TF.FilePolarity,Positive*
%FSLAX46Y46*%
G04 Gerber Fmt 4.6, Leading zero omitted, Abs format (unit mm)*
G04 Created by KiCad (PCBNEW 5.1.5+dfsg1-2build2) date 2021-06-08 03:42:44*
%MOMM*%
%LPD*%
G04 APERTURE LIST*
%ADD10C,0.120000*%
%ADD11C,0.150000*%
G04 APERTURE END LIST*
D10*
X145040000Y-93060000D02*
X145040000Y-93340000D01*
X145040000Y-93340000D02*
X143440000Y-93340000D01*
X143440000Y-93340000D02*
X143440000Y-94260000D01*
X143440000Y-94260000D02*
X151260000Y-94260000D01*
X151260000Y-94260000D02*
X151260000Y-84140000D01*
X151260000Y-84140000D02*
X143440000Y-84140000D01*
X143440000Y-84140000D02*
X143440000Y-85060000D01*
X143440000Y-85060000D02*
X145040000Y-85060000D01*
X145040000Y-85060000D02*
X145040000Y-85340000D01*
X151260000Y-91700000D02*
X146900000Y-91700000D01*
X146900000Y-91700000D02*
X146900000Y-86700000D01*
X146900000Y-86700000D02*
X151260000Y-86700000D01*
X145040000Y-94260000D02*
X145040000Y-93340000D01*
X145040000Y-84140000D02*
X145040000Y-85060000D01*
X147400000Y-93500000D02*
X149000000Y-93500000D01*
X149000000Y-93500000D02*
X149000000Y-92500000D01*
X149000000Y-92500000D02*
X147400000Y-92500000D01*
X147400000Y-92500000D02*
X147400000Y-93500000D01*
X147400000Y-84900000D02*
X149000000Y-84900000D01*
X149000000Y-84900000D02*
X149000000Y-85900000D01*
X149000000Y-85900000D02*
X147400000Y-85900000D01*
X147400000Y-85900000D02*
X147400000Y-84900000D01*
X149000000Y-92500000D02*
X151260000Y-92500000D01*
X149000000Y-93000000D02*
X151260000Y-93000000D01*
X145040000Y-93060000D02*
X143825000Y-93060000D01*
X121410000Y-81330000D02*
X121410000Y-76130000D01*
X116270000Y-81330000D02*
X121410000Y-81330000D01*
X113670000Y-76130000D02*
X121410000Y-76130000D01*
X116270000Y-81330000D02*
X116270000Y-78730000D01*
X116270000Y-78730000D02*
X113670000Y-78730000D01*
X113670000Y-78730000D02*
X113670000Y-76130000D01*
X115000000Y-81330000D02*
X113670000Y-81330000D01*
X113670000Y-81330000D02*
X113670000Y-80000000D01*
X115171267Y-66510000D02*
X114828733Y-66510000D01*
X115171267Y-65490000D02*
X114828733Y-65490000D01*
X115171267Y-63490000D02*
X114828733Y-63490000D01*
X115171267Y-64510000D02*
X114828733Y-64510000D01*
X121270000Y-58250000D02*
G75*
G03X121270000Y-58250000I-3270000J0D01*
G01*
X119860000Y-91140000D02*
X121075000Y-91140000D01*
X115900000Y-91200000D02*
X113640000Y-91200000D01*
X115900000Y-91700000D02*
X113640000Y-91700000D01*
X117500000Y-94300000D02*
X117500000Y-95300000D01*
X115900000Y-94300000D02*
X117500000Y-94300000D01*
X115900000Y-95300000D02*
X115900000Y-94300000D01*
X117500000Y-95300000D02*
X115900000Y-95300000D01*
X117500000Y-91700000D02*
X117500000Y-90700000D01*
X115900000Y-91700000D02*
X117500000Y-91700000D01*
X115900000Y-90700000D02*
X115900000Y-91700000D01*
X117500000Y-90700000D02*
X115900000Y-90700000D01*
X119860000Y-96060000D02*
X119860000Y-95140000D01*
X119860000Y-89940000D02*
X119860000Y-90860000D01*
X118000000Y-93500000D02*
X113640000Y-93500000D01*
X118000000Y-92500000D02*
X118000000Y-93500000D01*
X113640000Y-92500000D02*
X118000000Y-92500000D01*
X119860000Y-95140000D02*
X119860000Y-94860000D01*
X121460000Y-95140000D02*
X119860000Y-95140000D01*
X121460000Y-96060000D02*
X121460000Y-95140000D01*
X113640000Y-96060000D02*
X121460000Y-96060000D01*
X113640000Y-89940000D02*
X113640000Y-96060000D01*
X121460000Y-89940000D02*
X113640000Y-89940000D01*
X121460000Y-90860000D02*
X121460000Y-89940000D01*
X119860000Y-90860000D02*
X121460000Y-90860000D01*
X119860000Y-91140000D02*
X119860000Y-90860000D01*
X121410000Y-74330000D02*
X121410000Y-69130000D01*
X116270000Y-74330000D02*
X121410000Y-74330000D01*
X113670000Y-69130000D02*
X121410000Y-69130000D01*
X116270000Y-74330000D02*
X116270000Y-71730000D01*
X116270000Y-71730000D02*
X113670000Y-71730000D01*
X113670000Y-71730000D02*
X113670000Y-69130000D01*
X115000000Y-74330000D02*
X113670000Y-74330000D01*
X113670000Y-74330000D02*
X113670000Y-73000000D01*
X136650000Y-55800000D02*
X141850000Y-55800000D01*
X141850000Y-69800000D02*
X136650000Y-69800000D01*
X135900000Y-67750000D02*
X135900000Y-57850000D01*
X142600000Y-57850000D02*
X142600000Y-67750000D01*
X136250000Y-70100000D02*
X134950000Y-70100000D01*
X134950000Y-70100000D02*
X134950000Y-68800000D01*
X113670000Y-88330000D02*
X113670000Y-87000000D01*
X115000000Y-88330000D02*
X113670000Y-88330000D01*
X113670000Y-85730000D02*
X113670000Y-83130000D01*
X116270000Y-85730000D02*
X113670000Y-85730000D01*
X116270000Y-88330000D02*
X116270000Y-85730000D01*
X113670000Y-83130000D02*
X121410000Y-83130000D01*
X116270000Y-88330000D02*
X121410000Y-88330000D01*
X121410000Y-88330000D02*
X121410000Y-83130000D01*
X118869700Y-64060067D02*
X118869700Y-65939933D01*
X121130300Y-65939933D02*
X121130300Y-64060067D01*
D11*
X141802380Y-89533333D02*
X142516666Y-89533333D01*
X142659523Y-89580952D01*
X142754761Y-89676190D01*
X142802380Y-89819047D01*
X142802380Y-89914285D01*
X141802380Y-88628571D02*
X141802380Y-88819047D01*
X141850000Y-88914285D01*
X141897619Y-88961904D01*
X142040476Y-89057142D01*
X142230952Y-89104761D01*
X142611904Y-89104761D01*
X142707142Y-89057142D01*
X142754761Y-89009523D01*
X142802380Y-88914285D01*
X142802380Y-88723809D01*
X142754761Y-88628571D01*
X142707142Y-88580952D01*
X142611904Y-88533333D01*
X142373809Y-88533333D01*
X142278571Y-88580952D01*
X142230952Y-88628571D01*
X142183333Y-88723809D01*
X142183333Y-88914285D01*
X142230952Y-89009523D01*
X142278571Y-89057142D01*
X142373809Y-89104761D01*
X112122380Y-79063333D02*
X112836666Y-79063333D01*
X112979523Y-79110952D01*
X113074761Y-79206190D01*
X113122380Y-79349047D01*
X113122380Y-79444285D01*
X112217619Y-78634761D02*
X112170000Y-78587142D01*
X112122380Y-78491904D01*
X112122380Y-78253809D01*
X112170000Y-78158571D01*
X112217619Y-78110952D01*
X112312857Y-78063333D01*
X112408095Y-78063333D01*
X112550952Y-78110952D01*
X113122380Y-78682380D01*
X113122380Y-78063333D01*
X114833333Y-67882380D02*
X114500000Y-67406190D01*
X114261904Y-67882380D02*
X114261904Y-66882380D01*
X114642857Y-66882380D01*
X114738095Y-66930000D01*
X114785714Y-66977619D01*
X114833333Y-67072857D01*
X114833333Y-67215714D01*
X114785714Y-67310952D01*
X114738095Y-67358571D01*
X114642857Y-67406190D01*
X114261904Y-67406190D01*
X115785714Y-67882380D02*
X115214285Y-67882380D01*
X115500000Y-67882380D02*
X115500000Y-66882380D01*
X115404761Y-67025238D01*
X115309523Y-67120476D01*
X115214285Y-67168095D01*
X114833333Y-65882380D02*
X114500000Y-65406190D01*
X114261904Y-65882380D02*
X114261904Y-64882380D01*
X114642857Y-64882380D01*
X114738095Y-64930000D01*
X114785714Y-64977619D01*
X114833333Y-65072857D01*
X114833333Y-65215714D01*
X114785714Y-65310952D01*
X114738095Y-65358571D01*
X114642857Y-65406190D01*
X114261904Y-65406190D01*
X115214285Y-64977619D02*
X115261904Y-64930000D01*
X115357142Y-64882380D01*
X115595238Y-64882380D01*
X115690476Y-64930000D01*
X115738095Y-64977619D01*
X115785714Y-65072857D01*
X115785714Y-65168095D01*
X115738095Y-65310952D01*
X115166666Y-65882380D01*
X115785714Y-65882380D01*
X122757142Y-58416666D02*
X122804761Y-58464285D01*
X122852380Y-58607142D01*
X122852380Y-58702380D01*
X122804761Y-58845238D01*
X122709523Y-58940476D01*
X122614285Y-58988095D01*
X122423809Y-59035714D01*
X122280952Y-59035714D01*
X122090476Y-58988095D01*
X121995238Y-58940476D01*
X121900000Y-58845238D01*
X121852380Y-58702380D01*
X121852380Y-58607142D01*
X121900000Y-58464285D01*
X121947619Y-58416666D01*
X122852380Y-57464285D02*
X122852380Y-58035714D01*
X122852380Y-57750000D02*
X121852380Y-57750000D01*
X121995238Y-57845238D01*
X122090476Y-57940476D01*
X122138095Y-58035714D01*
X122352380Y-93333333D02*
X123066666Y-93333333D01*
X123209523Y-93380952D01*
X123304761Y-93476190D01*
X123352380Y-93619047D01*
X123352380Y-93714285D01*
X122352380Y-92380952D02*
X122352380Y-92857142D01*
X122828571Y-92904761D01*
X122780952Y-92857142D01*
X122733333Y-92761904D01*
X122733333Y-92523809D01*
X122780952Y-92428571D01*
X122828571Y-92380952D01*
X122923809Y-92333333D01*
X123161904Y-92333333D01*
X123257142Y-92380952D01*
X123304761Y-92428571D01*
X123352380Y-92523809D01*
X123352380Y-92761904D01*
X123304761Y-92857142D01*
X123257142Y-92904761D01*
X112122380Y-72063333D02*
X112836666Y-72063333D01*
X112979523Y-72110952D01*
X113074761Y-72206190D01*
X113122380Y-72349047D01*
X113122380Y-72444285D01*
X112122380Y-71682380D02*
X112122380Y-71063333D01*
X112503333Y-71396666D01*
X112503333Y-71253809D01*
X112550952Y-71158571D01*
X112598571Y-71110952D01*
X112693809Y-71063333D01*
X112931904Y-71063333D01*
X113027142Y-71110952D01*
X113074761Y-71158571D01*
X113122380Y-71253809D01*
X113122380Y-71539523D01*
X113074761Y-71634761D01*
X113027142Y-71682380D01*
X134804761Y-66733333D02*
X134852380Y-66590476D01*
X134852380Y-66352380D01*
X134804761Y-66257142D01*
X134757142Y-66209523D01*
X134661904Y-66161904D01*
X134566666Y-66161904D01*
X134471428Y-66209523D01*
X134423809Y-66257142D01*
X134376190Y-66352380D01*
X134328571Y-66542857D01*
X134280952Y-66638095D01*
X134233333Y-66685714D01*
X134138095Y-66733333D01*
X134042857Y-66733333D01*
X133947619Y-66685714D01*
X133900000Y-66638095D01*
X133852380Y-66542857D01*
X133852380Y-66304761D01*
X133900000Y-66161904D01*
X133852380Y-65828571D02*
X134852380Y-65590476D01*
X134138095Y-65400000D01*
X134852380Y-65209523D01*
X133852380Y-64971428D01*
X134852380Y-64066666D02*
X134852380Y-64638095D01*
X134852380Y-64352380D02*
X133852380Y-64352380D01*
X133995238Y-64447619D01*
X134090476Y-64542857D01*
X134138095Y-64638095D01*
X112122380Y-86063333D02*
X112836666Y-86063333D01*
X112979523Y-86110952D01*
X113074761Y-86206190D01*
X113122380Y-86349047D01*
X113122380Y-86444285D01*
X112455714Y-85158571D02*
X113122380Y-85158571D01*
X112074761Y-85396666D02*
X112789047Y-85634761D01*
X112789047Y-85015714D01*
X125452380Y-63761904D02*
X126261904Y-63761904D01*
X126357142Y-63714285D01*
X126404761Y-63666666D01*
X126452380Y-63571428D01*
X126452380Y-63380952D01*
X126404761Y-63285714D01*
X126357142Y-63238095D01*
X126261904Y-63190476D01*
X125452380Y-63190476D01*
X126452380Y-62190476D02*
X126452380Y-62761904D01*
X126452380Y-62476190D02*
X125452380Y-62476190D01*
X125595238Y-62571428D01*
X125690476Y-62666666D01*
X125738095Y-62761904D01*
X120452380Y-69119047D02*
X119452380Y-69119047D01*
X120452380Y-68547619D01*
X119452380Y-68547619D01*
X120452380Y-67595238D02*
X120452380Y-68071428D01*
X119452380Y-68071428D01*
X119547619Y-67309523D02*
X119500000Y-67261904D01*
X119452380Y-67166666D01*
X119452380Y-66928571D01*
X119500000Y-66833333D01*
X119547619Y-66785714D01*
X119642857Y-66738095D01*
X119738095Y-66738095D01*
X119880952Y-66785714D01*
X120452380Y-67357142D01*
X120452380Y-66738095D01*
X119452380Y-66404761D02*
X119452380Y-65738095D01*
X120452380Y-66166666D01*
X119452380Y-65452380D02*
X120452380Y-65214285D01*
X119738095Y-65023809D01*
X120452380Y-64833333D01*
X119452380Y-64595238D01*
X119452380Y-64309523D02*
X119452380Y-63642857D01*
X120452380Y-64309523D01*
X120452380Y-63642857D01*
X120452380Y-62738095D02*
X120452380Y-63309523D01*
X120452380Y-63023809D02*
X119452380Y-63023809D01*
X119595238Y-63119047D01*
X119690476Y-63214285D01*
X119738095Y-63309523D01*
X119547619Y-62357142D02*
X119500000Y-62309523D01*
X119452380Y-62214285D01*
X119452380Y-61976190D01*
X119500000Y-61880952D01*
X119547619Y-61833333D01*
X119642857Y-61785714D01*
X119738095Y-61785714D01*
X119880952Y-61833333D01*
X120452380Y-62404761D01*
X120452380Y-61785714D01*
X119452380Y-60880952D02*
X119452380Y-61357142D01*
X119928571Y-61404761D01*
X119880952Y-61357142D01*
X119833333Y-61261904D01*
X119833333Y-61023809D01*
X119880952Y-60928571D01*
X119928571Y-60880952D01*
X120023809Y-60833333D01*
X120261904Y-60833333D01*
X120357142Y-60880952D01*
X120404761Y-60928571D01*
X120452380Y-61023809D01*
X120452380Y-61261904D01*
X120404761Y-61357142D01*
X120357142Y-61404761D01*
X121599380Y-63190250D02*
X121837476Y-63190250D01*
X121742238Y-63428345D02*
X121837476Y-63190250D01*
X121742238Y-62952154D01*
X122027952Y-63333107D02*
X121837476Y-63190250D01*
X122027952Y-63047392D01*
X121599380Y-63190250D02*
X121837476Y-63190250D01*
X121742238Y-63428345D02*
X121837476Y-63190250D01*
X121742238Y-62952154D01*
X122027952Y-63333107D02*
X121837476Y-63190250D01*
X122027952Y-63047392D01*
X109095238Y-52452380D02*
X109095238Y-51452380D01*
X109095238Y-51928571D02*
X109666666Y-51928571D01*
X109666666Y-52452380D02*
X109666666Y-51452380D01*
X110285714Y-52452380D02*
X110190476Y-52404761D01*
X110142857Y-52357142D01*
X110095238Y-52261904D01*
X110095238Y-51976190D01*
X110142857Y-51880952D01*
X110190476Y-51833333D01*
X110285714Y-51785714D01*
X110428571Y-51785714D01*
X110523809Y-51833333D01*
X110571428Y-51880952D01*
X110619047Y-51976190D01*
X110619047Y-52261904D01*
X110571428Y-52357142D01*
X110523809Y-52404761D01*
X110428571Y-52452380D01*
X110285714Y-52452380D01*
X111190476Y-52452380D02*
X111095238Y-52404761D01*
X111047619Y-52309523D01*
X111047619Y-51452380D01*
X111952380Y-52404761D02*
X111857142Y-52452380D01*
X111666666Y-52452380D01*
X111571428Y-52404761D01*
X111523809Y-52309523D01*
X111523809Y-51928571D01*
X111571428Y-51833333D01*
X111666666Y-51785714D01*
X111857142Y-51785714D01*
X111952380Y-51833333D01*
X112000000Y-51928571D01*
X112000000Y-52023809D01*
X111523809Y-52119047D01*
X112857142Y-51785714D02*
X112857142Y-52452380D01*
X112619047Y-51404761D02*
X112380952Y-52119047D01*
X113000000Y-52119047D01*
X137095238Y-98452380D02*
X137095238Y-97452380D01*
X137095238Y-97928571D02*
X137666666Y-97928571D01*
X137666666Y-98452380D02*
X137666666Y-97452380D01*
X138285714Y-98452380D02*
X138190476Y-98404761D01*
X138142857Y-98357142D01*
X138095238Y-98261904D01*
X138095238Y-97976190D01*
X138142857Y-97880952D01*
X138190476Y-97833333D01*
X138285714Y-97785714D01*
X138428571Y-97785714D01*
X138523809Y-97833333D01*
X138571428Y-97880952D01*
X138619047Y-97976190D01*
X138619047Y-98261904D01*
X138571428Y-98357142D01*
X138523809Y-98404761D01*
X138428571Y-98452380D01*
X138285714Y-98452380D01*
X139190476Y-98452380D02*
X139095238Y-98404761D01*
X139047619Y-98309523D01*
X139047619Y-97452380D01*
X139952380Y-98404761D02*
X139857142Y-98452380D01*
X139666666Y-98452380D01*
X139571428Y-98404761D01*
X139523809Y-98309523D01*
X139523809Y-97928571D01*
X139571428Y-97833333D01*
X139666666Y-97785714D01*
X139857142Y-97785714D01*
X139952380Y-97833333D01*
X140000000Y-97928571D01*
X140000000Y-98023809D01*
X139523809Y-98119047D01*
X140380952Y-97547619D02*
X140428571Y-97500000D01*
X140523809Y-97452380D01*
X140761904Y-97452380D01*
X140857142Y-97500000D01*
X140904761Y-97547619D01*
X140952380Y-97642857D01*
X140952380Y-97738095D01*
X140904761Y-97880952D01*
X140333333Y-98452380D01*
X140952380Y-98452380D01*
X137095238Y-52452380D02*
X137095238Y-51452380D01*
X137095238Y-51928571D02*
X137666666Y-51928571D01*
X137666666Y-52452380D02*
X137666666Y-51452380D01*
X138285714Y-52452380D02*
X138190476Y-52404761D01*
X138142857Y-52357142D01*
X138095238Y-52261904D01*
X138095238Y-51976190D01*
X138142857Y-51880952D01*
X138190476Y-51833333D01*
X138285714Y-51785714D01*
X138428571Y-51785714D01*
X138523809Y-51833333D01*
X138571428Y-51880952D01*
X138619047Y-51976190D01*
X138619047Y-52261904D01*
X138571428Y-52357142D01*
X138523809Y-52404761D01*
X138428571Y-52452380D01*
X138285714Y-52452380D01*
X139190476Y-52452380D02*
X139095238Y-52404761D01*
X139047619Y-52309523D01*
X139047619Y-51452380D01*
X139952380Y-52404761D02*
X139857142Y-52452380D01*
X139666666Y-52452380D01*
X139571428Y-52404761D01*
X139523809Y-52309523D01*
X139523809Y-51928571D01*
X139571428Y-51833333D01*
X139666666Y-51785714D01*
X139857142Y-51785714D01*
X139952380Y-51833333D01*
X140000000Y-51928571D01*
X140000000Y-52023809D01*
X139523809Y-52119047D01*
X140952380Y-52452380D02*
X140380952Y-52452380D01*
X140666666Y-52452380D02*
X140666666Y-51452380D01*
X140571428Y-51595238D01*
X140476190Y-51690476D01*
X140380952Y-51738095D01*
X109095238Y-98452380D02*
X109095238Y-97452380D01*
X109095238Y-97928571D02*
X109666666Y-97928571D01*
X109666666Y-98452380D02*
X109666666Y-97452380D01*
X110285714Y-98452380D02*
X110190476Y-98404761D01*
X110142857Y-98357142D01*
X110095238Y-98261904D01*
X110095238Y-97976190D01*
X110142857Y-97880952D01*
X110190476Y-97833333D01*
X110285714Y-97785714D01*
X110428571Y-97785714D01*
X110523809Y-97833333D01*
X110571428Y-97880952D01*
X110619047Y-97976190D01*
X110619047Y-98261904D01*
X110571428Y-98357142D01*
X110523809Y-98404761D01*
X110428571Y-98452380D01*
X110285714Y-98452380D01*
X111190476Y-98452380D02*
X111095238Y-98404761D01*
X111047619Y-98309523D01*
X111047619Y-97452380D01*
X111952380Y-98404761D02*
X111857142Y-98452380D01*
X111666666Y-98452380D01*
X111571428Y-98404761D01*
X111523809Y-98309523D01*
X111523809Y-97928571D01*
X111571428Y-97833333D01*
X111666666Y-97785714D01*
X111857142Y-97785714D01*
X111952380Y-97833333D01*
X112000000Y-97928571D01*
X112000000Y-98023809D01*
X111523809Y-98119047D01*
X112333333Y-97452380D02*
X112952380Y-97452380D01*
X112619047Y-97833333D01*
X112761904Y-97833333D01*
X112857142Y-97880952D01*
X112904761Y-97928571D01*
X112952380Y-98023809D01*
X112952380Y-98261904D01*
X112904761Y-98357142D01*
X112857142Y-98404761D01*
X112761904Y-98452380D01*
X112476190Y-98452380D01*
X112380952Y-98404761D01*
X112333333Y-98357142D01*
M02*
