<?xml version="1.0" standalone="no"?>
 <!DOCTYPE svg PUBLIC "-//W3C//DTD SVG 1.1//EN" 
 "http://www.w3.org/Graphics/SVG/1.1/DTD/svg11.dtd"> 
<svg
  xmlns:svg="http://www.w3.org/2000/svg"
  xmlns="http://www.w3.org/2000/svg"
  xmlns:xlink="http://www.w3.org/1999/xlink"
  version="1.1"
  width="297.0022mm" height="210.0072mm" viewBox="0.0000 0.0000 297.0022 210.0072">
<title>SVG Image created as m5-pantilt-User_Eco1.svg date 2023/09/19 04:43:35 </title>
  <desc>Image generated by PCBNEW </desc>
<g style="fill:#000000; fill-opacity:1.0000;stroke:#000000; stroke-opacity:1.0000;
stroke-linecap:round; stroke-linejoin:round;"
 transform="translate(0 0) scale(1 1)">
</g>
<g style="fill:#000000; fill-opacity:0.0; 
stroke:#000000; stroke-width:0.0000; stroke-opacity:1; 
stroke-linecap:round; stroke-linejoin:round;">
</g>
<g style="fill:#000000; fill-opacity:0.0; 
stroke:#000000; stroke-width:0.1500; stroke-opacity:1; 
stroke-linecap:round; stroke-linejoin:round;">
<g transform="rotate(-90.000000 203.2322 75.0000)">
<text x="203.2322" y="75.5000"
textLength="9.8690" font-size="1.3333" lengthAdjust="spacingAndGlyphs"
text-anchor="middle" opacity="0">50.0000 mm</text>
</g>
<g class="stroked-text"><desc>50.0000 mm</desc>
<path d="M203.7774 79.0952
L203.7774 79.5714
" />
<path d="M203.7774 79.5714
L203.3012 79.6190
" />
<path d="M203.3012 79.6190
L203.3488 79.5714
" />
<path d="M203.3488 79.5714
L203.3964 79.4762
" />
<path d="M203.3964 79.4762
L203.3964 79.2381
" />
<path d="M203.3964 79.2381
L203.3488 79.1429
" />
<path d="M203.3488 79.1429
L203.3012 79.0952
" />
<path d="M203.3012 79.0952
L203.2060 79.0476
" />
<path d="M203.2060 79.0476
L202.9679 79.0476
" />
<path d="M202.9679 79.0476
L202.8726 79.0952
" />
<path d="M202.8726 79.0952
L202.8250 79.1429
" />
<path d="M202.8250 79.1429
L202.7774 79.2381
" />
<path d="M202.7774 79.2381
L202.7774 79.4762
" />
<path d="M202.7774 79.4762
L202.8250 79.5714
" />
<path d="M202.8250 79.5714
L202.8726 79.6190
" />
<path d="M203.7774 78.4286
L203.7774 78.3333
" />
<path d="M203.7774 78.3333
L203.7298 78.2381
" />
<path d="M203.7298 78.2381
L203.6821 78.1905
" />
<path d="M203.6821 78.1905
L203.5869 78.1429
" />
<path d="M203.5869 78.1429
L203.3964 78.0952
" />
<path d="M203.3964 78.0952
L203.1583 78.0952
" />
<path d="M203.1583 78.0952
L202.9679 78.1429
" />
<path d="M202.9679 78.1429
L202.8726 78.1905
" />
<path d="M202.8726 78.1905
L202.8250 78.2381
" />
<path d="M202.8250 78.2381
L202.7774 78.3333
" />
<path d="M202.7774 78.3333
L202.7774 78.4286
" />
<path d="M202.7774 78.4286
L202.8250 78.5238
" />
<path d="M202.8250 78.5238
L202.8726 78.5714
" />
<path d="M202.8726 78.5714
L202.9679 78.6190
" />
<path d="M202.9679 78.6190
L203.1583 78.6667
" />
<path d="M203.1583 78.6667
L203.3964 78.6667
" />
<path d="M203.3964 78.6667
L203.5869 78.6190
" />
<path d="M203.5869 78.6190
L203.6821 78.5714
" />
<path d="M203.6821 78.5714
L203.7298 78.5238
" />
<path d="M203.7298 78.5238
L203.7774 78.4286
" />
<path d="M202.8726 77.6667
L202.8250 77.6190
" />
<path d="M202.8250 77.6190
L202.7774 77.6667
" />
<path d="M202.7774 77.6667
L202.8250 77.7143
" />
<path d="M202.8250 77.7143
L202.8726 77.6667
" />
<path d="M202.8726 77.6667
L202.7774 77.6667
" />
<path d="M203.7774 77.0000
L203.7774 76.9048
" />
<path d="M203.7774 76.9048
L203.7298 76.8095
" />
<path d="M203.7298 76.8095
L203.6821 76.7619
" />
<path d="M203.6821 76.7619
L203.5869 76.7143
" />
<path d="M203.5869 76.7143
L203.3964 76.6667
" />
<path d="M203.3964 76.6667
L203.1583 76.6667
" />
<path d="M203.1583 76.6667
L202.9679 76.7143
" />
<path d="M202.9679 76.7143
L202.8726 76.7619
" />
<path d="M202.8726 76.7619
L202.8250 76.8095
" />
<path d="M202.8250 76.8095
L202.7774 76.9048
" />
<path d="M202.7774 76.9048
L202.7774 77.0000
" />
<path d="M202.7774 77.0000
L202.8250 77.0952
" />
<path d="M202.8250 77.0952
L202.8726 77.1429
" />
<path d="M202.8726 77.1429
L202.9679 77.1905
" />
<path d="M202.9679 77.1905
L203.1583 77.2381
" />
<path d="M203.1583 77.2381
L203.3964 77.2381
" />
<path d="M203.3964 77.2381
L203.5869 77.1905
" />
<path d="M203.5869 77.1905
L203.6821 77.1429
" />
<path d="M203.6821 77.1429
L203.7298 77.0952
" />
<path d="M203.7298 77.0952
L203.7774 77.0000
" />
<path d="M203.7774 76.0476
L203.7774 75.9524
" />
<path d="M203.7774 75.9524
L203.7298 75.8571
" />
<path d="M203.7298 75.8571
L203.6821 75.8095
" />
<path d="M203.6821 75.8095
L203.5869 75.7619
" />
<path d="M203.5869 75.7619
L203.3964 75.7143
" />
<path d="M203.3964 75.7143
L203.1583 75.7143
" />
<path d="M203.1583 75.7143
L202.9679 75.7619
" />
<path d="M202.9679 75.7619
L202.8726 75.8095
" />
<path d="M202.8726 75.8095
L202.8250 75.8571
" />
<path d="M202.8250 75.8571
L202.7774 75.9524
" />
<path d="M202.7774 75.9524
L202.7774 76.0476
" />
<path d="M202.7774 76.0476
L202.8250 76.1429
" />
<path d="M202.8250 76.1429
L202.8726 76.1905
" />
<path d="M202.8726 76.1905
L202.9679 76.2381
" />
<path d="M202.9679 76.2381
L203.1583 76.2857
" />
<path d="M203.1583 76.2857
L203.3964 76.2857
" />
<path d="M203.3964 76.2857
L203.5869 76.2381
" />
<path d="M203.5869 76.2381
L203.6821 76.1905
" />
<path d="M203.6821 76.1905
L203.7298 76.1429
" />
<path d="M203.7298 76.1429
L203.7774 76.0476
" />
<path d="M203.7774 75.0952
L203.7774 75.0000
" />
<path d="M203.7774 75.0000
L203.7298 74.9048
" />
<path d="M203.7298 74.9048
L203.6821 74.8571
" />
<path d="M203.6821 74.8571
L203.5869 74.8095
" />
<path d="M203.5869 74.8095
L203.3964 74.7619
" />
<path d="M203.3964 74.7619
L203.1583 74.7619
" />
<path d="M203.1583 74.7619
L202.9679 74.8095
" />
<path d="M202.9679 74.8095
L202.8726 74.8571
" />
<path d="M202.8726 74.8571
L202.8250 74.9048
" />
<path d="M202.8250 74.9048
L202.7774 75.0000
" />
<path d="M202.7774 75.0000
L202.7774 75.0952
" />
<path d="M202.7774 75.0952
L202.8250 75.1905
" />
<path d="M202.8250 75.1905
L202.8726 75.2381
" />
<path d="M202.8726 75.2381
L202.9679 75.2857
" />
<path d="M202.9679 75.2857
L203.1583 75.3333
" />
<path d="M203.1583 75.3333
L203.3964 75.3333
" />
<path d="M203.3964 75.3333
L203.5869 75.2857
" />
<path d="M203.5869 75.2857
L203.6821 75.2381
" />
<path d="M203.6821 75.2381
L203.7298 75.1905
" />
<path d="M203.7298 75.1905
L203.7774 75.0952
" />
<path d="M203.7774 74.1429
L203.7774 74.0476
" />
<path d="M203.7774 74.0476
L203.7298 73.9524
" />
<path d="M203.7298 73.9524
L203.6821 73.9048
" />
<path d="M203.6821 73.9048
L203.5869 73.8571
" />
<path d="M203.5869 73.8571
L203.3964 73.8095
" />
<path d="M203.3964 73.8095
L203.1583 73.8095
" />
<path d="M203.1583 73.8095
L202.9679 73.8571
" />
<path d="M202.9679 73.8571
L202.8726 73.9048
" />
<path d="M202.8726 73.9048
L202.8250 73.9524
" />
<path d="M202.8250 73.9524
L202.7774 74.0476
" />
<path d="M202.7774 74.0476
L202.7774 74.1429
" />
<path d="M202.7774 74.1429
L202.8250 74.2381
" />
<path d="M202.8250 74.2381
L202.8726 74.2857
" />
<path d="M202.8726 74.2857
L202.9679 74.3333
" />
<path d="M202.9679 74.3333
L203.1583 74.3810
" />
<path d="M203.1583 74.3810
L203.3964 74.3810
" />
<path d="M203.3964 74.3810
L203.5869 74.3333
" />
<path d="M203.5869 74.3333
L203.6821 74.2857
" />
<path d="M203.6821 74.2857
L203.7298 74.2381
" />
<path d="M203.7298 74.2381
L203.7774 74.1429
" />
<path d="M202.7774 72.6190
L203.4440 72.6190
" />
<path d="M203.3488 72.6190
L203.3964 72.5714
" />
<path d="M203.3964 72.5714
L203.4440 72.4762
" />
<path d="M203.4440 72.4762
L203.4440 72.3333
" />
<path d="M203.4440 72.3333
L203.3964 72.2381
" />
<path d="M203.3964 72.2381
L203.3012 72.1905
" />
<path d="M203.3012 72.1905
L202.7774 72.1905
" />
<path d="M203.3012 72.1905
L203.3964 72.1429
" />
<path d="M203.3964 72.1429
L203.4440 72.0476
" />
<path d="M203.4440 72.0476
L203.4440 71.9048
" />
<path d="M203.4440 71.9048
L203.3964 71.8095
" />
<path d="M203.3964 71.8095
L203.3012 71.7619
" />
<path d="M203.3012 71.7619
L202.7774 71.7619
" />
<path d="M202.7774 71.2857
L203.4440 71.2857
" />
<path d="M203.3488 71.2857
L203.3964 71.2381
" />
<path d="M203.3964 71.2381
L203.4440 71.1429
" />
<path d="M203.4440 71.1429
L203.4440 71.0000
" />
<path d="M203.4440 71.0000
L203.3964 70.9048
" />
<path d="M203.3964 70.9048
L203.3012 70.8571
" />
<path d="M203.3012 70.8571
L202.7774 70.8571
" />
<path d="M203.3012 70.8571
L203.3964 70.8095
" />
<path d="M203.3964 70.8095
L203.4440 70.7143
" />
<path d="M203.4440 70.7143
L203.4440 70.5714
" />
<path d="M203.4440 70.5714
L203.3964 70.4762
" />
<path d="M203.3964 70.4762
L203.3012 70.4286
" />
<path d="M203.3012 70.4286
L202.7774 70.4286
" />
</g><path d="M187.0022 100.0000
L202.6686 100.0000
" />
<path d="M187.0022 50.0000
L202.6686 50.0000
" />
<path d="M202.0822 100.0000
L202.0822 50.0000
" />
<path d="M202.0822 100.0000
L202.0822 50.0000
" />
<path d="M202.0822 100.0000
L202.6686 98.8735
" />
<path d="M202.0822 100.0000
L201.4958 98.8735
" />
<path d="M202.0822 50.0000
L201.4958 51.1265
" />
<path d="M202.0822 50.0000
L202.6686 51.1265
" />
<text x="172.4022" y="104.5950"
textLength="9.8690" font-size="1.3333" lengthAdjust="spacingAndGlyphs"
text-anchor="middle" opacity="0">50.0000 mm</text>
<g class="stroked-text"><desc>50.0000 mm</desc>
<path d="M176.4974 103.5498
L176.9736 103.5498
" />
<path d="M176.9736 103.5498
L177.0212 104.0260
" />
<path d="M177.0212 104.0260
L176.9736 103.9784
" />
<path d="M176.9736 103.9784
L176.8784 103.9308
" />
<path d="M176.8784 103.9308
L176.6403 103.9308
" />
<path d="M176.6403 103.9308
L176.5451 103.9784
" />
<path d="M176.5451 103.9784
L176.4974 104.0260
" />
<path d="M176.4974 104.0260
L176.4498 104.1212
" />
<path d="M176.4498 104.1212
L176.4498 104.3593
" />
<path d="M176.4498 104.3593
L176.4974 104.4546
" />
<path d="M176.4974 104.4546
L176.5451 104.5022
" />
<path d="M176.5451 104.5022
L176.6403 104.5498
" />
<path d="M176.6403 104.5498
L176.8784 104.5498
" />
<path d="M176.8784 104.5498
L176.9736 104.5022
" />
<path d="M176.9736 104.5022
L177.0212 104.4546
" />
<path d="M175.8308 103.5498
L175.7355 103.5498
" />
<path d="M175.7355 103.5498
L175.6403 103.5974
" />
<path d="M175.6403 103.5974
L175.5927 103.6451
" />
<path d="M175.5927 103.6451
L175.5451 103.7403
" />
<path d="M175.5451 103.7403
L175.4974 103.9308
" />
<path d="M175.4974 103.9308
L175.4974 104.1689
" />
<path d="M175.4974 104.1689
L175.5451 104.3593
" />
<path d="M175.5451 104.3593
L175.5927 104.4546
" />
<path d="M175.5927 104.4546
L175.6403 104.5022
" />
<path d="M175.6403 104.5022
L175.7355 104.5498
" />
<path d="M175.7355 104.5498
L175.8308 104.5498
" />
<path d="M175.8308 104.5498
L175.9260 104.5022
" />
<path d="M175.9260 104.5022
L175.9736 104.4546
" />
<path d="M175.9736 104.4546
L176.0212 104.3593
" />
<path d="M176.0212 104.3593
L176.0689 104.1689
" />
<path d="M176.0689 104.1689
L176.0689 103.9308
" />
<path d="M176.0689 103.9308
L176.0212 103.7403
" />
<path d="M176.0212 103.7403
L175.9736 103.6451
" />
<path d="M175.9736 103.6451
L175.9260 103.5974
" />
<path d="M175.9260 103.5974
L175.8308 103.5498
" />
<path d="M175.0689 104.4546
L175.0212 104.5022
" />
<path d="M175.0212 104.5022
L175.0689 104.5498
" />
<path d="M175.0689 104.5498
L175.1165 104.5022
" />
<path d="M175.1165 104.5022
L175.0689 104.4546
" />
<path d="M175.0689 104.4546
L175.0689 104.5498
" />
<path d="M174.4022 103.5498
L174.3070 103.5498
" />
<path d="M174.3070 103.5498
L174.2117 103.5974
" />
<path d="M174.2117 103.5974
L174.1641 103.6451
" />
<path d="M174.1641 103.6451
L174.1165 103.7403
" />
<path d="M174.1165 103.7403
L174.0689 103.9308
" />
<path d="M174.0689 103.9308
L174.0689 104.1689
" />
<path d="M174.0689 104.1689
L174.1165 104.3593
" />
<path d="M174.1165 104.3593
L174.1641 104.4546
" />
<path d="M174.1641 104.4546
L174.2117 104.5022
" />
<path d="M174.2117 104.5022
L174.3070 104.5498
" />
<path d="M174.3070 104.5498
L174.4022 104.5498
" />
<path d="M174.4022 104.5498
L174.4974 104.5022
" />
<path d="M174.4974 104.5022
L174.5451 104.4546
" />
<path d="M174.5451 104.4546
L174.5927 104.3593
" />
<path d="M174.5927 104.3593
L174.6403 104.1689
" />
<path d="M174.6403 104.1689
L174.6403 103.9308
" />
<path d="M174.6403 103.9308
L174.5927 103.7403
" />
<path d="M174.5927 103.7403
L174.5451 103.6451
" />
<path d="M174.5451 103.6451
L174.4974 103.5974
" />
<path d="M174.4974 103.5974
L174.4022 103.5498
" />
<path d="M173.4498 103.5498
L173.3546 103.5498
" />
<path d="M173.3546 103.5498
L173.2593 103.5974
" />
<path d="M173.2593 103.5974
L173.2117 103.6451
" />
<path d="M173.2117 103.6451
L173.1641 103.7403
" />
<path d="M173.1641 103.7403
L173.1165 103.9308
" />
<path d="M173.1165 103.9308
L173.1165 104.1689
" />
<path d="M173.1165 104.1689
L173.1641 104.3593
" />
<path d="M173.1641 104.3593
L173.2117 104.4546
" />
<path d="M173.2117 104.4546
L173.2593 104.5022
" />
<path d="M173.2593 104.5022
L173.3546 104.5498
" />
<path d="M173.3546 104.5498
L173.4498 104.5498
" />
<path d="M173.4498 104.5498
L173.5451 104.5022
" />
<path d="M173.5451 104.5022
L173.5927 104.4546
" />
<path d="M173.5927 104.4546
L173.6403 104.3593
" />
<path d="M173.6403 104.3593
L173.6879 104.1689
" />
<path d="M173.6879 104.1689
L173.6879 103.9308
" />
<path d="M173.6879 103.9308
L173.6403 103.7403
" />
<path d="M173.6403 103.7403
L173.5927 103.6451
" />
<path d="M173.5927 103.6451
L173.5451 103.5974
" />
<path d="M173.5451 103.5974
L173.4498 103.5498
" />
<path d="M172.4974 103.5498
L172.4022 103.5498
" />
<path d="M172.4022 103.5498
L172.3070 103.5974
" />
<path d="M172.3070 103.5974
L172.2593 103.6451
" />
<path d="M172.2593 103.6451
L172.2117 103.7403
" />
<path d="M172.2117 103.7403
L172.1641 103.9308
" />
<path d="M172.1641 103.9308
L172.1641 104.1689
" />
<path d="M172.1641 104.1689
L172.2117 104.3593
" />
<path d="M172.2117 104.3593
L172.2593 104.4546
" />
<path d="M172.2593 104.4546
L172.3070 104.5022
" />
<path d="M172.3070 104.5022
L172.4022 104.5498
" />
<path d="M172.4022 104.5498
L172.4974 104.5498
" />
<path d="M172.4974 104.5498
L172.5927 104.5022
" />
<path d="M172.5927 104.5022
L172.6403 104.4546
" />
<path d="M172.6403 104.4546
L172.6879 104.3593
" />
<path d="M172.6879 104.3593
L172.7355 104.1689
" />
<path d="M172.7355 104.1689
L172.7355 103.9308
" />
<path d="M172.7355 103.9308
L172.6879 103.7403
" />
<path d="M172.6879 103.7403
L172.6403 103.6451
" />
<path d="M172.6403 103.6451
L172.5927 103.5974
" />
<path d="M172.5927 103.5974
L172.4974 103.5498
" />
<path d="M171.5451 103.5498
L171.4498 103.5498
" />
<path d="M171.4498 103.5498
L171.3546 103.5974
" />
<path d="M171.3546 103.5974
L171.3070 103.6451
" />
<path d="M171.3070 103.6451
L171.2593 103.7403
" />
<path d="M171.2593 103.7403
L171.2117 103.9308
" />
<path d="M171.2117 103.9308
L171.2117 104.1689
" />
<path d="M171.2117 104.1689
L171.2593 104.3593
" />
<path d="M171.2593 104.3593
L171.3070 104.4546
" />
<path d="M171.3070 104.4546
L171.3546 104.5022
" />
<path d="M171.3546 104.5022
L171.4498 104.5498
" />
<path d="M171.4498 104.5498
L171.5451 104.5498
" />
<path d="M171.5451 104.5498
L171.6403 104.5022
" />
<path d="M171.6403 104.5022
L171.6879 104.4546
" />
<path d="M171.6879 104.4546
L171.7355 104.3593
" />
<path d="M171.7355 104.3593
L171.7832 104.1689
" />
<path d="M171.7832 104.1689
L171.7832 103.9308
" />
<path d="M171.7832 103.9308
L171.7355 103.7403
" />
<path d="M171.7355 103.7403
L171.6879 103.6451
" />
<path d="M171.6879 103.6451
L171.6403 103.5974
" />
<path d="M171.6403 103.5974
L171.5451 103.5498
" />
<path d="M170.0212 104.5498
L170.0212 103.8832
" />
<path d="M170.0212 103.9784
L169.9736 103.9308
" />
<path d="M169.9736 103.9308
L169.8784 103.8832
" />
<path d="M169.8784 103.8832
L169.7355 103.8832
" />
<path d="M169.7355 103.8832
L169.6403 103.9308
" />
<path d="M169.6403 103.9308
L169.5927 104.0260
" />
<path d="M169.5927 104.0260
L169.5927 104.5498
" />
<path d="M169.5927 104.0260
L169.5451 103.9308
" />
<path d="M169.5451 103.9308
L169.4498 103.8832
" />
<path d="M169.4498 103.8832
L169.3070 103.8832
" />
<path d="M169.3070 103.8832
L169.2117 103.9308
" />
<path d="M169.2117 103.9308
L169.1641 104.0260
" />
<path d="M169.1641 104.0260
L169.1641 104.5498
" />
<path d="M168.6879 104.5498
L168.6879 103.8832
" />
<path d="M168.6879 103.9784
L168.6403 103.9308
" />
<path d="M168.6403 103.9308
L168.5451 103.8832
" />
<path d="M168.5451 103.8832
L168.4022 103.8832
" />
<path d="M168.4022 103.8832
L168.3070 103.9308
" />
<path d="M168.3070 103.9308
L168.2593 104.0260
" />
<path d="M168.2593 104.0260
L168.2593 104.5498
" />
<path d="M168.2593 104.0260
L168.2117 103.9308
" />
<path d="M168.2117 103.9308
L168.1165 103.8832
" />
<path d="M168.1165 103.8832
L167.9736 103.8832
" />
<path d="M167.9736 103.8832
L167.8784 103.9308
" />
<path d="M167.8784 103.9308
L167.8308 104.0260
" />
<path d="M167.8308 104.0260
L167.8308 104.5498
" />
</g><path d="M147.4022 90.8000
L147.4022 105.8314
" />
<path d="M197.4022 90.8000
L197.4022 105.8314
" />
<path d="M147.4022 105.2450
L197.4022 105.2450
" />
<path d="M147.4022 105.2450
L197.4022 105.2450
" />
<path d="M147.4022 105.2450
L148.5287 105.8314
" />
<path d="M147.4022 105.2450
L148.5287 104.6586
" />
<path d="M197.4022 105.2450
L196.2757 104.6586
" />
<path d="M197.4022 105.2450
L196.2757 105.8314
" />
<g >
</g>
<g >
</g>
<g >
</g>
<g >
</g>
<g >
</g>
<g >
</g>
<g >
</g>
<g >
</g>
<g >
</g>
<g >
</g>
<g >
</g>
<g >
</g>
<g >
</g>
<g >
</g>
<g >
</g>
<g >
</g>
<g >
</g>
<g >
</g>
<g >
</g>
<g >
</g>
<g >
</g>
<g >
</g>
<g >
</g>
<g >
</g>
<g >
</g>
<g >
</g>
<g >
</g>
<g >
</g>
<g >
</g>
<g >
</g>
<g >
</g>
<g >
</g>
<g >
</g>
<g >
</g>
<g >
</g>
<g >
</g>
<g >
</g>
<g >
</g>
<g >
</g>
<g >
</g>
<g >
</g>
<g >
</g>
</g> 
</svg>
