<?xml version="1.0" standalone="no"?>
 <!DOCTYPE svg PUBLIC "-//W3C//DTD SVG 1.1//EN" 
 "http://www.w3.org/Graphics/SVG/1.1/DTD/svg11.dtd"> 
<svg
  xmlns:svg="http://www.w3.org/2000/svg"
  xmlns="http://www.w3.org/2000/svg"
  xmlns:xlink="http://www.w3.org/1999/xlink"
  version="1.1"
  width="297.0022mm" height="210.0072mm" viewBox="0.0000 0.0000 297.0022 210.0072">
<title>SVG Image created as m5-pantilt-User_Comments.svg date 2023/09/19 04:43:35 </title>
  <desc>Image generated by PCBNEW </desc>
<g style="fill:#000000; fill-opacity:1.0000;stroke:#000000; stroke-opacity:1.0000;
stroke-linecap:round; stroke-linejoin:round;"
 transform="translate(0 0) scale(1 1)">
</g>
<g style="fill:#000000; fill-opacity:0.0; 
stroke:#000000; stroke-width:0.0000; stroke-opacity:1; 
stroke-linecap:round; stroke-linejoin:round;">
</g>
<g style="fill:#000000; fill-opacity:0.0; 
stroke:#000000; stroke-width:0.1200; stroke-opacity:1; 
stroke-linecap:round; stroke-linejoin:round;">
<path d="M193.8522 98.9500
L189.7022 98.9500
" />
<path d="M193.8522 94.7500
L189.7022 94.7500
" />
<path d="M189.7022 94.7500 A2.1000 2.1000 0.0 0 0 189.7022 98.9500" />
<path d="M193.8522 98.9500 A2.1000 2.1000 0.0 0 0 193.8522 94.7500" />
<path d="M150.1522 94.7500
L154.3022 94.7500
" />
<path d="M150.1522 98.9500
L154.3022 98.9500
" />
<path d="M154.3022 98.9500 A2.1000 2.1000 0.0 0 0 154.3022 94.7500" />
<path d="M150.1522 94.7500 A2.1000 2.1000 0.0 0 0 150.1522 98.9500" />
<path d="M150.1522 51.0500
L154.3022 51.0500
" />
<path d="M150.1522 55.2500
L154.3022 55.2500
" />
<path d="M154.3022 55.2500 A2.1000 2.1000 0.0 0 0 154.3022 51.0500" />
<path d="M150.1522 51.0500 A2.1000 2.1000 0.0 0 0 150.1522 55.2500" />
<path d="M193.8522 55.2500
L189.7022 55.2500
" />
<path d="M193.8522 51.0500
L189.7022 51.0500
" />
<path d="M189.7022 51.0500 A2.1000 2.1000 0.0 0 0 189.7022 55.2500" />
<path d="M193.8522 55.2500 A2.1000 2.1000 0.0 0 0 193.8522 51.0500" />
<g >
</g>
<g >
</g>
<g >
</g>
<g >
</g>
<g >
</g>
<g >
</g>
<g >
</g>
<g >
</g>
<g >
</g>
<g >
</g>
<g >
</g>
<g >
</g>
<g >
</g>
<g >
</g>
<g >
</g>
<g >
</g>
<g >
</g>
<g >
</g>
<g >
</g>
<g >
</g>
<g >
</g>
<g >
</g>
<g >
</g>
<g >
</g>
<g >
</g>
<g >
</g>
<g >
</g>
<g >
</g>
<g >
</g>
<g >
</g>
<g >
</g>
<g >
</g>
<g >
</g>
<g >
</g>
<g >
</g>
<g >
</g>
<g >
</g>
<g >
</g>
<g >
</g>
<g >
</g>
<g >
</g>
<g >
</g>
</g> 
</svg>
