<?xml version="1.0" standalone="no"?>
 <!DOCTYPE svg PUBLIC "-//W3C//DTD SVG 1.1//EN" 
 "http://www.w3.org/Graphics/SVG/1.1/DTD/svg11.dtd"> 
<svg
  xmlns:svg="http://www.w3.org/2000/svg"
  xmlns="http://www.w3.org/2000/svg"
  xmlns:xlink="http://www.w3.org/1999/xlink"
  version="1.1"
  width="297.0022mm" height="210.0072mm" viewBox="0.0000 0.0000 297.0022 210.0072">
<title>SVG Image created as m5-pantilt-Edge_Cuts.svg date 2023/09/19 04:43:35 </title>
  <desc>Image generated by PCBNEW </desc>
<g style="fill:#000000; fill-opacity:1.0000;stroke:#000000; stroke-opacity:1.0000;
stroke-linecap:round; stroke-linejoin:round;"
 transform="translate(0 0) scale(1 1)">
</g>
<g style="fill:#000000; fill-opacity:0.0; 
stroke:#000000; stroke-width:0.0000; stroke-opacity:1; 
stroke-linecap:round; stroke-linejoin:round;">
</g>
<g style="fill:#000000; fill-opacity:0.0; 
stroke:#000000; stroke-width:0.0500; stroke-opacity:1; 
stroke-linecap:round; stroke-linejoin:round;">
<path d="M157.0022 100.0000
L187.0022 100.0000
" />
<path d="M147.5022 53.0000
L147.5022 60.0000
" />
<path d="M150.0022 50.5000
L157.0022 50.5000
" />
<path d="M196.5022 97.0000
L196.5022 90.0000
" />
<path d="M196.5022 53.0000
L196.5022 60.0000
" />
<path d="M196.5022 53.0000 A2.5000 2.5000 0.0 0 0 194.0022 50.5000" />
<path d="M147.5022 60.0000
L147.0022 60.0000
" />
<path d="M147.5022 90.0000
L147.0022 90.0000
" />
<path d="M157.0022 99.5000
L157.0022 100.0000
" />
<path d="M187.0022 99.5000
L187.0022 100.0000
" />
<path d="M196.5022 90.0000
L197.0022 90.0000
" />
<path d="M197.0022 60.0000
L196.5022 60.0000
" />
<path d="M187.0022 50.0000
L187.0022 50.5000
" />
<circle cx="190.8022" cy="88.9764" r="0.5500" /> 
<path d="M197.0022 90.0000
L197.0022 60.0000
" />
<path d="M194.0022 99.5000 A2.5000 2.5000 0.0 0 0 196.5022 97.0000" />
<path d="M194.0022 99.5000
L187.0022 99.5000
" />
<circle cx="190.8022" cy="61.0296" r="0.5500" /> 
<path d="M147.5022 97.0000 A2.5000 2.5000 0.0 0 0 150.0022 99.5000" />
<path d="M150.0022 50.5000 A2.5000 2.5000 0.0 0 0 147.5022 53.0000" />
<path d="M187.0022 50.0000
L157.0022 50.0000
" />
<circle cx="190.8022" cy="58.5000" r="0.5500" /> 
<path d="M147.5022 97.0000
L147.5022 90.0000
" />
<circle cx="190.8022" cy="91.5500" r="0.5500" /> 
<path d="M194.0022 50.5000
L187.0022 50.5000
" />
<path d="M147.0022 60.0000
L147.0022 90.0000
" />
<path d="M157.0022 50.0000
L157.0022 50.5000
" />
<path d="M150.0022 99.5000
L157.0022 99.5000
" />
<g >
</g>
<g >
</g>
<g >
</g>
<g >
</g>
<g >
</g>
<g >
</g>
<g >
</g>
<g >
</g>
<g >
</g>
<g >
</g>
<g >
</g>
<g >
</g>
<g >
</g>
<g >
</g>
<g >
</g>
<g >
</g>
<g >
</g>
<g >
</g>
<g >
</g>
<g >
</g>
<g >
</g>
<g >
</g>
<g >
</g>
<g >
</g>
<g >
</g>
<g >
</g>
<g >
</g>
<g >
</g>
<g >
</g>
<g >
</g>
<g >
</g>
<g >
</g>
<g >
</g>
<g >
</g>
<g >
</g>
<g >
</g>
<g >
</g>
<g >
</g>
<g >
</g>
<g >
</g>
<g >
</g>
<g >
</g>
</g> 
</svg>
