<?xml version="1.0" standalone="no"?>
 <!DOCTYPE svg PUBLIC "-//W3C//DTD SVG 1.1//EN" 
 "http://www.w3.org/Graphics/SVG/1.1/DTD/svg11.dtd"> 
<svg
  xmlns:svg="http://www.w3.org/2000/svg"
  xmlns="http://www.w3.org/2000/svg"
  xmlns:xlink="http://www.w3.org/1999/xlink"
  version="1.1"
  width="297.0022mm" height="210.0072mm" viewBox="0.0000 0.0000 297.0022 210.0072">
<title>SVG Image created as m5-pantilt-B_Fab.svg date 2023/09/19 04:43:35 </title>
  <desc>Image generated by PCBNEW </desc>
<g style="fill:#000000; fill-opacity:1.0000;stroke:#000000; stroke-opacity:1.0000;
stroke-linecap:round; stroke-linejoin:round;"
 transform="translate(0 0) scale(1 1)">
</g>
<g style="fill:#000000; fill-opacity:0.0; 
stroke:#000000; stroke-width:0.0000; stroke-opacity:1; 
stroke-linecap:round; stroke-linejoin:round;">
</g>
<g style="fill:#000000; fill-opacity:0.0; 
stroke:#000000; stroke-width:0.1500; stroke-opacity:1; 
stroke-linecap:round; stroke-linejoin:round;">
<text x="184.5054" y="95.4708"
transform="scale(-1 1) translate(-369.010800 0)"
textLength="17.1548" font-size="1.3333" lengthAdjust="spacingAndGlyphs"
text-anchor="middle" opacity="0">Conn_02x15_Odd_Even</text>
<g class="stroked-text"><desc>Conn_02x15_Odd_Even</desc>
<path d="M176.8625 95.3304
L176.8149 95.3780
" />
<path d="M176.8149 95.3780
L176.6721 95.4256
" />
<path d="M176.6721 95.4256
L176.5768 95.4256
" />
<path d="M176.5768 95.4256
L176.4340 95.3780
" />
<path d="M176.4340 95.3780
L176.3387 95.2828
" />
<path d="M176.3387 95.2828
L176.2911 95.1875
" />
<path d="M176.2911 95.1875
L176.2435 94.9970
" />
<path d="M176.2435 94.9970
L176.2435 94.8542
" />
<path d="M176.2435 94.8542
L176.2911 94.6637
" />
<path d="M176.2911 94.6637
L176.3387 94.5685
" />
<path d="M176.3387 94.5685
L176.4340 94.4732
" />
<path d="M176.4340 94.4732
L176.5768 94.4256
" />
<path d="M176.5768 94.4256
L176.6721 94.4256
" />
<path d="M176.6721 94.4256
L176.8149 94.4732
" />
<path d="M176.8149 94.4732
L176.8625 94.5209
" />
<path d="M177.4340 95.4256
L177.3387 95.3780
" />
<path d="M177.3387 95.3780
L177.2911 95.3304
" />
<path d="M177.2911 95.3304
L177.2435 95.2351
" />
<path d="M177.2435 95.2351
L177.2435 94.9494
" />
<path d="M177.2435 94.9494
L177.2911 94.8542
" />
<path d="M177.2911 94.8542
L177.3387 94.8066
" />
<path d="M177.3387 94.8066
L177.4340 94.7590
" />
<path d="M177.4340 94.7590
L177.5768 94.7590
" />
<path d="M177.5768 94.7590
L177.6721 94.8066
" />
<path d="M177.6721 94.8066
L177.7197 94.8542
" />
<path d="M177.7197 94.8542
L177.7673 94.9494
" />
<path d="M177.7673 94.9494
L177.7673 95.2351
" />
<path d="M177.7673 95.2351
L177.7197 95.3304
" />
<path d="M177.7197 95.3304
L177.6721 95.3780
" />
<path d="M177.6721 95.3780
L177.5768 95.4256
" />
<path d="M177.5768 95.4256
L177.4340 95.4256
" />
<path d="M178.1959 94.7590
L178.1959 95.4256
" />
<path d="M178.1959 94.8542
L178.2435 94.8066
" />
<path d="M178.2435 94.8066
L178.3387 94.7590
" />
<path d="M178.3387 94.7590
L178.4816 94.7590
" />
<path d="M178.4816 94.7590
L178.5768 94.8066
" />
<path d="M178.5768 94.8066
L178.6244 94.9018
" />
<path d="M178.6244 94.9018
L178.6244 95.4256
" />
<path d="M179.1006 94.7590
L179.1006 95.4256
" />
<path d="M179.1006 94.8542
L179.1483 94.8066
" />
<path d="M179.1483 94.8066
L179.2435 94.7590
" />
<path d="M179.2435 94.7590
L179.3864 94.7590
" />
<path d="M179.3864 94.7590
L179.4816 94.8066
" />
<path d="M179.4816 94.8066
L179.5292 94.9018
" />
<path d="M179.5292 94.9018
L179.5292 95.4256
" />
<path d="M179.7673 95.5209
L180.5292 95.5209
" />
<path d="M180.9578 94.4256
L181.0530 94.4256
" />
<path d="M181.0530 94.4256
L181.1483 94.4732
" />
<path d="M181.1483 94.4732
L181.1959 94.5209
" />
<path d="M181.1959 94.5209
L181.2435 94.6161
" />
<path d="M181.2435 94.6161
L181.2911 94.8066
" />
<path d="M181.2911 94.8066
L181.2911 95.0447
" />
<path d="M181.2911 95.0447
L181.2435 95.2351
" />
<path d="M181.2435 95.2351
L181.1959 95.3304
" />
<path d="M181.1959 95.3304
L181.1483 95.3780
" />
<path d="M181.1483 95.3780
L181.0530 95.4256
" />
<path d="M181.0530 95.4256
L180.9578 95.4256
" />
<path d="M180.9578 95.4256
L180.8625 95.3780
" />
<path d="M180.8625 95.3780
L180.8149 95.3304
" />
<path d="M180.8149 95.3304
L180.7673 95.2351
" />
<path d="M180.7673 95.2351
L180.7197 95.0447
" />
<path d="M180.7197 95.0447
L180.7197 94.8066
" />
<path d="M180.7197 94.8066
L180.7673 94.6161
" />
<path d="M180.7673 94.6161
L180.8149 94.5209
" />
<path d="M180.8149 94.5209
L180.8625 94.4732
" />
<path d="M180.8625 94.4732
L180.9578 94.4256
" />
<path d="M181.6721 94.5209
L181.7197 94.4732
" />
<path d="M181.7197 94.4732
L181.8149 94.4256
" />
<path d="M181.8149 94.4256
L182.0530 94.4256
" />
<path d="M182.0530 94.4256
L182.1483 94.4732
" />
<path d="M182.1483 94.4732
L182.1959 94.5209
" />
<path d="M182.1959 94.5209
L182.2435 94.6161
" />
<path d="M182.2435 94.6161
L182.2435 94.7113
" />
<path d="M182.2435 94.7113
L182.1959 94.8542
" />
<path d="M182.1959 94.8542
L181.6244 95.4256
" />
<path d="M181.6244 95.4256
L182.2435 95.4256
" />
<path d="M182.5768 95.4256
L183.1006 94.7590
" />
<path d="M182.5768 94.7590
L183.1006 95.4256
" />
<path d="M184.0054 95.4256
L183.4340 95.4256
" />
<path d="M183.7197 95.4256
L183.7197 94.4256
" />
<path d="M183.7197 94.4256
L183.6244 94.5685
" />
<path d="M183.6244 94.5685
L183.5292 94.6637
" />
<path d="M183.5292 94.6637
L183.4340 94.7113
" />
<path d="M184.9102 94.4256
L184.4340 94.4256
" />
<path d="M184.4340 94.4256
L184.3864 94.9018
" />
<path d="M184.3864 94.9018
L184.4340 94.8542
" />
<path d="M184.4340 94.8542
L184.5292 94.8066
" />
<path d="M184.5292 94.8066
L184.7673 94.8066
" />
<path d="M184.7673 94.8066
L184.8625 94.8542
" />
<path d="M184.8625 94.8542
L184.9102 94.9018
" />
<path d="M184.9102 94.9018
L184.9578 94.9970
" />
<path d="M184.9578 94.9970
L184.9578 95.2351
" />
<path d="M184.9578 95.2351
L184.9102 95.3304
" />
<path d="M184.9102 95.3304
L184.8625 95.3780
" />
<path d="M184.8625 95.3780
L184.7673 95.4256
" />
<path d="M184.7673 95.4256
L184.5292 95.4256
" />
<path d="M184.5292 95.4256
L184.4340 95.3780
" />
<path d="M184.4340 95.3780
L184.3864 95.3304
" />
<path d="M185.1483 95.5209
L185.9102 95.5209
" />
<path d="M186.3387 94.4256
L186.5292 94.4256
" />
<path d="M186.5292 94.4256
L186.6244 94.4732
" />
<path d="M186.6244 94.4732
L186.7197 94.5685
" />
<path d="M186.7197 94.5685
L186.7673 94.7590
" />
<path d="M186.7673 94.7590
L186.7673 95.0923
" />
<path d="M186.7673 95.0923
L186.7197 95.2828
" />
<path d="M186.7197 95.2828
L186.6244 95.3780
" />
<path d="M186.6244 95.3780
L186.5292 95.4256
" />
<path d="M186.5292 95.4256
L186.3387 95.4256
" />
<path d="M186.3387 95.4256
L186.2435 95.3780
" />
<path d="M186.2435 95.3780
L186.1483 95.2828
" />
<path d="M186.1483 95.2828
L186.1006 95.0923
" />
<path d="M186.1006 95.0923
L186.1006 94.7590
" />
<path d="M186.1006 94.7590
L186.1483 94.5685
" />
<path d="M186.1483 94.5685
L186.2435 94.4732
" />
<path d="M186.2435 94.4732
L186.3387 94.4256
" />
<path d="M187.6244 95.4256
L187.6244 94.4256
" />
<path d="M187.6244 95.3780
L187.5292 95.4256
" />
<path d="M187.5292 95.4256
L187.3387 95.4256
" />
<path d="M187.3387 95.4256
L187.2435 95.3780
" />
<path d="M187.2435 95.3780
L187.1959 95.3304
" />
<path d="M187.1959 95.3304
L187.1483 95.2351
" />
<path d="M187.1483 95.2351
L187.1483 94.9494
" />
<path d="M187.1483 94.9494
L187.1959 94.8542
" />
<path d="M187.1959 94.8542
L187.2435 94.8066
" />
<path d="M187.2435 94.8066
L187.3387 94.7590
" />
<path d="M187.3387 94.7590
L187.5292 94.7590
" />
<path d="M187.5292 94.7590
L187.6244 94.8066
" />
<path d="M188.5292 95.4256
L188.5292 94.4256
" />
<path d="M188.5292 95.3780
L188.4340 95.4256
" />
<path d="M188.4340 95.4256
L188.2435 95.4256
" />
<path d="M188.2435 95.4256
L188.1483 95.3780
" />
<path d="M188.1483 95.3780
L188.1006 95.3304
" />
<path d="M188.1006 95.3304
L188.0530 95.2351
" />
<path d="M188.0530 95.2351
L188.0530 94.9494
" />
<path d="M188.0530 94.9494
L188.1006 94.8542
" />
<path d="M188.1006 94.8542
L188.1483 94.8066
" />
<path d="M188.1483 94.8066
L188.2435 94.7590
" />
<path d="M188.2435 94.7590
L188.4340 94.7590
" />
<path d="M188.4340 94.7590
L188.5292 94.8066
" />
<path d="M188.7673 95.5209
L189.5292 95.5209
" />
<path d="M189.7673 94.9018
L190.1006 94.9018
" />
<path d="M190.2435 95.4256
L189.7673 95.4256
" />
<path d="M189.7673 95.4256
L189.7673 94.4256
" />
<path d="M189.7673 94.4256
L190.2435 94.4256
" />
<path d="M190.5768 94.7590
L190.8149 95.4256
" />
<path d="M190.8149 95.4256
L191.0530 94.7590
" />
<path d="M191.8149 95.3780
L191.7197 95.4256
" />
<path d="M191.7197 95.4256
L191.5292 95.4256
" />
<path d="M191.5292 95.4256
L191.4340 95.3780
" />
<path d="M191.4340 95.3780
L191.3864 95.2828
" />
<path d="M191.3864 95.2828
L191.3864 94.9018
" />
<path d="M191.3864 94.9018
L191.4340 94.8066
" />
<path d="M191.4340 94.8066
L191.5292 94.7590
" />
<path d="M191.5292 94.7590
L191.7197 94.7590
" />
<path d="M191.7197 94.7590
L191.8149 94.8066
" />
<path d="M191.8149 94.8066
L191.8625 94.9018
" />
<path d="M191.8625 94.9018
L191.8625 94.9970
" />
<path d="M191.8625 94.9970
L191.3864 95.0923
" />
<path d="M192.2911 94.7590
L192.2911 95.4256
" />
<path d="M192.2911 94.8542
L192.3387 94.8066
" />
<path d="M192.3387 94.8066
L192.4340 94.7590
" />
<path d="M192.4340 94.7590
L192.5768 94.7590
" />
<path d="M192.5768 94.7590
L192.6721 94.8066
" />
<path d="M192.6721 94.8066
L192.7197 94.9018
" />
<path d="M192.7197 94.9018
L192.7197 95.4256
" />
</g><g transform="rotate(-90.000000 192.0722 92.7800)">
<text x="192.0722" y="93.2800"
transform="scale(-1 1) translate(-384.144400 0)"
textLength="1.9643" font-size="1.3333" lengthAdjust="spacingAndGlyphs"
text-anchor="middle" opacity="0">J1</text>
</g>
<g class="stroked-text"><desc>J1</desc>
<path d="M192.6174 92.4467
L191.9031 92.4467
" />
<path d="M191.9031 92.4467
L191.7602 92.3990
" />
<path d="M191.7602 92.3990
L191.6650 92.3038
" />
<path d="M191.6650 92.3038
L191.6174 92.1610
" />
<path d="M191.6174 92.1610
L191.6174 92.0657
" />
<path d="M191.6174 93.4467
L191.6174 92.8752
" />
<path d="M191.6174 93.1610
L192.6174 93.1610
" />
<path d="M192.6174 93.1610
L192.4745 93.0657
" />
<path d="M192.4745 93.0657
L192.3793 92.9705
" />
<path d="M192.3793 92.9705
L192.3317 92.8752
" />
</g></g>
<g style="fill:#000000; fill-opacity:0.0; 
stroke:#000000; stroke-width:0.1000; stroke-opacity:1; 
stroke-linecap:round; stroke-linejoin:round;">
<path d="M187.2022 93.1000
L188.2622 93.1000
" />
<path d="M187.2022 92.4600
L187.2022 93.1000
" />
<path d="M187.2022 90.5600
L188.2622 90.5600
" />
<path d="M187.2022 89.9200
L187.2022 90.5600
" />
<path d="M187.2022 88.0200
L188.2622 88.0200
" />
<path d="M187.2022 87.3800
L187.2022 88.0200
" />
<path d="M187.2022 85.4800
L188.2622 85.4800
" />
<path d="M187.2022 84.8400
L187.2022 85.4800
" />
<path d="M187.2022 82.9400
L188.2622 82.9400
" />
<path d="M187.2022 82.3000
L187.2022 82.9400
" />
<path d="M187.2022 80.4000
L188.2622 80.4000
" />
<path d="M187.2022 79.7600
L187.2022 80.4000
" />
<path d="M187.2022 77.8600
L188.2622 77.8600
" />
<path d="M187.2022 77.2200
L187.2022 77.8600
" />
<path d="M187.2022 75.3200
L188.2622 75.3200
" />
<path d="M187.2022 74.6800
L187.2022 75.3200
" />
<path d="M187.2022 72.7800
L188.2622 72.7800
" />
<path d="M187.2022 72.1400
L187.2022 72.7800
" />
<path d="M187.2022 70.2400
L188.2622 70.2400
" />
<path d="M187.2022 69.6000
L187.2022 70.2400
" />
<path d="M187.2022 67.7000
L188.2622 67.7000
" />
<path d="M187.2022 67.0600
L187.2022 67.7000
" />
<path d="M187.2022 65.1600
L188.2622 65.1600
" />
<path d="M187.2022 64.5200
L187.2022 65.1600
" />
<path d="M187.2022 62.6200
L188.2622 62.6200
" />
<path d="M187.2022 61.9800
L187.2022 62.6200
" />
<path d="M187.2022 60.0800
L188.2622 60.0800
" />
<path d="M187.2022 59.4400
L187.2022 60.0800
" />
<path d="M187.2022 57.5400
L188.2622 57.5400
" />
<path d="M187.2022 56.9000
L187.2022 57.5400
" />
<path d="M188.2622 94.0500
L188.2622 56.9000
" />
<path d="M188.2622 92.4600
L187.2022 92.4600
" />
<path d="M188.2622 89.9200
L187.2022 89.9200
" />
<path d="M188.2622 87.3800
L187.2022 87.3800
" />
<path d="M188.2622 84.8400
L187.2022 84.8400
" />
<path d="M188.2622 82.3000
L187.2022 82.3000
" />
<path d="M188.2622 79.7600
L187.2022 79.7600
" />
<path d="M188.2622 77.2200
L187.2022 77.2200
" />
<path d="M188.2622 74.6800
L187.2022 74.6800
" />
<path d="M188.2622 72.1400
L187.2022 72.1400
" />
<path d="M188.2622 69.6000
L187.2022 69.6000
" />
<path d="M188.2622 67.0600
L187.2022 67.0600
" />
<path d="M188.2622 64.5200
L187.2022 64.5200
" />
<path d="M188.2622 61.9800
L187.2022 61.9800
" />
<path d="M188.2622 59.4400
L187.2022 59.4400
" />
<path d="M188.2622 56.9000
L187.2022 56.9000
" />
<path d="M188.2622 56.9000
L189.2122 55.9500
" />
<path d="M189.2122 55.9500
L193.3422 55.9500
" />
<path d="M193.3422 94.0500
L188.2622 94.0500
" />
<path d="M193.3422 92.4600
L194.4022 92.4600
" />
<path d="M193.3422 89.9200
L194.4022 89.9200
" />
<path d="M193.3422 87.3800
L194.4022 87.3800
" />
<path d="M193.3422 84.8400
L194.4022 84.8400
" />
<path d="M193.3422 82.3000
L194.4022 82.3000
" />
<path d="M193.3422 79.7600
L194.4022 79.7600
" />
<path d="M193.3422 77.2200
L194.4022 77.2200
" />
<path d="M193.3422 74.6800
L194.4022 74.6800
" />
<path d="M193.3422 72.1400
L194.4022 72.1400
" />
<path d="M193.3422 69.6000
L194.4022 69.6000
" />
<path d="M193.3422 67.0600
L194.4022 67.0600
" />
<path d="M193.3422 64.5200
L194.4022 64.5200
" />
<path d="M193.3422 61.9800
L194.4022 61.9800
" />
<path d="M193.3422 59.4400
L194.4022 59.4400
" />
<path d="M193.3422 56.9000
L194.4022 56.9000
" />
<path d="M193.3422 55.9500
L193.3422 94.0500
" />
<path d="M194.4022 93.1000
L193.3422 93.1000
" />
<path d="M194.4022 92.4600
L194.4022 93.1000
" />
<path d="M194.4022 90.5600
L193.3422 90.5600
" />
<path d="M194.4022 89.9200
L194.4022 90.5600
" />
<path d="M194.4022 88.0200
L193.3422 88.0200
" />
<path d="M194.4022 87.3800
L194.4022 88.0200
" />
<path d="M194.4022 85.4800
L193.3422 85.4800
" />
<path d="M194.4022 84.8400
L194.4022 85.4800
" />
<path d="M194.4022 82.9400
L193.3422 82.9400
" />
<path d="M194.4022 82.3000
L194.4022 82.9400
" />
<path d="M194.4022 80.4000
L193.3422 80.4000
" />
<path d="M194.4022 79.7600
L194.4022 80.4000
" />
<path d="M194.4022 77.8600
L193.3422 77.8600
" />
<path d="M194.4022 77.2200
L194.4022 77.8600
" />
<path d="M194.4022 75.3200
L193.3422 75.3200
" />
<path d="M194.4022 74.6800
L194.4022 75.3200
" />
<path d="M194.4022 72.7800
L193.3422 72.7800
" />
<path d="M194.4022 72.1400
L194.4022 72.7800
" />
<path d="M194.4022 70.2400
L193.3422 70.2400
" />
<path d="M194.4022 69.6000
L194.4022 70.2400
" />
<path d="M194.4022 67.7000
L193.3422 67.7000
" />
<path d="M194.4022 67.0600
L194.4022 67.7000
" />
<path d="M194.4022 65.1600
L193.3422 65.1600
" />
<path d="M194.4022 64.5200
L194.4022 65.1600
" />
<path d="M194.4022 62.6200
L193.3422 62.6200
" />
<path d="M194.4022 61.9800
L194.4022 62.6200
" />
<path d="M194.4022 60.0800
L193.3422 60.0800
" />
<path d="M194.4022 59.4400
L194.4022 60.0800
" />
<path d="M194.4022 57.5400
L193.3422 57.5400
" />
<path d="M194.4022 56.9000
L194.4022 57.5400
" />
<g >
</g>
<g >
</g>
<g >
</g>
<g >
</g>
<g >
</g>
<g >
</g>
<g >
</g>
<g >
</g>
<g >
</g>
<g >
</g>
<g >
</g>
<g >
</g>
<g >
</g>
<g >
</g>
<g >
</g>
<g >
</g>
<g >
</g>
<g >
</g>
<g >
</g>
<g >
</g>
<g >
</g>
<g >
</g>
<g >
</g>
<g >
</g>
<g >
</g>
<g >
</g>
<g >
</g>
<g >
</g>
<g >
</g>
<g >
</g>
<g >
</g>
<g >
</g>
<g >
</g>
<g >
</g>
<g >
</g>
<g >
</g>
<g >
</g>
<g >
</g>
<g >
</g>
<g >
</g>
<g >
</g>
<g >
</g>
</g> 
</svg>
